<?xml version="1.0" encoding="UTF-8"?><svg id="Layer_1" xmlns="http://www.w3.org/2000/svg" xmlns:xlink="http://www.w3.org/1999/xlink" viewBox="0 0 554.37 76.74"><defs><style>.cls-1{fill:#004996;}.cls-2{fill:#f2672a;}.cls-3{fill:#cbaf00;}.cls-4{fill:#0f2c52;}.cls-5{fill:url(#radial-gradient-70);}.cls-6{fill:url(#radial-gradient-72);}.cls-7{fill:url(#radial-gradient-74);}.cls-8{fill:url(#radial-gradient-73);}.cls-9{fill:url(#radial-gradient-76);}.cls-10{fill:url(#radial-gradient-71);}.cls-11{fill:url(#radial-gradient-69);}.cls-12{fill:url(#radial-gradient-67);}.cls-13{fill:url(#radial-gradient-68);}.cls-14{fill:url(#radial-gradient-75);}.cls-15{fill:url(#radial-gradient-63);}.cls-16{fill:url(#radial-gradient-66);}.cls-17{fill:url(#radial-gradient-64);}.cls-18{fill:url(#radial-gradient-62);}.cls-19{fill:url(#radial-gradient-61);}.cls-20{fill:url(#radial-gradient-65);}.cls-21{fill:url(#radial-gradient-60);}.cls-22{fill:url(#radial-gradient-47);}.cls-23{fill:url(#radial-gradient-48);}.cls-24{fill:url(#radial-gradient-20);}.cls-25{fill:url(#radial-gradient-21);}.cls-26{fill:url(#radial-gradient-45);}.cls-27{fill:url(#radial-gradient-46);}.cls-28{fill:url(#radial-gradient-40);}.cls-29{fill:url(#radial-gradient-30);}.cls-30{fill:url(#radial-gradient-33);}.cls-31{fill:url(#radial-gradient-32);}.cls-32{fill:url(#radial-gradient-38);}.cls-33{fill:url(#radial-gradient-31);}.cls-34{fill:url(#radial-gradient-37);}.cls-35{fill:url(#radial-gradient-36);}.cls-36{fill:url(#radial-gradient-39);}.cls-37{fill:url(#radial-gradient-26);}.cls-38{fill:url(#radial-gradient-27);}.cls-39{fill:url(#radial-gradient-22);}.cls-40{fill:url(#radial-gradient-24);}.cls-41{fill:url(#radial-gradient-23);}.cls-42{fill:url(#radial-gradient-28);}.cls-43{fill:url(#radial-gradient-29);}.cls-44{fill:url(#radial-gradient-35);}.cls-45{fill:url(#radial-gradient-34);}.cls-46{fill:url(#radial-gradient-52);}.cls-47{fill:url(#radial-gradient-51);}.cls-48{fill:url(#radial-gradient-59);}.cls-49{fill:url(#radial-gradient-54);}.cls-50{fill:url(#radial-gradient-53);}.cls-51{fill:url(#radial-gradient-25);}.cls-52{fill:url(#radial-gradient-56);}.cls-53{fill:url(#radial-gradient-50);}.cls-54{fill:url(#radial-gradient-55);}.cls-55{fill:url(#radial-gradient-41);}.cls-56{fill:url(#radial-gradient-42);}.cls-57{fill:url(#radial-gradient-44);}.cls-58{fill:url(#radial-gradient-43);}.cls-59{fill:url(#radial-gradient-49);}.cls-60{fill:url(#radial-gradient-57);}.cls-61{fill:url(#radial-gradient-58);}.cls-62{fill:url(#radial-gradient-10);}.cls-63{fill:url(#radial-gradient-19);}.cls-64{fill:url(#radial-gradient-18);}.cls-65{fill:url(#radial-gradient-17);}.cls-66{fill:url(#radial-gradient-11);}.cls-67{fill:url(#radial-gradient-16);}.cls-68{fill:url(#radial-gradient-15);}.cls-69{fill:url(#radial-gradient-12);}.cls-70{fill:url(#radial-gradient-14);}.cls-71{fill:url(#radial-gradient-13);}.cls-72{fill:url(#radial-gradient-6);}.cls-73{fill:url(#radial-gradient-5);}.cls-74{fill:url(#radial-gradient-3);}.cls-75{fill:url(#radial-gradient-4);}.cls-76{fill:url(#radial-gradient-9);}.cls-77{fill:url(#radial-gradient-8);}.cls-78{fill:url(#radial-gradient-7);}.cls-79{fill:url(#radial-gradient-2);}.cls-80{fill:url(#radial-gradient);}</style><radialGradient id="radial-gradient" cx="-858.58" cy="249.51" fx="-858.58" fy="249.51" r="26.3" gradientTransform="translate(1639.64 -368.46) scale(1.58)" gradientUnits="userSpaceOnUse"><stop offset=".08" stop-color="#fff"/><stop offset=".54" stop-color="#edf8fd"/><stop offset=".61" stop-color="#e2edf7"/><stop offset=".87" stop-color="#bdc6e3"/><stop offset="1" stop-color="#afb7dc"/></radialGradient><radialGradient id="radial-gradient-2" cx="-858.58" cy="249.51" fx="-858.58" fy="249.51" r="26.3" xlink:href="#radial-gradient"/><radialGradient id="radial-gradient-3" cx="-858.58" cy="249.51" fx="-858.58" fy="249.51" r="26.31" xlink:href="#radial-gradient"/><radialGradient id="radial-gradient-4" cx="-858.58" cy="249.51" fx="-858.58" fy="249.51" r="26.31" xlink:href="#radial-gradient"/><radialGradient id="radial-gradient-5" cx="-858.58" cy="249.51" fx="-858.58" fy="249.51" r="26.3" xlink:href="#radial-gradient"/><radialGradient id="radial-gradient-6" cx="-858.58" cy="249.51" fx="-858.58" fy="249.51" r="26.3" xlink:href="#radial-gradient"/><radialGradient id="radial-gradient-7" cx="-858.58" cy="249.51" fx="-858.58" fy="249.51" r="26.3" xlink:href="#radial-gradient"/><radialGradient id="radial-gradient-8" cx="-858.58" cy="249.51" fx="-858.58" fy="249.51" r="26.3" xlink:href="#radial-gradient"/><radialGradient id="radial-gradient-9" cx="-858.58" cy="249.51" fx="-858.58" fy="249.51" r="26.31" xlink:href="#radial-gradient"/><radialGradient id="radial-gradient-10" cx="-858.58" cy="249.51" fx="-858.58" fy="249.51" r="26.3" xlink:href="#radial-gradient"/><radialGradient id="radial-gradient-11" cx="-858.58" cy="249.51" fx="-858.58" fy="249.51" r="26.31" xlink:href="#radial-gradient"/><radialGradient id="radial-gradient-12" cx="-858.58" cy="249.51" fx="-858.58" fy="249.51" r="26.3" xlink:href="#radial-gradient"/><radialGradient id="radial-gradient-13" cx="-858.58" cy="249.51" fx="-858.58" fy="249.51" r="26.31" xlink:href="#radial-gradient"/><radialGradient id="radial-gradient-14" cx="-858.58" cy="249.51" fx="-858.58" fy="249.51" r="26.3" xlink:href="#radial-gradient"/><radialGradient id="radial-gradient-15" cx="-858.58" cy="249.51" fx="-858.58" fy="249.51" r="26.3" xlink:href="#radial-gradient"/><radialGradient id="radial-gradient-16" cx="-858.58" cy="249.51" fx="-858.58" fy="249.51" r="26.31" xlink:href="#radial-gradient"/><radialGradient id="radial-gradient-17" cx="-858.58" cy="249.51" fx="-858.58" fy="249.51" r="26.3" xlink:href="#radial-gradient"/><radialGradient id="radial-gradient-18" cx="-858.58" cy="249.51" fx="-858.58" fy="249.51" r="26.3" xlink:href="#radial-gradient"/><radialGradient id="radial-gradient-19" cx="-858.58" cy="249.51" fx="-858.58" fy="249.51" r="26.31" xlink:href="#radial-gradient"/><radialGradient id="radial-gradient-20" cx="-858.58" cy="249.51" fx="-858.58" fy="249.51" r="26.31" xlink:href="#radial-gradient"/><radialGradient id="radial-gradient-21" cx="-858.58" cy="249.51" fx="-858.58" fy="249.51" r="26.31" xlink:href="#radial-gradient"/><radialGradient id="radial-gradient-22" cx="-858.58" cy="249.51" fx="-858.58" fy="249.51" r="26.31" xlink:href="#radial-gradient"/><radialGradient id="radial-gradient-23" cx="-858.58" cy="249.51" fx="-858.58" fy="249.51" r="26.3" xlink:href="#radial-gradient"/><radialGradient id="radial-gradient-24" cx="-858.58" cy="249.51" fx="-858.58" fy="249.51" r="26.31" xlink:href="#radial-gradient"/><radialGradient id="radial-gradient-25" cx="-858.58" cy="249.51" fx="-858.58" fy="249.51" r="26.31" xlink:href="#radial-gradient"/><radialGradient id="radial-gradient-26" cx="-858.58" cy="249.51" fx="-858.58" fy="249.51" r="26.3" xlink:href="#radial-gradient"/><radialGradient id="radial-gradient-27" cx="-858.58" cy="249.51" fx="-858.58" fy="249.51" r="26.31" xlink:href="#radial-gradient"/><radialGradient id="radial-gradient-28" cx="-858.58" cy="249.51" fx="-858.58" fy="249.51" r="26.31" xlink:href="#radial-gradient"/><radialGradient id="radial-gradient-29" cx="-858.58" cy="249.51" fx="-858.58" fy="249.51" r="26.31" xlink:href="#radial-gradient"/><radialGradient id="radial-gradient-30" cx="-858.58" cy="249.51" fx="-858.58" fy="249.51" r="26.3" xlink:href="#radial-gradient"/><radialGradient id="radial-gradient-31" cx="-858.58" cy="249.51" fx="-858.58" fy="249.51" r="26.3" xlink:href="#radial-gradient"/><radialGradient id="radial-gradient-32" cx="-858.58" cy="249.51" fx="-858.58" fy="249.51" r="26.3" xlink:href="#radial-gradient"/><radialGradient id="radial-gradient-33" cx="-858.58" cy="249.51" fx="-858.58" fy="249.51" r="26.31" xlink:href="#radial-gradient"/><radialGradient id="radial-gradient-34" cx="-858.58" cy="249.51" fx="-858.58" fy="249.51" r="26.3" xlink:href="#radial-gradient"/><radialGradient id="radial-gradient-35" cx="-858.58" cy="249.51" fx="-858.58" fy="249.51" r="26.3" xlink:href="#radial-gradient"/><radialGradient id="radial-gradient-36" cx="-858.58" cy="249.52" fx="-858.58" fy="249.52" r="26.3" xlink:href="#radial-gradient"/><radialGradient id="radial-gradient-37" cx="-858.57" cy="249.51" fx="-858.57" fy="249.51" r="26.3" xlink:href="#radial-gradient"/><radialGradient id="radial-gradient-38" cx="-858.58" cy="249.51" fx="-858.58" fy="249.51" r="26.3" xlink:href="#radial-gradient"/><radialGradient id="radial-gradient-39" cx="-858.58" cy="249.51" fx="-858.58" fy="249.51" r="26.3" xlink:href="#radial-gradient"/><radialGradient id="radial-gradient-40" cx="-858.58" cy="249.52" fx="-858.58" fy="249.52" r="26.3" xlink:href="#radial-gradient"/><radialGradient id="radial-gradient-41" cx="-858.58" cy="249.51" fx="-858.58" fy="249.51" r="26.3" xlink:href="#radial-gradient"/><radialGradient id="radial-gradient-42" cx="-858.58" cy="249.51" fx="-858.58" fy="249.51" r="26.3" xlink:href="#radial-gradient"/><radialGradient id="radial-gradient-43" cx="-858.58" cy="249.51" fx="-858.58" fy="249.51" r="26.3" xlink:href="#radial-gradient"/><radialGradient id="radial-gradient-44" cx="-858.58" cy="249.51" fx="-858.58" fy="249.51" r="26.31" xlink:href="#radial-gradient"/><radialGradient id="radial-gradient-45" cx="-858.58" cy="249.51" fx="-858.58" fy="249.51" r="26.31" xlink:href="#radial-gradient"/><radialGradient id="radial-gradient-46" cx="-858.58" cy="249.51" fx="-858.58" fy="249.51" r="26.3" xlink:href="#radial-gradient"/><radialGradient id="radial-gradient-47" cx="-858.58" cy="249.51" fx="-858.58" fy="249.51" r="26.31" xlink:href="#radial-gradient"/><radialGradient id="radial-gradient-48" cx="-858.58" cy="249.51" fx="-858.58" fy="249.51" r="26.3" xlink:href="#radial-gradient"/><radialGradient id="radial-gradient-49" cx="-858.58" cy="249.51" fx="-858.58" fy="249.51" r="26.31" xlink:href="#radial-gradient"/><radialGradient id="radial-gradient-50" cx="-858.59" cy="249.51" fx="-858.59" fy="249.51" r="26.3" xlink:href="#radial-gradient"/><radialGradient id="radial-gradient-51" cx="-858.58" cy="249.51" fx="-858.58" fy="249.51" r="26.3" xlink:href="#radial-gradient"/><radialGradient id="radial-gradient-52" cx="-858.58" cy="249.51" fx="-858.58" fy="249.51" r="26.3" xlink:href="#radial-gradient"/><radialGradient id="radial-gradient-53" cx="-858.58" cy="249.52" fx="-858.58" fy="249.52" r="26.3" xlink:href="#radial-gradient"/><radialGradient id="radial-gradient-54" cx="-858.58" cy="249.51" fx="-858.58" fy="249.51" r="26.3" xlink:href="#radial-gradient"/><radialGradient id="radial-gradient-55" cx="-858.57" cy="249.51" fx="-858.57" fy="249.51" r="26.3" xlink:href="#radial-gradient"/><radialGradient id="radial-gradient-56" cx="-858.58" cy="249.51" fx="-858.58" fy="249.51" r="26.31" xlink:href="#radial-gradient"/><radialGradient id="radial-gradient-57" cx="-858.58" cy="249.51" fx="-858.58" fy="249.51" r="26.3" xlink:href="#radial-gradient"/><radialGradient id="radial-gradient-58" cx="-858.58" cy="249.52" fx="-858.58" fy="249.52" r="26.31" xlink:href="#radial-gradient"/><radialGradient id="radial-gradient-59" cx="-858.58" cy="249.51" fx="-858.58" fy="249.51" r="26.31" xlink:href="#radial-gradient"/><radialGradient id="radial-gradient-60" cx="-858.58" cy="249.51" fx="-858.58" fy="249.51" r="26.31" xlink:href="#radial-gradient"/><radialGradient id="radial-gradient-61" cx="-858.58" cy="249.51" fx="-858.58" fy="249.51" r="26.31" xlink:href="#radial-gradient"/><radialGradient id="radial-gradient-62" cx="-858.58" cy="249.52" fx="-858.58" fy="249.52" r="26.31" xlink:href="#radial-gradient"/><radialGradient id="radial-gradient-63" cx="-858.58" cy="249.51" fx="-858.58" fy="249.51" r="26.3" xlink:href="#radial-gradient"/><radialGradient id="radial-gradient-64" cx="-858.58" cy="249.51" fx="-858.58" fy="249.51" r="26.3" xlink:href="#radial-gradient"/><radialGradient id="radial-gradient-65" cx="-858.58" cy="249.51" fx="-858.58" fy="249.51" r="26.31" xlink:href="#radial-gradient"/><radialGradient id="radial-gradient-66" cx="-858.58" cy="249.51" fx="-858.58" fy="249.51" r="26.3" xlink:href="#radial-gradient"/><radialGradient id="radial-gradient-67" cx="-858.58" cy="249.53" fx="-858.58" fy="249.53" r="26.29" xlink:href="#radial-gradient"/><radialGradient id="radial-gradient-68" cx="-858.58" cy="249.52" fx="-858.58" fy="249.52" r="26.3" xlink:href="#radial-gradient"/><radialGradient id="radial-gradient-69" cx="-858.58" cy="249.51" fx="-858.58" fy="249.51" r="26.31" xlink:href="#radial-gradient"/><radialGradient id="radial-gradient-70" cx="-858.58" cy="249.51" fx="-858.58" fy="249.51" r="26.3" xlink:href="#radial-gradient"/><radialGradient id="radial-gradient-71" cx="-858.58" cy="249.51" fx="-858.58" fy="249.51" r="26.3" xlink:href="#radial-gradient"/><radialGradient id="radial-gradient-72" cx="-858.58" cy="249.51" fx="-858.58" fy="249.51" r="26.3" xlink:href="#radial-gradient"/><radialGradient id="radial-gradient-73" cx="-858.58" cy="249.51" fx="-858.58" fy="249.51" r="26.3" xlink:href="#radial-gradient"/><radialGradient id="radial-gradient-74" cx="-858.58" cy="249.51" fx="-858.58" fy="249.51" r="26.31" xlink:href="#radial-gradient"/><radialGradient id="radial-gradient-75" cx="-858.58" cy="249.52" fx="-858.58" fy="249.52" r="26.31" xlink:href="#radial-gradient"/><radialGradient id="radial-gradient-76" cx="-858.58" cy="249.51" fx="-858.58" fy="249.51" r="26.31" xlink:href="#radial-gradient"/></defs><g><path class="cls-1" d="M342.07,27.86h4.64l.16,.23-.13,3.36h-1.17l-.1-.11c-.03-.34-.08-.6-.14-.8-.06-.19-.22-.34-.48-.42-.26-.09-.66-.13-1.21-.13h-3.76l-.03,.23c-.02,.24-.03,.46-.04,.67s-.02,.45-.03,.72c0,.28-.01,.61-.01,1.01v2.4h2.27c.33,0,.61-.02,.85-.07,.23-.04,.4-.12,.51-.23,.17-.18,.26-.43,.26-.75l.13-.16h.96l.1,.03c-.03,.4-.06,.75-.09,1.04-.03,.3-.04,.63-.04,1.02,0,.42,.01,.8,.04,1.16,.03,.36,.06,.74,.09,1.16l-.1,.03h-.99l-.1-.1c0-.44-.08-.77-.23-.98-.14-.2-.53-.29-1.18-.29h-2.46v2.1c0,.5,0,.9,.01,1.23,0,.32,.02,.6,.03,.83s.02,.45,.04,.65c.02,.21,.04,.44,.05,.72,.02,.32,.19,.49,.52,.49h3.5c.56,0,.99-.07,1.29-.2,.29-.13,.51-.33,.64-.58,.13-.25,.25-.59,.35-1.02l.1-.11h1.22l-.5,3.8-.21,.26h-12.19l-.05-.03,.08-.99,.13-.1c.28,0,.54-.01,.78-.04,.24-.03,.44-.1,.6-.22,.14-.12,.27-.28,.4-.47,.13-.19,.21-.53,.25-1.02,0-.12,0-.26,.01-.43,0-.16,.02-.37,.03-.61,0-.24,.01-.54,.01-.89v-8.15c0-.3,0-.55-.01-.76,0-.21-.02-.42-.04-.62-.04-.47-.12-.81-.25-1.02-.13-.21-.26-.36-.4-.47-.16-.14-.36-.22-.6-.23-.24-.02-.5-.03-.78-.03l-.13-.1-.08-.99,.05-.03h7.45Z"/><path class="cls-1" d="M352.56,30.72c-.04-.43-.11-.76-.23-.99-.12-.23-.26-.39-.42-.5-.16-.14-.32-.22-.48-.23-.17-.02-.46-.03-.9-.03l-.13-.1-.08-.99,.05-.1c.12,0,.29,.02,.52,.05,.22,.03,.47,.05,.73,.05h7.45c1.35,0,2.57,.23,3.63,.69,1.07,.46,1.97,1.08,2.7,1.86,.73,.78,1.29,1.69,1.68,2.73s.59,2.14,.59,3.3-.19,2.23-.56,3.26c-.37,1.03-.92,1.94-1.65,2.73-.73,.79-1.64,1.42-2.74,1.89-1.09,.47-2.36,.7-3.8,.7h-8.54l-.05-.03,.08-.99,.13-.1c.21,0,.45-.01,.73-.04,.28-.03,.5-.09,.65-.2,.14-.1,.27-.27,.39-.49,.12-.23,.21-.56,.26-1.02,0-.12,0-.26,.01-.43,0-.16,.02-.37,.03-.61,0-.24,.01-.54,.01-.89v-7.48c0-.4,0-.79-.01-1.17,0-.38-.02-.68-.04-.89Zm5.5,12.22c1.04,0,1.96-.17,2.76-.51,.8-.34,1.47-.8,2.02-1.39,.55-.59,.96-1.28,1.25-2.07,.29-.79,.43-1.64,.43-2.54s-.15-1.8-.44-2.59c-.29-.79-.72-1.47-1.29-2.04-.56-.57-1.25-1.02-2.07-1.34-.82-.32-1.75-.48-2.79-.48h-2.29c-.04,.5-.06,.92-.07,1.26,0,.34-.02,.68-.04,1.03-.02,.35-.03,.73-.03,1.13v4.78c0,1.04,0,1.85,.01,2.44,0,.58,.03,1.02,.06,1.32,.05,.45,.17,.73,.34,.85s.49,.17,.94,.17h1.2Z"/><path class="cls-1" d="M377.98,27.89l-.08,.99-.1,.1c-.28,0-.54,.01-.78,.04-.24,.03-.45,.1-.62,.22-.16,.12-.3,.28-.43,.47-.13,.19-.2,.53-.2,1.02-.02,.24-.03,.47-.04,.68,0,.21-.02,.45-.03,.73,0,.28-.01,.62-.01,1.02v6.81c0,.39,0,.72,.01,.98,0,.26,.02,.48,.03,.66,0,.18,.02,.38,.04,.59,.04,.49,.11,.83,.24,1.02,.12,.19,.25,.35,.39,.47,.16,.12,.36,.2,.61,.22,.25,.03,.52,.04,.79,.04l.1,.1,.08,.99-.05,.03h-7.37l-.05-.03,.08-.99,.13-.1c.28,0,.54-.01,.79-.04,.25-.03,.45-.1,.59-.22,.14-.12,.26-.28,.38-.47,.11-.19,.2-.53,.27-1.02,0-.12,0-.26,.01-.43,0-.16,.02-.37,.03-.61,0-.24,.01-.54,.01-.89v-7.08c0-.42,0-.77-.01-1.07,0-.3-.02-.55-.03-.76s-.02-.42-.04-.62c-.04-.45-.11-.78-.23-.99-.12-.21-.25-.37-.39-.5-.16-.12-.36-.2-.6-.22-.24-.03-.5-.04-.78-.04l-.13-.1-.08-.99,.05-.03h7.37l.05,.03Z"/><path class="cls-1" d="M399.42,27.86l-.05,1-.13,.1c-.26,0-.52,.01-.77,.04-.25,.03-.46,.1-.61,.22-.14,.12-.28,.28-.43,.47-.15,.19-.25,.53-.3,1.02-.02,.24-.03,.47-.04,.68s-.02,.45-.03,.73c0,.28-.01,.62-.01,1.02v5.6c0,.97,0,1.77,.01,2.4,0,.62,.02,1.16,.03,1.6,0,.44,.03,.84,.05,1.18,.03,.35,.06,.73,.09,1.15l-.21,.07h-3.2l-.26-.33-8.05-12.19c.03,.31,.06,.81,.07,1.5,0,.69,.01,1.48,.01,2.38v2.75c0,.34,0,.69,.01,1.05,0,.36,.02,.72,.03,1.06,0,.34,.02,.61,.04,.82,.03,.43,.13,.76,.29,.99,.16,.23,.32,.39,.5,.5,.14,.14,.32,.22,.55,.23s.51,.03,.86,.03l.13,.1,.08,.99-.05,.03h-7.16l-.05-.03,.08-.99,.13-.1c.31,0,.58-.01,.79-.04s.41-.1,.59-.22c.12-.09,.27-.23,.44-.43,.17-.2,.29-.55,.34-1.05,.02-.12,.03-.26,.04-.43,0-.17,.01-.37,.01-.61v-9.03c0-.29,0-.55-.01-.75,0-.21-.02-.42-.04-.62-.04-.36-.13-.68-.3-.94-.17-.26-.33-.44-.48-.55-.16-.14-.35-.22-.59-.23-.23-.02-.5-.03-.79-.03l-.13-.1-.08-1,.05-.1c.12,0,.3,0,.53,.02,.23,.02,.47,.03,.72,.05s.48,.03,.72,.05c.23,.02,.41,.02,.53,.02h2.21c.14,0,.31,0,.52-.02,.21-.02,.39-.04,.55-.07l.13,.08c.05,.24,.18,.58,.39,1.01,.21,.43,.46,.91,.77,1.44,.3,.53,.63,1.09,.98,1.67,.35,.58,.69,1.16,1.04,1.74,.62,1.04,1.18,1.95,1.67,2.73s.92,1.45,1.3,2.02c.38,.57,.71,1.06,.99,1.45s.51,.72,.7,.98c0-.45,0-.9,.01-1.34,0-.44,.01-.88,.01-1.33v-5.11c0-.42,0-.78-.01-1.07,0-.3-.02-.55-.03-.76,0-.21-.02-.42-.04-.63-.04-.3-.11-.57-.22-.82s-.29-.48-.53-.67c-.16-.14-.36-.21-.61-.21h-.79l-.1-.11-.08-1.02,.05-.1c.12,0,.29,0,.52,.02,.23,.02,.46,.03,.69,.05s.46,.03,.69,.05c.23,.02,.4,.02,.52,.02h2.79c.23,0,.46,0,.7-.03s.48-.04,.7-.06,.4-.04,.52-.06l.03,.1Z"/><path class="cls-1" d="M404.94,45.05h-2.92l-.05-.03,.08-.99,.13-.1c.21,0,.45-.01,.73-.04,.28-.03,.5-.09,.65-.2,.14-.1,.27-.27,.39-.49,.12-.23,.21-.56,.26-1.02,.02-.26,.03-.65,.04-1.17,0-.52,.01-1.29,.01-2.32v-6.65c0-.44-.02-.88-.05-1.31-.04-.47-.12-.81-.25-1.02-.13-.21-.26-.36-.4-.47-.16-.14-.32-.22-.48-.23-.17-.02-.46-.03-.9-.03l-.13-.1-.08-.99,.05-.1c.12,0,.28,0,.48,.02,.2,.01,.41,.03,.62,.04,.22,.01,.44,.03,.66,.04s.43,.02,.62,.02h4.56c.94,0,1.74,.1,2.41,.29,.67,.19,1.21,.46,1.63,.8,.42,.35,.73,.76,.92,1.25,.2,.48,.3,1.02,.3,1.61,0,.52-.08,.98-.25,1.38-.17,.4-.38,.75-.65,1.05-.27,.3-.58,.56-.92,.78-.35,.22-.7,.4-1.07,.56,1.42,.23,2.53,.71,3.31,1.44s1.17,1.75,1.17,3.05c0,.88-.16,1.62-.47,2.25s-.75,1.13-1.32,1.52-1.24,.69-2.02,.88c-.78,.19-1.64,.29-2.58,.29h-4.51Zm2.89-9.69c.56,0,1-.03,1.34-.1,.34-.07,.71-.25,1.11-.55,.38-.24,.69-.59,.94-1.05s.37-1,.37-1.63c0-.66-.26-1.17-.78-1.52-.52-.36-1.26-.53-2.21-.53h-1.3c-.05,.76-.09,1.33-.1,1.71s-.03,.71-.03,1v1.62c0,.4,.02,.68,.05,.83,.03,.16,.17,.23,.39,.23h.23Zm-.68,1.75v1.3c0,.5,0,.99,.01,1.46s.02,.89,.03,1.28,.02,.64,.04,.78c.04,.47,.13,.76,.29,.86,.16,.1,.36,.16,.62,.16h.55c.42,0,.87-.04,1.37-.12,.5-.08,.96-.22,1.39-.43s.8-.49,1.09-.86c.3-.36,.44-.83,.44-1.41,0-.49-.11-.92-.34-1.29-.23-.37-.54-.69-.94-.95-.4-.26-.86-.46-1.39-.59-.53-.13-1.11-.2-1.73-.2h-1.43Z"/><path class="cls-1" d="M436.12,27.89l-.08,.99-.1,.1c-.24,0-.5,.01-.77,.04-.27,.03-.48,.1-.64,.22-.14,.12-.27,.28-.4,.47-.13,.19-.21,.53-.25,1.02,0,.21,0,.42-.01,.62s-.02,.46-.03,.76-.01,.65-.01,1.07v6.02c0,.85-.14,1.65-.43,2.38-.29,.74-.71,1.38-1.26,1.93s-1.25,.98-2.07,1.29c-.83,.31-1.77,.47-2.83,.47-1.3,0-2.39-.16-3.27-.47-.88-.31-1.58-.74-2.1-1.29-.52-.55-.89-1.19-1.12-1.93-.23-.74-.34-1.53-.34-2.38v-7.08c0-.3,0-.55-.01-.76s-.02-.42-.04-.62c-.04-.47-.12-.81-.25-1.02-.13-.21-.26-.36-.4-.47-.16-.14-.36-.22-.6-.23-.24-.02-.5-.03-.78-.03l-.13-.1-.08-.99,.05-.03h7.37l.05,.03-.08,.99-.1,.1c-.24,0-.5,.01-.77,.04-.27,.03-.48,.1-.64,.22-.14,.12-.27,.28-.39,.47-.12,.19-.2,.53-.23,1.02-.02,.24-.03,.47-.04,.68,0,.21-.02,.45-.03,.73,0,.28-.01,.62-.01,1.02v5.31c0,1.62,.32,2.77,.95,3.45,.63,.69,1.61,1.03,2.93,1.03,.59,0,1.14-.08,1.64-.25s.94-.43,1.3-.79c.36-.36,.65-.83,.86-1.39,.21-.56,.31-1.25,.31-2.04v-5.31c0-.4,0-.74-.01-1.02,0-.28-.02-.52-.03-.73,0-.21-.02-.43-.04-.68-.04-.51-.12-.86-.25-1.06-.13-.19-.26-.34-.4-.45-.14-.14-.33-.21-.59-.21h-.79l-.13-.11-.08-1.01,.05-.1c.12,0,.3,.01,.55,.04s.5,.04,.77,.04h5.72l.05,.03Z"/><path class="cls-1" d="M445.86,45.12c-.14-.06-.33-.09-.59-.09h-6.22c-.25,0-.44,.03-.56,.09l-.05-.1,.08-1,.13-.11c.66,0,1.11-.08,1.35-.23,.37-.24,.59-.75,.68-1.51,.02-.29,.03-.75,.04-1.36,0-.62,.01-1.24,.01-1.86v-5.72c0-.61,0-1.09-.03-1.44-.02-.36-.04-.71-.08-1.05-.07-.47-.14-.81-.22-1.01-.08-.21-.2-.37-.35-.49-.14-.09-.31-.15-.51-.18-.2-.03-.5-.05-.9-.05l-.13-.1-.08-1,.05-.1c.45,.08,.9,.12,1.34,.12h5.74c2.07,0,3.63,.39,4.69,1.16,1.06,.77,1.59,1.92,1.59,3.44,0,1.09-.32,2.08-.95,2.97-.63,.89-1.58,1.67-2.83,2.32,.59,.89,1.09,1.61,1.5,2.17,.41,.56,.76,1,1.05,1.33,.4,.47,.77,.86,1.12,1.17,.35,.31,.69,.57,1.03,.78,.34,.21,.69,.37,1.06,.47,.36,.1,.77,.17,1.22,.21l.16,.1,.05,.99-.05,.17h-2.79c-.92,0-1.74-.25-2.46-.76-.72-.51-1.49-1.37-2.3-2.6-.19-.28-.4-.59-.61-.93-.22-.34-.43-.69-.65-1.02-.22-.34-.42-.66-.61-.97-.19-.31-.35-.58-.47-.8h-1.69v1.52c0,.43,0,.79,.01,1.11s.02,.58,.04,.81c.02,.23,.03,.43,.05,.62,.07,.8,.26,1.3,.57,1.51,.12,.09,.28,.15,.47,.18,.19,.04,.51,.05,.96,.05l.1,.11,.08,1-.05,.1Zm-.91-8.95c1.27,0,2.26-.3,2.98-.91,.72-.61,1.08-1.44,1.08-2.52,0-.97-.32-1.67-.96-2.11-.64-.44-1.67-.66-3.07-.66h-1.22c-.05,.69-.09,1.23-.1,1.61-.02,.38-.03,.74-.03,1.09v2.54c0,.36,.04,.61,.13,.75s.25,.21,.5,.21h.7Z"/><path class="cls-1" d="M471.2,44.32c-.87,.26-1.78,.48-2.74,.66-.96,.18-1.95,.27-3,.27-1.51,0-2.83-.23-3.95-.69-1.12-.46-2.05-1.09-2.79-1.89-.74-.8-1.29-1.73-1.65-2.79-.36-1.06-.55-2.18-.55-3.36,0-1.25,.2-2.41,.59-3.49,.39-1.08,.97-2.01,1.73-2.81,.76-.8,1.71-1.43,2.84-1.89,1.13-.46,2.44-.69,3.93-.69,.33,0,.72,.02,1.16,.05s.91,.1,1.39,.18c.49,.09,.99,.2,1.5,.35,.51,.15,1,.33,1.47,.56l.05,.23-.44,2.84h-1.17l-.1-.08c-.09-.59-.44-1.07-1.06-1.45-.62-.37-1.59-.56-2.93-.56-.83,0-1.57,.07-2.2,.22s-1.22,.43-1.76,.85c-.38,.3-.7,.65-.94,1.06-.24,.41-.43,.86-.57,1.34-.14,.49-.23,1-.29,1.54-.05,.54-.08,1.08-.08,1.61,0,1.06,.14,2.01,.43,2.84,.29,.83,.68,1.54,1.18,2.11,.5,.57,1.1,1.01,1.78,1.32,.69,.3,1.43,.46,2.23,.46,.24,0,.51-.01,.79-.04,.29-.03,.57-.07,.85-.12,.28-.05,.52-.11,.74-.18,.22-.07,.37-.14,.46-.21,.1-.05,.16-.12,.18-.21s.03-.2,.03-.34v-.6c0-.28-.02-.5-.05-.66-.04-.45-.13-.8-.27-1.04-.15-.24-.27-.39-.38-.46-.16-.14-.39-.21-.7-.21h-.89l-.13-.11-.08-1.12,.05-.03h4.66c.12,0,.29,0,.5-.01,.21,0,.42-.02,.65-.03,.22,0,.44-.02,.65-.03,.21,0,.37-.01,.5-.01l.05,.1-.05,1.15-.13,.1c-.5,0-.86,.14-1.05,.43-.2,.29-.32,.71-.35,1.26-.04,.35-.06,.72-.07,1.11s-.01,.68-.01,.87c0,.26,0,.54,.01,.85s.03,.5,.07,.59l-.1,.13Z"/><path class="cls-1" d="M493.47,45.05h-7.37l-.05-.03,.08-.99,.1-.1c.28,0,.54-.01,.78-.04,.24-.03,.45-.1,.62-.22,.16-.12,.28-.28,.36-.47s.17-.53,.26-1.02c.02-.12,.03-.26,.04-.43,0-.16,.02-.37,.03-.61s.01-.54,.01-.89v-3.39h-7.71v3.09c0,.39,0,.72,.01,.98,0,.26,.02,.48,.03,.66,0,.18,.02,.38,.04,.59,.04,.49,.11,.83,.24,1.02,.12,.19,.25,.35,.39,.47,.16,.12,.36,.2,.61,.22,.25,.03,.52,.04,.79,.04l.1,.1,.08,.99-.05,.03h-7.37l-.05-.03,.08-.99,.13-.1c.28,0,.54-.01,.78-.04,.24-.03,.44-.1,.6-.22,.14-.12,.27-.28,.4-.47,.13-.19,.21-.53,.25-1.02,0-.12,0-.26,.01-.43,0-.16,.02-.37,.03-.61,0-.24,.01-.54,.01-.89v-7.08c0-.42,0-.77-.01-1.07,0-.3-.02-.55-.03-.76s-.02-.42-.04-.62c-.04-.45-.11-.78-.23-.99-.12-.21-.25-.37-.39-.5-.16-.12-.36-.2-.6-.22-.24-.03-.5-.04-.78-.04l-.13-.1-.08-.99,.05-.03h7.37l.05,.03-.08,.99-.1,.1c-.24,0-.5,.01-.77,.04-.27,.03-.48,.1-.64,.22-.14,.12-.27,.28-.4,.47-.13,.19-.2,.53-.22,1.02-.02,.24-.03,.47-.04,.68,0,.21-.02,.45-.03,.73,0,.28-.01,.62-.01,1.02v1.8h7.71v-1.77c0-.42,0-.77-.01-1.07s-.02-.55-.03-.76-.02-.42-.04-.62c-.04-.49-.11-.82-.23-1.02-.12-.19-.25-.35-.39-.47-.16-.12-.36-.2-.61-.22-.25-.03-.52-.04-.79-.04l-.1-.1-.08-.99,.05-.03h7.37l.05,.03-.08,.99-.13,.1c-.28,0-.54,.01-.79,.04-.25,.03-.45,.1-.59,.22-.14,.12-.26,.28-.38,.47-.11,.19-.2,.53-.27,1.02-.02,.24-.03,.47-.04,.68,0,.21-.01,.45-.01,.73v8.8c0,.26,0,.48,.01,.66,0,.18,.02,.38,.04,.59,.03,.49,.12,.83,.25,1.02,.13,.19,.26,.35,.4,.47,.16,.12,.36,.2,.6,.22,.24,.03,.5,.04,.78,.04l.13,.1,.08,.99-.05,.03Z"/><path class="cls-1" d="M516.52,31.77c-.05-.38-.22-.71-.5-.98-.28-.27-.62-.48-1.03-.64s-.86-.27-1.35-.34c-.49-.07-.99-.1-1.47-.1-1.54,0-2.74,.39-3.59,1.17-.66,.59-1.14,1.38-1.43,2.36-.3,.98-.44,2.04-.44,3.19s.15,2.06,.46,2.89,.72,1.53,1.25,2.1c.53,.56,1.16,.99,1.89,1.28,.73,.29,1.53,.43,2.4,.43,.75,0,1.61-.08,2.59-.25,.98-.17,1.91-.48,2.77-.95l.31,.57-.62,1.15c-.9,.56-1.81,.96-2.72,1.22-.91,.26-1.85,.39-2.8,.39-1.3,0-2.48-.21-3.54-.62-1.06-.42-1.97-1.01-2.72-1.78-.75-.77-1.34-1.69-1.76-2.76s-.62-2.25-.62-3.55c0-1.21,.19-2.36,.56-3.45s.93-2.02,1.67-2.82c.74-.8,1.65-1.43,2.74-1.9,1.08-.47,2.35-.7,3.79-.7h1.22c.47,0,.96,.04,1.48,.12,.52,.08,1.05,.19,1.58,.34,.53,.15,1.04,.34,1.52,.57l.08,.24-.34,2.93h-1.28l-.08-.1Z"/><path class="cls-1" d="M538.64,27.89l-.08,.99-.1,.1c-.24,0-.5,.01-.77,.04-.27,.03-.48,.1-.64,.22-.14,.12-.27,.28-.4,.47-.13,.19-.21,.53-.25,1.02,0,.21,0,.42-.01,.62s-.02,.46-.03,.76-.01,.65-.01,1.07v6.02c0,.85-.14,1.65-.43,2.38-.29,.74-.71,1.38-1.26,1.93s-1.25,.98-2.07,1.29c-.83,.31-1.77,.47-2.83,.47-1.3,0-2.39-.16-3.27-.47-.88-.31-1.58-.74-2.1-1.29-.52-.55-.89-1.19-1.12-1.93-.23-.74-.34-1.53-.34-2.38v-7.08c0-.3,0-.55-.01-.76s-.02-.42-.04-.62c-.04-.47-.12-.81-.25-1.02-.13-.21-.26-.36-.4-.47-.16-.14-.36-.22-.6-.23-.24-.02-.5-.03-.78-.03l-.13-.1-.08-.99,.05-.03h7.37l.05,.03-.08,.99-.1,.1c-.24,0-.5,.01-.77,.04-.27,.03-.48,.1-.64,.22-.14,.12-.27,.28-.39,.47-.12,.19-.2,.53-.23,1.02-.02,.24-.03,.47-.04,.68,0,.21-.02,.45-.03,.73,0,.28-.01,.62-.01,1.02v5.31c0,1.62,.32,2.77,.95,3.45,.63,.69,1.61,1.03,2.93,1.03,.59,0,1.14-.08,1.64-.25s.94-.43,1.3-.79c.36-.36,.65-.83,.86-1.39,.21-.56,.31-1.25,.31-2.04v-5.31c0-.4,0-.74-.01-1.02,0-.28-.02-.52-.03-.73,0-.21-.02-.43-.04-.68-.04-.51-.12-.86-.25-1.06-.13-.19-.26-.34-.4-.45-.14-.14-.33-.21-.59-.21h-.79l-.13-.11-.08-1.01,.05-.1c.12,0,.3,.01,.55,.04s.5,.04,.77,.04h5.72l.05,.03Z"/><path class="cls-1" d="M548.38,45.05h-7.37l-.05-.03,.08-.99,.13-.1c.21,0,.45-.01,.73-.04,.28-.03,.5-.09,.65-.2,.14-.1,.27-.27,.39-.49,.12-.23,.21-.56,.26-1.02,0-.12,0-.26,.01-.43,0-.16,.02-.37,.03-.61,0-.24,.01-.54,.01-.89v-8.22c0-.44-.02-.88-.05-1.31-.04-.45-.12-.79-.25-1-.13-.22-.26-.38-.4-.48-.16-.14-.32-.22-.48-.23-.17-.02-.46-.03-.9-.03l-.13-.1-.08-.99,.05-.1c.12,0,.28,0,.48,.02,.2,.01,.41,.03,.62,.04,.22,.01,.44,.03,.66,.04s.43,.02,.62,.02h4.58c1.16,0,2.15,.12,2.96,.35,.81,.23,1.46,.56,1.97,.97,.5,.42,.87,.91,1.11,1.49,.23,.58,.35,1.22,.35,1.91,0,1.16-.21,2.11-.63,2.86-.42,.75-.95,1.33-1.6,1.77-.65,.43-1.38,.73-2.19,.9-.81,.16-1.59,.25-2.36,.25h-1.46v1.09c0,.38,0,.75,.01,1.11,0,.36,.02,.67,.03,.95,0,.28,.02,.49,.04,.62,.04,.5,.12,.86,.26,1.06s.26,.34,.37,.43c.16,.14,.32,.22,.48,.23,.17,.02,.47,.03,.92,.03l.1,.1,.08,.99-.05,.03Zm-.91-8.57c1.46,0,2.5-.33,3.12-.99,.62-.66,.94-1.57,.94-2.73,0-.94-.36-1.64-1.08-2.1-.72-.46-1.71-.69-2.96-.69h-1.22c-.05,.76-.09,1.33-.1,1.71s-.03,.71-.03,1v2.84c0,.23,0,.4,.03,.53s.06,.23,.13,.29c.07,.06,.17,.1,.3,.12,.13,.02,.31,.03,.53,.03h.34Z"/></g><g id="Group"><path id="_5" class="cls-4" d="M77.02,69.08c-1.49,0-2.61-1.34-2.61-2.52V16.71c0-2.51-1.92-3.68-3.34-3.68h-12.88c-1.23,0-2.44-1.34-2.44-2.69s1.19-2.61,2.44-2.61h37.31c1.44,0,2.52,1.12,2.52,2.61,0,1.3-.88,2.69-2.52,2.69h-16.05v53.53c0,1.14-1.09,2.52-2.44,2.52"/><path id="_4" class="cls-4" d="M110.97,69.08c-1.39,0-2.52-1.14-2.52-2.52V10.33c0-1.35,1.18-2.52,2.52-2.52h32.02c1.35,0,2.53,1.18,2.53,2.52,0,1.43-1.18,2.69-2.53,2.69h-25.55c-1.76,0-3.86,1.09-3.86,4.13,0,.25,0,15.11,0,15.11h26.3c1.61,0,2.61,1.4,2.61,2.69s-1.07,2.61-2.61,2.61h-26.3v28.98c0,1.37-1.2,2.52-2.61,2.52"/><path id="_3" class="cls-4" d="M197.98,64.92l-14.7-22.66c-.51-.79-.95-2.19-.95-3.93,0-2.35,.99-4.14,1.34-4.66l14.34-22.09c.45-.58,.73-2.46-.62-3.43-1.11-.8-2.8-.8-3.83,.85l-15.93,24.55-15.93-24.55c-.5-.87-1.88-2-3.73-.92-1.06,.62-1.46,2.42-.71,3.54l17.31,26.64-17.29,26.65c-.61,.98-.68,2.73,.64,3.66,.87,.62,2.69,.56,3.61-.83l16.1-24.78,16.1,24.78c.75,1.16,2.54,1.56,3.61,.83,1.34-.9,1.2-2.65,.64-3.66"/><path id="_2" class="cls-4" d="M50.4,69.11c-1.1,0-1.95-.8-2.26-1.54L29.3,22.91c-.62-1-1.47-1.56-2.39-1.56-1.08,0-2.12,.79-2.77,2.12L5.66,67.61s-.84,2.02-3.37,1.25c-1.53-.46-1.77-2.27-1.41-3.21L24.6,9.4c.15-.31,.61-1.57,2.34-1.61,.87-.02,1.95,.62,2.41,1.76l23.47,56.08c.15,.33,.37,1.05,0,1.95-.23,.54-.72,1.03-1.28,1.28-.55,.24-1.02,.26-1.15,.26"/><path id="_1" class="cls-2" d="M2.82,49.72c-1.56,0-2.82-1.27-2.82-2.82s1.27-2.83,2.82-2.83H38.22l2.39,5.65H2.82Z"/></g><rect id="_2-2" class="cls-4" x="218.94" y="7.63" width="1.19" height="61.48"/><g><path class="cls-1" d="M345.09,20h-7.08l-.05-.03,.08-.47,.13-.1c.28,0,.59-.01,.94-.04,.35-.03,.59-.1,.73-.22,.14-.12,.29-.28,.44-.47,.16-.19,.25-.53,.29-1.02,.02-.12,.03-.26,.04-.43,0-.17,.02-.37,.03-.61,0-.24,.01-.54,.01-.89v-6.59c0-1.13,0-2.13-.03-3.01-.02-.88-.04-1.54-.05-1.99h-2.42c-.56,0-1,.01-1.34,.04-.34,.03-.59,.06-.76,.09-.17,.04-.28,.08-.35,.13-.38,.21-.62,.67-.7,1.37l-.1,.1h-.6l.18-2.97,.1-.23,.16-.08c.14,.06,.44,.12,.91,.17,.47,.05,.98,.08,1.54,.08h8.7c.56,0,1.07-.03,1.54-.08,.47-.05,.77-.11,.91-.17l.16,.08,.1,.23,.21,2.97h-.62l-.1-.1c-.09-.7-.32-1.16-.7-1.37-.07-.05-.19-.1-.35-.13-.17-.03-.42-.07-.76-.09-.34-.03-.79-.04-1.34-.04h-2.4c-.02,.5-.03,1.16-.04,1.98,0,.82-.01,1.81-.01,3v6.32c0,.39,0,.72,.01,.98,0,.26,.02,.48,.03,.66,0,.18,.02,.38,.04,.59,.03,.49,.13,.82,.29,1.02,.16,.19,.3,.35,.44,.47,.14,.12,.38,.2,.73,.22,.35,.03,.66,.04,.94,.04l.13,.1,.08,.47-.05,.03Z"/><path class="cls-1" d="M368.61,20.02h-6.33l-.05-.03,.08-.47,.1-.1c.28,0,.54-.01,.79-.04,.25-.03,.46-.1,.61-.22,.14-.12,.26-.28,.38-.47s.2-.53,.25-1.02c.02-.12,.03-.26,.04-.43,0-.17,.02-.37,.03-.61,0-.24,.01-.54,.01-.89v-4.3h-9.27v4c0,.39,0,.72,.01,.98,0,.26,.02,.48,.03,.66,0,.18,.02,.38,.04,.59,.03,.49,.11,.83,.23,1.02,.12,.19,.25,.35,.39,.47,.16,.12,.36,.2,.61,.22,.25,.03,.52,.04,.79,.04l.1,.1,.08,.47-.05,.03h-6.33l-.05-.03,.08-.47,.13-.1c.28,0,.54-.01,.78-.04s.44-.1,.6-.22c.14-.12,.27-.28,.4-.47,.13-.19,.21-.53,.25-1.02,0-.12,0-.26,.01-.43s.02-.37,.03-.61c0-.24,.01-.54,.01-.89V7.62c0-.42,0-.77-.01-1.07,0-.29-.02-.55-.03-.76s-.02-.42-.04-.62c-.04-.47-.11-.8-.23-1-.12-.2-.25-.36-.39-.48-.16-.12-.36-.2-.6-.22-.24-.03-.5-.04-.78-.04l-.13-.1-.08-.47,.05-.03h6.33l.05,.03-.08,.47-.1,.1c-.28,0-.54,.01-.79,.04-.25,.03-.46,.1-.61,.22-.14,.12-.27,.28-.39,.47-.12,.19-.2,.53-.23,1.02-.02,.24-.03,.47-.04,.68,0,.21-.02,.45-.03,.73,0,.28-.01,.62-.01,1.02v2.71h9.27v-2.68c0-.42,0-.77-.01-1.07,0-.29-.02-.55-.03-.76,0-.21-.02-.42-.04-.62-.04-.49-.11-.82-.23-1.02-.12-.19-.25-.35-.39-.47-.16-.12-.36-.2-.61-.22-.25-.03-.52-.04-.79-.04l-.1-.1-.08-.47,.05-.03h6.33l.05,.03-.08,.47-.13,.1c-.28,0-.54,.01-.78,.04-.24,.03-.44,.1-.6,.22-.14,.12-.27,.28-.4,.47-.13,.19-.21,.53-.25,1.02-.02,.24-.03,.47-.04,.68,0,.21-.01,.45-.01,.73v9.85c0,.26,0,.48,.01,.66,0,.18,.02,.38,.04,.59,.03,.49,.12,.83,.25,1.02s.26,.35,.4,.47c.16,.12,.36,.2,.6,.22s.5,.04,.78,.04l.13,.1,.08,.47-.05,.03Z"/><path class="cls-1" d="M379.18,2.83h4.38l.13,.23-.1,2.83h-.65l-.1-.11c-.04-.4-.08-.72-.14-.95-.06-.23-.24-.4-.52-.5-.29-.11-.72-.16-1.29-.16h-4.92l-.05,1c-.02,.27-.03,.51-.04,.69,0,.19-.02,.42-.03,.69s-.01,.6-.01,.99v2.79h2.98c.43,0,.79-.03,1.08-.09s.5-.15,.6-.28c.14-.14,.26-.28,.36-.42,.1-.14,.16-.34,.16-.61l.13-.13,.44-.05,.1,.05c-.04,.4-.07,.74-.09,1.04-.03,.29-.04,.63-.04,1.01,0,.42,.01,.8,.04,1.16,.03,.36,.06,.74,.09,1.16l-.1,.05-.47-.05-.1-.08c0-.28-.05-.54-.16-.78-.1-.24-.23-.44-.36-.6-.1-.11-.3-.19-.6-.24-.29-.05-.65-.08-1.07-.08h-3v4.03c0,.39,0,.73,.01,1.04,0,.3,.02,.58,.04,.83,.02,.25,.04,.54,.08,.87,0,.33,.17,.5,.52,.5h2.21c1.04,0,1.86-.02,2.46-.07,.6-.04,1.05-.13,1.37-.27,.31-.14,.53-.35,.66-.64,.13-.29,.26-.66,.38-1.13l.1-.1h.68l-.47,3.28-.21,.26h-11.93l-.05-.03,.08-.47,.13-.1c.28,0,.54-.01,.78-.04s.44-.1,.6-.22c.14-.12,.27-.28,.4-.47,.13-.19,.21-.53,.25-1.02,0-.12,0-.26,.01-.43s.02-.37,.03-.61c0-.24,.01-.54,.01-.89V6.56c0-.29,0-.55-.01-.76,0-.21-.02-.42-.04-.62-.04-.47-.12-.8-.25-1-.13-.2-.26-.36-.4-.48-.16-.12-.36-.2-.6-.22-.24-.03-.5-.04-.78-.04l-.13-.1-.08-.47,.05-.03h7.45Z"/><path class="cls-1" d="M396.53,5.7c-.04-.43-.11-.76-.23-.99-.12-.23-.26-.39-.42-.5-.16-.14-.32-.22-.48-.23-.17-.02-.46-.03-.9-.03l-.13-.1-.08-.99,.05-.1c.12,0,.29,.02,.52,.05,.22,.03,.47,.05,.73,.05h7.45c1.35,0,2.57,.23,3.63,.69,1.07,.46,1.97,1.08,2.7,1.86,.73,.78,1.29,1.69,1.68,2.73s.59,2.14,.59,3.3-.19,2.23-.56,3.26c-.37,1.03-.92,1.94-1.65,2.73-.73,.79-1.64,1.42-2.74,1.89-1.09,.47-2.36,.7-3.8,.7h-8.54l-.05-.03,.08-.99,.13-.1c.21,0,.45-.01,.73-.04,.28-.03,.5-.09,.65-.2,.14-.1,.27-.27,.39-.49,.12-.23,.21-.56,.26-1.02,0-.12,0-.26,.01-.43,0-.16,.02-.37,.03-.61,0-.24,.01-.54,.01-.89V7.75c0-.4,0-.79-.01-1.17,0-.38-.02-.68-.04-.89Zm5.5,12.22c1.04,0,1.96-.17,2.76-.51,.8-.34,1.47-.8,2.02-1.39,.55-.59,.96-1.28,1.25-2.07,.29-.79,.43-1.64,.43-2.54s-.15-1.8-.44-2.59c-.29-.79-.72-1.47-1.29-2.04-.56-.57-1.25-1.02-2.07-1.34-.82-.32-1.75-.48-2.79-.48h-2.29c-.04,.5-.06,.92-.07,1.26,0,.34-.02,.68-.04,1.03-.02,.35-.03,.73-.03,1.13v4.78c0,1.04,0,1.85,.01,2.44,0,.58,.03,1.02,.06,1.32,.05,.45,.17,.73,.34,.85s.49,.17,.94,.17h1.2Z"/><path class="cls-1" d="M432.03,2.86l-.08,.99-.1,.1c-.24,0-.5,.01-.77,.04-.27,.03-.48,.1-.64,.22-.14,.12-.27,.28-.4,.47-.13,.19-.21,.53-.25,1.02,0,.21,0,.42-.01,.62s-.02,.46-.03,.76-.01,.65-.01,1.07v6.02c0,.85-.14,1.65-.43,2.38-.29,.74-.71,1.38-1.26,1.93s-1.25,.98-2.07,1.29c-.83,.31-1.77,.47-2.83,.47-1.3,0-2.39-.16-3.27-.47-.88-.31-1.58-.74-2.1-1.29-.52-.55-.89-1.19-1.12-1.93-.23-.74-.34-1.53-.34-2.38V7.08c0-.3,0-.55-.01-.76s-.02-.42-.04-.62c-.04-.47-.12-.81-.25-1.02-.13-.21-.26-.36-.4-.47-.16-.14-.36-.22-.6-.23-.24-.02-.5-.03-.78-.03l-.13-.1-.08-.99,.05-.03h7.37l.05,.03-.08,.99-.1,.1c-.24,0-.5,.01-.77,.04-.27,.03-.48,.1-.64,.22-.14,.12-.27,.28-.39,.47-.12,.19-.2,.53-.23,1.02-.02,.24-.03,.47-.04,.68,0,.21-.02,.45-.03,.73,0,.28-.01,.62-.01,1.02v5.31c0,1.62,.32,2.77,.95,3.45,.63,.69,1.61,1.03,2.93,1.03,.59,0,1.14-.08,1.64-.25s.94-.43,1.3-.79c.36-.36,.65-.83,.86-1.39,.21-.56,.31-1.25,.31-2.04v-5.31c0-.4,0-.74-.01-1.02,0-.28-.02-.52-.03-.73,0-.21-.02-.43-.04-.68-.04-.51-.12-.86-.25-1.06-.13-.19-.26-.34-.4-.45-.14-.14-.33-.21-.59-.21h-.79l-.13-.11-.08-1.01,.05-.1c.12,0,.3,.01,.55,.04s.5,.04,.77,.04h5.72l.05,.03Z"/><path class="cls-1" d="M448.41,4.52c-.16,.1-.39,.3-.69,.57-.3,.28-.64,.6-1,.98-.37,.37-.75,.78-1.16,1.21-.41,.43-.8,.85-1.19,1.25l-1.77,1.88c.66,.97,1.3,1.95,1.91,2.93s1.33,1.92,2.15,2.83c.35,.4,.69,.75,1.03,1.06s.7,.56,1.08,.78c.38,.22,.79,.4,1.22,.55,.43,.15,.93,.27,1.49,.35l.16,.1,.05,.99-.05,.16h-3.23c-.45,0-.87-.06-1.25-.17-.38-.11-.75-.3-1.11-.56-.36-.26-.72-.6-1.08-1.04-.37-.43-.76-.96-1.2-1.58-.1-.16-.28-.43-.53-.82s-.53-.81-.82-1.28c-.3-.47-.59-.94-.89-1.41-.29-.47-.56-.88-.78-1.23-.21,.19-.42,.38-.62,.56-.21,.18-.41,.37-.6,.56v1.89c0,.39,0,.7,.01,.94s.02,.43,.03,.57c0,.15,.02,.33,.04,.56,.04,.51,.11,.86,.24,1.06,.12,.19,.25,.34,.39,.45,.16,.14,.36,.21,.61,.21h.79l.1,.11,.08,1.01-.05,.03h-7.37l-.05-.03,.08-.99,.13-.1c.28,0,.54-.01,.78-.04,.24-.03,.44-.1,.6-.22,.14-.12,.27-.28,.4-.47,.13-.19,.21-.53,.25-1.02,0-.12,0-.26,.01-.43,0-.16,.02-.37,.03-.61,0-.24,.01-.54,.01-.89V7.08c0-.3,0-.55-.01-.76,0-.21-.02-.42-.04-.62-.04-.47-.12-.81-.25-1.02-.13-.21-.26-.36-.4-.47-.16-.14-.36-.22-.6-.23-.24-.02-.5-.03-.78-.03l-.13-.1-.08-.99,.05-.03h7.37l.05,.03-.08,.99-.1,.1c-.24,0-.5,.01-.77,.04-.27,.03-.48,.1-.64,.22-.14,.12-.27,.28-.4,.47-.13,.19-.2,.53-.22,1.02-.02,.21-.03,.41-.04,.61,0,.2-.02,.43-.03,.7,0,.27-.01,.58-.01,.94v2.54c.35-.17,.75-.44,1.2-.79s.9-.74,1.35-1.16c.33-.31,.67-.66,1.02-1.03,.35-.37,.67-.73,.95-1.08,.29-.35,.52-.66,.69-.94,.17-.28,.26-.47,.26-.57,0-.19-.04-.34-.12-.46s-.18-.2-.31-.27c-.13-.07-.28-.12-.46-.16-.17-.03-.35-.07-.52-.1l-.13-.1v-.99l.13-.1c.35,.09,.72,.13,1.11,.13h4.04c.15,0,.29,0,.44-.02s.31-.03,.48-.04c.17-.01,.38-.04,.62-.06l.1,.1v.99l-.1,.1c-.24,.04-.55,.1-.92,.21-.37,.1-.69,.23-.95,.39Z"/><path class="cls-1" d="M460.76,2.83h4.64l.16,.23-.13,3.36h-1.17l-.1-.11c-.03-.34-.08-.6-.14-.8-.06-.19-.22-.34-.48-.42-.26-.09-.66-.13-1.21-.13h-3.76l-.03,.23c-.02,.24-.03,.46-.04,.67s-.02,.45-.03,.72c0,.28-.01,.61-.01,1.01v2.4h2.27c.33,0,.61-.02,.85-.07,.23-.04,.4-.12,.51-.23,.17-.18,.26-.43,.26-.75l.13-.16h.96l.1,.03c-.03,.4-.06,.75-.09,1.04-.03,.3-.04,.63-.04,1.02,0,.42,.01,.8,.04,1.16,.03,.36,.06,.74,.09,1.16l-.1,.03h-.99l-.1-.1c0-.44-.08-.77-.23-.98-.14-.2-.53-.29-1.18-.29h-2.46v2.1c0,.5,0,.9,.01,1.23,0,.32,.02,.6,.03,.83s.02,.45,.04,.65c.02,.21,.04,.44,.05,.72,.02,.32,.19,.49,.52,.49h3.5c.56,0,.99-.07,1.29-.2,.29-.13,.51-.33,.64-.58,.13-.25,.25-.59,.35-1.02l.1-.11h1.22l-.5,3.8-.21,.26h-12.19l-.05-.03,.08-.99,.13-.1c.28,0,.54-.01,.78-.04,.24-.03,.44-.1,.6-.22,.14-.12,.27-.28,.4-.47,.13-.19,.21-.53,.25-1.02,0-.12,0-.26,.01-.43,0-.16,.02-.37,.03-.61,0-.24,.01-.54,.01-.89V7.08c0-.3,0-.55-.01-.76,0-.21-.02-.42-.04-.62-.04-.47-.12-.81-.25-1.02-.13-.21-.26-.36-.4-.47-.16-.14-.36-.22-.6-.23-.24-.02-.5-.03-.78-.03l-.13-.1-.08-.99,.05-.03h7.45Z"/><path class="cls-1" d="M483.39,2.62c1.35,0,2.56,.23,3.62,.7s1.95,1.11,2.67,1.91,1.27,1.74,1.65,2.8c.38,1.06,.57,2.17,.57,3.33s-.19,2.25-.56,3.32c-.37,1.07-.92,2.01-1.65,2.83-.73,.82-1.64,1.47-2.72,1.97-1.08,.5-2.34,.74-3.76,.74s-2.6-.23-3.63-.7c-1.03-.47-1.9-1.1-2.61-1.89s-1.23-1.71-1.58-2.76c-.35-1.05-.52-2.16-.52-3.32,0-1.23,.19-2.39,.57-3.48,.38-1.08,.94-2.03,1.67-2.84s1.62-1.45,2.68-1.91c1.06-.47,2.26-.7,3.59-.7Zm-.03,16.23c1.04,0,1.97-.2,2.77-.59,.81-.39,1.49-.92,2.04-1.6s.98-1.47,1.28-2.37c.3-.9,.44-1.87,.44-2.89s-.15-2.01-.46-2.92c-.3-.9-.74-1.69-1.32-2.36-.57-.67-1.27-1.19-2.1-1.56-.83-.37-1.76-.56-2.8-.56s-1.93,.19-2.72,.56c-.79,.37-1.46,.89-1.99,1.55-.54,.66-.94,1.44-1.21,2.33-.27,.89-.4,1.87-.4,2.93,0,1.16,.16,2.21,.47,3.13,.31,.92,.75,1.7,1.33,2.34s1.25,1.14,2.04,1.48c.79,.35,1.66,.52,2.62,.52Z"/><path class="cls-1" d="M497.27,5.18c-.04-.49-.12-.83-.25-1.02-.13-.19-.27-.35-.4-.47-.16-.12-.36-.2-.6-.22-.24-.03-.5-.04-.78-.04l-.13-.1-.08-.47,.05-.03h11.83l.13,.23-.1,2.83h-.65l-.1-.11c-.03-.4-.08-.72-.14-.95-.06-.23-.23-.4-.52-.5-.29-.11-.72-.16-1.29-.16h-4.92l-.05,1c-.02,.24-.03,.46-.04,.67s-.02,.45-.03,.72-.01,.61-.01,1v2.78h2.98c.43,0,.79-.03,1.08-.09,.29-.06,.5-.15,.6-.28,.14-.14,.26-.28,.36-.42,.1-.14,.16-.34,.16-.61l.13-.13,.44-.05,.1,.05c-.04,.4-.07,.74-.09,1.04-.03,.29-.04,.63-.04,1.01,0,.42,.01,.8,.04,1.16,.03,.36,.06,.74,.09,1.16l-.1,.05-.47-.05-.1-.08c0-.28-.05-.54-.16-.78s-.23-.44-.36-.6c-.1-.11-.3-.19-.6-.24-.29-.05-.65-.08-1.07-.08h-3v4.04c0,.39,0,.71,.01,.97s.02,.48,.03,.66,.02,.38,.04,.58c.04,.48,.13,.82,.27,1.01s.29,.35,.43,.47c.16,.12,.39,.2,.69,.22s.59,.04,.87,.04l.13,.1,.08,.47-.05,.03h-6.59l-.05-.03,.08-.47,.13-.1c.28,0,.54-.01,.78-.04,.24-.03,.44-.1,.6-.22,.14-.12,.27-.28,.4-.47,.13-.19,.21-.53,.25-1.02,0-.12,0-.26,.01-.43,0-.16,.02-.37,.03-.61,0-.24,.01-.54,.01-.89V7.63c0-.42,0-.77-.01-1.07s-.02-.55-.03-.75-.01-.42-.01-.62Z"/></g><g><g><g><path class="cls-80" d="M291.1,30.63c2.45,0,4.42,2.2,4.42,4.91s-1.98,4.91-4.42,4.91-4.42-2.2-4.42-4.91,1.98-4.91,4.42-4.91Z"/><path class="cls-79" d="M272.17,47.11c-1.22,2.11-.31,4.93,2.04,6.28,2.35,1.35,5.24,.74,6.46-1.37,1.22-2.11,.31-4.93-2.04-6.28-2.35-1.35-5.24-.74-6.46,1.37Z"/><path class="cls-74" d="M283.56,49.24c1.22,2.11,4.12,2.73,6.46,1.37,2.35-1.36,3.26-4.16,2.05-6.28-1.22-2.11-4.12-2.73-6.46-1.37-2.35,1.36-3.26,4.17-2.04,6.28Z"/><path class="cls-75" d="M297.56,27.78c1.09-1.9,.08-4.54-2.27-5.9-2.35-1.35-5.14-.91-6.24,.99-1.1,1.9-.08,4.54,2.26,5.9,2.35,1.36,5.14,.91,6.24-.99Z"/><path class="cls-73" d="M290.24,18.87c1.09-1.9,.08-4.54-2.27-5.9-2.35-1.35-5.14-.91-6.24,.99-1.1,1.9-.08,4.54,2.26,5.9,2.35,1.35,5.14,.91,6.24-.99Z"/><path class="cls-72" d="M257.6,38.92c-2.19,0-3.97,2.2-3.97,4.91s1.78,4.91,3.97,4.91,3.98-2.2,3.98-4.91-1.78-4.91-3.98-4.91Z"/></g><g><path class="cls-78" d="M297.76,38.68c2.2,0,3.98,2.2,3.98,4.91s-1.78,4.9-3.98,4.9-3.98-2.2-3.98-4.9,1.78-4.91,3.98-4.91Z"/><path class="cls-77" d="M261.86,48.85c-1.1,1.9-.09,4.54,2.26,5.89,2.35,1.36,5.14,.91,6.24-.98,1.1-1.9,.08-4.54-2.27-5.9-2.35-1.36-5.14-.91-6.24,.99Z"/><path class="cls-76" d="M279.91,59.04c1.1,1.9,3.89,2.35,6.24,.99,2.35-1.35,3.36-4,2.26-5.9-1.1-1.9-3.9-2.35-6.24-.99-2.35,1.35-3.36,4-2.26,5.9Z"/><path class="cls-62" d="M291.29,57.15c1.1,1.9,3.89,2.35,6.24,.99,2.34-1.36,3.36-4,2.26-5.9-1.1-1.9-3.89-2.34-6.24-.98-2.34,1.35-3.36,3.99-2.26,5.9Z"/><path class="cls-66" d="M301.81,37.71c2.2,0,3.98-2.2,3.98-4.91s-1.78-4.91-3.98-4.91-3.98,2.2-3.98,4.91,1.78,4.91,3.98,4.91Z"/><path class="cls-69" d="M269.18,57.76c-1.1,1.9-.09,4.55,2.26,5.9,2.35,1.36,5.14,.91,6.24-.99,1.1-1.9,.08-4.54-2.26-5.9-2.35-1.36-5.14-.91-6.24,.99Z"/><path class="cls-71" d="M258.37,55.9c-1.51,1.31-1.21,3.92,.66,5.85,1.88,1.93,4.62,2.43,6.13,1.12,1.51-1.31,1.21-3.92-.66-5.85-1.88-1.92-4.62-2.43-6.14-1.12Z"/><path class="cls-70" d="M301.05,20.74c1.51-1.31,1.21-3.93-.66-5.85-1.88-1.92-4.62-2.42-6.14-1.12-1.51,1.31-1.21,3.93,.67,5.85,1.88,1.92,4.62,2.43,6.13,1.12Z"/></g><path class="cls-68" d="M279.71,33.41c2.71,0,4.91,2.19,4.91,4.91s-2.2,4.91-4.91,4.91-4.91-2.2-4.91-4.91,2.2-4.91,4.91-4.91Z"/><path class="cls-67" d="M287.25,29.52c1.22-2.11,.3-4.92-2.04-6.28-2.35-1.35-5.24-.74-6.46,1.37-1.22,2.11-.31,4.92,2.04,6.28,2.35,1.35,5.24,.74,6.46-1.37Z"/><path class="cls-65" d="M275.87,27.39c-1.22-2.11-4.11-2.73-6.46-1.37-2.35,1.36-3.26,4.17-2.04,6.29,1.22,2.11,4.11,2.72,6.46,1.37,2.35-1.36,3.26-4.17,2.04-6.28Z"/><path class="cls-64" d="M268.32,36.19c2.44,0,4.42,2.2,4.42,4.91s-1.98,4.91-4.42,4.91-4.42-2.2-4.42-4.91,1.98-4.91,4.42-4.91Z"/><path class="cls-63" d="M279.51,17.59c-1.1-1.9-3.89-2.34-6.24-.99-2.35,1.36-3.36,4-2.26,5.9,1.1,1.9,3.89,2.34,6.24,.99,2.35-1.36,3.36-4,2.27-5.9Z"/><path class="cls-24" d="M261.66,28.14c-2.2,0-3.98,2.2-3.98,4.91s1.78,4.91,3.98,4.91,3.98-2.2,3.98-4.91-1.78-4.91-3.98-4.91Z"/><g><path class="cls-25" d="M317.18,42.8c.43,.01,.9-1.41,1.06-3.18,.16-1.78-.05-3.22-.48-3.24-.42-.01-.89,1.42-1.05,3.19-.16,1.77,.05,3.22,.47,3.24Z"/><g><path class="cls-39" d="M253.81,28.64c-1.89-.66-4.01,.91-4.73,3.5-.73,2.59,.21,5.21,2.1,5.87,1.89,.66,4.01-.91,4.73-3.5,.73-2.59-.21-5.22-2.1-5.87Z"/><path class="cls-41" d="M284.27,65.58c.37,1.96,2.79,3.02,5.4,2.35,2.6-.66,4.41-2.79,4.04-4.75-.38-1.96-2.79-3.01-5.4-2.35-2.6,.66-4.41,2.79-4.03,4.75Z"/><path class="cls-40" d="M305.61,48c1.89,.66,4.01-.91,4.74-3.5,.73-2.58-.21-5.22-2.1-5.87-1.89-.66-4.01,.91-4.73,3.5-.73,2.58,.21,5.21,2.09,5.86Z"/><path class="cls-51" d="M251.35,48.03c-1.87,.7-2.5,3.26-1.41,5.71,1.09,2.46,3.49,3.88,5.36,3.18,1.87-.7,2.5-3.26,1.41-5.71-1.09-2.45-3.49-3.88-5.37-3.18Z"/><path class="cls-37" d="M273.94,67.73c-.33,1.96,1.57,3.79,4.25,4.08,2.67,.28,5.11-1.09,5.44-3.06,.33-1.97-1.57-3.8-4.25-4.08-2.68-.28-5.11,1.09-5.44,3.06Z"/><path class="cls-38" d="M302.31,58.01c1.54,1.27,4.07,.54,5.66-1.64,1.58-2.18,1.61-4.96,.07-6.23-1.54-1.27-4.07-.54-5.66,1.64-1.58,2.17-1.61,4.96-.07,6.23Z"/><path class="cls-42" d="M308.08,28.6c1.87-.7,2.5-3.26,1.41-5.71-1.09-2.46-3.5-3.88-5.36-3.18-1.87,.7-2.5,3.26-1.41,5.72,1.09,2.46,3.49,3.88,5.37,3.18Z"/><path class="cls-43" d="M248.05,37.85c-1.54,0-2.78,2.2-2.78,4.91s1.24,4.91,2.78,4.91,2.78-2.2,2.78-4.91-1.25-4.91-2.78-4.91Z"/><path class="cls-29" d="M263.48,65.5c-.77,1.33,.51,3.51,2.86,4.87,2.35,1.36,4.88,1.37,5.65,.04,.77-1.33-.51-3.51-2.86-4.87-2.35-1.35-4.87-1.37-5.64-.04Z"/><path class="cls-33" d="M295.14,65.96c.77,1.34,3.3,1.31,5.64-.04,2.35-1.36,3.63-3.54,2.86-4.86-.77-1.33-3.3-1.31-5.64,.04-2.35,1.36-3.63,3.53-2.86,4.86Z"/><path class="cls-31" d="M311.37,38.78c1.54,0,2.78-2.2,2.78-4.9s-1.25-4.91-2.78-4.91-2.78,2.2-2.78,4.91,1.25,4.9,2.78,4.9Z"/><path class="cls-30" d="M295.95,11.13c.77-1.33-.51-3.51-2.86-4.86-2.34-1.36-4.87-1.38-5.64-.05-.77,1.33,.52,3.51,2.86,4.87,2.35,1.36,4.87,1.38,5.64,.04Z"/><path class="cls-45" d="M247.42,29c-1.04-.28-2.46,1.61-3.18,4.22-.72,2.62-.45,4.96,.58,5.25,1.04,.28,2.46-1.61,3.17-4.22,.72-2.61,.45-4.96-.58-5.25Z"/><path class="cls-44" d="M255.49,61.62c-.77,.76,.16,2.93,2.06,4.86,1.91,1.93,4.07,2.88,4.84,2.12,.76-.75-.16-2.93-2.07-4.86-1.91-1.93-4.07-2.88-4.84-2.12Z"/><path class="cls-35" d="M287.79,70.94c.27,1.04,2.62,1.33,5.24,.64,2.62-.69,4.53-2.09,4.26-3.13-.27-1.04-2.62-1.33-5.24-.64-2.62,.69-4.53,2.09-4.25,3.13Z"/><path class="cls-34" d="M312.01,47.63c1.04,.29,2.46-1.6,3.18-4.22,.71-2.61,.45-4.96-.58-5.24-1.04-.28-2.46,1.6-3.18,4.22-.71,2.62-.46,4.96,.59,5.25Z"/><path class="cls-32" d="M303.93,15.01c.77-.76-.16-2.93-2.07-4.86-1.9-1.93-4.07-2.88-4.84-2.12-.76,.76,.16,2.94,2.07,4.86,1.91,1.93,4.07,2.88,4.84,2.12Z"/><path class="cls-36" d="M249.32,55.66c-.68,.36-.17,2.59,1.12,4.98,1.29,2.38,2.89,4.02,3.57,3.65,.68-.37,.17-2.6-1.12-4.98-1.29-2.38-2.89-4.02-3.56-3.65Z"/><path class="cls-28" d="M279.54,73.31c-.02,.77,2.16,1.44,4.87,1.51,2.71,.07,4.93-.49,4.95-1.26,.02-.77-2.16-1.44-4.87-1.51-2.71-.07-4.92,.49-4.94,1.26Z"/><path class="cls-55" d="M309.93,55.96c.65,.4,2.33-1.15,3.75-3.46,1.42-2.31,2.03-4.51,1.38-4.91-.66-.4-2.34,1.15-3.75,3.46-1.42,2.31-2.03,4.51-1.38,4.91Z"/><path class="cls-56" d="M310.11,20.97c.68-.37,.18-2.6-1.12-4.98-1.29-2.38-2.89-4.02-3.57-3.65-.67,.37-.17,2.59,1.12,4.98,1.29,2.38,2.89,4.02,3.57,3.65Z"/><path class="cls-58" d="M279.88,3.32c.02-.77-2.16-1.45-4.87-1.52-2.71-.07-4.92,.49-4.94,1.26-.02,.77,2.16,1.45,4.87,1.52,2.71,.07,4.93-.49,4.94-1.26Z"/><path class="cls-57" d="M244.2,46.15c-.72,.25-.6,2.54,.29,5.09,.89,2.56,2.2,4.43,2.93,4.18,.73-.25,.59-2.53-.29-5.1-.89-2.56-2.2-4.43-2.92-4.18Z"/><path class="cls-26" d="M268.75,72.98c-.15,.76,1.9,1.78,4.56,2.3,2.66,.51,4.94,.31,5.08-.44,.15-.75-1.9-1.78-4.56-2.29-2.66-.51-4.94-.31-5.09,.44Z"/><path class="cls-27" d="M304.25,65.14c.58,.5,2.49-.75,4.27-2.8,1.78-2.05,2.74-4.12,2.16-4.62-.59-.5-2.5,.75-4.27,2.8-1.77,2.05-2.74,4.12-2.16,4.62Z"/><path class="cls-22" d="M315.22,30.48c.73-.25,.6-2.53-.29-5.1-.88-2.56-2.2-4.43-2.92-4.18-.73,.25-.6,2.53,.29,5.09,.89,2.56,2.2,4.43,2.93,4.18Z"/><path class="cls-23" d="M290.67,3.65c.15-.75-1.9-1.78-4.56-2.29-2.66-.51-4.94-.31-5.08,.44-.15,.75,1.9,1.78,4.56,2.29,2.66,.51,4.94,.31,5.08-.44Z"/><path class="cls-59" d="M255.17,11.49c-.58-.5-2.49,.75-4.26,2.8-1.77,2.05-2.74,4.12-2.16,4.62,.58,.5,2.49-.75,4.27-2.8,1.77-2.05,2.74-4.12,2.16-4.62Z"/><path class="cls-53" d="M241.94,33.75c-.44,0-.79,2.42-.79,5.4s.36,5.4,.79,5.4,.79-2.41,.79-5.4-.35-5.4-.79-5.4Z"/><path class="cls-47" d="M245.31,54.58c-.37,.23,.62,2.47,2.21,4.99,1.59,2.52,3.18,4.38,3.55,4.15,.37-.24-.61-2.47-2.2-5-1.59-2.52-3.18-4.38-3.55-4.14Z"/><path class="cls-46" d="M259.27,70.4c-.19,.4,1.84,1.76,4.53,3.05,2.69,1.29,5.03,2.01,5.21,1.61,.19-.39-1.84-1.76-4.53-3.05-2.69-1.29-5.02-2.01-5.21-1.61Z"/><path class="cls-50" d="M279.52,76.36c.05,.44,2.49,.51,5.45,.17,2.96-.34,5.32-.97,5.27-1.41-.05-.44-2.49-.51-5.45-.17-2.96,.34-5.33,.98-5.27,1.41Z"/><path class="cls-49" d="M299.82,70.61c.28,.34,2.38-.9,4.71-2.76,2.32-1.87,3.99-3.66,3.71-4.01-.28-.34-2.38,.9-4.71,2.77-2.33,1.87-3.99,3.66-3.71,4Z"/><path class="cls-54" d="M313.94,54.92c.42,.14,1.54-2.03,2.51-4.84,.97-2.82,1.42-5.22,1.01-5.36-.42-.15-1.54,2.03-2.51,4.84-.97,2.82-1.42,5.22-1.01,5.36Z"/><path class="cls-52" d="M317.31,34.53c.26-.06,.13-1.52-.27-3.26-.41-1.74-.96-3.1-1.21-3.04-.25,.06-.14,1.52,.28,3.26,.41,1.74,.95,3.1,1.21,3.04Z"/><path class="cls-60" d="M309.48,14.63c.31-.31-1.16-2.27-3.29-4.36-2.12-2.09-4.09-3.54-4.4-3.23-.31,.31,1.16,2.26,3.29,4.36,2.12,2.09,4.09,3.53,4.4,3.22Z"/><path class="cls-61" d="M290.16,1.95c.06-.26-1.32-.78-3.06-1.16-1.75-.39-3.21-.49-3.26-.23-.06,.26,1.31,.78,3.06,1.16,1.75,.39,3.21,.49,3.27,.23Z"/><path class="cls-48" d="M271.21,1.24c-.15-.41-2.55,.07-5.35,1.08-2.81,1.01-4.96,2.16-4.81,2.58,.15,.41,2.54-.07,5.35-1.08,2.81-1.01,4.96-2.17,4.81-2.58Z"/><path class="cls-21" d="M313.43,20.9c.36-.22-.01-1.67-.84-3.25-.82-1.58-1.79-2.68-2.15-2.47-.36,.22,.01,1.67,.84,3.25,.83,1.58,1.8,2.68,2.16,2.46Z"/><path class="cls-19" d="M299.26,6.04c.19-.38-.91-1.4-2.47-2.28-1.55-.88-2.96-1.28-3.15-.9-.19,.38,.92,1.4,2.46,2.28,1.55,.88,2.96,1.28,3.15,.9Z"/><path class="cls-18" d="M278.65,.6c-.05-.42-1.53-.68-3.31-.58-1.78,.1-3.18,.53-3.13,.95,.05,.42,1.53,.68,3.3,.58,1.78-.1,3.19-.52,3.14-.94Z"/><path class="cls-15" d="M258.38,7.19c-.27-.33-1.65,.26-3.09,1.31-1.44,1.05-2.39,2.16-2.12,2.49,.26,.33,1.65-.25,3.09-1.31,1.44-1.05,2.39-2.17,2.12-2.49Z"/><path class="cls-17" d="M244.92,23.71c-.4-.13-1.25,1.11-1.89,2.77-.64,1.67-.83,3.12-.43,3.25,.4,.13,1.25-1.11,1.89-2.78,.64-1.66,.83-3.11,.43-3.24Z"/><path class="cls-20" d="M242.51,46.56c-.21,.05-.22,.81-.04,1.68,.18,.87,.49,1.54,.7,1.48,.2-.06,.23-.81,.04-1.68-.18-.87-.49-1.54-.7-1.48Z"/><path class="cls-16" d="M252.04,63.97c-.28,.31,.49,1.59,1.74,2.86,1.25,1.27,2.49,2.05,2.78,1.73,.28-.31-.5-1.6-1.75-2.86-1.25-1.27-2.49-2.05-2.78-1.73Z"/><path class="cls-12" d="M270.88,75.66c-.04,.25,.77,.65,1.81,.88,1.04,.23,1.92,.22,1.97-.03,.04-.25-.77-.65-1.81-.88-1.04-.24-1.92-.23-1.97,.02Z"/><path class="cls-13" d="M291.66,74.11c.17,.39,1.66,.21,3.33-.41,1.67-.61,2.89-1.43,2.73-1.82-.17-.39-1.66-.21-3.34,.41-1.67,.62-2.89,1.43-2.73,1.82Z"/><path class="cls-11" d="M311.1,59.35c.21,.14,.9-.44,1.55-1.29,.64-.85,1-1.65,.79-1.79-.21-.15-.9,.43-1.55,1.29-.64,.85-.99,1.66-.78,1.8Z"/></g></g><path class="cls-5" d="M267.94,19.25c-.91-1.78-3.53-2.1-5.84-.73-2.31,1.38-3.44,3.92-2.53,5.7,.92,1.78,3.53,2.1,5.84,.73,2.31-1.37,3.44-3.92,2.53-5.7Z"/><path class="cls-10" d="M284.57,7.67c-.24-1.98-2.58-3.19-5.23-2.71-2.64,.48-4.59,2.49-4.35,4.47,.24,1.98,2.58,3.2,5.22,2.71,2.64-.49,4.59-2.49,4.35-4.47Z"/><path class="cls-6" d="M254.85,19.76c-1.11-1.06-3.54-.33-5.4,1.64-1.87,1.96-2.48,4.42-1.37,5.47,1.11,1.06,3.53,.33,5.4-1.64,1.87-1.96,2.48-4.42,1.37-5.47Z"/><path class="cls-8" d="M274.05,11.07c-.56-.92-2.89-.53-5.21,.87-2.32,1.4-3.75,3.29-3.2,4.21,.56,.92,2.89,.53,5.21-.87,2.32-1.4,3.75-3.28,3.2-4.21Z"/><path class="cls-7" d="M263.87,11.8c-.57-.91-2.89-.49-5.19,.94-2.3,1.43-3.71,3.33-3.14,4.25,.57,.91,2.9,.49,5.2-.94,2.3-1.43,3.71-3.33,3.13-4.25Z"/><path class="cls-14" d="M273.23,6.1c-.2-.74-2.48-.78-5.1-.08-2.62,.7-4.59,1.87-4.39,2.61,.2,.74,2.48,.78,5.1,.08,2.62-.7,4.58-1.86,4.38-2.61Z"/><path class="cls-9" d="M263.58,6.2c-.27-.33-1.65,.27-3.08,1.33-1.43,1.06-2.37,2.18-2.1,2.51,.27,.32,1.65-.27,3.09-1.33,1.43-1.06,2.37-2.19,2.1-2.51Z"/></g><g><path class="cls-3" d="M267.89,15.22c1.35,.97,.14,3.15,1.76,3.8,6.17,1.76,13.86,1.48,20.16,.23,2.59-.28,.46-2.87,2.22-3.89-.32-1.95,1.35-3.1,1.9-4.68,.56-.97-1.34-1.26-1.81-1.44l-.23,1.99c-.56,0-.97-.79-1.44-.65l-.65,1.76c.6-.05,1.16,.04,1.67,.32,.05,.18-.14,.23-.23,.32-.97,.65-2.55,.84-3.57,.23-.37-.37-1.25-.7-1.02-1.44,.19-.28,.46-.79,.93-.65,.51,0,.61,.65,.88,.88,.42-.18,.79-.65,.79-1.11-.09-.88-1.06-1.07-1.81-1.11l.33-1.58c-.28-.32-.19-1.11-.88-.97-.97,.42-.84,1.53-.97,2.41l-1.57-.1c-.65,.23-.65,1.12-.46,1.67,.37,.23,.69-.37,1.11-.33,.37,.14,.65,.51,.56,.88-.74,1.2-2.41,.93-3.52,.65-.69-.23-1.25-.98-1.11-1.76,.55-.7,1.48-.05,2.08-.23l-.09-2.64c-.6,.05-1.25,.46-1.81,.32,.05-.74,.6-1.44,.47-1.99-1.11-.37-2.18,.14-3.34,0l.65,1.86c-.55,.42-1.3-.28-1.85-.19v2.78l1.3-.23c.5,0,.92,.33,.78,.88-.65,1.29-2.08,1.62-3.57,1.43-.6-.09-1.48-.83-.98-1.53,.51-.7,.98,.42,1.53,0,.23-.51,.14-1.2-.33-1.48-.51-.46-1.21,0-1.76,0l-.14-1.53c-.09-.51-.65-.97-1.2-.88-.65,.7-.42,1.9-.33,2.65h-.69c-.51,.18-1.07,.69-.88,1.34,.19,.32,.51,.74,.88,.78v-.32c.32-.23,.46-.74,.87-.56,.43,.18,.79,.6,.79,1.11-.65,1.25-2.09,1.2-3.34,1.3-.51-.28-1.34-.18-1.44-.97l1.67-.33c-.23-.6-.51-1.21-.79-1.81l-1.34,.79c-.05-.56-.28-1.34-.19-2.13-.65,.41-1.53,.51-2.04,1.11,.79,1.67,2.18,3.02,2.04,5.01Zm22.15-.65c.46-.18,1.44-1.07,1.67-.09-.14,.51-.14,1.58-.79,1.29-.32-.37-.97-.65-.88-1.2Zm-.69,4.12c-.37,.37-.88,.51-1.44,.46-.46-2.04-3.1-1.21-4.77-1.58-3.57-.19-7.27-.19-10.62,.46-.46,.19-.18,.69-.41,.97-.6,.32-1.35,0-1.67-.56,.23-1.16,1.62-.88,2.45-1.34,5.29-.74,11.31-.6,16.22,.79,.37,.14,.18,.51,.24,.79Zm-4.36-5.7c.93-.05,1.72,.05,2.23,.79,.09,.6-.42,1.02-.98,1.02-.64-.09-1.39-.18-1.67-.88-.04-.42,.05-.79,.42-.93Zm-5.33-.41c.7-.14,1.11,.41,1.67,.65-.09,.7-.84,.7-1.21,1.11-.69,.05-1.02-.56-1.58-.88,.09-.51,.79-.46,1.11-.88Zm-5.56,.32c.6-.05,1.16-.05,1.57,.46,.23,.79-.74,1.11-1.25,1.3-.56,.05-1.11,.05-1.44-.42-.14-.74,.51-1.16,1.12-1.34Zm-2.88,3.34c5.47-1.44,12.56-1.71,17.89,.23l.33,.33v.32c-5.56-1.02-12.29-1.39-18.03-.09-.32,.04-.65,.42-.97,.09-.09-.42,.42-.84,.79-.88Zm-2.78-2.22c.6-.05,1.11,.18,1.53,.56-.14,.46-.51,.97-.97,1.2-.51,.09-.56-.6-.69-.97l.14-.79Z"/><path class="cls-3" d="M294.81,26.25c1.62-1.57,3.62-2.31,5.89-2.46-2.78-.79-5.74-.14-7.87,1.58-2.04-.88-4.45-1.58-6.81-1.02,1.9,.6,3.94,.97,5.47,2.23-3.15,3.66-5.1,7.74-7.13,11.81-1.95-1.07-2.97-3.15-4.36-4.67-1.02,1.66-2.32,3.24-3.89,4.67h-.33c-2.13-4.08-3.94-8.29-7.14-11.91,1.62-1.16,3.62-1.53,5.47-2.13-1.99-.32-4.87,.09-7,.93-1.99-1.71-5.05-2.22-7.6-1.48,2.27,.14,4.5,.83,5.79,2.69-1.48,1.11-2.91,2.69-3.89,4.22-1.48,2.6-2.41,6.3-.88,9.13,1.44,2.55,4.17,4.4,7.23,4.21,2.41,.23,4.31-1.25,6.35-1.53,.88,2.32,1.99,4.54,3.34,6.67,1.81,1.25-.37,2.59-.97,3.66-3.25,4.12-8.25,6.81-13.25,5.15,.83,.6,1.67,1.25,2.64,1.53,5.84,1.49,10.43-2.69,14.27-6.44,2.73,3.11,5.98,5.79,9.78,6.67,2.55,.47,5.29-.14,6.81-1.76l-2.6,.41c-5.28,.28-9.87-3.61-12.24-8.11,1.67-2.55,3.06-5.19,4.22-7.92,2.5,1.06,5.23,2.22,8.16,1.57,2.5-.41,4.5-2.41,5.56-4.68,1.76-5.09-1.25-9.73-5.01-13.02Zm-30.08,13.9c-1.99-1.58-2.64-4.17-1.99-6.67,.55-2.27,1.94-4.13,3.89-5.66,3.1,3.61,4.72,8.06,6.44,12.33-2.27,1.53-6.02,1.53-8.34,0Zm15.39,7.04c-1.62-1.9-2.23-4.4-3.34-6.58,.51-1.2,1.81-1.95,2.65-3.11l.55-.88,3.34,3.75c-.7,2.41-1.99,4.59-3.2,6.81Zm16.78-8.71c-1.3,2.27-3.66,2.88-6.12,2.92-1.34-.19-2.59-.51-3.75-1.11,1.58-4.36,3.24-8.66,6.35-12.37,1.25,.46,2.13,1.86,2.87,2.92,1.21,2.13,1.95,5.28,.65,7.64Z"/></g></g><g><path class="cls-1" d="M340.71,57.58c.95,0,1.8,.17,2.54,.5,.74,.33,1.37,.79,1.87,1.36,.51,.57,.89,1.24,1.16,1.99,.27,.75,.4,1.55,.4,2.37s-.13,1.6-.39,2.37c-.26,.76-.65,1.43-1.16,2.01-.51,.58-1.15,1.05-1.91,1.4s-1.64,.53-2.64,.53-1.81-.17-2.54-.5-1.34-.78-1.83-1.34c-.49-.56-.86-1.22-1.1-1.97-.25-.75-.37-1.54-.37-2.37,0-.88,.14-1.7,.41-2.48,.27-.77,.66-1.45,1.17-2.02,.51-.58,1.13-1.03,1.87-1.36s1.58-.5,2.52-.5Zm-.02,11c.61,0,1.15-.13,1.62-.38,.48-.25,.88-.59,1.2-1.02,.32-.43,.57-.93,.74-1.5,.17-.57,.26-1.19,.26-1.85s-.09-1.29-.27-1.86c-.18-.58-.44-1.07-.78-1.49-.34-.42-.75-.75-1.23-.99-.48-.24-1.03-.36-1.63-.36s-1.12,.12-1.58,.35-.84,.56-1.15,.98c-.31,.42-.54,.92-.71,1.49-.16,.57-.24,1.2-.24,1.86,0,.74,.09,1.41,.28,1.99,.19,.59,.45,1.09,.78,1.49s.73,.72,1.19,.95c.46,.22,.96,.33,1.52,.33Z"/><path class="cls-1" d="M353.93,62.5h-1.99v3.8c0,.31,0,.57,0,.79,0,.22,.02,.4,.03,.56,.01,.15,.03,.31,.04,.45,.03,.19,.07,.36,.15,.53s.16,.29,.26,.38c.1,.1,.24,.16,.42,.18,.18,.02,.32,.03,.44,.03l.09,.09,.04,.61-.04,.07c-.07,0-.19,0-.35-.02-.16-.01-.33-.02-.5-.02h-3.97l-.02-.04,.04-.63,.06-.07c.19,0,.36-.02,.54-.05,.17-.03,.32-.1,.43-.19,.07-.07,.14-.17,.19-.28s.1-.28,.12-.52c.02-.23,.04-.56,.06-.96,.01-.41,.02-.95,.02-1.63v-3.08h-1l-.07-.09v-.8l.07-.07,1-.28v-1.06c0-1.26,.29-2.26,.88-3,.59-.74,1.45-1.1,2.59-1.1,.28,0,.59,.06,.93,.18s.68,.31,1.04,.57l.09,.19-.22,1.61h-.67c-.03-.36-.18-.64-.46-.85-.29-.21-.61-.32-.96-.32-.31,0-.55,.05-.71,.16-.17,.1-.29,.24-.37,.4-.08,.17-.13,.36-.14,.58-.01,.22-.02,.44-.02,.66v1.94h1.99l.09,.02v1.19l-.09,.09Z"/><path class="cls-1" d="M360.71,62.5h-1.99v3.8c0,.31,0,.57,0,.79,0,.22,.02,.4,.03,.56,.01,.15,.03,.31,.04,.45,.03,.19,.07,.36,.15,.53s.16,.29,.26,.38c.1,.1,.24,.16,.42,.18,.18,.02,.32,.03,.44,.03l.09,.09,.04,.61-.04,.07c-.07,0-.19,0-.35-.02-.16-.01-.33-.02-.5-.02h-3.97l-.02-.04,.04-.63,.06-.07c.19,0,.36-.02,.54-.05,.17-.03,.32-.1,.43-.19,.07-.07,.14-.17,.19-.28s.1-.28,.12-.52c.02-.23,.04-.56,.06-.96,.01-.41,.02-.95,.02-1.63v-3.08h-1l-.07-.09v-.8l.07-.07,1-.28v-1.06c0-1.26,.29-2.26,.88-3,.59-.74,1.45-1.1,2.59-1.1,.28,0,.59,.06,.93,.18s.68,.31,1.04,.57l.09,.19-.22,1.61h-.67c-.03-.36-.18-.64-.46-.85-.29-.21-.61-.32-.96-.32-.31,0-.55,.05-.71,.16-.17,.1-.29,.24-.37,.4-.08,.17-.13,.36-.14,.58-.01,.22-.02,.44-.02,.66v1.94h1.99l.09,.02v1.19l-.09,.09Z"/><path class="cls-1" d="M367.72,69.99c-.09,0-.22,0-.39-.02-.17-.01-.36-.02-.56-.02h-3.86l-.02-.04,.04-.63,.06-.07c.19,0,.38,0,.58-.03,.2-.02,.35-.08,.45-.18,.09-.09,.15-.2,.19-.33,.04-.14,.07-.33,.09-.57,.01-.09,.02-.17,.03-.26s.01-.18,.02-.28,0-.22,0-.35v-3.16c0-.14,0-.26,0-.36,0-.1-.01-.19-.02-.27,0-.08-.02-.18-.03-.29-.03-.12-.06-.24-.11-.35-.05-.11-.09-.19-.13-.22-.12-.16-.28-.25-.46-.28s-.38-.04-.58-.04l-.07-.07v-.63l.07-.07h1.86c.32,0,.61-.02,.85-.06l.65-.1,.11,.36s-.05,.13-.06,.23-.03,.22-.04,.33c0,.12-.01,.23-.02,.35,0,.12,0,.21,0,.29,0,.1,0,.19,0,.27,0,.08,0,.17,0,.28s0,.24,0,.4c0,.16,0,.36,0,.59v2.08c0,.25,0,.45,0,.6,0,.15,.01,.29,.02,.4,0,.11,.01,.21,.02,.31,0,.09,.02,.19,.03,.31,.03,.26,.05,.45,.08,.58,.03,.13,.1,.24,.19,.32,.1,.1,.24,.16,.42,.18,.18,.02,.36,.03,.55,.03l.09,.09,.04,.61-.04,.07Zm-3.77-11.45c0-.15,.03-.3,.09-.45,.06-.15,.15-.28,.26-.4,.11-.12,.24-.21,.38-.28,.14-.07,.29-.1,.46-.1,.31,0,.59,.13,.84,.38,.25,.25,.38,.54,.38,.84,0,.16-.03,.31-.1,.45-.07,.14-.16,.27-.28,.38-.12,.11-.25,.2-.4,.26-.15,.06-.3,.09-.44,.09-.32,0-.6-.12-.83-.35-.24-.23-.35-.51-.35-.83Z"/><path class="cls-1" d="M376.35,63.93l-.07-.06c0-.28-.08-.52-.25-.7-.17-.18-.37-.32-.6-.42-.24-.1-.49-.17-.75-.2-.27-.04-.5-.06-.7-.06-.45,0-.83,.09-1.17,.26-.33,.17-.61,.4-.82,.69-.21,.28-.37,.61-.47,.98-.11,.37-.16,.75-.16,1.15,0,.42,.06,.82,.18,1.21,.12,.38,.29,.72,.53,1.02,.24,.3,.54,.54,.9,.71,.36,.18,.79,.27,1.29,.27,.42,0,.87-.04,1.34-.13,.47-.09,.89-.23,1.26-.43l.32,.44-.28,.52c-.14,.1-.31,.2-.53,.31-.22,.11-.46,.2-.73,.3-.27,.09-.57,.17-.88,.23-.31,.06-.63,.09-.94,.09-.61,0-1.18-.11-1.73-.32-.55-.22-1.03-.52-1.45-.91s-.75-.86-.99-1.41c-.25-.55-.37-1.16-.37-1.83s.12-1.3,.37-1.85c.25-.56,.59-1.03,1.02-1.43,.43-.4,.94-.71,1.51-.93s1.19-.33,1.85-.33c.3,0,.6,.02,.9,.06,.3,.04,.59,.1,.87,.16s.53,.13,.75,.21,.4,.16,.54,.23l.06,.17-.2,1.98h-.58Z"/><path class="cls-1" d="M383.71,69.99c-.09,0-.22,0-.39-.02-.17-.01-.36-.02-.56-.02h-3.86l-.02-.04,.04-.63,.06-.07c.19,0,.38,0,.58-.03,.2-.02,.35-.08,.45-.18,.09-.09,.15-.2,.19-.33,.04-.14,.07-.33,.09-.57,.01-.09,.02-.17,.03-.26s.01-.18,.02-.28,0-.22,0-.35v-3.16c0-.14,0-.26,0-.36,0-.1-.01-.19-.02-.27,0-.08-.02-.18-.03-.29-.03-.12-.06-.24-.11-.35-.05-.11-.09-.19-.13-.22-.12-.16-.28-.25-.46-.28s-.38-.04-.58-.04l-.07-.07v-.63l.07-.07h1.86c.32,0,.61-.02,.85-.06l.65-.1,.11,.36s-.05,.13-.06,.23-.03,.22-.04,.33c0,.12-.01,.23-.02,.35,0,.12,0,.21,0,.29,0,.1,0,.19,0,.27,0,.08,0,.17,0,.28s0,.24,0,.4c0,.16,0,.36,0,.59v2.08c0,.25,0,.45,0,.6,0,.15,.01,.29,.02,.4,0,.11,.01,.21,.02,.31,0,.09,.02,.19,.03,.31,.03,.26,.05,.45,.08,.58,.03,.13,.1,.24,.19,.32,.1,.1,.24,.16,.42,.18,.18,.02,.36,.03,.55,.03l.09,.09,.04,.61-.04,.07Zm-3.77-11.45c0-.15,.03-.3,.09-.45,.06-.15,.15-.28,.26-.4,.11-.12,.24-.21,.38-.28,.14-.07,.29-.1,.46-.1,.31,0,.59,.13,.84,.38,.25,.25,.38,.54,.38,.84,0,.16-.03,.31-.1,.45-.07,.14-.16,.27-.28,.38-.12,.11-.25,.2-.4,.26-.15,.06-.3,.09-.44,.09-.32,0-.6-.12-.83-.35-.24-.23-.35-.51-.35-.83Z"/><path class="cls-1" d="M390.39,69.79c.04-.11,.07-.27,.08-.48,.02-.21,.05-.4,.08-.58l-.02-.06c-.15,.19-.32,.37-.51,.54-.19,.17-.41,.33-.64,.46-.24,.14-.49,.24-.75,.32-.27,.08-.55,.12-.84,.12-.44,0-.83-.07-1.17-.21s-.61-.32-.83-.54-.39-.49-.51-.78c-.12-.3-.18-.61-.18-.93,0-.49,.1-.91,.32-1.27,.21-.36,.49-.65,.83-.88,.32-.21,.7-.38,1.13-.49,.43-.12,.85-.21,1.26-.27,.41-.06,.78-.09,1.11-.09h.93c-.01-.39-.04-.69-.07-.91-.04-.22-.09-.4-.15-.55-.11-.25-.29-.43-.55-.53-.25-.11-.55-.16-.9-.16-.21,0-.44,.02-.68,.05-.24,.03-.47,.09-.68,.18-.21,.09-.39,.21-.55,.36-.15,.15-.24,.35-.27,.6l-.07,.06h-.59l-.17-1.74,.06-.11c.07-.07,.22-.15,.43-.24,.21-.09,.46-.17,.76-.25s.62-.15,.97-.2,.71-.08,1.07-.08c.48,0,.93,.06,1.35,.18,.42,.12,.78,.29,1.08,.53s.54,.53,.71,.88c.17,.35,.26,.76,.26,1.23,0,.51,0,.94,0,1.3s-.02,.69-.03,1c-.01,.31-.02,.61-.03,.9s0,.62,0,.97c.02,.28,.06,.49,.09,.61,.04,.12,.1,.22,.19,.3,.1,.1,.25,.16,.45,.18s.39,.03,.57,.03l.06,.07,.04,.63-.02,.07c-.21-.04-.45-.06-.72-.06h-1.8c-.35,0-.67,.01-.98,.04l-.11-.19Zm0-2c.04-.06,.08-.14,.12-.22,.04-.09,.07-.19,.08-.32l.09-1.58h-.17c-.38,0-.76,.02-1.13,.07-.37,.05-.71,.14-1,.28-.3,.14-.54,.33-.72,.58-.18,.25-.28,.57-.28,.96,0,.33,.08,.6,.25,.8s.39,.3,.68,.3c.21,0,.42-.03,.64-.08,.22-.06,.42-.13,.6-.21s.35-.18,.5-.29,.26-.2,.33-.29Z"/><path class="cls-1" d="M399.9,69.97c-.09,0-.22,0-.39-.02-.17-.01-.36-.02-.56-.02h-3.86l-.02-.04,.04-.63,.06-.07c.19,0,.38,0,.58-.03,.2-.02,.35-.08,.45-.18,.09-.09,.15-.2,.19-.33,.04-.14,.07-.33,.09-.57,.01-.09,.02-.17,.03-.26s.01-.18,.02-.28,0-.22,0-.35v-8.28c0-.14,0-.26,0-.36s-.01-.19-.02-.27-.02-.18-.03-.29c-.03-.12-.06-.24-.11-.35-.05-.11-.09-.19-.13-.22-.12-.16-.28-.25-.46-.28-.19-.02-.38-.04-.58-.04l-.07-.07v-.63l.07-.07h1.86c.32,0,.61-.02,.85-.06l.65-.1,.11,.36s-.05,.13-.06,.23c-.02,.11-.03,.22-.04,.33,0,.12-.01,.24-.02,.35,0,.12,0,.21,0,.29,0,.1,0,.19,0,.27,0,.08,0,.17,0,.28s0,.24,0,.4c0,.16,0,.36,0,.59v7.2c0,.25,0,.45,0,.6,0,.15,.01,.29,.02,.4,0,.11,.01,.21,.02,.31,0,.09,.02,.19,.03,.31,.03,.26,.05,.45,.08,.58,.03,.13,.1,.24,.19,.32,.1,.1,.24,.16,.42,.18,.18,.02,.36,.03,.55,.03l.09,.09,.04,.61-.04,.07Z"/><path class="cls-1" d="M411.87,69.97h-5.25l-.04-.02,.06-.71,.09-.07c.15,0,.32,0,.52-.03,.2-.02,.35-.06,.46-.14,.1-.07,.19-.19,.28-.35,.09-.16,.15-.4,.19-.72,0-.09,0-.19,0-.31s.01-.26,.02-.44c0-.17,0-.38,0-.63v-5.85c0-.32-.01-.63-.04-.94-.03-.32-.08-.56-.18-.71s-.19-.27-.29-.34c-.11-.1-.23-.15-.34-.17s-.33-.02-.64-.02l-.09-.07-.06-.71,.04-.07c.09,0,.2,0,.34,.02,.14,.01,.29,.02,.45,.03s.31,.02,.47,.03c.16,.01,.31,.02,.45,.02h3.26c.83,0,1.53,.08,2.11,.25s1.04,.4,1.4,.69c.36,.3,.62,.65,.79,1.06,.17,.41,.25,.87,.25,1.36,0,.83-.15,1.51-.45,2.04s-.68,.95-1.14,1.26-.98,.52-1.56,.64-1.13,.18-1.68,.18h-1.04v.78c0,.27,0,.54,0,.79,0,.25,.01,.48,.02,.68,0,.2,.01,.35,.03,.45,.02,.36,.09,.61,.19,.75,.1,.14,.19,.24,.26,.31,.11,.1,.23,.15,.34,.17,.12,.01,.34,.02,.66,.02l.07,.07,.06,.71-.04,.02Zm-.65-6.1c1.04,0,1.78-.23,2.23-.71,.45-.47,.67-1.12,.67-1.95,0-.67-.26-1.17-.77-1.49-.51-.33-1.21-.49-2.11-.49h-.87c-.04,.54-.06,.95-.07,1.21-.01,.27-.02,.5-.02,.71v2.02c0,.16,0,.29,.02,.38s.04,.16,.09,.2c.05,.04,.12,.07,.21,.08,.09,.01,.22,.02,.38,.02h.24Z"/><path class="cls-1" d="M422.7,69.79c.04-.11,.07-.27,.08-.48,.02-.21,.05-.4,.08-.58l-.02-.06c-.15,.19-.32,.37-.51,.54-.19,.17-.41,.33-.64,.46-.24,.14-.49,.24-.75,.32-.27,.08-.55,.12-.84,.12-.44,0-.83-.07-1.17-.21s-.61-.32-.83-.54-.39-.49-.51-.78c-.12-.3-.18-.61-.18-.93,0-.49,.1-.91,.32-1.27,.21-.36,.49-.65,.83-.88,.32-.21,.7-.38,1.13-.49,.43-.12,.85-.21,1.26-.27,.41-.06,.78-.09,1.11-.09h.93c-.01-.39-.04-.69-.07-.91-.04-.22-.09-.4-.15-.55-.11-.25-.29-.43-.55-.53-.25-.11-.55-.16-.9-.16-.21,0-.44,.02-.68,.05-.24,.03-.47,.09-.68,.18-.21,.09-.39,.21-.55,.36-.15,.15-.24,.35-.27,.6l-.07,.06h-.59l-.17-1.74,.06-.11c.07-.07,.22-.15,.43-.24,.21-.09,.46-.17,.76-.25s.62-.15,.97-.2,.71-.08,1.07-.08c.48,0,.93,.06,1.35,.18,.42,.12,.78,.29,1.08,.53s.54,.53,.71,.88c.17,.35,.26,.76,.26,1.23,0,.51,0,.94,0,1.3s-.02,.69-.03,1c-.01,.31-.02,.61-.03,.9s0,.62,0,.97c.02,.28,.06,.49,.09,.61,.04,.12,.1,.22,.19,.3,.1,.1,.25,.16,.45,.18s.39,.03,.57,.03l.06,.07,.04,.63-.02,.07c-.21-.04-.45-.06-.72-.06h-1.8c-.35,0-.67,.01-.98,.04l-.11-.19Zm0-2c.04-.06,.08-.14,.12-.22,.04-.09,.07-.19,.08-.32l.09-1.58h-.17c-.38,0-.76,.02-1.13,.07-.37,.05-.71,.14-1,.28-.3,.14-.54,.33-.72,.58-.18,.25-.28,.57-.28,.96,0,.33,.08,.6,.25,.8s.39,.3,.68,.3c.21,0,.42-.03,.64-.08,.22-.06,.42-.13,.6-.21s.35-.18,.5-.29,.26-.2,.33-.29Z"/><path class="cls-1" d="M430.83,63.35c.12-.23,.26-.48,.42-.74,.15-.26,.33-.5,.53-.72s.42-.41,.68-.56c.25-.15,.54-.22,.86-.22,.1,0,.22,0,.36,.03,.14,.02,.29,.05,.43,.08,.14,.04,.28,.08,.42,.13,.14,.05,.24,.1,.32,.17l.13,.11-.22,2h-.8c-.04-.15-.13-.3-.29-.45-.15-.15-.39-.23-.71-.23-.28,0-.54,.07-.78,.21-.24,.14-.44,.32-.61,.53-.17,.21-.31,.44-.41,.68-.1,.24-.15,.46-.15,.66v1.28c0,.47,0,.82,0,1.06,0,.23,.02,.44,.03,.61,.03,.27,.06,.49,.1,.66,.04,.17,.11,.29,.21,.38,.05,.05,.13,.09,.23,.12,.1,.03,.21,.05,.32,.06,.11,.01,.22,.02,.33,.02h.25l.09,.09,.04,.61-.04,.07c-.07,0-.2,0-.37-.02-.17-.01-.36-.02-.56-.02h-4.04l-.02-.04,.04-.63,.06-.07c.21,0,.41,0,.59-.03s.33-.08,.43-.18c.1-.09,.17-.2,.21-.33,.04-.14,.08-.37,.1-.7,.01-.15,.02-.35,.02-.59v-3.05c0-.18,0-.34,0-.47,0-.14-.01-.26-.02-.37s-.02-.23-.03-.35c-.03-.12-.06-.24-.11-.35-.05-.11-.09-.19-.13-.22-.12-.16-.28-.25-.46-.28s-.38-.04-.58-.04l-.07-.07v-.63l.07-.07h1.39c.43,0,.81-.02,1.13-.06l.65-.1,.11,.36c-.07,.23-.13,.5-.16,.8-.03,.3-.05,.59-.05,.87l.06,.02Z"/><path class="cls-1" d="M441.5,62.5h-2.04c0,.72,0,1.38,0,1.99,0,.61,0,1.14,0,1.6s0,.82,0,1.1c0,.28,0,.46,0,.52,0,.48,.09,.8,.28,.96,.19,.16,.4,.24,.65,.24,.19,0,.4-.02,.63-.06s.43-.09,.59-.15l.11,.2-.19,.61c-.33,.19-.68,.33-1.03,.44s-.68,.16-.97,.16c-.75,0-1.29-.17-1.61-.52-.32-.35-.48-.79-.48-1.34,0-.11,0-.33,.02-.66,.01-.33,.02-.74,.04-1.24,.01-.5,.02-1.08,.04-1.73,.01-.66,.02-1.37,.02-2.13h-.96l-.07-.09v-.82l.07-.07,.96-.26c0-.4,0-.8-.03-1.22-.02-.41-.04-.82-.06-1.21l.13-.11,.26-.02c.09,0,.21,0,.36-.02s.32-.03,.49-.05c.17-.02,.34-.04,.49-.06,.15-.02,.27-.05,.34-.07l.17,.07c-.06,.3-.11,.71-.15,1.21-.04,.5-.06,.98-.06,1.43h2.04l.09,.02v1.19l-.09,.09Z"/><path class="cls-1" d="M446.56,63c.29-.54,.67-1,1.17-1.35s1.08-.54,1.74-.54c.38,0,.76,.05,1.13,.15s.71,.25,1.01,.46c.3,.21,.56,.48,.76,.81,.2,.33,.34,.71,.4,1.16,.04,.32,.06,.66,.07,1.02,0,.36,0,.72,0,1.08,.01,.42,.02,.81,.02,1.16v1.16c0,.28,.03,.5,.1,.64,.07,.14,.15,.24,.25,.29,.14,.07,.28,.12,.44,.15,.15,.02,.33,.04,.53,.04l.06,.07,.04,.63-.04,.07c-.26-.04-.55-.06-.86-.06h-1.81c-.3,0-.57,.01-.83,.04l-.13-.37c.04-.16,.07-.4,.1-.72,.03-.32,.05-.58,.07-.78,.02-.47,.04-.91,.06-1.32,.01-.41,.02-.77,.02-1.09,0-.28,0-.59-.02-.93-.01-.33-.06-.62-.13-.87-.1-.4-.3-.69-.6-.88-.3-.19-.65-.29-1.05-.29-.37,0-.71,.07-1.02,.2-.31,.14-.57,.3-.79,.49-.22,.19-.39,.39-.51,.6-.12,.21-.19,.4-.19,.56v2.51c0,.15,0,.29,0,.4,0,.11,.01,.21,.02,.31,0,.09,.02,.19,.03,.31,.03,.26,.08,.45,.16,.58,.08,.13,.17,.24,.27,.32,.1,.1,.22,.16,.35,.18s.3,.03,.48,.03l.09,.09,.04,.61-.04,.07c-.09,0-.22,0-.39-.02-.17-.01-.36-.02-.56-.02h-3.88l-.02-.04,.04-.63,.06-.07c.2,0,.37,0,.53-.03,.16-.02,.28-.08,.38-.18,.09-.09,.17-.2,.24-.33,.07-.14,.12-.33,.15-.57,.01-.09,.02-.17,.03-.26s.01-.18,.02-.28,0-.22,0-.35v-3.01c0-.16,0-.3,0-.43,0-.12-.01-.23-.02-.33,0-.1-.02-.2-.03-.32-.03-.12-.06-.24-.11-.35-.05-.11-.09-.19-.13-.22-.12-.16-.28-.25-.46-.28s-.38-.04-.58-.04l-.07-.07v-.63l.07-.07h1.86c.33,0,.62-.02,.86-.06l.65-.1,.11,.36c-.1,.14-.16,.32-.18,.57s-.03,.49-.03,.73l.06,.04Z"/><path class="cls-1" d="M463.7,65.2l-.45,.34h-5.49c-.01,.09-.02,.17-.02,.25v.23c0,.32,.06,.65,.17,.97,.11,.32,.29,.61,.53,.87,.24,.25,.55,.46,.92,.62s.82,.23,1.35,.23c.38,0,.79-.05,1.21-.16,.43-.1,.83-.24,1.2-.42l.32,.13v.67l-.19,.2c-.3,.24-.73,.46-1.31,.67s-1.2,.32-1.86,.32-1.25-.11-1.79-.32-1-.52-1.39-.92c-.39-.4-.69-.87-.91-1.41-.22-.54-.32-1.15-.32-1.82s.11-1.3,.33-1.85,.53-1.03,.92-1.43c.39-.4,.85-.71,1.37-.93s1.09-.33,1.7-.33c.32,0,.68,.04,1.08,.13,.4,.09,.79,.25,1.16,.49s.71,.58,1,1.02c.3,.44,.5,1.02,.61,1.73l-.15,.72Zm-3.69-2.7c-.61,0-1.09,.18-1.46,.54-.37,.36-.6,.77-.7,1.24h3.49c.16,0,.28-.05,.35-.14s.11-.19,.11-.29c0-.38-.18-.69-.54-.96-.36-.26-.78-.39-1.26-.39Z"/><path class="cls-1" d="M468.73,63.35c.12-.23,.26-.48,.42-.74,.15-.26,.33-.5,.53-.72s.42-.41,.68-.56c.25-.15,.54-.22,.86-.22,.1,0,.22,0,.36,.03,.14,.02,.29,.05,.43,.08,.14,.04,.28,.08,.42,.13,.14,.05,.24,.1,.32,.17l.13,.11-.22,2h-.8c-.04-.15-.13-.3-.29-.45-.15-.15-.39-.23-.71-.23-.28,0-.54,.07-.78,.21-.24,.14-.44,.32-.61,.53-.17,.21-.31,.44-.41,.68-.1,.24-.15,.46-.15,.66v1.28c0,.47,0,.82,0,1.06,0,.23,.02,.44,.03,.61,.03,.27,.06,.49,.1,.66,.04,.17,.11,.29,.21,.38,.05,.05,.13,.09,.23,.12,.1,.03,.21,.05,.32,.06,.11,.01,.22,.02,.33,.02h.25l.09,.09,.04,.61-.04,.07c-.07,0-.2,0-.37-.02-.17-.01-.36-.02-.56-.02h-4.04l-.02-.04,.04-.63,.06-.07c.21,0,.41,0,.59-.03s.33-.08,.43-.18c.1-.09,.17-.2,.21-.33,.04-.14,.08-.37,.1-.7,.01-.15,.02-.35,.02-.59v-3.05c0-.18,0-.34,0-.47,0-.14-.01-.26-.02-.37s-.02-.23-.03-.35c-.03-.12-.06-.24-.11-.35-.05-.11-.09-.19-.13-.22-.12-.16-.28-.25-.46-.28s-.38-.04-.58-.04l-.07-.07v-.63l.07-.07h1.39c.43,0,.81-.02,1.13-.06l.65-.1,.11,.36c-.07,.23-.13,.5-.16,.8-.03,.3-.05,.59-.05,.87l.06,.02Z"/></g></svg>