<svg xmlns="http://www.w3.org/2000/svg" viewBox="0 0 144 22.154">
  <g id="Group_9068" data-name="Group 9068" transform="translate(-398 -613)">
    <path id="Vector" d="M12,0,9.167,8.5H0l7.416,5.185L4.584,22.154,12,16.881l7.417,5.246-2.834-8.436L24,8.5H14.833Z" transform="translate(518 613)" fill="#ff7141"/>
    <path id="Vector-2" data-name="Vector" d="M12,0,9.167,8.5H0l7.416,5.185L4.584,22.154,12,16.881l7.417,5.246-2.834-8.436L24,8.5H14.833Z" transform="translate(458 613)" fill="#ff7141"/>
    <path id="Vector-3" data-name="Vector" d="M12,0,9.167,8.5H0l7.416,5.185L4.584,22.154,12,16.881l7.417,5.246-2.834-8.436L24,8.5H14.833Z" transform="translate(488 613)" fill="#ff7141"/>
    <path id="Vector-4" data-name="Vector" d="M12,0,9.167,8.5H0l7.416,5.185L4.584,22.154,12,16.881l7.417,5.246-2.834-8.436L24,8.5H14.833Z" transform="translate(428 613)" fill="#ff7141"/>
    <path id="Vector-5" data-name="Vector" d="M12,0,9.167,8.5H0l7.416,5.185L4.584,22.154,12,16.881l7.417,5.246-2.834-8.436L24,8.5H14.833Z" transform="translate(398 613)" fill="#ff7141"/>
  </g>
</svg>
