<svg xmlns="http://www.w3.org/2000/svg" xmlns:xlink="http://www.w3.org/1999/xlink" id="Layer_1" x="0px" y="0px" viewBox="0 0 85 85" xml:space="preserve"><circle fill="#F2672B" cx="42.5" cy="42.5" r="42.5"></circle><path opacity="0.15" d="M63.1,60.1v-7.4H43c3.1-4.4,8.1-6.8,12.3-9.8c4.2-3,7.6-6.5,7.6-12.9c0-8.3-6.8-13.3-14.6-13.3 c-3.2,0-6,0.7-8.2,2.1c0,0-4.9,3-5,3c-4.9,2.9-7.5,8.5-7.3,15.2h8.3c0,0,5-3,5-3c0-2.3,0.4-4.9,1.6-6.8c0.1,0,0.1,0,0.2,0 c3.7,0,6.4,2.6,6.4,6.6c-0.1,5.2-5.2,7.8-8.9,10.4c-7.4,5-13.4,9.2-13.4,19h31.2L63.1,60.1z"></path><g>	<path d="M32.4,40.1"></path>	<g>		<path fill="#FFFFFF" d="M27.8,36.9c-0.3-9.7,5.2-17.2,15.4-17.2c7.8,0,14.6,5,14.6,13.3c0,6.4-3.4,9.9-7.6,12.9   c-4.2,3-9.2,5.4-12.3,9.8h20.1v7.4H26.9c0.1-9.8,6.1-14,13.4-19c3.8-2.6,8.9-5.2,8.9-10.4c0-4-2.7-6.6-6.4-6.6   c-5.1,0-6.7,5.3-6.7,9.8H27.8z"></path>	</g></g></svg>