<svg xmlns="http://www.w3.org/2000/svg" xmlns:xlink="http://www.w3.org/1999/xlink" id="Layer_1" x="0px" y="0px" viewBox="0 0 85 85" xml:space="preserve"><circle fill="#F2672B" cx="42.5" cy="42.5" r="42.5"></circle><path opacity="0.15" d="M26.7,48.4c-0.2,9.8,6.3,15.5,15.8,15.5c3.6,0,7.1-1,9.9-2.8c0,0,4.9-3,5-3c3.6-2.4,6-6.2,6-11.2 c0-4.7-2.8-8.5-7.3-9.6c0,0,1.7-1,1.7-1c2.6-1.6,4-4.6,4-7.8c0-7.6-7.5-11.8-14.3-11.8c-3.3,0-6.6,1.1-8.4,2.4c0,0,0,0,0,0L34.1,22 c-3.8,2.5-6.1,6.9-6.3,12.4h8.2c0,0,5-3,5-3c0-1.8,0.3-3.3,1.1-4.6c0.2,0,0.3,0,0.5,0c3.2,0,6,2.1,6,5.7c0,0.9-0.2,1.6-0.5,2.2 c-1.2,0.2-2.5,0.2-3.6,0.1c0,0-5,3-5,3v6.1c4.2,0,9.8-0.1,9.8,6.3c0,1.4-0.4,2.6-1,3.6c-0.3,0-0.6,0.1-0.9,0.1c-5,0-7.3-3.8-7.5-8.4 h-8.2C31.7,45.4,26.7,48.4,26.7,48.4z"></path><g>	<g>		<path fill="#FFFFFF" d="M39.5,37.7c3.7,0.3,9.1-0.4,9.1-5.3c0-3.6-2.9-5.7-6-5.7c-4.3,0-6.6,3.2-6.6,7.6h-8.2   c0.3-8.7,6-14.7,14.7-14.7c6.8,0,14.3,4.2,14.3,11.8c0,4-2,7.6-6,8.7v0.1c4.7,1,7.5,4.9,7.5,9.7c0,8.9-7.5,14-15.8,14   c-9.5,0-16-5.7-15.8-15.5h8.2c0.2,4.6,2.5,8.4,7.5,8.4c3.9,0,6.9-2.7,6.9-6.7c0-6.4-5.7-6.3-9.8-6.3V37.7z"></path>	</g></g></svg>