<svg xmlns="http://www.w3.org/2000/svg" viewBox="0 0 50.719 56.002"><g id="_2297188932064" transform="translate(0.001)"><path id="&#x41A;&#x43E;&#x43D;&#x442;&#x443;&#x440;_4890" data-name="&#x41A;&#x43E;&#x43D;&#x442;&#x443;&#x440; 4890" d="M46345.8,745h14.469a.514.514,0,0,1,.523.494v46.868a.517.517,0,0,1-.523.513H46345.8a.51.51,0,0,1-.5-.513V745.494A.507.507,0,0,1,46345.8,745Zm-4.8,3.665v-3.133a.508.508,0,1,1,1.016,0l.008,3.133a.5.5,0,0,1-.484.513.621.621,0,0,1-.375-.133l-.008-.019A.529.529,0,0,1,46341,748.665Z" transform="translate(-46310.078 -739.55)" fill="#4c4c4c"></path><path id="&#x41A;&#x43E;&#x43D;&#x442;&#x443;&#x440;_4897" data-name="&#x41A;&#x43E;&#x43D;&#x442;&#x443;&#x440; 4897" d="M46567.516,1755.026a.513.513,0,1,1,0-1.026h8.59a.513.513,0,0,1,0,1.026Z" transform="translate(-46531.793 -1729.389)" fill="#fff"></path><path id="&#x41A;&#x43E;&#x43D;&#x442;&#x443;&#x440;_4898" data-name="&#x41A;&#x43E;&#x43D;&#x442;&#x443;&#x440; 4898" d="M46567.516,1979.025a.513.513,0,1,1,0-1.025h8.59a.513.513,0,0,1,0,1.025Z" transform="translate(-46531.793 -1949.135)" fill="#fff"></path><path id="&#x41A;&#x43E;&#x43D;&#x442;&#x443;&#x440;_4899" data-name="&#x41A;&#x43E;&#x43D;&#x442;&#x443;&#x440; 4899" d="M46567.516,2203.026a.513.513,0,1,1,0-1.025h8.59a.513.513,0,0,1,0,1.025Z" transform="translate(-46531.793 -2168.881)" fill="#fff"></path><path id="&#x41A;&#x43E;&#x43D;&#x442;&#x443;&#x440;_4891" data-name="&#x41A;&#x43E;&#x43D;&#x442;&#x443;&#x440; 4891" d="M44713.52,577h24.488a.529.529,0,0,1,.52.513l.016,5.165,2.313-2.222a.509.509,0,0,1,.707,0l2.355,2.222-.023-5.165a.5.5,0,0,1,.492-.494l4.34-.019a.53.53,0,0,1,.512.513v52.717a.517.517,0,0,1-.512.513h-35.207a.514.514,0,0,1-.52-.513V577.513A.526.526,0,0,1,44713.52,577Zm31.387,1.026Z" transform="translate(-44713 -574.74)" fill="#ff8055"></path><path id="&#x41A;&#x43E;&#x43D;&#x442;&#x443;&#x440;_4892" data-name="&#x41A;&#x43E;&#x43D;&#x442;&#x443;&#x440; 4892" d="M46003.434,458.019l6.4-.019a.529.529,0,0,1,.52.513l.035,8.6a.51.51,0,0,1-.5.513.55.55,0,0,1-.359-.133l-2.863-2.716-2.824,2.716a.507.507,0,0,1-.719-.019.482.482,0,0,1-.141-.361l-.035-8.6A.474.474,0,0,1,46003.434,458.019Z" transform="translate(-45978.453 -458)" fill="#4c4c4c"></path><path id="&#x41A;&#x43E;&#x43D;&#x442;&#x443;&#x440;_4893" data-name="&#x41A;&#x43E;&#x43D;&#x442;&#x443;&#x440; 4893" d="M45182.574,1369a9.559,9.559,0,0,1,6.762,16.332l-.035.057a9.568,9.568,0,0,1-13.484-13.578l.063-.038A9.428,9.428,0,0,1,45182.574,1369Zm5.684,3.893a8.016,8.016,0,0,0-11.312-.039l-.035.039a8.032,8.032,0,0,0,11.3,11.413l.043-.057a8.03,8.03,0,0,0,0-11.356Z" transform="translate(-45164.27 -1351.7)" fill="#fff"></path><path id="&#x41A;&#x43E;&#x43D;&#x442;&#x443;&#x440;_4894" data-name="&#x41A;&#x43E;&#x43D;&#x442;&#x443;&#x440; 4894" d="M45892.629,2220.916a.758.758,0,1,1,1.313-.76l4.934,8.527a.77.77,0,0,1-1.328.779Z" transform="translate(-45870.129 -2186.317)" fill="#fff"></path><path id="&#x41A;&#x43E;&#x43D;&#x442;&#x443;&#x440;_4895" data-name="&#x41A;&#x43E;&#x43D;&#x442;&#x443;&#x440; 4895" d="M45636.762,1581.539a.769.769,0,0,1,0-1.539h.02a5.589,5.589,0,0,1,5.566,5.564v.076a.77.77,0,0,1-1.539,0v-.076a4.062,4.062,0,0,0-1.176-2.849,4.017,4.017,0,0,0-2.852-1.177Z" transform="translate(-45618.469 -1558.693)" fill="#fff"></path><path id="&#x41A;&#x43E;&#x43D;&#x442;&#x443;&#x440;_4896" data-name="&#x41A;&#x43E;&#x43D;&#x442;&#x443;&#x440; 4896" d="M45838.8,1961.165a.758.758,0,1,1,1.289.8l-.324.493a.782.782,0,0,1-1.082.19.765.765,0,0,1-.164-1.064Z" transform="translate(-45817 -1932.263)" fill="#fff"></path></g></svg>