<svg xmlns="http://www.w3.org/2000/svg" viewBox="0 0 56.001 56"><g id="&#x421;&#x433;&#x440;&#x443;&#x43F;&#x43F;&#x438;&#x440;&#x43E;&#x432;&#x430;&#x442;&#x44C;_5234" data-name="&#x421;&#x433;&#x440;&#x443;&#x43F;&#x43F;&#x438;&#x440;&#x43E;&#x432;&#x430;&#x442;&#x44C; 5234" transform="translate(-298.226 -212)"><rect id="&#x41F;&#x440;&#x44F;&#x43C;&#x43E;&#x443;&#x433;&#x43E;&#x43B;&#x44C;&#x43D;&#x438;&#x43A;_20077" data-name="&#x41F;&#x440;&#x44F;&#x43C;&#x43E;&#x443;&#x433;&#x43E;&#x43B;&#x44C;&#x43D;&#x438;&#x43A; 20077" width="56" height="56" transform="translate(298.226 212)" fill="gray" opacity="0"></rect><path id="&#x41A;&#x43E;&#x43D;&#x442;&#x443;&#x440;_4884" data-name="&#x41A;&#x43E;&#x43D;&#x442;&#x443;&#x440; 4884" d="M5270.318,364.832a.735.735,0,0,1,0,1.469h-10.7v8.106a.711.711,0,0,1-.108.381.735.735,0,0,1-1.014.236l-13.911-8.85a.9.9,0,0,1-.236-.218.727.727,0,0,1,.236-1l13.892-8.832a.752.752,0,0,1,.416-.127.727.727,0,0,1,.726.725v8.106Z" transform="translate(-4916.817 -126)" fill="#ff8055"></path><path id="&#x41A;&#x43E;&#x43D;&#x442;&#x443;&#x440;_4885" data-name="&#x41A;&#x43E;&#x43D;&#x442;&#x443;&#x440; 4885" d="M3634.725,366.3a.735.735,0,0,1,0-1.469h10.7v-8.106a.727.727,0,0,1,.725-.725.8.8,0,0,1,.417.127l13.892,8.832a.727.727,0,0,1,.236,1,.878.878,0,0,1-.236.218l-13.927,8.85a.725.725,0,0,1-1.106-.617V366.3Z" transform="translate(-3335.773 -126)" fill="#4c4c4c"></path></g></svg>