<svg xmlns="http://www.w3.org/2000/svg" xmlns:xlink="http://www.w3.org/1999/xlink" viewBox="0 0 49.769 54"><defs><clipPath id="clip-path"><path id="&#x41A;&#x43E;&#x43D;&#x442;&#x443;&#x440;_5122" data-name="&#x41A;&#x43E;&#x43D;&#x442;&#x443;&#x440; 5122" d="M0,16.308H49.769v-54H0Z" transform="translate(0 37.692)" fill="#0f2c52"></path></clipPath></defs><g id="icon" clip-path="url(#clip-path)"><g id="&#x421;&#x433;&#x440;&#x443;&#x43F;&#x43F;&#x438;&#x440;&#x43E;&#x432;&#x430;&#x442;&#x44C;_5257" data-name="&#x421;&#x433;&#x440;&#x443;&#x43F;&#x43F;&#x438;&#x440;&#x43E;&#x432;&#x430;&#x442;&#x44C; 5257" transform="translate(9.543 46.216)"><path id="&#x41A;&#x43E;&#x43D;&#x442;&#x443;&#x440;_5116" data-name="&#x41A;&#x43E;&#x43D;&#x442;&#x443;&#x440; 5116" d="M9.06,2.351H-20.254a.685.685,0,0,1-.685-.685,7.106,7.106,0,0,1,7.1-7.1H2.647a7.106,7.106,0,0,1,7.1,7.1.685.685,0,0,1-.685.685M-19.528.98H8.333A5.735,5.735,0,0,0,2.647-4.062H-13.842A5.735,5.735,0,0,0-19.528.98" transform="translate(20.939 5.433)" fill="#4c4c4c"></path></g><g id="&#x421;&#x433;&#x440;&#x443;&#x43F;&#x43F;&#x438;&#x440;&#x43E;&#x432;&#x430;&#x442;&#x44C;_5259" data-name="&#x421;&#x433;&#x440;&#x443;&#x43F;&#x43F;&#x438;&#x440;&#x43E;&#x432;&#x430;&#x442;&#x44C; 5259" transform="translate(35.614 5.344)"><path id="&#x41A;&#x43E;&#x43D;&#x442;&#x443;&#x440;_5118" data-name="&#x41A;&#x43E;&#x43D;&#x442;&#x443;&#x440; 5118" d="M0,4.6V3.229c9.556,0,12.119-8.365,12.777-11.963a.442.442,0,0,0-.1-.368.442.442,0,0,0-.341-.159H3.457v-1.371H12.34a1.808,1.808,0,0,1,1.394.653,1.811,1.811,0,0,1,.391,1.491C13.563-5.417,10.884,4.6,0,4.6" transform="translate(0 10.632)" fill="#4c4c4c"></path></g><g id="&#x421;&#x433;&#x440;&#x443;&#x43F;&#x43F;&#x438;&#x440;&#x43E;&#x432;&#x430;&#x442;&#x44C;_5260" data-name="&#x421;&#x433;&#x440;&#x443;&#x43F;&#x43F;&#x438;&#x440;&#x43E;&#x432;&#x430;&#x442;&#x44C; 5260" transform="translate(38.341 8.161)"><path id="&#x41A;&#x43E;&#x43D;&#x442;&#x443;&#x440;_5119" data-name="&#x41A;&#x43E;&#x43D;&#x442;&#x443;&#x440; 5119" d="M1.127,2.265A.685.685,0,0,1,.69,1.052,11.656,11.656,0,0,0,4.02-3.866H-1.919a.686.686,0,0,1-.686-.685.686.686,0,0,1,.686-.685H4.952a.689.689,0,0,1,.539.259.688.688,0,0,1,.129.583,13.224,13.224,0,0,1-4.057,6.5.686.686,0,0,1-.436.156" transform="translate(2.605 5.236)" fill="#4c4c4c"></path></g><g id="&#x421;&#x433;&#x440;&#x443;&#x43F;&#x43F;&#x438;&#x440;&#x43E;&#x432;&#x430;&#x442;&#x44C;_5261" data-name="&#x421;&#x433;&#x440;&#x443;&#x43F;&#x43F;&#x438;&#x440;&#x43E;&#x432;&#x430;&#x442;&#x44C; 5261" transform="translate(0 5.344)"><path id="&#x41A;&#x43E;&#x43D;&#x442;&#x443;&#x440;_5120" data-name="&#x41A;&#x43E;&#x43D;&#x442;&#x443;&#x440; 5120" d="M4.275,4.6C-6.611,4.6-9.29-5.417-9.85-8.487a1.812,1.812,0,0,1,.391-1.491,1.808,1.808,0,0,1,1.394-.653H.818v1.371H-8.065a.443.443,0,0,0-.342.159.448.448,0,0,0-.095.368c.658,3.6,3.219,11.963,12.777,11.963Z" transform="translate(9.88 10.632)" fill="#4c4c4c"></path></g><g id="&#x421;&#x433;&#x440;&#x443;&#x43F;&#x43F;&#x438;&#x440;&#x43E;&#x432;&#x430;&#x442;&#x44C;_5262" data-name="&#x421;&#x433;&#x440;&#x443;&#x43F;&#x43F;&#x438;&#x440;&#x43E;&#x432;&#x430;&#x442;&#x44C; 5262" transform="translate(3.184 8.161)"><path id="&#x41A;&#x43E;&#x43D;&#x442;&#x443;&#x440;_5121" data-name="&#x41A;&#x43E;&#x43D;&#x442;&#x443;&#x440; 5121" d="M1.362,2.265a.686.686,0,0,1-.436-.156,13.224,13.224,0,0,1-4.057-6.5A.688.688,0,0,1-3-4.977a.689.689,0,0,1,.539-.259H4.408a.686.686,0,0,1,.686.685.686.686,0,0,1-.686.685H-1.529A11.7,11.7,0,0,0,1.8,1.052a.685.685,0,0,1-.437,1.213" transform="translate(3.149 5.236)" fill="#4c4c4c"></path></g><g id="&#x421;&#x433;&#x440;&#x443;&#x43F;&#x43F;&#x438;&#x440;&#x43E;&#x432;&#x430;&#x442;&#x44C;_5258" data-name="&#x421;&#x433;&#x440;&#x443;&#x43F;&#x43F;&#x438;&#x440;&#x43E;&#x432;&#x430;&#x442;&#x44C; 5258" transform="translate(15.338 28.341)"><path id="&#x41A;&#x43E;&#x43D;&#x442;&#x443;&#x440;_5117" data-name="&#x41A;&#x43E;&#x43D;&#x442;&#x443;&#x440; 5117" d="M5.556,5.812h-17.7a.685.685,0,0,1-.682-.623A7.37,7.37,0,0,1-11.689.87,5.328,5.328,0,0,1-10.11-.722l.176-.113c1.314-.838,3.3-2.1,3.3-4.2A5.7,5.7,0,0,0-8.107-9.276a.69.69,0,0,1-.239-.55l.128-2.951a.687.687,0,0,1,.685-.656H.944a.687.687,0,0,1,.685.656l.128,2.951a.686.686,0,0,1-.239.55A5.721,5.721,0,0,0,.047-5.031c0,2.093,1.984,3.358,3.3,4.2l.176.113A5.312,5.312,0,0,1,5.1.87,7.37,7.37,0,0,1,6.238,5.189a.685.685,0,0,1-.682.623" transform="translate(12.841 13.434)" fill="#4c4c4c"></path></g><g id="&#x421;&#x433;&#x440;&#x443;&#x43F;&#x43F;&#x438;&#x440;&#x43E;&#x432;&#x430;&#x442;&#x44C;_5255" data-name="&#x421;&#x433;&#x440;&#x443;&#x43F;&#x43F;&#x438;&#x440;&#x43E;&#x432;&#x430;&#x442;&#x44C; 5255" transform="translate(10.009 0)"><path id="&#x41A;&#x43E;&#x43D;&#x442;&#x443;&#x440;_5114" data-name="&#x41A;&#x43E;&#x43D;&#x442;&#x443;&#x440; 5114" d="M5.8,8.973H-2.887a.685.685,0,0,1-.49-.206C-15.429-3.6-13.277-19.985-13.254-20.15a.686.686,0,0,1,.679-.589H15.493a.686.686,0,0,1,.679.589C16.195-19.985,18.346-3.6,6.3,8.767a.688.688,0,0,1-.491.206" transform="translate(13.417 20.739)" fill="#ff8055"></path></g><g id="&#x421;&#x433;&#x440;&#x443;&#x43F;&#x43F;&#x438;&#x440;&#x43E;&#x432;&#x430;&#x442;&#x44C;_5256" data-name="&#x421;&#x433;&#x440;&#x443;&#x43F;&#x43F;&#x438;&#x440;&#x43E;&#x432;&#x430;&#x442;&#x44C; 5256" transform="translate(29.105 3.654)"><path id="&#x41A;&#x43E;&#x43D;&#x442;&#x443;&#x440;_5115" data-name="&#x41A;&#x43E;&#x43D;&#x442;&#x443;&#x440; 5115" d="M1.186,4.093a.687.687,0,0,1-.638-.938A34.187,34.187,0,0,0,2.872-8.089H-2.055a.685.685,0,0,1-.685-.686.685.685,0,0,1,.685-.685H3.577a.689.689,0,0,1,.489.2.69.69,0,0,1,.2.491A35.7,35.7,0,0,1,1.823,3.66a.686.686,0,0,1-.638.433" transform="translate(2.74 9.46)" fill="#fff"></path></g></g></svg>