<svg xmlns="http://www.w3.org/2000/svg" viewBox="0 0 56.227 56"><g id="&#x421;&#x433;&#x440;&#x443;&#x43F;&#x43F;&#x438;&#x440;&#x43E;&#x432;&#x430;&#x442;&#x44C;_5347" data-name="&#x421;&#x433;&#x440;&#x443;&#x43F;&#x43F;&#x438;&#x440;&#x43E;&#x432;&#x430;&#x442;&#x44C; 5347" transform="translate(-1046 -212)"><rect id="&#x41F;&#x440;&#x44F;&#x43C;&#x43E;&#x443;&#x433;&#x43E;&#x43B;&#x44C;&#x43D;&#x438;&#x43A;_20111" data-name="&#x41F;&#x440;&#x44F;&#x43C;&#x43E;&#x443;&#x433;&#x43E;&#x43B;&#x44C;&#x43D;&#x438;&#x43A; 20111" width="56" height="56" transform="translate(1046.227 212)" fill="gray" opacity="0"></rect><g id="&#x41A;&#x43E;&#x43D;&#x442;&#x443;&#x440;_5088" data-name="&#x41A;&#x43E;&#x43D;&#x442;&#x443;&#x440; 5088" transform="translate(1046 212)" fill="#fff"><path d="M 28 54.5 C 24.42185974121094 54.5 20.9515495300293 53.7995491027832 17.68547058105469 52.41810989379883 C 14.53003978729248 51.08348083496094 11.6958703994751 49.17253112792969 9.261670112609863 46.73833084106445 C 6.827469825744629 44.30413055419922 4.916520118713379 41.4699592590332 3.581890106201172 38.31452941894531 C 2.20044994354248 35.0484504699707 1.5 31.57814025878906 1.5 28 C 1.5 24.42185974121094 2.20044994354248 20.9515495300293 3.581890106201172 17.68547058105469 C 4.916520118713379 14.53003978729248 6.827469825744629 11.6958703994751 9.261670112609863 9.261670112609863 C 11.6958703994751 6.827469825744629 14.53003978729248 4.916520118713379 17.68547058105469 3.581890106201172 C 20.9515495300293 2.20044994354248 24.42185974121094 1.5 28 1.5 C 31.57814025878906 1.5 35.0484504699707 2.20044994354248 38.31452941894531 3.581890106201172 C 41.4699592590332 4.916520118713379 44.30413055419922 6.827469825744629 46.73833084106445 9.261670112609863 C 49.17253112792969 11.6958703994751 51.08348083496094 14.53003978729248 52.41810989379883 17.68547058105469 C 53.7995491027832 20.9515495300293 54.5 24.42185974121094 54.5 28 C 54.5 31.57814025878906 53.7995491027832 35.0484504699707 52.41810989379883 38.31452941894531 C 51.08348083496094 41.4699592590332 49.17253112792969 44.30413055419922 46.73833084106445 46.73833084106445 C 44.30413055419922 49.17253112792969 41.4699592590332 51.08348083496094 38.31452941894531 52.41810989379883 C 35.0484504699707 53.7995491027832 31.57814025878906 54.5 28 54.5 Z" stroke="none"></path><path d="M 28 3 C 24.62369918823242 3 21.34999084472656 3.660579681396484 18.26979064941406 4.963390350341797 C 15.29317092895508 6.222400665283203 12.61925888061523 8.025409698486328 10.32233047485352 10.32233047485352 C 8.025409698486328 12.61925888061523 6.222400665283203 15.29317092895508 4.963390350341797 18.26979064941406 C 3.660579681396484 21.34999084472656 3 24.62369918823242 3 28 C 3 31.37630081176758 3.660579681396484 34.65000915527344 4.963390350341797 37.73020935058594 C 6.222400665283203 40.70682907104492 8.025409698486328 43.38074111938477 10.32233047485352 45.67766952514648 C 12.61925888061523 47.97459030151367 15.29317092895508 49.7775993347168 18.26979064941406 51.0366096496582 C 21.34999084472656 52.33942031860352 24.62369918823242 53 28 53 C 31.37630081176758 53 34.65000915527344 52.33942031860352 37.73020935058594 51.0366096496582 C 40.70682907104492 49.7775993347168 43.38074111938477 47.97459030151367 45.67766952514648 45.67766952514648 C 47.97459030151367 43.38074111938477 49.7775993347168 40.70682907104492 51.0366096496582 37.73020935058594 C 52.33942031860352 34.65000915527344 53 31.37630081176758 53 28 C 53 24.62369918823242 52.33942031860352 21.34999084472656 51.0366096496582 18.26979064941406 C 49.7775993347168 15.29317092895508 47.97459030151367 12.61925888061523 45.67766952514648 10.32233047485352 C 43.38074111938477 8.025409698486328 40.70682907104492 6.222400665283203 37.73020935058594 4.963390350341797 C 34.65000915527344 3.660579681396484 31.37630081176758 3 28 3 M 28 0 C 43.46397018432617 0 56 12.53602981567383 56 28 C 56 43.46397018432617 43.46397018432617 56 28 56 C 12.53602981567383 56 0 43.46397018432617 0 28 C 0 12.53602981567383 12.53602981567383 0 28 0 Z" stroke="none" fill="#ff8055"></path></g><path id="&#x41A;&#x43E;&#x43D;&#x442;&#x443;&#x440;_5089" data-name="&#x41A;&#x43E;&#x43D;&#x442;&#x443;&#x440; 5089" d="M27856.49,908.946a1.468,1.468,0,0,0-.416-.96c-.377-.459-.711-.835-.252-1.545a1.7,1.7,0,0,0,.209-.585.918.918,0,0,0-.334-.877,4.187,4.187,0,0,0-2.588-.584,26.464,26.464,0,0,0-2.883.334l-.5.125c-.795.167-1.42.334-2.045-.25a2.233,2.233,0,0,1-.625-2.046,13.877,13.877,0,0,1,.75-3.382,7.709,7.709,0,0,0,.459-2.3,2.516,2.516,0,0,0-.293-1.336,1.625,1.625,0,0,0-.666-.459l-.209-.042v.125a6.883,6.883,0,0,0,.041.918v.292c0,.083-.041.209-.041.292a42.583,42.583,0,0,1-2.633,5.761,11.859,11.859,0,0,1-2.5,3.3,2.364,2.364,0,0,0-.793,2.087c.041,3.048.041,6.22,0,9.268.711.084,1.922.25,3.379.334a38.268,38.268,0,0,0,3.846.083h.125a15.222,15.222,0,0,0,3.629-.083,3.171,3.171,0,0,0,2.424-1.211,1.379,1.379,0,0,0,.125-1.044,1.175,1.175,0,0,1,.418-1.378,1.948,1.948,0,0,0,.793-1.085,1.66,1.66,0,0,0-.125-1.169,1.006,1.006,0,0,1-.168-.752,1.044,1.044,0,0,1,.334-.668,4.968,4.968,0,0,0,.459-.668A1.054,1.054,0,0,0,27856.49,908.946Zm.375-1.586a2.5,2.5,0,0,1,.666,1.545,2.256,2.256,0,0,1-.246,1,2.824,2.824,0,0,1-.629.877c0,.042-.041.083-.041.125a.155.155,0,0,0,.041.125,2.734,2.734,0,0,1,.252,1.962,3.113,3.113,0,0,1-1.211,1.586c-.084.083-.041.209,0,.376a2.324,2.324,0,0,1-.252,1.753,4.214,4.214,0,0,1-3.172,1.712,17.028,17.028,0,0,1-3.84.084h0c-1.42.042-2.756,0-3.928-.084-1.959-.125-3.422-.334-3.965-.417l-.541-.083.123-.71c.168-2.964.043-6.346.043-9.393a3.2,3.2,0,0,1,1.043-2.8l.086-.042a10.342,10.342,0,0,0,2.293-3.048,45.389,45.389,0,0,0,2.549-5.594v-.125a4.7,4.7,0,0,1-.041-1.086,1.349,1.349,0,0,1,.25-.918l.123-.209h.293a2.815,2.815,0,0,1,.877.125,2.543,2.543,0,0,1,1.127.835,2.931,2.931,0,0,1,.5,1.962,8.468,8.468,0,0,1-.5,2.588,14.34,14.34,0,0,0-.709,3.131c-.041.626.041,1,.295,1.211s.666.125,1.123,0l.588-.125a28.112,28.112,0,0,1,3-.334,5.179,5.179,0,0,1,3.34.835,1.867,1.867,0,0,1,.627,1.753,2.667,2.667,0,0,1-.336.96C27856.615,907.067,27856.742,907.192,27856.865,907.359Z" transform="translate(-26771.52 -663.257)" fill="#4c4c4c"></path><path id="&#x41A;&#x43E;&#x43D;&#x442;&#x443;&#x440;_5090" data-name="&#x41A;&#x43E;&#x43D;&#x442;&#x443;&#x440; 5090" d="M27695.881,1157h3.461a1.853,1.853,0,0,1,1.336.543,1.931,1.931,0,0,1,.543,1.336v10.186a1.932,1.932,0,0,1-.543,1.336,1.854,1.854,0,0,1-1.336.543h-3.461a1.83,1.83,0,0,1-1.3-.543,1.963,1.963,0,0,1-.586-1.336v-10.186a1.963,1.963,0,0,1,.586-1.336A1.829,1.829,0,0,1,27695.881,1157Z" transform="translate(-26631.617 -915.277)" fill="#4c4c4c"></path><path id="&#x41A;&#x43E;&#x43D;&#x442;&#x443;&#x440;_5091" data-name="&#x41A;&#x43E;&#x43D;&#x442;&#x443;&#x440; 5091" d="M27894.146,578.011l.67,2.129h2.252a.33.33,0,0,1,.336.334.377.377,0,0,1-.125.292l-1.834,1.294.709,2.129a.4.4,0,0,1-.211.459.434.434,0,0,1-.379-.084l-1.75-1.294-1.836,1.336a.336.336,0,0,1-.461-.084.448.448,0,0,1-.084-.334l.713-2.129-1.84-1.294a.376.376,0,0,1-.039-.5.293.293,0,0,1,.246-.125h2.256l.711-2.129a.334.334,0,0,1,.418-.25A.365.365,0,0,1,27894.146,578.011Z" transform="translate(-26819.615 -358.21)" fill="#4c4c4c"></path><path id="&#x41A;&#x43E;&#x43D;&#x442;&#x443;&#x440;_5092" data-name="&#x41A;&#x43E;&#x43D;&#x442;&#x443;&#x440; 5092" d="M27623.207,690.6l.711,2.129h2.215a.373.373,0,0,1,.373.376.259.259,0,0,1-.166.25l-1.795,1.336.709,2.129a.338.338,0,0,1-.25.417.315.315,0,0,1-.334-.042l-1.795-1.294-1.8,1.294a.346.346,0,0,1-.5-.083.257.257,0,0,1-.039-.292l.508-1.536.2-.594-1.836-1.336a.3.3,0,0,1-.082-.459.313.313,0,0,1,.293-.167h2.256l.666-2.129a.356.356,0,0,1,.461-.209C27623.082,690.39,27623.166,690.515,27623.207,690.6Z" transform="translate(-26559.992 -466.122)" fill="#4c4c4c"></path><path id="&#x41A;&#x43E;&#x43D;&#x442;&#x443;&#x440;_5093" data-name="&#x41A;&#x43E;&#x43D;&#x442;&#x443;&#x440; 5093" d="M28164.209,690.6l.707,2.129h2.215a.373.373,0,0,1,.375.376.341.341,0,0,1-.166.25l-1.795,1.336.668,2.129a.35.35,0,0,1-.541.376l-1.8-1.294-1.793,1.294a.347.347,0,0,1-.5-.083.246.246,0,0,1-.043-.292l.668-2.129-1.795-1.336a.3.3,0,0,1-.082-.459.311.311,0,0,1,.289-.167h2.215l.707-2.129a.344.344,0,0,1,.463-.209C28164.086,690.39,28164.168,690.515,28164.209,690.6Z" transform="translate(-27078.406 -466.122)" fill="#4c4c4c"></path></g></svg>