<svg xmlns="http://www.w3.org/2000/svg" viewBox="0 0 69.938 57"><g id="&#x421;&#x433;&#x440;&#x443;&#x43F;&#x43F;&#x438;&#x440;&#x43E;&#x432;&#x430;&#x442;&#x44C;_5281" data-name="&#x421;&#x433;&#x440;&#x443;&#x43F;&#x43F;&#x438;&#x440;&#x43E;&#x432;&#x430;&#x442;&#x44C; 5281" transform="translate(-938 -865)"><rect id="icon_mask" width="56" height="56" transform="translate(938.227 866)" fill="none"></rect><circle id="&#x42D;&#x43B;&#x43B;&#x438;&#x43F;&#x441;_155" data-name="&#x42D;&#x43B;&#x43B;&#x438;&#x43F;&#x441; 155" cx="2" cy="2" r="2" transform="translate(964 865)" fill="#4c4c4c"></circle><circle id="&#x42D;&#x43B;&#x43B;&#x438;&#x43F;&#x441;_151" data-name="&#x42D;&#x43B;&#x43B;&#x438;&#x43F;&#x441; 151" cx="2" cy="2" r="2" transform="translate(990 892)" fill="#4c4c4c"></circle><circle id="&#x42D;&#x43B;&#x43B;&#x438;&#x43F;&#x441;_163" data-name="&#x42D;&#x43B;&#x43B;&#x438;&#x43F;&#x441; 163" cx="2" cy="2" r="2" transform="translate(938 892)" fill="#4c4c4c"></circle><circle id="&#x42D;&#x43B;&#x43B;&#x438;&#x43F;&#x441;_164" data-name="&#x42D;&#x43B;&#x43B;&#x438;&#x43F;&#x441; 164" cx="2" cy="2" r="2" transform="translate(964 917)" fill="#4c4c4c"></circle><circle id="&#x42D;&#x43B;&#x43B;&#x438;&#x43F;&#x441;_157" data-name="&#x42D;&#x43B;&#x43B;&#x438;&#x43F;&#x441; 157" cx="2" cy="2" r="2" transform="translate(982 910)" fill="#4c4c4c"></circle><circle id="&#x42D;&#x43B;&#x43B;&#x438;&#x43F;&#x441;_159" data-name="&#x42D;&#x43B;&#x43B;&#x438;&#x43F;&#x441; 159" cx="2" cy="2" r="2" transform="translate(946 910)" fill="#4c4c4c"></circle><circle id="&#x42D;&#x43B;&#x43B;&#x438;&#x43F;&#x441;_152" data-name="&#x42D;&#x43B;&#x43B;&#x438;&#x43F;&#x441; 152" cx="2" cy="2" r="2" transform="translate(983 873)" fill="#4c4c4c"></circle><circle id="&#x42D;&#x43B;&#x43B;&#x438;&#x43F;&#x441;_160" data-name="&#x42D;&#x43B;&#x43B;&#x438;&#x43F;&#x441; 160" cx="2" cy="2" r="2" transform="translate(945 873)" fill="#4c4c4c"></circle><circle id="&#x42D;&#x43B;&#x43B;&#x438;&#x43F;&#x441;_156" data-name="&#x42D;&#x43B;&#x43B;&#x438;&#x43F;&#x441; 156" cx="2" cy="2" r="2" transform="translate(988 902)" fill="#4c4c4c"></circle><circle id="&#x42D;&#x43B;&#x43B;&#x438;&#x43F;&#x441;_165" data-name="&#x42D;&#x43B;&#x43B;&#x438;&#x43F;&#x441; 165" cx="2" cy="2" r="2" transform="translate(940 902)" fill="#4c4c4c"></circle><circle id="&#x42D;&#x43B;&#x43B;&#x438;&#x43F;&#x441;_153" data-name="&#x42D;&#x43B;&#x43B;&#x438;&#x43F;&#x441; 153" cx="2" cy="2" r="2" transform="translate(988 882)" fill="#4c4c4c"></circle><circle id="&#x42D;&#x43B;&#x43B;&#x438;&#x43F;&#x441;_166" data-name="&#x42D;&#x43B;&#x43B;&#x438;&#x43F;&#x441; 166" cx="2" cy="2" r="2" transform="translate(940 882)" fill="#4c4c4c"></circle><circle id="&#x42D;&#x43B;&#x43B;&#x438;&#x43F;&#x441;_161" data-name="&#x42D;&#x43B;&#x43B;&#x438;&#x43F;&#x441; 161" cx="2" cy="2" r="2" transform="translate(974 915)" fill="#4c4c4c"></circle><circle id="&#x42D;&#x43B;&#x43B;&#x438;&#x43F;&#x441;_162" data-name="&#x42D;&#x43B;&#x43B;&#x438;&#x43F;&#x441; 162" cx="2" cy="2" r="2" transform="translate(954 915)" fill="#4c4c4c"></circle><circle id="&#x42D;&#x43B;&#x43B;&#x438;&#x43F;&#x441;_154" data-name="&#x42D;&#x43B;&#x43B;&#x438;&#x43F;&#x441; 154" cx="2" cy="2" r="2" transform="translate(975 867)" fill="#4c4c4c"></circle><circle id="&#x42D;&#x43B;&#x43B;&#x438;&#x43F;&#x441;_158" data-name="&#x42D;&#x43B;&#x43B;&#x438;&#x43F;&#x441; 158" cx="2" cy="2" r="2" transform="translate(953 867)" fill="#4c4c4c"></circle><path id="&#x41A;&#x43E;&#x43D;&#x442;&#x443;&#x440;_5160" data-name="&#x41A;&#x43E;&#x43D;&#x442;&#x443;&#x440; 5160" d="M48524.191,7369.137a4.122,4.122,0,0,1,0-5.8l.082-.041a4.144,4.144,0,0,1,2.8-1.151,4.044,4.044,0,0,1,2.879,1.192l12.168,12.171,29.32-29.318a4.119,4.119,0,0,1,2.879-1.192,4.044,4.044,0,0,1,2.879,1.192l.039.082a3.957,3.957,0,0,1,1.152,2.8,3.89,3.89,0,0,1-1.191,2.879l-32.2,32.2a3.89,3.89,0,0,1-2.883,1.192,4.01,4.01,0,0,1-2.875-1.192Zm.328-2.919a2.567,2.567,0,0,0,.742,1.85l15.051,15.05a2.543,2.543,0,0,0,1.8.74,2.73,2.73,0,0,0,1.855-.74l32.2-32.2a2.649,2.649,0,0,0,.738-1.85,2.683,2.683,0,0,0-.7-1.768l-.043-.041a2.719,2.719,0,0,0-1.852-.74,2.543,2.543,0,0,0-1.809.74l-29.852,29.853a.772.772,0,0,1-1.07,0l-12.664-12.706a2.633,2.633,0,0,0-3.617-.042l-.043.042A2.542,2.542,0,0,0,48524.52,7366.218Z" transform="translate(-47570.449 -6478.868)" fill="#fff"></path><path id="&#x41A;&#x43E;&#x43D;&#x442;&#x443;&#x440;_5161" data-name="&#x41A;&#x43E;&#x43D;&#x442;&#x443;&#x440; 5161" d="M48524.52,7366.218a2.567,2.567,0,0,0,.742,1.85l15.051,15.05a2.543,2.543,0,0,0,1.8.74,2.73,2.73,0,0,0,1.855-.74l32.2-32.2a2.649,2.649,0,0,0,.738-1.85,2.683,2.683,0,0,0-.7-1.768l-.043-.041a2.719,2.719,0,0,0-1.852-.74,2.543,2.543,0,0,0-1.809.74l-29.852,29.853a.772.772,0,0,1-1.07,0l-12.664-12.706a2.633,2.633,0,0,0-3.617-.042l-.043.042A2.542,2.542,0,0,0,48524.52,7366.218Z" transform="translate(-47570.449 -6478.868)" fill="#ff8055"></path></g></svg>