<svg xmlns="http://www.w3.org/2000/svg" id="&#x421;&#x433;&#x440;&#x443;&#x43F;&#x43F;&#x438;&#x440;&#x43E;&#x432;&#x430;&#x442;&#x44C;_5351" data-name="&#x421;&#x433;&#x440;&#x443;&#x43F;&#x43F;&#x438;&#x440;&#x43E;&#x432;&#x430;&#x442;&#x44C; 5351" viewBox="0 0 55.657 55.657"><g id="&#x421;&#x433;&#x440;&#x443;&#x43F;&#x43F;&#x438;&#x440;&#x43E;&#x432;&#x430;&#x442;&#x44C;_5336" data-name="&#x421;&#x433;&#x440;&#x443;&#x43F;&#x43F;&#x438;&#x440;&#x43E;&#x432;&#x430;&#x442;&#x44C; 5336"><g id="zoom-in" transform="translate(0)"><g id="&#x421;&#x433;&#x440;&#x443;&#x43F;&#x43F;&#x438;&#x440;&#x43E;&#x432;&#x430;&#x442;&#x44C;_5334" data-name="&#x421;&#x433;&#x440;&#x443;&#x43F;&#x43F;&#x438;&#x440;&#x43E;&#x432;&#x430;&#x442;&#x44C; 5334" transform="translate(0)"><g id="&#x421;&#x433;&#x440;&#x443;&#x43F;&#x43F;&#x438;&#x440;&#x43E;&#x432;&#x430;&#x442;&#x44C;_5333" data-name="&#x421;&#x433;&#x440;&#x443;&#x43F;&#x43F;&#x438;&#x440;&#x43E;&#x432;&#x430;&#x442;&#x44C; 5333" transform="translate(0 0)"><path id="&#x41A;&#x43E;&#x43D;&#x442;&#x443;&#x440;_5237" data-name="&#x41A;&#x43E;&#x43D;&#x442;&#x443;&#x440; 5237" d="M.637,51.944l15.7-15.7a22.181,22.181,0,1,1,3.075,3.075l-15.7,15.7A2.175,2.175,0,0,1,.637,51.944ZM20.877,34.78a17.832,17.832,0,1,0,0-25.218A17.852,17.852,0,0,0,20.877,34.78Z" transform="translate(0 0)" fill="#4c4c4c"></path></g></g></g></g><g id="&#x421;&#x433;&#x440;&#x443;&#x43F;&#x43F;&#x438;&#x440;&#x43E;&#x432;&#x430;&#x442;&#x44C;_5337" data-name="&#x421;&#x433;&#x440;&#x443;&#x43F;&#x43F;&#x438;&#x440;&#x43E;&#x432;&#x430;&#x442;&#x44C; 5337" transform="translate(23.35 12)"><path id="&#x41A;&#x43E;&#x43D;&#x442;&#x443;&#x440;_5062" data-name="&#x41A;&#x43E;&#x43D;&#x442;&#x443;&#x440; 5062" d="M10363.762,3174a1.037,1.037,0,0,0,0,2h18.782a1.037,1.037,0,0,0,0-2Z" transform="translate(-10362.999 -3165)" fill="#ff8055"></path><path id="&#x41A;&#x43E;&#x43D;&#x442;&#x443;&#x440;_5063" data-name="&#x41A;&#x43E;&#x43D;&#x442;&#x443;&#x440; 5063" d="M11153,2404.544a1.037,1.037,0,0,0,2,0v-18.795c0-.416-.454-.749-1-.749s-1,.333-1,.749Z" transform="translate(-11143.694 -2385)" fill="#ff8055"></path></g></svg>