<svg xmlns="http://www.w3.org/2000/svg" viewBox="0 0 56 56"><g id="&#x421;&#x433;&#x440;&#x443;&#x43F;&#x43F;&#x438;&#x440;&#x43E;&#x432;&#x430;&#x442;&#x44C;_5349" data-name="&#x421;&#x433;&#x440;&#x443;&#x43F;&#x43F;&#x438;&#x440;&#x43E;&#x432;&#x430;&#x442;&#x44C; 5349" transform="translate(-677.227 -212)"><rect id="&#x41F;&#x440;&#x44F;&#x43C;&#x43E;&#x443;&#x433;&#x43E;&#x43B;&#x44C;&#x43D;&#x438;&#x43A;_20107" data-name="&#x41F;&#x440;&#x44F;&#x43C;&#x43E;&#x443;&#x433;&#x43E;&#x43B;&#x44C;&#x43D;&#x438;&#x43A; 20107" width="56" height="56" transform="translate(677.227 212)" fill="gray" opacity="0"></rect><path id="&#x41A;&#x43E;&#x43D;&#x442;&#x443;&#x440;_5069" data-name="&#x41A;&#x43E;&#x43D;&#x442;&#x443;&#x440; 5069" d="M22372.162,34.065l14.2-33.437a.733.733,0,0,1,1.4.417l-5.367,25.948,11.188-2.883a.65.65,0,0,1,.451.036.718.718,0,0,1,.416.943L22382.295,55.7a.7.7,0,0,1-.762.471.71.71,0,0,1-.635-.8l2.867-22.7-10.752,2.375a.661.661,0,0,1-.455-.036A.718.718,0,0,1,22372.162,34.065Z" transform="translate(-21684.883 211.823)" fill="#4c4c4c"></path><path id="&#x41A;&#x43E;&#x43D;&#x442;&#x443;&#x440;_5070" data-name="&#x41A;&#x43E;&#x43D;&#x442;&#x443;&#x440; 5070" d="M23281.881,44.76l8.031-20.545a.478.478,0,0,1,.492-.308.47.47,0,0,1,.432.508l-.867,12.566,9.754-2.956a.42.42,0,0,1,.361,0,.492.492,0,0,1,.258.653l-12.148,26.71a.493.493,0,0,1-.582.272.514.514,0,0,1-.328-.617l5.551-18.224-10.393,2.593a.51.51,0,0,1-.285-.018A.477.477,0,0,1,23281.881,44.76Z" transform="translate(-22578.119 188.525)" fill="#ff8055"></path></g></svg>