<svg xmlns="http://www.w3.org/2000/svg" viewBox="0 0 56.227 57"><g id="&#x421;&#x433;&#x440;&#x443;&#x43F;&#x43F;&#x438;&#x440;&#x43E;&#x432;&#x430;&#x442;&#x44C;_5352" data-name="&#x421;&#x433;&#x440;&#x443;&#x43F;&#x43F;&#x438;&#x440;&#x43E;&#x432;&#x430;&#x442;&#x44C; 5352" transform="translate(-842 -212)"><rect id="icon_mask" width="56" height="56" transform="translate(842.227 213)" fill="none"></rect><g id="&#x421;&#x433;&#x440;&#x443;&#x43F;&#x43F;&#x438;&#x440;&#x43E;&#x432;&#x430;&#x442;&#x44C;_5246" data-name="&#x421;&#x433;&#x440;&#x443;&#x43F;&#x43F;&#x438;&#x440;&#x43E;&#x432;&#x430;&#x442;&#x44C; 5246" transform="translate(-105.214 4.786)"><path id="&#x41A;&#x43E;&#x43D;&#x442;&#x443;&#x440;_5102" data-name="&#x41A;&#x43E;&#x43D;&#x442;&#x443;&#x440; 5102" d="M267.414,262.746a4.668,4.668,0,1,0,4.668,4.668A4.668,4.668,0,0,0,267.414,262.746Zm0,7a2.334,2.334,0,1,1,2.334-2.334A2.334,2.334,0,0,1,267.414,269.747Z" transform="translate(714.474 -24.526)" fill="#ff8055"></path><path id="&#x41A;&#x43E;&#x43D;&#x442;&#x443;&#x440;_5103" data-name="&#x41A;&#x43E;&#x43D;&#x442;&#x443;&#x440; 5103" d="M118.922,114.254a4.668,4.668,0,1,0,4.668,4.668A4.668,4.668,0,0,0,118.922,114.254Zm0,7a2.334,2.334,0,1,1,2.334-2.334A2.334,2.334,0,0,1,118.922,121.255Z" transform="translate(849.62 110.62)" fill="#ff8055"></path><path id="&#x41A;&#x43E;&#x43D;&#x442;&#x443;&#x440;_5104" data-name="&#x41A;&#x43E;&#x43D;&#x442;&#x443;&#x440; 5104" d="M135.2,152.2a1.167,1.167,0,0,1,0-1.65L150.548,135.2a1.167,1.167,0,0,1,1.65,1.65L136.851,152.2A1.167,1.167,0,0,1,135.2,152.2Z" transform="translate(831.515 92.515)" fill="#ff8055"></path></g><circle id="&#x42D;&#x43B;&#x43B;&#x438;&#x43F;&#x441;_135" data-name="&#x42D;&#x43B;&#x43B;&#x438;&#x43F;&#x441; 135" cx="2" cy="2" r="2" transform="translate(868 212)" fill="#4c4c4c"></circle><circle id="&#x42D;&#x43B;&#x43B;&#x438;&#x43F;&#x441;_136" data-name="&#x42D;&#x43B;&#x43B;&#x438;&#x43F;&#x441; 136" cx="2" cy="2" r="2" transform="translate(894 239)" fill="#4c4c4c"></circle><circle id="&#x42D;&#x43B;&#x43B;&#x438;&#x43F;&#x441;_137" data-name="&#x42D;&#x43B;&#x43B;&#x438;&#x43F;&#x441; 137" cx="2" cy="2" r="2" transform="translate(842 239)" fill="#4c4c4c"></circle><circle id="&#x42D;&#x43B;&#x43B;&#x438;&#x43F;&#x441;_138" data-name="&#x42D;&#x43B;&#x43B;&#x438;&#x43F;&#x441; 138" cx="2" cy="2" r="2" transform="translate(868 264)" fill="#4c4c4c"></circle><circle id="&#x42D;&#x43B;&#x43B;&#x438;&#x43F;&#x441;_139" data-name="&#x42D;&#x43B;&#x43B;&#x438;&#x43F;&#x441; 139" cx="2" cy="2" r="2" transform="translate(886 257)" fill="#4c4c4c"></circle><circle id="&#x42D;&#x43B;&#x43B;&#x438;&#x43F;&#x441;_149" data-name="&#x42D;&#x43B;&#x43B;&#x438;&#x43F;&#x441; 149" cx="2" cy="2" r="2" transform="translate(850 257)" fill="#4c4c4c"></circle><circle id="&#x42D;&#x43B;&#x43B;&#x438;&#x43F;&#x441;_143" data-name="&#x42D;&#x43B;&#x43B;&#x438;&#x43F;&#x441; 143" cx="2" cy="2" r="2" transform="translate(887 220)" fill="#4c4c4c"></circle><circle id="&#x42D;&#x43B;&#x43B;&#x438;&#x43F;&#x441;_146" data-name="&#x42D;&#x43B;&#x43B;&#x438;&#x43F;&#x441; 146" cx="2" cy="2" r="2" transform="translate(849 220)" fill="#4c4c4c"></circle><circle id="&#x42D;&#x43B;&#x43B;&#x438;&#x43F;&#x441;_140" data-name="&#x42D;&#x43B;&#x43B;&#x438;&#x43F;&#x441; 140" cx="2" cy="2" r="2" transform="translate(892 249)" fill="#4c4c4c"></circle><circle id="&#x42D;&#x43B;&#x43B;&#x438;&#x43F;&#x441;_148" data-name="&#x42D;&#x43B;&#x43B;&#x438;&#x43F;&#x441; 148" cx="2" cy="2" r="2" transform="translate(844 249)" fill="#4c4c4c"></circle><circle id="&#x42D;&#x43B;&#x43B;&#x438;&#x43F;&#x441;_142" data-name="&#x42D;&#x43B;&#x43B;&#x438;&#x43F;&#x441; 142" cx="2" cy="2" r="2" transform="translate(892 229)" fill="#4c4c4c"></circle><circle id="&#x42D;&#x43B;&#x43B;&#x438;&#x43F;&#x441;_147" data-name="&#x42D;&#x43B;&#x43B;&#x438;&#x43F;&#x441; 147" cx="2" cy="2" r="2" transform="translate(844 229)" fill="#4c4c4c"></circle><circle id="&#x42D;&#x43B;&#x43B;&#x438;&#x43F;&#x441;_141" data-name="&#x42D;&#x43B;&#x43B;&#x438;&#x43F;&#x441; 141" cx="2" cy="2" r="2" transform="translate(878 262)" fill="#4c4c4c"></circle><circle id="&#x42D;&#x43B;&#x43B;&#x438;&#x43F;&#x441;_150" data-name="&#x42D;&#x43B;&#x43B;&#x438;&#x43F;&#x441; 150" cx="2" cy="2" r="2" transform="translate(858 262)" fill="#4c4c4c"></circle><circle id="&#x42D;&#x43B;&#x43B;&#x438;&#x43F;&#x441;_144" data-name="&#x42D;&#x43B;&#x43B;&#x438;&#x43F;&#x441; 144" cx="2" cy="2" r="2" transform="translate(879 214)" fill="#4c4c4c"></circle><circle id="&#x42D;&#x43B;&#x43B;&#x438;&#x43F;&#x441;_145" data-name="&#x42D;&#x43B;&#x43B;&#x438;&#x43F;&#x441; 145" cx="2" cy="2" r="2" transform="translate(857 214)" fill="#4c4c4c"></circle></g></svg>