<svg xmlns="http://www.w3.org/2000/svg" id="Layer_1" data-name="Layer 1" viewBox="0 0 200 62"><defs><style>.cls-1{fill:#0f2c52;}.cls-2{fill:#f2672a;}</style></defs><path class="cls-1" d="M77.64,62A2.68,2.68,0,0,1,75,59.42V9.15a3.51,3.51,0,0,0-3.37-3.71h-13a2.77,2.77,0,0,1-2.46-2.71A2.68,2.68,0,0,1,58.65.1H96.28a2.53,2.53,0,0,1,2.54,2.63,2.58,2.58,0,0,1-2.54,2.71H80.1v54A2.68,2.68,0,0,1,77.64,62"></path><path class="cls-1" d="M111.88,62a2.55,2.55,0,0,1-2.55-2.54V2.73A2.61,2.61,0,0,1,111.88.18h32.28a2.61,2.61,0,0,1,2.55,2.55,2.7,2.7,0,0,1-2.55,2.71H118.4a3.79,3.79,0,0,0-3.89,4.17V24.85H141a2.67,2.67,0,0,1,0,5.34H114.51V59.42A2.62,2.62,0,0,1,111.88,62"></path><path class="cls-1" d="M199.62,57.77,184.79,34.92a7.7,7.7,0,0,1-.95-4,8.87,8.87,0,0,1,1.35-4.7L199.65,4A2.69,2.69,0,0,0,199,.53a2.59,2.59,0,0,0-3.86.85L179.1,26.14,163,1.38a2.62,2.62,0,0,0-3.76-.92A2.69,2.69,0,0,0,158.56,4L176,30.89,158.58,57.77a2.79,2.79,0,0,0,.64,3.69,2.72,2.72,0,0,0,3.64-.84l16.24-25,16.23,25a2.77,2.77,0,0,0,3.65.84,2.82,2.82,0,0,0,.64-3.69"></path><path class="cls-1" d="M50.8,62a2.59,2.59,0,0,1-2.29-1.55l-19-45a2.92,2.92,0,0,0-2.41-1.57A3.35,3.35,0,0,0,24.31,16L5.68,60.48a2.61,2.61,0,0,1-3.39,1.27A2.52,2.52,0,0,1,.87,58.51L24.78,1.78A2.46,2.46,0,0,1,27.15.16a2.72,2.72,0,0,1,2.42,1.77L53.24,58.48a2.37,2.37,0,0,1,0,2A2.54,2.54,0,0,1,52,61.73,2.91,2.91,0,0,1,50.8,62"></path><path class="cls-2" d="M2.82,42.45a2.85,2.85,0,0,1,0-5.7h35.7l2.4,5.7Z"></path></svg>