<svg xmlns="http://www.w3.org/2000/svg" viewBox="0 0 169.987 188.836"><g id="Group_4729" data-name="Group 4729" transform="translate(-175 -100)"><path id="Path_3212" data-name="Path 3212" d="M421.507,268.5l-.351,2.673a73.393,73.393,0,0,0-121.29,71.849,2.089,2.089,0,1,0,.994-.218,72.331,72.331,0,0,1,119.452-71l-2.531.336.137,1.035,4.1-.544.526-4Z" transform="translate(-109.742 -135.462)" fill="#e0e1e1"></path><path id="Path_3213" data-name="Path 3213" d="M396.366,243A78.866,78.866,0,1,0,281.4,340.279v6.008l1.044-1.044v-4.916h4.916l1.044-1.044h-6.489a77.778,77.778,0,1,1,119.569-65.663h1.081A78.373,78.373,0,0,0,396.366,243Z" transform="translate(-62.535 -84.924)" fill="#e0e1e1"></path><g id="Group_4336" data-name="Group 4336" transform="translate(320.969 208.059)"><path id="Path_3214" data-name="Path 3214" d="M1572.757,1134.68l-.09,3.471,4.909,1,2.367-2.449Z" transform="translate(-1572.667 -1134.68)" fill="#b4d5df"></path></g><g id="Group_4337" data-name="Group 4337" transform="translate(210.258 130.968)"><path id="Path_3215" data-name="Path 3215" d="M609.084,442.964a9.182,9.182,0,0,0,.255-1.221,2.6,2.6,0,0,1-.357-.809c-.073-.392.263-.866-.345-1.228a4.18,4.18,0,0,0-1.716-.278,3.64,3.64,0,0,0-1.555.03c-.368.133-.256.24-1.224,1.256s-1.194.808-1.194.808a.615.615,0,0,0-.645-.028c-.366.189-.271-.04-.857.041s-1.025-.1-2.314-.118-2.432.73-2.836.158-1.25-.3-2.365-.066-1.85.555-2.368-.151-1.559-.026-1.521-.368-.125-.332-.409-.656.086-.4,0-1.075a1.828,1.828,0,0,1,.406-1.55c.4-.588.225-.861.127-1.76s.926-2.936,1.525-5.966,1.078-5.263.41-6.81-1.628-1.437-3.125-3.446-1.051-1.7-1.792-2.559-1.2-.442-1.2-.442l.408-.419c.408-.419,1.189.16,1.794.466s1.787.884,2.33,1.133c.732.336,1.516.632,1.975.154s.38-.983.631-1.336.414-.306.4-.644-.022-.451-.022-.451a2.623,2.623,0,0,0,.7-.039c.264-.071.4-.438.582-1.219.076-.326,1.119.3,1.539.106s-.027-.832-.1-2.242.3-1.637.609-1.937a1.533,1.533,0,0,0,.539-1.048c.129-.629.443-1.383.615-2.241s.264-1.653.264-1.653l1,.125a6.2,6.2,0,0,0-1.321-5.365,10.914,10.914,0,0,0-4.717-3.19,7.291,7.291,0,0,0-7.126,1.3c-1.9,1.746-3.124,5.222-4.2,8.128-.777,2.094-1.568,2.34-3.56,2.224s-3.364.052-5.809-1.622-4.938-3.319-6.684-2.881c-1.392.35-1.344,1.073-2.909,1.943-3.907,1.6-17.208,7.115-21.791,9.858-3.025,1.811-3.688,3.265-4.789,7.486s-3.153,12.476-3.4,13.434,1.368.873,1.368.873a15.037,15.037,0,0,0-2.072,2.246l-.009,0c-1.312-.627-2.114.405-2.768,1.839a3.126,3.126,0,0,0-.216.667l-8.43-4.03-8.2,17.986,26.181,12.515,8.2-17.986-9.841-4.7a3.084,3.084,0,0,0,.36-.6c.478-1.049.742-2.021.336-2.713.552-.411,1.59-1.326,1.514-2.338l-.1-1.373,1.527-.055s2.655-14.694,3.653-15.408.877-.9.877-.9a4.964,4.964,0,0,1,1.914-1.058c2.188-.82,9.8-3.069,13.34-4.105-.8,1.847-2.7,6.223-4.105,9.478-1.827,4.23-2.259,4.9-5.3,12.963a69.7,69.7,0,0,0-3.858,15.19,5.524,5.524,0,0,0,1.926,1.065,8.306,8.306,0,0,1,1.752.844,17.97,17.97,0,0,1,.158,2.084,21.663,21.663,0,0,1-.069,3.963c-.262,1.2-1.658,3.432-2.841,6.492a50.779,50.779,0,0,0-1.9,7.458,29.654,29.654,0,0,1-1.111,3.172,16.594,16.594,0,0,1-1.865,3.5,29.867,29.867,0,0,0-2.2,5.27c-.76,1.965-1.225,3.4-3.086,8.033s-1.241,5.216-1.241,5.216a5.072,5.072,0,0,1-1.7,2.526c-1.392,1.152-4.044,6.051-4.044,6.051l2.724,1.884a4.325,4.325,0,0,1-1.292,2.052c-1.028.906-1.893.784-2.778,1.343a7.2,7.2,0,0,0-1.684,1.733l4.319,4.794.608-.713s.628.757,1.09,1.41.91,2.1,1.786,3.52a9.97,9.97,0,0,0,2.953,2.886,4.244,4.244,0,0,0,2.235.513,10.941,10.941,0,0,0,3.279-.42,1.789,1.789,0,0,0-.611-1.492c-.563-.535-1.3-.155-1.73-.243a4.748,4.748,0,0,1-1.614-1.155c-.507-.48-.426-2.068-.465-3.876s-.077-2.654-.207-4.174a7.841,7.841,0,0,1,.591-3.2l1.744.526.239-.579c.239-.578.6-1.956,2.286-6.857s3.289-8.271,3.922-10.625,4.055-6.9,5.381-9.348a80.151,80.151,0,0,0,4.606-11.963c1.433-4.6,6.809-12.991,6.809-12.991s12.936-.116,12.41-.01c-1.028.208-3.722,2.349-5.646,3.876-1.872,1.486-3.3,3.741-6.332,6.292-2.832,2.383-4.365,3.723-4.365,3.723l.911,1.209a7.169,7.169,0,0,0-1.81.989,16.7,16.7,0,0,0-2.338,2.928l3.331,5.074.94-.522a9.668,9.668,0,0,0,.568,1.683,18.816,18.816,0,0,0,5.736,9.521c.442.258,1.269.6,1.66-.092.294-.526.148-.97-.621-2.4a21.474,21.474,0,0,1-1.546-3.721,10.2,10.2,0,0,1-.491-4.8c.24-2.351,1.214-2.953,1.214-2.953l.6.544s2.567-2.558,3.623-3.857a96.467,96.467,0,0,1,7.806-7.53c2.416-2.113,5.094-4.04,6.476-5.361a25.4,25.4,0,0,0,3.552-4.1,7.312,7.312,0,0,0,.763-4.058,6.667,6.667,0,0,0-2.962-4.473c-2.173-1.576-8.054-5.434-8.054-5.434s.2-.407.777-1.627a39.118,39.118,0,0,1,2.132-3.512,6.1,6.1,0,0,0-.369,1.208,2,2,0,0,0,1.018,2.093,11.816,11.816,0,0,0,2.18.671c.98.285,4.749.527,6.369.72,0,0,9.558,1.165,9.875,1.09s.409-.419.578-1.333a15.15,15.15,0,0,0,.151-2.327l.727-.493L604,446.4a1.289,1.289,0,0,1,.8-.071,15.413,15.413,0,0,0,3.149-.345,1.3,1.3,0,0,0,1.124-1.137,2.821,2.821,0,0,1,.112-.967C609.271,443.482,608.925,443.482,609.084,442.964Zm-73.2,2.632-5.462-2.611c.568-1.132,1.2-1.895,1.993-1.515l.319.153c.041.17.114.319.531.434.338.093.342.4.712.8.141.154.654.4.791.541.5.509.948.813,1.228.118.028-.069.055-.134.083-.2C536.459,443.8,536.277,444.637,535.882,445.6Z" transform="translate(-512.6 -396.52)" fill="#32849d"></path></g><g id="Group_4338" data-name="Group 4338" transform="translate(207.127 195.63)"><path id="Path_3216" data-name="Path 3216" d="M596.552,1028.1l7.187,2.022-2.367,2.448L587.9,1046.5l-18.892-.244-13.7,17.756H540.2l-15.428,20.822H508.087l-25.466,24.042H494.88c.091,0,16.041-14.357,16.041-14.357l19.259-.471,13.014-20.835,14.169-.484,13.854-19.529,19.836-.243,16.991-20.015,3.092,5.871,9.345-23.142Z" transform="translate(-482.621 -1015.673)" fill="#cbe1e8"></path></g><g id="Group_4339" data-name="Group 4339" transform="translate(219.436 195.63)"><path id="Path_3217" data-name="Path 3217" d="M716.688,1038.815l-3.092-5.871L696.6,1052.96l-19.837.242-13.854,19.529-14.169.484-13.014,20.835L616.472,1094l-15.991,14.88,5.288-.1,11.442-10.64,20.052.035,12.95-20.783,14.76-.418,13.368-20.609,19.5.139,16.238-19.143,3.6,6.461,8.359-23.8v-4.342Z" transform="translate(-600.482 -1015.673)" fill="#b4d5df"></path></g><g id="Group_4340" data-name="Group 4340" transform="translate(337.4 186.892)"><circle id="Ellipse_164" data-name="Ellipse 164" cx="2.089" cy="2.089" r="2.089" fill="#e0e1e1"></circle></g><g id="Group_4341" data-name="Group 4341" transform="translate(182.833 214.881)"><circle id="Ellipse_165" data-name="Ellipse 165" cx="15.666" cy="15.666" r="15.666" transform="translate(0)" fill="#f2672a"></circle></g><g id="Group_4342" data-name="Group 4342" transform="translate(192.857 217.492)"><path id="Path_3218" data-name="Path 3218" d="M367.29,1238.055c0-.47-16.173-13.055-16.173-13.055l-.694,4.194-1.765,1.875-2.676,15.15,5.122,4.891s3.165,2.392,3.505,2.327A15.671,15.671,0,0,0,367.29,1238.055Z" transform="translate(-345.983 -1225)" fill="#d95921"></path></g><g id="Group_4343" data-name="Group 4343" transform="translate(194.571 231.744)"><path id="Path_3219" data-name="Path 3219" d="M368.118,1362.895a2.286,2.286,0,0,0-2.267-1.425h-.092a2.493,2.493,0,0,0-2.534,1.86,7.377,7.377,0,0,0-.828,3.507c0,2.965,3.408,6.489,3.408,6.489s3.408-3.524,3.408-6.489A7.066,7.066,0,0,0,368.118,1362.895Z" transform="translate(-362.397 -1361.469)" fill="#e0e1e1"></path></g><g id="Group_4344" data-name="Group 4344" transform="translate(200.922 228.891)"><path id="Path_3220" data-name="Path 3220" d="M426.433,1335.621l-.931-.681h0l-1.079-.79-1.221.015v5.434l.732,1.458h0l1.463,2.913a15.052,15.052,0,0,0,1.294-3.9A12.744,12.744,0,0,0,426.433,1335.621Z" transform="translate(-423.203 -1334.15)" fill="#123354"></path></g><g id="Group_4345" data-name="Group 4345" transform="translate(191.459 228.891)"><path id="Path_3221" data-name="Path 3221" d="M334.97,1334.15l-2.01,1.471a12.745,12.745,0,0,0-.258,4.445,15.065,15.065,0,0,0,1.294,3.9l1.463-2.913h0l.732-1.458v-5.434Z" transform="translate(-332.598 -1334.15)" fill="#123354"></path></g><g id="Group_4346" data-name="Group 4346" transform="translate(193.764 217.492)"><path id="Path_3222" data-name="Path 3222" d="M361.8,1241.849a17.682,17.682,0,0,0,1.315-7.08c0-5.4-4.227-9.768-4.227-9.768s-4.227,4.373-4.227,9.768a17.682,17.682,0,0,0,1.315,7.08Z" transform="translate(-354.665 -1225)" fill="#e0e1e1"></path></g><g id="Group_4347" data-name="Group 4347" transform="translate(197.991 217.492)"><path id="Path_3223" data-name="Path 3223" d="M395.142,1225h0v16.848h2.912a17.682,17.682,0,0,0,1.315-7.08C399.37,1229.374,395.142,1225,395.142,1225Z" transform="translate(-395.142 -1225)" fill="#c1c1c0"></path></g><g id="Group_4348" data-name="Group 4348" transform="translate(196.455 222.468)"><path id="Path_3224" data-name="Path 3224" d="M383.506,1273.982a1.552,1.552,0,1,1-1.536-1.333A1.446,1.446,0,0,1,383.506,1273.982Z" transform="translate(-380.434 -1272.648)" fill="#7bb0b5"></path></g><g id="Group_4349" data-name="Group 4349" transform="translate(195.445 217.492)"><path id="Path_3225" data-name="Path 3225" d="M373.309,1225a17.687,17.687,0,0,0-2.546,3.626h5.092A17.689,17.689,0,0,0,373.309,1225Z" transform="translate(-370.763 -1225)" fill="#123354"></path></g><g id="Group_4350" data-name="Group 4350" transform="translate(197.475 228.891)"><path id="Path_3226" data-name="Path 3226" d="M390.721,1334.15H390.2v10.155h1.033V1334.15Z" transform="translate(-390.197 -1334.15)" fill="#123354"></path></g><g id="Group_4351" data-name="Group 4351" transform="translate(196.255 222.331)"><path id="Path_3227" data-name="Path 3227" d="M382,1273.071a1.741,1.741,0,1,1-1.741-1.741A1.741,1.741,0,0,1,382,1273.071Z" transform="translate(-378.519 -1271.33)" fill="#fff"></path></g><g id="Group_4352" data-name="Group 4352" transform="translate(175 162.662)"><circle id="Ellipse_166" data-name="Ellipse 166" cx="13.055" cy="13.055" r="13.055" fill="#e0e1e1"></circle></g><g id="Group_4353" data-name="Group 4353" transform="translate(181.6 169.349)" opacity="0.8"><path id="Path_3228" data-name="Path 3228" d="M238.2,776.241l7.188,7.188A13.048,13.048,0,0,0,257.7,770.3l-1.251-1.122-1.4.3-4.649-5.443Z" transform="translate(-238.195 -764.028)" fill="#c1c1c0"></path></g><g id="Group_4354" data-name="Group 4354" transform="translate(187.3 175.045)"><path id="Path_3229" data-name="Path 3229" d="M293.266,818.567h0a.489.489,0,0,0,0,.979h0Z" transform="translate(-292.777 -818.567)" fill="#d3001d"></path></g><g id="Group_4355" data-name="Group 4355" transform="translate(185.941 173.686)"><path id="Path_3230" data-name="Path 3230" d="M281.611,805.553a1.849,1.849,0,0,0,0,3.7Z" transform="translate(-279.762 -805.553)" fill="#d3001d"></path></g><g id="Group_4356" data-name="Group 4356" transform="translate(184.582 172.327)"><path id="Path_3231" data-name="Path 3231" d="M269.955,792.538a3.208,3.208,0,0,0,0,6.416Z" transform="translate(-266.747 -792.538)" fill="#d3001d"></path></g><g id="Group_4357" data-name="Group 4357" transform="translate(183.222 170.968)"><path id="Path_3232" data-name="Path 3232" d="M258.3,779.523h0a4.567,4.567,0,1,0,0,9.134h0Z" transform="translate(-253.731 -779.523)" fill="#d3001d"></path></g><g id="Group_4358" data-name="Group 4358" transform="translate(181.863 169.608)"><path id="Path_3233" data-name="Path 3233" d="M240.715,772.434a5.926,5.926,0,0,0,5.926,5.926V766.508A5.926,5.926,0,0,0,240.715,772.434Z" transform="translate(-240.715 -766.508)" fill="#d3001d"></path></g><g id="Group_4359" data-name="Group 4359" transform="translate(180.504 168.249)"><path id="Path_3234" data-name="Path 3234" d="M234.987,753.492h0a7.286,7.286,0,0,0,0,14.571h0Z" transform="translate(-227.701 -753.492)" fill="#d3001d"></path></g><g id="Group_4360" data-name="Group 4360" transform="translate(179.145 166.89)"><path id="Path_3235" data-name="Path 3235" d="M223.331,740.477h0a8.645,8.645,0,0,0,0,17.29h0Z" transform="translate(-214.686 -740.477)" fill="#d3001d"></path></g><g id="Group_4361" data-name="Group 4361" transform="translate(179.145 166.89)"><path id="Path_3236" data-name="Path 3236" d="M214.686,749.122a8.645,8.645,0,0,0,8.645,8.645h0v-1.359h0a7.286,7.286,0,0,1,0-14.571h0v-1.359h0A8.645,8.645,0,0,0,214.686,749.122Z" transform="translate(-214.686 -740.477)" fill="#d3001d"></path></g><g id="Group_4362" data-name="Group 4362" transform="translate(180.504 168.249)"><path id="Path_3237" data-name="Path 3237" d="M227.7,760.778a7.286,7.286,0,0,0,7.286,7.286h0V766.7h0a5.926,5.926,0,1,1,0-11.853h0v-1.359h0A7.286,7.286,0,0,0,227.7,760.778Z" transform="translate(-227.701 -753.492)" fill="#fff"></path></g><g id="Group_4363" data-name="Group 4363" transform="translate(181.863 169.608)"><path id="Path_3238" data-name="Path 3238" d="M240.715,772.434a5.926,5.926,0,0,0,5.926,5.926h0V777h0a4.567,4.567,0,1,1,0-9.134h0v-1.359h0A5.926,5.926,0,0,0,240.715,772.434Z" transform="translate(-240.715 -766.508)" fill="#d3001d"></path></g><g id="Group_4364" data-name="Group 4364" transform="translate(183.222 170.968)"><path id="Path_3239" data-name="Path 3239" d="M253.731,784.09a4.567,4.567,0,0,0,4.567,4.567h0V787.3a3.208,3.208,0,0,1,0-6.416v-1.359h0A4.567,4.567,0,0,0,253.731,784.09Z" transform="translate(-253.731 -779.523)" fill="#fff"></path></g><g id="Group_4365" data-name="Group 4365" transform="translate(184.582 172.327)"><path id="Path_3240" data-name="Path 3240" d="M266.747,795.746a3.208,3.208,0,0,0,3.208,3.208v-1.359a1.849,1.849,0,0,1,0-3.7v-1.359A3.208,3.208,0,0,0,266.747,795.746Z" transform="translate(-266.747 -792.538)" fill="#d3001d"></path></g><g id="Group_4366" data-name="Group 4366" transform="translate(185.941 173.686)"><path id="Path_3241" data-name="Path 3241" d="M279.762,807.4a1.849,1.849,0,0,0,1.849,1.849v-1.359h0a.489.489,0,0,1,0-.979h0v-1.359A1.849,1.849,0,0,0,279.762,807.4Z" transform="translate(-279.762 -805.553)" fill="#fff"></path></g><g id="Group_4367" data-name="Group 4367" transform="translate(187.3 175.045)"><path id="Path_3242" data-name="Path 3242" d="M292.777,819.056a.489.489,0,0,0,.489.489h0v-.979h0A.489.489,0,0,0,292.777,819.056Z" transform="translate(-292.777 -818.567)" fill="#d3001d"></path></g><g id="Group_4368" data-name="Group 4368" transform="translate(179.145 166.89)"><path id="Path_3243" data-name="Path 3243" d="M214.686,749.122a8.645,8.645,0,0,0,8.645,8.645h0v-1.359h0a7.286,7.286,0,0,1,0-14.571h0v-1.359h0A8.645,8.645,0,0,0,214.686,749.122Z" transform="translate(-214.686 -740.477)" fill="#f2672a"></path></g><g id="Group_4369" data-name="Group 4369" transform="translate(180.504 168.249)"><path id="Path_3244" data-name="Path 3244" d="M227.7,760.778a7.286,7.286,0,0,0,7.286,7.286h0V766.7h0a5.926,5.926,0,1,1,0-11.853h0v-1.359h0A7.286,7.286,0,0,0,227.7,760.778Z" transform="translate(-227.701 -753.492)" fill="#f6efcc"></path></g><g id="Group_4370" data-name="Group 4370" transform="translate(181.863 169.608)"><path id="Path_3245" data-name="Path 3245" d="M240.715,772.434a5.926,5.926,0,0,0,5.926,5.926h0V777h0a4.567,4.567,0,1,1,0-9.134h0v-1.359h0A5.926,5.926,0,0,0,240.715,772.434Z" transform="translate(-240.715 -766.508)" fill="#f2672a"></path></g><g id="Group_4371" data-name="Group 4371" transform="translate(183.222 170.968)"><path id="Path_3246" data-name="Path 3246" d="M253.731,784.09a4.567,4.567,0,0,0,4.567,4.567h0V787.3a3.208,3.208,0,0,1,0-6.416v-1.359h0A4.567,4.567,0,0,0,253.731,784.09Z" transform="translate(-253.731 -779.523)" fill="#f6efcc"></path></g><g id="Group_4372" data-name="Group 4372" transform="translate(184.582 172.327)"><path id="Path_3247" data-name="Path 3247" d="M266.747,795.746a3.208,3.208,0,0,0,3.208,3.208v-1.359a1.849,1.849,0,0,1,0-3.7v-1.359A3.208,3.208,0,0,0,266.747,795.746Z" transform="translate(-266.747 -792.538)" fill="#f2672a"></path></g><g id="Group_4373" data-name="Group 4373" transform="translate(185.941 173.686)"><path id="Path_3248" data-name="Path 3248" d="M279.762,807.4a1.849,1.849,0,0,0,1.849,1.849v-1.359h0a.489.489,0,0,1,0-.979h0v-1.359A1.849,1.849,0,0,0,279.762,807.4Z" transform="translate(-279.762 -805.553)" fill="#f6efcc"></path></g><g id="Group_4374" data-name="Group 4374" transform="translate(187.3 175.045)"><path id="Path_3249" data-name="Path 3249" d="M292.777,819.056a.489.489,0,0,0,.489.489h0v-.979h0A.489.489,0,0,0,292.777,819.056Z" transform="translate(-292.777 -818.567)" fill="#ee4f1b"></path></g><g id="Group_4375" data-name="Group 4375" transform="translate(187.79 166.89)"><path id="Path_3250" data-name="Path 3250" d="M306.107,749.122a8.645,8.645,0,0,1-8.645,8.645h0v-1.359h0a7.286,7.286,0,1,0,0-14.571h0v-1.359h0A8.645,8.645,0,0,1,306.107,749.122Z" transform="translate(-297.462 -740.477)" fill="#d95921"></path></g><g id="Group_4376" data-name="Group 4376" transform="translate(187.79 168.249)"><path id="Path_3251" data-name="Path 3251" d="M304.748,760.778a7.286,7.286,0,0,1-7.286,7.286h0V766.7h0a5.926,5.926,0,1,0,0-11.853h0v-1.359h0A7.286,7.286,0,0,1,304.748,760.778Z" transform="translate(-297.462 -753.492)" fill="#dcd6b6"></path></g><g id="Group_4377" data-name="Group 4377" transform="translate(187.79 169.608)"><path id="Path_3252" data-name="Path 3252" d="M303.388,772.434a5.926,5.926,0,0,1-5.926,5.926h0V777h0a4.567,4.567,0,1,0,0-9.134h0v-1.359h0A5.926,5.926,0,0,1,303.388,772.434Z" transform="translate(-297.462 -766.508)" fill="#d95921"></path></g><g id="Group_4378" data-name="Group 4378" transform="translate(187.79 170.968)"><path id="Path_3253" data-name="Path 3253" d="M302.029,784.09a4.567,4.567,0,0,1-4.567,4.567h0V787.3a3.208,3.208,0,1,0,0-6.416v-1.359h0A4.567,4.567,0,0,1,302.029,784.09Z" transform="translate(-297.462 -779.523)" fill="#dcd6b6"></path></g><g id="Group_4379" data-name="Group 4379" transform="translate(187.79 172.327)"><path id="Path_3254" data-name="Path 3254" d="M300.67,795.746a3.208,3.208,0,0,1-3.208,3.208v-1.359a1.849,1.849,0,1,0,0-3.7v-1.359A3.208,3.208,0,0,1,300.67,795.746Z" transform="translate(-297.462 -792.538)" fill="#d95921"></path></g><g id="Group_4380" data-name="Group 4380" transform="translate(187.79 173.686)"><path id="Path_3255" data-name="Path 3255" d="M299.311,807.4a1.849,1.849,0,0,1-1.849,1.849v-1.359h0a.489.489,0,1,0,0-.979h0v-1.359A1.849,1.849,0,0,1,299.311,807.4Z" transform="translate(-297.462 -805.553)" fill="#dcd6b6"></path></g><g id="Group_4381" data-name="Group 4381" transform="translate(187.79 175.045)"><path id="Path_3256" data-name="Path 3256" d="M297.952,819.056a.489.489,0,0,1-.49.489h0v-.979h0A.49.49,0,0,1,297.952,819.056Z" transform="translate(-297.462 -818.567)" fill="#ad2b1b"></path></g><g id="Group_4382" data-name="Group 4382" transform="translate(187.755 174.497)"><path id="Path_3257" data-name="Path 3257" d="M308.168,814.341l1.067-1.02h-2.626l-.836.81h-6.452l.3-.369-2.489.506v.192l2.489.506-.31-.382h6.462l.836.81h2.626Z" transform="translate(-297.132 -813.321)" fill="#123354"></path></g><g id="Group_4383" data-name="Group 4383" transform="translate(201.109 105.222)"><circle id="Ellipse_167" data-name="Ellipse 167" cx="20.887" cy="20.887" r="20.887" transform="translate(0 0)" fill="#e0e1e1"></circle></g><g id="Group_4384" data-name="Group 4384" transform="translate(209.879 112.468)" opacity="0.8"><path id="Path_3258" data-name="Path 3258" d="M541.979,233.022a20.989,20.989,0,0,0-.406-4.115l-9.526-9.526c-.566-.113-8.924,9.312-8.924,9.312s-5.063-3.168-5.425-3.191l-8.355,4.94c.019.3,2.559,4.251,2.559,4.251s-3.031,10.3-2.924,10.861l8.185,7.984a20.9,20.9,0,0,0,24.818-20.517Z" transform="translate(-508.973 -219.38)" fill="#c1c1c0" opacity="0.67"></path></g><g id="Group_4385" data-name="Group 4385" transform="translate(209.882 127.78)"><rect id="Rectangle_2741" data-name="Rectangle 2741" width="2.924" height="10.861" fill="#d95921"></rect></g><g id="Group_4386" data-name="Group 4386" transform="translate(209.882 127.78)"><rect id="Rectangle_2742" data-name="Rectangle 2742" width="1.462" height="10.861" fill="#f2672a"></rect></g><g id="Group_4387" data-name="Group 4387" transform="translate(214.06 123.937)"><rect id="Rectangle_2743" data-name="Rectangle 2743" width="2.924" height="14.705" transform="translate(0)" fill="#d95921"></rect></g><g id="Group_4388" data-name="Group 4388" transform="translate(214.06 123.937)"><rect id="Rectangle_2744" data-name="Rectangle 2744" width="1.462" height="14.705" transform="translate(0)" fill="#f2672a"></rect></g><g id="Group_4389" data-name="Group 4389" transform="translate(218.237 122.767)"><rect id="Rectangle_2745" data-name="Rectangle 2745" width="2.924" height="15.874" fill="#d95921"></rect></g><g id="Group_4390" data-name="Group 4390" transform="translate(218.237 122.767)"><rect id="Rectangle_2746" data-name="Rectangle 2746" width="1.462" height="15.874" fill="#f2672a"></rect></g><g id="Group_4391" data-name="Group 4391" transform="translate(222.415 126.109)"><rect id="Rectangle_2747" data-name="Rectangle 2747" width="2.924" height="12.532" fill="#d95921"></rect></g><g id="Group_4392" data-name="Group 4392" transform="translate(222.415 126.109)"><rect id="Rectangle_2748" data-name="Rectangle 2748" width="1.462" height="12.532" fill="#f2672a"></rect></g><g id="Group_4393" data-name="Group 4393" transform="translate(226.592 121.932)"><rect id="Rectangle_2749" data-name="Rectangle 2749" width="2.924" height="16.71" transform="translate(0)" fill="#d95921"></rect></g><g id="Group_4394" data-name="Group 4394" transform="translate(226.592 121.932)"><rect id="Rectangle_2750" data-name="Rectangle 2750" width="1.462" height="16.71" transform="translate(0)" fill="#f2672a"></rect></g><g id="Group_4395" data-name="Group 4395" transform="translate(230.77 117.754)"><rect id="Rectangle_2751" data-name="Rectangle 2751" width="2.924" height="20.887" fill="#d95921"></rect></g><g id="Group_4396" data-name="Group 4396" transform="translate(230.77 117.754)"><rect id="Rectangle_2752" data-name="Rectangle 2752" width="1.462" height="20.887" fill="#f2672a"></rect></g><g id="Group_4397" data-name="Group 4397" transform="translate(210.248 112.157)"><path id="Path_3259" data-name="Path 3259" d="M534.484,216.4a1.095,1.095,0,0,0-1,1.555l-2.8,3.016a1.1,1.1,0,0,0-1.395,1.448l-2.744,2.744a1.1,1.1,0,0,0-.952.053L523,223.14a1.1,1.1,0,1,0-2.141-.436l-2.226.623a1.1,1.1,0,0,0-1.9,1.017l-2.638,2.257a1.1,1.1,0,1,0,.543.635l2.638-2.258a1.094,1.094,0,0,0,1.586-.847l2.227-.623a1.094,1.094,0,0,0,1.393.284l2.595,2.076a1.1,1.1,0,1,0,2.149.307,1.09,1.09,0,0,0-.084-.422l2.744-2.744a1.1,1.1,0,0,0,1.417-1.471l2.8-3.016a1.1,1.1,0,1,0,.383-2.123Z" transform="translate(-512.5 -216.4)" fill="#123354"></path></g><g id="Group_4398" data-name="Group 4398" transform="translate(305.547 134.986)"><circle id="Ellipse_168" data-name="Ellipse 168" cx="18.277" cy="18.277" r="18.277" fill="#f2672b"></circle></g><g id="Group_4399" data-name="Group 4399" transform="translate(316.056 142.112)"><path id="Path_3260" data-name="Path 3260" d="M1551.663,513.93l-10.046-9.882-3.152.278-2.024-1.1-4.647,1.647-6.168-.826,1.664,7.16,7.063,7.6-8,6.991,6.85,6.851.191,0a18.277,18.277,0,0,0,18.276-18.277C1551.669,514.228,1551.667,514.079,1551.663,513.93Z" transform="translate(-1525.625 -503.227)" fill="#d95921"></path></g><g id="Group_4400" data-name="Group 4400" transform="translate(317.509 159.878)"><rect id="Rectangle_2753" data-name="Rectangle 2753" width="13.084" height="3.606" transform="translate(0)" fill="#123354"></rect></g><g id="Group_4401" data-name="Group 4401" transform="translate(316.782 163.484)"><path id="Path_3261" data-name="Path 3261" d="M1546.4,707.866h-13.085l-.727,1.2h14.538Z" transform="translate(-1532.585 -707.866)" fill="#123354"></path></g><g id="Group_4402" data-name="Group 4402" transform="translate(316.056 141.84)"><path id="Path_3262" data-name="Path 3262" d="M1538.713,501.718l.093-1.093h-10.37l.093,1.093h-2.9l.557,4.74h.01a4.753,4.753,0,0,0,3.786,3.973,4.41,4.41,0,0,0,2.669,2.2v2.421h-.359v2.406h-2.271l-1.461,1.194h10.2l-1.461-1.194h-2.359v-2.406h-.3v-2.431a4.452,4.452,0,0,0,2.624-2.194,4.752,4.752,0,0,0,3.786-3.973h.01l.557-4.74Zm-11.472,4.752h-.01l-.557-3.889h1.93l.39,4.562h.01a7.961,7.961,0,0,0,.407,2.049A3.714,3.714,0,0,1,1527.241,506.47Zm12.77,0H1540a3.714,3.714,0,0,1-2.17,2.722,7.956,7.956,0,0,0,.407-2.049h.01l.39-4.562h1.93Z" transform="translate(-1525.625 -500.625)" fill="#e0e1e1"></path></g><g id="Group_4403" data-name="Group 4403" transform="translate(324.052 159.878)"><rect id="Rectangle_2754" data-name="Rectangle 2754" width="6.542" height="3.606" transform="translate(0)" fill="#052241"></rect></g><g id="Group_4404" data-name="Group 4404" transform="translate(324.052 141.84)"><path id="Path_3263" data-name="Path 3263" d="M1607.28,501.718l.093-1.093h-5.185v18.03h5.137l-1.461-1.194h-2.358v-2.406h-.3v-2.431a4.452,4.452,0,0,0,2.625-2.194,4.753,4.753,0,0,0,3.786-3.973h.01l.558-4.74Zm1.3,4.752h-.01a3.715,3.715,0,0,1-2.17,2.722,7.956,7.956,0,0,0,.407-2.049h.01l.39-4.562h1.93Z" transform="translate(-1602.188 -500.625)" fill="#c1c1c0"></path></g><g id="Group_4405" data-name="Group 4405" transform="translate(263.772 100)"><circle id="Ellipse_169" data-name="Ellipse 169" cx="13.055" cy="13.055" r="13.055" fill="#e0e1e1"></circle></g><g id="Group_4406" data-name="Group 4406" transform="translate(271.48 103.921)" opacity="0.8"><path id="Path_3264" data-name="Path 3264" d="M1110.855,140.156l-1.88.327-2.644-1.767-2.717.795-3.179-1.963-1.627,17.88,4.049,4.244q.64.063,1.3.064a13.054,13.054,0,0,0,13.054-13.055c0-.107,0-.214,0-.32Z" transform="translate(-1098.808 -137.548)" fill="#c1c1c0"></path></g><g id="Group_4407" data-name="Group 4407" transform="translate(277.744 106.53)"><path id="Path_3265" data-name="Path 3265" d="M1164.567,170.658h-5.784v-8.135h5.784l-1.932,4.067Z" transform="translate(-1158.783 -162.523)" fill="#d95921"></path></g><g id="Group_4408" data-name="Group 4408" transform="translate(277.744 113.144)"><path id="Path_3266" data-name="Path 3266" d="M1160.043,225.859h-1.26v1.52Z" transform="translate(-1158.783 -225.859)" fill="#470000"></path></g><g id="Group_4409" data-name="Group 4409" transform="translate(271.603 103.921)"><rect id="Rectangle_2755" data-name="Rectangle 2755" width="1.458" height="17.443" fill="#123354"></rect></g><g id="Group_4410" data-name="Group 4410" transform="translate(272.287 103.921)"><rect id="Rectangle_2756" data-name="Rectangle 2756" width="0.82" height="17.443" fill="#123354"></rect></g><g id="Group_4411" data-name="Group 4411" transform="translate(273.113 105.09)"><rect id="Rectangle_2757" data-name="Rectangle 2757" width="5.89" height="8.055" transform="translate(0 0)" fill="#f2672b"></rect></g><g id="Group_4412" data-name="Group 4412" transform="translate(271.187 119.887)"><path id="Path_3267" data-name="Path 3267" d="M1098.343,291.561a1.172,1.172,0,1,1-2.343,0,1.172,1.172,0,0,1,2.343,0Z" transform="translate(-1096 -290.422)" fill="#123354"></path></g><g id="Group_4413" data-name="Group 4413" transform="translate(271.187 119.938)"><path id="Path_3268" data-name="Path 3268" d="M1097.172,293.168A1.172,1.172,0,0,1,1096,292a1,1,0,0,1,1.031-1.087C1097.854,290.955,1097.818,293.168,1097.172,293.168Z" transform="translate(-1096 -290.908)" fill="#123354"></path></g></g></svg>