<svg xmlns="http://www.w3.org/2000/svg" viewBox="0 0 1685.52 950.52"><defs><style>.cls-1,.cls-23{fill:#efc42e;}.cls-1,.cls-10,.cls-11,.cls-12,.cls-13,.cls-14,.cls-15,.cls-16,.cls-17,.cls-18,.cls-19,.cls-2,.cls-20,.cls-21,.cls-3,.cls-4,.cls-5,.cls-6,.cls-7{fill-rule:evenodd;}.cls-2,.cls-24{fill:#d66f73;}.cls-3{fill:#d0dae9;}.cls-4{fill:#ff8055;}.cls-5{fill:#1e4c7d;}.cls-6,.cls-8{fill:#344e7b;}.cls-7{fill:#e6ecfc;}.cls-19,.cls-9{fill:#dae5fc;}.cls-10{fill:#9bb3c1;}.cls-11{fill:#a0aed1;}.cls-12,.cls-18{fill:#0d294f;}.cls-12,.cls-17{opacity:0.2;}.cls-13{fill:#fff;}.cls-14{fill:#2d3e64;}.cls-15{fill:#b6c4d9;}.cls-16{fill:#cde0f3;}.cls-17{fill:#e2ecf3;}.cls-18{opacity:0.25;}.cls-20{fill:#bacdfa;opacity:0.15;}.cls-21{fill:#d46732;}.cls-22{fill:#75c066;}</style></defs><g id="&#x421;&#x43B;&#x43E;&#x439;_2" data-name="&#x421;&#x43B;&#x43E;&#x439; 2"><g id="Layer_1" data-name="Layer 1"><path class="cls-1" d="M837.38,335.22a15.63,15.63,0,1,1-15.63,15.62A15.61,15.61,0,0,1,837.38,335.22Z"></path><path class="cls-2" d="M789.38,335.22a15.63,15.63,0,1,1-15.63,15.62A15.61,15.61,0,0,1,789.38,335.22Z"></path><path class="cls-3" d="M857,807.5c209.76-.9,845.65,12.59,728.38-5.45S1257.09,788.47,865,788.47s-732.32-9.11-732.32,9.64S647.29,808.41,857,807.5Z"></path><path class="cls-3" d="M1320.57,545.67H1342v-36.1h11.31v36.1h21.46v120h-21.46v48.14H1342V665.63h-21.46v-120Zm310.72-112.14h21.46V387.74h11.31v45.79h21.46V544.27h-21.46v33.86h-11.31V544.27h-21.46V433.53Zm-77.68,37.1h21.51V422.45h11.21v48.18h21.51V572.86h-21.51v43.59h-11.21V572.86h-21.51V470.63ZM155.36,465h21.46V432.46h11.31V465H209.6V598.24H188.13v51.15H176.82V598.24H155.36V465ZM233,408.34H254.5V376.41h11.31v31.93h21.46V517.78H265.81v27.67H254.5V517.78H233V408.34ZM543.76,717.66h21.46v37h11.32v-37H598V672.71H576.54v-55.2H565.22v55.2H543.76v44.95Zm77.68-29.44h21.47v49.42h11.31V688.22h21.46v-100H654.22v-31H642.91v31H621.44v100Zm77.69-168.14h21.46V482.83H731.9v37.25h21.46V630.82H731.9V681H720.59V630.82H699.13V520.08Zm233,35.43h21.47V528.27h11.31v27.24H986.4V685.85H964.94v23.63H953.63V685.85H932.16V555.51Zm77.69-91.74h21.46V423.89h11.31v39.88h21.46V566h-21.46v31.52h-11.31V566h-21.46V463.77Zm77.68-54.55H1109v-36h11.31v36h21.46v39H1120.3v63.06H1109V448.26h-21.46Z"></path><path class="cls-3" d="M77.68,594.44H99.19V557H110.4v37.41h21.51v68.93H110.4v32.55H99.19V663.37H77.68V594.44ZM0,613.79H21.51V643.6H32.73V613.79h21.5V526.16H32.73V503.87H21.51v22.29H0v87.63Zm1398.25-26.51h21.51V546.11H1431v41.17h21.51v39.8H1431V713.8h-11.21V627.08h-21.51v-39.8Zm77.68-40.65h21.51V520.27h11.21v26.36h21.51V604.2h-21.51V677h-11.21V604.2h-21.51V546.63Zm-233,50.14h21.51v63h11.21v-63h21.51V513.66h-21.51V474.91H1264.4v38.75h-21.51v83.11Zm-77.68-36.37h21.51v32.35h11.21V560.4h21.51V460.84h-21.51V413.28h-11.21v47.56h-21.51V560.4ZM854.49,717.75H876v47.32h11.22V717.75h21.51V650.83H887.21V636.37H876v14.46h-21.5v66.92ZM776.8,581.94h21.52V552h11.21v30H831v114H809.53v29.22H798.32V695.91H776.8v-114ZM466.08,634.16h21.51V594.91h11.22v39.25h21.51v67.21H498.81v41H487.59v-41H466.08V634.16Zm-77.68-89h21.51V484.16h11.22v60.95h21.51V633.4H421.13v17.81H409.91V633.4H388.4V545.11Zm-77.68,8.25h21.51v30.19h11.22V553.36H365V441.21H343.45v-19H332.23v19H310.72Z"></path><path class="cls-4" d="M656.64,356.08l54.6,54.6a15.44,15.44,0,0,0,21.84,0L944,199.77l26.76,26.76a15.44,15.44,0,0,0,26.15-8.38L1023,62.09a15.45,15.45,0,0,0-17.77-17.78L849.15,70.4a15.44,15.44,0,0,0-8.38,26.15l26.78,26.78L656.64,334.24A15.44,15.44,0,0,0,656.64,356.08Z"></path><path class="cls-5" d="M793.06,572.8,893.3,673a28.36,28.36,0,0,0,40.1,0l387.24-387.23,49.12,49.13c16.31,16.3,44.22,7.36,48-15.38L1465.67,33A28.36,28.36,0,0,0,1433,.4L1146.51,48.28c-22.75,3.8-31.69,31.72-15.38,48l49.17,49.17L793.06,532.7A28.36,28.36,0,0,0,793.06,572.8Z"></path><path class="cls-4" d="M1384.32,392.17l3.83-13.05,12,3.41-3.72,13.08,9.58,2.73,3.72-13.09,12,3.41L1418,401.75l.66.19q12,3.42,16.76,11.21a20,20,0,0,1,2.25,16.57,19.2,19.2,0,0,1-8.19,11.33,21.31,21.31,0,0,1-10.55,3c5.57,3.13,9.25,6.83,11.08,11.13s2,9.1.47,14.38a23.74,23.74,0,0,1-6.31,10.78,23.15,23.15,0,0,1-10.55,5.82q-3.78.94-10.54-.07-5.47-.81-8.67-1.42L1390.62,498l-12-3.41,3.72-13.08-9.58-2.73-3.72,13.09-12-3.41,3.72-13.09-.11,0-20-5.69,4.79-16.83,10.12,2.88,14.07-49.46-10.12-2.88,4.79-16.83,20,5.68Zm2.82,36.07,11.2,3.18c4,1.14,7,1.24,9,.32a8,8,0,0,0,4.07-5.33,7.42,7.42,0,0,0-.75-6.34c-1.18-1.82-3.73-3.28-7.62-4.39l-11.38-3.23-4.49,15.79Zm-9.28,32.62,13.1,3.73c4.43,1.26,7.77,1.35,10,.3a8.22,8.22,0,0,0,4.52-5.53,7.58,7.58,0,0,0-1-6.69q-2.05-3-8.82-4.93l-13-3.71Z"></path><path class="cls-5" d="M690.79,113.52l-25.55-3.82a26.79,26.79,0,0,0-1.29-7.41,16.87,16.87,0,0,0-3.74-5.12l-5.93,18.88q18.15,11.57,23,19.51a27.07,27.07,0,0,1,2.5,22.83,28.53,28.53,0,0,1-7.27,12.05A34,34,0,0,1,649,180.32a54,54,0,0,1-14.25-2.16l-3.87,12.31-9.49-3,3.87-12.3a63.1,63.1,0,0,1-14.62-8,33,33,0,0,1-8.36-9.47,31.82,31.82,0,0,1-4-10.64,42.2,42.2,0,0,1,0-12.18l27.32,5.23c-.57,4.52-.47,8,.27,10.27a17.32,17.32,0,0,0,5,7.13l7.27-23.09c-8.07-5.21-13.64-9.29-16.76-12.23a26.23,26.23,0,0,1-6.39-27.29,27.09,27.09,0,0,1,14.25-16.88q10.62-5.26,27-1l2-6.42,9.5,3-2,6.42q14.37,5.52,20.23,14a29,29,0,0,1,4.94,19.58Zm-40-19.67c-3.09,0-5.39.56-6.9,1.55a7.69,7.69,0,0,0-3.15,4.25,8.16,8.16,0,0,0,.1,5.5c.67,1.78,2.24,3.57,4.7,5.4l5.25-16.7Zm-10.73,67.33c4,.34,7.09-.2,9.4-1.55a9.76,9.76,0,0,0,4.59-5.57,9.11,9.11,0,0,0-.39-6.37c-.91-2.17-3.26-4.67-7-7.47Z"></path><path class="cls-4" d="M356.71,286.6l2.34,11.87-17.81,8.17c5.64,6.23,12.34,7.57,20,4q12.66-5.81,19.94-19l10,21.85Q385,323.94,372,329.88q-20.92,9.62-35.35,4.67t-22-15.69L304,323.72l-2.12-12,6.48-3a30.37,30.37,0,0,1-1.54-3,34.74,34.74,0,0,1-1.43-3.44l-7.83,3.59-2.12-12,6.38-2.93q-6.21-33.64,28-49.38,11.21-5.13,25.46-4.41l4.47,23.68q-11.34-3.66-20,.33-11.39,5.22-10.71,17.27l21.18-9.72,2.34,11.86L332,290.12c.28.81.76,1.95,1.44,3.43l1.42,3.11Z"></path><path class="cls-3" d="M1185.52,800.82H510.18c-13.41,0-32.46.7-41.44,8.67-15.76,12.12-208,140.64-99.63,141h957.48c108.56,0-84.18-129.15-99.63-141C1217.93,801.48,1198.71,800.82,1185.52,800.82Z"></path><path class="cls-6" d="M1177,785.05H514.4c-13.15,0-31.84.69-40.65,8.66L345.23,894.35c-.08,19.27-2.08,40.18,30.78,40.3h939.34c32.8,0,30.86-21.11,30.78-40.3L1217.61,793.71C1208.75,785.7,1189.89,785.05,1177,785.05Z"></path><path class="cls-7" d="M1198,765.92H492.79c-18.16,0-39.46,4.93-45.76,12-37.79,42.46-63,70.79-100.72,113.16-6.93,7.78,6.46,12.52,31.67,12.52H1312.8c25.21,0,38.6-4.73,31.67-12.51L1243.75,777.93C1237.35,770.73,1216.15,765.92,1198,765.92Z"></path><rect class="cls-8" x="458.53" y="242.63" width="772.76" height="523.29" rx="34.26"></rect><rect class="cls-9" x="485.65" y="270.56" width="718.52" height="467.44"></rect><path class="cls-10" d="M580.27,806.59c3.75,0,5,3.13,3.06,7s-6.81,7.25-10.66,7.25H466.77c-3.78,0-4.22-3.28-1.21-7.26s8.19-7,11.86-7ZM902.1,799a7.52,7.52,0,0,1-7.25-6.64,5.68,5.68,0,0,1,5.71-6.47H953.1a8.62,8.62,0,0,1,7.88,6.47c.87,3.64-1.28,6.64-4.89,6.64Zm-83.72,0a6.11,6.11,0,0,1-6.11-6.64,7,7,0,0,1,6.83-6.47h52.47a7,7,0,0,1,6.83,6.47,6.1,6.1,0,0,1-6.1,6.64Zm-83.94,0c-3.61,0-5.76-3-4.88-6.65a8.59,8.59,0,0,1,7.87-6.46H790a5.69,5.69,0,0,1,5.72,6.47,7.53,7.53,0,0,1-7.25,6.64Zm-83.71,0c-3.61,0-5.32-3-3.82-6.65s5.55-6.46,9.06-6.46h52.47c3.44,0,5.52,2.88,4.53,6.46s-4.78,6.65-8.32,6.65Zm-83.86,0c-3.62,0-4.81-3-2.67-6.65s6.65-6.46,10.17-6.46h52.54c3.51,0,5.1,2.88,3.49,6.46s-5.93,6.65-9.54,6.65Zm-83.79,0c-3.62,0-4.14-3-1.38-6.65s7.62-6.46,11.14-6.46H545.3c3.52,0,4.54,2.88,2.31,6.46S540.61,799,537,799Zm670.45,0c-3.61,0-8.35-3-10.61-6.64s-1.21-6.47,2.3-6.47h52.61c3.52,0,8.5,2.89,11.22,6.47s2.16,6.65-1.45,6.65Zm-83.71,0c-3.62,0-7.91-3-9.54-6.64s0-6.47,3.49-6.47h52.39c3.51,0,8.07,2.88,10.18,6.47s.94,6.64-2.68,6.64ZM986,799a9.38,9.38,0,0,1-8.47-6.64c-1-3.59,1.09-6.47,4.68-6.47h52.46c3.52,0,7.58,2.88,9.06,6.47s-.2,6.64-3.81,6.64ZM607.82,820.88c-3.78,0-5.29-3.28-3.37-7.25s6.31-7,10-7h53.56c3.67,0,5.59,3.13,4.24,7s-5.6,7.24-9.37,7.24Zm84.93,0c-3.77,0-5.83-3.27-4.58-7.24s5.21-7,8.88-7h53.49c3.67,0,6,3.13,5.4,7s-4.3,7.24-8.08,7.24Zm84.86,0c-3.77,0-6.3-3.27-5.71-7.24a8,8,0,0,1,7.55-7h53.64a6.75,6.75,0,0,1,6.58,7,7.19,7.19,0,0,1-6.95,7.24Zm84.94,0a7.26,7.26,0,0,1-7-7.24,6.69,6.69,0,0,1,6.53-7h53.48c3.67,0,7.15,3.12,7.84,7s-2,7.24-5.74,7.24Zm84.94,0c-3.78,0-7.47-3.27-8.22-7.24s1.61-7,5.28-7h53.63c3.67,0,7.68,3.12,8.94,7s-.75,7.24-4.52,7.24Zm84.94,0c-3.78,0-8-3.27-9.43-7.24s.5-7,4.17-7h53.41c3.67,0,8.2,3.12,10.19,7s.46,7.24-3.31,7.24Zm85.47,0c-3.77,0-8.49-3.27-10.57-7.24s-.83-7,2.84-7h103.08c3.67,0,9,3.12,11.92,7s2.49,7.24-1.29,7.24Zm-669,23.92c-3.95,0-4.31-3.56-1-7.91s8.82-7.71,12.66-7.71h68.23c3.83,0,4.84,3.43,2.26,7.71s-7.9,7.92-11.85,7.92Zm101.13,0c-4,0-5.15-3.56-2.68-7.92s7.52-7.71,11.36-7.71h63.92c3.84,0,5.54,3.43,3.75,7.71s-6.54,7.92-10.49,7.92Zm680-15.63c3.84,0,9.65,3.42,12.9,7.7s2.71,7.93-1.24,7.93h-70.3c-4,0-9.25-3.57-11.86-7.93s-1.56-7.7,2.28-7.7Zm-98.15,0c3.84,0,8.92,3.42,11.35,7.7s1.29,7.93-2.67,7.93h-65.85c-4,0-8.68-3.57-10.5-7.93s-.09-7.7,3.75-7.7Zm-99.48,0c3.84,0,8.26,3.42,9.86,7.7s-.24,7.93-4.19,7.93H653c-4,0-5.84-3.56-4.21-7.92s6-7.71,9.86-7.71h373.81Z"></path><path class="cls-11" d="M738.56,886.69c-4,0-6.86-2-8.15-5s-1-6.93.87-11.08a24.71,24.71,0,0,1,8-9.62,18,18,0,0,1,10.12-3.68h192.4a17.63,17.63,0,0,1,10,3.68,24,24,0,0,1,7.83,9.62c1.81,4.15,2,8.1.65,11.08s-4.23,5-8.26,5Z"></path><path class="cls-12" d="M526.18,437.76H894.7c23.92,0,46.23,16.12,49.56,35.83l36.8,217.87c3.33,19.71-13.54,35.83-37.46,35.83H575.08c-24,0-46.27-16.12-49.6-35.83l-36.8-217.87C485.35,453.88,502.22,437.76,526.18,437.76Z"></path><path class="cls-13" d="M1018.69,427V655.65a43.65,43.65,0,0,1-43.5,43.54H606.66a43.67,43.67,0,0,1-43.55-43.54V427Z"></path><path class="cls-14" d="M606.66,347.35H975.19a43.66,43.66,0,0,1,43.5,43.54V427H563.11V390.89A43.67,43.67,0,0,1,606.66,347.35Z"></path><path class="cls-15" d="M585.77,555.89a9,9,0,0,1,8.79-15.79L653.47,573a23.08,23.08,0,0,1,23.08-1l89.93-61a20.52,20.52,0,0,1-.36-3.78c0-11.5,9.85-20.83,22-20.83s22,9.33,22,20.83v0l86.46,39.11a22.69,22.69,0,0,1,13.84-4.64,23.11,23.11,0,0,1,7,1.08l63.34-63.17a9,9,0,1,1,12.75,12.82l-62.63,62.46a19.7,19.7,0,0,1,1.53,7.64c0,11.51-9.85,20.83-22,20.83s-22-9.32-22-20.83h0L802,523.39a23,23,0,0,1-24.57,2l-89.93,61a20.33,20.33,0,0,1,.36,3.77c0,11.51-9.85,20.83-22,20.83s-22-9.32-22-20.83c0-.63,0-1.26.09-1.87l-58.14-32.44Zm80.05,44a9.66,9.66,0,1,0-10.19-9.65,9.93,9.93,0,0,0,10.19,9.65Zm244.6-27.69a9.66,9.66,0,1,0-10.19-9.65,9.93,9.93,0,0,0,10.19,9.65Zm-122.3-55.31a9.67,9.67,0,1,0-10.19-9.66A9.94,9.94,0,0,0,788.12,516.85Z"></path><path class="cls-16" d="M583.61,677.15h42.12V603.83H583.61v73.32Zm366.9,0h42.12V571.45H950.51v105.7Zm-61.15,0h42.12V615.82H889.36v61.33Zm-61.15,0h42.12V600.23H828.21v76.92Zm-61.15,0h42.12V570H767.06v107.2Zm-61.15,0H748V624.22H705.91v52.93Zm-61.15,0h42.12v-38H644.76Z"></path><path class="cls-17" d="M868.65,376.11a15.57,15.57,0,1,1-15.57,15.57,15.56,15.56,0,0,1,15.57-15.57Zm94.1,0a15.57,15.57,0,1,1-15.61,15.57,15.58,15.58,0,0,1,15.61-15.57Zm-47.07,0a15.57,15.57,0,1,1-15.57,15.57A15.56,15.56,0,0,1,915.68,376.11Z"></path><path class="cls-18" d="M644.66,396.29h368.53c23.91,0,46.22,16.12,49.55,35.83L1099.54,650c3.33,19.72-13.54,35.84-37.45,35.84H693.56c-24,0-46.27-16.12-49.6-35.84l-36.8-217.87C603.83,412.41,620.7,396.29,644.66,396.29Z"></path><path class="cls-13" d="M1132.49,383.43V612.1a43.66,43.66,0,0,1-43.5,43.55H720.46a43.67,43.67,0,0,1-43.54-43.55V383.43Z"></path><path class="cls-19" d="M710.41,424.84H1099v9.07H710.41v-9.07Zm0,117.14H1099v9.07H710.41V542Zm0,58.57H1099v9.07H710.41v-9.07Zm0-117.14H1099v9.07H710.41Z"></path><path class="cls-14" d="M720.46,303.8H1089a43.66,43.66,0,0,1,43.5,43.55v36.08H676.92V347.35A43.67,43.67,0,0,1,720.46,303.8Z"></path><path class="cls-20" d="M982.46,332.56a15.58,15.58,0,1,1-15.57,15.57,15.56,15.56,0,0,1,15.57-15.57Zm94.09,0a15.58,15.58,0,1,1-15.61,15.57,15.58,15.58,0,0,1,15.61-15.57Zm-47.06,0a15.58,15.58,0,1,1-15.57,15.57A15.56,15.56,0,0,1,1029.49,332.56Z"></path><path class="cls-5" d="M770.67,482.75H759.9V458.93h-5.67v23.82H743.47v69.36h10.76v31.64h5.67V552.11h10.77V482.75Zm305.88,32.56h-10.76v48.44h-5.67V515.31h-10.76V464.62h10.76V444.1h5.67v20.52h10.76v50.69Zm-34,3.3H1031.8v-51h-5.67v51h-10.76v35.72h10.76v27.32h5.67V554.33h10.77V518.61Zm-102-61.46H929.84V433.33h-5.67v23.82H913.41v69.36h10.76v31.64h5.67V526.51H940.6V457.15Zm-34,83.76H895.85v48.44h-5.67V540.91H879.42V490.23h10.76V469.7h5.67v20.53h10.77v50.68Zm-34,3.3H861.87v-51h-5.68v51H845.43v35.72h10.76v27.32h5.68V579.93h10.76Z"></path><path class="cls-21" d="M804.65,458.93H793.89V439.74h-5.67v19.19H777.46V503.6h10.76v46.21h5.67V503.6h10.76V458.93Zm203.93,16.79H997.82v-21.2h-5.68v21.2H981.38v50.79h10.76v30.66h5.68V526.51h10.76V475.72Zm-34-42.39H963.83v-19.2h-5.67v19.2H947.39V478h10.77v46.2h5.67V478h10.76V433.33Zm-136,68H827.88V480.13h-5.67v21.19H811.44v50.79h10.77v30.66h5.67V552.11h10.76Z"></path><g id="Group_3471" data-name="Group 3471"><circle id="Ellipse_116" data-name="Ellipse 116" class="cls-22" cx="1076.01" cy="348.31" r="15.69"></circle></g><g id="Group_3472" data-name="Group 3472"><circle id="Ellipse_117" data-name="Ellipse 117" class="cls-23" cx="1029.17" cy="348.31" r="15.69"></circle></g><g id="Group_3473" data-name="Group 3473"><circle id="Ellipse_118" data-name="Ellipse 118" class="cls-24" cx="982.34" cy="348.31" r="15.69"></circle></g></g></g></svg>