<svg xmlns="http://www.w3.org/2000/svg" viewBox="0 0 860.96 499.79"><defs><style>      .cls-1, .cls-2 {        fill: #f7c200;      }      .cls-3, .cls-4 {        fill: #ffdf54;      }      .cls-5, .cls-6 {        fill: #ffc530;      }      .cls-7, .cls-8, .cls-9 {        fill: #fcac0b;      }      .cls-10, .cls-11 {        fill: #e66770;      }      .cls-12, .cls-13 {        fill: #d6e4fd;      }      .cls-14, .cls-15 {        fill: #2c4e7f;      }      .cls-16 {        fill: #55c25a;      }      .cls-8 {        opacity: .45;      }      .cls-8, .cls-9, .cls-6, .cls-4 {        mix-blend-mode: multiply;      }      .cls-9, .cls-6, .cls-4 {        opacity: .5;      }      .cls-17 {        fill: #b4ccfd;        opacity: .15;      }      .cls-17, .cls-18, .cls-2, .cls-15, .cls-19, .cls-13, .cls-20, .cls-21, .cls-22, .cls-23, .cls-24, .cls-11, .cls-25, .cls-26, .cls-27 {        fill-rule: evenodd;      }      .cls-18 {        fill: #002952;        opacity: .25;      }      .cls-19 {        fill: #283e67;      }      .cls-20 {        fill: #cdd9ea;      }      .cls-21 {        fill: #ff8055;      }      .cls-22 {        fill: #93b3c2;      }      .cls-23 {        fill: #9cadd3;      }      .cls-24 {        fill: #e4ebfd;      }      .cls-25 {        fill: #fff;      }      .cls-26 {        fill: #e55f1b;      }      .cls-27 {        fill: #004c80;      }      .cls-28 {        isolation: isolate;      }    </style></defs><g class="cls-28"><g id="artwork"><g><g><path class="cls-2" d="M426.68,65.37c6.1,0,11.04,4.93,11.04,11.03s-4.94,11.04-11.04,11.04-11.03-4.94-11.03-11.04,4.93-11.03,11.03-11.03Z"></path><path class="cls-11" d="M392.79,65.37c6.1,0,11.04,4.93,11.04,11.03s-4.94,11.04-11.04,11.04-11.03-4.94-11.03-11.04,4.93-11.03,11.03-11.03Z"></path><g><path class="cls-27" d="M767.83,213.96h15.15v-25.49h7.98v25.49h15.15v84.69h-15.15v33.99h-7.98v-33.99h-15.15v-84.69h0ZM0,117H15.15v-22.54h7.99v22.54h15.15v77.27h-15.15v19.53h-7.99v-19.53H0V117H0Zm219.38,218.39h15.15v26.14h7.99v-26.14h15.15v-31.74h-15.15v-38.97h-7.99v38.97h-15.15v31.74h0Zm54.84-20.79h15.15v34.9h7.99v-34.9h15.15v-70.61h-15.15v-21.91h-7.99v21.91h-15.15v70.61h0Zm54.85-118.71h15.15v-26.3h7.99v26.3h15.15v78.19h-15.15v35.42h-7.99v-35.42h-15.15v-78.19h0Zm164.53,25.02h15.15v-19.23h7.99v19.23h15.15v92.03h-15.15v16.68h-7.99v-16.68h-15.15v-92.03h0Zm54.85-64.77h15.15v-28.15h7.99v28.15h15.15v72.18h-15.15v22.25h-7.99v-22.25h-15.15v-72.18h0Zm54.84-38.51h15.15v-25.42h7.99v25.42h15.15v27.56h-15.15v44.53h-7.99v-44.53h-15.15v-27.56Z"></path><path class="cls-21" d="M822.67,243.33h15.19v-29.06h7.92v29.06h15.19v28.1h-15.19v61.23h-7.92v-61.23h-15.19v-28.1h0Zm-109.69,6.7h15.19v44.5h7.92v-44.5h15.19v-58.68h-15.19v-27.36h-7.92v27.36h-15.19v58.68h0Zm-54.84-25.67h15.19v22.84h7.92v-22.84h15.19v-70.29h-15.19v-33.59h-7.92v33.59h-15.19v70.29h0Zm-219.38,111.09h15.19v33.41h7.92v-33.41h15.19v-47.25h-15.19v-10.21h-7.92v10.21h-15.19v47.25h0Zm-54.85-95.89h15.19v-21.18h7.92v21.18h15.19v80.46h-15.19v20.64h-7.92v-20.64h-15.19v-80.46h0Zm-219.38,36.87h15.19v-27.71h7.92v27.71h15.19v47.45h-15.19v28.95h-7.92v-28.95h-15.19v-47.45h0Zm-54.85-62.87h15.19v-43.03h7.92v43.03h15.19v62.33h-15.19v12.58h-7.92v-12.58h-15.19v-62.33h0Zm-54.84,5.82h15.19v21.32h7.92v-21.32h15.18v-79.18h-15.18v-13.41h-7.92v13.41h-15.19v79.18Z"></path></g><g><path class="cls-20" d="M672.48,394.1H195.67c-9.47,0-22.91,.49-29.25,6.12-11.13,8.55-146.83,99.3-70.34,99.57H772.08c76.65,0-59.43-91.18-70.34-99.57-6.37-5.66-19.95-6.12-29.25-6.12Z"></path><path class="cls-15" d="M666.44,382.96H198.65c-9.29,0-22.48,.49-28.7,6.12l-90.74,71.05c-.06,13.6-1.47,28.37,21.73,28.45H764.14c23.16,0,21.79-14.9,21.73-28.45l-90.74-71.05c-6.25-5.66-19.57-6.12-28.7-6.12Z"></path><path class="cls-24" d="M681.28,369.46H230.17s-46.77,0-46.77,0c-12.82,0-27.86,3.48-32.31,8.47-26.68,29.98-44.49,49.99-71.11,79.9-4.89,5.49,4.56,8.84,22.36,8.84H634.51s127.83,0,127.83,0c17.8,0,27.25-3.34,22.36-8.84-26.62-29.91-44.43-49.92-71.11-79.9-4.52-5.08-19.49-8.47-32.31-8.47Z"></path><rect class="cls-14" x="159.2" width="545.6" height="369.46" rx="24.19" ry="24.19"></rect><rect class="cls-12" x="178.35" y="19.71" width="507.3" height="330.03"></rect><path class="cls-22" d="M245.16,398.17c2.64,0,3.55,2.21,2.16,4.97-1.47,2.81-4.8,5.12-7.52,5.12h-74.77c-2.67,0-2.98-2.31-.85-5.12,2.09-2.76,5.78-4.96,8.37-4.96h72.61Zm227.22-5.35c-2.55,0-4.85-2.12-5.12-4.69-.26-2.53,1.55-4.57,4.04-4.57h37.09c2.48,0,4.95,2.03,5.56,4.57,.62,2.57-.9,4.69-3.45,4.69h-38.12Zm-59.11,0c-2.55,0-4.49-2.12-4.31-4.69,.17-2.53,2.34-4.57,4.82-4.57h37.04c2.48,0,4.65,2.03,4.83,4.57,.18,2.57-1.76,4.69-4.31,4.69h-38.07Zm-59.26,0c-2.55,0-4.07-2.11-3.45-4.69,.61-2.53,3.07-4.56,5.56-4.56h37.09c2.48,0,4.3,2.03,4.04,4.57-.27,2.57-2.57,4.69-5.12,4.69h-38.12Zm-59.11,0c-2.55,0-3.76-2.12-2.69-4.69,1.05-2.53,3.91-4.56,6.39-4.56h37.04c2.43,0,3.9,2.03,3.2,4.56-.71,2.57-3.38,4.69-5.88,4.69h-38.07Zm-59.21,0c-2.55,0-3.39-2.12-1.89-4.69,1.49-2.53,4.7-4.56,7.18-4.56h37.09c2.48,0,3.6,2.03,2.47,4.56-1.15,2.57-4.19,4.69-6.74,4.69h-38.12Zm-59.16,0c-2.55,0-2.93-2.12-.97-4.69,1.92-2.53,5.38-4.56,7.87-4.56h37.04c2.48,0,3.2,2.03,1.63,4.56-1.6,2.57-4.94,4.69-7.49,4.69h-38.07Zm473.36,0c-2.55,0-5.9-2.11-7.49-4.69-1.57-2.54-.86-4.57,1.62-4.57h37.14c2.48,0,6,2.04,7.92,4.57,1.95,2.57,1.53,4.69-1.03,4.69-12.71,0-25.41,0-38.17,0h0Zm-59.11,0c-2.55,0-5.58-2.11-6.74-4.69-1.14-2.54-.02-4.57,2.46-4.57h36.99c2.48,0,5.7,2.03,7.19,4.57,1.51,2.57,.66,4.69-1.89,4.69h-38.02Zm-59.16,0c-2.6,0-5.27-2.11-5.98-4.69-.7-2.53,.77-4.57,3.3-4.57h37.04c2.48,0,5.35,2.03,6.4,4.57,1.06,2.57-.14,4.69-2.69,4.69h-38.07Zm-267.03,15.44c-2.67,0-3.73-2.31-2.38-5.12,1.28-2.76,4.46-4.97,7.1-4.97h37.81c2.59,0,3.94,2.21,2.99,4.97-.97,2.81-3.95,5.11-6.61,5.11-13.01,0-25.96,0-38.91,0h0Zm59.97,0c-2.67,0-4.12-2.31-3.23-5.11,.87-2.76,3.68-4.97,6.27-4.97h37.76c2.59,0,4.26,2.21,3.82,4.97-.5,2.81-3.04,5.11-5.71,5.11h-38.91Zm59.91,0c-2.67,0-4.45-2.31-4.04-5.11,.35-2.76,2.74-4.97,5.33-4.97h37.87c2.59,0,4.68,2.21,4.65,4.97-.03,2.81-2.24,5.11-4.9,5.11h-38.91Zm59.97,0c-2.67,0-4.89-2.31-4.94-5.11-.05-2.76,2.02-4.96,4.61-4.96h37.76c2.59,0,5.05,2.21,5.53,4.96,.44,2.81-1.38,5.11-4.05,5.11h-38.91Zm59.97,0c-2.67,0-5.27-2.31-5.8-5.11-.57-2.76,1.13-4.96,3.72-4.96h37.87c2.59,0,5.42,2.21,6.31,4.96,.91,2.81-.53,5.11-3.19,5.11h-38.91Zm59.97,0c-2.67,0-5.66-2.31-6.66-5.11-.98-2.76,.36-4.96,2.95-4.96h37.71c2.59,0,5.79,2.21,7.19,4.96,1.37,2.81,.33,5.11-2.34,5.11h-38.85Zm60.35,0c-2.67,0-6-2.31-7.46-5.11-1.49-2.76-.59-4.96,2-4.96h72.77c2.59,0,6.33,2.21,8.42,4.96,2.13,2.81,1.76,5.11-.91,5.11h-74.82Zm-472.31,16.89c-2.79,0-3.04-2.52-.71-5.59,2.29-3.03,6.23-5.44,8.94-5.44,16.04,0,32.08,0,48.17,0,2.71,0,3.42,2.42,1.6,5.44-1.84,3.07-5.58,5.59-8.37,5.59h-49.63Zm71.4,0c-2.79,0-3.64-2.52-1.89-5.59,1.72-3.03,5.31-5.44,8.02-5.44h45.13c2.71,0,3.91,2.42,2.65,5.44-1.28,3.07-4.62,5.59-7.41,5.59h-46.5Zm480.1-11.04c2.71,0,6.81,2.42,9.11,5.44,2.33,3.08,1.92,5.6-.88,5.6h-49.63c-2.79,0-6.53-2.52-8.38-5.6-1.81-3.02-1.1-5.44,1.61-5.44h48.17Zm-69.3,0c2.71,0,6.3,2.42,8.01,5.44,1.75,3.08,.91,5.6-1.88,5.6h-46.5c-2.79,0-6.13-2.52-7.41-5.6-1.26-3.02-.06-5.44,2.65-5.44h45.13Zm-70.24,0c2.71,0,5.83,2.42,6.97,5.44,1.16,3.08-.17,5.6-2.96,5.6H296.48c-2.79,0-4.13-2.52-2.97-5.59,1.14-3.03,4.25-5.44,6.96-5.44h131.9c43.97,0,87.99,0,132.01,0Z"></path><path class="cls-23" d="M356.91,454.73c-2.85,0-4.84-1.38-5.75-3.55-.88-2.1-.72-4.89,.61-7.82,1.25-2.75,3.33-5.13,5.65-6.79,2.25-1.62,4.8-2.6,7.14-2.6h135.84c2.34,0,4.85,.98,7.08,2.6,2.29,1.66,4.32,4.04,5.53,6.79,1.28,2.93,1.38,5.72,.45,7.82-.95,2.17-2.99,3.55-5.83,3.55h-150.72Z"></path><g><path class="cls-18" d="M225.09,133.64H485.28c16.89,0,32.64,11.38,34.99,25.3l25.98,153.82c2.35,13.92-9.56,25.3-26.44,25.3H259.61c-16.91,0-32.67-11.38-35.02-25.3l-25.98-153.82c-2.35-13.92,9.56-25.3,26.47-25.3Z"></path><path class="cls-25" d="M569.51,124.56v161.44c0,16.92-13.83,30.75-30.72,30.75H278.6c-16.91,0-30.74-13.83-30.74-30.75V124.56h321.65Z"></path><path class="cls-13" d="M271.51,153.8h274.36v6.4H271.51v-6.4h0Zm0,82.7h274.36v6.4H271.51v-6.4h0Zm0,41.35h274.36v6.4H271.51v-6.4h0Zm0-82.7h274.36v6.4H271.51v-6.4Z"></path><path class="cls-19" d="M278.6,68.34h260.19c16.88,0,30.72,13.83,30.72,30.74v25.48H247.86v-25.48c0-16.91,13.83-30.74,30.74-30.74Z"></path><path class="cls-17" d="M463.58,88.65c6.08,0,11,4.91,11,10.99s-4.92,11-11,11-10.99-4.92-10.99-11,4.92-10.99,10.99-10.99h0Zm66.43,0c6.05,0,10.99,4.91,10.99,10.99s-4.94,11-10.99,11-11.02-4.92-11.02-11,4.94-10.99,11.02-10.99h0Zm-33.23,0c6.08,0,11,4.91,11,10.99s-4.92,11-11,11-10.99-4.92-10.99-11,4.91-10.99,10.99-10.99Z"></path><path class="cls-27" d="M314.05,194.68h-7.6v-16.82h-4v16.82h-7.6v48.97h7.6v22.34h4v-22.34h7.6v-48.97h0Zm215.97,22.99h-7.6v34.2h-4v-34.2h-7.6v-35.79h7.6v-14.49h4v14.49h7.6v35.79h0Zm-24,2.33h-7.6v-35.98h-4v35.98h-7.6v25.22h7.6v19.28h4v-19.28h7.6v-25.22h0Zm-71.99-43.39h-7.6v-16.82h-4v16.82h-7.6v48.97h7.6v22.34h4v-22.34h7.6v-48.97h0Zm-24,59.14h-7.6v34.2h-4v-34.2h-7.6v-35.79h7.6v-14.49h4v14.49h7.6v35.79h0Zm-24,2.33h-7.6v-35.98h-4v35.98h-7.6v25.22h7.6v19.28h4v-19.28h7.6v-25.22Z"></path><path class="cls-26" d="M338.05,177.87h-7.6v-13.55h-4v13.55h-7.6v31.54h7.6v32.62h4v-32.62h7.6v-31.54h0Zm143.98,11.85h-7.6v-14.96h-4v14.96h-7.6v35.86h7.6v21.65h4v-21.65h7.6v-35.86h0Zm-24-29.93h-7.6v-13.55h-4v13.55h-7.6v31.54h7.6v32.62h4v-32.62h7.6v-31.54h0Zm-95.98,48h-7.6v-14.96h-4v14.96h-7.6v35.86h7.6v21.65h4v-21.65h7.6v-35.86Z"></path></g><g><path class="cls-18" d="M316.24,97.71h260.19c16.89,0,32.64,11.38,34.99,25.3l25.98,153.82c2.35,13.92-9.56,25.3-26.44,25.3H350.77c-16.91,0-32.67-11.38-35.02-25.3l-25.98-153.82c-2.35-13.92,9.56-25.3,26.47-25.3Z"></path><path class="cls-25" d="M658.02,92.79V254.24c0,16.92-13.83,30.75-30.72,30.75H367.12c-16.91,0-30.74-13.83-30.74-30.75V92.79h321.65Z"></path><path class="cls-19" d="M367.12,36.57h260.19c16.88,0,30.72,13.83,30.72,30.74v25.48H336.37v-25.48c0-16.91,13.83-30.74,30.74-30.74Z"></path><path class="cls-17" d="M552.1,56.88c6.08,0,11,4.91,11,10.99s-4.92,11-11,11-10.99-4.92-10.99-11,4.92-10.99,10.99-10.99h0Zm66.43,0c6.05,0,10.99,4.91,10.99,10.99s-4.94,11-10.99,11-11.02-4.92-11.02-11,4.94-10.99,11.02-10.99h0Zm-33.23,0c6.08,0,11,4.91,11,10.99s-4.92,11-11,11-10.99-4.92-10.99-11,4.91-10.99,10.99-10.99Z"></path><g><g><polygon class="cls-7" points="580.21 240.88 527.01 240.88 533.25 213.65 586.45 213.65 580.21 240.88"></polygon><polygon class="cls-8" points="567.69 213.65 532.53 213.65 526.29 240.88 578.1 240.88 567.69 213.65"></polygon><polygon class="cls-9" points="533.25 213.65 527.01 240.88 541.18 240.88 580.64 213.65 533.25 213.65"></polygon><polygon class="cls-3" points="622.56 213.65 628.8 240.88 580.21 240.88 586.45 213.65 622.56 213.65"></polygon><polygon class="cls-4" points="622.56 213.65 580.21 240.88 628.8 240.88 622.56 213.65"></polygon></g><g><polygon class="cls-7" points="526.56 240.88 473.36 240.88 479.6 213.65 532.8 213.65 526.56 240.88"></polygon><polygon class="cls-8" points="514.04 213.65 478.88 213.65 472.64 240.88 524.45 240.88 514.04 213.65"></polygon><polygon class="cls-9" points="479.6 213.65 473.36 240.88 487.53 240.88 526.99 213.65 479.6 213.65"></polygon><polygon class="cls-3" points="568.91 213.65 575.15 240.88 526.56 240.88 532.8 213.65 568.91 213.65"></polygon><polygon class="cls-4" points="568.91 213.65 526.56 240.88 575.15 240.88 568.91 213.65"></polygon></g><g><polygon class="cls-7" points="471.69 240.88 418.49 240.88 424.73 213.65 477.93 213.65 471.69 240.88"></polygon><polygon class="cls-9" points="424.73 213.65 418.49 240.88 432.65 240.88 472.12 213.65 424.73 213.65"></polygon><polygon class="cls-3" points="514.04 213.65 520.27 240.88 471.69 240.88 477.93 213.65 514.04 213.65"></polygon><polygon class="cls-4" points="514.04 213.65 471.69 240.88 520.27 240.88 514.04 213.65"></polygon></g><g><polygon class="cls-5" points="417.24 240.88 364.04 240.88 370.28 213.65 423.48 213.65 417.24 240.88"></polygon><polygon class="cls-8" points="459.59 213.65 424.73 213.65 418.49 240.88 470.29 240.88 459.59 213.65"></polygon><polygon class="cls-6" points="370.28 213.65 364.04 240.88 378.21 240.88 417.67 213.65 370.28 213.65"></polygon><polygon class="cls-3" points="459.59 213.65 465.83 240.88 417.24 240.88 423.48 213.65 459.59 213.65"></polygon><polygon class="cls-4" points="459.59 213.65 417.24 240.88 465.83 240.88 459.59 213.65"></polygon></g><g><polygon class="cls-7" points="554.62 213.53 501.42 213.53 507.66 186.31 560.86 186.31 554.62 213.53"></polygon><polygon class="cls-8" points="542.1 186.31 506.94 186.31 500.7 213.53 552.51 213.53 542.1 186.31"></polygon><polygon class="cls-9" points="507.66 186.31 501.42 213.53 515.59 213.53 555.05 186.31 507.66 186.31"></polygon><polygon class="cls-3" points="596.97 186.31 603.21 213.53 554.62 213.53 560.86 186.31 596.97 186.31"></polygon><polygon class="cls-4" points="596.97 186.31 554.62 213.53 603.21 213.53 596.97 186.31"></polygon></g><g><polygon class="cls-7" points="499.75 213.53 446.55 213.53 452.79 186.31 505.99 186.31 499.75 213.53"></polygon><polygon class="cls-9" points="452.79 186.31 446.55 213.53 460.71 213.53 500.18 186.31 452.79 186.31"></polygon><polygon class="cls-3" points="542.1 186.31 548.33 213.53 499.75 213.53 505.99 186.31 542.1 186.31"></polygon><polygon class="cls-4" points="542.1 186.31 499.75 213.53 548.33 213.53 542.1 186.31"></polygon></g><g><polygon class="cls-5" points="445.3 213.53 392.1 213.53 398.34 186.31 451.54 186.31 445.3 213.53"></polygon><polygon class="cls-8" points="487.65 186.31 452.79 186.31 446.55 213.53 498.36 213.53 487.65 186.31"></polygon><polygon class="cls-6" points="398.34 186.31 392.1 213.53 406.27 213.53 445.73 186.31 398.34 186.31"></polygon><polygon class="cls-3" points="487.65 186.31 493.89 213.53 445.3 213.53 451.54 186.31 487.65 186.31"></polygon><polygon class="cls-4" points="487.65 186.31 445.3 213.53 493.89 213.53 487.65 186.31"></polygon></g><g><polygon class="cls-7" points="529.47 186.19 476.27 186.19 482.51 158.97 535.71 158.97 529.47 186.19"></polygon><polygon class="cls-9" points="482.51 158.97 476.27 186.19 490.43 186.19 529.9 158.97 482.51 158.97"></polygon><polygon class="cls-3" points="571.82 158.97 578.05 186.19 529.47 186.19 535.71 158.97 571.82 158.97"></polygon><polygon class="cls-4" points="571.82 158.97 529.47 186.19 578.05 186.19 571.82 158.97"></polygon></g><g><polygon class="cls-5" points="475.67 186.19 422.48 186.19 428.71 158.97 481.91 158.97 475.67 186.19"></polygon><polygon class="cls-8" points="518.02 158.91 482.51 158.97 476.27 186.19 528.07 186.19 518.02 158.91"></polygon><polygon class="cls-6" points="428.71 158.97 422.48 186.19 436.64 186.19 476.1 158.97 428.71 158.97"></polygon><polygon class="cls-3" points="518.02 158.97 524.26 186.19 475.67 186.19 481.91 158.97 518.02 158.97"></polygon><polygon class="cls-4" points="518.02 158.97 475.67 186.19 524.26 186.19 518.02 158.97"></polygon></g><g><polygon class="cls-5" points="499.75 158.85 446.55 158.85 452.79 131.62 505.99 131.62 499.75 158.85"></polygon><polygon class="cls-6" points="452.79 131.62 446.55 158.85 460.71 158.85 500.18 131.62 452.79 131.62"></polygon><polygon class="cls-3" points="542.1 131.62 548.33 158.85 499.75 158.85 505.99 131.62 542.1 131.62"></polygon><polygon class="cls-4" points="542.1 131.62 499.75 158.85 548.33 158.85 542.1 131.62"></polygon></g></g></g></g></g><g id="Group_3471" data-name="Group 3471"><circle id="Ellipse_116" data-name="Ellipse 116" class="cls-16" cx="618.37" cy="67.87" r="11.08"></circle></g><g id="Group_3472" data-name="Group 3472"><circle id="Ellipse_117" data-name="Ellipse 117" class="cls-1" cx="585.3" cy="67.87" r="11.08"></circle></g><g id="Group_3473" data-name="Group 3473"><circle id="Ellipse_118" data-name="Ellipse 118" class="cls-10" cx="552.23" cy="67.87" r="11.08"></circle></g></g></g></g></svg>