<svg xmlns="http://www.w3.org/2000/svg" viewBox="0 0 124 47.675"><g id="Group_9265" data-name="Group 9265" transform="translate(-111.961 -519.896)"><g id="Group_5223" data-name="Group 5223" transform="translate(111.961 519.896)"><g id="Group_5222" data-name="Group 5222"><path id="Path_4619" data-name="Path 4619" d="M189.489,558.282a1.667,1.667,0,0,1-1.627-1.575v-31.1a2.17,2.17,0,0,0-2.083-2.295h-8.033a1.719,1.719,0,0,1-1.523-1.681,1.661,1.661,0,0,1,1.523-1.626h23.277a1.565,1.565,0,0,1,1.574,1.626,1.6,1.6,0,0,1-1.574,1.681H191.012v33.393a1.658,1.658,0,0,1-1.523,1.575" transform="translate(-141.441 -519.947)" fill="#fff"></path><path id="Path_4620" data-name="Path 4620" d="M238.535,558.325a1.578,1.578,0,0,1-1.576-1.575V521.676a1.616,1.616,0,0,1,1.576-1.575h19.973a1.617,1.617,0,0,1,1.576,1.575,1.674,1.674,0,0,1-1.576,1.681H242.57a2.349,2.349,0,0,0-2.41,2.577c0,.157,0,9.43,0,9.43h16.407a1.653,1.653,0,0,1,0,3.3H240.162V556.75a1.624,1.624,0,0,1-1.627,1.575" transform="translate(-169.303 -519.99)" fill="#fff"></path><path id="Path_4621" data-name="Path 4621" d="M318.418,555.637,309.247,541.5a4.718,4.718,0,0,1-.592-2.449,5.533,5.533,0,0,1,.834-2.905l8.948-13.78a1.661,1.661,0,0,0-.388-2.142,1.6,1.6,0,0,0-2.389.531l-9.936,15.316-9.938-15.316a1.615,1.615,0,0,0-2.325-.573,1.665,1.665,0,0,0-.444,2.209l10.8,16.619-10.787,16.629a1.728,1.728,0,0,0,.4,2.285,1.687,1.687,0,0,0,2.254-.519l10.046-15.461L315.768,557.4a1.715,1.715,0,0,0,2.253.519,1.741,1.741,0,0,0,.4-2.285" transform="translate(-194.904 -519.896)" fill="#fff"></path><path id="Path_4622" data-name="Path 4622" d="M143.8,558.337a1.6,1.6,0,0,1-1.412-.959l-11.753-27.867a1.8,1.8,0,0,0-1.491-.97,2.07,2.07,0,0,0-1.73,1.321L115.888,557.4a1.619,1.619,0,0,1-2.1.782,1.552,1.552,0,0,1-.878-2l14.795-35.1a1.512,1.512,0,0,1,1.461-1,1.692,1.692,0,0,1,1.5,1.1l14.644,34.984a1.5,1.5,0,0,1,0,1.215,1.588,1.588,0,0,1-.8.8,1.861,1.861,0,0,1-.717.165" transform="translate(-112.354 -519.98)" fill="#fff"></path><path id="Path_4623" data-name="Path 4623" d="M113.722,565.427a1.763,1.763,0,0,1,0-3.526h22.085l1.49,3.526Z" transform="translate(-111.961 -539.166)" fill="#ee4e1c"></path></g></g><g id="Group_5224" data-name="Group 5224" transform="translate(111.999 563.353)"><path id="Path_4624" data-name="Path 4624" d="M113.581,600.372h.776l1.545,4.016h-.795l-.314-.827h-1.639l-.326.827h-.795Zm.393,1.065-.539,1.379h1.074Z" transform="translate(-112.032 -600.271)" fill="#fff"></path><path id="Path_4625" data-name="Path 4625" d="M129.2,600.941l-.539.533a1.591,1.591,0,0,0-1.191-.541,1.36,1.36,0,0,0-.993.394,1.288,1.288,0,0,0-.4.955,1.322,1.322,0,0,0,.416.986,1.412,1.412,0,0,0,1.025.4,1.257,1.257,0,0,0,.668-.167,1.169,1.169,0,0,0,.439-.522h-1.163v-.718h2.021l.005.169a1.965,1.965,0,0,1-.273,1,1.9,1.9,0,0,1-.707.721,2.016,2.016,0,0,1-1.019.248,2.261,2.261,0,0,1-1.116-.272,1.986,1.986,0,0,1-.775-.773,2.161,2.161,0,0,1-.285-1.084,2.013,2.013,0,0,1,.527-1.387,2.077,2.077,0,0,1,1.627-.7,2.488,2.488,0,0,1,.98.194A2.257,2.257,0,0,1,129.2,600.941Z" transform="translate(-118.123 -600.185)" fill="#fff"></path><path id="Path_4626" data-name="Path 4626" d="M135.558,600.372h.764v3.287h1.114v.729h-1.878Z" transform="translate(-122.824 -600.271)" fill="#fff"></path><path id="Path_4627" data-name="Path 4627" d="M143.07,600.185a2,2,0,0,1,1.466.617,2.055,2.055,0,0,1,.613,1.5,2.031,2.031,0,0,1-.605,1.488,2.1,2.1,0,0,1-2.971-.016,2.11,2.11,0,0,1,1.5-3.593Zm-.009.748a1.26,1.26,0,0,0-.937.388,1.351,1.351,0,0,0-.38.986,1.284,1.284,0,0,0,.478,1.054,1.311,1.311,0,0,0,.852.3,1.245,1.245,0,0,0,.927-.393,1.416,1.416,0,0,0,0-1.94A1.254,1.254,0,0,0,143.061,600.933Z" transform="translate(-125.309 -600.185)" fill="#fff"></path><path id="Path_4628" data-name="Path 4628" d="M151.259,604.388v-4.016h.631a3.258,3.258,0,0,1,.8.071,1.08,1.08,0,0,1,.574.355.936.936,0,0,1,.213.612.885.885,0,0,1-.1.416,1.054,1.054,0,0,1-.315.351,1.254,1.254,0,0,1,.535.43,1.087,1.087,0,0,1,.169.61,1.131,1.131,0,0,1-.175.617,1.114,1.114,0,0,1-.451.417,1.732,1.732,0,0,1-.763.138Zm.764-3.287v.846h.167a.621.621,0,0,0,.415-.117.4.4,0,0,0,.135-.319.374.374,0,0,0-.128-.3.591.591,0,0,0-.392-.11Zm0,1.529v1.029h.192a1.189,1.189,0,0,0,.642-.12.407.407,0,0,0,.166-.35.49.49,0,0,0-.194-.409,1.074,1.074,0,0,0-.646-.15Z" transform="translate(-130.027 -600.271)" fill="#fff"></path><path id="Path_4629" data-name="Path 4629" d="M159.442,600.372h.775l1.545,4.016h-.795l-.314-.827h-1.639l-.327.827h-.795Zm.392,1.065-.539,1.379h1.074Z" transform="translate(-133.07 -600.271)" fill="#fff"></path><path id="Path_4630" data-name="Path 4630" d="M167.373,600.372h.764v3.287h1.114v.729h-1.878Z" transform="translate(-137.419 -600.271)" fill="#fff"></path><path id="Path_4631" data-name="Path 4631" d="M177.288,600.372h.764v3.287h1.114v.729h-1.878Z" transform="translate(-141.968 -600.271)" fill="#fff"></path><path id="Path_4632" data-name="Path 4632" d="M183.078,600.372h2.192v.748h-1.433v.726h1.433v.734h-1.433v1.057h1.433v.751h-2.192Z" transform="translate(-144.624 -600.271)" fill="#fff"></path><path id="Path_4633" data-name="Path 4633" d="M190.635,600.372h.775l1.545,4.016h-.795l-.314-.827h-1.639l-.326.827h-.8Zm.392,1.065-.539,1.379h1.074Z" transform="translate(-147.38 -600.271)" fill="#fff"></path><path id="Path_4634" data-name="Path 4634" d="M198.572,600.372h.906a3,3,0,0,1,1.3.217,1.7,1.7,0,0,1,.7.706,2.282,2.282,0,0,1,.276,1.141,2.309,2.309,0,0,1-.154.854,1.768,1.768,0,0,1-.426.646,1.506,1.506,0,0,1-.588.355,4.183,4.183,0,0,1-1.1.1h-.919Zm.759.737v2.534h.355a1.77,1.77,0,0,0,.76-.121.9.9,0,0,0,.386-.4,1.482,1.482,0,0,0,.15-.7,1.331,1.331,0,0,0-.358-.992,1.435,1.435,0,0,0-1.035-.317Z" transform="translate(-151.732 -600.271)" fill="#fff"></path><path id="Path_4635" data-name="Path 4635" d="M207.045,600.372h2.193v.748H207.8v.726h1.434v.734H207.8v1.057h1.434v.751h-2.193Z" transform="translate(-155.618 -600.271)" fill="#fff"></path><path id="Path_4636" data-name="Path 4636" d="M213.748,600.372h.81a2.682,2.682,0,0,1,.947.119.97.97,0,0,1,.454.395,1.206,1.206,0,0,1,.172.652,1.111,1.111,0,0,1-.19.662,1.152,1.152,0,0,1-.572.4l.951,1.786h-.836l-.9-1.7h-.069v1.7h-.765Zm.765,1.57h.239a.938.938,0,0,0,.5-.1.36.36,0,0,0,.137-.318.386.386,0,0,0-.068-.228.38.38,0,0,0-.182-.14,1.389,1.389,0,0,0-.419-.042h-.209Z" transform="translate(-158.693 -600.271)" fill="#fff"></path><path id="Path_4637" data-name="Path 4637" d="M224.933,600.372h.4v4.016h-.4Z" transform="translate(-163.824 -600.271)" fill="#fff"></path><path id="Path_4638" data-name="Path 4638" d="M228.62,604.388v-4.016h.087l2.673,3.078v-3.078h.4v4.016h-.09l-2.651-3.041v3.041Z" transform="translate(-165.516 -600.271)" fill="#fff"></path><path id="Path_4639" data-name="Path 4639" d="M243.359,600.185a2.084,2.084,0,0,1,1.527.608,2.111,2.111,0,0,1-1.494,3.61,2.058,2.058,0,0,1-1.508-.611,2.012,2.012,0,0,1-.615-1.48,2.134,2.134,0,0,1,.28-1.073,2.067,2.067,0,0,1,1.81-1.054Zm.018.39a1.718,1.718,0,0,0-1.469.858,1.742,1.742,0,0,0-.224.877,1.689,1.689,0,0,0,1.693,1.7,1.723,1.723,0,0,0,.865-.227,1.623,1.623,0,0,0,.62-.62,1.739,1.739,0,0,0,.223-.874,1.7,1.7,0,0,0-.223-.865,1.659,1.659,0,0,0-.627-.619A1.7,1.7,0,0,0,243.377,600.575Z" transform="translate(-171.318 -600.185)" fill="#fff"></path><path id="Path_4640" data-name="Path 4640" d="M251.821,604.388v-4.016h.087l2.673,3.078v-3.078h.4v4.016h-.09l-2.651-3.041v3.041Z" transform="translate(-176.159 -600.271)" fill="#fff"></path><path id="Path_4641" data-name="Path 4641" d="M260.7,600.372h.4V604h1.546v.388H260.7Z" transform="translate(-180.231 -600.271)" fill="#fff"></path><path id="Path_4642" data-name="Path 4642" d="M266.6,600.372h.4v4.016h-.4Z" transform="translate(-182.94 -600.271)" fill="#fff"></path><path id="Path_4643" data-name="Path 4643" d="M270.29,604.388v-4.016h.087l2.673,3.078v-3.078h.4v4.016h-.09l-2.651-3.041v3.041Z" transform="translate(-184.632 -600.271)" fill="#fff"></path><path id="Path_4644" data-name="Path 4644" d="M279.172,600.372h2.3v.393h-1.9v1.259h1.884v.393h-1.884v1.578h1.884v.393h-2.285Z" transform="translate(-188.706 -600.271)" fill="#fff"></path><path id="Path_4645" data-name="Path 4645" d="M289.308,600.765v-.393h2.2v.393h-.9v3.623h-.41v-3.623Z" transform="translate(-193.356 -600.271)" fill="#fff"></path><path id="Path_4646" data-name="Path 4646" d="M295.724,600.372h.8a4.82,4.82,0,0,1,.907.055,1.035,1.035,0,0,1,.582.351,1,1,0,0,1,.224.663,1.071,1.071,0,0,1-.154.576.955.955,0,0,1-.441.376,2.008,2.008,0,0,1-.792.13l1.445,1.865h-.5l-1.444-1.865h-.227v1.865h-.4Zm.4.393v1.365l.692.006a1.721,1.721,0,0,0,.595-.077.619.619,0,0,0,.3-.244.682.682,0,0,0,.108-.376.65.65,0,0,0-.11-.367.6.6,0,0,0-.287-.237,1.74,1.74,0,0,0-.591-.071Z" transform="translate(-196.299 -600.271)" fill="#fff"></path><path id="Path_4647" data-name="Path 4647" d="M304.533,600.372l1.873,4.016h-.434l-.632-1.322h-1.73l-.626,1.322h-.448l1.9-4.016Zm-.051.853-.688,1.454h1.373Z" transform="translate(-199.425 -600.271)" fill="#fff"></path><path id="Path_4648" data-name="Path 4648" d="M312.075,604.388v-4.016h.832a4.256,4.256,0,0,1,1.308.145,1.749,1.749,0,0,1,.914.71,2.16,2.16,0,0,1,.329,1.2,2.116,2.116,0,0,1-.261,1.063,1.683,1.683,0,0,1-.677.677,2.559,2.559,0,0,1-1.168.218Zm.385-.379h.464a4.318,4.318,0,0,0,1.155-.1,1.331,1.331,0,0,0,.713-.53,1.635,1.635,0,0,0,.259-.937,1.719,1.719,0,0,0-.281-.993,1.42,1.42,0,0,0-.784-.565,4.764,4.764,0,0,0-1.242-.114h-.284Z" transform="translate(-203.8 -600.271)" fill="#fff"></path><path id="Path_4649" data-name="Path 4649" d="M320.9,600.372h.4v4.016h-.4Z" transform="translate(-207.847 -600.271)" fill="#fff"></path><path id="Path_4650" data-name="Path 4650" d="M324.583,604.388v-4.016h.087l2.673,3.078v-3.078h.4v4.016h-.09L325,601.347v3.041Z" transform="translate(-209.538 -600.271)" fill="#fff"></path><path id="Path_4651" data-name="Path 4651" d="M337.19,600.961l-.311.294a2.383,2.383,0,0,0-.736-.5,1.973,1.973,0,0,0-.779-.171,1.856,1.856,0,0,0-.9.232,1.684,1.684,0,0,0-.662.63,1.624,1.624,0,0,0-.234.839,1.653,1.653,0,0,0,.243.861,1.725,1.725,0,0,0,.671.642,1.93,1.93,0,0,0,.94.233,1.607,1.607,0,0,0,1.048-.349,1.384,1.384,0,0,0,.508-.907H335.7v-.388h1.731a2.016,2.016,0,0,1-.553,1.479,1.98,1.98,0,0,1-1.465.547,2.2,2.2,0,0,1-1.764-.759,2.017,2.017,0,0,1-.5-1.352,2.069,2.069,0,0,1,.287-1.062,2.035,2.035,0,0,1,.786-.769,2.287,2.287,0,0,1,1.131-.277,2.522,2.522,0,0,1,.961.184A2.864,2.864,0,0,1,337.19,600.961Z" transform="translate(-213.466 -600.185)" fill="#fff"></path></g></g></svg>