<?xml version="1.0" encoding="UTF-8"?>
<svg xmlns="http://www.w3.org/2000/svg" viewBox="0 0 75.55 79.07">
  <defs>
    <style>.cls-1{fill:#4c4c4c;}.cls-2{fill:#ff8055;}</style>
  </defs>
  <g id="Слой_2" data-name="Слой 2">
    <g id="Layer_1" data-name="Layer 1">
      <path class="cls-1" d="M54.74,42.49,24.23,64H22.91l-13.4-9a1.82,1.82,0,0,0-2,3L22.37,68v11h2.49V68l28.48-20.1V59.87h2.49V48.45l14.3,13.2A1.82,1.82,0,0,0,72.6,59Z"></path>
      <path class="cls-2" d="M55.84,0A19.72,19.72,0,1,0,75.55,19.72,19.72,19.72,0,0,0,55.84,0Zm6.09,13.18a5.6,5.6,0,0,0-3.69-1.35,6.29,6.29,0,0,0-3.75,1.08,6.18,6.18,0,0,0-1.64,1.81A5.78,5.78,0,0,0,52,17h9.08l-.36,1.78H51.76c0,.19,0,.36,0,.53,0,.69,0,1.09,0,1.23h8.57L60,22.35H52a6,6,0,0,0,2.69,4.33A6.33,6.33,0,0,0,58,27.6a5.48,5.48,0,0,0,3.89-1.31V29a8.53,8.53,0,0,1-3.67.78q-6,0-8.14-5a13.61,13.61,0,0,1-.73-2.45h-2l.38-1.78h1.39c0-.37,0-.78,0-1.21,0-.18,0-.36,0-.55H47.35L47.73,17h1.54a8.44,8.44,0,0,1,4.3-6.23A9.7,9.7,0,0,1,58.3,9.62a7.63,7.63,0,0,1,4.16,1.08Z"></path>
      <path class="cls-1" d="M19.06,23.37A4.19,4.19,0,0,0,20,26.12a6.36,6.36,0,0,0,3.12,1.76V19a4.77,4.77,0,0,0-3,1.5A4.19,4.19,0,0,0,19.06,23.37Z"></path>
      <path class="cls-1" d="M25,31.42V41.2a4.75,4.75,0,0,0,3.1-1.62,5.07,5.07,0,0,0,1.22-3.45,4.31,4.31,0,0,0-.87-2.81A7.49,7.49,0,0,0,25,31.42Z"></path>
      <path class="cls-1" d="M24,7a24,24,0,1,0,24,24A23.95,23.95,0,0,0,24,7Zm6.54,34.48a7.81,7.81,0,0,1-5.5,2.4v3.24h-1.9V43.91a11.84,11.84,0,0,1-3.92-1.08,6.82,6.82,0,0,1-2.6-2.51,9,9,0,0,1-1.28-4.23l3.23-.61a8.18,8.18,0,0,0,1.32,3.81,4.71,4.71,0,0,0,3.25,1.91V31A13.27,13.27,0,0,1,19,29.43a5.92,5.92,0,0,1-2.36-2.37,7,7,0,0,1-.84-3.45,7,7,0,0,1,2.43-5.55,8.45,8.45,0,0,1,4.82-1.75V14.77H25v1.54A7.88,7.88,0,0,1,29.43,18,7.32,7.32,0,0,1,32,22.75l-3.32.5a5.53,5.53,0,0,0-1.19-2.9A4.44,4.44,0,0,0,25,19v9.27a24,24,0,0,1,3.21.95,7.94,7.94,0,0,1,2.45,1.6,6.46,6.46,0,0,1,1.45,2.25,7.68,7.68,0,0,1,.51,2.82A7.76,7.76,0,0,1,30.49,41.48Z"></path>
    </g>
  </g>
</svg>
