<svg xmlns="http://www.w3.org/2000/svg" viewBox="0 0 56 55.896"><g id="Group_5562" data-name="Group 5562" transform="translate(-837.704 -688.114)"><g id="Group_5265" data-name="Group 5265" transform="translate(837.704 688.114)"><g id="Group_5251" data-name="Group 5251" transform="translate(16.648 16.536)"><path id="Path_4588" data-name="Path 4588" d="M21433,7014.516l11.391,11.39a.775.775,0,0,1,0,1.069l-7.2,7.2a.772.772,0,0,1-1.07,0l-11.35-11.391-6.127,6.086a.337.337,0,0,1-.246.164.711.711,0,0,1-.945-.411l-12.172-32.607a1.008,1.008,0,0,1,0-.494.777.777,0,0,1,.986-.452l32.525,12.131a2.425,2.425,0,0,1,.33.164.771.771,0,0,1,0,1.069Z" transform="translate(-21405.25 -6995.025)" fill="#4c4c4c"></path></g><rect id="Rectangle_20134" data-name="Rectangle 20134" width="11.993" height="1.5" rx="0.75" transform="translate(22.559 11.557) rotate(-74)" fill="#ff8055"></rect><rect id="Rectangle_20135" data-name="Rectangle 20135" width="11.993" height="1.5" rx="0.75" transform="translate(17.674 11.999) rotate(-104)" fill="#ff8055"></rect><rect id="Rectangle_20136" data-name="Rectangle 20136" width="11.993" height="1.5" rx="0.75" transform="translate(12.696 14.77) rotate(-135)" fill="#ff8055"></rect><rect id="Rectangle_20137" data-name="Rectangle 20137" width="11.993" height="1.5" rx="0.75" transform="matrix(0.966, 0.259, -0.259, 0.966, 0.388, 14.688)" fill="#ff8055"></rect><rect id="Rectangle_20138" data-name="Rectangle 20138" width="11.993" height="1.5" rx="0.75" transform="matrix(0.966, -0.259, 0.259, 0.966, 1, 25.773)" fill="#ff8055"></rect></g></g></svg>