<svg xmlns="http://www.w3.org/2000/svg" xmlns:xlink="http://www.w3.org/1999/xlink" viewBox="0 0 135 40.0002"><defs><style>.cls-1{fill:#a6a6a6;}.cls-10,.cls-2,.cls-9{fill:#fff;}.cls-3{fill:url(#linear-gradient);}.cls-4{fill:url(#linear-gradient-2);}.cls-5{fill:url(#linear-gradient-3);}.cls-6{fill:url(#linear-gradient-4);}.cls-7{opacity:0.2;}.cls-7,.cls-8,.cls-9{isolation:isolate;}.cls-8{opacity:0.12;}.cls-9{opacity:0.25;}.cls-10{stroke:#fff;stroke-miterlimit:10;stroke-width:0.2px;}</style><linearGradient id="linear-gradient" x1="21.79964" y1="173.29039" x2="5.01723" y2="156.50798" gradientTransform="matrix(1, 0, 0, -1, 0, 182.0002)" gradientUnits="userSpaceOnUse"><stop offset="0" stop-color="#00a0ff"></stop><stop offset="0.00657" stop-color="#00a1ff"></stop><stop offset="0.2601" stop-color="#00beff"></stop><stop offset="0.5122" stop-color="#00d2ff"></stop><stop offset="0.7604" stop-color="#00dfff"></stop><stop offset="1" stop-color="#00e3ff"></stop></linearGradient><linearGradient id="linear-gradient-2" x1="33.83428" y1="161.99865" x2="9.63738" y2="161.99865" gradientTransform="matrix(1, 0, 0, -1, 0, 182.0002)" gradientUnits="userSpaceOnUse"><stop offset="0" stop-color="#ffe000"></stop><stop offset="0.4087" stop-color="#ffbd00"></stop><stop offset="0.7754" stop-color="orange"></stop><stop offset="1" stop-color="#ff9c00"></stop></linearGradient><linearGradient id="linear-gradient-3" x1="24.82685" y1="159.704" x2="2.06857" y2="136.94572" gradientTransform="matrix(1, 0, 0, -1, 0, 182.0002)" gradientUnits="userSpaceOnUse"><stop offset="0" stop-color="#ff3a44"></stop><stop offset="1" stop-color="#c31162"></stop></linearGradient><linearGradient id="linear-gradient-4" x1="7.29723" y1="181.82392" x2="17.45975" y2="171.6614" gradientTransform="matrix(1, 0, 0, -1, 0, 182.0002)" gradientUnits="userSpaceOnUse"><stop offset="0" stop-color="#32a071"></stop><stop offset="0.0685" stop-color="#2da771"></stop><stop offset="0.4762" stop-color="#15cf74"></stop><stop offset="0.8009" stop-color="#06e775"></stop><stop offset="1" stop-color="#00f076"></stop></linearGradient></defs><g id="&#x421;&#x43B;&#x43E;&#x439;_2" data-name="&#x421;&#x43B;&#x43E;&#x439; 2"><g id="artwork"><rect width="135" height="40" rx="5"></rect><path class="cls-1" d="M130,.8a4.20476,4.20476,0,0,1,4.1999,4.2002v30A4.20483,4.20483,0,0,1,130,39.2004H5A4.20485,4.20485,0,0,1,.8,35.0002v-30A4.20478,4.20478,0,0,1,5,.8H130m0-.7998H5a5.0147,5.0147,0,0,0-5,5v30a5.0147,5.0147,0,0,0,5,5H130a5.0147,5.0147,0,0,0,5-5v-30a5.0147,5.0147,0,0,0-5-5Z"></path><path class="cls-2" d="M68.1358,21.7517a4.25318,4.25318,0,1,0,4.2693,4.2531A4.19222,4.19222,0,0,0,68.1358,21.7517Zm0,6.8308a2.58419,2.58419,0,1,1,2.4004-2.5777A2.4606,2.4606,0,0,1,68.1358,28.5825Zm-9.3134-6.8308a4.25318,4.25318,0,1,0,4.2692,4.2531A4.19222,4.19222,0,0,0,58.8224,21.7517Zm0,6.8308a2.58419,2.58419,0,1,1,2.4004-2.5777A2.46054,2.46054,0,0,1,58.8224,28.5825ZM47.7436,23.0567V24.861h4.3177a3.76579,3.76579,0,0,1-.9828,2.2716,4.42019,4.42019,0,0,1-3.3349,1.321,4.80134,4.80134,0,0,1,0-9.6018,4.60187,4.60187,0,0,1,3.2544,1.2888l1.2727-1.2727a6.29436,6.29436,0,0,0-4.5271-1.8205,6.606,6.606,0,1,0,0,13.2106,6.03873,6.03873,0,0,0,4.6076-1.8527,5.962,5.962,0,0,0,1.5628-4.2209,5.87161,5.87161,0,0,0-.0968-1.1277Zm45.3083,1.4015a3.95284,3.95284,0,0,0-3.641-2.7065,4.042,4.042,0,0,0-4.0114,4.2531,4.162,4.162,0,0,0,4.2209,4.2532,4.23056,4.23056,0,0,0,3.5442-1.8849l-1.4499-.9666a2.42906,2.42906,0,0,1-2.0943,1.176,2.16354,2.16354,0,0,1-2.0622-1.2888l5.6871-2.3521ZM87.2522,25.876a2.33271,2.33271,0,0,1,2.2231-2.481,1.647,1.647,0,0,1,1.5789.9022Zm-4.6238,4.1242h1.8688V17.4986H82.6284Zm-3.061-7.298H79.503a2.94736,2.94736,0,0,0-2.2394-.9505,4.257,4.257,0,0,0,0,8.5063,2.89974,2.89974,0,0,0,2.2394-.9666h.0644v.6122c0,1.6272-.8699,2.4971-2.2716,2.4971a2.35325,2.35325,0,0,1-2.1426-1.5144l-1.6272.6767a4.05319,4.05319,0,0,0,3.7698,2.5132c2.1911,0,4.0438-1.2888,4.0438-4.4304V22.0094H79.5674Zm-2.1426,5.8803a2.5869,2.5869,0,0,1,0-5.1553,2.39672,2.39672,0,0,1,2.2715,2.5937A2.37677,2.37677,0,0,1,77.4248,28.5825Zm24.381-11.0837H97.3346V30.0002h1.8657V25.2638h2.6055a3.88833,3.88833,0,1,0,0-7.765Zm.0482,6.0252H99.2003V19.2387h2.6537a2.14311,2.14311,0,1,1,0,4.2853Zm11.5317-1.7953a3.50342,3.50342,0,0,0-3.3293,1.9139l1.6566.6916a1.76794,1.76794,0,0,1,1.7048-.9168,1.79665,1.79665,0,0,1,1.9622,1.6083v.1287a4.12779,4.12779,0,0,0-1.9461-.4825c-1.7852,0-3.6026.9811-3.6026,2.8146a2.888,2.888,0,0,0,3.104,2.7502,2.63235,2.63235,0,0,0,2.3804-1.2223h.0643v.965h1.8013V25.1866C117.1813,22.9671,115.5247,21.7287,113.3857,21.7287Zm-.2252,6.8514c-.6112,0-1.4636-.3055-1.4636-1.0615,0-.9649,1.0615-1.3349,1.9783-1.3349a3.32432,3.32432,0,0,1,1.7048.4182A2.26194,2.26194,0,0,1,113.1605,28.5801Zm10.5828-6.578-2.1391,5.42h-.0644l-2.2194-5.42H117.31l3.3292,7.5752-1.8978,4.2138h1.946l5.1306-11.789Zm-16.807,7.9981h1.8656V17.4988h-1.8656Z"></path><path class="cls-3" d="M10.4353,7.5381A2.00244,2.00244,0,0,0,9.9725,8.943V31.0591a2.00157,2.00157,0,0,0,.4628,1.4049l.074.0721,12.389-12.3889v-.2923L10.5093,7.4655Z"></path><path class="cls-4" d="M27.0277,24.2786l-4.1294-4.1314v-.2923l4.1304-4.1304.0931.0531,4.8928,2.7801c1.3976.794,1.3976,2.0932,0,2.8877l-4.8928,2.7801Z"></path><path class="cls-5" d="M27.1218,24.225l-4.2235-4.2239L10.4353,32.464a1.62671,1.62671,0,0,0,2.0781.0614L27.1218,24.225"></path><path class="cls-6" d="M27.1218,15.7771,12.5134,7.4767a1.62671,1.62671,0,0,0-2.0781.0614l12.463,12.463Z"></path><path class="cls-7" d="M27.0287,24.132,12.5134,32.3793a1.66561,1.66561,0,0,1-2.0036.0107h0l-.0745.0745h0l.074.0721.0005-.0005a1.66486,1.66486,0,0,0,2.0036-.0107L27.1218,24.225Z"></path><path class="cls-8" d="M10.4353,32.3184a2.00279,2.00279,0,0,1-.4628-1.4049v.1461a2.00261,2.00261,0,0,0,.4628,1.4049l.0745-.0745Z"></path><path class="cls-8" d="M32.0146,21.2988,27.0287,24.132l.0931.093,4.8928-2.7801a1.7548,1.7548,0,0,0,1.0483-1.4434h0A1.86229,1.86229,0,0,1,32.0146,21.2988Z"></path><path class="cls-9" d="M12.5134,7.6233l19.5012,11.08a1.86129,1.86129,0,0,1,1.0483,1.2978h0a1.75365,1.75365,0,0,0-1.0483-1.4439L12.5134,7.4772c-1.3976-.7941-2.5409-.1345-2.5409,1.4663v.1461C9.9725,7.4889,11.1158,6.8293,12.5134,7.6233Z"></path><path class="cls-10" d="M41.2802,13.0001v-6h1.8349a2.98265,2.98265,0,0,1,2.2129.834,2.93769,2.93769,0,0,1,.8291,2.166,2.93848,2.93848,0,0,1-.8291,2.166,2.98265,2.98265,0,0,1-2.2129.834Zm.7705-.7373h1.0644a2.25111,2.25111,0,0,0,1.6465-.5952,2.22635,2.22635,0,0,0,.6074-1.6675,2.2304,2.2304,0,0,0-.6074-1.6636,2.2455,2.2455,0,0,0-1.6465-.5991H42.0507Z"></path><path class="cls-10" d="M47.2392,13.0001v-6h.7705v6Z"></path><path class="cls-10" d="M51.0761,13.1339a2.2373,2.2373,0,0,1-1.2774-.4268,1.97618,1.97618,0,0,1-.8174-1.1987l.7041-.2847a1.60618,1.60618,0,0,0,.5147.8335,1.30191,1.30191,0,0,0,.876.3394,1.40447,1.40447,0,0,0,.8593-.2637.84462.84462,0,0,0,.3555-.7168.91783.91783,0,0,0-.3555-.7749,3.68483,3.68483,0,0,0-1.1269-.5073,3.00654,3.00654,0,0,1-1.207-.6494,1.35711,1.35711,0,0,1-.4112-1.0181,1.489,1.489,0,0,1,.5117-1.1225,1.87386,1.87386,0,0,1,1.3321-.4781,1.92807,1.92807,0,0,1,1.2402.3814,1.76368,1.76368,0,0,1,.6201.834l-.7031.2929a1.04316,1.04316,0,0,0-.373-.5278,1.31,1.31,0,0,0-1.5254.0044.75384.75384,0,0,0-.3145.6157.70034.70034,0,0,0,.2891.5659,2.77592,2.77592,0,0,0,.8506.4146,7.23853,7.23853,0,0,1,.7422.2768,3.37819,3.37819,0,0,1,.6025.356,1.41808,1.41808,0,0,1,.4609.5532,1.78671,1.78671,0,0,1,.1553.7666,1.6524,1.6524,0,0,1-.1797.7793,1.46413,1.46413,0,0,1-.4785.5449,2.37072,2.37072,0,0,1-.6406.3057A2.405,2.405,0,0,1,51.0761,13.1339Z"></path><path class="cls-10" d="M54.956,13.0001h-.7706v-6h2.045a1.89519,1.89519,0,0,1,1.3193.5068,1.743,1.743,0,0,1,0,2.5557,1.89339,1.89339,0,0,1-1.3193.5073H54.956Zm0-3.168h1.291a.99548.99548,0,0,0,.7793-.3261,1.03312,1.03312,0,0,0,0-1.4414.99432.99432,0,0,0-.7793-.3272H54.956Z"></path><path class="cls-10" d="M63.9853,12.2247a3.11568,3.11568,0,0,1-4.3995,0,3.06773,3.06773,0,0,1-.8838-2.2246,3.06773,3.06773,0,0,1,.8838-2.2246,3.10492,3.10492,0,0,1,4.3955.0039,3.06771,3.06771,0,0,1,.8877,2.2207A3.07169,3.07169,0,0,1,63.9853,12.2247Zm-3.8301-.5024a2.3069,2.3069,0,0,0,3.2597,0,2.348,2.348,0,0,0,.667-1.7222,2.348,2.348,0,0,0-.667-1.7222,2.3069,2.3069,0,0,0-3.2597,0,2.35121,2.35121,0,0,0-.666,1.7222A2.35121,2.35121,0,0,0,60.1552,11.7223Z"></path><path class="cls-10" d="M65.9511,13.0001v-6h.9384l2.9161,4.6675h.0332l-.0332-1.1563V7.0001h.7714v6h-.8046L66.7216,8.1065h-.0332l.0332,1.1563v3.7373Z"></path><path class="cls-10" d="M71.9511,13.0001v-6h.7705v6Z"></path><path class="cls-10" d="M74.0956,13.0001v-6h2.1699a1.76275,1.76275,0,0,1,1.2198.4648,1.50924,1.50924,0,0,1,.5156,1.169,1.30691,1.30691,0,0,1-.2227.7544,1.39242,1.39242,0,0,1-.5908.4946v.0332a1.52462,1.52462,0,0,1,.7295.5195,1.364,1.364,0,0,1,.2851.855,1.57458,1.57458,0,0,1-.541,1.2232,1.84748,1.84748,0,0,1-1.2783.4863Zm.7705-3.4277h1.3994a.89979.89979,0,0,0,.7002-.2891.89466.89466,0,0,0,.0078-1.2607.86027.86027,0,0,0-.6738-.2852H74.8661Zm0,2.6904h1.5508a.92.92,0,0,0,.7207-.3106.99585.99585,0,0,0,.2764-.6787,1.01029,1.01029,0,0,0-1.0313-.9804H74.8661Z"></path><path class="cls-10" d="M79.2411,13.0001v-6h.7705v5.2627h2.5977v.7373Z"></path><path class="cls-10" d="M87.0849,7.7374H84.3524V9.6397h2.4639v.7208H84.3524v1.9023h2.7325v.7373h-3.503v-6h3.503Z"></path><path class="cls-10" d="M93.8056,7.7374H91.0731V9.6397H93.537v.7208H91.0731v1.9023h2.7325v.7373h-3.503v-6h3.503Z"></path><path class="cls-10" d="M95.0116,13.0001v-6h.9385l2.916,4.6675h.0332l-.0332-1.1563V7.0001h.7715v6h-.8047L95.7821,8.1065h-.0332l.0332,1.1563v3.7373Z"></path></g></g></svg>