<svg xmlns="http://www.w3.org/2000/svg" viewBox="0 0 674.3 494.2"><defs><style>.cls-1{opacity:0.63;}.cls-2{fill:#c7d1e2;}.cls-3{fill:#efc3b2;}.cls-4{fill:#0b1917;}.cls-5{fill:#273749;}.cls-6{fill:#354665;}.cls-7{fill:#3a4e78;}.cls-8{fill:#c7592f;}.cls-9{fill:#dcada2;}.cls-10{fill:#bbb;}.cls-11{fill:#dbdbdb;}.cls-12{fill:#fff;}.cls-13{opacity:0.07;}.cls-14{fill:#dce6fc;}.cls-15{fill:#2d3e64;}.cls-16{fill:#d46732;}.cls-17{opacity:0.68;}.cls-18{fill:#f2f2f2;}.cls-19{opacity:0.3;}.cls-20{fill:#f1662b;}.cls-21{opacity:0.93;}.cls-22{opacity:0.52;}.cls-23{fill:#0e2c51;}.cls-24{opacity:0.36;}.cls-25{fill:#233152;}.cls-26{fill:#d56833;}</style></defs><g id="&#x421;&#x43B;&#x43E;&#x439;_2" data-name="&#x421;&#x43B;&#x43E;&#x439; 2"><g id="Layer_1" data-name="Layer 1"><g class="cls-1"><ellipse class="cls-2" cx="337.15" cy="484.87" rx="337.15" ry="9.33"></ellipse></g><polygon class="cls-3" points="389.07 448.8 389.99 465.81 373.38 468.72 368.04 464.25 371.02 445.92 389.07 448.8"></polygon><path class="cls-4" d="M390,465.39a50.4,50.4,0,0,1,1.52,10.27V483H342.73c-9.14,0-12.19-1.47-10.66-10.27s1.52-5.88,16.75-11.75c14.57-5.61,21.33-8.81,21.33-8.81s-1.52,5.88,3.05,8.81S388.43,465.39,390,465.39Z"></path><polygon class="cls-5" points="361 449 396.17 449 379.71 317.7 331.69 320.05 361 449"></polygon><path class="cls-6" d="M62.59,486.23h0c-1.51-.31-2.35-2.68-1.87-5.27L97.6,232.84c.49-2.59,11.28-2.57,12.79-2.26h0c1.51.31,11.51,4.55,11,7.14L66.21,482.09C65.73,484.67,64.1,486.54,62.59,486.23Z"></path><path class="cls-6" d="M185.08,486.23h0c1.51-.31,2.35-2.68,1.87-5.27L150.06,232.84c-.48-2.59-11.27-2.57-12.78-2.26h0c-1.51.31-11.51,4.55-11,7.14l55.2,244.37C181.94,484.67,183.57,486.54,185.08,486.23Z"></path><path class="cls-6" d="M485.8,486.23h0c-1.51-.31-2.35-2.68-4.87-5.27l36.89-248.12c3.48-2.59,14.27-2.57,15.78-2.26h0c1.52.31,11.51,4.55,11,7.14l-55.2,244.37C488.94,484.67,487.31,486.54,485.8,486.23Z"></path><path class="cls-6" d="M605.29,486.23h0c1.51-.31,2.36-2.68,1.87-5.27L570.28,232.84c-.49-2.59-11.28-2.57-12.79-2.26h0c-1.51.31-11.51,4.55-11,7.14l55.21,244.37C602.15,484.67,603.78,486.54,605.29,486.23Z"></path><rect class="cls-7" x="43.3" y="219.09" width="556.86" height="18.32" rx="6"></rect><polygon class="cls-8" points="364.05 325.28 370.15 487 374.74 487 374.74 325.28 364.05 325.28"></polygon><path class="cls-9" d="M375.07,22.27s0,34,3.52,43.38,15.24,11.72,15.24,18.76c0,2.34,24.62,2.34,28.13,1.17s4.69,0,4.69,0L429,66.82S409.07,12.9,407.89,12.9,375.07,22.27,375.07,22.27Z"></path><rect class="cls-10" x="189.05" y="165.25" width="68.89" height="53.98"></rect><path class="cls-10" d="M342.15,0H102.08a7.62,7.62,0,0,0-7.6,7.59V176.9a7.62,7.62,0,0,0,7.6,7.59H342.15a7.61,7.61,0,0,0,7.59-7.59V7.59A7.61,7.61,0,0,0,342.15,0Z"></path><path class="cls-11" d="M99.88,28V176.9a7.62,7.62,0,0,0,7.59,7.59H347.55a7.62,7.62,0,0,0,7.59-7.59V28Z"></path><path class="cls-12" d="M355.14,155V7.59A7.62,7.62,0,0,0,347.55,0H107.47a7.62,7.62,0,0,0-7.59,7.59V155Z"></path><g class="cls-13"><path class="cls-14" d="M349.24,155.73v-145a4.82,4.82,0,0,0-4.81-4.81H110.59a4.82,4.82,0,0,0-4.81,4.81v145Z"></path></g><polygon class="cls-3" points="294.11 448.8 295.03 465.81 278.42 468.72 273.08 464.25 276.06 445.92 294.11 448.8"></polygon><path class="cls-4" d="M295,465.39a50.4,50.4,0,0,1,1.52,10.27V483H247.77c-9.14,0-12.19-1.47-10.66-10.27s1.52-5.88,16.76-11.75c14.56-5.61,21.32-8.81,21.32-8.81s-1.52,5.88,3.05,8.81S293.48,465.39,295,465.39Z"></path><path class="cls-7" d="M466.24,191.62c.39-3.45-.68-7.21-1.16-10.59-1.43-10,1-19.1,1.91-29a203.25,203.25,0,0,0-.95-44.79c-.23-.57-.44-1.15-.68-1.73a6,6,0,0,1-.27-.78L425.48,89.1l-31.65,1.17s-31.66,12.9-39.86,16.41,2.34,12.9,0,34,0,134.82,0,133.65S463,238,463,238V181.71l2,15.85A48.09,48.09,0,0,0,466.24,191.62Z"></path><path class="cls-6" d="M451.27,270.81s5.45,43.8-31.65,43.8S312.94,321.22,300,320.05c-5.22-.48,2.34,129,2.34,129H267.21s-17.41-140.14-5.86-157.09c17.59-25.79,120.75-35.17,120.75-35.17Z"></path><path class="cls-6" d="M463.22,183.47l-1.4,44s24.58-9.31,29.31-16.41c7-10.55-10.29-92.75-12.9-97.3C473.55,105.51,458.3,102,458.3,102,454.14,106.12,462.15,160.41,463.22,183.47Z"></path><path class="cls-6" d="M368,219.23c5.55-31.87,2.34-96.13-7.54-115.29-2.74,1.14-5,2.1-6.53,2.74-8.21,3.52-12.9,5.86-15.24,27s-8.21,59.79-9.38,61-43.38,7-43.38,7l-4.69,17.59S368,219.24,368,219.23Z"></path><path class="cls-3" d="M249.63,219.23H284.8l1.63-17.5s-20.63,0-25.08,2.26C256.66,206.33,250.8,212.19,249.63,219.23Z"></path><rect class="cls-12" x="391.48" y="83.24" width="37.51" height="8.21" rx="2.54"></rect><path class="cls-15" d="M382.1,57.32S388,78.49,412.58,77.38,436,54,436,37.27s-4.69-29-16.41-31.19S378.53,5,374.3,5c-3.52,0-9,3-7.44,12.22,1.69,9.93,9.38,4.46,10.55,14.48S382.1,57.32,382.1,57.32Z"></path><polygon class="cls-8" points="447.87 325.28 472.65 485 468.07 485 432.6 325.28 447.87 325.28"></polygon><polygon class="cls-16" points="327.1 325.28 290.45 486.66 287.4 486.66 313.36 325.28 327.1 325.28"></polygon><path class="cls-16" d="M478.94,162.28a3.94,3.94,0,0,1,3.9,3.94V297.8s1.53,29-19.84,29H299.25a3.88,3.88,0,0,1-3.94-3.72V323a8.1,8.1,0,0,1,.12-1.45,3.87,3.87,0,0,1,3.86-3.13h36.15s15.62,2.4,21.37-22.9c6.65-29.29,12.79-102.44,15.43-126.71a6.34,6.34,0,0,1,6.21-5.66C394.56,162.86,465.2,162.12,478.94,162.28Z"></path><g class="cls-17"><rect class="cls-18" x="200.3" y="19" width="141.56" height="78.2" rx="2.42"></rect></g><g class="cls-19"><path class="cls-20" d="M212.2,65.1c1.63-.82,23.72-9,23.72-9s22.9,8.18,23.72,8.18S285,48.74,285,48.74l22.08,7.36L332.44,43V88H212.2Z"></path></g><polygon class="cls-20" points="332.44 88.2 211.99 88.2 211.99 29.1 212.4 29.1 212.4 87.8 332.44 87.8 332.44 88.2"></polygon><g class="cls-21"><circle class="cls-20" cx="235.92" cy="56.1" r="1.64"></circle></g><g class="cls-21"><circle class="cls-20" cx="259.64" cy="64.28" r="1.64"></circle></g><g class="cls-21"><circle class="cls-20" cx="285" cy="48.74" r="1.64"></circle></g><g class="cls-21"><circle class="cls-20" cx="307.08" cy="56.1" r="1.64"></circle></g><g class="cls-22"><rect class="cls-20" x="228.18" y="87.59" width="0.2" height="0.41"></rect><path class="cls-20" d="M228.39,86.77h-.21V86h.21Zm0-1.64h-.21v-.82h.21Zm0-1.63h-.21v-.82h.21Zm0-1.64h-.21V81h.21Zm0-1.64h-.21v-.81h.21Zm0-1.63h-.21v-.82h.21Zm0-1.64h-.21v-.82h.21Zm0-1.63h-.21V74.5h.21Zm0-1.64h-.21v-.82h.21Zm0-1.63h-.21v-.82h.21Zm0-1.64h-.21v-.82h.21Zm0-1.64h-.21V68h.21Zm0-1.63h-.21v-.82h.21Zm0-1.64h-.21v-.82h.21Zm0-1.63h-.21v-.82h.21Zm0-1.64h-.21v-.82h.21Zm0-1.64h-.21v-.81h.21Zm0-1.63h-.21v-.82h.21Zm0-1.64h-.21V56.5h.21Zm0-1.63h-.21v-.82h.21Zm0-1.64h-.21v-.82h.21Zm0-1.64h-.21V51.6h.21Zm0-1.63h-.21V50h.21Zm0-1.64h-.21v-.81h.21Zm0-1.63h-.21v-.82h.21Zm0-1.64h-.21v-.82h.21Zm0-1.63h-.21v-.82h.21Zm0-1.64h-.21v-.82h.21Zm0-1.64h-.21v-.81h.21Zm0-1.63h-.21v-.82h.21Zm0-1.64h-.21v-.82h.21Zm0-1.63h-.21v-.82h.21Zm0-1.64h-.21V33.6h.21Zm0-1.63h-.21V32h.21Zm0-1.64h-.21v-.82h.21Z"></path><rect class="cls-20" x="228.18" y="29.1" width="0.2" height="0.41"></rect></g><g class="cls-22"><rect class="cls-20" x="211.93" y="29" width="0.41" height="0.2"></rect><path class="cls-20" d="M331.22,29.2h-.82V29h.82Zm-1.63,0h-.81V29h.81Zm-1.63,0h-.81V29H328Zm-1.63,0h-.81V29h.81Zm-1.63,0h-.81V29h.81Zm-1.62,0h-.82V29h.82Zm-1.63,0h-.82V29h.82Zm-1.63,0H319V29h.82Zm-1.63,0h-.81V29h.81Zm-1.63,0h-.81V29h.81Zm-1.63,0h-.81V29h.81Zm-1.63,0h-.81V29h.81Zm-1.62,0h-.82V29h.82Zm-1.63,0h-.82V29h.82Zm-1.63,0h-.81V29h.81Zm-1.63,0H306V29h.81Zm-1.63,0h-.81V29h.81Zm-1.63,0h-.81V29h.81Zm-1.62,0h-.82V29h.82Zm-1.63,0h-.82V29h.82Zm-1.63,0h-.82V29h.82Zm-1.63,0h-.81V29H297Zm-1.63,0h-.81V29h.81Zm-1.63,0H293V29h.81Zm-1.63,0h-.81V29h.81Zm-1.62,0h-.82V29h.82Zm-1.63,0h-.82V29h.82Zm-1.63,0h-.82V29h.82Zm-1.63,0h-.81V29h.81Zm-1.63,0h-.81V29H284Zm-1.63,0h-.81V29h.81Zm-1.62,0h-.82V29h.82Zm-1.63,0h-.82V29h.82Zm-1.63,0h-.82V29h.82Zm-1.63,0H275V29h.81Zm-1.63,0h-.81V29h.81Zm-1.63,0h-.81V29h.81Zm-1.63,0h-.81V29H271Zm-1.62,0h-.82V29h.82Zm-1.63,0h-.82V29h.82Zm-1.63,0h-.82V29h.82Zm-1.63,0h-.81V29h.81Zm-1.63,0H262V29h.81Zm-1.63,0h-.81V29h.81Zm-1.63,0h-.81V29h.81Zm-1.62,0h-.82V29h.82Zm-1.63,0h-.82V29h.82Zm-1.63,0h-.81V29h.81Zm-1.63,0h-.81V29h.81Zm-1.63,0h-.81V29h.81Zm-1.63,0H249V29h.81Zm-1.62,0h-.82V29h.82Zm-1.63,0h-.82V29h.82Zm-1.63,0h-.82V29h.82Zm-1.63,0h-.81V29h.81Zm-1.63,0h-.81V29h.81Zm-1.63,0h-.81V29H240Zm-1.63,0h-.81V29h.81Zm-1.62,0H236V29h.82Zm-1.63,0h-.82V29h.82Zm-1.63,0h-.82V29h.82Zm-1.63,0h-.81V29h.81Zm-1.63,0h-.81V29h.81Zm-1.63,0h-.81V29h.81Zm-1.62,0h-.82V29H227Zm-1.63,0h-.82V29h.82Zm-1.63,0h-.82V29h.82Zm-1.63,0h-.81V29h.81Zm-1.63,0h-.81V29h.81Zm-1.63,0H218V29h.81Zm-1.62,0h-.82V29h.82Zm-1.63,0h-.82V29h.82Zm-1.63,0h-.82V29H214Z"></path><rect class="cls-20" x="332.03" y="29" width="0.41" height="0.2"></rect></g><g class="cls-22"><rect class="cls-20" x="211.93" y="45.36" width="0.41" height="0.2"></rect><path class="cls-20" d="M331.22,45.56h-.82v-.2h.82Zm-1.63,0h-.81v-.2h.81Zm-1.63,0h-.81v-.2H328Zm-1.63,0h-.81v-.2h.81Zm-1.63,0h-.81v-.2h.81Zm-1.62,0h-.82v-.2h.82Zm-1.63,0h-.82v-.2h.82Zm-1.63,0H319v-.2h.82Zm-1.63,0h-.81v-.2h.81Zm-1.63,0h-.81v-.2h.81Zm-1.63,0h-.81v-.2h.81Zm-1.63,0h-.81v-.2h.81Zm-1.62,0h-.82v-.2h.82Zm-1.63,0h-.82v-.2h.82Zm-1.63,0h-.81v-.2h.81Zm-1.63,0H306v-.2h.81Zm-1.63,0h-.81v-.2h.81Zm-1.63,0h-.81v-.2h.81Zm-1.62,0h-.82v-.2h.82Zm-1.63,0h-.82v-.2h.82Zm-1.63,0h-.82v-.2h.82Zm-1.63,0h-.81v-.2H297Zm-1.63,0h-.81v-.2h.81Zm-1.63,0H293v-.2h.81Zm-1.63,0h-.81v-.2h.81Zm-1.62,0h-.82v-.2h.82Zm-1.63,0h-.82v-.2h.82Zm-1.63,0h-.82v-.2h.82Zm-1.63,0h-.81v-.2h.81Zm-1.63,0h-.81v-.2H284Zm-1.63,0h-.81v-.2h.81Zm-1.62,0h-.82v-.2h.82Zm-1.63,0h-.82v-.2h.82Zm-1.63,0h-.82v-.2h.82Zm-1.63,0H275v-.2h.81Zm-1.63,0h-.81v-.2h.81Zm-1.63,0h-.81v-.2h.81Zm-1.63,0h-.81v-.2H271Zm-1.62,0h-.82v-.2h.82Zm-1.63,0h-.82v-.2h.82Zm-1.63,0h-.82v-.2h.82Zm-1.63,0h-.81v-.2h.81Zm-1.63,0H262v-.2h.81Zm-1.63,0h-.81v-.2h.81Zm-1.63,0h-.81v-.2h.81Zm-1.62,0h-.82v-.2h.82Zm-1.63,0h-.82v-.2h.82Zm-1.63,0h-.81v-.2h.81Zm-1.63,0h-.81v-.2h.81Zm-1.63,0h-.81v-.2h.81Zm-1.63,0H249v-.2h.81Zm-1.62,0h-.82v-.2h.82Zm-1.63,0h-.82v-.2h.82Zm-1.63,0h-.82v-.2h.82Zm-1.63,0h-.81v-.2h.81Zm-1.63,0h-.81v-.2h.81Zm-1.63,0h-.81v-.2H240Zm-1.63,0h-.81v-.2h.81Zm-1.62,0H236v-.2h.82Zm-1.63,0h-.82v-.2h.82Zm-1.63,0h-.82v-.2h.82Zm-1.63,0h-.81v-.2h.81Zm-1.63,0h-.81v-.2h.81Zm-1.63,0h-.81v-.2h.81Zm-1.62,0h-.82v-.2H227Zm-1.63,0h-.82v-.2h.82Zm-1.63,0h-.82v-.2h.82Zm-1.63,0h-.81v-.2h.81Zm-1.63,0h-.81v-.2h.81Zm-1.63,0H218v-.2h.81Zm-1.62,0h-.82v-.2h.82Zm-1.63,0h-.82v-.2h.82Zm-1.63,0h-.82v-.2H214Z"></path><rect class="cls-20" x="332.03" y="45.36" width="0.41" height="0.2"></rect></g><g class="cls-22"><rect class="cls-20" x="211.93" y="61.72" width="0.41" height="0.2"></rect><path class="cls-20" d="M331.22,61.92h-.82v-.2h.82Zm-1.63,0h-.81v-.2h.81Zm-1.63,0h-.81v-.2H328Zm-1.63,0h-.81v-.2h.81Zm-1.63,0h-.81v-.2h.81Zm-1.62,0h-.82v-.2h.82Zm-1.63,0h-.82v-.2h.82Zm-1.63,0H319v-.2h.82Zm-1.63,0h-.81v-.2h.81Zm-1.63,0h-.81v-.2h.81Zm-1.63,0h-.81v-.2h.81Zm-1.63,0h-.81v-.2h.81Zm-1.62,0h-.82v-.2h.82Zm-1.63,0h-.82v-.2h.82Zm-1.63,0h-.81v-.2h.81Zm-1.63,0H306v-.2h.81Zm-1.63,0h-.81v-.2h.81Zm-1.63,0h-.81v-.2h.81Zm-1.62,0h-.82v-.2h.82Zm-1.63,0h-.82v-.2h.82Zm-1.63,0h-.82v-.2h.82Zm-1.63,0h-.81v-.2H297Zm-1.63,0h-.81v-.2h.81Zm-1.63,0H293v-.2h.81Zm-1.63,0h-.81v-.2h.81Zm-1.62,0h-.82v-.2h.82Zm-1.63,0h-.82v-.2h.82Zm-1.63,0h-.82v-.2h.82Zm-1.63,0h-.81v-.2h.81Zm-1.63,0h-.81v-.2H284Zm-1.63,0h-.81v-.2h.81Zm-1.62,0h-.82v-.2h.82Zm-1.63,0h-.82v-.2h.82Zm-1.63,0h-.82v-.2h.82Zm-1.63,0H275v-.2h.81Zm-1.63,0h-.81v-.2h.81Zm-1.63,0h-.81v-.2h.81Zm-1.63,0h-.81v-.2H271Zm-1.62,0h-.82v-.2h.82Zm-1.63,0h-.82v-.2h.82Zm-1.63,0h-.82v-.2h.82Zm-1.63,0h-.81v-.2h.81Zm-1.63,0H262v-.2h.81Zm-1.63,0h-.81v-.2h.81Zm-1.63,0h-.81v-.2h.81Zm-1.62,0h-.82v-.2h.82Zm-1.63,0h-.82v-.2h.82Zm-1.63,0h-.81v-.2h.81Zm-1.63,0h-.81v-.2h.81Zm-1.63,0h-.81v-.2h.81Zm-1.63,0H249v-.2h.81Zm-1.62,0h-.82v-.2h.82Zm-1.63,0h-.82v-.2h.82Zm-1.63,0h-.82v-.2h.82Zm-1.63,0h-.81v-.2h.81Zm-1.63,0h-.81v-.2h.81Zm-1.63,0h-.81v-.2H240Zm-1.63,0h-.81v-.2h.81Zm-1.62,0H236v-.2h.82Zm-1.63,0h-.82v-.2h.82Zm-1.63,0h-.82v-.2h.82Zm-1.63,0h-.81v-.2h.81Zm-1.63,0h-.81v-.2h.81Zm-1.63,0h-.81v-.2h.81Zm-1.62,0h-.82v-.2H227Zm-1.63,0h-.82v-.2h.82Zm-1.63,0h-.82v-.2h.82Zm-1.63,0h-.81v-.2h.81Zm-1.63,0h-.81v-.2h.81Zm-1.63,0H218v-.2h.81Zm-1.62,0h-.82v-.2h.82Zm-1.63,0h-.82v-.2h.82Zm-1.63,0h-.82v-.2H214Z"></path><rect class="cls-20" x="332.03" y="61.72" width="0.41" height="0.2"></rect></g><g class="cls-22"><rect class="cls-20" x="211.93" y="78.08" width="0.41" height="0.2"></rect><path class="cls-20" d="M331.22,78.28h-.82v-.2h.82Zm-1.63,0h-.81v-.2h.81Zm-1.63,0h-.81v-.2H328Zm-1.63,0h-.81v-.2h.81Zm-1.63,0h-.81v-.2h.81Zm-1.62,0h-.82v-.2h.82Zm-1.63,0h-.82v-.2h.82Zm-1.63,0H319v-.2h.82Zm-1.63,0h-.81v-.2h.81Zm-1.63,0h-.81v-.2h.81Zm-1.63,0h-.81v-.2h.81Zm-1.63,0h-.81v-.2h.81Zm-1.62,0h-.82v-.2h.82Zm-1.63,0h-.82v-.2h.82Zm-1.63,0h-.81v-.2h.81Zm-1.63,0H306v-.2h.81Zm-1.63,0h-.81v-.2h.81Zm-1.63,0h-.81v-.2h.81Zm-1.62,0h-.82v-.2h.82Zm-1.63,0h-.82v-.2h.82Zm-1.63,0h-.82v-.2h.82Zm-1.63,0h-.81v-.2H297Zm-1.63,0h-.81v-.2h.81Zm-1.63,0H293v-.2h.81Zm-1.63,0h-.81v-.2h.81Zm-1.62,0h-.82v-.2h.82Zm-1.63,0h-.82v-.2h.82Zm-1.63,0h-.82v-.2h.82Zm-1.63,0h-.81v-.2h.81Zm-1.63,0h-.81v-.2H284Zm-1.63,0h-.81v-.2h.81Zm-1.62,0h-.82v-.2h.82Zm-1.63,0h-.82v-.2h.82Zm-1.63,0h-.82v-.2h.82Zm-1.63,0H275v-.2h.81Zm-1.63,0h-.81v-.2h.81Zm-1.63,0h-.81v-.2h.81Zm-1.63,0h-.81v-.2H271Zm-1.62,0h-.82v-.2h.82Zm-1.63,0h-.82v-.2h.82Zm-1.63,0h-.82v-.2h.82Zm-1.63,0h-.81v-.2h.81Zm-1.63,0H262v-.2h.81Zm-1.63,0h-.81v-.2h.81Zm-1.63,0h-.81v-.2h.81Zm-1.62,0h-.82v-.2h.82Zm-1.63,0h-.82v-.2h.82Zm-1.63,0h-.81v-.2h.81Zm-1.63,0h-.81v-.2h.81Zm-1.63,0h-.81v-.2h.81Zm-1.63,0H249v-.2h.81Zm-1.62,0h-.82v-.2h.82Zm-1.63,0h-.82v-.2h.82Zm-1.63,0h-.82v-.2h.82Zm-1.63,0h-.81v-.2h.81Zm-1.63,0h-.81v-.2h.81Zm-1.63,0h-.81v-.2H240Zm-1.63,0h-.81v-.2h.81Zm-1.62,0H236v-.2h.82Zm-1.63,0h-.82v-.2h.82Zm-1.63,0h-.82v-.2h.82Zm-1.63,0h-.81v-.2h.81Zm-1.63,0h-.81v-.2h.81Zm-1.63,0h-.81v-.2h.81Zm-1.62,0h-.82v-.2H227Zm-1.63,0h-.82v-.2h.82Zm-1.63,0h-.82v-.2h.82Zm-1.63,0h-.81v-.2h.81Zm-1.63,0h-.81v-.2h.81Zm-1.63,0H218v-.2h.81Zm-1.62,0h-.82v-.2h.82Zm-1.63,0h-.82v-.2h.82Zm-1.63,0h-.82v-.2H214Z"></path><rect class="cls-20" x="332.03" y="78.08" width="0.41" height="0.2"></rect></g><g class="cls-22"><rect class="cls-20" x="260.9" y="87.59" width="0.2" height="0.41"></rect><path class="cls-20" d="M261.11,86.77h-.21V86h.21Zm0-1.64h-.21v-.82h.21Zm0-1.63h-.21v-.82h.21Zm0-1.64h-.21V81h.21Zm0-1.64h-.21v-.81h.21Zm0-1.63h-.21v-.82h.21Zm0-1.64h-.21v-.82h.21Zm0-1.63h-.21V74.5h.21Zm0-1.64h-.21v-.82h.21Zm0-1.63h-.21v-.82h.21Zm0-1.64h-.21v-.82h.21Zm0-1.64h-.21V68h.21Zm0-1.63h-.21v-.82h.21Zm0-1.64h-.21v-.82h.21Zm0-1.63h-.21v-.82h.21Zm0-1.64h-.21v-.82h.21Zm0-1.64h-.21v-.81h.21Zm0-1.63h-.21v-.82h.21Zm0-1.64h-.21V56.5h.21Zm0-1.63h-.21v-.82h.21Zm0-1.64h-.21v-.82h.21Zm0-1.64h-.21V51.6h.21Zm0-1.63h-.21V50h.21Zm0-1.64h-.21v-.81h.21Zm0-1.63h-.21v-.82h.21Zm0-1.64h-.21v-.82h.21Zm0-1.63h-.21v-.82h.21Zm0-1.64h-.21v-.82h.21Zm0-1.64h-.21v-.81h.21Zm0-1.63h-.21v-.82h.21Zm0-1.64h-.21v-.82h.21Zm0-1.63h-.21v-.82h.21Zm0-1.64h-.21V33.6h.21Zm0-1.63h-.21V32h.21Zm0-1.64h-.21v-.82h.21Z"></path><rect class="cls-20" x="260.9" y="29.1" width="0.2" height="0.41"></rect></g><g class="cls-22"><rect class="cls-20" x="293.62" y="87.59" width="0.2" height="0.41"></rect><path class="cls-20" d="M293.83,86.77h-.21V86h.21Zm0-1.64h-.21v-.82h.21Zm0-1.63h-.21v-.82h.21Zm0-1.64h-.21V81h.21Zm0-1.64h-.21v-.81h.21Zm0-1.63h-.21v-.82h.21Zm0-1.64h-.21v-.82h.21Zm0-1.63h-.21V74.5h.21Zm0-1.64h-.21v-.82h.21Zm0-1.63h-.21v-.82h.21Zm0-1.64h-.21v-.82h.21Zm0-1.64h-.21V68h.21Zm0-1.63h-.21v-.82h.21Zm0-1.64h-.21v-.82h.21Zm0-1.63h-.21v-.82h.21Zm0-1.64h-.21v-.82h.21Zm0-1.64h-.21v-.81h.21Zm0-1.63h-.21v-.82h.21Zm0-1.64h-.21V56.5h.21Zm0-1.63h-.21v-.82h.21Zm0-1.64h-.21v-.82h.21Zm0-1.64h-.21V51.6h.21Zm0-1.63h-.21V50h.21Zm0-1.64h-.21v-.81h.21Zm0-1.63h-.21v-.82h.21Zm0-1.64h-.21v-.82h.21Zm0-1.63h-.21v-.82h.21Zm0-1.64h-.21v-.82h.21Zm0-1.64h-.21v-.81h.21Zm0-1.63h-.21v-.82h.21Zm0-1.64h-.21v-.82h.21Zm0-1.63h-.21v-.82h.21Zm0-1.64h-.21V33.6h.21Zm0-1.63h-.21V32h.21Zm0-1.64h-.21v-.82h.21Z"></path><rect class="cls-20" x="293.62" y="29.1" width="0.2" height="0.41"></rect></g><g class="cls-22"><rect class="cls-20" x="326.34" y="87.59" width="0.2" height="0.41"></rect><path class="cls-20" d="M326.55,86.77h-.21V86h.21Zm0-1.64h-.21v-.82h.21Zm0-1.63h-.21v-.82h.21Zm0-1.64h-.21V81h.21Zm0-1.64h-.21v-.81h.21Zm0-1.63h-.21v-.82h.21Zm0-1.64h-.21v-.82h.21Zm0-1.63h-.21V74.5h.21Zm0-1.64h-.21v-.82h.21Zm0-1.63h-.21v-.82h.21Zm0-1.64h-.21v-.82h.21Zm0-1.64h-.21V68h.21Zm0-1.63h-.21v-.82h.21Zm0-1.64h-.21v-.82h.21Zm0-1.63h-.21v-.82h.21Zm0-1.64h-.21v-.82h.21Zm0-1.64h-.21v-.81h.21Zm0-1.63h-.21v-.82h.21Zm0-1.64h-.21V56.5h.21Zm0-1.63h-.21v-.82h.21Zm0-1.64h-.21v-.82h.21Zm0-1.64h-.21V51.6h.21Zm0-1.63h-.21V50h.21Zm0-1.64h-.21v-.81h.21Zm0-1.63h-.21v-.82h.21Zm0-1.64h-.21v-.82h.21Zm0-1.63h-.21v-.82h.21Zm0-1.64h-.21v-.82h.21Zm0-1.64h-.21v-.81h.21Zm0-1.63h-.21v-.82h.21Zm0-1.64h-.21v-.82h.21Zm0-1.63h-.21v-.82h.21Zm0-1.64h-.21V33.6h.21Zm0-1.63h-.21V32h.21Zm0-1.64h-.21v-.82h.21Z"></path><rect class="cls-20" x="326.34" y="29.1" width="0.2" height="0.41"></rect></g><g class="cls-19"><path class="cls-23" d="M153.8,48a24.5,24.5,0,1,0,24.5,24.5A24.5,24.5,0,0,0,153.8,48Zm0,39.44A14.94,14.94,0,1,1,168.74,72.5,14.94,14.94,0,0,1,153.8,87.44Z"></path></g><g class="cls-19"><path class="cls-10" d="M153.8,48v9.56A14.94,14.94,0,0,1,168.74,72.5h9.56A24.5,24.5,0,0,0,153.8,48Z"></path></g><g class="cls-21"><path class="cls-23" d="M162.54,60.39l5.78-7.62A24.34,24.34,0,0,0,153.8,48v9.56A14.86,14.86,0,0,1,162.54,60.39Z"></path></g><g class="cls-21"><path class="cls-23" d="M145.81,71.39v-.81a4.8,4.8,0,0,0,.79-.08,1.17,1.17,0,0,0,.58-.31,1.08,1.08,0,0,0,.23-.44,1.13,1.13,0,0,0,.05-.24h1v6h-1.22V71.39Z"></path><path class="cls-23" d="M151.37,73.94a1.2,1.2,0,0,0,.27.59.9.9,0,0,0,1.26-.1,1.27,1.27,0,0,0,.23-.78,1.31,1.31,0,0,0-.22-.78.76.76,0,0,0-.67-.32,1.08,1.08,0,0,0-.38.06.76.76,0,0,0-.42.37l-1.06,0,.42-3.34h3.33v1h-2.47l-.22,1.32a3,3,0,0,1,.43-.24,1.91,1.91,0,0,1,.63-.09,1.87,1.87,0,0,1,1.31.5,1.89,1.89,0,0,1,.55,1.47,2.27,2.27,0,0,1-.53,1.49,2,2,0,0,1-1.61.66,2.1,2.1,0,0,1-1.41-.46,1.8,1.8,0,0,1-.62-1.31Z"></path><path class="cls-23" d="M157.55,72.19a1.48,1.48,0,0,1-1.09.45,1.5,1.5,0,0,1-1.1-.45,1.57,1.57,0,0,1,0-2.2,1.55,1.55,0,1,1,2.19,2.2Zm-.62-.63a.68.68,0,0,0,0-.94.64.64,0,0,0-.47-.19.63.63,0,0,0-.47.19.65.65,0,0,0,0,.94.63.63,0,0,0,.47.19A.64.64,0,0,0,156.93,71.56Zm2.91-2h.64l-3.37,6.2h-.65Zm1.76,5.71a1.55,1.55,0,0,1-2.64-1.1A1.54,1.54,0,0,1,161.6,73a1.53,1.53,0,0,1,0,2.19ZM161,73.65a.68.68,0,0,0-.47-.19.67.67,0,0,0-.47.19.65.65,0,0,0-.2.47.68.68,0,0,0,.67.67.65.65,0,0,0,.47-.2.67.67,0,0,0,.19-.47A.68.68,0,0,0,161,73.65Z"></path></g><g class="cls-19"><rect class="cls-23" x="144.98" y="131.86" width="7.61" height="11.64"></rect></g><g class="cls-19"><rect class="cls-23" x="157.06" y="127.39" width="7.61" height="16.11"></rect></g><g class="cls-19"><rect class="cls-23" x="182.13" y="130.52" width="7.61" height="12.98"></rect></g><g class="cls-19"><rect class="cls-23" x="194.21" y="124.7" width="7.61" height="18.8"></rect></g><g class="cls-19"><rect class="cls-23" x="206.3" y="119.92" width="7.61" height="23.58"></rect></g><g class="cls-19"><rect class="cls-23" x="169.6" y="121.57" width="7.61" height="21.93"></rect></g><g class="cls-19"><rect class="cls-23" x="219.22" y="131.86" width="7.61" height="11.64"></rect></g><g class="cls-19"><rect class="cls-23" x="231.3" y="127.39" width="7.61" height="16.11"></rect></g><g class="cls-19"><rect class="cls-23" x="256.37" y="130.52" width="7.61" height="12.98"></rect></g><g class="cls-19"><rect class="cls-23" x="243.84" y="121.57" width="7.61" height="21.93"></rect></g><g class="cls-19"><rect class="cls-23" x="268.13" y="131.86" width="7.61" height="11.64"></rect></g><g class="cls-19"><rect class="cls-23" x="280.21" y="127.39" width="7.61" height="16.11"></rect></g><g class="cls-19"><rect class="cls-23" x="292.75" y="121.57" width="7.61" height="21.93"></rect></g><g class="cls-24"><polygon class="cls-23" points="145.14 125.42 144.81 124.75 169.08 113.07 191.95 114.86 213.64 110.21 213.78 110.34 226.71 121.54 246.76 112.82 246.93 112.93 264.24 124.17 305.98 107.65 306.26 108.35 264.15 125.02 246.69 113.66 226.57 122.41 213.44 111.03 192 115.62 191.95 115.61 169.22 113.83 145.14 125.42"></polygon></g><path class="cls-25" d="M130.81,30a.48.48,0,0,1-.46-.45V20.63a.62.62,0,0,0-.6-.66h-2.3a.5.5,0,0,1-.44-.48.47.47,0,0,1,.44-.46h6.67a.44.44,0,0,1,.45.46.45.45,0,0,1-.45.48h-2.87v9.57a.47.47,0,0,1-.44.45"></path><path class="cls-25" d="M136.88,30a.45.45,0,0,1-.45-.45v-10a.46.46,0,0,1,.45-.45h5.73a.46.46,0,0,1,.45.45.47.47,0,0,1-.45.48H138a.68.68,0,0,0-.69.74v2.7h4.7a.48.48,0,0,1,.47.49.47.47,0,0,1-.47.46h-4.7v5.18a.46.46,0,0,1-.47.45"></path><path class="cls-25" d="M152.44,29.25l-2.63-4.05a1.35,1.35,0,0,1-.17-.7,1.67,1.67,0,0,1,.24-.84l2.56-3.94a.49.49,0,0,0-.11-.62.46.46,0,0,0-.68.15l-2.85,4.39L146,19.25a.46.46,0,0,0-.66-.16.48.48,0,0,0-.13.63l3.09,4.77-3.09,4.76a.46.46,0,1,0,.76.51l2.88-4.43,2.88,4.43a.48.48,0,0,0,.64.14.49.49,0,0,0,.12-.65"></path><path class="cls-25" d="M126.06,30a.47.47,0,0,1-.41-.27l-3.37-8a.51.51,0,0,0-.42-.28.59.59,0,0,0-.5.38l-3.3,7.89a.47.47,0,0,1-.6.23.44.44,0,0,1-.25-.58l4.23-10a.43.43,0,0,1,.42-.29.47.47,0,0,1,.43.31l4.2,10a.38.38,0,0,1,0,.34.43.43,0,0,1-.23.23.44.44,0,0,1-.2.05"></path><path class="cls-26" d="M117.55,26.53a.5.5,0,0,1-.5-.5.5.5,0,0,1,.5-.51h6.33l.43,1Z"></path></g></g></svg>