<svg xmlns="http://www.w3.org/2000/svg" viewBox="0 0 759.66 968.52"><defs><style>      .cls-1 {        fill: none;        stroke: #cfd1d2;        stroke-miterlimit: 10;        stroke-width: 6px;      }      .cls-2 {        opacity: .05;      }      .cls-3 {        fill: #f7ca8f;      }      .cls-4 {        fill: #fac880;      }      .cls-5 {        fill: #fa7070;      }      .cls-6 {        fill: #fa6160;      }      .cls-7 {        fill: #fabfad;      }      .cls-8 {        fill: #ed927b;      }      .cls-9 {        fill: #ecb777;      }      .cls-10 {        fill: #fc7e55;      }      .cls-11 {        fill: #e3e3e3;      }      .cls-12 {        fill: #ef662b;      }      .cls-13 {        fill: #ffaf10;      }      .cls-14 {        fill: #fff;      }      .cls-15 {        fill: #ffdf54;      }      .cls-16 {        fill: #ffd522;      }      .cls-17 {        fill: #ffc530;      }      .cls-18 {        fill: #fcac0b;      }      .cls-19 {        fill: #e85455;      }      .cls-20 {        fill: #fdc0ad;      }      .cls-21 {        fill: #6b8cbe;      }      .cls-22 {        fill: #805352;      }      .cls-23 {        fill: #875c5c;      }      .cls-24 {        fill: #d8d8d8;      }      .cls-25 {        fill: #cacaca;      }      .cls-26 {        fill: #102b51;      }      .cls-27 {        fill: #1f3154;      }      .cls-28 {        fill: #374558;      }      .cls-29 {        fill: #191919;      }      .cls-30 {        fill: #3e4d5d;      }      .cls-31 {        fill: #61d1ce;      }      .cls-32 {        fill: #283e67;      }      .cls-33 {        fill: #57c7c8;      }      .cls-34 {        fill: #2c4eae;      }      .cls-35 {        fill: #2c4c79;      }      .cls-36 {        fill: #344e7b;      }      .cls-37 {        fill: #3c4e66;      }      .cls-38 {        fill: #4abab7;      }      .cls-39 {        fill: #714747;      }      .cls-40 {        fill: #919396;        mix-blend-mode: multiply;      }      .cls-41 {        opacity: .3;      }      .cls-42 {        opacity: .52;      }      .cls-43 {        opacity: .93;      }      .cls-44 {        isolation: isolate;      }    </style></defs><g class="cls-44"><g id="artwork"><g><g><g><g class="cls-41"><path class="cls-27" d="M318.47,132.92c6-.04,87.04,9.9,87.04,9.9,0,0,84.04,71.45,87.04,72.93,3,1.48,93.04-11.15,93.04-11.15l81.03,66.96,93.04-2.15v165.07L318.47,216.96v-84.04Z"></path></g><polygon class="cls-32" points="759.66 435.23 317.72 217.34 317.72 .5 319.22 1.24 319.22 216.58 759.66 433.73 759.66 435.23"></polygon><g class="cls-43"><ellipse class="cls-32" cx="405.51" cy="143.68" rx="4.7" ry="7.66" transform="translate(-2.32 280.65) rotate(-38.08)"></ellipse></g><g class="cls-43"><ellipse class="cls-32" cx="492.54" cy="216.61" rx="4.7" ry="7.66" transform="translate(-28.77 349.85) rotate(-38.08)"></ellipse></g><g class="cls-43"><ellipse class="cls-32" cx="585.58" cy="204.59" rx="4.7" ry="7.66" transform="translate(-1.56 404.67) rotate(-38.08)"></ellipse></g><g class="cls-43"><ellipse class="cls-32" cx="666.62" cy="271.56" rx="4.7" ry="7.66" transform="translate(-25.61 468.89) rotate(-38.08)"></ellipse></g><g class="cls-42"><polygon class="cls-27" points="377.88 246.23 377.13 245.86 377.13 244.36 377.88 244.73 377.88 246.23"></polygon><path class="cls-27" d="M377.88,241.73l-.75-.37v-3l.75,.37v3Zm0-6l-.75-.37v-3l.75,.37v3Zm0-6l-.75-.37v-3l.75,.37v3Zm0-6l-.75-.37v-3l.75,.37v3Zm0-6l-.75-.37v-3l.75,.37v3Zm0-6l-.75-.37v-3l.75,.37v3Zm0-6l-.75-.37v-3l.75,.37v3Zm0-6l-.75-.37v-3l.75,.37v3Zm0-6l-.75-.37v-3l.75,.37v3Zm0-6l-.75-.37v-3l.75,.37v3Zm0-6l-.75-.37v-3l.75,.37v3Zm0-6l-.75-.37v-3l.75,.37v3Zm0-6l-.75-.37v-3l.75,.37v3Zm0-6l-.75-.37v-3l.75,.37v3Zm0-6l-.75-.37v-3l.75,.37v3Zm0-6l-.75-.37v-3l.75,.37v3Zm0-6l-.75-.37v-3l.75,.37v3Zm0-6l-.75-.37v-3l.75,.37v3Zm0-6l-.75-.37v-3l.75,.37v3Zm0-6l-.75-.37v-3l.75,.37v3Zm0-6l-.75-.37v-3l.75,.37v3Zm0-6l-.75-.37v-3l.75,.37v3Zm0-6l-.75-.37v-3l.75,.37v3Zm0-6l-.75-.37v-3l.75,.37v3Zm0-6l-.75-.37v-3l.75,.37v3Zm0-6l-.75-.37v-3l.75,.37v3Zm0-6l-.75-.37v-3l.75,.37v3Zm0-6l-.75-.37v-3l.75,.37v3Zm0-6l-.75-.37v-3l.75,.37v3Zm0-6l-.75-.37v-3l.75,.37v3Zm0-6l-.75-.37v-3l.75,.37v3Zm0-6l-.75-.37v-3l.75,.37v3Zm0-6l-.75-.37v-3l.75,.37v3Zm0-6l-.75-.37v-3l.75,.37v3Zm0-6l-.75-.37v-3l.75,.37v3Z"></path><polygon class="cls-27" points="377.88 31.66 377.13 31.29 377.13 29.79 377.88 30.16 377.88 31.66"></polygon></g><g class="cls-42"><polygon class="cls-27" points="318.99 1.49 317.49 .75 317.49 0 318.99 .74 318.99 1.49"></polygon><path class="cls-27" d="M755.17,216.54l-2.99-1.47v-.75l2.99,1.47v.75Zm-5.98-2.95l-2.99-1.47v-.75l2.99,1.47v.75Zm-5.97-2.95l-2.99-1.47v-.75l2.99,1.47v.75Zm-5.98-2.95l-2.99-1.47v-.75l2.99,1.47v.75Zm-5.97-2.95l-2.99-1.47v-.75l2.99,1.47v.75Zm-5.98-2.95l-2.99-1.47v-.75l2.99,1.47v.75Zm-5.98-2.95l-2.99-1.47v-.75l2.99,1.47v.75Zm-5.97-2.95l-2.99-1.47v-.75l2.99,1.47v.75Zm-5.98-2.95l-2.99-1.47v-.75l2.99,1.47v.75Zm-5.98-2.95l-2.99-1.47v-.75l2.99,1.47v.75Zm-5.97-2.95l-2.99-1.47v-.75l2.99,1.47v.75Zm-5.98-2.95l-2.99-1.47v-.75l2.99,1.47v.75Zm-5.97-2.95l-2.99-1.47v-.75l2.99,1.47v.75Zm-5.98-2.95l-2.99-1.47v-.75l2.99,1.47v.75Zm-5.98-2.95l-2.99-1.47v-.75l2.99,1.47v.75Zm-5.97-2.95l-2.99-1.47v-.75l2.99,1.47v.75Zm-5.98-2.95l-2.99-1.47v-.75l2.99,1.47v.75Zm-5.97-2.95l-2.99-1.47v-.75l2.99,1.47v.75Zm-5.98-2.95l-2.99-1.47v-.75l2.99,1.47v.75Zm-5.98-2.95l-2.99-1.47v-.75l2.99,1.47v.75Zm-5.97-2.95l-2.99-1.47v-.75l2.99,1.47v.75Zm-5.98-2.95l-2.99-1.47v-.75l2.99,1.47v.75Zm-5.97-2.95l-2.99-1.47v-.75l2.99,1.47v.75Zm-5.98-2.95l-2.99-1.47v-.75l2.99,1.47v.75Zm-5.98-2.95l-2.99-1.47v-.75l2.99,1.47v.75Zm-5.97-2.95l-2.99-1.47v-.75l2.99,1.47v.75Zm-5.98-2.95l-2.99-1.47v-.75l2.99,1.47v.75Zm-5.98-2.95l-2.99-1.47v-.75l2.99,1.47v.75Zm-5.97-2.95l-2.99-1.47v-.75l2.99,1.47v.75Zm-5.98-2.95l-2.99-1.47v-.75l2.99,1.47v.75Zm-5.97-2.95l-2.99-1.47v-.75l2.99,1.47v.75Zm-5.98-2.95l-2.99-1.47v-.75l2.99,1.47v.75Zm-5.98-2.95l-2.99-1.47v-.75l2.99,1.47v.75Zm-5.97-2.95l-2.99-1.47v-.75l2.99,1.47v.75Zm-5.98-2.95l-2.99-1.47v-.75l2.99,1.47v.75Zm-5.97-2.95l-2.99-1.47v-.75l2.99,1.47v.75Zm-5.98-2.95l-2.99-1.47v-.75l2.99,1.47v.75Zm-5.98-2.95l-2.99-1.47v-.75l2.99,1.47v.75Zm-5.97-2.95l-2.99-1.47v-.75l2.99,1.47v.75Zm-5.98-2.95l-2.99-1.47v-.75l2.99,1.47v.75Zm-5.97-2.95l-2.99-1.47v-.75l2.99,1.47v.75Zm-5.98-2.95l-2.99-1.47v-.75l2.99,1.47v.75Zm-5.98-2.95l-2.99-1.47v-.75l2.99,1.47v.75Zm-5.97-2.95l-2.99-1.47v-.75l2.99,1.47v.75Zm-5.98-2.95l-2.99-1.47v-.75l2.99,1.47v.75Zm-5.97-2.95l-2.99-1.47v-.75l2.99,1.47v.75Zm-5.98-2.95l-2.99-1.47v-.75l2.99,1.47v.75Zm-5.98-2.95l-2.99-1.47v-.75l2.99,1.47v.75Zm-5.97-2.95l-2.99-1.47v-.75l2.99,1.47v.75Zm-5.98-2.95l-2.99-1.47v-.75l2.99,1.47v.75Zm-5.97-2.95l-2.99-1.47v-.75l2.99,1.47v.75Zm-5.98-2.95l-2.99-1.47v-.75l2.99,1.47v.75Zm-5.98-2.95l-2.99-1.47v-.75l2.99,1.47v.75Zm-5.97-2.95l-2.99-1.47v-.75l2.99,1.47v.75Zm-5.98-2.95l-2.99-1.47v-.75l2.99,1.47v.75Zm-5.97-2.95l-2.99-1.47v-.75l2.99,1.47v.75Zm-5.98-2.95l-2.99-1.47v-.75l2.99,1.47v.75Zm-5.98-2.95l-2.99-1.47v-.75l2.99,1.47v.75Zm-5.97-2.95l-2.99-1.47v-.75l2.99,1.47v.75Zm-5.98-2.95l-2.99-1.47v-.75l2.99,1.47v.75Zm-5.97-2.95l-2.99-1.47v-.75l2.99,1.47v.75Zm-5.98-2.95l-2.99-1.47v-.75l2.99,1.47v.75Zm-5.98-2.95l-2.99-1.47v-.75l2.99,1.47v.75Zm-5.97-2.95l-2.99-1.47v-.75l2.99,1.47v.75Zm-5.98-2.95l-2.99-1.47v-.75l2.99,1.47v.75Zm-5.97-2.95l-2.99-1.47v-.75l2.99,1.47v.75Zm-5.98-2.95l-2.99-1.47v-.75l2.99,1.47v.75Zm-5.98-2.95l-2.99-1.47v-.75l2.99,1.47v.75Zm-5.97-2.95l-2.99-1.47v-.75l2.99,1.47v.75Zm-5.98-2.95l-2.99-1.47v-.75l2.99,1.47v.75Zm-5.97-2.95l-2.99-1.47v-.75l2.99,1.47v.75Zm-5.98-2.95l-2.99-1.47v-.75l2.99,1.47v.75Zm-5.98-2.95l-2.99-1.47v-.75l2.99,1.47v.75Z"></path><polygon class="cls-27" points="759.66 218.75 758.16 218.01 758.16 217.26 759.66 218 759.66 218.75"></polygon></g><g class="cls-42"><polygon class="cls-27" points="318.99 61.52 317.49 60.78 317.49 60.03 318.99 60.77 318.99 61.52"></polygon><path class="cls-27" d="M755.17,276.57l-2.99-1.47v-.75l2.99,1.47v.75Zm-5.98-2.95l-2.99-1.47v-.75l2.99,1.47v.75Zm-5.97-2.95l-2.99-1.47v-.75l2.99,1.47v.75Zm-5.98-2.95l-2.99-1.47v-.75l2.99,1.47v.75Zm-5.97-2.95l-2.99-1.47v-.75l2.99,1.47v.75Zm-5.98-2.95l-2.99-1.47v-.75l2.99,1.47v.75Zm-5.98-2.95l-2.99-1.47v-.75l2.99,1.47v.75Zm-5.97-2.95l-2.99-1.47v-.75l2.99,1.47v.75Zm-5.98-2.95l-2.99-1.47v-.75l2.99,1.47v.75Zm-5.98-2.95l-2.99-1.47v-.75l2.99,1.47v.75Zm-5.97-2.95l-2.99-1.47v-.75l2.99,1.47v.75Zm-5.98-2.95l-2.99-1.47v-.75l2.99,1.47v.75Zm-5.97-2.95l-2.99-1.47v-.75l2.99,1.47v.75Zm-5.98-2.95l-2.99-1.47v-.75l2.99,1.47v.75Zm-5.98-2.95l-2.99-1.47v-.75l2.99,1.47v.75Zm-5.97-2.95l-2.99-1.47v-.75l2.99,1.47v.75Zm-5.98-2.95l-2.99-1.47v-.75l2.99,1.47v.75Zm-5.97-2.95l-2.99-1.47v-.75l2.99,1.47v.75Zm-5.98-2.95l-2.99-1.47v-.75l2.99,1.47v.75Zm-5.98-2.95l-2.99-1.47v-.75l2.99,1.47v.75Zm-5.97-2.95l-2.99-1.47v-.75l2.99,1.47v.75Zm-5.98-2.95l-2.99-1.47v-.75l2.99,1.47v.75Zm-5.97-2.95l-2.99-1.47v-.75l2.99,1.47v.75Zm-5.98-2.95l-2.99-1.47v-.75l2.99,1.47v.75Zm-5.98-2.95l-2.99-1.47v-.75l2.99,1.47v.75Zm-5.97-2.95l-2.99-1.47v-.75l2.99,1.47v.75Zm-5.98-2.95l-2.99-1.47v-.75l2.99,1.47v.75Zm-5.98-2.95l-2.99-1.47v-.75l2.99,1.47v.75Zm-5.97-2.95l-2.99-1.47v-.75l2.99,1.47v.75Zm-5.98-2.95l-2.99-1.47v-.75l2.99,1.47v.75Zm-5.97-2.95l-2.99-1.47v-.75l2.99,1.47v.75Zm-5.98-2.95l-2.99-1.47v-.75l2.99,1.47v.75Zm-5.98-2.95l-2.99-1.47v-.75l2.99,1.47v.75Zm-5.97-2.95l-2.99-1.47v-.75l2.99,1.47v.75Zm-5.98-2.95l-2.99-1.47v-.75l2.99,1.47v.75Zm-5.97-2.95l-2.99-1.47v-.75l2.99,1.47v.75Zm-5.98-2.95l-2.99-1.47v-.75l2.99,1.47v.75Zm-5.98-2.95l-2.99-1.47v-.75l2.99,1.47v.75Zm-5.97-2.95l-2.99-1.47v-.75l2.99,1.47v.75Zm-5.98-2.95l-2.99-1.47v-.75l2.99,1.47v.75Zm-5.97-2.95l-2.99-1.47v-.75l2.99,1.47v.75Zm-5.98-2.95l-2.99-1.47v-.75l2.99,1.47v.75Zm-5.98-2.95l-2.99-1.47v-.75l2.99,1.47v.75Zm-5.97-2.95l-2.99-1.47v-.75l2.99,1.47v.75Zm-5.98-2.95l-2.99-1.47v-.75l2.99,1.47v.75Zm-5.97-2.95l-2.99-1.47v-.75l2.99,1.47v.75Zm-5.98-2.95l-2.99-1.47v-.75l2.99,1.47v.75Zm-5.98-2.95l-2.99-1.47v-.75l2.99,1.47v.75Zm-5.97-2.95l-2.99-1.47v-.75l2.99,1.47v.75Zm-5.98-2.95l-2.99-1.47v-.75l2.99,1.47v.75Zm-5.97-2.95l-2.99-1.47v-.75l2.99,1.47v.75Zm-5.98-2.95l-2.99-1.47v-.75l2.99,1.47v.75Zm-5.98-2.95l-2.99-1.47v-.75l2.99,1.47v.75Zm-5.97-2.95l-2.99-1.47v-.75l2.99,1.47v.75Zm-5.98-2.95l-2.99-1.47v-.75l2.99,1.47v.75Zm-5.97-2.95l-2.99-1.47v-.75l2.99,1.47v.75Zm-5.98-2.95l-2.99-1.47v-.75l2.99,1.47v.75Zm-5.98-2.95l-2.99-1.47v-.75l2.99,1.47v.75Zm-5.97-2.95l-2.99-1.47v-.75l2.99,1.47v.75Zm-5.98-2.95l-2.99-1.47v-.75l2.99,1.47v.75Zm-5.97-2.95l-2.99-1.47v-.75l2.99,1.47v.75Zm-5.98-2.95l-2.99-1.47v-.75l2.99,1.47v.75Zm-5.98-2.95l-2.99-1.47v-.75l2.99,1.47v.75Zm-5.97-2.95l-2.99-1.47v-.75l2.99,1.47v.75Zm-5.98-2.95l-2.99-1.47v-.75l2.99,1.47v.75Zm-5.97-2.95l-2.99-1.47v-.75l2.99,1.47v.75Zm-5.98-2.95l-2.99-1.47v-.75l2.99,1.47v.75Zm-5.98-2.95l-2.99-1.47v-.75l2.99,1.47v.75Zm-5.97-2.95l-2.99-1.47v-.75l2.99,1.47v.75Zm-5.98-2.95l-2.99-1.47v-.75l2.99,1.47v.75Zm-5.97-2.95l-2.99-1.47v-.75l2.99,1.47v.75Zm-5.98-2.95l-2.99-1.47v-.75l2.99,1.47v.75Zm-5.98-2.95l-2.99-1.47v-.75l2.99,1.47v.75Z"></path><polygon class="cls-27" points="759.66 278.78 758.16 278.04 758.16 277.29 759.66 278.03 759.66 278.78"></polygon></g><g class="cls-42"><polygon class="cls-27" points="318.99 121.54 317.49 120.8 317.49 120.05 318.99 120.79 318.99 121.54"></polygon><path class="cls-27" d="M755.17,336.59l-2.99-1.47v-.75l2.99,1.47v.75Zm-5.98-2.95l-2.99-1.47v-.75l2.99,1.47v.75Zm-5.97-2.95l-2.99-1.47v-.75l2.99,1.47v.75Zm-5.98-2.95l-2.99-1.47v-.75l2.99,1.47v.75Zm-5.97-2.95l-2.99-1.47v-.75l2.99,1.47v.75Zm-5.98-2.95l-2.99-1.47v-.75l2.99,1.47v.75Zm-5.98-2.95l-2.99-1.47v-.75l2.99,1.47v.75Zm-5.97-2.95l-2.99-1.47v-.75l2.99,1.47v.75Zm-5.98-2.95l-2.99-1.47v-.75l2.99,1.47v.75Zm-5.98-2.95l-2.99-1.47v-.75l2.99,1.47v.75Zm-5.97-2.95l-2.99-1.47v-.75l2.99,1.47v.75Zm-5.98-2.95l-2.99-1.47v-.75l2.99,1.47v.75Zm-5.97-2.95l-2.99-1.47v-.75l2.99,1.47v.75Zm-5.98-2.95l-2.99-1.47v-.75l2.99,1.47v.75Zm-5.98-2.95l-2.99-1.47v-.75l2.99,1.47v.75Zm-5.97-2.95l-2.99-1.47v-.75l2.99,1.47v.75Zm-5.98-2.95l-2.99-1.47v-.75l2.99,1.47v.75Zm-5.97-2.95l-2.99-1.47v-.75l2.99,1.47v.75Zm-5.98-2.95l-2.99-1.47v-.75l2.99,1.47v.75Zm-5.98-2.95l-2.99-1.47v-.75l2.99,1.47v.75Zm-5.97-2.95l-2.99-1.47v-.75l2.99,1.47v.75Zm-5.98-2.95l-2.99-1.47v-.75l2.99,1.47v.75Zm-5.97-2.95l-2.99-1.47v-.75l2.99,1.47v.75Zm-5.98-2.95l-2.99-1.47v-.75l2.99,1.47v.75Zm-5.98-2.95l-2.99-1.47v-.75l2.99,1.47v.75Zm-5.97-2.95l-2.99-1.47v-.75l2.99,1.47v.75Zm-5.98-2.95l-2.99-1.47v-.75l2.99,1.47v.75Zm-5.98-2.95l-2.99-1.47v-.75l2.99,1.47v.75Zm-5.97-2.95l-2.99-1.47v-.75l2.99,1.47v.75Zm-5.98-2.95l-2.99-1.47v-.75l2.99,1.47v.75Zm-5.97-2.95l-2.99-1.47v-.75l2.99,1.47v.75Zm-5.98-2.95l-2.99-1.47v-.75l2.99,1.47v.75Zm-5.98-2.95l-2.99-1.47v-.75l2.99,1.47v.75Zm-5.97-2.95l-2.99-1.47v-.75l2.99,1.47v.75Zm-5.98-2.95l-2.99-1.47v-.75l2.99,1.47v.75Zm-5.97-2.95l-2.99-1.47v-.75l2.99,1.47v.75Zm-5.98-2.95l-2.99-1.47v-.75l2.99,1.47v.75Zm-5.98-2.95l-2.99-1.47v-.75l2.99,1.47v.75Zm-5.97-2.95l-2.99-1.47v-.75l2.99,1.47v.75Zm-5.98-2.95l-2.99-1.47v-.75l2.99,1.47v.75Zm-5.97-2.95l-2.99-1.47v-.75l2.99,1.47v.75Zm-5.98-2.95l-2.99-1.47v-.75l2.99,1.47v.75Zm-5.98-2.95l-2.99-1.47v-.75l2.99,1.47v.75Zm-5.97-2.95l-2.99-1.47v-.75l2.99,1.47v.75Zm-5.98-2.95l-2.99-1.47v-.75l2.99,1.47v.75Zm-5.97-2.95l-2.99-1.47v-.75l2.99,1.47v.75Zm-5.98-2.95l-2.99-1.47v-.75l2.99,1.47v.75Zm-5.98-2.95l-2.99-1.47v-.75l2.99,1.47v.75Zm-5.97-2.95l-2.99-1.47v-.75l2.99,1.47v.75Zm-5.98-2.95l-2.99-1.47v-.75l2.99,1.47v.75Zm-5.97-2.95l-2.99-1.47v-.75l2.99,1.47v.75Zm-5.98-2.95l-2.99-1.47v-.75l2.99,1.47v.75Zm-5.98-2.95l-2.99-1.47v-.75l2.99,1.47v.75Zm-5.97-2.95l-2.99-1.47v-.75l2.99,1.47v.75Zm-5.98-2.95l-2.99-1.47v-.75l2.99,1.47v.75Zm-5.97-2.95l-2.99-1.47v-.75l2.99,1.47v.75Zm-5.98-2.95l-2.99-1.47v-.75l2.99,1.47v.75Zm-5.98-2.95l-2.99-1.47v-.75l2.99,1.47v.75Zm-5.97-2.95l-2.99-1.47v-.75l2.99,1.47v.75Zm-5.98-2.95l-2.99-1.47v-.75l2.99,1.47v.75Zm-5.97-2.95l-2.99-1.47v-.75l2.99,1.47v.75Zm-5.98-2.95l-2.99-1.47v-.75l2.99,1.47v.75Zm-5.98-2.95l-2.99-1.47v-.75l2.99,1.47v.75Zm-5.97-2.95l-2.99-1.47v-.75l2.99,1.47v.75Zm-5.98-2.95l-2.99-1.47v-.75l2.99,1.47v.75Zm-5.97-2.95l-2.99-1.47v-.75l2.99,1.47v.75Zm-5.98-2.95l-2.99-1.47v-.75l2.99,1.47v.75Zm-5.98-2.95l-2.99-1.47v-.75l2.99,1.47v.75Zm-5.97-2.95l-2.99-1.47v-.75l2.99,1.47v.75Zm-5.98-2.95l-2.99-1.47v-.75l2.99,1.47v.75Zm-5.97-2.95l-2.99-1.47v-.75l2.99,1.47v.75Zm-5.98-2.95l-2.99-1.47v-.75l2.99,1.47v.75Zm-5.98-2.95l-2.99-1.47v-.75l2.99,1.47v.75Z"></path><polygon class="cls-27" points="759.66 338.8 758.16 338.07 758.16 337.31 759.66 338.05 759.66 338.8"></polygon></g><g class="cls-42"><polygon class="cls-27" points="318.99 181.57 317.49 180.83 317.49 180.08 318.99 180.82 318.99 181.57"></polygon><path class="cls-27" d="M755.17,396.62l-2.99-1.47v-.75l2.99,1.47v.75Zm-5.98-2.95l-2.99-1.47v-.75l2.99,1.47v.75Zm-5.97-2.95l-2.99-1.47v-.75l2.99,1.47v.75Zm-5.98-2.95l-2.99-1.47v-.75l2.99,1.47v.75Zm-5.97-2.95l-2.99-1.47v-.75l2.99,1.47v.75Zm-5.98-2.95l-2.99-1.47v-.75l2.99,1.47v.75Zm-5.98-2.95l-2.99-1.47v-.75l2.99,1.47v.75Zm-5.97-2.95l-2.99-1.47v-.75l2.99,1.47v.75Zm-5.98-2.95l-2.99-1.47v-.75l2.99,1.47v.75Zm-5.98-2.95l-2.99-1.47v-.75l2.99,1.47v.75Zm-5.97-2.95l-2.99-1.47v-.75l2.99,1.47v.75Zm-5.98-2.95l-2.99-1.47v-.75l2.99,1.47v.75Zm-5.97-2.95l-2.99-1.47v-.75l2.99,1.47v.75Zm-5.98-2.95l-2.99-1.47v-.75l2.99,1.47v.75Zm-5.98-2.95l-2.99-1.47v-.75l2.99,1.47v.75Zm-5.97-2.95l-2.99-1.47v-.75l2.99,1.47v.75Zm-5.98-2.95l-2.99-1.47v-.75l2.99,1.47v.75Zm-5.97-2.95l-2.99-1.47v-.75l2.99,1.47v.75Zm-5.98-2.95l-2.99-1.47v-.75l2.99,1.47v.75Zm-5.98-2.95l-2.99-1.47v-.75l2.99,1.47v.75Zm-5.97-2.95l-2.99-1.47v-.75l2.99,1.47v.75Zm-5.98-2.95l-2.99-1.47v-.75l2.99,1.47v.75Zm-5.97-2.95l-2.99-1.47v-.75l2.99,1.47v.75Zm-5.98-2.95l-2.99-1.47v-.75l2.99,1.47v.75Zm-5.98-2.95l-2.99-1.47v-.75l2.99,1.47v.75Zm-5.97-2.95l-2.99-1.47v-.75l2.99,1.47v.75Zm-5.98-2.95l-2.99-1.47v-.75l2.99,1.47v.75Zm-5.98-2.95l-2.99-1.47v-.75l2.99,1.47v.75Zm-5.97-2.95l-2.99-1.47v-.75l2.99,1.47v.75Zm-5.98-2.95l-2.99-1.47v-.75l2.99,1.47v.75Zm-5.97-2.95l-2.99-1.47v-.75l2.99,1.47v.75Zm-5.98-2.95l-2.99-1.47v-.75l2.99,1.47v.75Zm-5.98-2.95l-2.99-1.47v-.75l2.99,1.47v.75Zm-5.97-2.95l-2.99-1.47v-.75l2.99,1.47v.75Zm-5.98-2.95l-2.99-1.47v-.75l2.99,1.47v.75Zm-5.97-2.95l-2.99-1.47v-.75l2.99,1.47v.75Zm-5.98-2.95l-2.99-1.47v-.75l2.99,1.47v.75Zm-5.98-2.95l-2.99-1.47v-.75l2.99,1.47v.75Zm-5.97-2.95l-2.99-1.47v-.75l2.99,1.47v.75Zm-5.98-2.95l-2.99-1.47v-.75l2.99,1.47v.75Zm-5.97-2.95l-2.99-1.47v-.75l2.99,1.47v.75Zm-5.98-2.95l-2.99-1.47v-.75l2.99,1.47v.75Zm-5.98-2.95l-2.99-1.47v-.75l2.99,1.47v.75Zm-5.97-2.95l-2.99-1.47v-.75l2.99,1.47v.75Zm-5.98-2.95l-2.99-1.47v-.75l2.99,1.47v.75Zm-5.97-2.95l-2.99-1.47v-.75l2.99,1.47v.75Zm-5.98-2.95l-2.99-1.47v-.75l2.99,1.47v.75Zm-5.98-2.95l-2.99-1.47v-.75l2.99,1.47v.75Zm-5.97-2.95l-2.99-1.47v-.75l2.99,1.47v.75Zm-5.98-2.95l-2.99-1.47v-.75l2.99,1.47v.75Zm-5.97-2.95l-2.99-1.47v-.75l2.99,1.47v.75Zm-5.98-2.95l-2.99-1.47v-.75l2.99,1.47v.75Zm-5.98-2.95l-2.99-1.47v-.75l2.99,1.47v.75Zm-5.97-2.95l-2.99-1.47v-.75l2.99,1.47v.75Zm-5.98-2.95l-2.99-1.47v-.75l2.99,1.47v.75Zm-5.97-2.95l-2.99-1.47v-.75l2.99,1.47v.75Zm-5.98-2.95l-2.99-1.47v-.75l2.99,1.47v.75Zm-5.98-2.95l-2.99-1.47v-.75l2.99,1.47v.75Zm-5.97-2.95l-2.99-1.47v-.75l2.99,1.47v.75Zm-5.98-2.95l-2.99-1.47v-.75l2.99,1.47v.75Zm-5.97-2.95l-2.99-1.47v-.75l2.99,1.47v.75Zm-5.98-2.95l-2.99-1.47v-.75l2.99,1.47v.75Zm-5.98-2.95l-2.99-1.47v-.75l2.99,1.47v.75Zm-5.97-2.95l-2.99-1.47v-.75l2.99,1.47v.75Zm-5.98-2.95l-2.99-1.47v-.75l2.99,1.47v.75Zm-5.97-2.95l-2.99-1.47v-.75l2.99,1.47v.75Zm-5.98-2.95l-2.99-1.47v-.75l2.99,1.47v.75Zm-5.98-2.95l-2.99-1.47v-.75l2.99,1.47v.75Zm-5.97-2.95l-2.99-1.47v-.75l2.99,1.47v.75Zm-5.98-2.95l-2.99-1.47v-.75l2.99,1.47v.75Zm-5.97-2.95l-2.99-1.47v-.75l2.99,1.47v.75Zm-5.98-2.95l-2.99-1.47v-.75l2.99,1.47v.75Zm-5.98-2.95l-2.99-1.47v-.75l2.99,1.47v.75Z"></path><polygon class="cls-27" points="759.66 398.83 758.16 398.09 758.16 397.34 759.66 398.08 759.66 398.83"></polygon></g><g class="cls-42"><polygon class="cls-27" points="497.93 305.42 497.18 305.05 497.18 303.55 497.93 303.92 497.93 305.42"></polygon><path class="cls-27" d="M497.93,300.92l-.75-.37v-3l.75,.37v3Zm0-6l-.75-.37v-3l.75,.37v3Zm0-6l-.75-.37v-3l.75,.37v3Zm0-6l-.75-.37v-3l.75,.37v3Zm0-6l-.75-.37v-3l.75,.37v3Zm0-6l-.75-.37v-3l.75,.37v3Zm0-6l-.75-.37v-3l.75,.37v3Zm0-6l-.75-.37v-3l.75,.37v3Zm0-6l-.75-.37v-3l.75,.37v3Zm0-6l-.75-.37v-3l.75,.37v3Zm0-6l-.75-.37v-3l.75,.37v3Zm0-6l-.75-.37v-3l.75,.37v3Zm0-6l-.75-.37v-3l.75,.37v3Zm0-6l-.75-.37v-3l.75,.37v3Zm0-6l-.75-.37v-3l.75,.37v3Zm0-6l-.75-.37v-3l.75,.37v3Zm0-6l-.75-.37v-3l.75,.37v3Zm0-6l-.75-.37v-3l.75,.37v3Zm0-6l-.75-.37v-3l.75,.37v3Zm0-6l-.75-.37v-3l.75,.37v3Zm0-6l-.75-.37v-3l.75,.37v3Zm0-6l-.75-.37v-3l.75,.37v3Zm0-6l-.75-.37v-3l.75,.37v3Zm0-6l-.75-.37v-3l.75,.37v3Zm0-6l-.75-.37v-3l.75,.37v3Zm0-6l-.75-.37v-3l.75,.37v3Zm0-6l-.75-.37v-3l.75,.37v3Zm0-6l-.75-.37v-3l.75,.37v3Zm0-6l-.75-.37v-3l.75,.37v3Zm0-6l-.75-.37v-3l.75,.37v3Zm0-6l-.75-.37v-3l.75,.37v3Zm0-6l-.75-.37v-3l.75,.37v3Zm0-6l-.75-.37v-3l.75,.37v3Zm0-6l-.75-.37v-3l.75,.37v3Zm0-6l-.75-.37v-3l.75,.37v3Z"></path><polygon class="cls-27" points="497.93 90.85 497.18 90.48 497.18 88.98 497.93 89.35 497.93 90.85"></polygon></g><g class="cls-42"><polygon class="cls-27" points="617.98 364.61 617.23 364.24 617.23 362.74 617.98 363.11 617.98 364.61"></polygon><path class="cls-27" d="M617.98,360.11l-.75-.37v-3l.75,.37v3Zm0-6l-.75-.37v-3l.75,.37v3Zm0-6l-.75-.37v-3l.75,.37v3Zm0-6l-.75-.37v-3l.75,.37v3Zm0-6l-.75-.37v-3l.75,.37v3Zm0-6l-.75-.37v-3l.75,.37v3Zm0-6l-.75-.37v-3l.75,.37v3Zm0-6l-.75-.37v-3l.75,.37v3Zm0-6l-.75-.37v-3l.75,.37v3Zm0-6l-.75-.37v-3l.75,.37v3Zm0-6l-.75-.37v-3l.75,.37v3Zm0-6l-.75-.37v-3l.75,.37v3Zm0-6l-.75-.37v-3l.75,.37v3Zm0-6l-.75-.37v-3l.75,.37v3Zm0-6l-.75-.37v-3l.75,.37v3Zm0-6l-.75-.37v-3l.75,.37v3Zm0-6l-.75-.37v-3l.75,.37v3Zm0-6l-.75-.37v-3l.75,.37v3Zm0-6l-.75-.37v-3l.75,.37v3Zm0-6l-.75-.37v-3l.75,.37v3Zm0-6l-.75-.37v-3l.75,.37v3Zm0-6l-.75-.37v-3l.75,.37v3Zm0-6l-.75-.37v-3l.75,.37v3Zm0-6l-.75-.37v-3l.75,.37v3Zm0-6l-.75-.37v-3l.75,.37v3Zm0-6l-.75-.37v-3l.75,.37v3Zm0-6l-.75-.37v-3l.75,.37v3Zm0-6l-.75-.37v-3l.75,.37v3Zm0-6l-.75-.37v-3l.75,.37v3Zm0-6l-.75-.37v-3l.75,.37v3Zm0-6l-.75-.37v-3l.75,.37v3Zm0-6l-.75-.37v-3l.75,.37v3Zm0-6l-.75-.37v-3l.75,.37v3Zm0-6l-.75-.37v-3l.75,.37v3Zm0-6l-.75-.37v-3l.75,.37v3Z"></path><polygon class="cls-27" points="617.98 150.04 617.23 149.67 617.23 148.17 617.98 148.54 617.98 150.04"></polygon></g><g class="cls-42"><polygon class="cls-27" points="738.03 423.8 737.28 423.43 737.28 421.93 738.03 422.3 738.03 423.8"></polygon><path class="cls-27" d="M738.03,419.3l-.75-.37v-3l.75,.37v3Zm0-6l-.75-.37v-3l.75,.37v3Zm0-6l-.75-.37v-3l.75,.37v3Zm0-6l-.75-.37v-3l.75,.37v3Zm0-6l-.75-.37v-3l.75,.37v3Zm0-6l-.75-.37v-3l.75,.37v3Zm0-6l-.75-.37v-3l.75,.37v3Zm0-6l-.75-.37v-3l.75,.37v3Zm0-6l-.75-.37v-3l.75,.37v3Zm0-6l-.75-.37v-3l.75,.37v3Zm0-6l-.75-.37v-3l.75,.37v3Zm0-6l-.75-.37v-3l.75,.37v3Zm0-6l-.75-.37v-3l.75,.37v3Zm0-6l-.75-.37v-3l.75,.37v3Zm0-6l-.75-.37v-3l.75,.37v3Zm0-6l-.75-.37v-3l.75,.37v3Zm0-6l-.75-.37v-3l.75,.37v3Zm0-6l-.75-.37v-3l.75,.37v3Zm0-6l-.75-.37v-3l.75,.37v3Zm0-6l-.75-.37v-3l.75,.37v3Zm0-6l-.75-.37v-3l.75,.37v3Zm0-6l-.75-.37v-3l.75,.37v3Zm0-6l-.75-.37v-3l.75,.37v3Zm0-6l-.75-.37v-3l.75,.37v3Zm0-6l-.75-.37v-3l.75,.37v3Zm0-6l-.75-.37v-3l.75,.37v3Zm0-6l-.75-.37v-3l.75,.37v3Zm0-6l-.75-.37v-3l.75,.37v3Zm0-6l-.75-.37v-3l.75,.37v3Zm0-6l-.75-.37v-3l.75,.37v3Zm0-6l-.75-.37v-3l.75,.37v3Zm0-6l-.75-.37v-3l.75,.37v3Zm0-6l-.75-.37v-3l.75,.37v3Zm0-6l-.75-.37v-3l.75,.37v3Zm0-6l-.75-.37v-3l.75,.37v3Z"></path><polygon class="cls-27" points="738.03 209.23 737.28 208.86 737.28 207.36 738.03 207.73 738.03 209.23"></polygon></g></g><g><path class="cls-20" d="M531.49,458.92c-2.99,5.52-8.08,19-30.66,22.52-22.58,3.52-16.81,22.39-11.75,21.69s48.44-8.94,57.05-31.49c8.61-22.55-14.65-12.71-14.65-12.71Z"></path><ellipse class="cls-2" cx="601.01" cy="713.14" rx="30.12" ry="57.76" transform="translate(-223.24 1149.47) rotate(-77.77)"></ellipse><path class="cls-12" d="M627.91,704.54c-3,3.87-12.12,20.63-13.99,23.65-1.88,3.03-6.06,9.23-.72,11.11s9.95-.14,14.71-4.18,15.43-17.16,15.43-17.16c0,0,.38-10.96-.96-12.69-1.35-1.73-11.87-4.08-14.47-.72Z"></path><path class="cls-14" d="M626.18,694.59l1.15,14.57c.43,4.65,13.71,5.93,13.7,0,0-3.32,0-17.02,0-17.02l-14.86,2.45Z"></path><path class="cls-12" d="M579.78,689.54c-3,3.87-17.07,13.5-21.68,16.3-3.05,1.85-9.7,9.38-4.36,11.25,5.34,1.88,16.05,1.23,21.82-1.15,6.77-2.8,20.34-11.11,20.34-11.11,0,0-.29-12.84-1.64-14.57s-11.87-4.08-14.47-.72Z"></path><path class="cls-14" d="M578.05,679.59l1.15,14.57c.43,4.65,13.71,5.93,13.7,0,0-3.32,0-17.02,0-17.02l-14.86,2.45Z"></path><path class="cls-21" d="M577.66,395.5c-5.18,11.11-25.67,57.41-27.69,63.75-2.02,6.35-23.65,3.17-22.79-4.04,.87-7.21,14.54-73.08,39.96-83.85,25.42-10.77,15.83,12.75,10.52,24.13Z"></path><path class="cls-20" d="M656.91,477.22c0,6.27,1.95,20.55-16.23,34.4-18.17,13.85-4.11,27.69,0,24.66,4.11-3.03,38.33-30.94,35.16-54.87-3.17-23.93-18.93-4.2-18.93-4.2Z"></path><path class="cls-34" d="M562.57,505.35c-1.3,15.14,8.6,160.37,10.39,178.71,.87,8.87,19.35,6.72,19.47,3.03,.87-26.4,5.06-155.78,9.45-179.14,4.4-23.37-39.31-2.6-39.31-2.6Z"></path><path class="cls-21" d="M624.31,408.56c5.18,11.11,25.67,57.41,27.69,63.75,2.02,6.35,23.65,3.17,22.79-4.04-.87-7.21-14.54-73.08-39.96-83.85-25.42-10.77-15.83,12.75-10.52,24.13Z"></path><path class="cls-36" d="M587.67,519.2c0,20.34,7.36,42.41,8.65,45.43,1.3,3.03,19.47,2.6,27.69,0s0-51.49,0-51.49l-36.35,6.06Z"></path><path class="cls-34" d="M587.67,507.94c1.96,10.92,22.5,100.39,25.53,115.97,3.03,15.58,8.22,61.45,9.52,70.53,1.3,9.09,19.04,5.63,19.47,0,.43-5.63,0-194.29,0-194.29l-54.52,7.79Z"></path><path class="cls-21" d="M560.48,511.35s-9.73-82.81,2.56-131.39c2.23-8.83,12.57-12.31,21.6-11.14,22.12,2.87,47.28,9.93,54.09,19.47,8.65,12.12,7.5,95.85,5.19,118.92-16.15,13.27-28.27,17.31-46.16,17.31s-24.59,.67-37.28-13.18Z"></path><path class="cls-8" d="M587.67,366.55v12.69c1.59,2.74,14.83,2.31,16.07-.72l.81-19.04-16.88,7.07Z"></path><path class="cls-26" d="M583.92,399.98l10.38,1.23,6.71-11.68s-.29-9.47-9.01-9.67c-8.73-.21-9.14,8.76-9.14,8.76,0,0-.51,5.16,1.07,11.37Z"></path><path class="cls-14" d="M590.99,379.14c.88,2.2-6.06,6.2-8.8,10.39-5.77-7.64-6.49-20.91-4.18-24.23,2.31-3.32,11.22-3.84,11.25-2.74,.14,5.34-1.15,9.37,1.73,16.59Z"></path><path class="cls-26" d="M583.92,460.35c-3.5-3.35-10.15-9.9-9.99-12.66,.87-15.04,6.14-35.92,9.99-47.71,3.86-11.79,11.39-6.42,10.38,1.23-1.01,7.64,1.24,41.44,1.8,50.48,.11,2.7-10.41,8.33-12.18,8.65Z"></path><path class="cls-14" d="M652.36,482.41l-.36-10.1s22.86-3.1,25.24-6.56l.87,12.77c.22,5.84-25.75,8.42-25.75,3.89Z"></path><path class="cls-14" d="M549.6,469.35l.36-10.1s-22.86-3.1-25.24-6.56l-.87,12.77c-.22,5.84,25.75,8.42,25.75,3.89Z"></path><path class="cls-14" d="M592,379.85l9.09,11.98s16.17-11.68,16.95-16.3-11.39-7.93-12.3-7.64-6.96,8.36-13.74,11.96Z"></path><path class="cls-7" d="M563.29,331.88c1.35,10.07,4.34,37.79,18.18,37.79s23.65-6.35,25.95-14.14c2.31-7.79-3.69-32.02-3.69-32.02,0,0-41.6-.22-40.44,8.37Z"></path><path class="cls-35" d="M561.8,320.92c-3.84,3.09-3.61,9.66,.14,15.29,3.75,5.63,11.11,6.06,16.15,3.46,5.05-2.6,12.69-3.32,13.99,2.31,1.3,5.63,9.49,14.14,12.32,16.73,2.83,2.6,8.45-1.59,9.9-9.09,1.44-7.5,4.9-18.17-2.88-26.68-7.79-8.51-7.79-14.42-20.05-11.25-12.26,3.17-23.65,4.47-29.57,9.23Z"></path><circle class="cls-20" cx="483.32" cy="493.43" r="15.57"></circle></g><g><polygon class="cls-40" points="276.5 421.5 292.58 412.04 318.38 425.33 302.3 434.79 276.5 421.5"></polygon><polygon class="cls-40" points="310.08 438.84 326.16 429.38 351.96 442.68 335.88 452.14 310.08 438.84"></polygon><polygon class="cls-40" points="342.99 455.01 359.07 445.55 384.87 458.85 368.79 468.31 342.99 455.01"></polygon><polygon class="cls-40" points="377.3 472.53 393.38 463.08 419.18 476.37 403.1 485.83 377.3 472.53"></polygon><polygon class="cls-40" points="411.07 489.75 427.15 480.29 452.95 493.59 436.87 503.05 411.07 489.75"></polygon></g><g><polygon class="cls-24" points="317.75 409.99 291.95 396.7 292.49 353.72 318.29 367.01 317.75 409.99"></polygon><polygon class="cls-22" points="351.4 427.34 325.6 414.04 326.55 338.6 352.36 351.89 351.4 427.34"></polygon><polygon class="cls-33" points="385.06 444.68 359.27 431.39 360.66 321.14 386.45 334.44 385.06 444.68"></polygon><polygon class="cls-4" points="418.72 462.03 392.91 448.73 394.76 302.84 420.56 316.13 418.72 462.03"></polygon><polygon class="cls-6" points="452.37 479.37 426.57 466.08 429.38 243.79 455.18 257.09 452.37 479.37"></polygon></g><polygon class="cls-39" points="335.31 436.86 351.39 427.4 352.5 352.04 336.42 361.5 335.31 436.86"></polygon><polygon class="cls-38" points="368.21 453.95 384.29 444.49 386.51 334.44 370.43 343.9 368.21 453.95"></polygon><polygon class="cls-9" points="402.53 471.56 418.61 462.11 420.53 316.15 404.45 325.61 402.53 471.56"></polygon><polygon class="cls-3" points="378.68 312.3 394.76 302.84 420.56 316.13 404.48 325.59 378.68 312.3"></polygon><polygon class="cls-25" points="301.72 419.45 317.8 409.99 318.26 367.12 302.18 376.58 301.72 419.45"></polygon><polygon class="cls-31" points="344.57 330.6 360.65 321.14 386.45 334.44 370.37 343.9 344.57 330.6"></polygon><polygon class="cls-23" points="310.47 348.28 326.55 338.83 352.36 352.12 336.28 361.58 310.47 348.28"></polygon><polygon class="cls-11" points="275.86 363.18 291.95 353.72 317.75 367.01 301.67 376.47 275.86 363.18"></polygon><g><polygon class="cls-24" points="301.67 419.45 275.86 406.16 276.41 363.18 302.21 376.47 301.67 419.45"></polygon><polygon class="cls-22" points="335.32 436.8 309.52 423.5 310.47 348.06 336.28 361.35 335.32 436.8"></polygon><polygon class="cls-33" points="368.98 454.14 343.19 440.85 344.58 330.6 370.37 343.9 368.98 454.14"></polygon><polygon class="cls-4" points="402.63 471.49 376.83 458.19 378.68 312.3 404.48 325.59 402.63 471.49"></polygon><polygon class="cls-6" points="436.29 488.83 410.49 475.54 413.3 253.25 439.1 266.55 436.29 488.83"></polygon><path class="cls-27" d="M276.48,331.73s3.13-.53,8.62-1.45c2.74-.47,6.06-1.03,9.88-1.69,3.66-1.02,7.8-2.18,12.31-3.44,17.81-5.46,40.29-16.04,58.54-33.38,9.34-8.3,17.48-18.36,24.41-28.6,1.77-2.51,3.4-5.14,4.9-7.8,1.58-2.57,3.02-5.21,4.35-7.85,.24-.47,.46-.9,.67-1.3,.8-1.47,1.25-2.54,1.25-2.54,0,0,1.09,1.97,2.18,3.93,1.05,1.95,2.11,3.9,2.11,3.9,.29-7.22,.46-14.42,0-21.83-3.98,3.37-8.38,5.94-12.77,8.35,0,0,1.61,.9,3.21,1.79,1.6,.85,3.19,1.71,3.19,1.71,0,0-.45,1.04-1.24,2.51-.21,.39-.44,.83-.67,1.29-1.32,2.61-2.73,5.24-4.3,7.78-1.49,2.63-3.09,5.23-4.85,7.72-6.86,10.15-14.94,20.12-24.21,28.35-18.1,17.19-40.4,27.69-58.07,33.11-4.47,1.25-8.57,2.4-12.21,3.42-3.79,.64-7.09,1.2-9.81,1.67-5.44,.92-8.55,1.45-8.55,1.45l1.06,2.93Z"></path></g><polygon class="cls-5" points="413.3 253.25 429.38 243.79 455.18 257.09 439.1 266.55 413.3 253.25"></polygon><polygon class="cls-19" points="436.29 488.83 452.37 479.37 455.18 257.09 439.1 266.55 436.29 488.83"></polygon><path class="cls-1" d="M677.41,678.35L203.35,442.7c-5.37-2.68-8.77-8.17-8.77-14.18V105.91c0-11.77,12.38-19.43,22.92-14.18l474.06,235.65c5.37,2.68,8.77,8.17,8.77,14.18v322.61c0,11.77-12.38,19.43-22.92,14.18Z"></path><g><ellipse class="cls-29" cx="623.42" cy="333.64" rx="12.27" ry="21.26" transform="translate(-83.58 344.98) rotate(-29.07)"></ellipse><ellipse class="cls-29" cx="662.63" cy="356.29" rx="12.27" ry="21.26" transform="translate(-89.64 366.89) rotate(-29.07)"></ellipse><path class="cls-14" d="M626.51,342.94l-11.47-6.62c-.82-.48-1.49-1.65-1.49-2.62v-11.51c0-.97,.67-1.37,1.49-.89l11.47,6.62c.82,.48,1.49,1.65,1.49,2.62v1.44l2.48-.5c.2-.04,.43,.01,.66,.15l.92,.53c.67,.39,1.22,1.35,1.22,2.14v10.17c0,.79-.55,1.12-1.22,.73l-.95-.55c-.24-.14-.48-.36-.68-.64l-2.43-3.37v1.41c0,.97-.67,1.37-1.49,.89Zm-11.25-20.11c-.24-.14-.43-.02-.43,.25v11.38c0,.28,.2,.62,.44,.76l11.32,6.53c.24,.14,.44,.03,.44-.25v-3.73l4.04,5.59,.09,.08,.93,.54c.09,.05,.16,0,.16-.1v-10.05c0-.1-.07-.23-.16-.28l-.91-.52s-.06-.02-.08-.02l-4.07,.82v-3.7c0-.28-.2-.62-.44-.76l-11.33-6.54Zm5.63,13.98c-2.13-1.23-3.86-4.26-3.86-6.77s1.73-3.54,3.86-2.31c2.13,1.23,3.86,4.26,3.86,6.77s-1.73,3.54-3.86,2.31Zm0-7.85c-1.55-.9-2.82-.14-2.82,1.69s1.26,4.04,2.82,4.94,2.82,.14,2.82-1.69-1.26-4.04-2.82-4.94Z"></path><path class="cls-14" d="M662.63,350.93c-.15-.09-.27-.01-.27,.16v.72c0,.17,.12,.38,.27,.47,.15,.09,.27,.01,.27-.16v-.72c0-.17-.12-.38-.27-.47Zm-1.41-.81c-.15-.09-.27-.01-.27,.16v.72c0,.17,.12,.38,.27,.47,.15,.09,.27,.01,.27-.16v-.72c0-.17-.12-.38-.27-.47Zm0-2.07c-.15-.09-.27-.01-.27,.16v.72c0,.17,.12,.38,.27,.47s.27,.01,.27-.16v-.72c0-.17-.12-.38-.27-.47Zm1.41,.81c-.15-.09-.27-.01-.27,.16v.72c0,.17,.12,.38,.27,.47,.15,.09,.27,.01,.27-.16v-.72c0-.17-.12-.38-.27-.47Zm1.41,2.88c-.15-.09-.27-.01-.27,.16v.72c0,.17,.12,.38,.27,.47,.15,.09,.27,.01,.27-.16v-.72c0-.17-.12-.38-.27-.47Zm3.66,3.97c-.25-.14-.45-.02-.45,.27v4.34c0,3-2.07,4.24-4.62,2.77-2.55-1.47-4.62-5.1-4.62-8.1v-4.34c0-.29-.2-.64-.45-.78-.25-.14-.45-.02-.45,.27v4.34c0,3.4,2.23,7.48,5.06,9.39v1.86l-3.03-1.75v1.05l6.95,4.01v-1.05l-3.03-1.75v-1.86c2.83,1.37,5.06-.14,5.06-3.54v-4.34c0-.29-.2-.64-.45-.78Zm-5.07,5.97h0c1.93,1.11,3.49,.18,3.49-2.09v-7.95c0-2.27-1.56-5.01-3.49-6.13h0c-1.93-1.11-3.49-.18-3.49,2.09v7.95c0,2.27,1.56,5.01,3.49,6.13Zm-2.6-13.55c0-1.69,1.17-2.38,2.6-1.56,1.43,.83,2.6,2.87,2.6,4.56v3.97l-5.2-3v-3.97Zm4,1.53c-.15-.09-.27-.01-.27,.16v.72c0,.17,.12,.38,.27,.47s.27,.01,.27-.16v-.72c0-.17-.12-.38-.27-.47Z"></path></g><g><path class="cls-2" d="M273.54,710.9l-15.49-7.62c1.75-1.21,3.31-2.54,4.65-4,13.6-14.84-.87-36.79-32.34-49.02-28.78-11.19-61.78-10.37-77.62,1.2l-14.54-7.16c-1.57-.77-3.41-.78-4.99-.02L3.22,707.14c-4.2,2.03-4.31,7.98-.18,10.16l132.83,70.17c1.63,.86,3.57,.88,5.21,.06l132.51-66.43c4.21-2.11,4.18-8.12-.04-10.2Z"></path><path class="cls-32" d="M144.65,586.56l52.06-24.81c4.63-2.21,9.88-2.75,14.87-1.53h0c9.08,2.22,15.81,9.87,16.84,19.16l1.75,15.66-81.39,40.02-4.12-48.51Z"></path><path class="cls-32" d="M106.98,567.42l52.06-24.81c4.63-2.21,9.88-2.75,14.87-1.53h0c9.08,2.22,15.81,9.87,16.84,19.16l1.75,15.66-81.39,40.02-4.12-48.51Z"></path><g><polygon class="cls-30" points="172.83 450.26 172.74 513.3 252.61 553.39 252.62 489.98 172.83 450.26"></polygon><polygon class="cls-37" points="171.52 513.83 119.99 540.19 199.33 581.17 251.94 554.18 171.52 513.83"></polygon><polygon class="cls-28" points="171.67 451.4 171.52 513.83 251.39 553.91 251.46 491.12 171.67 451.4"></polygon><polygon class="cls-14" points="176.12 457.12 175.98 512.58 246.94 548.19 247 492.41 176.12 457.12"></polygon></g><g><path class="cls-32" d="M167.82,661.38v6.85c0,2.6,1.49,4.97,3.84,6.09l6.48,3.1c2.25,1.08,4.92,.82,6.93-.66l24.25-17.92c2.01-1.49,3.03-3.96,2.66-6.43h0c-.44-2.92-2.72-5.22-5.64-5.67l-3.58-.56c-1.02-.16-2.07-.08-3.06,.23l-27.15,8.53c-2.81,.88-4.73,3.49-4.73,6.44Z"></path><path class="cls-14" d="M168.71,642.63l1.77,13.19c.52,3.86,3.81,6.74,7.7,6.74h0c4.29,0,7.77-3.48,7.77-7.77v-13.94l-17.25,1.78Z"></path><path class="cls-32" d="M157.71,609.9l6.47,32.42c.91,3.95,4.43,6.74,8.48,6.74h7.13c4.8,0,8.7-3.89,8.7-8.7v-48.29l-30.78,17.83Z"></path></g><path class="cls-35" d="M35.29,601.09l11.6,3.57-14.38,116.31c-.36,2.88-3.22,4.75-6,3.92h0c-2.15-.65-3.55-2.73-3.32-4.97l12.1-118.83Z"></path><path class="cls-35" d="M134.56,649.06l11.6,3.57-16.95,116.31c-.36,2.88-3.22,4.75-6,3.92h0c-2.15-.65-3.55-2.73-3.32-4.97l14.68-118.83Z"></path><path class="cls-20" d="M156.8,432.52c0,13.63-10.12,24.68-22.6,24.68-8.8,0-16.43-5.5-20.17-13.52-1.56-3.35-2.44-7.15-2.44-11.16,0-13.63,10.12-24.68,22.6-24.68s22.6,11.05,22.6,24.68Z"></path><path class="cls-20" d="M114.27,464.65l3.27-27.36,20.82,3.57-4.16,33.01c-1.78,16.06-18.14,9.52-19.93-9.22Z"></path><path class="cls-32" d="M136.05,431.48s9.59,1.78,13.83-1.56c4.24-3.35,12.49-7.14,10.48-15.61-2.01-8.48-7.14-19.63-24.31-17.18-17.18,2.45-26.99,3.79-31,14.05-4.02,10.26,1.78,34.35,5.35,39.48,3.57,5.13,22.69,10.81,26.29,3.4,3.6-7.41,.92-14.77-.64-22.58Z"></path><path class="cls-20" d="M153.25,539.04c3.86,16.07,8.16,32.18,13.57,47.81,1.68,4.85,3.94,8.97,8.31,11.89,3.74,2.5,8.52,3.46,12.96,3.04,4.9-.46,9.28-2.21,13.85-3.89,4.11-1.52,8.22-3.03,12.33-4.55,5.03-1.86,8.99-7.06,7.18-12.65-1.6-4.94-7.25-9.18-12.65-7.18-6.88,2.54-13.8,5.67-20.9,7.55-.61,.16-2.3,.35-.85,.26-.36,.02-2.58-.22-1.14,.06,.81,.12,.72,.07-.27-.15l.92,.41c-.84-.52-.94-.56-.31-.14,.31,.15,.55,.38,.71,.69,.94,.59-.18-.5-.46-1,1.14,2.01,.09-.03-.1-.58-.56-1.68-1.1-3.37-1.63-5.06-4.41-13.85-8.29-27.85-11.68-41.98-1.26-5.23-7.49-8.86-12.65-7.18-5.45,1.76-8.53,7.04-7.18,12.65h0Z"></path><path class="cls-12" d="M103.33,455.13c-10.51-.88-24.98,16.36-22.6,88.03,2.38,71.68,39.85,64.54,57.1,65.13,17.25,.59,13.68,3.57,17.25-8.33,3.57-11.9,7.22-108.5,.08-119.81-7.14-11.3-44.69-24.44-51.83-25.03Z"></path><path class="cls-10" d="M151.59,553.72c1.27,4.75,20.97,.22,26.54-3.57,0,0-3.07-43.13-6.91-56.88-3.12-11.15-9.23-15.96-18.96-16.46-5.13-.26-7.81,16.46-7.59,25.6,.22,9.15,2.68,35.47,6.92,51.3Z"></path><path class="cls-35" d="M24.57,592.35L7.83,476.62c-.74-5.13,4.68-8.91,9.24-6.43l91.66,49.81c2.26,1.23,4.09,3.12,5.25,5.42l43.73,87.17v44.48l-6.6,4.62c-3.22,2.25-7.47,4.91-10.84,2.89l-112.72-67.73c-1.62-.97-2.72-2.62-2.99-4.5Z"></path><g><path class="cls-32" d="M204.83,678.36v6.85c0,2.6,1.49,4.97,3.84,6.09l6.48,3.1c2.25,1.08,4.92,.82,6.93-.66l24.25-17.92c2.01-1.49,3.03-3.96,2.66-6.43h0c-.44-2.92-2.72-5.22-5.64-5.67l-3.58-.56c-1.02-.16-2.07-.08-3.06,.23l-27.15,8.53c-2.81,.88-4.73,3.49-4.73,6.44Z"></path><path class="cls-14" d="M205.73,659.62l1.77,13.19c.52,3.86,3.81,6.74,7.7,6.74h0c4.29,0,7.77-3.48,7.77-7.77v-13.94l-17.25,1.78Z"></path><path class="cls-32" d="M194.72,626.89l6.47,32.42c.91,3.95,4.43,6.74,8.48,6.74h7.13c4.8,0,8.7-3.89,8.7-8.7v-48.29l-30.78,17.83Z"></path></g><path class="cls-35" d="M215.47,591.93l-11.6,3.57,16.95,116.31c.36,2.88,3.22,4.75,6,3.92h0c2.15-.65,3.55-2.73,3.32-4.97l-14.68-118.83Z"></path><path class="cls-26" d="M222.51,576.21l-72.99,40.87c-8.17,4.57-13.23,13.21-13.23,22.57v14.48c0,8.7,9.47,14.08,16.95,9.63l76.56-45.59c4.26-2.54,6.92-7.09,7.03-12.05l.48-21.01c.18-7.7-8.08-12.66-14.8-8.9Z"></path></g></g><g><g><path class="cls-16" d="M374.24,687.23l38.75-22.37c2.86-1.65,6.52-.33,7.66,2.77l14.66,39.81c.68,1.84-.07,3.89-1.76,4.87l-71.94,41.54c-3.08,1.78-6.77-1.02-5.9-4.46l14.28-56.53c.6-2.37,2.13-4.4,4.26-5.63Z"></path><path class="cls-18" d="M435.32,707.44c.68,1.84-.07,3.89-1.76,4.87l-71.94,41.54c-3.08,1.78-6.77-1.02-5.9-4.46l14.28-56.53c10.67,1.32,65.33,14.58,65.33,14.58Z"></path><polygon class="cls-18" points="609.1 775.29 417.98 664.71 369.98 692.86 560.71 803.25 609.1 775.29"></polygon><polygon class="cls-18" points="548.47 864.28 560.71 803.25 369.98 692.86 357.08 753.48 548.47 864.28"></polygon><path class="cls-17" d="M564.96,797.62l38.75-22.37c2.86-1.65,6.52-.33,7.66,2.77l14.66,39.81c.68,1.83-.07,3.89-1.76,4.87l-71.94,41.54c-3.08,1.78-6.77-1.02-5.9-4.46l14.28-56.53c.6-2.37,2.13-4.4,4.26-5.63Z"></path><polygon class="cls-15" points="567.58 796.11 376.62 685.85 409.08 667.11 600.05 777.37 567.58 796.11"></polygon><g><path class="cls-13" d="M454.95,699.74c-.77,.04-1.51-.08-2.24-.35l1.4,1.23-1.06,.61-9.8-5.66,3.26-1.88,1.99,1.15-1.2,.69,2.42,1.4c1.18,.68,2.11,1.11,2.79,1.29,.69,.18,1.25,.14,1.69-.12,.44-.26,.51-.56,.2-.92-.3-.36-1.05-.87-2.23-1.55l-7.79-4.49c-1.01-.59-1.81-.95-2.38-1.07-.57-.13-1.06-.08-1.48,.16-.41,.24-.53,.5-.35,.78,.19,.28,.69,.65,1.51,1.13l1.88,1.08-2.22,1.28-1.27-.74c-1.37-.79-2.32-1.48-2.86-2.08-.9-1-.59-1.94,.94-2.82,1.23-.71,2.55-.97,3.99-.79,1.43,.18,2.98,.75,4.64,1.7l7.81,4.51c1.85,1.07,2.94,2.02,3.29,2.85,.33,.83,.02,1.53-.96,2.09-.55,.32-1.21,.49-1.97,.53Z"></path><path class="cls-13" d="M439.12,703.47l-8.21-4.74c-1.62-.93-2.59-1.79-2.9-2.58-.31-.79,.14-1.53,1.34-2.22,2.33-1.34,5.14-1.06,8.43,.84l8.21,4.74c1.75,1.01,2.77,1.93,3.09,2.75,.31,.82-.14,1.58-1.33,2.27-1.19,.69-2.49,.94-3.9,.76-1.41-.19-2.99-.79-4.74-1.8Zm4.52-2.57l-8.38-4.84c-.85-.49-1.54-.8-2.09-.93-.56-.13-1.03-.08-1.44,.15-.4,.23-.48,.5-.22,.81,.25,.31,.8,.7,1.65,1.2l8.37,4.83c1.03,.6,1.83,.98,2.39,1.15,.56,.17,1.06,.13,1.49-.12,.43-.25,.51-.53,.23-.85-.28-.32-.94-.78-2-1.39Z"></path><path class="cls-13" d="M436.63,710.7l-2.33-1.34,2.99-1.73-15.64-9.02,2.38-1.37,17.96,10.37-5.37,3.1Z"></path><path class="cls-13" d="M431.87,713.46c-1.2,.69-2.47,.94-3.84,.75-1.37-.19-2.95-.8-4.76-1.85l-8.09-4.68c-1.51-.87-2.41-1.69-2.68-2.43-.26-.75,.18-1.45,1.32-2.11l3.49-2.02,17.96,10.37-3.41,1.97Zm-14.82-9.76l-.7,.4c-.49,.28-.62,.59-.43,.93,.2,.34,.76,.78,1.69,1.32l8.86,5.13c.87,.5,1.57,.79,2.09,.87,.52,.08,1-.02,1.44-.27l.77-.45-13.74-7.93Z"></path></g><g><path class="cls-13" d="M578.56,770.26l-3.76,2.17-1.27-.74,1.11-.64-5.54-3.2,1-.58c.71-.08,1.31-.2,2.09-.49l.98,.57-1.1,.64,3.94,2.27,1.28-.74,1.27,.74Z"></path><path class="cls-13" d="M571.97,774.22c-1.26,.73-3.35,.5-5.67-.84-2.32-1.34-2.66-2.52-1.4-3.24,1.26-.73,3.3-.53,5.62,.81,2.32,1.34,2.72,2.54,1.45,3.27Zm-1.22-.71c.46-.27,.33-.75-1.53-1.83-1.87-1.08-2.64-1.11-3.1-.85-.46,.27-.4,.71,1.47,1.79,1.86,1.07,2.69,1.15,3.16,.88Z"></path><path class="cls-13" d="M567.06,777.05c-1.26,.73-3.35,.5-5.67-.84-2.32-1.34-2.66-2.51-1.4-3.24,1.27-.73,3.3-.53,5.62,.81,2.32,1.34,2.72,2.55,1.45,3.28Zm-1.22-.71c.46-.26,.33-.75-1.52-1.82-1.87-1.08-2.65-1.11-3.1-.85-.46,.27-.4,.71,1.46,1.79,1.86,1.07,2.7,1.15,3.16,.88Z"></path><path class="cls-13" d="M562.15,779.89c-1.26,.73-3.35,.5-5.67-.84-2.32-1.34-2.66-2.52-1.4-3.24,1.27-.73,3.3-.53,5.62,.81,2.32,1.34,2.72,2.54,1.45,3.27Zm-1.22-.71c.46-.27,.34-.75-1.52-1.83-1.87-1.08-2.64-1.11-3.1-.85-.46,.27-.4,.71,1.47,1.79,1.86,1.07,2.69,1.15,3.16,.88Z"></path><path class="cls-13" d="M559.58,783.84c-1.58,.91-3.38,1.02-4.48,.38-.96-.55-.73-1.14,.4-1.79l.74-.43c.51-.3,.57-.48,.3-.63-.18-.1-.33-.13-.57-.13-.13,.16-.28,.29-.46,.39-1.01,.58-2.38,.72-3.6,.01-.28-.16-.47-.35-.55-.49l-.73,.42-1.15-.66,1.68-.97c.12-.17,.33-.34,.58-.49,1-.58,2.55-.73,3.83,0,.62,.36,.83,.82,.76,1.16l.04,.03c.53-.04,1.13,.05,1.52,.28,.44,.25,.53,.52,.47,.77l.05,.02c.71-.08,1.29-.02,1.73,.24,.95,.55,.5,1.28-.58,1.9Zm-1.2-.45c.61-.35,.8-.71,.41-.94-.19-.11-.44-.16-.78-.16-.11,.11-.27,.23-.58,.41l-.47,.27c-.46,.26-.62,.46-.29,.65,.37,.21,1.1,.12,1.72-.24Zm-3.81-2.32c.36-.21,.33-.54-.25-.88-.57-.33-1.13-.34-1.5-.13-.36,.21-.33,.54,.23,.86,.59,.34,1.16,.36,1.52,.15Z"></path></g><polygon class="cls-13" points="441.71 720 468.27 704.66 463.46 701.89 436.91 717.22 441.71 720"></polygon></g><g><path class="cls-16" d="M285.79,739.02l38.75-22.37c2.86-1.65,6.52-.33,7.66,2.77l14.66,39.81c.68,1.83-.07,3.89-1.76,4.87l-71.94,41.54c-3.08,1.78-6.77-1.02-5.9-4.46l14.28-56.53c.6-2.37,2.13-4.4,4.26-5.63Z"></path><path class="cls-18" d="M346.87,759.23c.68,1.83-.07,3.89-1.76,4.87l-71.94,41.54c-3.08,1.78-6.77-1.02-5.9-4.46l14.28-56.53c10.67,1.32,65.33,14.58,65.33,14.58Z"></path><polygon class="cls-16" points="520.65 827.08 329.53 716.5 281.54 744.65 472.26 855.05 520.65 827.08"></polygon><polygon class="cls-18" points="460.02 916.08 472.26 855.05 281.54 744.65 268.63 805.27 460.02 916.08"></polygon><path class="cls-17" d="M476.51,849.42l38.75-22.37c2.86-1.65,6.52-.33,7.66,2.77l14.66,39.81c.68,1.83-.07,3.89-1.76,4.87l-71.94,41.54c-3.08,1.78-6.77-1.02-5.9-4.46l14.28-56.53c.6-2.37,2.13-4.41,4.26-5.63Z"></path><polygon class="cls-15" points="479.14 847.9 288.17 737.65 320.63 718.9 511.6 829.16 479.14 847.9"></polygon><g><path class="cls-13" d="M366.51,751.53c-.77,.04-1.51-.08-2.24-.35l1.4,1.23-1.06,.61-9.8-5.66,3.26-1.88,1.99,1.15-1.19,.69,2.42,1.4c1.18,.68,2.1,1.11,2.79,1.29,.68,.18,1.24,.14,1.69-.12,.45-.26,.51-.56,.2-.92-.3-.35-1.05-.87-2.23-1.55l-7.79-4.5c-1.01-.58-1.8-.94-2.38-1.07-.57-.13-1.06-.08-1.48,.16-.41,.24-.53,.5-.35,.78,.19,.28,.69,.65,1.51,1.13l1.88,1.09-2.21,1.28-1.28-.74c-1.37-.79-2.32-1.49-2.86-2.08-.9-1-.58-1.94,.94-2.82,1.23-.71,2.55-.97,3.98-.8,1.44,.18,2.98,.75,4.64,1.71l7.8,4.51c1.85,1.07,2.94,2.02,3.28,2.85,.33,.83,.01,1.53-.96,2.09-.55,.32-1.2,.5-1.97,.53Z"></path><path class="cls-13" d="M350.68,755.26l-8.21-4.74c-1.62-.94-2.58-1.8-2.9-2.58-.3-.79,.14-1.53,1.34-2.22,2.33-1.34,5.14-1.06,8.43,.84l8.21,4.74c1.75,1.01,2.78,1.93,3.09,2.75,.31,.82-.13,1.58-1.32,2.27s-2.49,.94-3.9,.76c-1.41-.19-2.99-.79-4.74-1.8Zm4.52-2.57l-8.38-4.84c-.84-.49-1.54-.79-2.09-.93-.55-.13-1.03-.08-1.43,.15-.41,.24-.48,.5-.23,.81,.25,.31,.8,.7,1.65,1.2l8.37,4.83c1.03,.6,1.84,.98,2.39,1.15,.56,.17,1.05,.13,1.49-.12,.43-.25,.5-.53,.23-.85-.28-.32-.94-.78-2-1.39Z"></path><path class="cls-13" d="M348.19,762.49l-2.33-1.34,2.99-1.73-15.63-9.03,2.37-1.37,17.96,10.37-5.36,3.1Z"></path><path class="cls-13" d="M343.42,765.24c-1.2,.69-2.47,.94-3.84,.76-1.37-.19-2.95-.8-4.76-1.85l-8.09-4.68c-1.51-.88-2.41-1.69-2.67-2.43-.27-.75,.18-1.45,1.32-2.11l3.49-2.02,17.96,10.37-3.41,1.97Zm-14.82-9.76l-.7,.4c-.48,.28-.63,.59-.43,.93,.2,.34,.76,.78,1.69,1.32l8.86,5.13c.87,.5,1.57,.79,2.09,.87,.53,.07,1.01-.02,1.44-.27l.78-.45-13.74-7.93Z"></path></g><g><path class="cls-13" d="M490.12,822.05l-3.76,2.17-1.27-.74,1.11-.64-5.54-3.2,1-.58c.71-.08,1.32-.2,2.09-.49l.98,.56-1.1,.64,3.94,2.27,1.28-.74,1.28,.74Z"></path><path class="cls-13" d="M483.53,826.01c-1.26,.73-3.35,.5-5.67-.84-2.32-1.34-2.66-2.51-1.4-3.24,1.27-.73,3.3-.53,5.62,.81,2.32,1.34,2.72,2.54,1.45,3.28Zm-1.22-.71c.46-.26,.33-.75-1.52-1.82-1.87-1.08-2.65-1.11-3.1-.85-.46,.27-.4,.71,1.47,1.79,1.86,1.07,2.69,1.15,3.16,.88Z"></path><path class="cls-13" d="M478.62,828.84c-1.26,.73-3.35,.5-5.67-.84-2.31-1.34-2.66-2.52-1.4-3.24,1.27-.73,3.3-.53,5.62,.81,2.32,1.34,2.72,2.55,1.45,3.27Zm-1.22-.71c.46-.26,.34-.75-1.52-1.82-1.87-1.08-2.64-1.11-3.1-.85-.46,.27-.4,.71,1.47,1.79,1.86,1.07,2.69,1.15,3.16,.88Z"></path><path class="cls-13" d="M473.71,831.68c-1.26,.73-3.35,.5-5.67-.84-2.31-1.34-2.66-2.51-1.4-3.24,1.26-.73,3.3-.53,5.62,.81,2.32,1.34,2.72,2.54,1.45,3.28Zm-1.22-.71c.46-.26,.33-.75-1.53-1.82-1.87-1.08-2.64-1.11-3.1-.85-.46,.27-.4,.71,1.47,1.79,1.86,1.07,2.69,1.15,3.16,.88Z"></path><path class="cls-13" d="M471.14,835.63c-1.58,.91-3.38,1.02-4.48,.38-.96-.55-.73-1.14,.4-1.79l.74-.43c.51-.3,.57-.48,.3-.63-.18-.11-.32-.13-.56-.13-.13,.16-.28,.29-.45,.39-1.01,.58-2.38,.72-3.6,0-.28-.16-.47-.35-.55-.49l-.74,.42-1.15-.66,1.69-.97c.12-.17,.33-.34,.58-.49,.99-.57,2.55-.73,3.83,0,.62,.36,.83,.82,.76,1.16l.04,.02c.53-.03,1.13,.05,1.52,.28,.44,.25,.54,.52,.47,.77l.05,.02c.71-.09,1.29-.02,1.73,.24,.95,.54,.5,1.27-.58,1.9Zm-1.2-.45c.61-.35,.81-.71,.41-.94-.19-.11-.44-.16-.78-.16-.11,.11-.27,.23-.59,.41l-.47,.27c-.46,.26-.62,.46-.29,.65,.36,.21,1.1,.12,1.72-.24Zm-3.81-2.32c.36-.21,.33-.54-.26-.88-.57-.33-1.13-.34-1.5-.13-.36,.21-.33,.54,.23,.86,.59,.34,1.16,.36,1.52,.15Z"></path></g><polygon class="cls-13" points="353.26 771.79 379.82 756.46 375.01 753.68 348.46 769.02 353.26 771.79"></polygon></g><g><path class="cls-17" d="M195.95,790.95l38.75-22.37c2.86-1.65,6.52-.33,7.66,2.77l14.66,39.81c.68,1.83-.07,3.89-1.76,4.87l-71.94,41.54c-3.08,1.78-6.77-1.02-5.9-4.46l14.28-56.53c.6-2.37,2.13-4.4,4.26-5.63Z"></path><path class="cls-18" d="M257.03,811.17c.68,1.83-.07,3.89-1.76,4.87l-71.94,41.54c-3.08,1.78-6.77-1.02-5.9-4.46l14.28-56.53c10.67,1.32,65.33,14.58,65.33,14.58Z"></path><polygon class="cls-18" points="430.81 879.02 239.69 768.43 191.69 796.58 382.42 906.98 430.81 879.02"></polygon><polygon class="cls-18" points="370.18 968.01 382.42 906.98 191.69 796.58 178.79 857.21 370.18 968.01"></polygon><path class="cls-17" d="M386.67,901.35l38.75-22.37c2.86-1.65,6.52-.33,7.66,2.77l14.66,39.81c.68,1.83-.07,3.89-1.76,4.87l-71.94,41.54c-3.08,1.78-6.77-1.02-5.9-4.46l14.28-56.53c.6-2.37,2.13-4.4,4.26-5.63Z"></path><polygon class="cls-15" points="389.3 899.84 198.33 789.58 230.79 770.84 421.76 881.09 389.3 899.84"></polygon><g><path class="cls-18" d="M276.66,803.46c-.76,.04-1.51-.08-2.24-.35l1.4,1.23-1.06,.61-9.8-5.66,3.26-1.88,1.99,1.15-1.19,.69,2.42,1.4c1.18,.68,2.11,1.11,2.79,1.29,.68,.18,1.24,.14,1.69-.12,.45-.26,.51-.56,.2-.92-.31-.35-1.05-.87-2.23-1.55l-7.79-4.5c-1.01-.58-1.8-.94-2.37-1.07-.57-.13-1.06-.08-1.48,.16-.41,.24-.53,.5-.35,.78,.19,.28,.69,.65,1.51,1.13l1.88,1.09-2.21,1.28-1.28-.74c-1.37-.79-2.32-1.49-2.86-2.08-.9-1-.58-1.94,.94-2.82,1.22-.71,2.55-.97,3.99-.8,1.43,.18,2.98,.75,4.64,1.71l7.81,4.51c1.85,1.07,2.94,2.02,3.29,2.85,.33,.83,.02,1.53-.96,2.09-.55,.31-1.21,.49-1.97,.53Z"></path><path class="cls-18" d="M260.83,807.19l-8.21-4.74c-1.62-.94-2.59-1.8-2.9-2.58-.31-.79,.14-1.53,1.34-2.22,2.33-1.34,5.13-1.06,8.42,.84l8.21,4.74c1.75,1.01,2.78,1.93,3.09,2.75,.31,.82-.13,1.58-1.32,2.27-1.19,.69-2.49,.94-3.9,.76s-2.99-.79-4.74-1.8Zm4.52-2.57l-8.38-4.84c-.85-.49-1.55-.79-2.1-.93-.55-.13-1.03-.08-1.43,.15-.4,.23-.48,.5-.23,.81,.26,.31,.81,.7,1.66,1.2l8.37,4.83c1.04,.6,1.84,.98,2.39,1.15,.56,.17,1.06,.13,1.48-.12,.43-.25,.51-.53,.24-.85-.28-.32-.95-.78-2-1.39Z"></path><path class="cls-18" d="M258.34,814.43l-2.33-1.34,3-1.73-15.64-9.02,2.37-1.37,17.96,10.37-5.36,3.1Z"></path><path class="cls-18" d="M253.58,817.18c-1.2,.69-2.47,.94-3.84,.76-1.36-.19-2.95-.8-4.76-1.85l-8.09-4.68c-1.52-.87-2.41-1.68-2.67-2.43-.26-.75,.18-1.45,1.32-2.11l3.49-2.02,17.96,10.37-3.41,1.97Zm-14.82-9.76l-.7,.41c-.48,.28-.62,.59-.42,.93,.2,.34,.76,.78,1.69,1.32l8.86,5.13c.87,.5,1.57,.79,2.09,.87,.52,.07,1.01-.02,1.44-.27l.78-.45-13.74-7.93Z"></path></g><g><path class="cls-18" d="M400.28,873.99l-3.76,2.17-1.27-.74,1.1-.64-5.54-3.2,1-.58c.71-.08,1.31-.2,2.09-.49l.98,.57-1.1,.64,3.94,2.27,1.28-.74,1.28,.74Z"></path><path class="cls-18" d="M393.69,877.94c-1.26,.73-3.36,.5-5.68-.84-2.31-1.34-2.66-2.52-1.4-3.24,1.27-.73,3.3-.53,5.62,.81,2.32,1.34,2.72,2.54,1.46,3.27Zm-1.23-.71c.46-.26,.34-.75-1.52-1.82-1.87-1.08-2.64-1.11-3.1-.85-.46,.27-.39,.71,1.47,1.79,1.86,1.07,2.69,1.15,3.15,.88Z"></path><path class="cls-18" d="M388.78,880.78c-1.27,.73-3.36,.5-5.68-.84-2.31-1.34-2.66-2.52-1.4-3.24,1.26-.73,3.3-.53,5.62,.81,2.32,1.34,2.72,2.54,1.46,3.27Zm-1.23-.71c.46-.26,.33-.75-1.52-1.82-1.87-1.08-2.65-1.11-3.1-.85-.47,.27-.4,.72,1.46,1.79,1.86,1.07,2.69,1.15,3.16,.88Z"></path><path class="cls-18" d="M383.86,883.61c-1.26,.73-3.35,.5-5.67-.84-2.32-1.34-2.66-2.52-1.4-3.24,1.26-.73,3.3-.53,5.62,.81,2.31,1.34,2.72,2.54,1.45,3.27Zm-1.22-.71c.46-.26,.33-.75-1.53-1.82-1.87-1.08-2.64-1.11-3.1-.85-.46,.27-.4,.71,1.47,1.79,1.86,1.07,2.69,1.15,3.16,.88Z"></path><path class="cls-18" d="M381.3,887.56c-1.58,.91-3.38,1.02-4.48,.38-.96-.55-.73-1.14,.41-1.79l.74-.43c.51-.3,.56-.48,.3-.63-.18-.1-.33-.13-.57-.13-.13,.16-.28,.29-.45,.38-1.01,.58-2.38,.72-3.6,.01-.28-.16-.47-.35-.55-.49l-.73,.42-1.15-.66,1.68-.97c.12-.17,.33-.34,.58-.49,.99-.58,2.55-.73,3.82,0,.62,.36,.83,.82,.77,1.16l.04,.03c.53-.03,1.13,.05,1.51,.28,.44,.25,.54,.52,.48,.77l.04,.02c.71-.09,1.29-.02,1.73,.24,.94,.55,.5,1.27-.58,1.9Zm-1.2-.45c.61-.35,.81-.71,.41-.94-.19-.11-.44-.15-.78-.16-.1,.11-.27,.23-.58,.41l-.47,.27c-.46,.26-.62,.46-.28,.65,.36,.21,1.1,.12,1.71-.24Zm-3.81-2.32c.36-.21,.33-.54-.26-.88-.57-.33-1.13-.34-1.49-.13-.36,.21-.33,.54,.23,.86,.59,.34,1.16,.36,1.52,.15Z"></path></g><polygon class="cls-18" points="263.42 823.72 289.98 808.39 285.17 805.62 258.62 820.95 263.42 823.72"></polygon></g><g><path class="cls-17" d="M332.8,654.37l38.75-22.37c2.86-1.65,6.52-.33,7.66,2.77l14.66,39.81c.68,1.83-.07,3.89-1.76,4.87l-71.94,41.54c-3.08,1.78-6.77-1.02-5.9-4.46l14.28-56.53c.6-2.37,2.13-4.4,4.26-5.63Z"></path><path class="cls-18" d="M393.87,674.58c.68,1.83-.07,3.89-1.76,4.87l-71.94,41.54c-3.08,1.78-6.77-1.02-5.9-4.46l14.28-56.53c10.67,1.32,65.33,14.58,65.33,14.58Z"></path><polygon class="cls-17" points="567.65 742.44 376.54 631.85 328.54 660 519.27 770.4 567.65 742.44"></polygon><polygon class="cls-18" points="507.03 831.43 519.27 770.4 328.54 660 315.64 720.63 507.03 831.43"></polygon><path class="cls-17" d="M523.52,764.77l38.75-22.37c2.86-1.65,6.52-.33,7.66,2.77l14.66,39.81c.68,1.83-.07,3.89-1.76,4.87l-71.94,41.54c-3.08,1.78-6.77-1.02-5.9-4.46l14.28-56.53c.6-2.37,2.13-4.4,4.26-5.63Z"></path><polygon class="cls-15" points="526.14 763.26 335.18 653 367.64 634.25 558.61 744.51 526.14 763.26"></polygon><g><path class="cls-18" d="M413.51,666.88c-.77,.04-1.51-.08-2.24-.35l1.4,1.23-1.06,.61-9.8-5.66,3.26-1.88,1.99,1.15-1.19,.69,2.42,1.4c1.18,.68,2.1,1.11,2.79,1.29,.68,.18,1.25,.14,1.69-.12,.45-.26,.52-.56,.21-.92-.31-.36-1.06-.87-2.24-1.55l-7.79-4.5c-1.01-.58-1.8-.94-2.37-1.07-.57-.13-1.06-.08-1.48,.16-.41,.24-.53,.5-.35,.78,.19,.28,.69,.66,1.51,1.13l1.88,1.09-2.21,1.28-1.27-.74c-1.37-.79-2.32-1.48-2.86-2.08-.9-1-.58-1.94,.94-2.82,1.23-.71,2.55-.97,3.99-.79,1.43,.18,2.98,.75,4.64,1.7l7.81,4.51c1.85,1.07,2.94,2.02,3.29,2.85,.33,.83,.01,1.53-.96,2.09-.55,.32-1.21,.5-1.97,.54Z"></path><path class="cls-18" d="M397.68,670.61l-8.21-4.74c-1.62-.94-2.58-1.8-2.9-2.58-.3-.79,.14-1.53,1.35-2.22,2.32-1.34,5.13-1.06,8.42,.84l8.21,4.74c1.75,1.01,2.78,1.93,3.09,2.75,.32,.82-.13,1.58-1.32,2.27-1.19,.69-2.49,.94-3.9,.75-1.4-.19-2.98-.79-4.74-1.8Zm4.52-2.57l-8.38-4.84c-.84-.49-1.54-.79-2.1-.93-.55-.13-1.02-.08-1.43,.15-.4,.23-.48,.5-.23,.81,.25,.31,.81,.7,1.66,1.19l8.37,4.83c1.04,.6,1.83,.98,2.39,1.15,.56,.17,1.05,.13,1.49-.12,.43-.25,.51-.53,.23-.85-.28-.32-.94-.78-2-1.39Z"></path><path class="cls-18" d="M395.19,677.85l-2.33-1.34,2.99-1.73-15.63-9.03,2.37-1.37,17.96,10.37-5.36,3.1Z"></path><path class="cls-18" d="M390.42,680.6c-1.2,.69-2.47,.94-3.84,.76-1.37-.19-2.95-.8-4.76-1.85l-8.1-4.68c-1.51-.88-2.41-1.69-2.67-2.44-.26-.75,.18-1.45,1.32-2.11l3.49-2.02,17.96,10.37-3.41,1.97Zm-14.81-9.76l-.7,.4c-.48,.28-.62,.59-.43,.93,.2,.34,.76,.78,1.69,1.32l8.86,5.13c.87,.5,1.57,.79,2.09,.87,.52,.08,1.01-.02,1.44-.27l.78-.45-13.74-7.93Z"></path></g><g><path class="cls-18" d="M537.12,737.41l-3.76,2.17-1.28-.74,1.11-.64-5.54-3.2,1-.58c.71-.08,1.31-.2,2.09-.49l.98,.56-1.1,.64,3.94,2.27,1.28-.74,1.28,.74Z"></path><path class="cls-18" d="M530.53,741.36c-1.26,.73-3.35,.5-5.67-.84-2.32-1.34-2.66-2.51-1.4-3.24,1.26-.73,3.3-.53,5.62,.81,2.32,1.34,2.72,2.55,1.45,3.28Zm-1.22-.71c.46-.26,.33-.75-1.53-1.82-1.87-1.08-2.64-1.11-3.1-.85-.47,.27-.4,.71,1.47,1.79,1.86,1.07,2.69,1.15,3.16,.88Z"></path><path class="cls-18" d="M525.62,744.2c-1.26,.73-3.35,.5-5.67-.84-2.32-1.34-2.66-2.52-1.4-3.24,1.26-.73,3.3-.53,5.62,.81,2.32,1.34,2.72,2.54,1.45,3.27Zm-1.22-.71c.46-.27,.33-.75-1.52-1.83-1.87-1.08-2.65-1.11-3.1-.85-.46,.27-.4,.71,1.46,1.79,1.86,1.07,2.7,1.15,3.16,.88Z"></path><path class="cls-18" d="M520.7,747.04c-1.26,.73-3.35,.5-5.67-.84-2.32-1.34-2.66-2.51-1.4-3.24,1.27-.73,3.3-.53,5.62,.81,2.32,1.34,2.72,2.55,1.45,3.28Zm-1.22-.71c.46-.26,.33-.75-1.52-1.82-1.87-1.08-2.64-1.11-3.1-.85-.46,.27-.4,.71,1.47,1.79,1.86,1.07,2.69,1.15,3.16,.88Z"></path><path class="cls-18" d="M518.13,750.98c-1.58,.91-3.38,1.02-4.49,.39-.96-.55-.72-1.14,.41-1.79l.74-.43c.51-.3,.57-.48,.3-.63-.18-.11-.32-.13-.56-.13-.13,.16-.29,.29-.46,.38-1.01,.58-2.38,.72-3.6,0-.28-.16-.47-.35-.55-.49l-.73,.42-1.15-.66,1.68-.97c.12-.17,.33-.34,.58-.49,1-.57,2.55-.73,3.83,0,.62,.36,.83,.82,.77,1.16l.04,.02c.53-.03,1.13,.05,1.52,.28,.44,.25,.53,.52,.47,.77l.04,.03c.71-.09,1.3-.02,1.73,.24,.94,.54,.5,1.27-.58,1.9Zm-1.2-.45c.61-.35,.81-.71,.41-.94-.19-.11-.44-.16-.78-.16-.11,.11-.27,.23-.58,.41l-.47,.27c-.46,.27-.62,.46-.29,.65,.36,.21,1.1,.12,1.72-.24Zm-3.81-2.32c.36-.21,.33-.54-.26-.88-.57-.33-1.13-.34-1.49-.13-.36,.21-.33,.54,.23,.86,.59,.34,1.16,.36,1.52,.15Z"></path></g><polygon class="cls-18" points="400.27 687.14 426.83 671.81 422.02 669.04 395.47 684.37 400.27 687.14"></polygon></g><g><path class="cls-17" d="M237.44,708.53l38.75-22.37c2.86-1.65,6.52-.33,7.66,2.77l14.66,39.81c.68,1.84-.07,3.89-1.76,4.87l-71.94,41.54c-3.08,1.78-6.77-1.02-5.9-4.46l14.28-56.53c.6-2.37,2.13-4.4,4.26-5.63Z"></path><path class="cls-18" d="M298.51,728.75c.68,1.84-.07,3.89-1.76,4.87l-71.94,41.54c-3.08,1.78-6.77-1.02-5.9-4.46l14.28-56.53c10.67,1.32,65.33,14.58,65.33,14.58Z"></path><polygon class="cls-17" points="472.29 796.6 281.18 686.02 233.18 714.16 423.9 824.56 472.29 796.6"></polygon><polygon class="cls-18" points="411.66 885.59 423.9 824.56 233.18 714.16 220.28 774.79 411.66 885.59"></polygon><path class="cls-17" d="M428.16,818.93l38.75-22.37c2.86-1.65,6.52-.33,7.66,2.77l14.66,39.81c.68,1.84-.07,3.89-1.76,4.87l-71.94,41.54c-3.08,1.78-6.77-1.02-5.9-4.46l14.28-56.53c.6-2.37,2.13-4.4,4.26-5.63Z"></path><polygon class="cls-15" points="430.78 817.42 239.81 707.16 272.28 688.42 463.25 798.67 430.78 817.42"></polygon><g><path class="cls-18" d="M318.15,721.04c-.76,.04-1.51-.08-2.24-.35l1.4,1.23-1.06,.61-9.8-5.66,3.26-1.88,1.99,1.15-1.2,.69,2.42,1.4c1.18,.68,2.11,1.11,2.79,1.29,.68,.18,1.25,.14,1.69-.12,.45-.26,.52-.56,.21-.92-.3-.36-1.06-.87-2.23-1.55l-7.79-4.5c-1.01-.58-1.8-.94-2.37-1.07-.57-.13-1.06-.08-1.48,.16-.41,.24-.53,.5-.35,.78,.18,.28,.69,.65,1.51,1.13l1.88,1.09-2.21,1.28-1.28-.74c-1.37-.79-2.32-1.49-2.86-2.08-.9-1-.59-1.94,.94-2.82,1.23-.71,2.56-.97,3.99-.79,1.44,.18,2.98,.75,4.64,1.71l7.81,4.51c1.85,1.07,2.94,2.02,3.29,2.85,.33,.83,.02,1.53-.96,2.09-.55,.32-1.21,.5-1.97,.54Z"></path><path class="cls-18" d="M302.32,724.77l-8.21-4.74c-1.62-.94-2.58-1.8-2.9-2.58-.31-.79,.14-1.53,1.34-2.22,2.33-1.34,5.13-1.06,8.43,.84l8.21,4.74c1.75,1.01,2.78,1.93,3.09,2.75,.31,.82-.13,1.58-1.32,2.27-1.2,.69-2.49,.94-3.9,.76-1.41-.19-2.99-.79-4.74-1.8Zm4.52-2.57l-8.38-4.84c-.84-.49-1.54-.8-2.09-.93-.55-.13-1.03-.08-1.44,.15-.4,.24-.47,.5-.23,.81,.25,.31,.81,.7,1.66,1.2l8.37,4.83c1.04,.6,1.83,.98,2.39,1.15,.56,.17,1.05,.13,1.48-.12,.43-.25,.51-.54,.23-.85-.27-.32-.94-.78-2-1.39Z"></path><path class="cls-18" d="M299.83,732.01l-2.33-1.34,2.99-1.73-15.63-9.03,2.37-1.37,17.96,10.37-5.36,3.1Z"></path><path class="cls-18" d="M295.07,734.76c-1.2,.69-2.47,.94-3.84,.76-1.37-.19-2.95-.8-4.76-1.85l-8.1-4.68c-1.51-.88-2.41-1.69-2.67-2.43s.18-1.45,1.32-2.11l3.49-2.02,17.96,10.37-3.41,1.97Zm-14.81-9.76l-.7,.4c-.48,.28-.62,.59-.42,.93s.76,.78,1.69,1.32l8.86,5.13c.87,.5,1.57,.79,2.09,.87,.52,.07,1.01-.02,1.44-.27l.78-.45-13.74-7.93Z"></path></g><g><path class="cls-18" d="M441.76,791.57l-3.76,2.17-1.27-.74,1.11-.64-5.54-3.2,1-.58c.71-.07,1.31-.2,2.09-.49l.98,.56-1.1,.64,3.94,2.27,1.28-.74,1.27,.74Z"></path><path class="cls-18" d="M435.17,795.52c-1.26,.73-3.35,.5-5.67-.84-2.32-1.34-2.66-2.52-1.4-3.24,1.27-.73,3.3-.53,5.62,.81,2.32,1.34,2.72,2.54,1.45,3.27Zm-1.22-.71c.46-.26,.33-.75-1.53-1.82-1.87-1.08-2.64-1.11-3.1-.85-.46,.27-.4,.71,1.47,1.79,1.86,1.07,2.69,1.15,3.16,.88Z"></path><path class="cls-18" d="M430.26,798.36c-1.26,.73-3.35,.5-5.67-.84-2.32-1.34-2.66-2.52-1.4-3.24,1.26-.73,3.3-.53,5.62,.81,2.32,1.34,2.72,2.54,1.45,3.27Zm-1.22-.71c.46-.26,.34-.75-1.52-1.82-1.87-1.08-2.65-1.11-3.1-.85-.46,.27-.4,.72,1.46,1.79,1.86,1.07,2.7,1.15,3.16,.88Z"></path><path class="cls-18" d="M425.34,801.2c-1.26,.73-3.35,.5-5.67-.84-2.32-1.34-2.66-2.52-1.4-3.24,1.27-.73,3.3-.53,5.62,.81,2.32,1.34,2.72,2.54,1.45,3.27Zm-1.22-.71c.46-.26,.33-.75-1.52-1.82-1.87-1.08-2.64-1.11-3.1-.85-.46,.27-.39,.71,1.47,1.79,1.86,1.07,2.69,1.15,3.15,.88Z"></path><path class="cls-18" d="M422.77,805.15c-1.58,.91-3.38,1.02-4.49,.39-.96-.55-.73-1.14,.41-1.8l.74-.43c.51-.3,.57-.48,.3-.63-.18-.1-.32-.13-.56-.13-.13,.16-.28,.29-.46,.38-1.01,.58-2.38,.72-3.6,.01-.28-.16-.47-.35-.55-.49l-.73,.42-1.15-.66,1.68-.97c.11-.17,.32-.34,.58-.49,1-.57,2.55-.73,3.83,0,.63,.36,.84,.82,.77,1.16l.04,.02c.53-.03,1.13,.05,1.52,.28,.44,.25,.53,.52,.47,.77l.04,.02c.71-.09,1.29-.02,1.73,.24,.94,.54,.5,1.27-.58,1.9Zm-1.2-.45c.61-.35,.81-.72,.41-.94-.19-.11-.44-.15-.77-.16-.11,.11-.27,.23-.59,.41l-.47,.27c-.46,.26-.62,.46-.29,.65,.36,.21,1.1,.12,1.72-.24Zm-3.81-2.32c.37-.21,.34-.54-.25-.88-.57-.33-1.13-.34-1.5-.13-.36,.21-.33,.54,.23,.86,.59,.34,1.16,.36,1.52,.15Z"></path></g><polygon class="cls-18" points="304.91 741.3 331.46 725.97 326.66 723.2 300.1 738.53 304.91 741.3"></polygon></g></g></g></g></g></svg>