<svg xmlns="http://www.w3.org/2000/svg" viewBox="0 0 54 54"><g id="icon-product-forex-colored" transform="translate(3464 -4211)"><rect id="Rectangle_20229" data-name="Rectangle 20229" width="54" height="54" transform="translate(-3464 4211)" fill="#940000" opacity="0"></rect><g id="&#x421;&#x43B;&#x43E;&#x439;_2" data-name="&#x421;&#x43B;&#x43E;&#x439; 2" transform="translate(-3463 4211)"><g id="Layer_1" data-name="Layer 1" transform="translate(0 0)"><path id="Path_5293" data-name="Path 5293" d="M39.773,42.49l-20.965,14.7H17.9L8.693,51.041a1.254,1.254,0,0,0-1.585.43,1.239,1.239,0,0,0,.211,1.621L17.53,59.927v7.519h1.711V59.927l19.57-13.739V54.37h1.711V46.564l9.826,9.023a1.255,1.255,0,0,0,1.674-.14,1.239,1.239,0,0,0,.023-1.671Z" transform="translate(-2.183 -13.446)" fill="#4c4c4c"></path><path id="Path_5294" data-name="Path 5294" d="M49.6,0A13.479,13.479,0,1,0,63.069,13.477,13.479,13.479,0,0,0,49.6,0Zm4.163,9.009a3.828,3.828,0,0,0-2.522-.923,4.3,4.3,0,0,0-2.563.738,4.224,4.224,0,0,0-1.121,1.237,3.951,3.951,0,0,0-.581,1.558h6.207l-.246,1.217H46.807v1.2h5.858l-.226,1.237H46.972a4.1,4.1,0,0,0,1.839,2.96,4.327,4.327,0,0,0,2.263.629,3.746,3.746,0,0,0,2.659-.9v1.852a5.831,5.831,0,0,1-2.509.533q-4.1,0-5.564-3.418a9.3,9.3,0,0,1-.5-1.675H43.793l.26-1.217H45v-1.2h-1.21l.26-1.224h1.053a5.769,5.769,0,0,1,2.939-4.258,6.63,6.63,0,0,1,3.233-.786,5.215,5.215,0,0,1,2.844.738Z" transform="translate(-11.188 0)" fill="#ff8055"></path><path id="Path_5295" data-name="Path 5295" d="M19.06,21.987a2.864,2.864,0,0,0,.643,1.88,4.347,4.347,0,0,0,2.133,1.2V19a3.261,3.261,0,0,0-2.051,1.025A2.864,2.864,0,0,0,19.06,21.987Z" transform="translate(-5.967 -6.013)" fill="#4c4c4c"></path><path id="Path_5296" data-name="Path 5296" d="M25,31.42v6.685A3.247,3.247,0,0,0,27.119,37a3.466,3.466,0,0,0,.834-2.358,2.946,2.946,0,0,0-.595-1.921A5.12,5.12,0,0,0,25,31.42Z" transform="translate(-7.827 -9.943)" fill="#4c4c4c"></path><path id="Path_5297" data-name="Path 5297" d="M16.405,7a16.371,16.371,0,1,0,11.61,4.795A16.405,16.405,0,0,0,16.405,7Zm4.47,23.569a5.338,5.338,0,0,1-3.759,1.641v2.215h-1.3V32.23a8.093,8.093,0,0,1-2.679-.738,4.662,4.662,0,0,1-1.777-1.716,6.152,6.152,0,0,1-.875-2.891l2.208-.417a5.591,5.591,0,0,0,.9,2.6,3.219,3.219,0,0,0,2.222,1.306V23.405a9.071,9.071,0,0,1-2.83-1.073,4.047,4.047,0,0,1-1.613-1.62,4.785,4.785,0,0,1-.574-2.358,4.785,4.785,0,0,1,1.661-3.794,5.776,5.776,0,0,1,3.295-1.2V12.311h1.333v1.053a5.386,5.386,0,0,1,3.028,1.155,5,5,0,0,1,1.757,3.247l-2.269.342a3.78,3.78,0,0,0-.813-1.982,3.035,3.035,0,0,0-1.7-.923v6.336a16.405,16.405,0,0,1,2.194.649,5.427,5.427,0,0,1,1.675,1.094,4.416,4.416,0,0,1,.991,1.538,5.25,5.25,0,0,1,.349,1.928,5.3,5.3,0,0,1-1.456,3.821Z" transform="translate(0 -2.215)" fill="#4c4c4c"></path></g></g></g></svg>