<svg xmlns="http://www.w3.org/2000/svg" width="136.156" height="42.246" viewBox="0 0 136.156 42.246"><g id="ATFX" transform="translate(0 0.01)"><path id="_5" data-name="5" d="M112.721,69.239a1.855,1.855,0,0,1-1.811-1.767V33.284a2.385,2.385,0,0,0-2.3-2.518H99.779A1.908,1.908,0,0,1,98.1,28.911,1.855,1.855,0,0,1,99.779,27.1H125.4a1.835,1.835,0,0,1,0,3.666h-11V67.473a1.855,1.855,0,0,1-1.679,1.767" transform="translate(-59.848 -27.061)" fill="#fff"></path><path id="_4" data-name="4" d="M181.723,69.351A1.767,1.767,0,0,1,180,67.584V29.023a1.767,1.767,0,0,1,1.723-1.723h22a1.767,1.767,0,0,1,1.723,1.723,1.855,1.855,0,0,1-1.723,1.855H186.184a2.567,2.567,0,0,0-2.65,2.827v10.38h18.022a1.811,1.811,0,0,1,0,3.622H183.534V67.584a1.811,1.811,0,0,1-1.811,1.767" transform="translate(-105.572 -27.173)" fill="#fff"></path><path id="_3" data-name="3" d="M283.264,66.307,273.193,50.759a5.08,5.08,0,0,1-.663-2.694,6.007,6.007,0,0,1,.928-3.224l9.806-15.151a1.767,1.767,0,0,0-.4-2.341,1.811,1.811,0,0,0-2.65.574L269.306,44.8,258.352,27.922a1.767,1.767,0,0,0-2.562-.618,1.9,1.9,0,0,0-.486,2.429L267.186,48.02,255.348,66.307a1.767,1.767,0,1,0,2.915,1.944l11.043-17.006L280.349,68.25a1.754,1.754,0,1,0,2.915-1.944" transform="translate(-147.394 -27)" fill="#fff"></path><path id="_2" data-name="2" d="M46.729,69.3a1.723,1.723,0,0,1-1.546-1.06L32.241,37.58a2.032,2.032,0,0,0-1.634-1.06,2.223,2.223,0,0,0-1.9,1.458L16.03,68.279a1.764,1.764,0,0,1-2.3.839,1.682,1.682,0,0,1-.972-2.209L29.017,28.3a1.811,1.811,0,0,1,1.634-1.1,1.9,1.9,0,0,1,1.634,1.237L48.408,66.91a1.855,1.855,0,0,1,0,1.325,1.723,1.723,0,0,1-.883.883,1.9,1.9,0,0,1-.8.177" transform="translate(-12.143 -27.117)" fill="#fff"></path><path id="_1" data-name="1" d="M13.444,87.487a1.944,1.944,0,1,1,0-3.887H37.738l1.634,3.887Z" transform="translate(-11.5 -58.605)" fill="#f2672a"></path></g></svg>