<svg xmlns="http://www.w3.org/2000/svg" xmlns:xlink="http://www.w3.org/1999/xlink" viewBox="0 0 186 185.714"><defs><clipPath id="clip-path"><circle id="Ellipse_171" data-name="Ellipse 171" cx="55.194" cy="55.194" r="55.194" fill="#32849d"></circle></clipPath><linearGradient id="linear-gradient" y1="0.5" x2="1" y2="0.5" gradientUnits="objectBoundingBox"><stop offset="0" stop-color="#cbe1e8"></stop><stop offset="1" stop-color="#a1dae5"></stop></linearGradient></defs><g id="Group_4730" data-name="Group 4730" transform="translate(-1029.327 -1343.437)"><g id="Group_4532" data-name="Group 4532" transform="translate(1135.884 1469.213)"><rect id="Rectangle_2798" data-name="Rectangle 2798" width="20.321" height="0.623" transform="translate(0 20.101) rotate(-81.572)" fill="#cbe1e8"></rect></g><g id="Group_4533" data-name="Group 4533" transform="translate(1133.67 1469.152)"><rect id="Rectangle_2799" data-name="Rectangle 2799" width="20.321" height="0.623" transform="translate(0 20.271) rotate(-85.982)" fill="#cbe1e8"></rect></g><g id="Group_4534" data-name="Group 4534" transform="translate(1123.99 1469.152)"><rect id="Rectangle_2800" data-name="Rectangle 2800" width="0.623" height="20.321" transform="translate(0 0.044) rotate(-4.018)" fill="#cbe1e8"></rect></g><g id="Group_4535" data-name="Group 4535" transform="translate(1120.162 1469.213)"><rect id="Rectangle_2801" data-name="Rectangle 2801" width="0.623" height="20.321" transform="translate(0 0.091) rotate(-8.427)" fill="#cbe1e8"></rect></g><g id="Group_4536" data-name="Group 4536" transform="translate(1117.263 1487.661)"><path id="Path_3541" data-name="Path 3541" d="M2987.148,1439.866l-4.665-13.064a2.884,2.884,0,0,0-2.709-1.91h-8.345a2.883,2.883,0,0,0-2.711,1.914l-4.1,11.529-1.764-.626,4.1-11.529a4.757,4.757,0,0,1,4.474-3.159h8.345a4.759,4.759,0,0,1,4.472,3.151l4.666,13.064Z" transform="translate(-2962.859 -1423.021)" fill="#cbe1e8"></path></g><path id="Path_3542" data-name="Path 3542" d="M2946.547,1518.075a52.49,52.49,0,0,1-15.484-2,.881.881,0,0,0-1.165.829c-.01,1.66-.019,5.368-.025,9.366a14.263,14.263,0,0,0,14.262,14.287h5.462a14.263,14.263,0,0,0,14.261-14.313c-.014-4.066-.032-7.852-.053-9.556a.88.88,0,0,0-1.172-.823C2958.965,1517.208,2953.125,1518.075,2946.547,1518.075Z" transform="translate(-1817.08 -15.578)" fill="#123354"></path><g id="Group_4537" data-name="Group 4537" transform="translate(1112.617 1505.682)"><path id="Path_3543" data-name="Path 3543" d="M2936.862,1559.762a13.852,13.852,0,0,1-8.285-3.129l.369-.5c5.5,4.042,10.13,4.037,16.512-.012l.185-.118.174.134c8.162,6.325,16.631.063,16.715,0l.377.5c-.088.066-8.816,6.525-17.3.131C2942.409,1558.762,2939.582,1559.762,2936.862,1559.762Z" transform="translate(-2928.576 -1556.001)" fill="#cbe1e8"></path></g><g id="Group_4538" data-name="Group 4538" transform="translate(1126.547 1505.799)"><path id="Path_3544" data-name="Path 3544" d="M3034.853,1566.118v-.036h-.624v.036c-.36.282-2.859,2.306-2.859,4.111a1.989,1.989,0,0,0,.617,1.417,3.991,3.991,0,0,0,5.108,0,1.989,1.989,0,0,0,.617-1.417C3037.712,1568.424,3035.213,1566.4,3034.853,1566.118Z" transform="translate(-3031.37 -1564.833)" fill="#cbe1e8"></path><path id="Path_3545" data-name="Path 3545" d="M3044.892,1558.632s-1.455-.667-1.143-1.17,1.028-.412,2.349-.59c1.082-.145-.14,1.627-.14,1.627Z" transform="translate(-3042.033 -1556.864)" fill="#cbe1e8"></path></g><g id="Group_4539" data-name="Group 4539" transform="translate(1143.295 1505.799)"><path id="Path_3546" data-name="Path 3546" d="M3158.442,1566.118v-.036h-.624v.036c-.361.282-2.859,2.306-2.859,4.111a1.988,1.988,0,0,0,.617,1.417,3.991,3.991,0,0,0,5.108,0,1.988,1.988,0,0,0,.616-1.417C3161.3,1568.424,3158.8,1566.4,3158.442,1566.118Z" transform="translate(-3154.959 -1564.833)" fill="#cbe1e8"></path><path id="Path_3547" data-name="Path 3547" d="M3168.482,1558.632s-1.456-.667-1.144-1.17,1.028-.412,2.349-.59c1.082-.145-.139,1.627-.139,1.627Z" transform="translate(-3165.623 -1556.864)" fill="#cbe1e8"></path></g><g id="Group_4540" data-name="Group 4540" transform="translate(1109.631 1505.799)"><path id="Path_3548" data-name="Path 3548" d="M2910.023,1566.118v-.036h-.624v.036c-.36.282-2.859,2.306-2.859,4.111a1.988,1.988,0,0,0,.617,1.417,3.991,3.991,0,0,0,5.108,0,1.988,1.988,0,0,0,.617-1.417C2912.882,1568.424,2910.383,1566.4,2910.023,1566.118Z" transform="translate(-2906.54 -1564.833)" fill="#cbe1e8"></path><path id="Path_3549" data-name="Path 3549" d="M2920.062,1558.632s-1.456-.667-1.143-1.17,1.028-.412,2.349-.59c1.082-.145-.14,1.627-.14,1.627Z" transform="translate(-2917.203 -1556.864)" fill="#cbe1e8"></path></g><g id="Group_4543" data-name="Group 4543" transform="translate(1155.778 1343.437)"><path id="Path_3550" data-name="Path 3550" d="M3263.448,358.748c-12.772,7.171-15.84,22.368-16.374,32.532a21.191,21.191,0,0,1,6.137,8.438l-1.005-2.423c1.475,3.393,3.293,6.538,4.906,9.809l11.984,7.04S3294.089,384.078,3263.448,358.748Z" transform="translate(-3247.074 -358.748)" fill="#f2672a"></path><path id="Path_3551" data-name="Path 3551" d="M3265.239,377.04l10.15,8.8h0l-2.658,21.094.085.171.55.323,1.341-10.638,19.454-13.067q-.047-.382-.1-.765l-19.237,12.921,4.646-36.866c-.105-.088-.209-.177-.316-.265h0c-.127.072-.25.148-.376.221l-3.282,26.044-10.021-8.688C3265.392,376.564,3265.315,376.8,3265.239,377.04Z" transform="translate(-3262.778 -358.748)" fill="#fff"></path></g><g id="Group_4544" data-name="Group 4544" transform="translate(1162.799 1354.876)"><path id="Path_3552" data-name="Path 3552" d="M3339.894,443.349c-20.838-2.751-37.575,24.775-41.008,30.871,2.084,4.082,4.366,8.008,5.757,12.516a23.994,23.994,0,0,1,.6,2.395l21.784-4.746S3351.657,467.219,3339.894,443.349Z" transform="translate(-3298.886 -443.156)" fill="#e0e1e1"></path><path id="Path_3553" data-name="Path 3553" d="M3345.912,476.705l16.552-19.532,13.567-.257-.006-.325c0-.122-.006-.244-.011-.367l-12.953.245,9.932-11.72c-.045-.094-.086-.187-.132-.281-.175-.009-.349-.012-.523-.017l-18.544,21.884-3.96-13.371q-.294.231-.585.465l4.009,13.538-16.237,19.161c.092.25.183.5.27.753l8.042-9.49,22.783.3c.182-.224.364-.453.545-.685Z" transform="translate(-3331.852 -444.276)" fill="#fff"></path></g><g id="Group_4546" data-name="Group 4546" transform="translate(1161.439 1390.819)"><path id="Path_3554" data-name="Path 3554" d="M3334.222,714.755c-12.344-12.586-37.812-2.6-37.812-2.6l-1.774.273a37.8,37.8,0,0,1,1.332,3.606,24.172,24.172,0,0,1-1.673,18.367,20.87,20.87,0,0,1-5.444,6.419,44.512,44.512,0,0,0,23.478-1.869C3321.954,735.447,3330.873,728.412,3334.222,714.755Z" transform="translate(-3288.85 -708.397)" fill="#f2672a"></path><g id="Group_4545" data-name="Group 4545" transform="translate(7.738 0.181)"><path id="Path_3555" data-name="Path 3555" d="M3383.484,716.311c.034-.133.069-.266.1-.4h0c-.091-.093-.185-.181-.277-.271l-20.387,6.945,6.377-12.8q-.374-.03-.748-.052L3361.99,722.9l-15.9,5.417c-.042.26-.085.52-.135.778l3.041-1.036,16.419,10.486q.365-.175.728-.357l-16.308-10.415Z" transform="translate(-3345.954 -709.733)" fill="#fff"></path></g></g><g id="Group_4550" data-name="Group 4550" transform="translate(1051.528 1376.68)"><g id="Group_4547" data-name="Group 4547" transform="translate(1.947 0)"><path id="Path_3556" data-name="Path 3556" d="M2536.669,634.986s-15.817-30.505-39.993-30.925c-14.636,25.126,10.905,45.708,10.905,45.708l28.845,8.423Z" transform="translate(-2492.15 -604.061)" fill="#f2672a"></path><path id="Path_3557" data-name="Path 3557" d="M2521.927,615.071l-5.332,14.274-18.552-25.263c-.19-.007-.379-.018-.571-.021-.057.1-.108.2-.165.3l9.936,13.53-14.1-1.251c-.015.134-.026.266-.041.4l-.031.354,14.769,1.311,16.558,22.548-24.817-1.407c.18.267.36.531.542.789l24.856,1.409,11.758,16.012.487.142.009-.747-20.1-27.371,5.4-14.452C2522.331,615.438,2522.129,615.254,2521.927,615.071Z" transform="translate(-2492.945 -604.061)" fill="#fff"></path></g><g id="Group_4549" data-name="Group 4549" transform="translate(0 40.077)"><path id="Path_3558" data-name="Path 3558" d="M2517.7,905.729l8.625,17.022a17.446,17.446,0,0,0-4.249,11.99,15.566,15.566,0,0,0,.649,3.813c-15.129-.855-40.322-6.375-44.943-33.159C2492.2,892.614,2517.7,905.729,2517.7,905.729Z" transform="translate(-2477.784 -899.8)" fill="#e0e1e1"></path><g id="Group_4548" data-name="Group 4548" transform="translate(0 0.002)"><path id="Path_3559" data-name="Path 3559" d="M2478.108,905.135l21.695,9.118-5.979-14.434q.41,0,.819,0l6.151,14.851,24,10.086q-.2.321-.394.656l-9.829-4.131-18.694,10.183q-.385-.218-.766-.444l18.567-10.114-35.808-15.051c-.027-.148-.056-.295-.081-.444h0C2477.892,905.315,2478,905.227,2478.108,905.135Z" transform="translate(-2477.785 -899.817)" fill="#fff"></path></g></g></g><g id="Group_4554" data-name="Group 4554" transform="translate(1074.44 1362.129)"><g id="Group_4553" data-name="Group 4553" transform="translate(0 0)"><path id="Path_3885" data-name="Path 3885" d="M55.194,0A55.194,55.194,0,1,1,0,55.194,55.194,55.194,0,0,1,55.194,0Z" transform="translate(0 0)" fill="#b4d5df"></path><g id="Group_4552" data-name="Group 4552" transform="translate(0 0)" clip-path="url(#clip-path)"><g id="Group_4551" data-name="Group 4551" transform="translate(13.033 1.819)"><path id="Path_3560" data-name="Path 3560" d="M2748.027,552.292c.739,4.083-.695,6.385-2.237,9.84a35.52,35.52,0,0,0-2.683,8.966c-.34,2.395.556,5.366,1.121,7.622a17.3,17.3,0,0,0,1.7,3.911c.866,1.623,1.977,1.891,3.044,3.209,1.7,2.093,2.209,7.116,6.338,6.128a33.678,33.678,0,0,0-2.7-7.964c-.9-1.749-2.246-4.047-.736-5.742,2.3-2.578,3.308,1.43,5.41.08.845-.542,1.578-4.032,2.437-5,1.417-1.594,2.647-3.018,3.958-4.673a12.3,12.3,0,0,1,4.924-3.52c2.559-1.136,2.517-.869,3.04-3.5.561-2.818,3.62-7.047-.93-7.723-2.475-.367-6.619,5.9-7.26.45-.289-2.454,1.345-3.445,3.22-4.369,1.7-.838,2.888-.492,4.5-.989,1.732-.536,2.458-2.658.182-3.78-1.338-.659-2.674.357-3.911.8-3.335,1.192-6.352,2.509-10,2.509-3.215,0-8.075-.959-9.178,3.04" transform="translate(-2743.032 -540.292)" fill="#32849d"></path><path id="Path_3561" data-name="Path 3561" d="M2843.889,878.469a18.049,18.049,0,0,1-.515,5.368c-.554,1.836-1.764,3.4-2.06,5.273-.356,2.247.142,7.654,1.9,9.273,1.706,1.57,3.7.891,4.66,3.8.477,1.449.228,3.3.451,4.814.457,3.1.627,6.17.942,9.35.227,2.286,2.753,10.724,5.36,10.472.73-1.994-.163-3.444-.736-5.316-.8-2.621-.194-3.827,1.169-6.074a33.264,33.264,0,0,0,3.334-6.686c.833-2.624.821-2.989,3.606-4.409,3.606-1.838,1.865-2.427,1.318-5.53-.552-3.131,2.437-2.66,3.233-5.018.894-2.646-2.467-4.04-4.293-5.136-.888-.533-2.109-.707-2.89-1.52-1.2-1.252-.812-2.779-1.679-3.992-.817-1.142-1.56-.988-2.612-1.452a15.171,15.171,0,0,1-3.72-2.525c-1.946-1.519-3.882-1.164-6.3-1.164" transform="translate(-2827.902 -828.115)" fill="#32849d"></path><path id="Path_3562" data-name="Path 3562" d="M2968.7,512.747c4.4-.807,2.97,6.727,3.458,9.126.366,1.808,1.354,3.85,3.1,2.115.789-.783.869-2.345,1.685-3.3a20.34,20.34,0,0,1,2.76-2.1c11.307-9.334-10.415-9.912-11.706-6.781" transform="translate(-2937.516 -510.102)" fill="#32849d"></path><path id="Path_3563" data-name="Path 3563" d="M3140.007,541.473c.291,1.8-1.341,2.848-2.7,3.5-1.938.935-1.723.554-3.865-.24-3.586-1.329-3.5.628-3.495,3.774,0,2.039-.19,5.745,2.987,3.933,1.185-.676,1.951-4.117,3.53-1.133.672,1.269-.322,2.969-1.139,3.746-2.1,2-5.406.375-6.319,3.719-.275,1.008.149,2.083-.207,3.082-.438,1.228-2.752,3-1.914,4.589,1.737,3.286,5.331-2.076,6.56-3.169,3.8-3.384,4.43.662,8.195.415,1.944-.128,1.26-.75,2.1-2.1.557-.895-.059-1.718,1.468-1.621.77.048,2.081,1.822,2.243,2.512.512,2.173-1.373,2.238-2.091,3.83-1.2,2.663,1.56,2.586,2.548,4.518-2.3,1.653-4.576.339-6.963.106-1.069-.1-2.037.224-3.007-.214-1.251-.564-.628-1.68-2.626-1.885-2.521-.26-4.381,2.165-6.531,3.209-2.731,1.327-3.4,2.157-3.747,4.982-.458,3.736-2.122,9.346,1.262,12.382,1.982,1.779,4.717,1.051,7.039.817,3.992-.4,5.746-.274,5.732,3.867-.007,2.077-.178,4.1.475,6.03.729,2.148,1.6,3.573,1.4,5.95-.348,4.068-2.769,7.079-2.339,11.408.346,3.484,1.865,3.548,3.976,1.052,1.845-2.183,3.931-4.05,5.846-6.122,2.383-2.578,4.463-8,4.911-11.418.247-1.89-.178-3.862.177-5.712.521-2.719,2.658-4.836,3.091-7.49.328-2.013-.507-1.644-.945-3.286a6.029,6.029,0,0,1,.718-3.81c.537-1.207,1.9-2.214,1.723-3.678-.191-1.593-2.338-2.6-2.6-4.129,4.5-1.911,6.8,8.194,7.183,10.986.471,3.4,2.359,4.716,3.1.824.412-2.168,1.066-4.131,1.6-6.166,1.393-5.3.175-7.6-2.17-12.037-2.463-4.66-5.079-10.156-8.353-14.435-3.94-5.15-10.894-8.1-16.239-11.435" transform="translate(-3072.568 -536.49)" fill="#32849d"></path><path id="Path_3564" data-name="Path 3564" d="M3359.812,962.8c-.4,1.272-1.859,1.659-2.316,2.79-.386.956-.313,2.914-.5,3.992-.418,2.382-1.245,3.341-2.567,5.38-1.334,2.059-1.773,4.558-3.389,6.453-1.522,1.785-4.09,2.719-4.75,5.2a12.832,12.832,0,0,0-.04,4.939c1.091,2.557,3.3-1.576,4.442-3.2,2.685-3.817,4.58-8.014,6.915-12,2.37-4.045,4.118-8,2.674-12.62" transform="translate(-3264.307 -901.449)" fill="#c0dce5"></path></g></g></g></g><g id="Group_4566" data-name="Group 4566" transform="translate(1068.464 1437.882)"><g id="Group_4555" data-name="Group 4555" transform="translate(14.959 0)"><path id="Path_3565" data-name="Path 3565" d="M2742.078,1145.627l-28.931-89.941h1.648l28.931,89.941Z" transform="translate(-2713.147 -1055.686)" fill="#f2672a"></path></g><g id="Group_4556" data-name="Group 4556" transform="translate(0 0)"><path id="Path_3566" data-name="Path 3566" d="M2631.689,1145.627l-28.931-89.941h1.647l28.931,89.941Z" transform="translate(-2602.757 -1055.686)" fill="#f2672a"></path></g><g id="Group_4557" data-name="Group 4557" transform="translate(8.337 23.348)"><path id="Path_3567" data-name="Path 3567" d="M2680.041,1227.986v1.341l-15.5-.009-.265-1.341Z" transform="translate(-2664.275 -1227.978)" fill="#f2672a"></path></g><g id="Group_4558" data-name="Group 4558" transform="translate(5.132 14.633)"><path id="Path_3568" data-name="Path 3568" d="M2656.392,1163.677v1.341l-15.5-.009-.265-1.341Z" transform="translate(-2640.626 -1163.668)" fill="#f2672a"></path></g><g id="Group_4559" data-name="Group 4559" transform="translate(2.482 5.918)"><path id="Path_3569" data-name="Path 3569" d="M2636.839,1099.369v1.341l-15.5-.009-.265-1.341Z" transform="translate(-2621.073 -1099.36)" fill="#f2672a"></path></g><g id="Group_4560" data-name="Group 4560" transform="translate(11.16 32.175)"><path id="Path_3570" data-name="Path 3570" d="M2700.875,1293.122v1.341l-15.5-.009-.265-1.341Z" transform="translate(-2685.11 -1293.114)" fill="#f2672a"></path></g><g id="Group_4561" data-name="Group 4561" transform="translate(13.81 41.001)"><path id="Path_3571" data-name="Path 3571" d="M2720.428,1358.256v1.341l-15.5-.009-.265-1.341Z" transform="translate(-2704.662 -1358.247)" fill="#f2672a"></path></g><g id="Group_4562" data-name="Group 4562" transform="translate(17.177 50.172)"><path id="Path_3572" data-name="Path 3572" d="M2744.652,1425.928l.626,1.342-15.5-.009-.265-1.341Z" transform="translate(-2729.512 -1425.92)" fill="#f2672a"></path></g><g id="Group_4563" data-name="Group 4563" transform="translate(20.083 59.343)"><path id="Path_3573" data-name="Path 3573" d="M2766.1,1493.6l.626,1.341-15.5-.009-.265-1.341Z" transform="translate(-2750.958 -1493.592)" fill="#f2672a"></path></g><g id="Group_4564" data-name="Group 4564" transform="translate(22.805 68.309)"><path id="Path_3574" data-name="Path 3574" d="M2786.182,1559.765l.626,1.341-15.5-.009-.265-1.341Z" transform="translate(-2771.042 -1559.756)" fill="#f2672a"></path></g><g id="Group_4565" data-name="Group 4565" transform="translate(25.06 77.471)"><path id="Path_3575" data-name="Path 3575" d="M2802.822,1627.372l.626,1.341-15.5-.009-.265-1.341Z" transform="translate(-2787.682 -1627.364)" fill="#f2672a"></path></g></g><g id="Group_4578" data-name="Group 4578" transform="translate(1038.594 1437.882)"><g id="Group_4567" data-name="Group 4567" transform="translate(0 0)"><path id="Path_3576" data-name="Path 3576" d="M2383.988,1145.627l28.931-89.941h-1.647l-28.932,89.941Z" transform="translate(-2382.34 -1055.686)" fill="#cbe1e8"></path></g><g id="Group_4568" data-name="Group 4568" transform="translate(14.959 0)"><path id="Path_3577" data-name="Path 3577" d="M2494.377,1145.627l28.932-89.941h-1.648l-28.931,89.941Z" transform="translate(-2492.73 -1055.686)" fill="#cbe1e8"></path></g><g id="Group_4569" data-name="Group 4569" transform="translate(21.436 23.348)"><path id="Path_3578" data-name="Path 3578" d="M2540.523,1227.986v1.341l15.5-.009.265-1.341Z" transform="translate(-2540.523 -1227.978)" fill="#cbe1e8"></path></g><g id="Group_4570" data-name="Group 4570" transform="translate(24.641 14.633)"><path id="Path_3579" data-name="Path 3579" d="M2564.172,1163.677v1.341l15.5-.009.265-1.341Z" transform="translate(-2564.172 -1163.668)" fill="#cbe1e8"></path></g><g id="Group_4571" data-name="Group 4571" transform="translate(27.291 5.918)"><path id="Path_3580" data-name="Path 3580" d="M2583.725,1099.369v1.341l15.5-.009.265-1.341Z" transform="translate(-2583.725 -1099.36)" fill="#cbe1e8"></path></g><g id="Group_4572" data-name="Group 4572" transform="translate(18.613 32.175)"><path id="Path_3581" data-name="Path 3581" d="M2519.688,1293.122v1.341l15.5-.009.265-1.341Z" transform="translate(-2519.688 -1293.114)" fill="#cbe1e8"></path></g><g id="Group_4573" data-name="Group 4573" transform="translate(15.963 41.001)"><path id="Path_3582" data-name="Path 3582" d="M2500.135,1358.256v1.341l15.5-.009.265-1.341Z" transform="translate(-2500.135 -1358.247)" fill="#cbe1e8"></path></g><g id="Group_4574" data-name="Group 4574" transform="translate(12.595 50.172)"><path id="Path_3583" data-name="Path 3583" d="M2475.912,1425.928l-.626,1.342,15.5-.009.265-1.341Z" transform="translate(-2475.285 -1425.92)" fill="#cbe1e8"></path></g><g id="Group_4575" data-name="Group 4575" transform="translate(9.689 59.343)"><path id="Path_3584" data-name="Path 3584" d="M2454.465,1493.6l-.626,1.341,15.5-.009.265-1.341Z" transform="translate(-2453.839 -1493.592)" fill="#cbe1e8"></path></g><g id="Group_4576" data-name="Group 4576" transform="translate(6.968 68.309)"><path id="Path_3585" data-name="Path 3585" d="M2434.382,1559.765l-.626,1.341,15.5-.009.265-1.341Z" transform="translate(-2433.756 -1559.756)" fill="#cbe1e8"></path></g><g id="Group_4577" data-name="Group 4577" transform="translate(4.713 77.471)"><path id="Path_3586" data-name="Path 3586" d="M2417.741,1627.372l-.626,1.341,15.5-.009.265-1.341Z" transform="translate(-2417.115 -1627.364)" fill="#cbe1e8"></path></g></g><g id="Group_4586" data-name="Group 4586" transform="translate(1173.522 1488.154)"><g id="Group_4579" data-name="Group 4579" transform="translate(13.76 0)"><path id="Path_3587" data-name="Path 3587" d="M3479.55,1426.655l12.489,38.826h1.516l-12.49-38.826Z" transform="translate(-3479.55 -1426.655)" fill="#f2672a"></path></g><g id="Group_4580" data-name="Group 4580" transform="translate(0 0)"><path id="Path_3588" data-name="Path 3588" d="M3378.008,1426.655l12.49,38.826h1.515l-12.489-38.826Z" transform="translate(-3378.008 -1426.655)" fill="#f2672a"></path></g><g id="Group_4581" data-name="Group 4581" transform="translate(3.352 8.059)"><path id="Path_3589" data-name="Path 3589" d="M3417.248,1486.131v1.233l-14.258-.008-.243-1.233Z" transform="translate(-3402.746 -1486.123)" fill="#f2672a"></path></g><g id="Group_4582" data-name="Group 4582" transform="translate(0.404 0.043)"><path id="Path_3590" data-name="Path 3590" d="M3395.5,1426.977v1.233l-14.259-.008-.243-1.234Z" transform="translate(-3380.993 -1426.969)" fill="#f2672a"></path></g><g id="Group_4583" data-name="Group 4583" transform="translate(5.949 16.178)"><path id="Path_3591" data-name="Path 3591" d="M3436.413,1546.046v1.234l-14.259-.008-.243-1.233Z" transform="translate(-3421.911 -1546.038)" fill="#f2672a"></path></g><g id="Group_4584" data-name="Group 4584" transform="translate(8.387 24.297)"><path id="Path_3592" data-name="Path 3592" d="M3454.4,1605.958v1.234l-14.259-.008-.244-1.233Z" transform="translate(-3439.896 -1605.95)" fill="#f2672a"></path></g><g id="Group_4585" data-name="Group 4585" transform="translate(11.484 32.733)"><path id="Path_3593" data-name="Path 3593" d="M3476.68,1668.2l.576,1.234-14.259-.008-.244-1.234Z" transform="translate(-3462.754 -1668.197)" fill="#f2672a"></path></g></g><g id="Group_4594" data-name="Group 4594" transform="translate(1151.537 1488.154)"><g id="Group_4587" data-name="Group 4587" transform="translate(0 0)"><path id="Path_3594" data-name="Path 3594" d="M3228.269,1426.655l-12.49,38.826h1.516l12.489-38.826Z" transform="translate(-3215.78 -1426.655)" fill="#cbe1e8"></path></g><g id="Group_4588" data-name="Group 4588" transform="translate(13.76 0)"><path id="Path_3595" data-name="Path 3595" d="M3329.81,1426.655l-12.49,38.826h1.516l12.489-38.826Z" transform="translate(-3317.32 -1426.655)" fill="#cbe1e8"></path></g><g id="Group_4589" data-name="Group 4589" transform="translate(9.911 8.059)"><path id="Path_3596" data-name="Path 3596" d="M3288.915,1486.131v1.233l14.258-.008.244-1.233Z" transform="translate(-3288.915 -1486.123)" fill="#cbe1e8"></path></g><g id="Group_4590" data-name="Group 4590" transform="translate(12.859 0.043)"><path id="Path_3597" data-name="Path 3597" d="M3310.667,1426.977v1.233l14.258-.008.244-1.234Z" transform="translate(-3310.667 -1426.969)" fill="#cbe1e8"></path></g><g id="Group_4591" data-name="Group 4591" transform="translate(7.314 16.178)"><path id="Path_3598" data-name="Path 3598" d="M3269.75,1546.046v1.234l14.258-.008.244-1.233Z" transform="translate(-3269.75 -1546.038)" fill="#cbe1e8"></path></g><g id="Group_4592" data-name="Group 4592" transform="translate(4.876 24.297)"><path id="Path_3599" data-name="Path 3599" d="M3251.764,1605.958v1.234l14.259-.008.243-1.233Z" transform="translate(-3251.764 -1605.95)" fill="#cbe1e8"></path></g><g id="Group_4593" data-name="Group 4593" transform="translate(1.779 32.733)"><path id="Path_3600" data-name="Path 3600" d="M3229.483,1668.2l-.576,1.234,14.258-.008.244-1.234Z" transform="translate(-3228.906 -1668.197)" fill="#cbe1e8"></path></g></g><path id="Path_3601" data-name="Path 3601" d="M2691.048,772.644s-5.8-3.807-7.208-5.695-2.258-11.165.486-6.1a79.567,79.567,0,0,0,7.764,10.984Z" transform="translate(-1603.251 638.37)" fill="#f99e75"></path><path id="Path_3602" data-name="Path 3602" d="M2745.426,852.246v1.1a2.142,2.142,0,0,0,.289,1.075l.753,1.3.7-3.764-.7-.521Z" transform="translate(-1657.628 558.768)" fill="#f99e75"></path><g id="Group_4596" data-name="Group 4596" transform="translate(1077.954 1385.03)"><path id="Path_3603" data-name="Path 3603" d="M2676.171,700.567l-.889,2.4-2.5-1.1,2.229-3.3Z" transform="translate(-2672.785 -694.103)" fill="#f99e75"></path><g id="Group_4595" data-name="Group 4595" transform="translate(2.152 1.762)"><path id="Path_3604" data-name="Path 3604" d="M2690.449,684.163a1.37,1.37,0,0,0,.766.174c1.406-.791,2.05-4.467,2.05-4.467l-1.041-1.2-2.177.222-1.152,2.11a1.948,1.948,0,0,0,.015,1.852h0A3.8,3.8,0,0,0,2690.449,684.163Z" transform="translate(-2688.667 -678.674)" fill="#f99e75"></path></g><path id="Path_3605" data-name="Path 3605" d="M2688.506,669.009c.269-.317.631-1.176.97-.935.248.176,1.151.666,1.461.818.739.363,2.2.72,2.751-.405a1.616,1.616,0,0,0-1.37-2.167c-.953-.115-2.341-.017-2.729-.314a1.238,1.238,0,0,0-1.876.19,6.869,6.869,0,0,0-.439,2.607,3.85,3.85,0,0,0,.265,1.328h0Z" transform="translate(-2685.31 -665.674)" fill="#0c2146"></path><path id="Path_3606" data-name="Path 3606" d="M2688.909,688.083a.619.619,0,0,1,.658.4c.128.285.04.569-.2.634a.62.62,0,0,1-.659-.4C2688.584,688.431,2688.672,688.147,2688.909,688.083Z" transform="translate(-2686.503 -685.035)" fill="#f99e75"></path></g><path id="Path_3607" data-name="Path 3607" d="M2827.769,886.954l-.464.253v-.253Z" transform="translate(-1728.412 528.063)" fill="#167a7a"></path><path id="Path_3608" data-name="Path 3608" d="M2782.154,879.657a10.825,10.825,0,0,1,6.119-.8c.052-.245.463-.253.463-.253l-4.867-1.309Z" transform="translate(-1689.379 536.411)" fill="#f2672a"></path><g id="Group_4597" data-name="Group 4597" transform="translate(1089.339 1407.784)"><path id="Path_3609" data-name="Path 3609" d="M2763.026,838.57a3.522,3.522,0,0,0-1.366-4.536c-2.712-1.7-4.837,1.961-4.859,2l.376.264c.077-.136,1.922-3.3,4.263-1.833a2.956,2.956,0,0,1,1.2,3.868Z" transform="translate(-2756.801 -833.584)" fill="#f2672a"></path></g><path id="Path_3610" data-name="Path 3610" d="M2642.57,717.211c-5.11,3.084-3.908,17.063-3.908,17.063h8.505s1.145-10.99-1.447-16.147A2.25,2.25,0,0,0,2642.57,717.211Z" transform="translate(-1565.226 675.076)" fill="#e0e1e1"></path><path id="Path_3611" data-name="Path 3611" d="M2748.1,854.125l.946-3.854a.689.689,0,0,1,.919-.478l5.079,1.972a.842.842,0,0,1,.335,1.332l-2.659,3.113a5.886,5.886,0,0,1-2.75-.569A3.794,3.794,0,0,1,2748.1,854.125Z" transform="translate(-1659.936 560.229)" fill="#f2672a"></path><g id="Group_4598" data-name="Group 4598" transform="translate(1066.628 1439.004)"><path id="Path_3612" data-name="Path 3612" d="M2591.852,1074.211s.006,1.484,2.986,2.375c.611.183.413.364.528.621h-3.43l-1.343-1.51-.418.359-.968-.951s.452-1.377,1.19-1.389Z" transform="translate(-2589.207 -1072.394)" fill="#0c2146"></path><path id="Path_3613" data-name="Path 3613" d="M2600,1064.5l-.557,1.284h0a1.344,1.344,0,0,1-1.394-.423l-.062-.073.451-1.321Z" transform="translate(-2596.795 -1063.965)" fill="#f99e75"></path></g><path id="Path_3614" data-name="Path 3614" d="M2610.347,886.65c0,.161-7.6,14.72-7.6,14.72l-1.439-.815s2.515-11.7,5.351-16.544a5.857,5.857,0,0,0,.769-2.352c.5-4.822.844-6.72.844-6.72l3.011,10.945Z" transform="translate(-1533.041 538.449)" fill="#123354"></path><path id="Path_3615" data-name="Path 3615" d="M2681.859,764.887a16.448,16.448,0,0,0,3.866,4.247c2.084,1.39,9.729,2.008,9.729,2.008l1.033,1.166a.615.615,0,0,0,.674.168l.219-.082a.887.887,0,0,0,.413-1.346l-.45-.632a1.033,1.033,0,0,0-.725-.427l-2.091-.238s-5.637-1.691-6.949-3.046-3.078-5.449-3.078-5.449Z" transform="translate(-1602.676 636.727)" fill="#f99e75"></path><g id="Group_4599" data-name="Group 4599" transform="translate(1078.242 1440.014)"><path id="Path_3616" data-name="Path 3616" d="M2676.895,1081.721a7.638,7.638,0,0,0,3.135,1.442c.48.122,1-.041,1,.751h-2.645l-2.2-.38v.38h-1.188s-.331-1.943.363-2.193Z" transform="translate(-2674.915 -1080.325)" fill="#0c2146"></path><path id="Path_3617" data-name="Path 3617" d="M2679.481,1071.42l.234,1.4h0a1.344,1.344,0,0,1-1.456.049l-.082-.049.118-1.4Z" transform="translate(-2677.735 -1071.42)" fill="#f99e75"></path></g><path id="Path_3618" data-name="Path 3618" d="M2647.952,845.131l-1.846,30.968H2644.6s-2.884-7.687-1.858-13.748a7.621,7.621,0,0,0-.5-4.34,38.463,38.463,0,0,1-2.794-12.88Z" transform="translate(-1566.011 564.218)" fill="#123354"></path><path id="Path_3619" data-name="Path 3619" d="M2820.454,893.855s1.719,3.647,1.447,5.783c-.191,1.5-.861,1.9-1.375,2.025a1.276,1.276,0,0,1-1.353-.542C2817.765,899.02,2820.454,893.855,2820.454,893.855Z" transform="translate(-1721.029 522.097)" fill="#c0dce5"></path><g id="Group_4606" data-name="Group 4606" transform="translate(1073.393 1471.407)"><g id="Group_4602" data-name="Group 4602" transform="translate(10.281 54.783)"><path id="Path_3620" data-name="Path 3620" d="M2715.433,1718.111l4.4-.005c.584.061,1.237.227,1.346.734a2.942,2.942,0,0,1,.064.67c-.156.183-5.988-.024-5.988-.024l-.025-.021A.925.925,0,0,1,2715.433,1718.111Z" transform="translate(-2714.998 -1716.646)" fill="#002d4c"></path><path id="Path_3621" data-name="Path 3621" d="M2715.982,1707.332l.3,1.465h0a1.425,1.425,0,0,0,1.179.028l.067-.03.212-1.464Z" transform="translate(-2715.849 -1707.332)" fill="#f99e75"></path></g><g id="Group_4603" data-name="Group 4603" transform="translate(0 54.783)"><path id="Path_3622" data-name="Path 3622" d="M2639.567,1718.111l4.4-.005c.584.061,1.237.227,1.346.734a2.91,2.91,0,0,1,.064.67c-.155.183-5.988-.024-5.988-.024l-.026-.021A.924.924,0,0,1,2639.567,1718.111Z" transform="translate(-2639.131 -1716.646)" fill="#062241"></path><path id="Path_3623" data-name="Path 3623" d="M2642.534,1707.332l-.191,1.465h0a1.425,1.425,0,0,0,1.179.028l.067-.03.7-1.464Z" transform="translate(-2641.908 -1707.332)" fill="#f99e75"></path></g><g id="Group_4604" data-name="Group 4604" transform="translate(3.568 5.51)"><path id="Path_3624" data-name="Path 3624" d="M2669.083,1343.731l-3.623,2.362,1.118,2.863c.016.04.037.078.055.117.08,0,.159-.01.24-.01l.039,0,.038,0a2.8,2.8,0,0,1,2.309,1.4,4.809,4.809,0,0,0,1.71-.444,1.77,1.77,0,0,0,.805-.61C2672.163,1347.379,2669.083,1343.731,2669.083,1343.731Z" transform="translate(-2665.461 -1343.731)" fill="#f99e75"></path></g><path id="Path_3625" data-name="Path 3625" d="M2723.327,1344.471s.444,4.2-.449,6.882c.415.36,1.937,1.992,2.416-.123s-.537-7.5-.537-7.5Z" transform="translate(-2711.529 -1338.221)" fill="#f99e75"></path><g id="Group_4605" data-name="Group 4605" transform="translate(9.495 0.055)"><path id="Path_3626" data-name="Path 3626" d="M2719.61,1306.276c0-.008,0-.016,0-.024a8.53,8.53,0,0,0-.824-1.479,7.439,7.439,0,0,1-.792-1.293l-8.8,5.76.57,1.075,9.844-3.638A2.716,2.716,0,0,1,2719.61,1306.276Z" transform="translate(-2709.197 -1303.48)" fill="#0c2146"></path></g><path id="Path_3627" data-name="Path 3627" d="M2684.275,1390.578l-.316,1.977h2.8l.2-2.422Z" transform="translate(-2677.884 -1378.334)" fill="#f99e75"></path><path id="Path_3628" data-name="Path 3628" d="M2732.9,1336.807s3.308-1.054,4.344-2.47-.718-9.169-.718-9.169l.227-1.4a1.3,1.3,0,0,0-1.271-1.507l-.884-.008a.505.505,0,0,0-.467.711l1.162,2.615s.872,5.872-.349,6.317a13.775,13.775,0,0,1-3.107.645Z" transform="translate(-2719.275 -1319.659)" fill="#f99e75"></path><path id="Path_3629" data-name="Path 3629" d="M2667.042,1343.168l-.85-1.887.553-.347a1.04,1.04,0,0,0,.431-1.216l-.605-1.779s1.724-.211,1.672-1.817c0-.827-1.138-.832-1.138-.832a1.654,1.654,0,0,1-1.4.827,2.745,2.745,0,0,0-2.537,1.575,4.527,4.527,0,0,0,.175,3.687,3.362,3.362,0,0,0,2.679,1.788Z" transform="translate(-2659.634 -1330.925)" fill="#062241"></path><path id="Path_3630" data-name="Path 3630" d="M2643.746,1510.405a62.233,62.233,0,0,0,1.046,8.385,7.5,7.5,0,0,1-.258,3.856c-1.975,5.868-4.744,14.692-4.744,14.692h2.463s5.581-10.428,7.019-15.6,1.685-6.815,1.685-6.815l-1.711-4.516Z" transform="translate(-2639.701 -1482.308)" fill="#123354"></path><path id="Path_3631" data-name="Path 3631" d="M2683.985,1371.116a.8.8,0,0,0,.458.879c.354.188.723.1.825-.2a.8.8,0,0,0-.458-.879C2684.456,1370.73,2684.086,1370.818,2683.985,1371.116Z" transform="translate(-2677.884 -1361.639)" fill="#f99e75"></path><path id="Path_3632" data-name="Path 3632" d="M2677.018,1412.585h-8.031v-10.3a4.372,4.372,0,0,1,3.965-4.353l5.586-.676s.657,1.005,2.487,3.341a18.857,18.857,0,0,1-4.745,1.985Z" transform="translate(-2664.941 -1384.488)" fill="#b4d5df"></path><path id="Path_3633" data-name="Path 3633" d="M2668.986,1510.405a23.956,23.956,0,0,0,5.32,8.707,5.381,5.381,0,0,1,1.562,4.184l-.863,14.041h2.5s3.045-11.66,2.388-17.408a26.377,26.377,0,0,0-2.874-9.525Z" transform="translate(-2664.941 -1482.308)" fill="#123354"></path><path id="Path_3634" data-name="Path 3634" d="M2773.44,1304.969c.432.9,1.018,1.509,1.309,1.369s.177-.98-.255-1.877-1.018-1.509-1.309-1.369S2773.008,1304.073,2773.44,1304.969Z" transform="translate(-2754.879 -1303.072)" fill="#a5cdd8"></path><path id="Path_3635" data-name="Path 3635" d="M2723.632,1328.527l.074.036a1.118,1.118,0,0,0,.838.052l.05-.016a1.494,1.494,0,0,0,.952-.966h0a.277.277,0,0,0-.321-.356l-.556.117a.838.838,0,0,0-.528.36Z" transform="translate(-2712.181 -1323.992)" fill="#f99e75"></path></g><g id="Group_4608" data-name="Group 4608" transform="translate(1199.591 1467.46)"><path id="Path_3636" data-name="Path 3636" d="M3579.858,1294.285l3.483,9.1,2.2-1.634-4.906-8.27Z" transform="translate(-3578.574 -1290.836)" fill="#f99e75"></path><g id="Group_4607" data-name="Group 4607"><path id="Path_3637" data-name="Path 3637" d="M3572.1,1274.649a1.418,1.418,0,0,1,.315.961l.153,1.314-.179.2-.617.547c.021-.272.052,0,.052,0l-.991-1.725s-1.2-.768.313-1.9a.434.434,0,0,1,.5-.032A1.11,1.11,0,0,1,3572.1,1274.649Z" transform="translate(-3570.38 -1273.952)" fill="#f99e75"></path></g><path id="Path_3638" data-name="Path 3638" d="M3609.766,1359.42a57.212,57.212,0,0,1-4.205-6.573l1.889-2.151,2.316,2.7Z" transform="translate(-3600.793 -1340.296)" fill="#bfdfe7"></path></g><path id="Path_3639" data-name="Path 3639" d="M3636.85,1577.671l-1.109.192c-.229-1.375-3.679-7.9-3.959-11.285a76.457,76.457,0,0,0-1.185-7.947l3.71-1.1s.939,0-.093,7.664C3636.533,1568.237,3637.156,1575.147,3636.85,1577.671Z" transform="translate(-2422.845 -51.639)" fill="#f99e75"></path><path id="Path_3640" data-name="Path 3640" d="M3620.212,1536.957s-.871,5.243-2.083,10.85c1.266,3.386-.663,12.835-.7,12.8-.145-.137-.812.684-.812.684s-1.407-8.339-1.718-12.1-.388-8.346-.388-8.346Z" transform="translate(-2408.94 -33.855)" fill="#f99e75"></path><path id="Path_3641" data-name="Path 3641" d="M3608.056,1707.589a1.238,1.238,0,0,1,.431,1.019c-.1.571-.233,1.908-.233,1.908h-.544l.017-1.247c0-.082-1.164,1.247-1.361,1.247h-2.873s-.191-.841,1.5-1.111A6.15,6.15,0,0,0,3608.056,1707.589Z" transform="translate(-2399.409 -181.364)" fill="#00314e"></path><g id="Group_4609" data-name="Group 4609" transform="translate(1209.823 1524.823)"><path id="Path_3642" data-name="Path 3642" d="M3661.348,1697.7l.077,1.19a1.108,1.108,0,0,1-.2.7,4.455,4.455,0,0,1-.864.9c.833.268,1.591-.666,1.988-1.287a1.48,1.48,0,0,0,.215-1.02l-.14-.936Z" transform="translate(-3658.403 -1697.247)" fill="#f4876e"></path><path id="Path_3643" data-name="Path 3643" d="M3650.065,1705.405s.733.066.854.623.468,1.685.468,1.685l-.4.319-.563-1.118a16.655,16.655,0,0,1-1.4,1.714h-3.136s0-1.038,1.963-1.085C3649.655,1707.5,3650.065,1705.405,3650.065,1705.405Z" transform="translate(-3645.883 -1704.299)" fill="#0c2146"></path></g><path id="Path_3644" data-name="Path 3644" d="M3552.857,1291.039l3.482,9.1,2.2-1.634-4.906-8.271Z" transform="translate(-2355.641 179.431)" fill="#f99e75"></path><path id="Path_3645" data-name="Path 3645" d="M3628,1362.953h2.244l-.9-2.638-1.755,1.078Z" transform="translate(-2420.252 118.849)" fill="#f99e75"></path><path id="Path_3646" data-name="Path 3646" d="M3582.629,1354.67c.012-.067.026-.122.04-.183-2.223-2.867-4.11-4.885-4.11-4.885l1.889-2.151,4.294,4.078,1.26.005a2.524,2.524,0,0,1,3.189.41,4.473,4.473,0,0,1,.542,3.685c-1,4.427-.217,6.768-.217,6.768l-5.792,2.159s-.131-3.849-.222-6.549V1358a3.011,3.011,0,0,0-.47-1.477A2.639,2.639,0,0,1,3582.629,1354.67Z" transform="translate(-2377.86 129.97)" fill="url(#linear-gradient)"></path><g id="Group_4610" data-name="Group 4610" transform="translate(1205.642 1474.422)"><path id="Path_3647" data-name="Path 3647" d="M3616.352,1325.325l3.681,1.289-.363,2.747c0,.039-.015.076-.023.115-.071.013-.141.026-.211.043l-.034.01-.034.007a2.52,2.52,0,0,0-1.721,1.723,4.345,4.345,0,0,1-1.593-.02,1.594,1.594,0,0,1-.836-.361C3614.441,1329.182,3616.352,1325.325,3616.352,1325.325Z" transform="translate(-3615.032 -1325.325)" fill="#f99e75"></path></g><path id="Path_3648" data-name="Path 3648" d="M3620.434,1321.866c.99.484.757,5.592.928,9.07a3.952,3.952,0,0,0,3.346,3.7,6.09,6.09,0,0,0,3.621-.247c-.574-.47-3.671-5.026-2.679-11.059.131-.794.147-3-1.191-4.2-1.078-.968-2.988-.317-3.955.113a1.423,1.423,0,0,0-.838,1.146A1.362,1.362,0,0,0,3620.434,1321.866Z" transform="translate(-2413.387 154.895)" fill="#0c2146"></path><path id="Path_3649" data-name="Path 3649" d="M3610.884,1456.745a43,43,0,0,0-.771,6.259c0,1.283.314,9.363.314,9.363s5.5.4,6.571.4c.264-6.621,1.774-6.825,1.774-9.913a8.81,8.81,0,0,0-1.217-3.826,5.609,5.609,0,0,1-.763-2.146l-.036-.125Z" transform="translate(-2405.138 35.486)" fill="#062241"></path><path id="Path_3650" data-name="Path 3650" d="M3662.875,1565.782" transform="translate(-2450.75 -58.774)" fill="#ffc43a"></path><g id="Group_4612" data-name="Group 4612" transform="translate(1197.05 1462.088)"><path id="Path_3651" data-name="Path 3651" d="M3554.312,1234.305s-3.021,3.788-2.653,5.671a2.474,2.474,0,0,0,2.22,2.134,2.658,2.658,0,0,0,2.184-.572C3558.062,1239.592,3555.093,1235.349,3554.312,1234.305Z" transform="translate(-3551.628 -1234.305)" fill="#062241"></path><path id="Path_3652" data-name="Path 3652" d="M3571.338,1234.305l-.015.019v7.819a2.541,2.541,0,0,0,1.766-.6C3575.087,1239.592,3572.119,1235.349,3571.338,1234.305Z" transform="translate(-3568.654 -1234.305)" fill="#0c2146"></path></g><g id="Group_4613" data-name="Group 4613" transform="translate(1195.932 1467.021)"><path id="Path_3653" data-name="Path 3653" d="M3545.094,1271.4a1.412,1.412,0,0,1,.315.961l.154,1.314-.179.2-.616.547c.022-.272.052,0,.052,0l-.991-1.725s-1.2-.768.313-1.9a.434.434,0,0,1,.5-.032A1.109,1.109,0,0,1,3545.094,1271.4Z" transform="translate(-3543.378 -1270.706)" fill="#f99e75"></path></g><g id="Group_4623" data-name="Group 4623" transform="translate(1110.189 1343.902)"><g id="Group_4616" data-name="Group 4616" transform="translate(25.734 6.894)"><path id="Path_3654" data-name="Path 3654" d="M3100.555,413.053a30.943,30.943,0,0,0,2,6.853c1.2,2.293,6.292,6.6,6.292,6.6l.5-1.5-3.762-5.317-1.7-5.674Z" transform="translate(-3100.555 -413.053)" fill="#f99e75"></path><g id="Group_4615" data-name="Group 4615" transform="translate(7.069 10.944)"><path id="Path_3655" data-name="Path 3655" d="M3154.435,494.9a2.737,2.737,0,0,0,.957,1.178c.665.548,2.38,1.282,1.61,1.78-.928-.1-2.031-.115-2.031-.115a3.016,3.016,0,0,1-1.5-1.355l-.759-1.716s.4-.818.412-.86l.386.086A4.428,4.428,0,0,0,3154.435,494.9Z" transform="translate(-3152.716 -493.811)" fill="#f99e75"></path><path id="Path_3656" data-name="Path 3656" d="M3156.168,498.056a.668.668,0,0,0,.02.139c-.12-.027-.239-.047-.359-.064-.376-.246-.76-.481-1.138-.723.171-.2.409-.474.423-.5l2.8,1.093s.019.388-.608.355A2.989,2.989,0,0,1,3156.168,498.056Z" transform="translate(-3154.423 -496.491)" fill="#f99e75"></path></g></g><g id="Group_4618" data-name="Group 4618" transform="translate(29.414 0.13)"><path id="Path_3657" data-name="Path 3657" d="M3130.574,380.559l-2.28.685-.579-2.473,3.7-.2Z" transform="translate(-3127.716 -376.483)" fill="#f99e75"></path><g id="Group_4617" data-name="Group 4617" transform="translate(2.502 1.674)"><path id="Path_3658" data-name="Path 3658" d="M3146.256,378.737a1.272,1.272,0,0,0,.3.666c1.375.6,4.465-.982,4.465-.982l.3-1.443-1.384-1.492-2.212.327a1.813,1.813,0,0,0-1.367,1.049h0A3.544,3.544,0,0,0,3146.256,378.737Z" transform="translate(-3146.176 -375.487)" fill="#f99e75"></path></g><path id="Path_3659" data-name="Path 3659" d="M3156.4,365.314c.386.022,1.227-.19,1.238.2.008.282.151,1.228.211,1.543.145.752.7,2.036,1.842,1.815a1.5,1.5,0,0,0,.841-2.231c-.448-.772-1.3-1.747-1.3-2.2.006-.765-.568-1.417-1.193-1.286a6.38,6.38,0,0,0-2.18,1.135,3.582,3.582,0,0,0-.838.941h0Z" transform="translate(-3151.324 -363.133)" fill="#0c2146"></path><path id="Path_3660" data-name="Path 3660" d="M3159.209,373.308a.576.576,0,0,1,.072.713c-.14.255-.4.348-.58.209a.577.577,0,0,1-.073-.713C3158.769,373.263,3159.029,373.169,3159.209,373.308Z" transform="translate(-3154.364 -371.874)" fill="#f99e75"></path></g><path id="Path_3661" data-name="Path 3661" d="M3120.1,402.429l.11,4.23-1.812,1.346v-5.576Z" transform="translate(-3090.248 -396.974)" fill="#062241"></path><g id="Group_4619" data-name="Group 4619" transform="translate(22.038 18.341)"><path id="Path_3662" data-name="Path 3662" d="M3075.265,507.823a7.636,7.636,0,0,0,3.136,1.442c.48.122,1-.041,1,.751h-2.646l-2.2-.381v.381h-1.188s-.331-1.944.363-2.193Z" transform="translate(-3073.285 -506.427)" fill="#0c2146"></path><path id="Path_3663" data-name="Path 3663" d="M3077.851,497.521l.233,1.4h0a1.344,1.344,0,0,1-1.456.049l-.082-.049.118-1.4Z" transform="translate(-3076.105 -497.521)" fill="#f99e75"></path></g><g id="Group_4620" data-name="Group 4620" transform="translate(2.032 16.695)"><path id="Path_3664" data-name="Path 3664" d="M2927.089,487.058l-1.283-.254h0a1.255,1.255,0,0,1,.11-1.356l.054-.071,1.3.149Z" transform="translate(-2925.657 -485.377)" fill="#f99e75"></path></g><path id="Path_3665" data-name="Path 3665" d="M3041.385,414.265s1.654-.067,4.923-2.086c-2.211,3.937-1.49,9.3-1.49,9.3h1.875l4.615-12.089-11.056-.574v5.576Z" transform="translate(-3022.69 -402.494)" fill="#0c2146"></path><path id="Path_3666" data-name="Path 3666" d="M3027.663,364.418s-5.769-5.975-17.21,1.589l4.9,5.856,5.961-2.019,4.519,1.25Z" transform="translate(-2996.93 -362.177)" fill="#f2672a"></path><g id="Group_4622" data-name="Group 4622" transform="translate(24.388 7.666)"><path id="Path_3667" data-name="Path 3667" d="M3090.623,418.747s.289,5,1.25,7.4,5.627,6.826,5.627,6.826l.651-1.442-3.2-5.673.192-5.865Z" transform="translate(-3090.623 -418.747)" fill="#f99e75"></path><g id="Group_4621" data-name="Group 4621" transform="translate(5.831 11.648)"><path id="Path_3668" data-name="Path 3668" d="M3135.338,505.917a2.724,2.724,0,0,0,.832,1.269c.605.613,2.237,1.518,1.42,1.935-.913-.2-2.008-.321-2.008-.321a3.018,3.018,0,0,1-1.352-1.5l-.58-1.784s.481-.773.5-.814l.375.125A4.395,4.395,0,0,0,3135.338,505.917Z" transform="translate(-3133.65 -504.702)" fill="#f99e75"></path><path id="Path_3669" data-name="Path 3669" d="M3136.976,509.243a.705.705,0,0,0,.006.14c-.117-.039-.233-.072-.351-.1-.349-.283-.707-.555-1.059-.835.19-.179.456-.43.471-.452l2.67,1.372s-.021.387-.641.291A2.988,2.988,0,0,1,3136.976,509.243Z" transform="translate(-3135.312 -507.55)" fill="#f99e75"></path></g></g><path id="Path_3670" data-name="Path 3670" d="M2943.6,390.436s-3.076,2.365-3.269,5.375,2.885,8.634,2.885,8.634-3.444-2.882-9.7-1.231a12.668,12.668,0,0,0-.394,1.991s12.98,4.727,14.9,2.386.48-11.3.48-11.3Z" transform="translate(-2930.076 -386.607)" fill="#0c2146"></path><path id="Path_3671" data-name="Path 3671" d="M2912.993,481.635s-.969.3-1.19,3.2c-.045.594-.25.449-.462.6-.194-.893-.681-2.747-.681-2.747l.727-1.91-.411-.31.677-1.073s1.347.14,1.5.81Z" transform="translate(-2910.66 -463.513)" fill="#0c2146"></path></g><g id="Group_4631" data-name="Group 4631" transform="translate(1029.327 1472.068)"><g id="Group_4624" data-name="Group 4624" transform="translate(9.625 53.69)"><path id="Path_3672" data-name="Path 3672" d="M2386.676,1712.96s.4.548,2.262,1.023c.411.1.853.176.853.854h-1.842l-1.883-.326v.326h-1.017s-.283-1.664.311-1.877Z" transform="translate(-2384.982 -1711.765)" fill="#062241"></path><path id="Path_3673" data-name="Path 3673" d="M2389.187,1704.144l-.1,1.195h0a1.15,1.15,0,0,1-1.246.042l-.07-.042v-1.195Z" transform="translate(-2387.396 -1704.144)" fill="#f99e75"></path></g><g id="Group_4625" data-name="Group 4625" transform="translate(0.179 53.928)"><path id="Path_3674" data-name="Path 3674" d="M2316.969,1714.717s.4.548,2.261,1.023c.411.1.854.176.854.854h-1.842l-1.883-.326v.326h-1.017s-.283-1.664.311-1.877Z" transform="translate(-2315.274 -1713.522)" fill="#062241"></path><path id="Path_3675" data-name="Path 3675" d="M2319.477,1705.9l-.1,1.195h0a1.149,1.149,0,0,1-1.245.042l-.07-.042V1705.9Z" transform="translate(-2317.687 -1705.901)" fill="#f99e75"></path></g><path id="Path_3676" data-name="Path 3676" d="M2369.532,1471.083l-.459,30.01h-2.187s-3.328-24.229-2.617-30.01S2369.532,1471.083,2369.532,1471.083Z" transform="translate(-2357.365 -1446.755)" fill="#123354"></path><path id="Path_3677" data-name="Path 3677" d="M2324.95,1487.426s-.761,9.219-2.51,14.322-4.905,15.695-4.905,15.695h-2.263s3.779-22.133,2.915-30.017h6.762Z" transform="translate(-2315.094 -1463.104)" fill="#123354"></path><path id="Path_3678" data-name="Path 3678" d="M2393.546,1374.706s2.694,6.284,3.378,6.284c.547,0-.205-5.131-.205-5.131h2.257s2.838,8.795.581,10.4-7.215-4.548-7.215-4.548Z" transform="translate(-2381.719 -1365.659)" fill="#f2672a"></path><path id="Path_3679" data-name="Path 3679" d="M2341.93,1492.436l.816,2.019c.393.793,1.839.813,2.8.561a.2.2,0,0,0,.094-.327,27.721,27.721,0,0,0-2.369-2.391Z" transform="translate(-2338.139 -1467.317)" fill="#f99e75"></path><path id="Path_3680" data-name="Path 3680" d="M2348.716,1364.969s1.408.954,1.408,2.049v14.524h-8.246v-13.579a3.138,3.138,0,0,1,3.12-3.019C2347.949,1364.943,2348.716,1364.969,2348.716,1364.969Z" transform="translate(-2338.093 -1357.219)" fill="#f2672a"></path><g id="Group_4626" data-name="Group 4626" transform="translate(11.893 11.284)"><path id="Path_3681" data-name="Path 3681" d="M2401.718,1404.26v-13.044l.274.009v13.035Z" transform="translate(-2401.718 -1391.215)" fill="#fff"></path></g><path id="Path_3682" data-name="Path 3682" d="M2370.286,1341.2v3.425a2.094,2.094,0,0,0,1.6.782c1.029,0,1.029-.742,1.029-.742v-2.195l-1.522-.4Z" transform="translate(-2362.652 -1336.694)" fill="#f99e75"></path><path id="Path_3683" data-name="Path 3683" d="M2372.868,1319.783a1.276,1.276,0,0,0,.764-.2c.914-1.456-.127-5.381-.127-5.381l-3.315.594-.1,2.63a2.2,2.2,0,0,0,.828,1.814h0A3.539,3.539,0,0,0,2372.868,1319.783Z" transform="translate(-2362.477 -1313.356)" fill="#f99e75"></path><path id="Path_3684" data-name="Path 3684" d="M2367.272,1309.459a7.1,7.1,0,0,0,2.258,0c1.157-.206.417-1.482.417-1.482a4.552,4.552,0,0,1-2.379.166c-1.028-.152-1.3-.351-1.963,0-.9.477-.679,2.1-.679,2.1l.494,3.423h.185s.045-2.036.045-2.729c.193-.316.4-.316.565-.237a.518.518,0,0,1,.274.47v3.555s2.264.976,2.84.8.191-2.811.191-2.811a1.058,1.058,0,0,0-1.179.288c-.51.571-1.129-.023-1.129-.023Z" transform="translate(-2358 -1307.948)" fill="#062241"></path><path id="Path_3685" data-name="Path 3685" d="M2418.611,1364.715l-.08-.433a3.608,3.608,0,0,0-2.017-2.466h-.958l.3,2.047,1.352.853Z" transform="translate(-2401.788 -1354.515)" fill="#f99e75"></path><path id="Path_3686" data-name="Path 3686" d="M2370.019,1327.568a.577.577,0,0,1,.545.544.5.5,0,0,1-.375.62.579.579,0,0,1-.546-.544A.5.5,0,0,1,2370.019,1327.568Z" transform="translate(-2362.09 -1324.908)" fill="#f99e75"></path><path id="Path_3687" data-name="Path 3687" d="M2412.37,1370.677l1.866,1.08s-1.171-.012-1.19,0l-1.976-1.653s.144-.289.591-.045A2.271,2.271,0,0,1,2412.37,1370.677Z" transform="translate(-2397.91 -1361.557)" fill="#f99e75"></path><path id="Path_3688" data-name="Path 3688" d="M2318.616,1371.65s-4.662,5.179-4.662,8.283,3.784,8.575,3.784,8.575l1.87-.547s-1.687-6.77-1.687-8.571,3.465-4.442,3.465-4.442" transform="translate(-2313.954 -1363.017)" fill="#f2672a"></path><g id="Group_4627" data-name="Group 4627" transform="translate(3.829 11.822)"><path id="Path_3689" data-name="Path 3689" d="M2342.487,1399.738c0,1.551,1.372,7.219,1.7,8.54-.095.025-.134.032-.277.069a69.689,69.689,0,0,1-1.692-8.61c0-1.847,3.375-4.441,3.519-4.55l.166.217C2345.864,1395.432,2342.487,1398.025,2342.487,1399.738Z" transform="translate(-2342.213 -1395.188)" fill="#fff"></path></g><g id="Group_4630" data-name="Group 4630" transform="translate(11.719 1.742)"><path id="Path_3690" data-name="Path 3690" d="M2411.083,1350.043a4.945,4.945,0,0,0,.854,3.617.539.539,0,0,0,.349.194,1.372,1.372,0,0,0,.645-.107.6.6,0,0,0,.39-.28.259.259,0,0,0-.027-.27,3.666,3.666,0,0,1-.674-2.8A2.028,2.028,0,0,0,2411.083,1350.043Z" transform="translate(-2409.591 -1346.055)" fill="#062241"></path><path id="Path_3691" data-name="Path 3691" d="M2418.567,1353.973a.4.4,0,0,0,.218-.21.261.261,0,0,0-.027-.271,3.661,3.661,0,0,1-.675-2.8,1.71,1.71,0,0,0-.733-.337A5.585,5.585,0,0,0,2418.567,1353.973Z" transform="translate(-2415.055 -1346.351)" fill="#a5cdd8"></path><g id="Group_4629" data-name="Group 4629" transform="translate(2.864 6.069)"><g id="Group_4628" data-name="Group 4628"><path id="Path_3692" data-name="Path 3692" d="M2421.58,1365.637l.144-.028-.163-.024Z" transform="translate(-2421.561 -1365.585)" fill="#e62953"></path></g></g><path id="Path_3693" data-name="Path 3693" d="M2401.42,1337.75h-.221a.753.753,0,0,0-.769.732v.581a.753.753,0,0,0,.769.732h.221Z" transform="translate(-2400.43 -1335.453)" fill="#b4d5df"></path><ellipse id="Ellipse_172" data-name="Ellipse 172" cx="0.814" cy="2.872" rx="0.814" ry="2.872" transform="translate(6.116)" fill="#062241"></ellipse><path id="Path_3694" data-name="Path 3694" d="M2412.036,1324.285a4.669,4.669,0,0,1,.607-2.774v0a13.127,13.127,0,0,1-5.861,2.221v2.027s4.278-.24,5.861,1.3h0A4.663,4.663,0,0,1,2412.036,1324.285Z" transform="translate(-2405.919 -1321.413)" fill="#b4d5df"></path></g><path id="Path_3695" data-name="Path 3695" d="M2418.018,1363.5a2.2,2.2,0,0,1-1.042.17c-.543,0-.787-.667-.879-1.03-.033-.128-.062-.309.1-.391l.872-.121Z" transform="translate(-2402.232 -1354.783)" fill="#f99e75"></path></g><g id="Group_4636" data-name="Group 4636" transform="translate(1165.148 1425.583)"><g id="Group_4634" data-name="Group 4634" transform="translate(0 2.14)"><g id="Group_4632" data-name="Group 4632" transform="translate(26.052 49.063)"><path id="Path_3696" data-name="Path 3696" d="M3513.516,1347.423l-1.138,3.011a.994.994,0,0,0,.324,1.174,3.853,3.853,0,0,0,.6.274,35.753,35.753,0,0,0,1.521-4.11l-.013-.025A1.081,1.081,0,0,0,3513.516,1347.423Z" transform="translate(-3511.8 -1346.712)" fill="#062241"></path><path id="Path_3697" data-name="Path 3697" d="M3519.518,1354.7l1.521-4.11.2.116-1.532,4.072Z" transform="translate(-3518.021 -1349.53)" fill="#0c2146"></path><path id="Path_3698" data-name="Path 3698" d="M3508.918,1342.768l1.262.711h0a.811.811,0,0,1-.278.817l-.044.036-1.393-.358Z" transform="translate(-3508.465 -1342.768)" fill="#f99e75"></path></g><path id="Path_3699" data-name="Path 3699" d="M3405.032,1202.57a7.245,7.245,0,0,1,1.574,3.72c.214,1.579-.376,4.08-.441,6.043a5.063,5.063,0,0,0,2.173,4.318l6.769,4.918-.453,1.205s-9.265-1.389-11.7-5.539-3.009-13.543-3.009-13.543Z" transform="translate(-3388.602 -1172.506)" fill="#123354"></path><path id="Path_3700" data-name="Path 3700" d="M3462.286,1164.841l3.481,7.774a4.727,4.727,0,0,1,2.051.715,1.482,1.482,0,0,1,.222,1.342.48.48,0,0,1-.786.277,3.306,3.306,0,0,0-1.2-.76,1.443,1.443,0,0,1-1.115-.751l-5-7.833Z" transform="translate(-3440.467 -1139.89)" fill="#f99e75"></path><path id="Path_3701" data-name="Path 3701" d="M3319,980.719q.565.132,1.144.224l-.063.033-1.384,7.535,1.784,1.525-2.714,1.109s-1.55-1.109-1.55-1.919,2.766-8.394,2.766-8.394Z" transform="translate(-3316.219 -980.719)" fill="#f99e75"></path><path id="Path_3702" data-name="Path 3702" d="M3366.922,1201.527s1.073,1.293.429,4.3c-.411,1.918-2.216,4.331-3.428,5.994a5.277,5.277,0,0,0-.626,4.143c.992,5.518-.6,12.255-.6,12.255h-1.288s-1.931-9.872-2.5-16.812a20.018,20.018,0,0,1,2.218-10.945Z" transform="translate(-3353.068 -1170.681)" fill="#123354"></path><path id="Path_3703" data-name="Path 3703" d="M3339.452,1055.746c2.3,1.69,5.009,9.815,5.009,9.815l-2.02,1.133-3.288-4.511a43.635,43.635,0,0,0,.466,9.229c-.358,1.5-2.064,1.333-4.831.809a13.734,13.734,0,0,1-4.578-1.717s-.119-7.246-.477-11.089.349-4.253-.62-4.125c-2.161-1.227-5.7-5.18-5.7-5.18l3.289-.64,7.083,4.15A30.663,30.663,0,0,1,3339.452,1055.746Z" transform="translate(-3322.437 -1040.153)" fill="#ee4f1b"></path><path id="Path_3704" data-name="Path 3704" d="M3395.644,1024.857l-1.709,1.688a2.963,2.963,0,0,0-.81,2.751l.2.9Z" transform="translate(-3382.642 -1018.876)" fill="#f99e75"></path><path id="Path_3705" data-name="Path 3705" d="M3362.322,1020.145c4.15,0,2.385,7.965,2.385,7.965s-.74,5.167-2.385,7.241c-1.424,1.8-4.241,1.255-5.577.394a5.1,5.1,0,0,0-2.154-.8,2.46,2.46,0,0,1-2.475-2.675c0-1.92,2.292-3.4,3.8-4.465a4.976,4.976,0,0,0,1.955-2.891C3358.354,1022.954,3359.531,1020.145,3362.322,1020.145Z" transform="translate(-3347.251 -1014.802)" fill="#0c2146"></path><g id="Group_4633" data-name="Group 4633" transform="translate(5.156 57.535)"><path id="Path_3706" data-name="Path 3706" d="M3358.559,1415.816l-3.219-.005c-.427.06-.9.222-.985.717a3.791,3.791,0,0,0-.046.655,35.76,35.76,0,0,0,4.382-.024l.019-.021A1.081,1.081,0,0,0,3358.559,1415.816Z" transform="translate(-3354.303 -1414.385)" fill="#062241"></path><path id="Path_3707" data-name="Path 3707" d="M3354.277,1425.778l4.382-.024-.038.228h-4.35Z" transform="translate(-3354.27 -1422.98)" fill="#00314e"></path><path id="Path_3708" data-name="Path 3708" d="M3379.1,1405.286l-.221,1.432h0a.811.811,0,0,1-.863.027l-.049-.029-.155-1.43Z" transform="translate(-3374.618 -1405.286)" fill="#f99e75"></path></g></g><g id="Group_4635" data-name="Group 4635" transform="translate(1.959 0)"><path id="Path_3709" data-name="Path 3709" d="M3331.293,967.42l-.593-1.467a.4.4,0,0,1,.053-.387l.2-.262a.4.4,0,0,1,.262-.154l1.544-.217a.4.4,0,0,1,.427.25l.07.181a.4.4,0,0,1,0,.3l-.754,1.814Z" transform="translate(-3330.673 -964.929)" fill="#f99e75"></path><path id="Path_3710" data-name="Path 3710" d="M3338.6,971.3l.846-1.114a.382.382,0,0,0-.148-.579l-.555-.248c-.147-.066-.852.455-.852.455s.229.6.824.057c.047.1.238.192.238.192a1.713,1.713,0,0,0-1.223,1.2Z" transform="translate(-3336.774 -968.754)" fill="#f99e75"></path></g></g></g></svg>