<svg xmlns="http://www.w3.org/2000/svg" xmlns:xlink="http://www.w3.org/1999/xlink" viewBox="0 0 890.11 899.6"><defs><style>      .cls-1 {        fill: #fdfeff;        opacity: .03;      }      .cls-2 {        fill: none;      }      .cls-3 {        fill: #f9fafe;        opacity: .12;      }      .cls-4 {        fill: url(#Radial_Gradient_1-5);      }      .cls-4, .cls-5 {        mix-blend-mode: color-dodge;      }      .cls-6 {        fill: #fcfcfe;        opacity: .06;      }      .cls-7 {        fill: #fafbfe;        opacity: .09;      }      .cls-8 {        fill: url(#linear-gradient);      }      .cls-9 {        clip-path: url(#clippath);      }      .cls-10 {        opacity: .05;      }      .cls-11 {        fill: #f8c1af;      }      .cls-12 {        fill: #e6e7e8;      }      .cls-13 {        fill: #ededef;      }      .cls-14 {        fill: #ff9e6e;      }      .cls-15 {        fill: #ffaf10;      }      .cls-16, .cls-17, .cls-18, .cls-19 {        fill: #fff;      }      .cls-20 {        fill: #ffdf54;      }      .cls-21 {        fill: #f2bba2;      }      .cls-22 {        fill: #f1f1f1;      }      .cls-23 {        fill: #ffd522;      }      .cls-24 {        fill: #ffc530;      }      .cls-25 {        fill: #fcac0b;      }      .cls-26 {        fill: #e5e9ff;      }      .cls-27 {        fill: #e7611d;      }      .cls-28 {        fill: #ff8055;      }      .cls-29 {        fill: #b3b3b3;      }      .cls-30 {        fill: #304668;      }      .cls-31, .cls-32, .cls-33 {        fill: #ced3f4;      }      .cls-34 {        fill: #d6d6d6;      }      .cls-35 {        fill: #d9d9d9;      }      .cls-36 {        fill: #afb6e5;      }      .cls-37 {        fill: #061917;      }      .cls-38 {        fill: #45290e;      }      .cls-39 {        fill: #0f2c52;      }      .cls-40 {        fill: #3e3e3e;      }      .cls-41 {        fill: #344e7b;      }      .cls-42 {        fill: #35004d;      }      .cls-43 {        fill: #4d4d4d;      }      .cls-32, .cls-44, .cls-45, .cls-33, .cls-46, .cls-47, .cls-48 {        mix-blend-mode: multiply;      }      .cls-44, .cls-45 {        fill: #f1d5be;      }      .cls-49 {        fill: url(#Radial_Gradient_1-2);      }      .cls-50 {        fill: url(#Radial_Gradient_1-3);      }      .cls-51 {        fill: url(#Radial_Gradient_1-4);      }      .cls-45, .cls-52, .cls-48, .cls-53 {        opacity: .5;      }      .cls-33 {        opacity: .95;      }      .cls-54 {        fill: #f7f8fd;        opacity: .16;      }      .cls-55 {        fill: #131313;        opacity: .14;      }      .cls-56 {        fill: #272727;        opacity: .22;      }      .cls-57 {        fill: #f4f5fd;        opacity: .22;      }      .cls-58 {        fill: #f6f7fd;        opacity: .19;      }      .cls-59 {        fill: url(#Radial_Gradient_1);      }      .cls-60 {        fill: url(#linear-gradient-2);      }      .cls-61 {        opacity: .45;      }      .cls-17 {        font-family: BebasNeueBold, 'Bebas Neue';        font-size: 73.76px;      }      .cls-18 {        opacity: 0;      }      .cls-62 {        isolation: isolate;      }      .cls-63 {        fill: url(#Radial_Gradient_1-6);        mix-blend-mode: screen;      }      .cls-46 {        opacity: .15;      }      .cls-47 {        opacity: .3;      }      .cls-64 {        fill: #dde1f7;        opacity: .69;      }      .cls-65 {        fill: #757575;        opacity: .57;      }      .cls-66 {        fill: #e2e5f8;        opacity: .59;      }      .cls-67 {        fill: #e0e3f8;        opacity: .62;      }      .cls-68 {        fill: #e5e8f9;        opacity: .53;      }      .cls-69 {        fill: #e3e6f9;        opacity: .56;      }      .cls-70 {        fill: #616161;        opacity: .48;      }      .cls-53 {        fill: #e7e9fa;      }      .cls-71 {        fill: #d3d7f5;        opacity: .91;      }      .cls-72 {        fill: #c3c3c3;        opacity: .91;      }      .cls-73 {        fill: #d1d6f5;        opacity: .94;      }      .cls-74 {        fill: #afafaf;        opacity: .83;      }      .cls-75 {        fill: #d6daf6;        opacity: .84;      }      .cls-76 {        fill: #d4d9f5;        opacity: .88;      }      .cls-77 {        fill: #9c9c9c;        opacity: .74;      }      .cls-78 {        fill: #d9ddf6;        opacity: .78;      }      .cls-79 {        fill: #d7dbf6;        opacity: .81;      }      .cls-19 {        opacity: .7;      }      .cls-80 {        fill: #dcdff7;        opacity: .72;      }      .cls-81 {        fill: #dadef7;        opacity: .75;      }      .cls-82 {        fill: #eef0fb;        opacity: .34;      }      .cls-83 {        fill: #3a3a3a;        opacity: .31;      }      .cls-84 {        fill: #f0f1fc;        opacity: .31;      }      .cls-85 {        fill: #f1f3fc;        opacity: .28;      }      .cls-86 {        fill: #f3f4fc;        opacity: .25;      }      .cls-87 {        fill: #e8eafa;        opacity: .47;      }      .cls-88 {        fill: #eaecfa;        opacity: .44;      }      .cls-89 {        fill: #ebedfb;        opacity: .41;      }      .cls-90 {        fill: #4e4e4e;        opacity: .4;      }      .cls-91 {        fill: #edeffb;        opacity: .38;      }      .cls-92 {        fill: #888;        opacity: .65;      }      .cls-93 {        fill: #dfe2f8;        opacity: .66;      }      .cls-94 {        fill: #d0d4f4;        opacity: .97;      }    </style><linearGradient id="linear-gradient" x1="-76.3" y1="212.6" x2="905.36" y2="428.03" gradientUnits="userSpaceOnUse"><stop offset="0" stop-color="#afb6e5"></stop><stop offset=".14" stop-color="#b5bce8"></stop><stop offset=".35" stop-color="#c7cdf0"></stop><stop offset=".58" stop-color="#e5e9ff"></stop><stop offset=".86" stop-color="#f4f6ff"></stop><stop offset="1" stop-color="#fff"></stop></linearGradient><linearGradient id="linear-gradient-2" x1="378.6" y1="-54.78" x2="723.3" y2="635.82" gradientUnits="userSpaceOnUse"><stop offset="0" stop-color="#b3bae7"></stop><stop offset=".19" stop-color="#b7bde9"></stop><stop offset=".28" stop-color="#bac0e9"></stop><stop offset=".41" stop-color="#afb6e5"></stop><stop offset=".91" stop-color="#afb6e5"></stop><stop offset="1" stop-color="#b3bae7"></stop></linearGradient><radialGradient id="Radial_Gradient_1" data-name="Radial Gradient 1" cx="255.05" cy="215.17" fx="255.05" fy="215.17" r="18.52" gradientUnits="userSpaceOnUse"><stop offset="0" stop-color="#fff"></stop><stop offset="1" stop-color="#000"></stop></radialGradient><radialGradient id="Radial_Gradient_1-2" data-name="Radial Gradient 1" cx="238.24" cy="267.05" fx="238.24" fy="267.05" r="16.74" xlink:href="#Radial_Gradient_1"></radialGradient><radialGradient id="Radial_Gradient_1-3" data-name="Radial Gradient 1" cx="293.21" cy="205.2" fx="293.21" fy="205.2" r="53.17" xlink:href="#Radial_Gradient_1"></radialGradient><radialGradient id="Radial_Gradient_1-4" data-name="Radial Gradient 1" cx="219.05" cy="217.59" fx="219.05" fy="217.59" r="8.85" xlink:href="#Radial_Gradient_1"></radialGradient><radialGradient id="Radial_Gradient_1-5" data-name="Radial Gradient 1" cx="-3760.99" cy="230.14" fx="-3760.99" fy="230.14" r="103.52" gradientTransform="translate(4013.9)" xlink:href="#Radial_Gradient_1"></radialGradient><clipPath id="clippath"><ellipse class="cls-2" cx="516.91" cy="626.15" rx="73.53" ry="127.36" transform="translate(-245.35 346.47) rotate(-30.31)"></ellipse></clipPath><radialGradient id="Radial_Gradient_1-6" data-name="Radial Gradient 1" cx="556.14" cy="551.75" fx="556.14" fy="551.75" r="103.13" xlink:href="#Radial_Gradient_1"></radialGradient></defs><g class="cls-62"><g id="artwork"><g><path class="cls-22" d="M759.43,438.04c-.79,0-1.42-.64-1.42-1.42v-8.52c0-.79,.64-1.42,1.42-1.42s1.42,.64,1.42,1.42v8.52c0,.79-.64,1.42-1.42,1.42Zm0-17.05c-.79,0-1.42-.64-1.42-1.42v-8.52c0-.79,.64-1.42,1.42-1.42s1.42,.64,1.42,1.42v8.52c0,.79-.64,1.42-1.42,1.42Zm0-17.05c-.79,0-1.42-.64-1.42-1.42v-8.52c0-.79,.64-1.42,1.42-1.42s1.42,.64,1.42,1.42v8.52c0,.79-.64,1.42-1.42,1.42Zm0-17.05c-.79,0-1.42-.64-1.42-1.42v-8.52c0-.79,.64-1.42,1.42-1.42s1.42,.64,1.42,1.42v8.52c0,.79-.64,1.42-1.42,1.42Zm0-17.05c-.79,0-1.42-.64-1.42-1.42v-8.52c0-.79,.64-1.42,1.42-1.42s1.42,.64,1.42,1.42v8.52c0,.79-.64,1.42-1.42,1.42Zm0-17.05c-.79,0-1.42-.64-1.42-1.42v-8.52c0-.79,.64-1.42,1.42-1.42s1.42,.64,1.42,1.42v8.52c0,.79-.64,1.42-1.42,1.42Zm0-17.05c-.79,0-1.42-.64-1.42-1.42v-8.52c0-.79,.64-1.42,1.42-1.42s1.42,.64,1.42,1.42v8.52c0,.79-.64,1.42-1.42,1.42Zm0-17.05c-.79,0-1.42-.64-1.42-1.42v-8.52c0-.79,.64-1.42,1.42-1.42s1.42,.64,1.42,1.42v8.52c0,.79-.64,1.42-1.42,1.42Zm0-17.05c-.79,0-1.42-.64-1.42-1.42v-8.52c0-.79,.64-1.42,1.42-1.42s1.42,.64,1.42,1.42v8.52c0,.79-.64,1.42-1.42,1.42Zm0-17.05c-.79,0-1.42-.64-1.42-1.42v-8.52c0-.79,.64-1.42,1.42-1.42s1.42,.64,1.42,1.42v8.52c0,.79-.64,1.42-1.42,1.42Zm0,322.71c-.79,0-1.42-.64-1.42-1.42v-8.52c0-.79,.64-1.42,1.42-1.42s1.42,.64,1.42,1.42v8.52c0,.79-.64,1.42-1.42,1.42Zm0,15.33c-.79,0-1.42-.64-1.42-1.42v-8.52c0-.79,.64-1.42,1.42-1.42s1.42,.64,1.42,1.42v8.52c0,.79-.64,1.42-1.42,1.42Zm0-32.38c-.79,0-1.42-.64-1.42-1.42v-8.52c0-.79,.64-1.42,1.42-1.42s1.42,.64,1.42,1.42v8.52c0,.79-.64,1.42-1.42,1.42Zm0-17.05c-.79,0-1.42-.64-1.42-1.42v-8.52c0-.79,.64-1.42,1.42-1.42s1.42,.64,1.42,1.42v8.52c0,.79-.64,1.42-1.42,1.42Zm0-17.05c-.79,0-1.42-.64-1.42-1.42v-8.52c0-.79,.64-1.42,1.42-1.42s1.42,.64,1.42,1.42v8.52c0,.79-.64,1.42-1.42,1.42Zm0-17.05c-.79,0-1.42-.64-1.42-1.42v-8.52c0-.79,.64-1.42,1.42-1.42s1.42,.64,1.42,1.42v8.52c0,.79-.64,1.42-1.42,1.42Zm0-17.05c-.79,0-1.42-.64-1.42-1.42v-8.52c0-.79,.64-1.42,1.42-1.42s1.42,.64,1.42,1.42v8.52c0,.79-.64,1.42-1.42,1.42Zm0-17.05c-.79,0-1.42-.64-1.42-1.42v-8.52c0-.79,.64-1.42,1.42-1.42s1.42,.64,1.42,1.42v8.52c0,.79-.64,1.42-1.42,1.42Zm0-17.05c-.79,0-1.42-.64-1.42-1.42v-8.52c0-.79,.64-1.42,1.42-1.42s1.42,.64,1.42,1.42v8.52c0,.79-.64,1.42-1.42,1.42Zm0-17.05c-.79,0-1.42-.64-1.42-1.42v-8.52c0-.79,.64-1.42,1.42-1.42s1.42,.64,1.42,1.42v8.52c0,.79-.64,1.42-1.42,1.42Zm0-17.05c-.79,0-1.42-.64-1.42-1.42v-8.52c0-.79,.64-1.42,1.42-1.42s1.42,.64,1.42,1.42v8.52c0,.79-.64,1.42-1.42,1.42Zm-182.24-136.55c-.79,0-1.42-.64-1.42-1.42v-8.52c0-.79,.64-1.42,1.42-1.42s1.42,.64,1.42,1.42v8.52c0,.79-.64,1.42-1.42,1.42Zm0-17.05c-.79,0-1.42-.64-1.42-1.42v-8.52c0-.79,.64-1.42,1.42-1.42s1.42,.64,1.42,1.42v8.52c0,.79-.64,1.42-1.42,1.42Zm182.24-32.68c-.79,0-1.42-.64-1.42-1.42v-3.69c0-1.54-.08-3.12-.22-4.69-.07-.78,.5-1.48,1.29-1.55,.75-.07,1.47,.5,1.55,1.29,.15,1.66,.23,3.33,.23,4.95v3.69c0,.79-.64,1.42-1.42,1.42Zm-182.24,15.63c-.79,0-1.42-.64-1.42-1.42v-8.52c0-.79,.64-1.42,1.42-1.42s1.42,.64,1.42,1.42v8.52c0,.79-.64,1.42-1.42,1.42Zm180.65-32.56c-.65,0-1.23-.44-1.39-1.1-.61-2.63-1.4-5.33-2.35-8.03-.26-.74,.13-1.56,.87-1.82,.73-.26,1.55,.13,1.82,.87,.98,2.79,1.8,5.6,2.44,8.33,.18,.77-.3,1.53-1.07,1.71-.11,.03-.21,.04-.32,.04Zm-180.65,15.51c-.79,0-1.42-.64-1.42-1.42v-8.52c0-.79,.64-1.42,1.42-1.42s1.42,.64,1.42,1.42v8.52c0,.79-.64,1.42-1.42,1.42Zm175.01-31.57c-.53,0-1.05-.3-1.29-.82-1.18-2.5-2.5-5-3.93-7.41-.4-.68-.18-1.55,.5-1.95,.68-.4,1.55-.18,1.95,.5,1.48,2.49,2.84,5.06,4.06,7.65,.34,.71,.03,1.56-.68,1.9-.19,.09-.4,.14-.61,.14Zm-175.01,14.52c-.79,0-1.42-.64-1.42-1.42v-8.52c0-.79,.64-1.42,1.42-1.42s1.42,.64,1.42,1.42v8.52c0,.79-.64,1.42-1.42,1.42Zm166.32-29.17c-.44,0-.87-.2-1.15-.58-1.68-2.29-3.45-4.48-5.28-6.51-.53-.58-.48-1.48,.1-2.01,.58-.53,1.48-.48,2.01,.11,1.89,2.1,3.73,4.36,5.46,6.73,.46,.64,.33,1.53-.31,1.99-.25,.19-.55,.28-.84,.28Zm-166.32,12.12c-.79,0-1.42-.64-1.42-1.42v-8.52c0-.79,.64-1.42,1.42-1.42s1.42,.64,1.42,1.42v8.52c0,.79-.64,1.42-1.42,1.42Zm154.91-24.74c-.33,0-.67-.12-.94-.35-2.15-1.9-4.38-3.6-6.6-5.07-.66-.43-.84-1.32-.4-1.97,.43-.66,1.32-.84,1.97-.4,2.34,1.54,4.66,3.33,6.91,5.31,.59,.52,.65,1.42,.13,2.01-.28,.32-.67,.48-1.07,.48Zm-154.91,7.69c-.79,0-1.42-.64-1.42-1.42v-8.52c0-.79,.64-1.42,1.42-1.42s1.42,.64,1.42,1.42v8.52c0,.79-.64,1.42-1.42,1.42Zm140.81-17.22c-.24,0-.49-.06-.71-.19l-7.39-4.25c-.68-.39-.92-1.26-.53-1.95,.39-.68,1.27-.92,1.94-.52l7.39,4.25c.68,.39,.92,1.26,.53,1.95-.26,.46-.74,.71-1.23,.71Zm-14.77-8.51c-.24,0-.49-.06-.71-.19l-7.39-4.25c-.68-.39-.92-1.26-.53-1.95,.39-.68,1.27-.91,1.94-.52l7.39,4.25c.68,.39,.92,1.26,.53,1.95-.26,.46-.74,.71-1.23,.71Zm-126.03,8.67c-.79,0-1.42-.64-1.42-1.42v-8.52c0-.79,.64-1.42,1.42-1.42s1.42,.64,1.42,1.42v8.52c0,.79-.64,1.42-1.42,1.42Zm111.26-17.18c-.24,0-.49-.06-.71-.19l-7.39-4.25c-.68-.39-.92-1.26-.53-1.94,.39-.68,1.27-.92,1.94-.52l7.39,4.25c.68,.39,.92,1.26,.53,1.94-.26,.46-.74,.71-1.23,.71Zm-14.78-8.51c-.24,0-.49-.06-.71-.19l-7.39-4.25c-.68-.39-.92-1.26-.53-1.95,.39-.68,1.27-.92,1.94-.52l7.39,4.25c.68,.39,.92,1.26,.53,1.95-.26,.46-.74,.71-1.23,.71Zm-96.48,8.63c-.79,0-1.42-.64-1.42-1.42v-8.52c0-.79,.64-1.42,1.42-1.42s1.42,.64,1.42,1.42v8.52c0,.79-.64,1.42-1.42,1.42Zm0-17.01c-.79,0-1.42-.64-1.42-1.42v-5.11c0-1.21,.04-2.38,.13-3.52,.06-.79,.82-1.39,1.52-1.32,.78,.06,1.37,.74,1.32,1.52-.08,1.07-.12,2.17-.12,3.31v5.11c0,.79-.64,1.42-1.42,1.42Zm81.22-.47c-.24,0-.49-.06-.71-.19l-7.39-4.25c-.68-.39-.92-1.26-.53-1.95,.39-.68,1.27-.91,1.94-.52l7.39,4.25c.68,.39,.92,1.26,.53,1.95-.26,.46-.74,.71-1.23,.71Zm-14.78-8.51c-.24,0-.49-.06-.71-.19l-7.39-4.25c-.68-.39-.92-1.26-.53-1.95,.39-.68,1.27-.91,1.94-.52l7.39,4.25c.68,.39,.92,1.26,.53,1.95-.26,.46-.74,.71-1.23,.71Zm-64.73-7.9c-.15,0-.3-.02-.45-.07-.75-.25-1.15-1.05-.91-1.8,1-3.05,2.42-5.72,4.21-7.94,.5-.61,1.39-.71,2-.21,.61,.5,.71,1.39,.21,2-1.57,1.95-2.83,4.31-3.72,7.04-.2,.6-.75,.98-1.35,.98Zm49.96-.61c-.24,0-.49-.06-.71-.19l-7.39-4.25c-.68-.39-.92-1.26-.53-1.94,.39-.68,1.27-.92,1.94-.52l7.39,4.25c.68,.39,.92,1.26,.53,1.94-.26,.46-.74,.71-1.23,.71Zm-14.82-8.51c-.22,0-.44-.06-.66-.18l-.14-.08c-2.53-1.46-5.05-2.61-7.48-3.42-.75-.25-1.15-1.05-.9-1.8,.24-.75,1.06-1.15,1.8-.9,2.62,.87,5.31,2.1,8.01,3.65,.68,.39,.98,1.3,.59,1.98-.27,.47-.73,.75-1.21,.75Zm-24.49-3.52c-.54,0-1.07-.32-1.3-.85-.32-.72,0-1.56,.73-1.88,2.58-1.14,5.43-1.72,8.48-1.72h.43c.78,.02,1.41,.67,1.39,1.46-.02,.78-.65,1.39-1.42,1.39h-.38c-2.66,0-5.13,.49-7.34,1.47-.19,.08-.38,.12-.58,.12Z"></path><g><g><path class="cls-23" d="M638.07,540.98l38.75-22.37c2.86-1.65,6.52-.33,7.66,2.77l14.66,39.81c.68,1.84-.07,3.89-1.76,4.87l-71.94,41.54c-3.08,1.78-6.77-1.02-5.9-4.46l14.28-56.53c.6-2.37,2.13-4.4,4.26-5.63Z"></path><path class="cls-25" d="M699.14,561.19c.68,1.84-.07,3.89-1.76,4.87l-71.94,41.54c-3.08,1.78-6.77-1.02-5.9-4.46l14.28-56.53c10.67,1.32,65.33,14.58,65.33,14.58Z"></path><polygon class="cls-25" points="872.92 629.04 681.81 518.46 633.81 546.61 824.53 657.01 872.92 629.04"></polygon><polygon class="cls-25" points="812.29 718.04 824.53 657.01 633.81 546.61 620.91 607.23 812.29 718.04"></polygon><path class="cls-24" d="M828.79,651.38l38.75-22.37c2.86-1.65,6.52-.33,7.66,2.77l14.66,39.81c.68,1.83-.07,3.89-1.76,4.87l-71.94,41.54c-3.08,1.78-6.77-1.02-5.9-4.46l14.28-56.53c.6-2.37,2.13-4.4,4.26-5.63Z"></path><polygon class="cls-20" points="831.41 649.86 640.44 539.61 672.91 520.86 863.88 631.12 831.41 649.86"></polygon><g><path class="cls-15" d="M718.78,553.49c-.77,.04-1.51-.08-2.24-.35l1.4,1.23-1.06,.61-9.8-5.66,3.26-1.88,1.99,1.15-1.2,.69,2.42,1.4c1.18,.68,2.11,1.11,2.79,1.29,.69,.18,1.25,.14,1.69-.12,.44-.26,.51-.56,.2-.92-.3-.36-1.05-.87-2.23-1.55l-7.79-4.49c-1.01-.59-1.81-.95-2.38-1.07-.57-.13-1.06-.08-1.48,.16-.41,.24-.53,.5-.35,.78,.19,.28,.69,.65,1.51,1.13l1.88,1.08-2.22,1.28-1.27-.74c-1.37-.79-2.32-1.48-2.86-2.08-.9-1-.59-1.94,.94-2.82,1.23-.71,2.55-.97,3.99-.79,1.43,.18,2.98,.75,4.64,1.7l7.81,4.51c1.85,1.07,2.94,2.02,3.29,2.85,.33,.83,.02,1.53-.96,2.09-.55,.32-1.21,.49-1.97,.53Z"></path><path class="cls-15" d="M702.95,557.22l-8.21-4.74c-1.62-.93-2.59-1.79-2.9-2.58-.31-.79,.14-1.53,1.34-2.22,2.33-1.34,5.14-1.06,8.43,.84l8.21,4.74c1.75,1.01,2.77,1.93,3.09,2.75,.31,.82-.14,1.58-1.33,2.27-1.19,.69-2.49,.94-3.9,.76-1.41-.19-2.99-.79-4.74-1.8Zm4.52-2.57l-8.38-4.84c-.85-.49-1.54-.8-2.09-.93-.56-.13-1.03-.08-1.44,.15-.4,.23-.48,.5-.22,.81,.25,.31,.8,.7,1.65,1.2l8.37,4.83c1.03,.6,1.83,.98,2.39,1.15,.56,.17,1.06,.13,1.49-.12,.43-.25,.51-.53,.23-.85-.28-.32-.94-.78-2-1.39Z"></path><path class="cls-15" d="M700.46,564.46l-2.33-1.34,2.99-1.73-15.64-9.02,2.38-1.37,17.96,10.37-5.37,3.1Z"></path><path class="cls-15" d="M695.69,567.21c-1.2,.69-2.47,.94-3.84,.75-1.37-.19-2.95-.8-4.76-1.85l-8.09-4.68c-1.51-.87-2.41-1.69-2.68-2.43-.26-.75,.18-1.45,1.32-2.11l3.49-2.02,17.96,10.37-3.41,1.97Zm-14.82-9.76l-.7,.4c-.49,.28-.62,.59-.43,.93,.2,.34,.76,.78,1.69,1.32l8.86,5.13c.87,.5,1.57,.79,2.09,.87,.52,.08,1-.02,1.44-.27l.77-.45-13.74-7.93Z"></path></g><g><path class="cls-15" d="M842.39,624.02l-3.76,2.17-1.27-.74,1.11-.64-5.54-3.2,1-.58c.71-.08,1.31-.2,2.09-.49l.98,.57-1.1,.64,3.94,2.27,1.28-.74,1.27,.74Z"></path><path class="cls-15" d="M835.8,627.97c-1.26,.73-3.35,.5-5.67-.84-2.32-1.34-2.66-2.52-1.4-3.24,1.26-.73,3.3-.53,5.62,.81,2.32,1.34,2.72,2.54,1.45,3.27Zm-1.22-.71c.46-.27,.33-.75-1.53-1.83-1.87-1.08-2.64-1.11-3.1-.85-.46,.27-.4,.71,1.47,1.79,1.86,1.07,2.69,1.15,3.16,.88Z"></path><path class="cls-15" d="M830.89,630.81c-1.26,.73-3.35,.5-5.67-.84-2.32-1.34-2.66-2.51-1.4-3.24,1.27-.73,3.3-.53,5.62,.81,2.32,1.34,2.72,2.55,1.45,3.28Zm-1.22-.71c.46-.26,.33-.75-1.52-1.82-1.87-1.08-2.65-1.11-3.1-.85-.46,.27-.4,.71,1.46,1.79,1.86,1.07,2.7,1.15,3.16,.88Z"></path><path class="cls-15" d="M825.97,633.64c-1.26,.73-3.35,.5-5.67-.84-2.32-1.34-2.66-2.52-1.4-3.24,1.27-.73,3.3-.53,5.62,.81,2.32,1.34,2.72,2.54,1.45,3.27Zm-1.22-.71c.46-.27,.34-.75-1.52-1.83-1.87-1.08-2.64-1.11-3.1-.85-.46,.27-.4,.71,1.47,1.79,1.86,1.07,2.69,1.15,3.16,.88Z"></path><path class="cls-15" d="M823.41,637.59c-1.58,.91-3.38,1.02-4.48,.38-.96-.55-.73-1.14,.4-1.79l.74-.43c.51-.3,.57-.48,.3-.63-.18-.1-.33-.13-.57-.13-.13,.16-.28,.29-.46,.39-1.01,.58-2.38,.72-3.6,.01-.28-.16-.47-.35-.55-.49l-.73,.42-1.15-.66,1.68-.97c.12-.17,.33-.34,.58-.49,1-.58,2.55-.73,3.83,0,.62,.36,.83,.82,.76,1.16l.04,.03c.53-.04,1.13,.05,1.52,.28,.44,.25,.53,.52,.47,.77l.05,.02c.71-.08,1.29-.02,1.73,.24,.95,.55,.5,1.28-.58,1.9Zm-1.2-.45c.61-.35,.8-.71,.41-.94-.19-.11-.44-.16-.78-.16-.11,.11-.27,.23-.58,.41l-.47,.27c-.46,.26-.62,.46-.29,.65,.37,.21,1.1,.12,1.72-.24Zm-3.81-2.32c.36-.21,.33-.54-.25-.88-.57-.33-1.13-.34-1.5-.13-.36,.21-.33,.54,.23,.86,.59,.34,1.16,.36,1.52,.15Z"></path></g><polygon class="cls-15" points="705.54 573.75 732.09 558.42 727.29 555.64 700.73 570.98 705.54 573.75"></polygon></g><g><path class="cls-23" d="M549.62,592.77l38.75-22.37c2.86-1.65,6.52-.33,7.66,2.77l14.66,39.81c.68,1.83-.07,3.89-1.76,4.87l-71.94,41.54c-3.08,1.78-6.77-1.02-5.9-4.46l14.28-56.53c.6-2.37,2.13-4.4,4.26-5.63Z"></path><path class="cls-25" d="M610.69,612.98c.68,1.83-.07,3.89-1.76,4.87l-71.94,41.54c-3.08,1.78-6.77-1.02-5.9-4.46l14.28-56.53c10.67,1.32,65.33,14.58,65.33,14.58Z"></path><polygon class="cls-23" points="784.47 680.84 593.36 570.25 545.36 598.4 736.08 708.8 784.47 680.84"></polygon><polygon class="cls-25" points="723.84 769.83 736.08 708.8 545.36 598.4 532.46 659.02 723.84 769.83"></polygon><path class="cls-24" d="M740.34,703.17l38.75-22.37c2.86-1.65,6.52-.33,7.66,2.77l14.66,39.81c.68,1.83-.07,3.89-1.76,4.87l-71.94,41.54c-3.08,1.78-6.77-1.02-5.9-4.46l14.28-56.53c.6-2.37,2.13-4.41,4.26-5.63Z"></path><polygon class="cls-20" points="742.96 701.65 551.99 591.4 584.46 572.65 775.43 682.91 742.96 701.65"></polygon><g><path class="cls-15" d="M630.33,605.28c-.77,.04-1.51-.08-2.24-.35l1.4,1.23-1.06,.61-9.8-5.66,3.26-1.88,1.99,1.15-1.19,.69,2.42,1.4c1.18,.68,2.1,1.11,2.79,1.29,.68,.18,1.24,.14,1.69-.12,.45-.26,.51-.56,.2-.92-.3-.35-1.05-.87-2.23-1.55l-7.79-4.5c-1.01-.58-1.8-.94-2.38-1.07-.57-.13-1.06-.08-1.48,.16-.41,.24-.53,.5-.35,.78,.19,.28,.69,.65,1.51,1.13l1.88,1.09-2.21,1.28-1.28-.74c-1.37-.79-2.32-1.49-2.86-2.08-.9-1-.58-1.94,.94-2.82,1.23-.71,2.55-.97,3.98-.8,1.44,.18,2.98,.75,4.64,1.71l7.8,4.51c1.85,1.07,2.94,2.02,3.28,2.85,.33,.83,.01,1.53-.96,2.09-.55,.32-1.2,.5-1.97,.53Z"></path><path class="cls-15" d="M614.51,609.01l-8.21-4.74c-1.62-.94-2.58-1.8-2.9-2.58-.3-.79,.14-1.53,1.34-2.22,2.33-1.34,5.14-1.06,8.43,.84l8.21,4.74c1.75,1.01,2.78,1.93,3.09,2.75,.31,.82-.13,1.58-1.32,2.27s-2.49,.94-3.9,.76c-1.41-.19-2.99-.79-4.74-1.8Zm4.52-2.57l-8.38-4.84c-.84-.49-1.54-.79-2.09-.93-.55-.13-1.03-.08-1.43,.15-.41,.24-.48,.5-.23,.81,.25,.31,.8,.7,1.65,1.2l8.37,4.83c1.03,.6,1.84,.98,2.39,1.15,.56,.17,1.05,.13,1.49-.12,.43-.25,.5-.53,.23-.85-.28-.32-.94-.78-2-1.39Z"></path><path class="cls-15" d="M612.02,616.24l-2.33-1.34,2.99-1.73-15.63-9.03,2.37-1.37,17.96,10.37-5.36,3.1Z"></path><path class="cls-15" d="M607.25,618.99c-1.2,.69-2.47,.94-3.84,.76-1.37-.19-2.95-.8-4.76-1.85l-8.09-4.68c-1.51-.88-2.41-1.69-2.67-2.43-.27-.75,.18-1.45,1.32-2.11l3.49-2.02,17.96,10.37-3.41,1.97Zm-14.82-9.76l-.7,.4c-.48,.28-.63,.59-.43,.93,.2,.34,.76,.78,1.69,1.32l8.86,5.13c.87,.5,1.57,.79,2.09,.87,.53,.07,1.01-.02,1.44-.27l.78-.45-13.74-7.93Z"></path></g><g><path class="cls-15" d="M753.95,675.8l-3.76,2.17-1.27-.74,1.11-.64-5.54-3.2,1-.58c.71-.08,1.32-.2,2.09-.49l.98,.56-1.1,.64,3.94,2.27,1.28-.74,1.28,.74Z"></path><path class="cls-15" d="M747.36,679.76c-1.26,.73-3.35,.5-5.67-.84-2.32-1.34-2.66-2.51-1.4-3.24,1.27-.73,3.3-.53,5.62,.81,2.32,1.34,2.72,2.54,1.45,3.28Zm-1.22-.71c.46-.26,.33-.75-1.52-1.82-1.87-1.08-2.65-1.11-3.1-.85-.46,.27-.4,.71,1.47,1.79,1.86,1.07,2.69,1.15,3.16,.88Z"></path><path class="cls-15" d="M742.45,682.59c-1.26,.73-3.35,.5-5.67-.84-2.31-1.34-2.66-2.52-1.4-3.24,1.27-.73,3.3-.53,5.62,.81,2.32,1.34,2.72,2.55,1.45,3.27Zm-1.22-.71c.46-.26,.34-.75-1.52-1.82-1.87-1.08-2.64-1.11-3.1-.85-.46,.27-.4,.71,1.47,1.79,1.86,1.07,2.69,1.15,3.16,.88Z"></path><path class="cls-15" d="M737.54,685.43c-1.26,.73-3.35,.5-5.67-.84-2.31-1.34-2.66-2.51-1.4-3.24,1.26-.73,3.3-.53,5.62,.81,2.32,1.34,2.72,2.54,1.45,3.28Zm-1.22-.71c.46-.26,.33-.75-1.53-1.82-1.87-1.08-2.64-1.11-3.1-.85-.46,.27-.4,.71,1.47,1.79,1.86,1.07,2.69,1.15,3.16,.88Z"></path><path class="cls-15" d="M734.96,689.38c-1.58,.91-3.38,1.02-4.48,.38-.96-.55-.73-1.14,.4-1.79l.74-.43c.51-.3,.57-.48,.3-.63-.18-.11-.32-.13-.56-.13-.13,.16-.28,.29-.45,.39-1.01,.58-2.38,.72-3.6,0-.28-.16-.47-.35-.55-.49l-.74,.42-1.15-.66,1.69-.97c.12-.17,.33-.34,.58-.49,.99-.57,2.55-.73,3.83,0,.62,.36,.83,.82,.76,1.16l.04,.02c.53-.03,1.13,.05,1.52,.28,.44,.25,.54,.52,.47,.77l.05,.02c.71-.09,1.29-.02,1.73,.24,.95,.54,.5,1.27-.58,1.9Zm-1.2-.45c.61-.35,.81-.71,.41-.94-.19-.11-.44-.16-.78-.16-.11,.11-.27,.23-.59,.41l-.47,.27c-.46,.26-.62,.46-.29,.65,.36,.21,1.1,.12,1.72-.24Zm-3.81-2.32c.36-.21,.33-.54-.26-.88-.57-.33-1.13-.34-1.5-.13-.36,.21-.33,.54,.23,.86,.59,.34,1.16,.36,1.52,.15Z"></path></g><polygon class="cls-15" points="617.09 625.54 643.64 610.21 638.84 607.44 612.28 622.77 617.09 625.54"></polygon></g><g><path class="cls-24" d="M459.78,644.71l38.75-22.37c2.86-1.65,6.52-.33,7.66,2.77l14.66,39.81c.68,1.83-.07,3.89-1.76,4.87l-71.94,41.54c-3.08,1.78-6.77-1.02-5.9-4.46l14.28-56.53c.6-2.37,2.13-4.4,4.26-5.63Z"></path><path class="cls-25" d="M520.85,664.92c.68,1.83-.07,3.89-1.76,4.87l-71.94,41.54c-3.08,1.78-6.77-1.02-5.9-4.46l14.28-56.53c10.67,1.32,65.33,14.58,65.33,14.58Z"></path><polygon class="cls-25" points="694.63 732.77 503.52 622.19 455.52 650.33 646.24 760.73 694.63 732.77"></polygon><polygon class="cls-25" points="634 821.76 646.24 760.73 455.52 650.33 442.62 710.96 634 821.76"></polygon><path class="cls-24" d="M650.5,755.1l38.75-22.37c2.86-1.65,6.52-.33,7.66,2.77l14.66,39.81c.68,1.83-.07,3.89-1.76,4.87l-71.94,41.54c-3.08,1.78-6.77-1.02-5.9-4.46l14.28-56.53c.6-2.37,2.13-4.4,4.26-5.63Z"></path><polygon class="cls-20" points="653.12 753.59 462.15 643.33 494.62 624.59 685.59 734.84 653.12 753.59"></polygon><g><path class="cls-25" d="M540.48,657.22c-.76,.04-1.51-.08-2.24-.35l1.4,1.23-1.06,.61-9.8-5.66,3.26-1.88,1.99,1.15-1.19,.69,2.42,1.4c1.18,.68,2.11,1.11,2.79,1.29,.68,.18,1.24,.14,1.69-.12,.45-.26,.51-.56,.2-.92-.31-.35-1.05-.87-2.23-1.55l-7.79-4.5c-1.01-.58-1.8-.94-2.37-1.07-.57-.13-1.06-.08-1.48,.16-.41,.24-.53,.5-.35,.78,.19,.28,.69,.65,1.51,1.13l1.88,1.09-2.21,1.28-1.28-.74c-1.37-.79-2.32-1.49-2.86-2.08-.9-1-.58-1.94,.94-2.82,1.22-.71,2.55-.97,3.99-.8,1.43,.18,2.98,.75,4.64,1.71l7.81,4.51c1.85,1.07,2.94,2.02,3.29,2.85,.33,.83,.02,1.53-.96,2.09-.55,.31-1.21,.49-1.97,.53Z"></path><path class="cls-25" d="M524.66,660.95l-8.21-4.74c-1.62-.94-2.59-1.8-2.9-2.58-.31-.79,.14-1.53,1.34-2.22,2.33-1.34,5.13-1.06,8.42,.84l8.21,4.74c1.75,1.01,2.78,1.93,3.09,2.75,.31,.82-.13,1.58-1.32,2.27-1.19,.69-2.49,.94-3.9,.76s-2.99-.79-4.74-1.8Zm4.52-2.57l-8.38-4.84c-.85-.49-1.55-.79-2.1-.93-.55-.13-1.03-.08-1.43,.15-.4,.23-.48,.5-.23,.81,.26,.31,.81,.7,1.66,1.2l8.37,4.83c1.04,.6,1.84,.98,2.39,1.15,.56,.17,1.06,.13,1.48-.12,.43-.25,.51-.53,.24-.85-.28-.32-.95-.78-2-1.39Z"></path><path class="cls-25" d="M522.17,668.18l-2.33-1.34,3-1.73-15.64-9.02,2.37-1.37,17.96,10.37-5.36,3.1Z"></path><path class="cls-25" d="M517.4,670.93c-1.2,.69-2.47,.94-3.84,.76-1.36-.19-2.95-.8-4.76-1.85l-8.09-4.68c-1.52-.87-2.41-1.68-2.67-2.43-.26-.75,.18-1.45,1.32-2.11l3.49-2.02,17.96,10.37-3.41,1.97Zm-14.82-9.76l-.7,.41c-.48,.28-.62,.59-.42,.93,.2,.34,.76,.78,1.69,1.32l8.86,5.13c.87,.5,1.57,.79,2.09,.87,.52,.07,1.01-.02,1.44-.27l.78-.45-13.74-7.93Z"></path></g><g><path class="cls-25" d="M664.1,727.74l-3.76,2.17-1.27-.74,1.1-.64-5.54-3.2,1-.58c.71-.08,1.31-.2,2.09-.49l.98,.57-1.1,.64,3.94,2.27,1.28-.74,1.28,.74Z"></path><path class="cls-25" d="M657.52,731.69c-1.26,.73-3.36,.5-5.68-.84-2.31-1.34-2.66-2.52-1.4-3.24,1.27-.73,3.3-.53,5.62,.81,2.32,1.34,2.72,2.54,1.46,3.27Zm-1.23-.71c.46-.26,.34-.75-1.52-1.82-1.87-1.08-2.64-1.11-3.1-.85-.46,.27-.39,.71,1.47,1.79,1.86,1.07,2.69,1.15,3.15,.88Z"></path><path class="cls-25" d="M652.61,734.53c-1.27,.73-3.36,.5-5.68-.84-2.31-1.34-2.66-2.52-1.4-3.24,1.26-.73,3.3-.53,5.62,.81,2.32,1.34,2.72,2.54,1.46,3.27Zm-1.23-.71c.46-.26,.33-.75-1.52-1.82-1.87-1.08-2.65-1.11-3.1-.85-.47,.27-.4,.72,1.46,1.79,1.86,1.07,2.69,1.15,3.16,.88Z"></path><path class="cls-25" d="M647.69,737.36c-1.26,.73-3.35,.5-5.67-.84-2.32-1.34-2.66-2.52-1.4-3.24,1.26-.73,3.3-.53,5.62,.81,2.31,1.34,2.72,2.54,1.45,3.27Zm-1.22-.71c.46-.26,.33-.75-1.53-1.82-1.87-1.08-2.64-1.11-3.1-.85-.46,.27-.4,.71,1.47,1.79,1.86,1.07,2.69,1.15,3.16,.88Z"></path><path class="cls-25" d="M645.12,741.31c-1.58,.91-3.38,1.02-4.48,.38-.96-.55-.73-1.14,.41-1.79l.74-.43c.51-.3,.56-.48,.3-.63-.18-.1-.33-.13-.57-.13-.13,.16-.28,.29-.45,.38-1.01,.58-2.38,.72-3.6,.01-.28-.16-.47-.35-.55-.49l-.73,.42-1.15-.66,1.68-.97c.12-.17,.33-.34,.58-.49,.99-.58,2.55-.73,3.82,0,.62,.36,.83,.82,.77,1.16l.04,.03c.53-.03,1.13,.05,1.51,.28,.44,.25,.54,.52,.48,.77l.04,.02c.71-.09,1.29-.02,1.73,.24,.94,.55,.5,1.27-.58,1.9Zm-1.2-.45c.61-.35,.81-.71,.41-.94-.19-.11-.44-.15-.78-.16-.1,.11-.27,.23-.58,.41l-.47,.27c-.46,.26-.62,.46-.28,.65,.36,.21,1.1,.12,1.71-.24Zm-3.81-2.32c.36-.21,.33-.54-.26-.88-.57-.33-1.13-.34-1.49-.13-.36,.21-.33,.54,.23,.86,.59,.34,1.16,.36,1.52,.15Z"></path></g><polygon class="cls-25" points="527.25 677.47 553.8 662.14 549 659.37 522.44 674.7 527.25 677.47"></polygon></g><g><path class="cls-24" d="M596.62,508.12l38.75-22.37c2.86-1.65,6.52-.33,7.66,2.77l14.66,39.81c.68,1.83-.07,3.89-1.76,4.87l-71.94,41.54c-3.08,1.78-6.77-1.02-5.9-4.46l14.28-56.53c.6-2.37,2.13-4.4,4.26-5.63Z"></path><path class="cls-25" d="M657.7,528.34c.68,1.83-.07,3.89-1.76,4.87l-71.94,41.54c-3.08,1.78-6.77-1.02-5.9-4.46l14.28-56.53c10.67,1.32,65.33,14.58,65.33,14.58Z"></path><polygon class="cls-24" points="831.48 596.19 640.37 485.6 592.37 513.75 783.09 624.15 831.48 596.19"></polygon><polygon class="cls-25" points="770.85 685.18 783.09 624.15 592.37 513.75 579.47 574.38 770.85 685.18"></polygon><path class="cls-24" d="M787.35,618.52l38.75-22.37c2.86-1.65,6.52-.33,7.66,2.77l14.66,39.81c.68,1.83-.07,3.89-1.76,4.87l-71.94,41.54c-3.08,1.78-6.77-1.02-5.9-4.46l14.28-56.53c.6-2.37,2.13-4.4,4.26-5.63Z"></path><polygon class="cls-20" points="789.97 617.01 599 506.75 631.47 488.01 822.44 598.26 789.97 617.01"></polygon><g><path class="cls-25" d="M677.33,520.63c-.77,.04-1.51-.08-2.24-.35l1.4,1.23-1.06,.61-9.8-5.66,3.26-1.88,1.99,1.15-1.19,.69,2.42,1.4c1.18,.68,2.1,1.11,2.79,1.29,.68,.18,1.25,.14,1.69-.12,.45-.26,.52-.56,.21-.92-.31-.36-1.06-.87-2.24-1.55l-7.79-4.5c-1.01-.58-1.8-.94-2.37-1.07-.57-.13-1.06-.08-1.48,.16-.41,.24-.53,.5-.35,.78,.19,.28,.69,.66,1.51,1.13l1.88,1.09-2.21,1.28-1.27-.74c-1.37-.79-2.32-1.48-2.86-2.08-.9-1-.58-1.94,.94-2.82,1.23-.71,2.55-.97,3.99-.79,1.43,.18,2.98,.75,4.64,1.7l7.81,4.51c1.85,1.07,2.94,2.02,3.29,2.85,.33,.83,.01,1.53-.96,2.09-.55,.32-1.21,.5-1.97,.54Z"></path><path class="cls-25" d="M661.51,524.36l-8.21-4.74c-1.62-.94-2.58-1.8-2.9-2.58-.3-.79,.14-1.53,1.35-2.22,2.32-1.34,5.13-1.06,8.42,.84l8.21,4.74c1.75,1.01,2.78,1.93,3.09,2.75,.32,.82-.13,1.58-1.32,2.27-1.19,.69-2.49,.94-3.9,.75-1.4-.19-2.98-.79-4.74-1.8Zm4.52-2.57l-8.38-4.84c-.84-.49-1.54-.79-2.1-.93-.55-.13-1.02-.08-1.43,.15-.4,.23-.48,.5-.23,.81,.25,.31,.81,.7,1.66,1.19l8.37,4.83c1.04,.6,1.83,.98,2.39,1.15,.56,.17,1.05,.13,1.49-.12,.43-.25,.51-.53,.23-.85-.28-.32-.94-.78-2-1.39Z"></path><path class="cls-25" d="M659.02,531.6l-2.33-1.34,2.99-1.73-15.63-9.03,2.37-1.37,17.96,10.37-5.36,3.1Z"></path><path class="cls-25" d="M654.25,534.35c-1.2,.69-2.47,.94-3.84,.76-1.37-.19-2.95-.8-4.76-1.85l-8.1-4.68c-1.51-.88-2.41-1.69-2.67-2.44-.26-.75,.18-1.45,1.32-2.11l3.49-2.02,17.96,10.37-3.41,1.97Zm-14.81-9.76l-.7,.4c-.48,.28-.62,.59-.43,.93,.2,.34,.76,.78,1.69,1.32l8.86,5.13c.87,.5,1.57,.79,2.09,.87,.52,.08,1.01-.02,1.44-.27l.78-.45-13.74-7.93Z"></path></g><g><path class="cls-25" d="M800.94,591.17l-3.76,2.17-1.28-.74,1.11-.64-5.54-3.2,1-.58c.71-.08,1.31-.2,2.09-.49l.98,.56-1.1,.64,3.94,2.27,1.28-.74,1.28,.74Z"></path><path class="cls-25" d="M794.36,595.12c-1.26,.73-3.35,.5-5.67-.84-2.32-1.34-2.66-2.51-1.4-3.24,1.26-.73,3.3-.53,5.62,.81,2.32,1.34,2.72,2.55,1.45,3.28Zm-1.22-.71c.46-.26,.33-.75-1.53-1.82-1.87-1.08-2.64-1.11-3.1-.85-.47,.27-.4,.71,1.47,1.79,1.86,1.07,2.69,1.15,3.16,.88Z"></path><path class="cls-25" d="M789.44,597.95c-1.26,.73-3.35,.5-5.67-.84-2.32-1.34-2.66-2.52-1.4-3.24,1.26-.73,3.3-.53,5.62,.81,2.32,1.34,2.72,2.54,1.45,3.27Zm-1.22-.71c.46-.27,.33-.75-1.52-1.83-1.87-1.08-2.65-1.11-3.1-.85-.46,.27-.4,.71,1.46,1.79,1.86,1.07,2.7,1.15,3.16,.88Z"></path><path class="cls-25" d="M784.53,600.79c-1.26,.73-3.35,.5-5.67-.84-2.32-1.34-2.66-2.51-1.4-3.24,1.27-.73,3.3-.53,5.62,.81,2.32,1.34,2.72,2.55,1.45,3.28Zm-1.22-.71c.46-.26,.33-.75-1.52-1.82-1.87-1.08-2.64-1.11-3.1-.85-.46,.27-.4,.71,1.47,1.79,1.86,1.07,2.69,1.15,3.16,.88Z"></path><path class="cls-25" d="M781.96,604.74c-1.58,.91-3.38,1.02-4.49,.39-.96-.55-.72-1.14,.41-1.79l.74-.43c.51-.3,.57-.48,.3-.63-.18-.11-.32-.13-.56-.13-.13,.16-.29,.29-.46,.38-1.01,.58-2.38,.72-3.6,0-.28-.16-.47-.35-.55-.49l-.73,.42-1.15-.66,1.68-.97c.12-.17,.33-.34,.58-.49,1-.57,2.55-.73,3.83,0,.62,.36,.83,.82,.77,1.16l.04,.02c.53-.03,1.13,.05,1.52,.28,.44,.25,.53,.52,.47,.77l.04,.03c.71-.09,1.3-.02,1.73,.24,.94,.54,.5,1.27-.58,1.9Zm-1.2-.45c.61-.35,.81-.71,.41-.94-.19-.11-.44-.16-.78-.16-.11,.11-.27,.23-.58,.41l-.47,.27c-.46,.27-.62,.46-.29,.65,.36,.21,1.1,.12,1.72-.24Zm-3.81-2.32c.36-.21,.33-.54-.26-.88-.57-.33-1.13-.34-1.49-.13-.36,.21-.33,.54,.23,.86,.59,.34,1.16,.36,1.52,.15Z"></path></g><polygon class="cls-25" points="664.09 540.89 690.65 525.56 685.85 522.79 659.29 538.12 664.09 540.89"></polygon></g><g><path class="cls-24" d="M501.26,562.29l38.75-22.37c2.86-1.65,6.52-.33,7.66,2.77l14.66,39.81c.68,1.84-.07,3.89-1.76,4.87l-71.94,41.54c-3.08,1.78-6.77-1.02-5.9-4.46l14.28-56.53c.6-2.37,2.13-4.4,4.26-5.63Z"></path><path class="cls-25" d="M562.34,582.5c.68,1.84-.07,3.89-1.76,4.87l-71.94,41.54c-3.08,1.78-6.77-1.02-5.9-4.46l14.28-56.53c10.67,1.32,65.33,14.58,65.33,14.58Z"></path><polygon class="cls-24" points="736.12 650.35 545 539.77 497.01 567.92 687.73 678.31 736.12 650.35"></polygon><polygon class="cls-25" points="675.49 739.34 687.73 678.31 497.01 567.92 484.1 628.54 675.49 739.34"></polygon><path class="cls-24" d="M691.99,672.68l38.75-22.37c2.86-1.65,6.52-.33,7.66,2.77l14.66,39.81c.68,1.84-.07,3.89-1.76,4.87l-71.94,41.54c-3.08,1.78-6.77-1.02-5.9-4.46l14.28-56.53c.6-2.37,2.13-4.4,4.26-5.63Z"></path><polygon class="cls-20" points="694.61 671.17 503.64 560.91 536.11 542.17 727.08 652.42 694.61 671.17"></polygon><g><path class="cls-25" d="M581.97,574.79c-.76,.04-1.51-.08-2.24-.35l1.4,1.23-1.06,.61-9.8-5.66,3.26-1.88,1.99,1.15-1.2,.69,2.42,1.4c1.18,.68,2.11,1.11,2.79,1.29,.68,.18,1.25,.14,1.69-.12,.45-.26,.52-.56,.21-.92-.3-.36-1.06-.87-2.23-1.55l-7.79-4.5c-1.01-.58-1.8-.94-2.37-1.07-.57-.13-1.06-.08-1.48,.16-.41,.24-.53,.5-.35,.78,.18,.28,.69,.65,1.51,1.13l1.88,1.09-2.21,1.28-1.28-.74c-1.37-.79-2.32-1.49-2.86-2.08-.9-1-.59-1.94,.94-2.82,1.23-.71,2.56-.97,3.99-.79,1.44,.18,2.98,.75,4.64,1.71l7.81,4.51c1.85,1.07,2.94,2.02,3.29,2.85,.33,.83,.02,1.53-.96,2.09-.55,.32-1.21,.5-1.97,.54Z"></path><path class="cls-25" d="M566.15,578.52l-8.21-4.74c-1.62-.94-2.58-1.8-2.9-2.58-.31-.79,.14-1.53,1.34-2.22,2.33-1.34,5.13-1.06,8.43,.84l8.21,4.74c1.75,1.01,2.78,1.93,3.09,2.75,.31,.82-.13,1.58-1.32,2.27-1.2,.69-2.49,.94-3.9,.76-1.41-.19-2.99-.79-4.74-1.8Zm4.52-2.57l-8.38-4.84c-.84-.49-1.54-.8-2.09-.93-.55-.13-1.03-.08-1.44,.15-.4,.24-.47,.5-.23,.81,.25,.31,.81,.7,1.66,1.2l8.37,4.83c1.04,.6,1.83,.98,2.39,1.15,.56,.17,1.05,.13,1.48-.12,.43-.25,.51-.54,.23-.85-.27-.32-.94-.78-2-1.39Z"></path><path class="cls-25" d="M563.66,585.76l-2.33-1.34,2.99-1.73-15.63-9.03,2.37-1.37,17.96,10.37-5.36,3.1Z"></path><path class="cls-25" d="M558.89,588.51c-1.2,.69-2.47,.94-3.84,.76-1.37-.19-2.95-.8-4.76-1.85l-8.1-4.68c-1.51-.88-2.41-1.69-2.67-2.43s.18-1.45,1.32-2.11l3.49-2.02,17.96,10.37-3.41,1.97Zm-14.81-9.76l-.7,.4c-.48,.28-.62,.59-.42,.93s.76,.78,1.69,1.32l8.86,5.13c.87,.5,1.57,.79,2.09,.87,.52,.07,1.01-.02,1.44-.27l.78-.45-13.74-7.93Z"></path></g><g><path class="cls-25" d="M705.58,645.33l-3.76,2.17-1.27-.74,1.11-.64-5.54-3.2,1-.58c.71-.07,1.31-.2,2.09-.49l.98,.56-1.1,.64,3.94,2.27,1.28-.74,1.27,.74Z"></path><path class="cls-25" d="M699,649.28c-1.26,.73-3.35,.5-5.67-.84-2.32-1.34-2.66-2.52-1.4-3.24,1.27-.73,3.3-.53,5.62,.81,2.32,1.34,2.72,2.54,1.45,3.27Zm-1.22-.71c.46-.26,.33-.75-1.53-1.82-1.87-1.08-2.64-1.11-3.1-.85-.46,.27-.4,.71,1.47,1.79,1.86,1.07,2.69,1.15,3.16,.88Z"></path><path class="cls-25" d="M694.08,652.11c-1.26,.73-3.35,.5-5.67-.84-2.32-1.34-2.66-2.52-1.4-3.24,1.26-.73,3.3-.53,5.62,.81,2.32,1.34,2.72,2.54,1.45,3.27Zm-1.22-.71c.46-.26,.34-.75-1.52-1.82-1.87-1.08-2.65-1.11-3.1-.85-.46,.27-.4,.72,1.46,1.79,1.86,1.07,2.7,1.15,3.16,.88Z"></path><path class="cls-25" d="M689.17,654.95c-1.26,.73-3.35,.5-5.67-.84-2.32-1.34-2.66-2.52-1.4-3.24,1.27-.73,3.3-.53,5.62,.81,2.32,1.34,2.72,2.54,1.45,3.27Zm-1.22-.71c.46-.26,.33-.75-1.52-1.82-1.87-1.08-2.64-1.11-3.1-.85-.46,.27-.39,.71,1.47,1.79,1.86,1.07,2.69,1.15,3.15,.88Z"></path><path class="cls-25" d="M686.6,658.9c-1.58,.91-3.38,1.02-4.49,.39-.96-.55-.73-1.14,.41-1.8l.74-.43c.51-.3,.57-.48,.3-.63-.18-.1-.32-.13-.56-.13-.13,.16-.28,.29-.46,.38-1.01,.58-2.38,.72-3.6,.01-.28-.16-.47-.35-.55-.49l-.73,.42-1.15-.66,1.68-.97c.11-.17,.32-.34,.58-.49,1-.57,2.55-.73,3.83,0,.63,.36,.84,.82,.77,1.16l.04,.02c.53-.03,1.13,.05,1.52,.28,.44,.25,.53,.52,.47,.77l.04,.02c.71-.09,1.29-.02,1.73,.24,.94,.54,.5,1.27-.58,1.9Zm-1.2-.45c.61-.35,.81-.72,.41-.94-.19-.11-.44-.15-.77-.16-.11,.11-.27,.23-.59,.41l-.47,.27c-.46,.26-.62,.46-.29,.65,.36,.21,1.1,.12,1.72-.24Zm-3.81-2.32c.37-.21,.34-.54-.25-.88-.57-.33-1.13-.34-1.5-.13-.36,.21-.33,.54,.23,.86,.59,.34,1.16,.36,1.52,.15Z"></path></g><polygon class="cls-25" points="568.73 595.06 595.29 579.72 590.49 576.95 563.93 592.28 568.73 595.06"></polygon></g></g><g><ellipse class="cls-16" cx="756.82" cy="413.6" rx="32.38" ry="56.09" transform="translate(-105.28 438.5) rotate(-30.31)"></ellipse><path class="cls-22" d="M774.67,466.13c-5.82,0-12.07-1.9-18.57-5.65-22.33-12.89-40.49-44.23-40.49-69.85,0-17.96,9.17-29.57,23.35-29.57,5.82,0,12.07,1.9,18.57,5.65,22.33,12.89,40.49,44.23,40.49,69.85,0,17.96-9.17,29.57-23.35,29.57Zm-35.71-102.23c-12.65,0-20.5,10.24-20.5,26.72,0,24.72,17.53,54.95,39.07,67.39,6.06,3.5,11.83,5.27,17.14,5.27,12.65,0,20.5-10.24,20.5-26.72,0-24.72-17.53-54.95-39.07-67.38-6.06-3.5-11.83-5.27-17.14-5.27Z"></path></g><path class="cls-22" d="M308.05,628.41h-.03c-2.8-.06-5.75-.6-8.77-1.61-.75-.25-1.15-1.06-.9-1.8,.25-.75,1.06-1.14,1.8-.9,2.75,.92,5.42,1.41,7.93,1.46,.78,.02,1.41,.67,1.39,1.45-.02,.78-.65,1.39-1.42,1.39Zm8.31-1.56c-.55,0-1.07-.32-1.3-.85-.31-.72,.01-1.56,.73-1.87,2.38-1.04,4.46-2.63,6.17-4.72,.5-.61,1.4-.7,2-.2,.61,.5,.7,1.39,.2,2-2,2.45-4.43,4.31-7.23,5.53-.19,.08-.38,.12-.57,.12Zm-24.4-3.53c-.24,0-.49-.06-.71-.19l-7.39-4.25c-.68-.39-.92-1.26-.53-1.95,.39-.68,1.27-.91,1.94-.52l7.39,4.25c.68,.39,.92,1.26,.53,1.95-.26,.46-.74,.71-1.23,.71Zm-14.78-8.51c-.24,0-.49-.06-.71-.19l-7.39-4.25c-.68-.39-.92-1.26-.53-1.95,.39-.68,1.27-.91,1.94-.52l7.39,4.25c.68,.39,.92,1.26,.53,1.95-.26,.46-.74,.71-1.23,.71Zm49.87-.57c-.15,0-.3-.02-.45-.07-.75-.25-1.15-1.05-.9-1.8,.8-2.41,1.32-5.11,1.53-8.01,.06-.78,.75-1.36,1.53-1.31,.78,.06,1.37,.74,1.31,1.53-.24,3.13-.8,6.05-1.67,8.69-.2,.6-.75,.98-1.35,.98Zm-64.64-7.93c-.24,0-.49-.06-.71-.19l-7.39-4.25c-.68-.39-.92-1.26-.53-1.94,.39-.68,1.27-.92,1.94-.52l7.39,4.25c.68,.39,.92,1.26,.53,1.94-.26,.46-.74,.71-1.23,.71Zm-14.77-8.51c-.24,0-.49-.06-.71-.19l-7.39-4.25c-.68-.39-.92-1.26-.53-1.95,.39-.69,1.27-.91,1.94-.52l7.39,4.25c.68,.39,.92,1.26,.53,1.95-.26,.46-.74,.71-1.23,.71Zm-14.78-8.51c-.24,0-.49-.06-.71-.19l-7.39-4.25c-.68-.39-.92-1.26-.53-1.95,.39-.68,1.27-.91,1.94-.52l7.39,4.25c.68,.39,.92,1.26,.53,1.95-.26,.46-.74,.71-1.23,.71Zm-14.78-8.5c-.24,0-.49-.06-.71-.19l-7.39-4.25c-.68-.39-.92-1.26-.53-1.94,.39-.68,1.27-.92,1.94-.52l7.39,4.25c.68,.39,.92,1.26,.53,1.94-.26,.46-.74,.71-1.23,.71Zm-14.77-8.51c-.24,0-.49-.06-.71-.19l-7.39-4.25c-.68-.39-.92-1.26-.53-1.95,.39-.68,1.27-.92,1.94-.52l7.39,4.25c.68,.39,.92,1.26,.53,1.95-.26,.46-.74,.71-1.23,.71Zm-14.78-8.5c-.24,0-.49-.06-.71-.19l-7.39-4.25c-.68-.39-.92-1.26-.53-1.94,.39-.69,1.27-.92,1.94-.52l7.39,4.25c.68,.39,.92,1.26,.53,1.94-.26,.46-.74,.71-1.23,.71Zm140.26,33.66c-.79,0-1.42-.64-1.42-1.42v-8.52c0-.79,.64-1.42,1.42-1.42s1.42,.64,1.42,1.42v8.52c0,.79-.64,1.42-1.42,1.42Zm-155.03-42.17c-.24,0-.49-.06-.71-.19l-7.39-4.25c-.68-.39-.92-1.26-.53-1.95,.39-.68,1.27-.91,1.94-.52l7.39,4.25c.68,.39,.92,1.26,.53,1.95-.26,.46-.74,.71-1.23,.71Zm-14.78-8.51c-.24,0-.49-.06-.71-.19l-7.39-4.25c-.68-.39-.92-1.26-.53-1.94,.39-.68,1.27-.91,1.94-.52l7.39,4.25c.68,.39,.92,1.26,.53,1.94-.26,.46-.74,.71-1.23,.71Zm169.81,33.62c-.79,0-1.42-.64-1.42-1.42v-8.52c0-.79,.64-1.42,1.42-1.42s1.42,.64,1.42,1.42v8.52c0,.79-.64,1.42-1.42,1.42Zm-184.59-42.13c-.24,0-.49-.06-.71-.19l-7.39-4.25c-.68-.39-.92-1.26-.53-1.94,.39-.68,1.27-.92,1.94-.52l7.39,4.25c.68,.39,.92,1.26,.53,1.94-.26,.46-.74,.71-1.23,.71Zm-14.78-8.51c-.24,0-.49-.06-.71-.19l-4.75-2.73c-.9-.52-1.79-1.07-2.66-1.64-.66-.43-.84-1.32-.41-1.97,.43-.66,1.32-.84,1.97-.41,.83,.55,1.67,1.07,2.52,1.56l4.74,2.73c.68,.39,.92,1.26,.53,1.94-.26,.46-.74,.71-1.23,.71Zm199.36,33.58c-.79,0-1.42-.64-1.42-1.42v-8.52c0-.79,.64-1.42,1.42-1.42s1.42,.64,1.42,1.42v8.52c0,.79-.64,1.42-1.42,1.42Zm-213.47-43.1c-.33,0-.67-.12-.94-.35-2.11-1.85-4.19-3.91-6.17-6.11-.53-.58-.48-1.49,.1-2.01,.58-.53,1.48-.48,2.01,.1,1.91,2.12,3.91,4.1,5.94,5.88,.59,.52,.65,1.42,.13,2.01-.28,.32-.68,.49-1.07,.49Zm213.47,26.05c-.79,0-1.42-.64-1.42-1.42v-8.52c0-.79,.64-1.42,1.42-1.42s1.42,.64,1.42,1.42v8.52c0,.79-.64,1.42-1.42,1.42Zm-224.89-38.65c-.44,0-.87-.2-1.15-.58-1.69-2.3-3.3-4.73-4.78-7.23-.4-.68-.18-1.55,.49-1.95,.68-.4,1.55-.18,1.95,.5,1.44,2.42,2.99,4.77,4.63,7,.46,.63,.33,1.53-.31,1.99-.26,.19-.55,.28-.84,.28Zm224.89,21.61c-.79,0-1.42-.64-1.42-1.42v-8.52c0-.79,.64-1.42,1.42-1.42s1.42,.64,1.42,1.42v8.52c0,.79-.64,1.42-1.42,1.42Zm-233.6-36.25c-.53,0-1.05-.3-1.29-.82-1.25-2.64-2.36-5.34-3.31-8.01-.26-.74,.13-1.55,.87-1.82,.73-.26,1.55,.12,1.82,.87,.91,2.58,1.99,5.18,3.2,7.74,.34,.71,.03,1.56-.68,1.9-.19,.09-.4,.14-.61,.14Zm233.6,19.2c-.79,0-1.42-.64-1.42-1.42v-8.52c0-.79,.64-1.42,1.42-1.42s1.42,.64,1.42,1.42v8.52c0,.79-.64,1.42-1.42,1.42Zm-239.26-35.25c-.65,0-1.23-.45-1.39-1.1-.68-2.91-1.15-5.8-1.41-8.6-.07-.78,.5-1.48,1.29-1.55,.78-.08,1.47,.5,1.55,1.29,.25,2.67,.7,5.43,1.35,8.22,.18,.77-.3,1.53-1.06,1.71-.11,.03-.22,.04-.32,.04Zm239.26,18.2c-.79,0-1.42-.64-1.42-1.42v-8.52c0-.79,.64-1.42,1.42-1.42s1.42,.64,1.42,1.42v8.52c0,.79-.64,1.42-1.42,1.42Zm0-17.05c-.79,0-1.42-.64-1.42-1.42v-8.52c0-.79,.64-1.42,1.42-1.42s1.42,.64,1.42,1.42v8.52c0,.79-.64,1.42-1.42,1.42Zm0-17.05c-.79,0-1.42-.64-1.42-1.42v-8.52c0-.79,.64-1.42,1.42-1.42s1.42,.64,1.42,1.42v8.52c0,.79-.64,1.42-1.42,1.42Zm-240.87-.96c-.79,0-1.42-.64-1.42-1.42v-8.52c0-.79,.64-1.42,1.42-1.42s1.42,.64,1.42,1.42v8.52c0,.79-.64,1.42-1.42,1.42Zm240.87-16.09c-.79,0-1.42-.64-1.42-1.42v-8.52c0-.79,.64-1.42,1.42-1.42s1.42,.64,1.42,1.42v8.52c0,.79-.64,1.42-1.42,1.42Zm-240.87-.96c-.79,0-1.42-.64-1.42-1.42v-8.52c0-.79,.64-1.42,1.42-1.42s1.42,.64,1.42,1.42v8.52c0,.79-.64,1.42-1.42,1.42Zm240.87-15.31c-.79,0-1.42-.64-1.42-1.42v-8.52c0-.79,.64-1.42,1.42-1.42s1.42,.64,1.42,1.42v8.52c0,.79-.64,1.42-1.42,1.42Zm-240.87-.96c-.79,0-1.42-.64-1.42-1.42v-8.52c0-.79,.64-1.42,1.42-1.42s1.42,.64,1.42,1.42v8.52c0,.79-.64,1.42-1.42,1.42Zm240.87-16.09c-.79,0-1.42-.64-1.42-1.42v-8.52c0-.79,.64-1.42,1.42-1.42s1.42,.64,1.42,1.42v8.52c0,.79-.64,1.42-1.42,1.42Zm-240.87-.96c-.79,0-1.42-.64-1.42-1.42v-8.52c0-.79,.64-1.42,1.42-1.42s1.42,.64,1.42,1.42v8.52c0,.79-.64,1.42-1.42,1.42Zm240.87-16.37c-.79,0-1.42-.64-1.42-1.42v-8.52c0-.79,.64-1.42,1.42-1.42s1.42,.64,1.42,1.42v8.52c0,.79-.64,1.42-1.42,1.42Zm-240.87-.96c-.79,0-1.42-.64-1.42-1.42v-8.52c0-.79,.64-1.42,1.42-1.42s1.42,.64,1.42,1.42v8.52c0,.79-.64,1.42-1.42,1.42Zm240.87-16.98c-.79,0-1.42-.64-1.42-1.42v-8.52c0-.79,.64-1.42,1.42-1.42s1.42,.64,1.42,1.42v8.52c0,.79-.64,1.42-1.42,1.42Zm-240.87-.96c-.79,0-1.42-.64-1.42-1.42v-8.52c0-.79,.64-1.42,1.42-1.42s1.42,.64,1.42,1.42v8.52c0,.79-.64,1.42-1.42,1.42Zm240.87-16.09c-.79,0-1.42-.64-1.42-1.42v-8.52c0-.79,.64-1.42,1.42-1.42s1.42,.64,1.42,1.42v8.52c0,.79-.64,1.42-1.42,1.42Zm-240.87-.96c-.79,0-1.42-.64-1.42-1.42v-8.52c0-.79,.64-1.42,1.42-1.42s1.42,.64,1.42,1.42v8.52c0,.79-.64,1.42-1.42,1.42Zm240.87-16.09c-.79,0-1.42-.64-1.42-1.42v-3.69c0-1.54-.08-3.12-.22-4.69-.07-.78,.5-1.48,1.29-1.55,.75-.07,1.47,.5,1.55,1.29,.15,1.66,.23,3.33,.23,4.95v3.69c0,.79-.64,1.42-1.42,1.42Zm-240.87-.96c-.79,0-1.42-.64-1.42-1.42v-8.52c0-.79,.64-1.42,1.42-1.42s1.42,.64,1.42,1.42v8.52c0,.79-.64,1.42-1.42,1.42Zm239.27-15.97c-.65,0-1.23-.44-1.39-1.1-.61-2.63-1.4-5.33-2.35-8.03-.26-.74,.13-1.56,.87-1.82,.73-.26,1.55,.13,1.82,.87,.98,2.79,1.8,5.6,2.44,8.33,.18,.77-.3,1.53-1.07,1.71-.11,.03-.21,.04-.32,.04Zm-239.27-1.08c-.79,0-1.42-.64-1.42-1.42v-8.52c0-.79,.64-1.42,1.42-1.42s1.42,.64,1.42,1.42v8.52c0,.79-.64,1.42-1.42,1.42Zm233.64-14.98c-.53,0-1.05-.3-1.29-.82-1.18-2.5-2.5-5-3.93-7.41-.4-.68-.18-1.55,.5-1.95,.68-.4,1.55-.18,1.95,.5,1.48,2.49,2.84,5.06,4.06,7.65,.34,.71,.03,1.56-.68,1.9-.19,.09-.4,.14-.61,.14Zm-233.64-2.07c-.79,0-1.42-.64-1.42-1.42v-8.52c0-.79,.64-1.42,1.42-1.42s1.42,.64,1.42,1.42v8.52c0,.79-.64,1.42-1.42,1.42Zm224.95-12.58c-.44,0-.87-.2-1.15-.58-1.68-2.29-3.45-4.48-5.28-6.51-.53-.58-.48-1.48,.1-2.01,.58-.53,1.48-.48,2.01,.11,1.89,2.1,3.73,4.36,5.46,6.73,.46,.64,.33,1.53-.31,1.99-.25,.19-.55,.28-.84,.28Zm-224.95-4.47c-.79,0-1.42-.64-1.42-1.42v-8.52c0-.79,.64-1.42,1.42-1.42s1.42,.64,1.42,1.42v8.52c0,.79-.64,1.42-1.42,1.42Zm213.53-8.15c-.33,0-.67-.12-.94-.35-2.16-1.9-4.38-3.6-6.6-5.07-.66-.43-.84-1.32-.4-1.97,.43-.66,1.32-.84,1.97-.4,2.34,1.54,4.66,3.33,6.91,5.31,.59,.52,.65,1.42,.13,2.01-.28,.32-.67,.48-1.07,.48Zm-213.53-8.9c-.79,0-1.42-.64-1.42-1.42v-8.52c0-.79,.64-1.42,1.42-1.42s1.42,.64,1.42,1.42v8.52c0,.79-.64,1.42-1.42,1.42Zm199.43-.63c-.24,0-.49-.06-.71-.19l-7.39-4.25c-.68-.39-.92-1.26-.53-1.95,.39-.68,1.27-.92,1.94-.52l7.39,4.25c.68,.39,.92,1.26,.53,1.95-.26,.46-.74,.71-1.23,.71Zm-14.77-8.51c-.24,0-.49-.06-.71-.19l-7.39-4.25c-.68-.39-.92-1.26-.53-1.95,.39-.68,1.27-.91,1.94-.52l7.39,4.25c.68,.39,.92,1.26,.53,1.95-.26,.46-.74,.71-1.23,.71Zm-184.66-7.91c-.79,0-1.42-.64-1.42-1.42v-8.52c0-.79,.64-1.42,1.42-1.42s1.42,.64,1.42,1.42v8.52c0,.79-.64,1.42-1.42,1.42Zm169.88-.59c-.24,0-.49-.06-.71-.19l-7.39-4.25c-.68-.39-.92-1.26-.53-1.94,.39-.68,1.27-.92,1.94-.52l7.39,4.25c.68,.39,.92,1.26,.53,1.94-.26,.46-.74,.71-1.23,.71Zm-14.78-8.51c-.24,0-.49-.06-.71-.19l-7.39-4.25c-.68-.39-.92-1.26-.53-1.95,.39-.68,1.27-.92,1.94-.52l7.39,4.25c.68,.39,.92,1.26,.53,1.95-.26,.46-.74,.71-1.23,.71Zm-155.1-7.95c-.79,0-1.42-.64-1.42-1.42v-8.52c0-.79,.64-1.42,1.42-1.42s1.42,.64,1.42,1.42v8.52c0,.79-.64,1.42-1.42,1.42Zm140.33-.55c-.24,0-.49-.06-.71-.19l-7.39-4.25c-.68-.39-.92-1.26-.53-1.94,.39-.68,1.27-.92,1.94-.52l7.39,4.25c.68,.39,.92,1.26,.53,1.94-.26,.46-.74,.71-1.23,.71Zm-14.78-8.51c-.24,0-.49-.06-.71-.19l-7.39-4.25c-.68-.39-.92-1.26-.53-1.95,.39-.68,1.27-.91,1.94-.52l7.39,4.25c.68,.39,.92,1.26,.53,1.95-.26,.46-.74,.71-1.23,.71Zm-125.55-7.99c-.79,0-1.42-.64-1.42-1.42v-8.52c0-.79,.64-1.42,1.42-1.42s1.42,.64,1.42,1.42v8.52c0,.79-.64,1.42-1.42,1.42Zm110.77-.51c-.24,0-.49-.06-.71-.19l-7.39-4.25c-.68-.39-.92-1.26-.53-1.95,.39-.68,1.27-.91,1.94-.52l7.39,4.25c.68,.39,.92,1.26,.53,1.95-.26,.46-.74,.71-1.23,.71Zm-14.78-8.5c-.24,0-.49-.06-.71-.19l-7.39-4.25c-.68-.39-.91-1.26-.52-1.94,.39-.68,1.26-.91,1.95-.52l7.39,4.25c.68,.39,.91,1.26,.52,1.94-.26,.46-.74,.71-1.23,.71Zm-96-8.04c-.79,0-1.42-.64-1.42-1.42v-5.11c0-1.21,.04-2.38,.13-3.52,.06-.79,.82-1.39,1.52-1.32,.78,.06,1.37,.74,1.32,1.52-.08,1.07-.12,2.17-.12,3.31v5.11c0,.79-.64,1.42-1.42,1.42Zm81.22-.47c-.24,0-.49-.06-.71-.19l-7.39-4.25c-.68-.39-.92-1.26-.53-1.95,.39-.68,1.27-.91,1.94-.52l7.39,4.25c.68,.39,.92,1.26,.53,1.95-.26,.46-.74,.71-1.23,.71Zm-14.78-8.51c-.24,0-.49-.06-.71-.19l-7.39-4.25c-.68-.39-.92-1.26-.53-1.95s1.27-.91,1.94-.52l7.39,4.25c.68,.39,.92,1.26,.53,1.95-.26,.46-.74,.71-1.23,.71Zm-64.74-7.9c-.15,0-.3-.02-.44-.07-.75-.25-1.15-1.05-.91-1.8,1-3.05,2.42-5.72,4.21-7.94,.49-.61,1.39-.71,2-.21,.61,.5,.71,1.39,.21,2-1.57,1.95-2.83,4.31-3.72,7.04-.2,.6-.75,.98-1.35,.98Zm49.96-.61c-.24,0-.49-.06-.71-.19l-7.39-4.25c-.68-.39-.92-1.26-.53-1.94,.39-.68,1.27-.92,1.94-.52l7.39,4.25c.68,.39,.92,1.26,.53,1.94-.26,.46-.74,.71-1.23,.71Zm-14.82-8.51c-.22,0-.44-.06-.66-.18l-.14-.08c-2.53-1.46-5.05-2.61-7.48-3.42-.75-.25-1.15-1.05-.9-1.8,.24-.75,1.06-1.15,1.8-.9,2.62,.87,5.31,2.1,8.01,3.65,.68,.39,.98,1.3,.59,1.98-.27,.47-.73,.75-1.22,.75Zm-24.49-3.52c-.54,0-1.07-.32-1.3-.85-.32-.72,0-1.56,.73-1.88,2.58-1.14,5.43-1.72,8.48-1.72h.43c.78,.02,1.41,.67,1.39,1.46-.02,.78-.65,1.39-1.42,1.39h-.38c-2.66,0-5.13,.49-7.34,1.47-.19,.08-.38,.12-.58,.12Z"></path><g><ellipse class="cls-16" cx="87.05" cy="332.17" rx="32.38" ry="56.09" transform="translate(-155.74 89.34) rotate(-30.31)"></ellipse><path class="cls-22" d="M104.9,384.7c-5.82,0-12.07-1.9-18.57-5.65-22.33-12.89-40.49-44.23-40.49-69.85,0-17.96,9.17-29.57,23.35-29.57,5.82,0,12.07,1.9,18.57,5.65,22.33,12.89,40.49,44.23,40.49,69.85,0,17.96-9.17,29.57-23.35,29.57Zm-35.71-102.23c-12.65,0-20.5,10.24-20.5,26.72,0,24.72,17.53,54.95,39.07,67.39,6.06,3.5,11.83,5.27,17.14,5.27,12.65,0,20.5-10.24,20.5-26.72,0-24.72-17.53-54.95-39.07-67.39-6.06-3.5-11.83-5.27-17.14-5.27Z"></path></g><g><path class="cls-8" d="M646.09,646.05l-370.97-213.47c-21.11-12.19-38.23-44.89-38.23-73.04V43.7c0-28.15,17.12-41.09,38.23-28.9l370.97,213.47c21.11,12.19,38.23,44.89,38.23,73.04v315.83c0,28.15-17.12,41.09-38.23,28.9Z"></path><path class="cls-41" d="M657.23,633.62l-377.65-217.29c-17.51-11.13-28.34-33.37-28.34-56.12V32.53c0-5.39,5.87-8.74,10.52-6.02,.54,.32,.97,.57,1.23,.72l378.09,217.6c20.85,12.02,28.34,33.37,28.34,56.13v326.63c0,5.78-6.25,9.41-11.28,6.54-.4-.23-.71-.41-.92-.53Z"></path><path class="cls-36" d="M641.09,244.84L262.99,27.24c-.26-.15-.69-.4-1.23-.72-4.65-2.72-10.52,.62-10.52,6.02V360.2c0,22.76,10.83,44.99,28.34,56.12l377.65,217.29c.21,.12,.52,.3,.92,.53,5.02,2.86,11.28-.76,11.28-6.54V300.97c0-22.76-7.5-44.11-28.34-56.13Zm23.92,382.76c0,1.93-1.62,3.12-3.13,3.12-.53,0-1.04-.14-1.53-.42l-378.55-217.81c-15.81-10.05-26.13-30.62-26.13-52.29V32.53c0-1.58,1.34-2.56,2.57-2.56,.44,0,.87,.12,1.28,.36l379.35,218.34c21.6,12.45,26.13,35.31,26.13,52.29v326.64Z"></path><path class="cls-60" d="M663.68,218.06L292.71,4.59c-8.35-4.82-16.08-5.71-22.37-3.28-.8,.31-18.22,10.43-18.97,10.85,0,0-.04,.02-.06,.03,6.53-3.17,14.8-2.58,23.8,2.62l370.97,213.47c21.11,12.19,38.23,44.89,38.23,73.04v315.83c0,17.57-6.67,29.21-16.81,32.52,.83,.05,1.86-.28,3.35-1.14,.48-.28,18.81-11.27,19.27-11.59,7.26-5.09,11.78-15.54,11.78-30V291.1c0-28.15-17.12-60.85-38.23-73.04Z"></path><path class="cls-16" d="M647.92,227.36L276.95,13.89c-8.66-5-16.62-5.71-23.03-2.94,5.47-.87,11.75,.46,18.44,4.32l370.97,213.47c21.11,12.19,38.23,44.89,38.23,73.04v315.83c0,16.61-5.98,27.86-15.2,31.84,11.79-1.87,19.79-13.99,19.79-33.22V300.4c0-28.15-17.12-60.85-38.23-73.04Z"></path></g><g><path class="cls-22" d="M264.16,49.62c0,2.96-.15,407.85-.18,446.87,0,21.21,.01,57.12,.01,57.4,0,14.25-9.14,31.3-21.06,40.25,20.42,11.79,290.27,165.37,325.13,185.49h30.59c0,13.53,0,24.7,0,24.86,0,9.81,6.78,15.96,13.36,17.27,.03,0,.07,.01,.1,.02,.55,.11,1.11,.16,1.69,.2,.37,.02,.75,.02,1.14,.01,.26,0,.53,0,.8-.02,3.04-.22,6.4-1.3,9.93-3.34,3.76-2.17,7.31-5.21,10.5-8.77,3.96-3.63,6.82-8.04,8.9-13.2,3.37-6.8,5.39-14.11,5.39-20.8,0-.12,.12-2.55,.12-9.34,0-1.64,.11-494.98,.11-496.62L264.16,49.62Z"></path><path class="cls-41" d="M264.16,136.38l386.52,220.28c0-77.44,.02-96.19,.02-88.79L264.16,47.57c0-4.82-.15,248.99-.18,288.01,0,10.15,0,23.65,0,35.01,.04-62.05,.17-280.58,.17-234.22Z"></path><path class="cls-12" d="M545.16,633.57c0,.35,2.21,1.94,5.72,4.25v-1.03c-3.51-2-5.72-3.25-5.72-3.22Z"></path><g><g class="cls-48"><path class="cls-18" d="M203.38,72.14c29.09,19.5,58.04,23.65,82.84,11.9l.32,.21c22.89,43.03,50.84,76.19,79.95,94.86l1.11,.71-3.89,65.5c-9.04,97.29-38.66,103.43-87.17,137.35l-1.13-.74c-44.03-94.61-71.9-138.45-73.9-242.98l.75-67.56,1.11,.75Z"></path><path class="cls-1" d="M202.99,73.72s1.09,.73,1.1,.73c28.8,19.2,57.45,23.29,82.34,11.94,22.65,42.48,50.25,75.27,79.02,93.85,0,0,1.09,.7,1.1,.71,.05,.04-.45,9.29-.4,9.33l-3.29,55.37c-8.95,96.29-38.16,102.58-86.17,136.12,0,0-1.11-.7-1.11-.7-1.1-2.24-2.19-4.44-3.27-6.62-2.29-4.88-4.53-9.63-6.73-14.26-37.89-79.85-61.44-124.22-63.31-219.55,0-.1,.15-14.19,.15-14.29l.58-52.62Z"></path><path class="cls-6" d="M203.7,76.04s1.08,.72,1.09,.72c28.51,18.89,56.86,22.92,81.52,11.77,22.41,41.94,49.67,74.35,78.08,92.84,.01,.01,1.07,.69,1.08,.7,.1,.09-.33,9.08-.24,9.16l-3.25,54.74c-8.86,95.29-37.65,101.73-85.17,134.88-.02,.01-1.09-.67-1.1-.66-1.11-2.13-2.22-4.23-3.31-6.31-2.27-4.83-4.49-9.54-6.67-14.12-37.58-79.19-60.85-123.14-62.74-217.43,0-.2,.14-13.94,.13-14.16l.58-52.12Z"></path><path class="cls-7" d="M204.42,78.37s1.06,.7,1.08,.71c28.22,18.58,56.27,22.55,80.69,11.6,22.17,41.39,49.08,73.43,77.15,91.83,.02,.02,1.05,.68,1.07,.7,.15,.13-.22,8.86-.07,8.98l-3.22,54.11c-8.77,94.3-37.15,100.88-84.17,133.64-.02,.02-1.07-.64-1.09-.62-1.12-2.03-2.24-4.03-3.35-6-2.25-4.79-4.45-9.44-6.6-13.98-37.27-78.53-60.26-122.05-62.17-215.32-.01-.31,.12-13.7,.12-14.02l.57-51.62Z"></path><path class="cls-3" d="M205.13,80.69s1.04,.68,1.07,.7c27.93,18.27,55.68,22.19,79.86,11.42,21.93,40.84,48.5,72.5,76.22,90.81,.03,.02,1.03,.67,1.05,.69,.19,.17-.1,8.65,.09,8.81l-3.18,53.48c-8.68,93.3-36.65,100.03-83.17,132.4-.03,.02-1.05-.6-1.08-.58-1.13-1.93-2.26-3.82-3.39-5.69-2.23-4.74-4.41-9.35-6.54-13.85-36.95-77.86-59.67-120.97-61.61-213.21-.02-.41,.11-13.45,.1-13.88l.57-51.11Z"></path><path class="cls-54" d="M205.85,83.01s1.02,.67,1.06,.69c27.64,17.97,55.08,21.82,79.04,11.25,21.69,40.29,47.92,71.58,75.29,89.8,.03,.03,1.01,.66,1.04,.69,.24,.21,.01,8.44,.26,8.64l-3.14,52.85c-8.59,92.3-36.15,99.18-82.17,131.16-.04,.03-1.03-.57-1.07-.54-1.15-1.82-2.29-3.62-3.42-5.38-2.2-4.69-4.36-9.26-6.48-13.71-36.64-77.2-59.08-119.88-61.04-211.09-.02-.51,.1-13.21,.09-13.75l.56-50.61Z"></path><path class="cls-58" d="M206.56,85.33s1,.65,1.05,.68c27.35,17.66,54.49,21.46,78.21,11.08,21.45,39.75,47.33,70.66,74.35,88.79,.04,.04,.98,.65,1.02,.69,.29,.26,.13,8.22,.42,8.46l-3.1,52.22c-8.5,91.31-35.64,98.33-81.17,129.92-.05,.03-1.01-.54-1.06-.5-1.16-1.72-2.31-3.41-3.46-5.07-2.18-4.64-4.32-9.16-6.41-13.57-36.33-76.54-58.49-118.8-60.48-208.98-.03-.61,.09-12.97,.07-13.61l.56-50.1Z"></path><path class="cls-57" d="M207.27,87.66c.06,.03,.98,.64,1.04,.67,27.06,17.35,53.9,21.09,77.38,10.91,21.21,39.2,46.75,69.74,73.42,87.78,.05,.04,.96,.64,1.01,.68,.34,.3,.24,8.01,.58,8.29l-3.07,51.59c-8.41,90.31-35.14,97.48-80.18,128.68-.06,.04-.99-.5-1.05-.47-1.17-1.62-2.34-3.21-3.5-4.77-2.16-4.6-4.28-9.07-6.35-13.44-36.02-75.88-57.9-117.71-59.91-206.87-.03-.71,.07-12.72,.06-13.47l.55-49.6Z"></path><path class="cls-86" d="M207.99,89.98c.07,.03,.97,.62,1.03,.66,26.77,17.05,53.31,20.72,76.56,10.74,20.97,38.65,46.17,68.81,72.49,86.77,.05,.05,.94,.63,1,.68,.39,.34,.36,7.8,.75,8.12l-3.03,50.97c-8.32,89.32-34.64,96.63-79.18,127.45-.06,.04-.97-.47-1.04-.43-1.18-1.51-2.36-3-3.54-4.46-2.14-4.55-4.23-8.98-6.29-13.3-35.71-75.21-57.31-116.63-59.34-204.76-.03-.82,.06-12.48,.04-13.34l.54-49.1Z"></path><path class="cls-85" d="M208.7,92.3c.07,.04,.95,.61,1.02,.65,26.49,16.74,52.72,20.36,75.73,10.57,20.73,38.1,45.58,67.89,71.55,85.76,.06,.05,.92,.62,.98,.67,.44,.38,.47,7.58,.91,7.94l-2.99,50.34c-8.23,88.32-34.13,95.78-78.18,126.21-.07,.05-.95-.44-1.03-.39-1.19-1.41-2.38-2.79-3.58-4.15-2.12-4.5-4.19-8.88-6.22-13.16-35.4-74.55-56.72-115.55-58.78-202.64-.04-.92,.05-12.23,.03-13.2l.54-48.59Z"></path><path class="cls-84" d="M209.42,94.62c.08,.04,.93,.59,1.01,.63,26.2,16.43,52.12,19.99,74.91,10.4,20.49,37.56,45,66.97,70.62,84.75,.07,.06,.9,.61,.97,.67,.49,.43,.59,7.37,1.08,7.77l-2.95,49.71c-8.14,87.32-33.63,94.93-77.18,124.97-.08,.05-.93-.4-1.01-.35-1.2-1.31-2.41-2.59-3.61-3.84-2.1-4.45-4.15-8.79-6.16-13.02-35.09-73.89-56.13-114.46-58.21-200.53-.04-1.02,.04-11.99,.01-13.06l.53-48.09Z"></path><path class="cls-82" d="M210.13,96.95c.09,.05,.91,.58,1,.62,25.91,16.12,51.53,19.62,74.08,10.23,20.25,37.01,44.42,66.04,69.69,83.74,.07,.07,.88,.6,.95,.66,.53,.47,.7,7.16,1.24,7.6l-2.92,49.08c-8.05,86.33-33.13,94.08-76.18,123.73-.09,.06-.92-.37-1-.31-1.22-1.2-2.43-2.38-3.65-3.53-2.07-4.4-4.11-8.7-6.09-12.89-34.78-73.23-55.54-113.38-57.64-198.42-.05-1.12,.02-11.74,0-12.93l.53-47.58Z"></path><path class="cls-91" d="M210.85,99.27c.1,.05,.89,.56,.99,.61,25.62,15.82,50.94,19.26,73.25,10.06,20.01,36.46,43.83,65.12,68.75,82.73,.08,.07,.86,.59,.94,.66,.58,.51,.82,6.94,1.4,7.42l-2.88,48.45c-7.96,85.33-32.62,93.23-75.18,122.49-.1,.06-.9-.33-.99-.27-1.23-1.1-2.46-2.18-3.69-3.22-2.05-4.36-4.06-8.6-6.03-12.75-34.47-72.56-54.95-112.29-57.08-196.3-.05-1.22,.01-11.5-.01-12.79l.52-47.08Z"></path><path class="cls-89" d="M211.56,101.59c.11,.05,.87,.55,.98,.6,25.33,15.51,50.35,18.89,72.43,9.89,19.76,35.91,43.25,64.2,67.82,81.71,.09,.08,.83,.58,.92,.65,.63,.55,.93,6.73,1.57,7.25l-2.84,47.82c-7.87,84.33-32.12,92.38-74.18,121.25-.1,.07-.88-.3-.98-.23-1.24-1-2.48-1.97-3.73-2.92-2.03-4.31-4.02-8.51-5.97-12.61-34.16-71.9-54.36-111.21-56.51-194.19-.05-1.33,0-11.26-.03-12.65l.52-46.58Z"></path><path class="cls-88" d="M212.28,103.91c.12,.06,.86,.53,.97,.59,25.04,15.2,49.75,18.52,71.6,9.72,19.52,35.37,42.66,63.28,66.89,80.7,.09,.08,.81,.57,.91,.65,.68,.6,1.05,6.52,1.73,7.08l-2.8,47.19c-7.78,83.34-31.62,91.53-73.18,120.02-.11,.07-.86-.27-.97-.19-1.25-.89-2.51-1.76-3.77-2.61-2.01-4.26-3.98-8.42-5.9-12.47-33.84-71.24-53.77-110.12-55.94-192.08-.06-1.43-.01-11.01-.04-12.52l.51-46.07Z"></path><path class="cls-87" d="M212.99,106.24c.12,.06,.84,.52,.96,.58,24.75,14.9,49.16,18.16,70.77,9.54,19.28,34.82,42.08,62.35,65.95,79.69,.1,.09,.79,.56,.89,.64,.73,.64,1.16,6.3,1.9,6.9l-2.77,46.56c-7.69,82.34-31.11,90.68-72.18,118.78-.12,.08-.84-.23-.96-.15-1.26-.79-2.53-1.56-3.8-2.3-1.99-4.21-3.93-8.32-5.84-12.34-33.53-70.58-53.17-109.04-55.38-189.96-.06-1.53-.03-10.77-.06-12.38l.51-45.57Z"></path><path class="cls-53" d="M213.71,108.56c.13,.07,.82,.5,.95,.57,24.46,14.59,48.57,17.79,69.95,9.37,19.04,34.27,41.5,61.43,65.02,78.68,.11,.09,.77,.55,.88,.64,.78,.68,1.28,6.09,2.06,6.73l-2.73,45.93c-7.6,81.35-30.61,89.83-71.18,117.54-.13,.08-.82-.2-.95-.12-1.27-.69-2.55-1.35-3.84-1.99-1.97-4.17-3.89-8.23-5.78-12.2-33.22-69.91-52.58-107.95-54.81-187.85-.07-1.63-.04-10.52-.07-12.24l.5-45.06Z"></path><path class="cls-68" d="M214.42,110.88c.14,.07,.8,.49,.94,.56,24.17,14.28,47.98,17.43,69.12,9.2,18.8,33.72,40.91,60.51,64.09,77.67,.11,.1,.75,.53,.86,.63,.83,.72,1.39,5.88,2.22,6.56l-2.69,45.31c-7.5,80.35-30.11,88.98-70.18,116.3-.14,.09-.8-.17-.94-.08-1.29-.58-2.58-1.15-3.88-1.68-1.94-4.12-3.85-8.14-5.71-12.06-32.91-69.25-51.99-106.87-54.24-185.74-.07-1.73-.05-10.28-.09-12.11l.49-44.56Z"></path><path class="cls-69" d="M215.14,113.2c.15,.07,.78,.47,.93,.54,23.88,13.97,47.39,17.06,68.3,9.03,18.56,33.18,40.33,59.59,63.16,76.66,.12,.11,.73,.52,.85,.63,.87,.77,1.51,5.66,2.39,6.38l-2.65,44.68c-7.41,79.35-29.6,88.13-69.18,115.06-.14,.1-.78-.13-.93-.04-1.3-.48-2.6-.94-3.92-1.38-1.92-4.07-3.81-8.04-5.65-11.93-32.6-68.59-51.4-105.78-53.68-183.62-.08-1.84-.06-10.03-.1-11.97l.49-44.06Z"></path><path class="cls-66" d="M215.85,115.53c.16,.08,.76,.46,.92,.53,23.6,13.67,46.79,16.69,67.47,8.86,18.32,32.63,39.75,58.66,62.22,75.65,.13,.11,.71,.51,.83,.63,.92,.81,1.62,5.45,2.55,6.21l-2.62,44.05c-7.32,78.36-29.1,87.28-68.18,113.82-.15,.1-.76-.1-.91,0-1.31-.38-2.63-.74-3.95-1.07-1.9-4.02-3.76-7.95-5.59-11.79-32.29-67.93-50.81-104.7-53.11-181.51-.08-1.94-.07-9.79-.12-11.83l.48-43.55Z"></path><path class="cls-67" d="M216.57,117.85c.16,.08,.75,.44,.91,.52,23.31,13.36,46.2,16.33,66.64,8.69,18.08,32.08,39.16,57.74,61.29,74.64,.13,.12,.68,.5,.82,.62,.97,.85,1.74,5.24,2.72,6.04l-2.58,43.42c-7.23,77.36-28.6,86.43-67.18,112.58-.16,.11-.74-.07-.9,.04-1.32-.27-2.65-.53-3.99-.76-1.88-3.97-3.72-7.86-5.52-11.65-31.98-67.26-50.22-103.61-52.54-179.4-.08-2.04-.09-9.55-.13-11.7l.48-43.05Z"></path><path class="cls-93" d="M217.28,120.17c.17,.09,.73,.43,.9,.51,23.02,13.05,45.61,15.96,65.82,8.52,17.84,31.53,38.58,56.82,60.36,73.63,.14,.12,.66,.49,.8,.62,1.02,.89,1.85,5.03,2.88,5.87l-2.54,42.79c-7.14,76.36-28.09,85.57-66.18,111.35-.17,.11-.72-.03-.89,.08-1.33-.17-2.67-.32-4.03-.45-1.86-3.93-3.68-7.76-5.46-11.51-31.67-66.6-49.63-102.53-51.98-177.28-.09-2.14-.1-9.3-.14-11.56l.47-42.55Z"></path><path class="cls-64" d="M218,122.49c.18,.09,.71,.41,.89,.5,22.73,12.75,45.02,15.59,64.99,8.35,17.6,30.99,38,55.89,59.42,72.62,.15,.13,.64,.48,.79,.61,1.07,.94,1.97,4.81,3.04,5.69l-2.51,42.16c-7.05,75.37-27.59,84.72-65.18,110.11-.18,.12-.7,0-.88,.12-1.34-.07-2.7-.12-4.07-.14-1.84-3.88-3.63-7.67-5.39-11.38-31.36-65.94-49.04-101.44-51.41-175.17-.09-2.24-.11-9.06-.16-11.42l.47-42.04Z"></path><path class="cls-80" d="M218.71,124.81c.19,.09,.69,.4,.88,.49,22.44,12.44,44.43,15.23,64.16,8.18,17.36,30.44,37.41,54.97,58.49,71.6,.15,.14,.62,.47,.77,.61,1.12,.98,2.08,4.6,3.21,5.52l-2.47,41.53c-6.96,74.37-27.09,83.87-64.18,108.87-.18,.12-.68,.04-.87,.16-1.35,.03-2.72,.09-4.11,.17-1.81-3.83-3.59-7.58-5.33-11.24-31.05-65.28-48.45-100.36-50.84-173.06-.1-2.35-.12-8.81-.17-11.29l.46-41.54Z"></path><path class="cls-81" d="M219.43,127.14c.2,.1,.67,.38,.87,.48,22.15,12.13,43.83,14.86,63.34,8.01,17.12,29.89,36.83,54.05,57.56,70.59,.16,.14,.6,.46,.76,.6,1.17,1.02,2.2,4.39,3.37,5.35l-2.43,40.9c-6.87,73.37-26.58,83.02-63.18,107.63-.19,.13-.67,.07-.86,.2-1.37,.14-2.75,.29-4.14,.47-1.79-3.78-3.55-7.48-5.27-11.1-30.73-64.61-47.86-99.27-50.28-170.95-.1-2.45-.14-8.57-.19-11.15l.46-41.03Z"></path><path class="cls-78" d="M220.14,129.46c.21,.1,.65,.37,.86,.47,21.86,11.82,43.24,14.5,62.51,7.83,16.88,29.34,36.25,53.13,56.62,69.58,.17,.15,.58,.45,.75,.6,1.21,1.06,2.31,4.17,3.54,5.17l-2.39,40.28c-6.78,72.38-26.08,82.17-62.19,106.39-.2,.13-.65,.1-.85,.24-1.38,.24-2.77,.5-4.18,.78-1.77-3.73-3.5-7.39-5.2-10.96-30.42-63.95-47.27-98.19-49.71-168.83-.1-2.55-.15-8.32-.2-11.01l.45-40.53Z"></path><path class="cls-79" d="M220.85,131.78c.21,.11,.64,.35,.85,.46,21.57,11.52,42.65,14.13,61.69,7.66,16.64,28.8,35.66,52.2,55.69,68.57,.17,.15,.56,.44,.73,.59,1.26,1.11,2.43,3.96,3.7,5l-2.36,39.65c-6.69,71.38-25.58,81.32-61.19,105.15-.21,.14-.63,.14-.84,.27-1.39,.34-2.8,.71-4.22,1.09-1.75-3.69-3.46-7.3-5.14-10.83-30.11-63.29-46.68-97.11-49.14-166.72-.11-2.65-.16-8.08-.22-10.88l.44-40.03Z"></path><path class="cls-75" d="M221.57,134.1c.22,.11,.62,.34,.84,.44,21.28,11.21,42.06,13.76,60.86,7.49,16.4,28.25,35.08,51.28,54.76,67.56,.18,.16,.54,.43,.72,.59,1.31,1.15,2.54,3.75,3.86,4.83l-2.32,39.02c-6.6,70.39-25.08,80.47-60.19,103.92-.22,.14-.61,.17-.83,.31-1.4,.45-2.82,.91-4.26,1.4-1.73-3.64-3.42-7.2-5.08-10.69-29.8-62.63-46.09-96.02-48.58-164.61-.11-2.75-.17-7.84-.23-10.74l.44-39.52Z"></path><path class="cls-76" d="M222.28,136.43c.23,.11,.6,.32,.83,.43,20.99,10.9,41.47,13.4,60.03,7.32,16.16,27.7,34.49,50.36,53.82,66.55,.19,.17,.51,.42,.7,.58,1.36,1.19,2.66,3.53,4.03,4.65l-2.28,38.39c-6.51,69.39-24.57,79.62-59.19,102.68-.22,.15-.59,.2-.81,.35-1.41,.55-2.84,1.12-4.3,1.71-1.7-3.59-3.38-7.11-5.01-10.55-29.49-61.96-45.5-94.94-48.01-162.49-.12-2.86-.19-7.59-.25-10.6l.43-39.02Z"></path><path class="cls-71" d="M223,138.75c.24,.12,.58,.31,.82,.42,20.71,10.6,40.87,13.03,59.21,7.15,15.92,27.15,33.91,49.43,52.89,65.54,.19,.17,.49,.41,.69,.58,1.41,1.23,2.77,3.32,4.19,4.48l-2.24,37.76c-6.42,68.39-24.07,78.77-58.19,101.44-.23,.15-.57,.24-.8,.39-1.42,.65-2.87,1.32-4.33,2.02-1.68-3.54-3.33-7.02-4.95-10.42-29.18-61.3-44.91-93.85-47.45-160.38-.12-2.96-.2-7.35-.26-10.47l.43-38.51Z"></path><path class="cls-73" d="M223.71,141.07c.25,.12,.56,.29,.81,.41,20.42,10.29,40.28,12.66,58.38,6.98,15.68,26.61,33.33,48.51,51.96,64.53,.2,.18,.47,.4,.67,.57,1.46,1.28,2.89,3.11,4.36,4.31l-2.21,37.13c-6.33,67.4-23.57,77.92-57.19,100.2-.24,.16-.55,.27-.79,.43-1.44,.76-2.89,1.53-4.37,2.32-1.66-3.5-3.29-6.92-4.89-10.28-28.87-60.64-44.32-92.77-46.88-158.27-.13-3.06-.21-7.1-.28-10.33l.42-38.01Z"></path><path class="cls-94" d="M224.43,143.39c.26,.13,.54,.28,.8,.4,20.13,9.98,39.69,12.3,57.55,6.81,15.44,26.06,32.74,47.59,51.02,63.52,.21,.18,.45,.39,.66,.57,1.51,1.32,3,2.89,4.52,4.13l-2.17,36.5c-6.24,66.4-23.06,77.07-56.19,98.96-.25,.16-.53,.3-.78,.47-1.45,.86-2.92,1.73-4.41,2.63-1.64-3.45-3.25-6.83-4.82-10.14-28.56-59.98-43.73-91.68-46.31-156.15-.13-3.16-.22-6.86-.29-10.19l.42-37.51Z"></path><path class="cls-31" d="M224.73,182.72c1.41,70.36,16.35,101.73,46.05,164.1,1.55,3.27,3.14,6.6,4.76,10,1.77-1.18,3.51-2.32,5.22-3.45,32.63-21.5,49.04-32.32,55.19-97.72l2.13-35.87c-19.9-16.24-38.73-39.01-55.42-67.03-17.86,5.36-37.4,2.98-57.52-7.03l-.41,37Z"></path></g><path class="cls-35" d="M350.8,201c-30.58-17.3-60.47-46.81-85.53-84.41l-.34-.2c-25.05,8.67-54.95,3.66-85.53-14.35l-1.17-.69-13.07,12,.84,.49c30.58,18.01,60.47,23.02,85.53,14.35l.34,.2c25.06,37.6,54.95,67.11,85.53,84.41l1.17,.66-1.65,55.23c-3.79,53.43-17.98,73.54-40.89,88.36,28.63-16.91,50.02-40.11,54.28-100.16l1.65-55.23-1.17-.66Z"></path><path class="cls-35" d="M351.97,201.66l-1.17-.66c-30.58-17.3-60.47-46.81-85.53-84.41l-.34-.2-13.39,11.8,.34,.2c25.06,37.6,54.95,67.11,85.53,84.41l1.17,.66,13.39-11.8Z"></path><path class="cls-28" d="M245.67,342.25c-37.74-62.6-56.72-94.09-61.3-162.8l-1.04-36.07c24.23,10.96,47.46,14.45,68.39,10.28,20.92,28.33,44.15,51.66,68.38,68.68l-1.04,34.86c-4.58,63.43-23.56,73-61.31,92.03-1.97,1-3.98,2.01-6.03,3.05-2.06-3.41-4.07-6.76-6.05-10.04Z"></path><path class="cls-13" d="M164.85,113.16l1.65,57.13c5.8,88.56,36.01,127.11,84.62,209.44l1.18,.68c48.62-26.2,78.82-29.87,84.62-111.73l1.65-55.23-1.17-.66c-30.58-17.3-60.47-46.81-85.53-84.41l-.34-.2c-25.06,8.67-54.95,3.66-85.53-14.35l-1.17-.69Zm18.48,30.23c24.23,10.95,47.46,14.45,68.39,10.28,20.92,28.33,44.15,51.66,68.38,68.68l-1.04,34.86c-4.58,63.43-23.56,73-61.31,92.03-1.97,1-3.98,2.01-6.03,3.05-2.06-3.41-4.07-6.76-6.05-10.04-37.74-62.6-56.72-94.09-61.3-162.8l-1.04-36.07Z"></path><g><path class="cls-19" d="M280.77,244.09l-.71-.41v-20.25c0-12.97-9.16-28.78-20.47-35.31l-14.12-8.15c-11.3-6.53-20.47-1.3-20.47,11.67v20.25l-.71-.41c-5.26-3.04-9.53-.61-9.53,5.43v47.9c0,6.04,4.27,13.4,9.53,16.43l56.47,32.6c5.26,3.04,9.53,.61,9.53-5.43v-47.9c0-6.04-4.27-13.4-9.53-16.44Zm-24.7,23.89v15.71l-7.06-4.08v-15.71c-2.81-3.15-4.76-7.55-4.76-11.35,0-5.26,3.71-7.37,8.29-4.73,4.58,2.64,8.29,9.05,8.29,14.31,0,3.81-1.95,5.95-4.76,5.85Zm12.13-31.15l-31.31-18.08v-16.2c0-7.38,5.21-10.35,11.65-6.64l8.02,4.63c6.43,3.71,11.65,12.71,11.65,20.09v16.2Z"></path><g class="cls-5"><path class="cls-59" d="M239.26,195.86c-2.38,1.07-3.89,3.75-3.89,7.7v16.2l31.31,18.08v-1.88l-29.8-17.21v-16.2c0-3.03,.89-5.31,2.38-6.69Z"></path><path class="cls-49" d="M254.56,284.7v-1.88l-5.55-3.2v-15.71c-2.81-3.15-4.76-7.55-4.76-11.35,0-1.97,.52-3.5,1.42-4.5-1.78,.72-2.93,2.62-2.93,5.51,0,3.81,1.95,8.21,4.76,11.35v15.71l7.06,4.08Z"></path><path class="cls-50" d="M280.77,244.09l-.71-.41v-20.25c0-12.97-9.16-28.78-20.47-35.31l-14.12-8.15c-6.38-3.68-12.07-3.62-15.82-.54,3.69-2.01,8.74-1.67,14.31,1.55l14.12,8.15c11.3,6.53,20.47,22.33,20.47,35.31v20.25l.71,.41c5.26,3.04,9.53,10.4,9.53,16.44v47.9c0,2.41-.69,4.23-1.83,5.37,2.04-.83,3.34-3.05,3.34-6.38v-47.9c0-6.04-4.27-13.4-9.53-16.44Z"></path><path class="cls-51" d="M222.79,212.5l.71,.41v-1.83c-2.83-1.36-5.31-1.1-6.89,.48,1.66-.67,3.82-.42,6.19,.94Z"></path></g></g><path class="cls-4" d="M338.61,211.94c-30.58-17.3-60.47-46.81-85.53-84.41l-.34-.2c-25.05,8.67-54.95,3.66-85.53-14.35l-1.17-.69,.08,2.85c30.3,17.63,59.89,22.49,84.73,13.9l.34,.2c25.06,37.6,54.95,67.11,85.53,84.41l1.17,.66-1.65,55.23c-3.02,42.59-12.66,64-28.04,78.44,16.49-14.46,26.79-35.85,29.93-80.15l1.65-55.23-1.17-.66Z"></path><path class="cls-33" d="M184.52,143.9l.39,13.49c.38,5.79,.46,13.59,1.05,18.98l.12,4.07c4.58,68.71,23.98,97.96,61.72,160.56,1.97,3.28,3.99,6.63,6.05,10.04,1.64-.83,3.24-1.64,4.83-2.44,.03,.04,.05,.08,.08,.13-.33,.17-.66,.33-.99,.5-1.97,1-3.98,2.01-6.03,3.05-2.06-3.41-4.07-6.76-6.05-10.04-37.74-62.6-56.72-94.09-61.3-162.8l-1.04-36.07c.4,.18,.8,.34,1.2,.52Z"></path></g><g><g><g class="cls-47"><path class="cls-10" d="M243.97,333.18c-19.39-11.19-35.11-2.23-35.11,20.02v204.77c0,22.25,15.72,49.36,35.11,60.55l363.63,202.05c19.39,11.19,9.21-12.92,9.21-35.17v-204.77c0-22.25-23.49-48.13-42.88-59.32L243.97,333.18Z"></path><path class="cls-55" d="M245.39,336.13c-19.36-11.18-35.06-2.23-35.06,19.99v186.06c0,22.22,15.7,65.07,35.06,76.26l358.16,199.6c19.36,11.18,11.52-11.54,11.52-33.76v-186.06c0-22.22-22.76-63.96-42.13-75.14L245.39,336.13Z"></path><path class="cls-56" d="M246.8,339.07c-19.34-11.17-35.02-2.23-35.02,19.97v167.34c0,22.19,15.68,80.79,35.02,91.96l352.68,197.14c19.34,11.17,13.83-10.17,13.83-32.36v-167.34c0-22.19-22.04-79.78-41.38-90.95L246.8,339.07Z"></path><path class="cls-83" d="M248.21,342.02c-19.32-11.15-34.97-2.22-34.97,19.94v148.62c0,22.16,15.66,96.51,34.97,107.66l347.21,194.69c19.32,11.15,16.14-8.79,16.14-30.96v-148.62c0-22.16-21.31-95.61-40.62-106.76L248.21,342.02Z"></path><path class="cls-90" d="M249.62,344.97c-19.29-11.14-34.93-2.22-34.93,19.92v129.9c0,22.14,15.64,112.22,34.93,123.36l341.74,192.23c19.29,11.14,18.45-7.42,18.45-29.56v-129.9c0-22.14-20.58-111.44-39.87-122.58L249.62,344.97Z"></path><path class="cls-70" d="M251.04,347.91c-19.27-11.12-34.89-2.22-34.89,19.89v111.18c0,22.11,15.62,127.94,34.89,139.06l336.26,189.77c19.27,11.12,20.76-6.04,20.76-28.15v-111.18c0-22.11-19.86-127.27-39.12-138.39L251.04,347.91Z"></path><path class="cls-65" d="M252.45,350.86c-19.24-11.11-34.84-2.22-34.84,19.86v92.46c0,22.08,15.6,143.65,34.84,154.76l330.79,187.32c19.24,11.11,23.07-4.67,23.07-26.75v-92.46c0-22.08-19.13-143.09-38.37-154.2L252.45,350.86Z"></path><path class="cls-92" d="M253.86,353.81c-19.22-11.1-34.8-2.21-34.8,19.84v73.74c0,22.05,15.58,159.37,34.8,170.46l325.32,184.86c19.22,11.1,25.38-3.3,25.38-25.35v-73.74c0-22.05-18.4-158.92-37.62-170.02L253.86,353.81Z"></path><path class="cls-77" d="M255.28,356.75c-19.19-11.08-34.75-2.21-34.75,19.81v55.02c0,22.02,15.56,175.08,34.75,186.16l319.84,182.41c19.19,11.08,27.69-1.92,27.69-23.95v-55.02c0-22.02-17.68-174.75-36.87-185.83L255.28,356.75Z"></path><path class="cls-74" d="M256.69,359.7c-19.17-11.07-34.71-2.21-34.71,19.79v36.3c0,22,15.54,190.8,34.71,201.87l314.37,179.95c19.17,11.07,30-.55,30-22.54v-36.3c0-22-16.95-190.58-36.12-201.64l-308.25-177.42Z"></path><path class="cls-72" d="M258.1,362.65c-19.14-11.05-34.66-2.2-34.66,19.76v17.58c0,21.97,15.52,206.51,34.66,217.57l308.9,177.5c19.14,11.05,32.31,.83,32.31-21.14v-17.58c0-21.97-16.23-206.4-35.37-217.46l-305.84-176.23Z"></path><path class="cls-34" d="M259.52,365.59c-19.12-11.04-34.62-2.2-34.62,19.74v-1.14c0,21.94,15.5,222.23,34.62,233.27l303.42,175.04c19.12,11.04,34.62,2.2,34.62-19.74v1.14c0-21.94-15.5-222.23-34.62-233.27l-303.42-175.04Z"></path></g><path class="cls-34" d="M601.11,804.49c0-.31,0-215.52,.01-235.62-.42-3.34-.68-5.35-.68-5.41-.54-14.86-11.42-20.68-24.78-12.97-13.34,7.7-24.22,26.07-24.77,41.55,0,.14,0,183.26-.01,195.83,14.12,8.05,58.56,33.43,58.56,33.32,0-.08,0-.19,0-.27-5.1-2.27-8.33-7.97-8.33-16.42Z"></path></g><path class="cls-22" d="M209.04,330.31c-4.52-4.41-11.76-4.79-19.94-.06-13.34,7.7-24.22,26.07-24.77,41.55,0,.06-.01,7.21-.01,9.1l-.04-.03c0,2.96-.17,230.76-.17,231.04,0,14.25-9.14,31.3-21.06,40.25,20.42,11.79,290.27,165.37,325.13,185.49,0,0,5.53,5.29,8.27,5.91,.15,.11,15.71,7.64,24.78,12.04,0,4.19,0,6.82,0,6.9,0,9.81,4.32,15.96,10.9,17.27,.03,0,.07,.01,.1,.02,.55,.11,1.11,.16,1.69,.2,.37,.02,.75,.02,1.14,.01,.26,0,.53,0,.8-.02,3.04-.22,6.4-1.3,9.93-3.34,3.76-2.17,7.31-5.21,10.5-8.77,3.96-3.63,6.82-8.04,8.9-13.2,3.37-6.8,5.39-14.11,5.39-20.8,0-.12,.18-2.63,.18-5.66,0-1.43,.09-168.76,.11-231.99,0-.08,.03-.18,.03-.26,0-2.43,0-3.9,0-3.96,.55-15.47,11.43-33.84,24.77-41.55,5.46-3.15,10.49-4.01,14.59-2.94L209.04,330.31Z"></path></g><g><polygon class="cls-29" points="329.12 534.62 329.12 527.95 277.91 498.95 277.91 505.62 329.12 534.62"></polygon><polygon class="cls-29" points="191.55 383.39 191.55 390.06 346.59 478.42 346.59 471.75 191.55 383.39"></polygon><polygon class="cls-29" points="295.09 492.42 191.55 432.84 191.55 439.52 295.09 499.09 295.09 492.42"></polygon><polygon class="cls-29" points="268.88 460.76 191.55 416.32 191.55 422.99 268.88 467.43 268.88 460.76"></polygon><polygon class="cls-29" points="275.45 464.55 275.45 471.22 425.56 556.55 425.56 549.88 275.45 464.55"></polygon><polygon class="cls-29" points="301.66 496.21 301.66 502.89 377.59 546.38 377.59 539.71 301.66 496.21"></polygon><polygon class="cls-29" points="384.16 550.17 480.63 604.64 480.63 597.97 384.16 543.5 384.16 550.17"></polygon><polygon class="cls-29" points="271.34 495.16 191.55 449.29 191.55 455.96 271.34 501.83 271.34 495.16"></polygon><polygon class="cls-29" points="335.69 538.41 388.11 568.32 388.11 561.64 335.69 531.74 335.69 538.41"></polygon></g><g><polygon class="cls-29" points="510.38 373.35 510.38 366.67 459.18 337.68 459.18 344.35 510.38 373.35"></polygon><polygon class="cls-29" points="372.82 239 372.82 245.67 527.86 334.03 527.86 327.36 372.82 239"></polygon><polygon class="cls-29" points="476.36 331.15 372.82 271.57 372.82 278.24 476.36 337.82 476.36 331.15"></polygon><polygon class="cls-29" points="450.14 299.49 372.82 255.04 372.82 261.71 450.14 306.16 450.14 299.49"></polygon><polygon class="cls-29" points="456.71 303.28 456.71 309.95 606.83 395.27 606.83 388.6 456.71 303.28"></polygon><polygon class="cls-29" points="482.92 334.94 482.92 341.61 558.86 385.1 558.86 378.43 482.92 334.94"></polygon><polygon class="cls-29" points="565.42 388.89 606.34 412.1 606.34 405.43 565.42 382.22 565.42 388.89"></polygon><polygon class="cls-29" points="452.61 333.88 372.82 288.02 372.82 294.69 452.61 340.56 452.61 333.88"></polygon><polygon class="cls-29" points="516.95 377.14 569.37 407.04 569.37 400.37 516.95 370.47 516.95 377.14"></polygon></g><g><polygon class="cls-29" points="510.38 459.98 510.38 453.31 459.18 424.31 459.18 430.98 510.38 459.98"></polygon><polygon class="cls-29" points="476.36 417.78 372.82 358.21 372.82 364.88 476.36 424.45 476.36 417.78"></polygon><polygon class="cls-29" points="450.14 386.12 372.82 341.68 372.82 348.35 450.14 392.79 450.14 386.12"></polygon><polygon class="cls-29" points="456.71 389.91 456.71 396.59 606.83 481.91 606.83 475.24 456.71 389.91"></polygon><polygon class="cls-29" points="482.92 421.57 482.92 428.25 558.86 471.74 558.86 465.07 482.92 421.57"></polygon><polygon class="cls-29" points="565.42 475.53 606.34 498.73 606.34 492.06 565.42 468.86 565.42 475.53"></polygon><polygon class="cls-29" points="452.61 420.52 372.82 374.65 372.82 381.32 452.61 427.19 452.61 420.52"></polygon><polygon class="cls-29" points="516.95 463.77 569.37 493.68 569.37 487 516.95 457.1 516.95 463.77"></polygon></g><path class="cls-34" d="M502.72,863.27c0-4.89,1.12-10.12,3.07-15.22L114.88,625.17l-3.58-2c-1.91,5.05-3.01,10.22-3.01,15.05,0,8.28,4.63,13.96,8.81,16.22l392.22,224-.47-.4c-3.8-2.67-6.13-7.73-6.13-14.77Z"></path><g><g><polygon class="cls-29" points="368.06 728.51 330.9 707.18 330.9 713.85 368.06 735.18 368.06 728.51"></polygon><polygon class="cls-29" points="408.23 737.76 330.9 693.31 330.9 699.99 408.23 744.43 408.23 737.76"></polygon><polygon class="cls-29" points="294.86 687.77 191.33 628.2 191.33 634.87 294.86 694.44 294.86 687.77"></polygon><polygon class="cls-29" points="268.65 658.78 191.33 614.33 191.33 621.01 268.65 665.45 268.65 658.78"></polygon><polygon class="cls-29" points="374.63 732.3 374.63 738.97 450.56 782.46 450.56 775.79 374.63 732.3"></polygon></g><path class="cls-29" d="M265.93,568.13c-1.27-4.59-4.03-8.58-7.69-11.63l-1.58,2.56c3.38,2.98,5.5,6.66,6.38,9.86,1.61,5.82,.71,11.86-.58,17.79-1.9-3.54-2.72-7.41-2.36-11.2,.65-1.23,.93-2.57,.66-4.05-.13-.69-.71-1.19-1.4-1.23-.84-.08-1.32,.42-1.51,1.09-.3,1.07-.52,2.15-.66,3.24-1.1,1.73-3.4,3.4-5.65,5.03-.75,.55-1.49,1.08-2.18,1.62-3.14,2.43-5.64,5.39-7.44,8.74-1.22-1.5-2.43-2.94-3.61-4.3-2.45-2.85-4.99-5.67-7.53-8.5-5.31-5.92-10.71-11.93-15.37-18.18-.49-3.06-1.18-6.27-2.07-9.67-.67-2.54-2.69-10.25-10.32-12.07-.51-.12-1.08,.04-1.45,.44-.37,.4-.5,.96-.33,1.47,2.35,7.44,6.42,14.38,11.32,21.02,1.08,7.21,.97,13.5-.3,19.33-1.34,6.16-4.12,11.79-8.03,16.59l1.65,2.76c4.58-5.34,7.79-11.72,9.31-18.72,1.04-4.78,1.35-9.82,.92-15.36,3.94,4.91,8.22,9.68,12.44,14.38,2.53,2.82,5.05,5.63,7.49,8.46,1.46,1.68,2.97,3.48,4.48,5.38-1.68,4.32-2.29,9.13-1.74,14.16,1.01,9.15,5.39,17.7,9.62,25.97,2.07,4.04,5.06,6.28,8.31,6.28,.33,0,.66-.02,1-.07,.61-.08,1.1-.53,1.25-1.13,4.08-16.73-5.26-33.15-14.98-45.66,1.62-3.47,4.06-6.52,7.21-8.96,.67-.52,1.39-1.03,2.11-1.56,1.28-.93,2.62-1.9,3.8-2.94,.36,4.33,2.01,8.61,4.84,12.36,.35,.46,.93,.67,1.51,.57,.57-.12,1.02-.56,1.15-1.13,1.62-7.05,3.46-15.04,1.34-22.74Zm-60.73-26.76c2.41,1.58,4.1,4.42,5.23,8.69,.24,.92,.47,1.82,.68,2.71-2.36-3.7-4.38-7.49-5.91-11.4Zm51.09,95.01c-2.59-.26-4.35-2.93-5.22-4.63-4.11-8.03-8.37-16.33-9.31-24.93-.43-3.87-.09-7.59,.96-11,8.66,11.48,16.56,26,13.58,40.56Z"></path><path class="cls-29" d="M348.05,680.66c1.27,4.59,4.03,8.58,7.69,11.63l1.58-2.56c-3.38-2.98-5.5-6.66-6.38-9.86-1.61-5.82-.71-11.86,.58-17.79,1.9,3.54,2.71,7.41,2.36,11.2-.65,1.23-.93,2.57-.66,4.05,.13,.69,.71,1.19,1.4,1.23,.84,.08,1.32-.42,1.51-1.09,.3-1.07,.52-2.15,.66-3.24,1.1-1.73,3.4-3.4,5.65-5.03,.75-.55,1.49-1.08,2.18-1.62,3.14-2.43,5.64-5.39,7.44-8.74,1.22,1.5,2.43,2.94,3.61,4.3,2.45,2.85,4.99,5.67,7.53,8.5,5.31,5.92,10.71,11.93,15.37,18.18,.49,3.06,1.18,6.27,2.07,9.67,.67,2.54,2.69,10.25,10.32,12.07,.51,.12,1.08-.04,1.45-.44,.37-.4,.5-.96,.33-1.47-2.34-7.44-6.42-14.38-11.32-21.02-1.08-7.21-.97-13.5,.3-19.33,1.34-6.16,4.12-11.79,8.03-16.59l-1.65-2.76c-4.58,5.34-7.79,11.72-9.31,18.72-1.04,4.78-1.35,9.82-.92,15.36-3.94-4.91-8.22-9.68-12.44-14.38-2.53-2.82-5.05-5.63-7.49-8.46-1.46-1.68-2.97-3.48-4.48-5.38,1.68-4.32,2.29-9.13,1.74-14.16-1.01-9.15-5.39-17.7-9.62-25.97-2.07-4.04-5.06-6.28-8.31-6.28-.33,0-.66,.02-1,.07-.61,.08-1.1,.53-1.25,1.13-4.08,16.73,5.26,33.15,14.98,45.66-1.63,3.47-4.06,6.52-7.21,8.96-.67,.52-1.39,1.03-2.11,1.56-1.28,.93-2.62,1.9-3.8,2.94-.36-4.33-2.01-8.61-4.84-12.36-.35-.46-.93-.67-1.51-.57-.57,.12-1.02,.56-1.15,1.13-1.62,7.05-3.46,15.04-1.34,22.74Zm60.73,26.76c-2.41-1.58-4.1-4.42-5.23-8.69-.24-.92-.47-1.82-.68-2.71,2.36,3.7,4.38,7.49,5.91,11.4Zm-51.09-95.01c2.59,.26,4.35,2.93,5.22,4.63,4.11,8.03,8.37,16.33,9.31,24.93,.43,3.87,.09,7.59-.96,11-8.66-11.48-16.56-26-13.58-40.56Z"></path></g></g><g><g><path class="cls-39" d="M678.75,875.39c4.3,7.99,1.32,17.95-6.67,22.25-7.99,4.3-17.95,1.32-22.25-6.67-4.3-7.99-1.32-17.95,6.67-22.25,7.99-4.3,17.95-1.32,22.25,6.67Z"></path><path class="cls-39" d="M613.61,748.19l-35.56,19.16,66.21,121.77h0s.05,.09,.07,.14c3.08,5.72,13.54,6.06,23.36,.77,9.82-5.29,15.28-14.22,12.2-19.93-.03-.05-.06-.09-.08-.14h0s-66.21-121.77-66.21-121.77Z"></path><path class="cls-41" d="M613.65,748.26c3.08,5.72-2.38,14.64-12.2,19.93s-20.28,4.94-23.36-.77,2.38-14.64,12.2-19.93c9.82-5.29,20.28-4.94,23.36,.77Z"></path><path class="cls-35" d="M592.73,727.12l-21.15,11.4,12.63,23.02h0s.03,.06,.04,.09c1.83,3.4,8.05,3.61,13.89,.46,5.84-3.15,9.09-8.46,7.26-11.86-.02-.03-.03-.05-.05-.08h0s-12.63-23.02-12.63-23.02Z"></path></g><g><g class="cls-9"><g class="cls-61"><ellipse class="cls-52" cx="516.65" cy="628.4" rx="74.52" ry="129.08" transform="translate(-246.52 346.65) rotate(-30.31)"></ellipse></g></g><path class="cls-40" d="M530.24,728.1c-52.72-30.44-95.46-104.16-95.46-164.65,0-24.3,6.9-42.77,18.57-54.2-22.22,7.23-36.49,30.12-36.49,65.08,0,60.5,42.74,134.21,95.46,164.65,31.54,18.21,59.51,16.8,76.89-.23-16.23,5.28-36.71,2.2-58.97-10.65Z"></path><path class="cls-40" d="M532.57,508.35c-25.92-14.97-49.43-16.68-66.64-7.37-.48,.26-25.17,14.04-25.95,15.23,17.51-13.21,43.42-13,72.34,3.69,52.72,30.44,95.46,104.16,95.46,164.65,0,30.87-11.13,52.32-29.03,61.9,1.28-.35,2.8-1.01,4.66-2.05,.51-.28,17.34-10.48,17.84-10.79,16.58-10.13,26.78-31.06,26.78-60.61,0-60.5-42.74-134.21-95.46-164.65Z"></path><path class="cls-43" d="M512.32,519.9c-52.72-30.44-95.46-6.07-95.46,54.43s42.74,134.21,95.46,164.65c52.72,30.44,95.46,6.07,95.46-54.43s-42.74-134.21-95.46-164.65Zm-.67,211.82c-48.67-28.1-88.13-96.16-88.13-152.01s39.46-78.35,88.13-50.25c48.67,28.1,88.13,96.16,88.13,152.01s-39.46,78.35-88.13,50.25Z"></path><path class="cls-63" d="M516.9,517.61c-25.27-14.59-48.23-16.56-65.31-8.02,15.92-4.45,39.33-2.04,60.73,10.31,52.72,30.44,95.46,104.16,95.46,164.65,0,31.5-15.27,54.09-33.81,63.36,23.3-6.52,38.39-29.71,38.39-65.65,0-60.5-42.74-134.21-95.46-164.65Z"></path></g></g><g><polygon class="cls-41" points="48.82 556.23 54.34 592.56 52.04 624.9 42.69 605.74 48.82 556.23"></polygon><g><polygon class="cls-37" points="59.29 599.31 59.29 630.03 62.97 627.9 62.97 597.07 59.29 599.31"></polygon><polygon class="cls-43" points="59.31 599.31 59.31 630.03 21.95 608.55 21.95 577.73 59.31 599.31"></polygon><polygon class="cls-37" points="21.95 577.73 59.31 599.31 62.97 597.07 25.58 575.52 21.95 577.73"></polygon></g><path class="cls-21" d="M90,687.54c-.2,2.5-1.14,4.85-1.81,6.24-.76,1.58-1.02,3.39-1.86,3.1-.84-.3,.24-7.64,.24-7.64l3.42-1.7Z"></path><path class="cls-11" d="M48.67,622.14c1.99,.77,2.45,1.69,3.07,2.91s1.53,2.61,1.53,2.61c0,0-1.23-.15-2.61-.46-1.38-.31-5.67-2.3-5.67-2.3l3.68-2.76Z"></path><path class="cls-26" d="M29.23,546.35c-4.35,.93-9.68,.25-5.71,11.59,3.17,9.07,.21,54.03,2.67,71.05,.61,4.25,10.42,5.42,10.42,5.42,0,0,11.89-39.75,11.78-51.69-.11-11.94-6.01-32.71-6.01-32.71l-13.14-3.66Z"></path><path class="cls-30" d="M36.1,561.21l1.53-1.84-2.99-2.76-.69-.08-2.3,3.76,1.92,1.15,2.53,38.01,1.84,18.91s2.91-8.33,2.91-19.06c0-11.5-4.75-38.09-4.75-38.09Z"></path><path class="cls-37" d="M32.27,719.23l-.53,3.04c-.25,1.44,.47,2.88,1.78,3.54,.63,.32,1.26,.61,1.7,.75,1.22,.39,9.33,5.44,12.73,6.11,3.66,.73,6.23-.44,6.28-1.5,.06-1.06-.89-2.78-4.22-4.95-3.34-2.17-6.17-7.45-6.17-7.45l-11.56,.44Z"></path><path class="cls-37" d="M31.99,722.68c.5,.61,5.17,1.44,7.63,3.33,2.6,2,6.87,4.98,9.75,5.48,2.63,.45,4.65-.86,4.4-1.87-.36-1.45-2.77-2.77-4.88-4.39-2.11-1.61-4.39-5.34-4.39-5.34l-12-.78-.5,3.56Z"></path><path class="cls-30" d="M45.81,621.63s3.17,48.34,3.17,52.93c0,2.91-4.22,41.56-4.6,45.01-.38,3.45-12.26,2.91-12.19-.54,.06-2.61,1.07-40.31,1.07-40.31l-10.35-50.35,1.84-5.11,21.05-1.63Z"></path><path class="cls-46" d="M33.26,678.73s-1.02,37.71-1.07,40.31c-.03,1.28,1.58,2.15,3.64,2.57l5.48-45.06-10.12-49.82-8.28,1.63,10.35,50.35Z"></path><path class="cls-37" d="M6.22,732.14l-.07,3.28c-.02,1.1,.4,2.17,1.18,2.95l1.06,1.06s2.21,3.39,6.58,6.21c3.76,2.44,8.32,1.85,9.43,.96,1.11-.89,1.11-1.72-1.67-5.45-2.78-3.72-6.78-9.12-6.78-9.12l-9.73,.11Z"></path><path class="cls-37" d="M6.51,735.07s4.05,3.74,5.45,5.93c2.11,3.31,7.67,5.85,11.34,4.63,3.67-1.22-1.28-5.06-2.28-6.73-1-1.67-3.84-5.84-3.84-5.84l-10.84-.11,.17,2.11Z"></path><path class="cls-30" d="M28.45,623.76s-10.17,106.9-10.89,109.6c-.61,2.3-11.19,2.3-11.34-1.69-.17-4.29-2.65-88.3-3.13-92.6-1.16-10.35-.24-16.95-.24-16.95l25.6,1.63Z"></path><path class="cls-46" d="M14.65,624.73l-11.83-2.37c-.15,1.23-.77,7.46,.27,16.71,.48,4.3,2.97,88.32,3.13,92.6,.05,1.33,1.28,2.21,2.9,2.71l5.53-109.66Z"></path><path class="cls-16" d="M21.44,551.18c-.2,3.36,4.44,9.08,8.52,11.1,.21,.1,4.45-5.44,4.45-5.44,0,0,5.18,4.32,5.21,4.22,1.53-4.68,1.33-5.83,1.51-8.68,.19-3.13-4.06-5.93-9.5-6.26s-10,1.94-10.19,5.06Z"></path><path class="cls-11" d="M83.33,615.54s-8.13-1.6-11.55-.31c-3.42,1.29-9.2,5.92-9.36,7.57-.14,1.47,4.12,3.8,6.85,3.3,2.73-.51,3.07-.88,5.26-1.13,2.2-.25,6.63-1.25,8.28-1.95,1.65-.69,.52-7.49,.52-7.49Z"></path><path class="cls-41" d="M38.04,545.22s5.26,.15,9.08,4.05c2.75,2.8,3.28,12.83,3.32,16.17,.04,3.34-.37,41.59-.88,49.89-.4,6.57-.78,12.92-1,16.49-.26,4.28-8.15,6.15-8.97,3.95-.82-2.2,.7-20.48,1.72-27.64,.84-5.86,1.18-38.95,.51-53.85-.31-6.85-3.78-9.06-3.78-9.06Z"></path><path class="cls-41" d="M27.69,546.28s-6.46,1.41-4.93,6.27c1.53,4.87,5.94,13.06,9.05,24.57,3.58,13.24,2.92,53.26,.71,60.04-1.49,4.59-33.07,5.07-32.51-4.11,.17-2.87,1.85-65.49,3.38-70.25,2.03-6.35,11.82-10.68,18.16-13.98,2.03-1.06,3.94-2.04,6.14-2.55Z"></path><path class="cls-41" d="M6.82,614.65s3.46,1,7.04,1.68,7.88,1.35,7.88,1.35c0,0,.11,4.22-1.93,4.51-2.05,.29-12.84-1.4-13.6-2.6-.76-1.2,.61-4.93,.61-4.93Z"></path><path class="cls-11" d="M58.36,610.41s1.92,1.5,3.39,1.64c1.47,.13,6.39-.05,8,.51,1.53,.53,6.33,1.97,6.46,3.26,.13,1.29-1.63,.44-3.03,.24-1.4-.2-3.71-.37-3.71-.37,0,0,2.84,2.95,4.59,3.93,1.75,.98,4.57,1.48,5.04,2.47,.47,.99-.14,1.93-1.56,2.92-2.15,1.49-3.93,1.01-5.77,1.08-3.21,.12-6.91-1.18-8.39-2.41-1.48-1.23-5.68-4.54-6.62-5.1-.94-.56-4.36-1.84-4.36-1.84l5.7-6.47,.25,.14Z"></path><path class="cls-45" d="M77.54,625.01c1.43-.99,2.03-1.93,1.56-2.92-.08-.17-.23-.32-.43-.46-1.17,1.49-4.96,2.27-7.32,1.75-2.5-.56-8.97-4.89-10.85-6.69-.96-.92-4.1-2.1-6.94-3.03l-1.16,3.1s3.42,1.28,4.36,1.84c.94,.56,5.13,3.87,6.62,5.1,1.48,1.23,5.19,2.53,8.39,2.41,1.84-.07,3.61,.42,5.77-1.08Z"></path><path class="cls-27" d="M82.85,615.01s-1.96,1.54-1.84,4.58c.12,3.04,1.43,4.52,1.43,4.52l30.94,2.47s23.1,3.01,22.94-6.51c-.15-9.08-6.34-9.23-20.03-6.98-13.69,2.25-33.45,1.92-33.45,1.92Z"></path><path class="cls-44" d="M65.1,617.16c-.48,.55-.2,1.81,1.4,1.94,1.6,.14,5.07-.24,6.39-.24s7.75-2.5,7.75-2.5l-15.54,.8Z"></path><path class="cls-11" d="M72.54,614.69c-1.62,.74-4.04,1.01-5.35,1.53-1.31,.52-2.39,.07-2.75,.61-.37,.55-.3,2.12,2.9,1.72,3.19-.4,5.01-.7,6.87-.45,1.86,.25,5.48,.53,6.25-.42,.77-.95-.4-2.44-.4-2.44l-7.51-.54Z"></path><path class="cls-11" d="M62.41,623.22c-.32-.6,2.82-.48,3.77-.12,.94,.36,4.23,1.68,5.01,2.18,.55,.35,1.29,.92-.73,1.04-3.87,.23-6.89-.94-8.04-3.11Z"></path><path class="cls-11" d="M39.76,537.42c.27-2.04-2.34-4.09-5.85-4.59-3.5-.5-6.58,.75-6.89,2.78h0s-3.31,14.77-3.31,14.79c-.35,2.46,2.79,4.94,7.01,5.54,4.22,.6,7.93-.91,8.28-3.37,0-.02,.76-15.15,.76-15.15h0Z"></path><path class="cls-44" d="M28.59,542.94c-.69-2.22-1.06-5.59-.73-8.79,1.2-1.11,3.5-1.68,6.05-1.31,3.5,.5,6.11,2.55,5.85,4.59h0s-.76,15.13-.76,15.15c-.08,.54-.34,1.02-.71,1.46-4.57-1.79-8.49-7.24-9.7-11.1Z"></path><path class="cls-11" d="M44.74,527.02c3.03,5.61,.36,23.93-5.42,23.98-5.79,.05-11.27-7.01-12.73-11.7-1.46-4.69-1.51-14.55,3.54-16.95,5.05-2.4,11.54-1.02,14.62,4.67Z"></path><path class="cls-32" d="M20.62,592.25l-11.19-32.04-4.46-.36c-.7,.93-1.25,1.91-1.58,2.95C1.86,567.56,.18,630.18,0,633.05c-.23,3.74,5.35,5.96,12.15,6.96l-1.04-39.8s5.67,12.26,7.82,13.18c1,.43,27.25,10.4,30.05,11.47,.18-2.9,.37-6.19,.58-9.53,.05-.9,.11-2.17,.16-3.68l-29.1-19.4Z"></path><path class="cls-42" d="M142.86,772.96s.74,2.83,.17,4.02c-.57,1.19-3.17,2.15-5.27,1.13-2.1-1.02-3-3.17-3.8-3.74-.79-.57-5.27-1.08-8.61-3.91-3.34-2.83-2.89-5.95,.45-6.01,3.34-.06,9.41,1.47,11.56,2.89,2.15,1.42,5.5,5.61,5.5,5.61Z"></path><path class="cls-37" d="M141.28,776.02c-2.4,.5-5.44-1.59-6.86-2.78s-3.91-.57-7.14-3.12c-3.23-2.55-4.36-4.31-2.89-5.16,1.47-.85,6.84-.61,11.03,1.66s6.99,3.89,6.99,3.89c0,0,1.02,3.12,.51,3.8-.51,.68-.28,1.42-1.64,1.7Z"></path><path class="cls-30" d="M138.87,661.44s3.89,2.3,3.26,11.41c-.18,2.54,1.09,100.38,1.09,100.38,0,0-3.58,1.31-5.23,.71-2.29-.84-5.82-3.65-5.82-3.65l-14.46-101.52,21.16-7.33Z"></path><path class="cls-42" d="M114.07,782.22s1.35,3.63-.31,4.41c-1.65,.78-4.22,1.23-6.3,.39-2.08-.84-2.94-1.67-5.14-1.67s-10.77-3.85-12.42-5.75c-1.65-1.9,0-4.07,4.1-3.8,4.1,.28,9.97,.73,11.02,1.06,1.04,.34,9.06,5.36,9.06,5.36Z"></path><path class="cls-37" d="M112.24,784.89c-3.85,.41-5.08-.56-8.63-1.23-3.55-.67-13.64-4.4-13.46-6.47,.18-2.07,2.5-1.63,4.46-1.46,1.96,.17,8.2,.56,8.69,.56s10.65,4.19,10.65,4.19c0,0,.73,3.01,.06,3.46-.67,.45-.73,.84-1.77,.95Z"></path><path class="cls-30" d="M127.35,655.06s4.96,8.21,1.89,20.12c-3.07,11.91-15.96,57.56-15.96,57.56,0,0,.75,43.25,.75,48.96,0,1.73-3.67,2.53-7.54,1.26-4.85-1.6-4.77-2.93-5.03-5.19-.23-1.97-5.62-39.53-5.15-50.53,.62-14.48,3.35-58.41,3.35-58.41l27.69-13.76Z"></path><path class="cls-46" d="M101.45,777.77c-.23-1.97-5.62-39.53-5.15-50.53,.62-14.48,3.35-58.41,3.35-58.41l12.83-6.2-1.3,17.52s-.42,2.21-1.07,5.71c-2.39,12.79-7.94,42.89-7.94,46.67,0,3.59,2.55,33.02,3.8,50.24-4.28-1.52-4.27-2.84-4.52-5Z"></path><g><path class="cls-27" d="M131.46,593.49c4.86,.9,9.75,2.29,10.65,13.96,.73,9.58,2.83,73.25,2.83,73.25,0,0-8.63,7.84-31.29,7.07-15.46-.53-15.75-4.41-15.75-4.41,0,0-.8-39.4-1.26-60.45-.21-9.83,1.1-12.37,4.33-15.04,2.52-2.08,9.72-7.22,14.91-10.21,4.2-2.42,11.41-4.93,15.6-4.16Z"></path><path class="cls-32" d="M97.89,683.35s-.8-39.35-1.26-60.4c.03-.34,.06-.7,.1-1.03l14.58-.78c2.21,21.56,2.45,62.69,2.45,62.69,0,0-.46,3.83,12,3.46h0c-3.5,.42-7.5,.63-12.12,.47-15.46-.53-15.75-4.41-15.75-4.41Z"></path></g><path class="cls-16" d="M110.48,602.44c.16,2.45,4.23,4.18,9.1,3.87,4.86-.32,8.68-2.56,8.52-5.01-.16-2.45-4.23-4.18-9.1-3.87-4.86,.32-8.68,2.56-8.52,5.01Z"></path><path class="cls-11" d="M126.8,600.27c.24,.53,.02,1.15-.3,1.63-.61,.93-3.4,2.95-7.17,3.08-3.79,.13-5.8-.77-6.79-1.35-.51-.3-.85-.82-.96-1.4l-.94-5.15s-4.02,.37-5.26-1.11c-1.25-1.48-5.91-20.51-.34-25.48,5.57-4.97,18.12-4.03,20.4,4.62s-1.5,13.48-1.77,15.51c-.23,1.67,2.17,7.5,3.13,9.65Z"></path><path class="cls-38" d="M123.76,592.12s-4.52,1.66-6.47,1.17c-3.48-.87-3.6-8.86-5.97-10.61-1.41-1.04-2.55,.25-2.38,1.68,.14,1.17-.1,1.98-.54,2.13-.43,.15-2.9-6.69-2.9-6.69,0,0-9.52-4.39-6.97-12.36,3.07,1.94,22.18-7.97,28.01,5.85,4.59,10.91-.7,18.15-2.79,18.83Z"></path><path class="cls-46" d="M125.71,689.38c-1.08,3.69-2.24,7.64-3.42,11.6l9.87,69.31s1.42,1.13,3.04,2.17c-1.78-14.1-8.54-74.48-9.49-83.08Z"></path><g><polygon class="cls-37" points="100.37 709.06 100.37 739.78 104.05 737.64 104.05 706.82 100.37 709.06"></polygon><polygon class="cls-40" points="100.39 709.06 100.39 739.78 63.03 718.3 63.03 687.47 100.39 709.06"></polygon><path class="cls-14" d="M83.43,719.93v2.06c0,.78-.84,1.26-1.51,.88l-2.85-1.64c-.6-.34-.97-.98-.97-1.67v-1.54c0-.78,.84-1.26,1.52-.88l3.31,1.91c.31,.18,.5,.51,.5,.88Z"></path><path class="cls-43" d="M100.39,709.06v9.35c0,1.19-.96,2.15-2.15,2.15h-15.18c-1.68,0-3.26-.76-4.31-2.07l-13.88-17.4c-1.19-1.5-1.84-3.35-1.84-5.27v-8.34l37.36,21.58Z"></path><polygon class="cls-37" points="63.03 687.47 100.39 709.06 104.05 706.82 66.66 685.27 63.03 687.47"></polygon><path class="cls-37" d="M86.37,690.3l-4.83-2.79c-1.19-.69-2.26-.73-3.02-.26l-1.2,.6,.17,.91c-.09,.34-.14,.72-.14,1.14v3.14l1.07,.62,.29,1.52,1.24-.63v-2.82c0-1.33,.94-1.86,2.09-1.19l3.8,2.2c1.16,.67,2.09,2.29,2.09,3.61v2.82l1.17,.67,.19,1.46,1.24-.63v-3.14c0-2.66-1.88-5.89-4.19-7.23Z"></path><path class="cls-43" d="M76.11,690.54v3.14l2.61,1.5v-2.82c0-1.33,.94-1.86,2.09-1.19l3.8,2.2c1.16,.67,2.09,2.29,2.09,3.61v2.82l2.61,1.5v-3.14c0-2.66-1.88-5.89-4.19-7.23l-4.83-2.79c-2.31-1.34-4.19-.27-4.19,2.39Z"></path></g><path class="cls-11" d="M84.7,680.35s-3.56,4.37-5.18,7.34c-.87,1.59-.84,1.89-.45,5.18,.18,1.53,.48,2.65,1.31,2.75,.38,.05,.14-.86,.14-.86,0,0,.14,1.51,1.14,1.75,1,.24,.48-.97,.48-.97,0,0,.28,1.62,1.28,1.79,1,.18,.45-1.1,.45-1.1,0,0,.34,1.7,1.14,1.98,.8,.28,.93-.23,.93-1.4,0-1.37,.59-2.58,1.82-4.77,1.31-2.32,2.41-3.36,2.27-5.55-.14-2.19,1.67-4.03,1.67-4.03l-6.98-2.13Z"></path><path class="cls-27" d="M101.26,610.51c5.55-1.94,10.99,1.5,12.34,7.3,1.35,5.8-1.51,27.79-3.73,33.91-2.22,6.11-19.1,33.95-19.1,33.95,0,0-2.49-.12-4.9-1.2-2.41-1.08-2.61-2.32-2.61-2.32,0,0,8.75-26.25,10.58-31.73,1.83-5.48,1.72-20.79,2.3-26.98,.7-7.52-.24-11.05,5.12-12.92Z"></path><path class="cls-41" d="M6.39,559.36c-6.31,3-4.16,12.57-1.25,19.1,1.9,4.25,4.54,10.74,6.13,14.87,1.59,4.13,5.24,13.58,9.69,15.96,4.45,2.38,34.77,10.1,34.77,10.1l3.83-8.89-30.35-14.56s-5.06-16.86-6.74-21.31c-2.85-7.52-5.89-20.1-16.07-15.26Z"></path><path class="cls-38" d="M41.14,533.17c6.85,.31,8.35-3.21,7.18-7.03-.97-3.16-7.66-8.03-16.97-7.08-9.31,.95-8.05,11.65-7.92,15.86,.13,4.2,.81,7.69,2.23,6.59,1.41-1.1-.22-5.95,1.47-6.66,.89-.38,1.75,.52,1.98,1.62,.34,1.88-.76,7.11,.42,9.07,1.4,2.33,7.49,7.47,11.1,5.59,3.82-1.99,4.19-7.06,4.19-7.06,0,0-1.4-.57-3.1-.5-2.95,.12-6.01,2.1-6.01,2.1,0,0-4.15-1.98-4.46-3.69-.19-1.04,.74-6.18,1.49-10.07,1.26,.42,3.85,1.07,8.4,1.27Zm-1.12,11.99c.17-.04,1.65-.21,1.83-.23,1.78-.19,1.37,1.19,1.37,1.19,0,0-.22,.57-2.19,.78-1.79,.18-2.61-.19-2.61-.19,0,0,.08-1.22,1.6-1.54Z"></path></g><path class="cls-29" d="M60.82,325.28l19.22,41.85,35.73-37.5c1.25-1.31,.38-4.64-1.7-6.54l-10.96-9.98c-1.45-1.32-3-1.45-3.69-.29l-19.38,32.68-8.39-20.14c-.77-1.86-2.29-3.35-3.66-3.62l-5.6-1.09c-2.01-.39-2.8,1.94-1.56,4.63Z"></path><path class="cls-29" d="M730.9,407.32l19.22,41.85,35.73-37.5c1.25-1.31,.38-4.64-1.7-6.54l-10.96-9.98c-1.45-1.32-3-1.45-3.69-.29l-19.38,32.68-8.39-20.14c-.77-1.86-2.29-3.35-3.66-3.62l-5.6-1.09c-2.01-.39-2.8,1.94-1.56,4.63Z"></path><text class="cls-17" transform="translate(280.76 127.46) rotate(29.9) scale(1 .87) skewX(26.5)"><tspan x="0" y="0">FUTURE CONTRACT</tspan></text></g></g></g></svg>