<svg xmlns="http://www.w3.org/2000/svg" viewBox="0 0 628.39 1219.15"><defs><style>.cls-1{fill:#f0a76b;}.cls-2{fill:#d6945e;}.cls-3{fill:#c3cacd;}.cls-4{fill:#1f2534;}.cls-5{fill:#233152;}.cls-6,.cls-7{opacity:0.2;}.cls-7{fill:#f1e1cc;}.cls-8{fill:#f7ede0;}.cls-9{fill:#1e4c7d;}.cls-10{fill:#ff8055;}.cls-11{fill:#fff;}</style></defs><g id="&#x421;&#x43B;&#x43E;&#x439;_2" data-name="&#x421;&#x43B;&#x43E;&#x439; 2"><g id="Layer_1" data-name="Layer 1"><path class="cls-1" d="M346.32,662.43c-5.52,3.46-9.56,8.08-10.22,10.87a28.6,28.6,0,0,0-.27,6.37H297c0-1,.26-3.75-2.44-7.55l28.91-65.91,3.85-3.33s7.58,8.28,8.82,9.85,2.55,6,2.55,9.72l7.3,7.94-1.28,5.09s2.64,5,3.46,6.67.58,5.53,1.16,7.42,1.15,2.15,1.56,4.62S351.84,659,346.32,662.43Z"></path><path class="cls-2" d="M339.94,623.86l-1.12,2.88a6.1,6.1,0,0,1-1.4-3,43.6,43.6,0,0,1,.41-6.94,22.38,22.38,0,0,1,.83,5.71Z"></path><path class="cls-2" d="M331.08,652.9a10.49,10.49,0,0,0-3.14-5.77,8.09,8.09,0,0,1-2.89-6c-.13-7.16-11-4.53-5.59,7a11.8,11.8,0,0,0,6.7,6.32,7.3,7.3,0,0,1,2.8,1.72c3.2,3.25,7.82,9.37,7.14,17.17.66-2.8,4.7-7.42,10.22-10.88,3.61-2.26,4.61-4,4.76-5.67C350.88,656.77,339.77,657.53,331.08,652.9Z"></path><path d="M272.14,634.53c2.76,11.35,7.79,16.2,13.23,24.48s9.15,13.1,9.15,13.1c10-2.22,24.11-1.73,24.11-1.73a8.38,8.38,0,0,0,.49-4.32c-3.87-26.67.32-27.94.75-28.27,3.7-2.77,9.89,5.39,9.89,5.39l5.43-6c-.65-1.12-8.2-12.68-11.36-20.38-2.81-6.82,4.52-14.32,4.52-14.32s-17.22-19.45-47.39,7C281,609.43,268.43,619.24,272.14,634.53Z"></path><path class="cls-3" d="M345.51,695.3c-8.21-4.89-50-4.9-58.19,0L295,678.67c9.22-4.79,33.5-4.84,42.82,0Z"></path><path class="cls-4" d="M246.12,1193s-1.61,6.33,2.31,8.89l7.33,4.79v3.13l3.81,5.37c12.9,8.5,23.55.59,23.55.59v-8.6c-9.93,6.18-21.32,3.27-25.5-1.66C251.5,1198.32,246.51,1203.2,246.12,1193Z"></path><path d="M246.11,1193.09a.23.23,0,0,0,0-.07,17.66,17.66,0,0,0,.54,3.94c1.53,5,5.84,2.56,11,8.58,3.94,4.65,14.33,7.51,23.82,2.61a16.18,16.18,0,0,0,1.67-.94c.82-2.35,1.2-11.24-.31-16.21-15.36-8.4-21.28-11.63-25.41-13a6.14,6.14,0,0,0-6.82,2.2A25.21,25.21,0,0,0,246.11,1193.09Z"></path><path class="cls-4" d="M254.24,1186.68l18.28,17.06,11.3-5.49a29.9,29.9,0,0,0-1-7.25c-15.36-8.39-21.29-11.63-25.4-13C255.26,1177.35,254.24,1186.68,254.24,1186.68Z"></path><path class="cls-4" d="M387,1193s1.61,6.33-2.31,8.89l-7.33,4.79v3.13l-3.81,5.37c-12.9,8.5-23.55.59-23.55.59v-8.6c9.93,6.18,21.32,3.27,25.5-1.66C381.63,1198.32,386.61,1203.2,387,1193Z"></path><path d="M387,1193.09a.23.23,0,0,1,0-.07,17.66,17.66,0,0,1-.54,3.94c-1.53,5-5.84,2.56-11,8.58-3.94,4.65-14.33,7.51-23.83,2.61a17.15,17.15,0,0,1-1.66-.94c-.82-2.35-1.2-11.24.3-16.21,15.37-8.4,21.29-11.63,25.42-13a6.12,6.12,0,0,1,6.81,2.2A25.21,25.21,0,0,1,387,1193.09Z"></path><path class="cls-4" d="M381.91,1188.8l-21.3,14.94-11.3-5.49a29.93,29.93,0,0,1,1-7.25c15.37-8.39,21.3-11.63,25.4-13a6.17,6.17,0,0,1,6.08,1.39Z"></path><polygon class="cls-5" points="377.17 1186.38 360.17 1198.3 349.28 1193.02 316.56 949.5 283.85 1193.02 272.96 1198.3 255.96 1186.38 259.69 909.04 373.44 909.04 377.17 1186.38"></polygon><path class="cls-6" d="M360.16,1198.3l17-11.92-3.32-246.9h0L373.44,909h-52.9l-4-27.45-4,27.45H259.69c-.18,13.66-.09,7-.41,30.43l29.09,1L273,1198.3l10.89-5.28L316.56,949.5l16.18,120.42L328.33,941l16.43-.56Z"></path><path d="M255,962.62v98.95a3,3,0,0,1-.51,1.68l-10.2,15.33L233.17,1080V967.7h8.61l10.29-8h0A2.94,2.94,0,0,1,255,962.62Z"></path><path class="cls-5" d="M241.78,967.7h0l10.3-8H230.27a3.06,3.06,0,0,0-1.88.65L218,968.44h0a2.92,2.92,0,0,0-1,2.19v106.43A2.94,2.94,0,0,0,220,1080h21.81a2.94,2.94,0,0,0,2.94-2.94V970.64A2.94,2.94,0,0,0,241.78,967.7Z"></path><path d="M235.62,933.59h9.59a0,0,0,0,1,0,0v26.25a2.59,2.59,0,0,1-2.59,2.59h-4.41a2.59,2.59,0,0,1-2.59-2.59V933.59A0,0,0,0,1,235.62,933.59Z" transform="translate(480.84 1896.01) rotate(180)"></path><path class="cls-2" d="M241.83,949.94c-1.17,1.54-10.37,3.8-11.61,3.92s-4.53-4.07-5-4.64c1.06-5.44,1-10.12,4.46-11.91,0,.06,3-.6,3.52-.59a5.78,5.78,0,0,1-.12,3.81,3.82,3.82,0,0,1,2.55.81s1.69-2.26,3.11-2.45a3,3,0,0,1,0-1.29,18.53,18.53,0,0,1,3.55,3.72C243.3,942.11,242.93,948.49,241.83,949.94Z"></path><path class="cls-1" d="M242,949.78c.15-2.13,1-4.74-.06-7.74-1.55-4.42-5.27-4.65-8.62-4.75-4-.12-4.62,1.69-5.41,5.65.35,0,2.24,3.39,4.85,6.2,3.16.71,8.16,2.1,7.64,5.26-.18,1.14-1.88,1.37-6.73,1.37-5.09.21-8-2.65-16.87-15.44a4.36,4.36,0,0,1-.18-4.66l3.17-6.65c1.71-3.33,3.21-13.37,3.26-16.45h18.84c-.12,2.09,2.77,12.21,4.42,17.74a36.23,36.23,0,0,1,1.31,8.81C247.9,944.49,244.67,947.07,242,949.78Z"></path><path class="cls-2" d="M216.8,940.33c5.18,7.49,3,4.65,9.73,12.48a9.23,9.23,0,0,0,7.22,3c3.31-.13,5.88,0,6.52-1-1.3.12-3.41,0-4.85,0a9.22,9.22,0,0,1-7-3.3l-5.2-6.64c-6.15-9.85-6.23-7.34.32-17.42,2.89-5,7.78-12.41,18.38-14.07a4.41,4.41,0,0,1,0-.76H223.05c-.05,3.08-1.55,13.12-3.26,16.44l-3.17,6.65A4.36,4.36,0,0,0,216.8,940.33Z"></path><rect class="cls-3" x="220.45" y="913.47" width="23.5" height="5.56"></rect><path class="cls-7" d="M233.25,955.65s6.19.15,6.46-.47-.7-1.54-1.53-1.82S233.19,954.84,233.25,955.65Z"></path><path class="cls-8" d="M234.34,955.67a3.21,3.21,0,0,0-.24-.9c-.52.32-.87.65-.85.88Z"></path><path d="M230.92,937.27h9.59a0,0,0,0,1,0,0v26.25a2.59,2.59,0,0,1-2.59,2.59h-4.41a2.59,2.59,0,0,1-2.59-2.59V937.27A0,0,0,0,1,230.92,937.27Z" transform="translate(471.43 1903.38) rotate(180)"></path><rect x="228.58" y="967.7" width="4.59" height="112.3"></rect><path class="cls-5" d="M259.4,795.7c-5.93,34.87-6.67,26-13.59,119.62l-26.42-.09c1.72-111.28-1-94.84,2.47-109.63,20.93-89.57,24.28-91.76,25.71-94.06-2,16.1,3.74,40.33,7.11,61.43C255.79,780,257.77,787.29,259.4,795.7Z"></path><path class="cls-6" d="M259.4,795.7h0s-4.11-18.86-4.72-22.73c-3.37-21.1-9.13-45.33-7.11-61.43-.59,1-1.51,1.88-3.85,8.93.3,16.53,8,62.06,9.11,67L244,827.36l-2,87.95h3.85C252,832.2,253.22,829.86,257.58,806h0C258.13,803,258.73,799.63,259.4,795.7Z"></path><path class="cls-5" d="M371.53,832.11l8.72,99.5-57.53,2-6.16-52-6.15,52-57.53-2,8.72-99.5c2.11-27.16-4.46-43.69-6.92-59.14-3.37-21.1-9.14-45.33-7.11-61.44,5.12-1.83,26.82-10.28,26.82-10.28s11.58-9,12.5-9.24l3.55-6.75c6.18-2.83,16.05-4.32,26.12-4.46,10.08.14,19.95,1.63,26.13,4.46l3.56,6.75c.91.26,12.49,9.24,12.49,9.24s21.7,8.45,26.82,10.28c2,16.11-3.74,40.34-7.11,61.44C376,788.42,369.42,805,371.53,832.11Z"></path><path class="cls-6" d="M371.54,832.1l8.71,99.51-10.73.37-5.6-106,18.31-74.67c-1.27,7.31-2.66,14.68-3.78,21.7C376,788.42,369.42,805,371.54,832.1Z"></path><path class="cls-2" d="M393.65,919s1.11,22.24-.41,29.18c-.75,3.43-6.34,2.39-6-1.79,1-13.72-2.24-18.42-1.33-27.39Z"></path><path class="cls-2" d="M388.05,956.88c-1.29,1.81-3.19,4.09-6.57,9.22-2.29,3.35,1.37,5.66,3.39,4.23,12.32-12.63,12.45-13.08,13.38-14.75,5.29-9.45,5.54-19.16,5.64-24.39C403.44,932.24,389,955.54,388.05,956.88Z"></path><path class="cls-7" d="M388.16,967c-1.1-.73-1.19-.72-2.43.6-1.74,1.84-.87,2.79-.87,2.79Z"></path><path class="cls-1" d="M406.89,919c-2.92,25.2-3.92,24.79-9.08,35.23-.88,1.77-10.5,10.51-11.38,11.31-2.11,1.33-5.61-1.19-3.15-4.41,14.81-19.86,7.44-25.79,8.66-42.13Z"></path><path class="cls-7" d="M390.08,962.21c-1.06-.79-1.12-.82-2.88,1a2.45,2.45,0,0,0-.77,2.4Z"></path><polygon class="cls-3" points="408.8 914.49 408.66 919.04 385.14 919.04 385.3 914.49 408.8 914.49"></polygon><path class="cls-5" d="M409.82,915.27H383.41c-3.88-93.48-4.91-85-9.66-119.61,1.61-8.39,3.58-15.65,4.7-22.69,3.37-21.1,9.14-45.34,7.11-61.44,1.35,2.35,7.31,4.66,25.33,94.85C413.87,821.24,411.71,804.84,409.82,915.27Z"></path><path class="cls-6" d="M388.05,827.41l-.8,87.86h-3.84c-3.45-83.22-4.65-85.65-8.23-109.6h0c-.44-2.95-.92-6.22-1.44-10,1.61-8.39,3.58-15.65,4.7-22.69,3.37-21.1,9.14-45.34,7.11-61.44.26.45.67.88,1.28,1.87.27.45,1.34,6.46,1.05,14.72-.47,13.34-7.3,57.24-7.3,57.24Z"></path><rect class="cls-5" x="116.27" y="141.75" width="14.57" height="328.65"></rect><rect class="cls-9" x="95.53" y="200.04" width="56.05" height="212.08"></rect><rect class="cls-5" x="20.95" y="321.11" width="14.57" height="231.27"></rect><rect class="cls-10" x="0.2" y="379.33" width="56.05" height="114.28"></rect><rect class="cls-5" x="211.59" y="403.78" width="14.57" height="237.84"></rect><rect class="cls-10" x="190.85" y="462.06" width="56.05" height="121.27"></rect><rect class="cls-5" x="306.91" y="260.73" width="14.57" height="219.41"></rect><rect class="cls-9" x="286.17" y="304.4" width="56.05" height="122.19"></rect><rect class="cls-5" x="402.23" y="218.94" width="14.57" height="351.78"></rect><rect class="cls-9" x="381.49" y="277.22" width="56.05" height="235.2"></rect><rect class="cls-5" x="592.87" y="173.43" width="14.57" height="351.78"></rect><rect class="cls-9" x="572.14" y="231.72" width="56.05" height="235.2"></rect><rect class="cls-5" x="497.55" y="339.07" width="14.57" height="262.65"></rect><rect class="cls-10" x="476.81" y="397.36" width="56.05" height="146.08"></rect><polygon class="cls-9" points="247.11 0 0 0 0 77.13 77.3 77.13 123.56 123.39 169.81 77.13 247.11 77.13 247.11 0"></polygon><path class="cls-11" d="M55.44,13.68c18.36,0,36.93-2.46,36.93,12.92,0,4.62-2.55,9.65-6.78,11.24v.32c5.27,1.36,9.33,5.27,9.33,12.21C94.92,61,86,65.68,74.74,65.68H55.44ZM80.89,28.35c0-6.51-6.9-5.58-13.72-5.58V34.49C73.13,34.49,80.89,35.35,80.89,28.35Zm2.55,21.22c0-7.48-8.71-6.38-16.27-6.38v13.4C75,56.59,83.44,57.52,83.44,49.57Z"></path><path class="cls-11" d="M103.38,41.59V13.68h11.8V42.79c0,10.21,3.19,13.72,9,13.72s9.18-3.51,9.18-13.72V13.68h11.32V41.59c0,17.47-7.1,25-20.5,25S103.38,59.06,103.38,41.59Z"></path><path class="cls-11" d="M164.23,47.18l-15.71-33.5h12.6c2.82,7.3,5.34,13.69,8.85,23.45h.32c4.74-12.46,7.81-20.2,9.1-23.45h12.28L176,47.18v18.5H164.23Z"></path><polygon class="cls-10" points="628.39 86.35 381.28 86.35 381.28 163.48 458.58 163.48 504.83 209.74 551.09 163.48 628.39 163.48 628.39 86.35"></polygon><path class="cls-11" d="M423.57,144.09l6.6-7.94c9,7.69,19.8,6.51,19.8.39,0-3.64-3.1-4.31-14.07-8.95-17.06-6.88-12-29.23,7.94-29.23a23.72,23.72,0,0,1,16.5,6.76l-5.9,7.31c-8.59-6.61-17.12-4.47-17.12.55,0,8,24.51,5,24.51,22.62C461.83,152.33,437.24,156.93,423.57,144.09Z"></path><path class="cls-11" d="M470.55,99.31H502.6v9.74H482.09v10.29h17.45V129H482.09v11.79h21.3v9.74H470.55Z"></path><path class="cls-11" d="M513.59,99.31h11.55v41.48h20.27v9.74H513.59Z"></path><path class="cls-11" d="M554.28,99.31h11.55v41.48H586.1v9.74H554.28Z"></path></g></g></svg>