<svg xmlns="http://www.w3.org/2000/svg" viewBox="0 0 56.227 57"><g id="Group_5652" data-name="Group 5652" transform="translate(-842 -212)"><rect id="icon_mask" width="56" height="56" transform="translate(842.227 213)" fill="none"></rect><g id="Group_5246" data-name="Group 5246" transform="translate(-105.214 4.786)"><path id="Path_5102" data-name="Path 5102" d="M267.414,262.746a4.668,4.668,0,1,0,4.668,4.668A4.668,4.668,0,0,0,267.414,262.746Zm0,7a2.334,2.334,0,1,1,2.334-2.334A2.334,2.334,0,0,1,267.414,269.747Z" transform="translate(714.474 -24.526)" fill="#ff8055"></path><path id="Path_5103" data-name="Path 5103" d="M118.922,114.254a4.668,4.668,0,1,0,4.668,4.668A4.668,4.668,0,0,0,118.922,114.254Zm0,7a2.334,2.334,0,1,1,2.334-2.334A2.334,2.334,0,0,1,118.922,121.255Z" transform="translate(849.62 110.62)" fill="#ff8055"></path><path id="Path_5104" data-name="Path 5104" d="M135.2,152.2a1.167,1.167,0,0,1,0-1.65L150.548,135.2a1.167,1.167,0,0,1,1.65,1.65L136.851,152.2A1.167,1.167,0,0,1,135.2,152.2Z" transform="translate(831.515 92.515)" fill="#ff8055"></path></g><circle id="Ellipse_135" data-name="Ellipse 135" cx="2" cy="2" r="2" transform="translate(868 212)" fill="#4c4c4c"></circle><circle id="Ellipse_136" data-name="Ellipse 136" cx="2" cy="2" r="2" transform="translate(894 239)" fill="#4c4c4c"></circle><circle id="Ellipse_137" data-name="Ellipse 137" cx="2" cy="2" r="2" transform="translate(842 239)" fill="#4c4c4c"></circle><circle id="Ellipse_138" data-name="Ellipse 138" cx="2" cy="2" r="2" transform="translate(868 264)" fill="#4c4c4c"></circle><circle id="Ellipse_139" data-name="Ellipse 139" cx="2" cy="2" r="2" transform="translate(886 257)" fill="#4c4c4c"></circle><circle id="Ellipse_149" data-name="Ellipse 149" cx="2" cy="2" r="2" transform="translate(850 257)" fill="#4c4c4c"></circle><circle id="Ellipse_143" data-name="Ellipse 143" cx="2" cy="2" r="2" transform="translate(887 220)" fill="#4c4c4c"></circle><circle id="Ellipse_146" data-name="Ellipse 146" cx="2" cy="2" r="2" transform="translate(849 220)" fill="#4c4c4c"></circle><circle id="Ellipse_140" data-name="Ellipse 140" cx="2" cy="2" r="2" transform="translate(892 249)" fill="#4c4c4c"></circle><circle id="Ellipse_148" data-name="Ellipse 148" cx="2" cy="2" r="2" transform="translate(844 249)" fill="#4c4c4c"></circle><circle id="Ellipse_142" data-name="Ellipse 142" cx="2" cy="2" r="2" transform="translate(892 229)" fill="#4c4c4c"></circle><circle id="Ellipse_147" data-name="Ellipse 147" cx="2" cy="2" r="2" transform="translate(844 229)" fill="#4c4c4c"></circle><circle id="Ellipse_141" data-name="Ellipse 141" cx="2" cy="2" r="2" transform="translate(878 262)" fill="#4c4c4c"></circle><circle id="Ellipse_150" data-name="Ellipse 150" cx="2" cy="2" r="2" transform="translate(858 262)" fill="#4c4c4c"></circle><circle id="Ellipse_144" data-name="Ellipse 144" cx="2" cy="2" r="2" transform="translate(879 214)" fill="#4c4c4c"></circle><circle id="Ellipse_145" data-name="Ellipse 145" cx="2" cy="2" r="2" transform="translate(857 214)" fill="#4c4c4c"></circle></g></svg>