<svg xmlns="http://www.w3.org/2000/svg" viewBox="0 0 1137.27 619.41"><defs><style>.cls-1{fill:#2b4c79;}.cls-2{fill:#3b4655;}.cls-3{fill:#f6f6f6;}.cls-4{fill:#2e3236;}.cls-5{fill:#4a4f54;}.cls-6{opacity:0.3;}.cls-7{fill:#2e3642;}.cls-8{fill:#75c066;}.cls-9{fill:#efc42e;}.cls-10{fill:#d66f73;}.cls-11{fill:#d46732;}.cls-12{fill:#e0e0e0;}.cls-13{fill:#3d5d89;}.cls-14{fill:#0e2c51;}.cls-15{fill:#fff;}.cls-16{opacity:0.5;}</style></defs><g id="&#x421;&#x43B;&#x43E;&#x439;_2" data-name="&#x421;&#x43B;&#x43E;&#x439; 2"><g id="Layer_1" data-name="Layer 1"><path id="Path_2197" data-name="Path 2197" class="cls-1" d="M1037.75,37.14,1076.37,49,830.3,275.78,671.37,146.55,449.06,388.66,335.68,255,0,590.67l6.93,6.93L334.69,269.84,449.07,403.52l223.29-243.1L830.3,288.65l253-232.21,8.91,40.1L1137.27,0Z"></path><g id="Group_3385" data-name="Group 3385"><path id="Path_2186" data-name="Path 2186" class="cls-2" d="M890.2,63.92A19.22,19.22,0,0,0,871,44.75H209.62a19.22,19.22,0,0,0-19.17,19.17v397.8H890.2Z"></path></g><g id="Group_3386" data-name="Group 3386"><path id="Path_2187" data-name="Path 2187" class="cls-3" d="M190.45,461.72v43.14A19.22,19.22,0,0,0,209.62,524H871a19.23,19.23,0,0,0,19.17-19.17V461.72Z"></path></g><g id="Group_3387" data-name="Group 3387"><rect id="Rectangle_2137" data-name="Rectangle 2137" class="cls-3" x="219.2" y="99.86" width="642.24" height="333.1"></rect></g><g id="Group_3388" data-name="Group 3388"><rect id="Rectangle_2138" data-name="Rectangle 2138" class="cls-4" x="219.2" y="73.5" width="642.24" height="28.76"></rect></g><g id="Group_3389" data-name="Group 3389"><path id="Path_2188" data-name="Path 2188" class="cls-5" d="M351,102.26H219.2V73.5H336.63Z"></path></g><g id="Group_3390" data-name="Group 3390"><rect id="Rectangle_2139" data-name="Rectangle 2139" class="cls-2" x="506.77" y="524.03" width="62.31" height="59.91"></rect></g><g id="Group_3391" data-name="Group 3391" class="cls-6"><rect id="Rectangle_2140" data-name="Rectangle 2140" class="cls-7" x="506.77" y="524.03" width="62.31" height="26.36"></rect></g><g id="Group_3392" data-name="Group 3392"><path id="Path_2189" data-name="Path 2189" class="cls-2" d="M509.17,583.94H480.41l28.76-28.76Z"></path></g><g id="Group_3393" data-name="Group 3393"><path id="Path_2190" data-name="Path 2190" class="cls-2" d="M566.68,583.94h28.76l-28.76-28.76Z"></path></g><g id="Group_3394" data-name="Group 3394" class="cls-6"><circle id="Ellipse_110" data-name="Ellipse 110" class="cls-7" cx="540.32" cy="492.16" r="10.3"></circle></g><g id="Group_3401" data-name="Group 3401"><g id="Group_3396" data-name="Group 3396"><g id="Group_3395" data-name="Group 3395"><circle id="Ellipse_111" data-name="Ellipse 111" class="cls-8" cx="295.89" cy="87.88" r="5.99"></circle></g></g><g id="Group_3398" data-name="Group 3398"><g id="Group_3397" data-name="Group 3397"><circle id="Ellipse_112" data-name="Ellipse 112" class="cls-9" cx="274.32" cy="87.88" r="5.99"></circle></g></g><g id="Group_3400" data-name="Group 3400"><g id="Group_3399" data-name="Group 3399"><circle id="Ellipse_113" data-name="Ellipse 113" class="cls-10" cx="252.75" cy="87.88" r="5.99"></circle></g></g></g><g id="Group_3402" data-name="Group 3402"><rect id="Rectangle_2141" data-name="Rectangle 2141" class="cls-11" x="255.15" y="123.83" width="572.74" height="35.95"></rect></g><g id="Group_3403" data-name="Group 3403"><rect id="Rectangle_2142" data-name="Rectangle 2142" class="cls-11" x="741.62" y="183.74" width="83.87" height="220.47"></rect></g><g id="Group_3404" data-name="Group 3404"><rect id="Rectangle_2143" data-name="Rectangle 2143" class="cls-12" x="257.54" y="183.74" width="194.11" height="11.98"></rect></g><g id="Group_3405" data-name="Group 3405"><rect id="Rectangle_2144" data-name="Rectangle 2144" class="cls-12" x="257.54" y="207.7" width="268.4" height="11.98"></rect></g><g id="Group_3406" data-name="Group 3406"><rect id="Rectangle_2145" data-name="Rectangle 2145" class="cls-12" x="360.59" y="255.63" width="194.11" height="11.98"></rect></g><g id="Group_3407" data-name="Group 3407"><rect id="Rectangle_2146" data-name="Rectangle 2146" class="cls-12" x="360.59" y="279.59" width="268.4" height="11.98"></rect></g><g id="Group_3408" data-name="Group 3408"><rect id="Rectangle_2147" data-name="Rectangle 2147" class="cls-11" x="257.54" y="241.25" width="76.69" height="59.91"></rect></g><g id="Group_3409" data-name="Group 3409"><rect id="Rectangle_2148" data-name="Rectangle 2148" class="cls-12" x="360.59" y="337.11" width="194.11" height="11.98"></rect></g><g id="Group_3410" data-name="Group 3410"><rect id="Rectangle_2149" data-name="Rectangle 2149" class="cls-12" x="360.59" y="361.07" width="268.4" height="11.98"></rect></g><g id="Group_3411" data-name="Group 3411"><rect id="Rectangle_2150" data-name="Rectangle 2150" class="cls-11" x="257.54" y="322.73" width="76.69" height="59.91"></rect></g><path id="Path_2198" data-name="Path 2198" class="cls-2" d="M769.9,287.5l13.9,102.09,19.65-34.27,20.85,36.19,8.38-4.8L811.6,350.53h39.54Z"></path><g id="Group_3420" data-name="Group 3420"><rect id="Rectangle_2151" data-name="Rectangle 2151" class="cls-2" x="758.33" y="254.96" width="4.79" height="29" transform="translate(-33.46 412.92) rotate(-29.74)"></rect></g><g id="Group_3421" data-name="Group 3421"><rect id="Rectangle_2152" data-name="Rectangle 2152" class="cls-2" x="744" y="283.64" width="4.79" height="29" transform="translate(87.15 757.92) rotate(-56.67)"></rect></g><g id="Group_3422" data-name="Group 3422"><rect id="Rectangle_2153" data-name="Rectangle 2153" class="cls-2" x="744.02" y="319.64" width="4.79" height="29" transform="translate(362.59 1056.26) rotate(-86.12)"></rect></g><g id="Group_3423" data-name="Group 3423"><rect id="Rectangle_2154" data-name="Rectangle 2154" class="cls-2" x="804.03" y="288.53" width="29.01" height="4.79" transform="translate(22.8 639.42) rotate(-43.22)"></rect></g><g id="Group_3424" data-name="Group 3424"><rect id="Rectangle_2155" data-name="Rectangle 2155" class="cls-2" x="780.04" y="271.72" width="29" height="4.79" transform="matrix(0.17, -0.98, 0.98, 0.17, 386.12, 1008.71)"></rect></g><circle id="Ellipse_114" data-name="Ellipse 114" class="cls-13" cx="185.65" cy="526.42" r="57.51"></circle><path id="Path_2199" data-name="Path 2199" class="cls-14" d="M185.65,574.59a48.17,48.17,0,1,1,48.17-48.17,48.17,48.17,0,0,1-48.17,48.17Z"></path><g id="Group_3425" data-name="Group 3425"><path id="Path_2200" data-name="Path 2200" class="cls-15" d="M185.89,556.86a14.15,14.15,0,0,1-11.26-4.79,20.1,20.1,0,0,1-4.31-12.7l7.42-1.92a24.48,24.48,0,0,0,2.16,9.34,6.48,6.48,0,0,0,6.23,3.6,6.85,6.85,0,0,0,5-1.92,7,7,0,0,0,1.68-5.27,11.6,11.6,0,0,0-1.44-6,24.64,24.64,0,0,0-5-5.51l-10.06-8.87a18.07,18.07,0,0,1-4.32-5.75,21.46,21.46,0,0,1-1.43-7.43,13.6,13.6,0,0,1,3.59-10.07,14.63,14.63,0,0,1,9.82-3.83v-5h2.64v5a12.4,12.4,0,0,1,9.35,4.31,19.51,19.51,0,0,1,3.83,11.27l-7.19,1.91a21,21,0,0,0-1.92-7.9,5.63,5.63,0,0,0-5.51-2.88q-7.18,0-7.19,6.47a7.71,7.71,0,0,0,1,4.31,13.61,13.61,0,0,0,3.12,3.84L192.12,526a29.89,29.89,0,0,1,6.23,7.66,19,19,0,0,1,2.4,9.11,13.15,13.15,0,0,1-12.1,14.12l-.36,0v5.27h-2.4v-5.27Z"></path></g><circle id="Ellipse_115" data-name="Ellipse 115" class="cls-13" cx="971.68" cy="198.12" r="57.51"></circle><path id="Path_2201" data-name="Path 2201" class="cls-14" d="M971.68,246.28a48.17,48.17,0,1,1,48.16-48.16,48.16,48.16,0,0,1-48.16,48.16Z"></path><g id="Group_3427" data-name="Group 3427"><path id="Path_2202" data-name="Path 2202" class="cls-15" d="M971.92,228.55a14.14,14.14,0,0,1-11.27-4.79,20.22,20.22,0,0,1-4.31-12.7l7.43-1.92a24.37,24.37,0,0,0,2.15,9.35,6.49,6.49,0,0,0,6.23,3.59,6.89,6.89,0,0,0,5-1.92,7,7,0,0,0,1.67-5.27,11.69,11.69,0,0,0-1.43-6,24.68,24.68,0,0,0-5-5.51l-10.06-8.87a16.47,16.47,0,0,1-5.75-13.18,13.57,13.57,0,0,1,3.59-10.06,14.62,14.62,0,0,1,9.83-3.84v-5h2.63v5a12.39,12.39,0,0,1,9.35,4.32A19.46,19.46,0,0,1,985.81,183l-7.18,1.92a21.42,21.42,0,0,0-1.92-7.91,5.65,5.65,0,0,0-5.51-2.88q-7.2,0-7.19,6.47a7.68,7.68,0,0,0,1,4.32,13.68,13.68,0,0,0,3.11,3.83l10.07,8.87a30.36,30.36,0,0,1,6.23,7.67,19,19,0,0,1,2.39,9.1,13.14,13.14,0,0,1-12.09,14.12l-.37,0v5.27h-2.39Z"></path></g><g id="Group_3441" data-name="Group 3441"><g id="Group_3429" data-name="Group 3429"><path id="Path_2203" data-name="Path 2203" class="cls-14" d="M1029.19,575.55a10.75,10.75,0,0,1-10.69,10.79h-96a10.74,10.74,0,0,1-10.78-10.7v-.09a11,11,0,0,1,3.11-7.67,10.64,10.64,0,0,1,7.67-3.11h95.86a10.73,10.73,0,0,1,10.78,10.69Z"></path></g><g id="Group_3430" data-name="Group 3430"><path id="Path_2204" data-name="Path 2204" class="cls-14" d="M1029.19,549.19A10.73,10.73,0,0,1,1018.5,560h-96a10.73,10.73,0,0,1-10.78-10.69v-.09a11,11,0,0,1,3.11-7.67,10.64,10.64,0,0,1,7.67-3.11h95.86a10.73,10.73,0,0,1,10.78,10.69Z"></path></g><g id="Group_3431" data-name="Group 3431"><path id="Path_2205" data-name="Path 2205" class="cls-14" d="M1029.19,522.83a10.73,10.73,0,0,1-10.69,10.78h-96a10.73,10.73,0,0,1-10.78-10.69v-.09a11,11,0,0,1,3.11-7.67,10.64,10.64,0,0,1,7.67-3.11h95.86a10.73,10.73,0,0,1,10.78,10.69Z"></path></g><g id="Group_3432" data-name="Group 3432"><path id="Path_2206" data-name="Path 2206" class="cls-14" d="M1029.19,496.47a10.73,10.73,0,0,1-10.69,10.78h-96a10.73,10.73,0,0,1-10.78-10.69v-.09a11,11,0,0,1,3.11-7.67,10.64,10.64,0,0,1,7.67-3.11h95.86a10.73,10.73,0,0,1,10.78,10.69Z"></path></g><g id="Group_3433" data-name="Group 3433"><path id="Path_2207" data-name="Path 2207" class="cls-14" d="M1029.19,470.11a10.73,10.73,0,0,1-10.69,10.78h-96a10.73,10.73,0,0,1-10.78-10.69v-.09a11,11,0,0,1,3.11-7.67,10.64,10.64,0,0,1,7.67-3.11h95.86A10.73,10.73,0,0,1,1029.19,470Z"></path></g><g id="Group_3434" data-name="Group 3434"><path id="Path_2208" data-name="Path 2208" class="cls-14" d="M1029.19,443.75a10.73,10.73,0,0,1-10.69,10.78h-96a10.73,10.73,0,0,1-10.78-10.69v-.09a11,11,0,0,1,3.11-7.67,10.69,10.69,0,0,1,7.67-3.12h95.86a10.75,10.75,0,0,1,10.78,10.7Z"></path></g><g id="Group_3435" data-name="Group 3435"><path id="Path_2209" data-name="Path 2209" class="cls-14" d="M1029.19,417.39a10.73,10.73,0,0,1-10.69,10.78h-96a10.73,10.73,0,0,1-10.78-10.69v-.09a11,11,0,0,1,3.11-7.67,10.69,10.69,0,0,1,7.67-3.12h95.86a10.75,10.75,0,0,1,10.78,10.7Z"></path></g><g id="Group_3436" data-name="Group 3436"><path id="Path_2210" data-name="Path 2210" class="cls-14" d="M1029.19,391a10.73,10.73,0,0,1-10.69,10.78h-96a10.73,10.73,0,0,1-10.78-10.69V391a11,11,0,0,1,3.11-7.67,10.69,10.69,0,0,1,7.67-3.12h95.86a10.75,10.75,0,0,1,10.78,10.7Z"></path></g><g id="Group_3437" data-name="Group 3437"><path id="Path_2211" data-name="Path 2211" class="cls-14" d="M1029.19,364.67a10.73,10.73,0,0,1-10.69,10.78h-96a10.73,10.73,0,0,1-10.78-10.69v-.09a11,11,0,0,1,3.11-7.67,10.69,10.69,0,0,1,7.67-3.12h95.86a10.75,10.75,0,0,1,10.78,10.7Z"></path></g><g id="Group_3438" data-name="Group 3438"><path id="Path_2212" data-name="Path 2212" class="cls-14" d="M1029.19,338.31a10.74,10.74,0,0,1-10.69,10.78h-96a10.73,10.73,0,0,1-10.78-10.69v-.09a11,11,0,0,1,3.11-7.67,10.69,10.69,0,0,1,7.67-3.12h95.86a10.74,10.74,0,0,1,10.78,10.7Z"></path></g><g id="Group_3439" data-name="Group 3439"><path id="Path_2213" data-name="Path 2213" class="cls-14" d="M1029.19,312a10.74,10.74,0,0,1-10.69,10.78h-96A10.73,10.73,0,0,1,911.77,312V312a11,11,0,0,1,3.11-7.67,10.65,10.65,0,0,1,7.67-3.12h95.86a10.74,10.74,0,0,1,10.78,10.69Z"></path></g><g id="Group_3440" data-name="Group 3440"><path id="Path_2214" data-name="Path 2214" class="cls-14" d="M1029.19,285.59a10.74,10.74,0,0,1-10.69,10.78h-96a10.73,10.73,0,0,1-10.78-10.69v-.09a11,11,0,0,1,3.11-7.67,10.65,10.65,0,0,1,7.67-3.12h95.86a10.74,10.74,0,0,1,10.78,10.69Z"></path></g></g><g id="Group_3442" data-name="Group 3442" class="cls-16"><path id="Path_2215" data-name="Path 2215" class="cls-13" d="M1029.19,575.55a10.75,10.75,0,0,1-10.69,10.79H962.09V564.77h56.32a10.73,10.73,0,0,1,10.78,10.69Z"></path><path id="Path_2216" data-name="Path 2216" class="cls-13" d="M1029.19,549.19A10.73,10.73,0,0,1,1018.5,560H962.09V538.41h56.32a10.73,10.73,0,0,1,10.78,10.69Z"></path><path id="Path_2217" data-name="Path 2217" class="cls-13" d="M1029.19,522.83a10.73,10.73,0,0,1-10.69,10.78H962.09V512.05h56.32a10.73,10.73,0,0,1,10.78,10.69Z"></path><path id="Path_2218" data-name="Path 2218" class="cls-13" d="M1029.19,496.47a10.73,10.73,0,0,1-10.69,10.78H962.09V485.69h56.32a10.73,10.73,0,0,1,10.78,10.69Z"></path><path id="Path_2219" data-name="Path 2219" class="cls-13" d="M1029.19,470.11a10.73,10.73,0,0,1-10.69,10.78H962.09V459.33h56.32A10.73,10.73,0,0,1,1029.19,470Z"></path><path id="Path_2220" data-name="Path 2220" class="cls-13" d="M1029.19,443.75a10.73,10.73,0,0,1-10.69,10.78H962.09V433h56.32a10.75,10.75,0,0,1,10.78,10.7Z"></path><path id="Path_2221" data-name="Path 2221" class="cls-13" d="M1029.19,417.39a10.73,10.73,0,0,1-10.69,10.78H962.09V406.6h56.32a10.75,10.75,0,0,1,10.78,10.7Z"></path><path id="Path_2222" data-name="Path 2222" class="cls-13" d="M1029.19,391a10.73,10.73,0,0,1-10.69,10.78H962.09V380.24h56.32a10.75,10.75,0,0,1,10.78,10.7Z"></path><path id="Path_2223" data-name="Path 2223" class="cls-13" d="M1029.19,364.67a10.73,10.73,0,0,1-10.69,10.78H962.09V353.88h56.32a10.75,10.75,0,0,1,10.78,10.7Z"></path><path id="Path_2224" data-name="Path 2224" class="cls-13" d="M1029.19,338.31a10.74,10.74,0,0,1-10.69,10.78H962.09V327.52h56.32a10.74,10.74,0,0,1,10.78,10.7Z"></path><path id="Path_2225" data-name="Path 2225" class="cls-13" d="M1029.19,312a10.74,10.74,0,0,1-10.69,10.78H962.09V301.16h56.32a10.74,10.74,0,0,1,10.78,10.69Z"></path><path id="Path_2226" data-name="Path 2226" class="cls-13" d="M1018.41,296.37H962.09V274.8h56.32a10.79,10.79,0,0,1,0,21.57Z"></path></g><path id="Path_2228" data-name="Path 2228" class="cls-1" d="M75.66,431.29H69.19v-6.47a1.44,1.44,0,0,0-2.88,0v6.47H59.84a1.44,1.44,0,0,0,0,2.87h6.48v6.47a1.44,1.44,0,0,0,2.88,0h0v-6.47h6.47a1.37,1.37,0,0,0,1.43-1.32.24.24,0,0,0,0-.12A1.53,1.53,0,0,0,75.66,431.29Z"></path><path id="Path_2230" data-name="Path 2230" class="cls-1" d="M1094.61,399.65h-6.47v-6.47a1.44,1.44,0,0,0-2.87,0h0v6.47h-6.47a1.45,1.45,0,0,0-1.44,1.45,1.43,1.43,0,0,0,1.44,1.43h6.47V409a1.44,1.44,0,1,0,2.87,0v-6.47h6.47a1.38,1.38,0,0,0,1.44-1.32v-.12C1096.29,400.13,1095.57,399.65,1094.61,399.65Z"></path><path id="Path_2231" data-name="Path 2231" class="cls-1" d="M1085,136.05h-6.47v-6.47a1.44,1.44,0,0,0-2.88,0v6.47h-6.47a1.44,1.44,0,1,0,0,2.87h6.47v6.48a1.44,1.44,0,0,0,2.88,0v-6.48H1085a1.36,1.36,0,0,0,1.43-1.32.2.2,0,0,0,0-.11C1086.7,136.53,1086,136.05,1085,136.05Z"></path><g id="Group_3444" data-name="Group 3444"><g id="Group_3443" data-name="Group 3443"><path id="Path_2232" data-name="Path 2232" class="cls-1" d="M140.84,77.82A12.47,12.47,0,1,1,153.3,65.35,12.46,12.46,0,0,1,140.84,77.82Zm0-22.29A10.07,10.07,0,1,0,150.9,65.59,10.07,10.07,0,0,0,140.84,55.53Z"></path></g></g><g id="Group_3446" data-name="Group 3446"><g id="Group_3445" data-name="Group 3445"><path id="Path_2233" data-name="Path 2233" class="cls-1" d="M948.43,87.4a12.38,12.38,0,1,1,.17,0Zm0-22.28A10.07,10.07,0,1,0,958.5,75.18,10.05,10.05,0,0,0,948.43,65.12Z"></path></g></g><g id="Group_3450" data-name="Group 3450"><g id="Group_3449" data-name="Group 3449"><path id="Path_2235" data-name="Path 2235" class="cls-1" d="M107.29,259.94a12.38,12.38,0,1,1,.17,0Zm0-22.28a10.07,10.07,0,1,0,10.06,10.06A10.06,10.06,0,0,0,107.29,237.66Z"></path></g></g><g id="Group_3796" data-name="Group 3796"><g id="Group_3449-2" data-name="Group 3449-2"><path id="Path_2235-2" data-name="Path 2235-2" class="cls-1" d="M850.18,619.41a12.38,12.38,0,1,1,.17,0Zm0-22.29a10.07,10.07,0,1,0,10.06,10.06A10.07,10.07,0,0,0,850.18,597.12Z"></path></g></g><path class="cls-15" d="M533,150.67a.89.89,0,0,1-.87-.84V133.37a1.15,1.15,0,0,0-1.1-1.22h-4.25a.91.91,0,0,1-.81-.89.88.88,0,0,1,.81-.86h12.32a.82.82,0,0,1,.83.86.85.85,0,0,1-.83.89h-5.3v17.68a.88.88,0,0,1-.8.84"></path><path class="cls-15" d="M544.17,150.67a.84.84,0,0,1-.83-.84V131.26a.85.85,0,0,1,.83-.83h10.57a.86.86,0,0,1,.84.83.88.88,0,0,1-.84.89h-8.43a1.25,1.25,0,0,0-1.28,1.37v5h8.69a.88.88,0,0,1,0,1.75H545v9.57a.86.86,0,0,1-.86.84"></path><path class="cls-15" d="M572.91,149.29l-4.86-7.48a2.5,2.5,0,0,1-.31-1.3,2.91,2.91,0,0,1,.44-1.54l4.74-7.29a.88.88,0,0,0-.21-1.14.85.85,0,0,0-1.26.28l-5.26,8.11-5.27-8.11a.86.86,0,0,0-1.23-.3.88.88,0,0,0-.23,1.17l5.72,8.8-5.71,8.8a.84.84,0,1,0,1.4.94l5.32-8.19,5.31,8.19a.85.85,0,1,0,1.41-.94"></path><path class="cls-15" d="M524.16,150.68a.84.84,0,0,1-.74-.51l-6.23-14.75a.94.94,0,0,0-.78-.52,1.1,1.1,0,0,0-.92.7l-6.1,14.58a.85.85,0,0,1-1.11.41.82.82,0,0,1-.47-1.06L515.65,131a.79.79,0,0,1,.77-.54.91.91,0,0,1,.79.58L525,149.52a.82.82,0,0,1,0,.65.84.84,0,0,1-.43.42,1,1,0,0,1-.38.09"></path><path class="cls-15" d="M508.45,144.27a.93.93,0,0,1,0-1.86h11.69l.79,1.86Z"></path></g></g></svg>