<?xml version="1.0" encoding="UTF-8"?>
<svg xmlns="http://www.w3.org/2000/svg" viewBox="0 0 63.29 79.11">
  <defs>
    <style>.cls-1{fill:#4c4c4c;}.cls-2{fill:#ff8055;}</style>
  </defs>
  <g id="Слой_2" data-name="Слой 2">
    <g id="Layer_1" data-name="Layer 1">
      <path class="cls-1" d="M11.57,48.44H1a1,1,0,0,0-1,.9V78.22a1,1,0,0,0,1,.89H11.57a1,1,0,0,0,1-.89V49.34A1,1,0,0,0,11.57,48.44Z"></path>
      <path class="cls-2" d="M28.48,34.82H17.9a1,1,0,0,0-1,.9v42.5a1,1,0,0,0,1,.89H28.48a1,1,0,0,0,1-.89V35.72A1,1,0,0,0,28.48,34.82Z"></path>
      <path class="cls-1" d="M45.38,41.68H34.81a1,1,0,0,0-1,.9V78.22a1,1,0,0,0,1,.89H45.38a1,1,0,0,0,1-.89V42.58A1,1,0,0,0,45.38,41.68Z"></path>
      <path class="cls-2" d="M62.29,27.36H51.71a1,1,0,0,0-1,.89v50a1,1,0,0,0,1,.89H62.29a1,1,0,0,0,1-.89v-50A1,1,0,0,0,62.29,27.36Z"></path>
      <path class="cls-2" d="M6.29,37.64A6.24,6.24,0,1,0,.05,31.4,6.25,6.25,0,0,0,6.29,37.64Zm0-9.48A3.24,3.24,0,1,1,3.05,31.4,3.25,3.25,0,0,1,6.29,28.16Z"></path>
      <path class="cls-2" d="M57,12.48a6.24,6.24,0,1,0-6.24-6.24A6.25,6.25,0,0,0,57,12.48ZM57,3a3.24,3.24,0,1,1-3.24,3.24A3.24,3.24,0,0,1,57,3Z"></path>
      <rect class="cls-1" x="16.12" y="19.11" width="1.79" height="2" transform="translate(-9.21 17.6) rotate(-44.29)"></rect>
      <rect class="cls-1" x="13.55" y="21.62" width="1.79" height="2" transform="translate(-11.69 16.52) rotate(-44.29)"></rect>
      <rect class="cls-1" x="10.98" y="24.12" width="1.79" height="2" transform="translate(-14.16 15.43) rotate(-44.29)"></rect>
      <rect class="cls-1" x="30.73" y="18.92" width="2" height="1.57" transform="translate(-0.2 39.08) rotate(-63.08)"></rect>
      <rect class="cls-1" x="44.81" y="16.78" width="2" height="2" transform="translate(0.54 36.88) rotate(-44.09)"></rect>
      <rect class="cls-1" x="47.68" y="14" width="2" height="2" transform="translate(3.28 38.1) rotate(-44.09)"></rect>
      <rect class="cls-1" x="50.56" y="11.22" width="1.98" height="2" transform="translate(6.04 39.34) rotate(-44.13)"></rect>
      <rect class="cls-1" x="27.94" y="17.49" width="2" height="1.57" transform="translate(-0.46 35.81) rotate(-63.08)"></rect>
      <rect class="cls-1" x="33.53" y="20.32" width="2" height="1.57" transform="translate(0.08 42.33) rotate(-63.08)"></rect>
      <path class="cls-2" d="M40.09,30a6.24,6.24,0,1,0-6.23-6.24A6.24,6.24,0,0,0,40.09,30Zm0-9.48a3.24,3.24,0,1,1-3.23,3.24A3.24,3.24,0,0,1,40.09,20.49Z"></path>
      <path class="cls-2" d="M23.19,20.94A6.24,6.24,0,1,0,17,14.71,6.24,6.24,0,0,0,23.19,20.94Zm0-9.47A3.24,3.24,0,1,1,20,14.71,3.24,3.24,0,0,1,23.19,11.47Z"></path>
    </g>
  </g>
</svg>
