<svg xmlns="http://www.w3.org/2000/svg" xmlns:xlink="http://www.w3.org/1999/xlink" id="Group_9133" data-name="Group 9133" viewBox="0 0 124 41.45"><defs><clipPath id="clip-path"><rect id="Rectangle_23916" data-name="Rectangle 23916" width="124" height="41.45" fill="none"></rect></clipPath></defs><g id="Group_9132" data-name="Group 9132" transform="translate(0)" clip-path="url(#clip-path)"><path id="Path_18619" data-name="Path 18619" d="M114.126,0H9.88C9.5,0,9.125,0,8.746,0c-.317,0-.632.008-.952.013A13.726,13.726,0,0,0,5.717.2a6.908,6.908,0,0,0-1.97.65A6.674,6.674,0,0,0,2.07,2.07,6.482,6.482,0,0,0,.849,3.749,6.836,6.836,0,0,0,.2,5.722,13.472,13.472,0,0,0,.016,7.8c-.01.318-.011.636-.016.954V32.7c.005.322.006.633.016.955A13.469,13.469,0,0,0,.2,35.732a6.824,6.824,0,0,0,.648,1.973A6.424,6.424,0,0,0,2.07,39.378,6.5,6.5,0,0,0,3.747,40.6a6.948,6.948,0,0,0,1.97.654,13.93,13.93,0,0,0,2.076.183c.32.007.635.011.952.011.379,0,.754,0,1.134,0H114.126c.372,0,.751,0,1.123,0,.316,0,.639,0,.955-.011a13.741,13.741,0,0,0,2.073-.183,7.053,7.053,0,0,0,1.977-.654,6.5,6.5,0,0,0,1.676-1.221,6.628,6.628,0,0,0,1.225-1.673,6.842,6.842,0,0,0,.641-1.973,14.008,14.008,0,0,0,.192-2.074c0-.322,0-.633,0-.955.008-.376.008-.751.008-1.133V9.882c0-.38,0-.756-.008-1.131,0-.318,0-.637,0-.954a14.011,14.011,0,0,0-.192-2.074,6.864,6.864,0,0,0-.641-1.972,6.7,6.7,0,0,0-2.9-2.9A7.019,7.019,0,0,0,118.277.2,13.512,13.512,0,0,0,116.2.015c-.316-.005-.64-.011-.955-.013-.373,0-.751,0-1.123,0" fill="#a6a6a6"></path><path id="Path_18620" data-name="Path 18620" d="M11.369,43.167c-.316,0-.624,0-.937-.011A13.161,13.161,0,0,1,8.5,42.987a6.1,6.1,0,0,1-1.717-.568,5.6,5.6,0,0,1-1.448-1.053,5.517,5.517,0,0,1-1.057-1.447A5.933,5.933,0,0,1,3.711,38.2a12.865,12.865,0,0,1-.172-1.943c-.007-.219-.015-.946-.015-.946V11.374s.009-.716.015-.927a12.826,12.826,0,0,1,.172-1.94,5.968,5.968,0,0,1,.563-1.722A5.565,5.565,0,0,1,5.325,5.337a5.769,5.769,0,0,1,1.453-1.06,6.039,6.039,0,0,1,1.713-.564,13.033,13.033,0,0,1,1.943-.17l.935-.013H117.862l.946.013a12.837,12.837,0,0,1,1.926.168,6.154,6.154,0,0,1,1.731.568,5.8,5.8,0,0,1,2.5,2.508,5.972,5.972,0,0,1,.554,1.709,13.457,13.457,0,0,1,.18,1.956c0,.293,0,.609,0,.922.008.389.008.758.008,1.131V34.193c0,.376,0,.744-.008,1.114,0,.337,0,.646,0,.963a13.2,13.2,0,0,1-.177,1.921,5.94,5.94,0,0,1-.56,1.731,5.678,5.678,0,0,1-1.052,1.436,5.6,5.6,0,0,1-1.45,1.06,6.083,6.083,0,0,1-1.729.57,13.019,13.019,0,0,1-1.937.169c-.3.007-.621.011-.93.011l-1.123,0Z" transform="translate(-2.618 -2.624)"></path><path id="Path_18621" data-name="Path 18621" d="M55.576,62.947a5.128,5.128,0,0,1,2.442-4.3,5.248,5.248,0,0,0-4.136-2.236c-1.74-.183-3.427,1.041-4.314,1.041-.9,0-2.269-1.023-3.739-.993a5.508,5.508,0,0,0-4.635,2.827c-2,3.47-.509,8.569,1.41,11.374.961,1.373,2.083,2.908,3.552,2.853,1.437-.06,1.974-.917,3.709-.917,1.719,0,2.223.917,3.721.882,1.542-.025,2.514-1.379,3.441-2.766a11.37,11.37,0,0,0,1.573-3.2,4.955,4.955,0,0,1-3.025-4.559" transform="translate(-29.91 -41.911)" fill="#fff"></path><path id="Path_18622" data-name="Path 18622" d="M79.2,38.809a5.048,5.048,0,0,0,1.155-3.617,5.136,5.136,0,0,0-3.324,1.72,4.8,4.8,0,0,0-1.185,3.483A4.248,4.248,0,0,0,79.2,38.809" transform="translate(-56.361 -26.156)" fill="#fff"></path><path id="Path_18623" data-name="Path 18623" d="M142.7,80.742h3.888L144.673,75.1h-.054Zm4.4,1.605h-4.905l-1.178,3.478h-2.078l4.646-12.868h2.158l4.646,12.868h-2.113Z" transform="translate(-103.263 -54.224)" fill="#fff"></path><path id="Path_18624" data-name="Path 18624" d="M195.047,90.937c0-1.9-.982-3.148-2.479-3.148-1.471,0-2.461,1.275-2.461,3.148,0,1.89.99,3.156,2.461,3.156,1.5,0,2.479-1.24,2.479-3.156m1.979,0c0,2.915-1.56,4.788-3.915,4.788a3.18,3.18,0,0,1-2.952-1.641h-.045v4.647h-1.926V86.246h1.864v1.56h.035a3.328,3.328,0,0,1,2.987-1.658c2.381,0,3.951,1.882,3.951,4.789" transform="translate(-139.868 -64.027)" fill="#fff"></path><path id="Path_18625" data-name="Path 18625" d="M235.262,90.937c0-1.9-.982-3.148-2.479-3.148-1.471,0-2.461,1.275-2.461,3.148,0,1.89.99,3.156,2.461,3.156,1.5,0,2.479-1.24,2.479-3.156m1.979,0c0,2.915-1.56,4.788-3.915,4.788a3.181,3.181,0,0,1-2.952-1.641h-.045v4.647H228.4V86.246h1.864v1.56h.035a3.328,3.328,0,0,1,2.987-1.658c2.381,0,3.951,1.882,3.951,4.789" transform="translate(-169.757 -64.027)" fill="#fff"></path><path id="Path_18626" data-name="Path 18626" d="M283.7,81.618c.143,1.276,1.382,2.114,3.076,2.114,1.623,0,2.791-.838,2.791-1.988,0-1-.7-1.6-2.372-2.007l-1.668-.4c-2.363-.571-3.46-1.676-3.46-3.469,0-2.22,1.935-3.745,4.682-3.745,2.719,0,4.583,1.525,4.646,3.745h-1.944c-.116-1.284-1.178-2.059-2.729-2.059s-2.613.784-2.613,1.926c0,.91.678,1.445,2.337,1.855l1.418.348c2.64.624,3.737,1.685,3.737,3.567,0,2.407-1.918,3.915-4.968,3.915-2.854,0-4.78-1.472-4.9-3.8Z" transform="translate(-209.386 -53.603)" fill="#fff"></path><path id="Path_18627" data-name="Path 18627" d="M326.81,77.888v2.22h1.784v1.525H326.81v5.172c0,.8.357,1.178,1.142,1.178a6.076,6.076,0,0,0,.633-.045v1.516a5.3,5.3,0,0,1-1.07.089c-1.9,0-2.64-.714-2.64-2.533V81.633h-1.364V80.108h1.364v-2.22Z" transform="translate(-240.444 -57.889)" fill="#fff"></path><path id="Path_18628" data-name="Path 18628" d="M354.27,90.893c0-2.025-.928-3.22-2.488-3.22s-2.487,1.2-2.487,3.22c0,2.033.927,3.219,2.487,3.219s2.488-1.186,2.488-3.219m-6.938,0c0-2.952,1.739-4.807,4.45-4.807s4.451,1.855,4.451,4.807-1.721,4.807-4.451,4.807-4.45-1.847-4.45-4.807" transform="translate(-258.148 -63.982)" fill="#fff"></path><path id="Path_18629" data-name="Path 18629" d="M388.177,86.246h1.837v1.6h.045a2.237,2.237,0,0,1,2.256-1.695,2.973,2.973,0,0,1,.66.072v1.8a2.69,2.69,0,0,0-.865-.117,1.941,1.941,0,0,0-2.007,2.159v5.565h-1.926Z" transform="translate(-288.506 -64.027)" fill="#fff"></path><path id="Path_18630" data-name="Path 18630" d="M410.435,90.027h4.69A2.256,2.256,0,0,0,413,87.648c-.058,0-.116,0-.174,0a2.375,2.375,0,0,0-2.389,2.361Zm6.51,2.8c-.259,1.7-1.918,2.872-4.04,2.872-2.729,0-4.423-1.829-4.423-4.762s1.7-4.851,4.342-4.851c2.6,0,4.228,1.783,4.228,4.628v.66h-6.626v.117a2.443,2.443,0,0,0,2.218,2.649,2.379,2.379,0,0,0,.305.008,2.123,2.123,0,0,0,2.166-1.32Z" transform="translate(-303.597 -63.981)" fill="#fff"></path><path id="Path_18631" data-name="Path 18631" d="M142.975,37.885c0-2.005,1.067-3.244,2.785-3.244a2.47,2.47,0,0,1,2.571,2.143h-.956a1.59,1.59,0,0,0-1.615-1.247c-1.11,0-1.8.9-1.8,2.348s.694,2.344,1.808,2.344a1.549,1.549,0,0,0,1.611-1.14h.956a2.412,2.412,0,0,1-2.567,2.035c-1.718,0-2.789-1.238-2.789-3.239" transform="translate(-106.264 -25.744)" fill="#fff"></path><path id="Path_18632" data-name="Path 18632" d="M171.35,43.212c0-1.011-.455-1.6-1.252-1.6s-1.251.592-1.251,1.6.45,1.607,1.251,1.607,1.252-.591,1.252-1.607m-3.454,0a2.211,2.211,0,1,1,0,.429,2.211,2.211,0,0,1,0-.429" transform="translate(-124.778 -30.317)" fill="#fff"></path><path id="Path_18633" data-name="Path 18633" d="M189.878,40.869h.886v.741h.069a1.4,1.4,0,0,1,1.392-.831,1.518,1.518,0,0,1,1.615,1.735v3.021h-.921V42.745c0-.75-.326-1.123-1.007-1.123a1.07,1.07,0,0,0-1.119,1.019,1.085,1.085,0,0,0,0,.163v2.73h-.921Z" transform="translate(-141.123 -30.305)" fill="#fff"></path><path id="Path_18634" data-name="Path 18634" d="M211.907,40.792c1.049,0,1.736.488,1.826,1.311h-.884c-.085-.343-.42-.561-.942-.561s-.9.244-.9.608c0,.279.236.454.742.57l.775.179c.888.206,1.3.587,1.3,1.273,0,.878-.819,1.465-1.933,1.465s-1.834-.5-1.916-1.328h.922a.946.946,0,0,0,1.015.582c.574,0,.982-.257.982-.63,0-.278-.219-.458-.686-.57l-.814-.189c-.887-.21-1.3-.608-1.3-1.3,0-.827.758-1.41,1.812-1.41" transform="translate(-156.059 -30.318)" fill="#fff"></path><path id="Path_18635" data-name="Path 18635" d="M229.585,34.618h.917v4.666h-.917Zm-.1-.78,1.076-1.474h1.08l-1.2,1.474Z" transform="translate(-170.564 -24.054)" fill="#fff"></path><path id="Path_18636" data-name="Path 18636" d="M241.753,43.19c0-.93-.481-1.525-1.265-1.525s-1.238.6-1.238,1.525.445,1.526,1.238,1.526,1.265-.591,1.265-1.526m-3.27,2.858h.942c.078.338.468.557,1.089.557.767,0,1.221-.364,1.221-.981v-.9h-.069a1.569,1.569,0,0,1-1.44.784c-1.191,0-1.928-.921-1.928-2.318,0-1.423.745-2.357,1.937-2.357a1.617,1.617,0,0,1,1.465.823h.073v-.745h.883v4.7c0,1.067-.836,1.744-2.156,1.744-1.166,0-1.92-.523-2.018-1.315" transform="translate(-177.112 -30.351)" fill="#fff"></path><path id="Path_18637" data-name="Path 18637" d="M264.747,45.808h-.887v-.741h-.073a1.4,1.4,0,0,1-1.41.831,1.516,1.516,0,0,1-1.619-1.4,1.538,1.538,0,0,1,.012-.323V41.142h.923v2.79c0,.754.3,1.114.981,1.114a1.059,1.059,0,0,0,1.153-1.174V41.142h.922Z" transform="translate(-193.801 -30.578)" fill="#fff"></path><path id="Path_18638" data-name="Path 18638" d="M282,42.785h2.357a1.126,1.126,0,0,0-1.039-1.206c-.036,0-.073,0-.109,0A1.194,1.194,0,0,0,282,42.755Zm3.239,1.5a1.894,1.894,0,0,1-2.022,1.35,2.12,2.12,0,0,1-2.175-2.063,2.165,2.165,0,0,1,.019-.346,2.151,2.151,0,0,1,2.151-2.438c1.3,0,2.082.887,2.082,2.352v.321H282v.052a1.233,1.233,0,0,0,1.126,1.332c.039,0,.078,0,.117,0a1.118,1.118,0,0,0,1.11-.566Z" transform="translate(-208.878 -30.318)" fill="#fff"></path><rect id="Rectangle_23914" data-name="Rectangle 23914" width="0.921" height="6.488" transform="translate(77.694 8.743)" fill="#fff"></rect><path id="Path_18639" data-name="Path 18639" d="M314.58,43.212c0-1.011-.454-1.6-1.252-1.6s-1.251.592-1.251,1.6.45,1.607,1.251,1.607,1.252-.591,1.252-1.607m-3.454,0a2.211,2.211,0,1,1,0,.429,2.211,2.211,0,0,1,0-.429" transform="translate(-231.231 -30.317)" fill="#fff"></path><path id="Path_18640" data-name="Path 18640" d="M342.946,42.785H345.3a1.126,1.126,0,0,0-1.04-1.206c-.036,0-.073,0-.109,0a1.193,1.193,0,0,0-1.208,1.178q0,.015,0,.031Zm3.239,1.5a1.894,1.894,0,0,1-2.022,1.35,2.12,2.12,0,0,1-2.175-2.063,2.155,2.155,0,0,1,.019-.346,2.151,2.151,0,0,1,2.151-2.438c1.3,0,2.082.887,2.082,2.352v.321h-3.295v.052a1.233,1.233,0,0,0,1.125,1.332c.039,0,.078,0,.117,0a1.119,1.119,0,0,0,1.11-.566Z" transform="translate(-254.177 -30.318)" fill="#fff"></path><path id="Path_18641" data-name="Path 18641" d="M363.368,40.869h.886v.741h.069a1.4,1.4,0,0,1,1.392-.831,1.518,1.518,0,0,1,1.615,1.735v3.021h-.921V42.745c0-.75-.326-1.123-1.007-1.123a1.072,1.072,0,0,0-1.114,1.183v2.73h-.921Z" transform="translate(-270.067 -30.305)" fill="#fff"></path><path id="Path_18642" data-name="Path 18642" d="M394.184,42.785h2.357a1.126,1.126,0,0,0-1.039-1.206c-.036,0-.073,0-.109,0a1.193,1.193,0,0,0-1.208,1.178c0,.01,0,.02,0,.031Zm3.239,1.5a1.894,1.894,0,0,1-2.022,1.35,2.12,2.12,0,0,1-2.175-2.063,2.165,2.165,0,0,1,.019-.346,2.151,2.151,0,0,1,2.151-2.438c1.3,0,2.082.887,2.082,2.352v.321h-3.295v.052a1.233,1.233,0,0,0,1.125,1.332c.039,0,.078,0,.117,0a1.119,1.119,0,0,0,1.11-.566Z" transform="translate(-292.259 -30.318)" fill="#fff"></path><rect id="Rectangle_23915" data-name="Rectangle 23915" width="0.921" height="6.488" transform="translate(106.5 8.743)" fill="#fff"></rect></g></svg>