<?xml version="1.0" encoding="UTF-8"?>
<svg xmlns="http://www.w3.org/2000/svg" viewBox="0 0 77.36 77.36">
  <defs>
    <style>.cls-1{fill:#4c4c4c;}.cls-2{fill:#ff8055;}</style>
  </defs>
  <g id="Слой_2" data-name="Слой 2">
    <g id="Layer_1" data-name="Layer 1">
      <path class="cls-1" d="M75.93,65.9H11.46V1.43a1.43,1.43,0,1,0-2.86,0V65.9H1.43a1.44,1.44,0,0,0,0,2.87H8.6v7.16a1.43,1.43,0,0,0,2.86,0V68.77H75.93a1.44,1.44,0,0,0,0-2.87Z"></path>
      <polygon class="cls-2" points="14.33 0 14.33 11.46 63.04 11.46 77.36 11.46 77.36 0 14.33 0"></polygon>
      <path class="cls-2" d="M70.2,18.62a7.15,7.15,0,0,1-2.9,5.74H77.36V12.89H67.3A7.15,7.15,0,0,1,70.2,18.62Z"></path>
      <path class="cls-2" d="M58.57,24.36l2-3.95a3.07,3.07,0,1,1,2.57,1.28l-1.34,2.67h1.61l.8-1.61a4.29,4.29,0,1,0-5.44-4.13,4.16,4.16,0,0,0,.31,1.58l-1.5,3a7.07,7.07,0,0,1,1.23-10.29H14.33V24.36H58.57Z"></path>
      <path class="cls-2" d="M30.34,33.12a3,3,0,0,1-.46-1.6,3.07,3.07,0,0,1,6.14,0A2.61,2.61,0,0,1,36,32l7,5.25h9.14l5.73-11.46H37.21a7.12,7.12,0,0,1,2.9,5.73,7.44,7.44,0,0,1-.2,1.64l-2.7-2a4.29,4.29,0,0,0-8.56.39,4.19,4.19,0,0,0,.22,1.28l-1.72,2.9a7.11,7.11,0,0,1,1.54-9.91H14.33V37.25H27.9Z"></path>
      <path class="cls-2" d="M33,34.59l-.14,0-1.58,2.68h1.66l.9-1.52h0l2,1.52H38.2l-3.94-3A3,3,0,0,1,33,34.59Z"></path>
      <polygon class="cls-2" points="61.06 25.79 55.33 37.25 77.36 37.25 77.36 25.79 63.04 25.79 61.06 25.79"></polygon>
      <polygon class="cls-2" points="27.05 38.68 14.33 38.68 14.33 50.14 20.28 50.14 27.05 38.68"></polygon>
      <path class="cls-2" d="M52.64,42.63a3.07,3.07,0,1,1-5.57,1.78,3.56,3.56,0,0,1,0-.47l-7-5.26H30.38L23.61,50.14H45.88A7.12,7.12,0,0,1,43,44.41a6.74,6.74,0,0,1,.21-1.63l2.69,2a4.29,4.29,0,0,0,8.56-.39,4.15,4.15,0,0,0-.31-1.57l1.5-3A7.07,7.07,0,0,1,54.4,50.14h23V38.68H54.61Z"></path>
      <path class="cls-2" d="M49.12,40.06l-1.84-1.38H44.89l4,3a3.13,3.13,0,0,1,1.23-.29l1.34-2.67H49.8Z"></path>
      <polygon class="cls-2" points="14.33 51.58 14.33 60.22 19.43 51.58 14.33 51.58"></polygon>
      <polygon class="cls-2" points="22.76 51.58 15.99 63.04 77.36 63.04 77.36 51.58 50.14 51.58 22.76 51.58"></polygon>
    </g>
  </g>
</svg>
