<svg xmlns="http://www.w3.org/2000/svg" viewBox="0 0 56 56"><g id="icon-light-bulb1a" transform="translate(-2330 -3635)"><rect id="Rectangle_20281" data-name="Rectangle 20281" width="56" height="56" transform="translate(2330 3635)" fill="#850000" opacity="0"></rect><g id="Group_5552" data-name="Group 5552" transform="translate(2333 3635)"><g id="Group_5549" data-name="Group 5549"><g id="Group_5249" data-name="Group 5249" transform="translate(0 0)"><path id="Path_4603" data-name="Path 4603" d="M28199.289,7037.641a.587.587,0,0,0,.279.047.676.676,0,0,0,.613-.376,15,15,0,0,1,9.514-8.432.714.714,0,1,0-.42-1.366,16.543,16.543,0,0,0-10.365,9.232A.674.674,0,0,0,28199.289,7037.641Z" transform="translate(-28186.625 -7015.491)" fill="#0f2c52" fill-rule="evenodd"></path><path id="Path_4604" data-name="Path 4604" d="M28747.328,6807.533a1.86,1.86,0,0,0,1.414.188,1.887,1.887,0,0,0,1.369-2.308,2.07,2.07,0,0,0-.895-1.178,2.135,2.135,0,0,0-.945-.235,1.959,1.959,0,0,0-.518.047,1.934,1.934,0,0,0-1.127.9h0a1.722,1.722,0,0,0-.187,1.46A1.77,1.77,0,0,0,28747.328,6807.533Z" transform="translate(-28711.408 -6800.693)" fill="#ff8055" fill-rule="evenodd"></path><path id="Path_4605" data-name="Path 4605" d="M28960.611,7018.579a1.928,1.928,0,0,0,.705-2.637,1.716,1.716,0,0,0-1.131-.848,2.015,2.015,0,0,0-.516-.094,1.7,1.7,0,0,0-.943.283,1.9,1.9,0,0,0,1.885,3.3Z" transform="translate(-28914.598 -7003.322)" fill="#ff8055" fill-rule="evenodd"></path><path id="Path_4606" data-name="Path 4606" d="M27959.744,7593.047a1.592,1.592,0,0,0-.471-.047,2.547,2.547,0,0,0-.99.235h0a1.934,1.934,0,0,0-.846,1.178,1.782,1.782,0,0,0,.189,1.46,1.707,1.707,0,0,0,1.129.848,1.774,1.774,0,0,0,1.461-.188,1.731,1.731,0,0,0,.85-1.131,1.8,1.8,0,0,0-.189-1.459A1.954,1.954,0,0,0,27959.744,7593.047Z" transform="translate(-27954.303 -7557.316)" fill="#ff8055" fill-rule="evenodd"></path><circle id="Ellipse_86" data-name="Ellipse 86" cx="1.718" cy="1.718" r="1.718" transform="translate(46.836 23.249)" fill="#ff8055"></circle><circle id="Ellipse_87" data-name="Ellipse 87" cx="1.718" cy="1.718" r="1.718" transform="translate(0 23.249)" fill="#ff8055"></circle><path id="Path_4607" data-name="Path 4607" d="M28958.975,7596.533a1.742,1.742,0,0,0,1.459.188,1.724,1.724,0,0,0,1.131-.848,1.8,1.8,0,0,0,.188-1.46,2.019,2.019,0,0,0-.893-1.178h0a2.154,2.154,0,0,0-.945-.235,1.92,1.92,0,0,0-1.648.942,2.253,2.253,0,0,0-.187,1.459A1.944,1.944,0,0,0,28958.975,7596.533Z" transform="translate(-28914.844 -7557.316)" fill="#ff8055" fill-rule="evenodd"></path><path id="Path_4608" data-name="Path 4608" d="M27958.436,7018.579a1.908,1.908,0,0,0,2.592-.706,1.866,1.866,0,0,0-.662-2.591,1.809,1.809,0,0,0-.939-.283,2.06,2.06,0,0,0-.52.094,1.733,1.733,0,0,0-1.133.848A1.962,1.962,0,0,0,27958.436,7018.579Z" transform="translate(-27954.453 -7003.322)" fill="#ff8055" fill-rule="evenodd"></path><path id="Path_4609" data-name="Path 4609" d="M28170.2,6807.721a1.861,1.861,0,0,0,1.414-.188,1.889,1.889,0,0,0-.945-3.533,2.13,2.13,0,0,0-.939.235,1.918,1.918,0,0,0-.709,2.591A1.871,1.871,0,0,0,28170.2,6807.721Z" transform="translate(-28157.461 -6800.693)" fill="#ff8055" fill-rule="evenodd"></path><circle id="Ellipse_88" data-name="Ellipse 88" cx="1.718" cy="1.718" r="1.718" transform="translate(22.92 0)" fill="#ff8055"></circle><rect id="Rectangle_20149" data-name="Rectangle 20149" width="14" height="8" rx="2" transform="translate(18.023 48)" fill="#ff8055"></rect><path id="Path_4602" data-name="Path 4602" d="M28053.4,6945.605v3.988h15.055v-3.988a17.931,17.931,0,1,0-15.055,0Zm4.457,3.988h0Z" transform="translate(-28035.912 -6902.652)" fill="#4c4c4c" fill-rule="evenodd"></path></g><path id="Path_5142" data-name="Path 5142" d="M.529,12.482a.736.736,0,0,0,.345.058.833.833,0,0,0,.756-.464,18.427,18.427,0,0,1,11.7-10.366.919.919,0,0,0,.583-1.1.92.92,0,0,0-1.1-.579A20.323,20.323,0,0,0,.069,11.381.826.826,0,0,0,.529,12.482Z" transform="translate(39.642 12.354) rotate(90)" fill="#fff" fill-rule="evenodd"></path><rect id="Rectangle_20150" data-name="Rectangle 20150" width="18" height="13" rx="2" transform="translate(16.025 37)" fill="#4c4c4c"></rect></g></g></g></svg>