<svg xmlns="http://www.w3.org/2000/svg" xmlns:xlink="http://www.w3.org/1999/xlink" viewBox="0 0 186 181.466"><defs><linearGradient id="linear-gradient" x1="-717.036" y1="0.5" x2="-704.994" y2="0.5" gradientUnits="objectBoundingBox"><stop offset="0" stop-color="#cee9df"></stop><stop offset="1" stop-color="#a1dae5"></stop></linearGradient><linearGradient id="linear-gradient-2" x1="0.249" y1="0.5" x2="0.751" y2="0.5" xlink:href="#linear-gradient"></linearGradient></defs><g id="Group_4728" data-name="Group 4728" transform="translate(-1037 -1044.178)"><g id="Group_4639" data-name="Group 4639" transform="translate(1175.656 1044.177)"><g id="Group_4638" data-name="Group 4638" transform="translate(0.131 13.465)"><rect id="Rectangle_2802" data-name="Rectangle 2802" width="0.654" height="34.242" fill="#052241"></rect></g><path id="Path_3711" data-name="Path 3711" d="M5558.755,260.131l23.072,11.6L5558.755,286.3Z" transform="translate(-5558.755 -260.131)" fill="#f2672a"></path></g><g id="Group_4642" data-name="Group 4642" transform="translate(1062.156 1070.858)"><path id="Path_3712" data-name="Path 3712" d="M4735.687,521.54c-.313-.887-3.416-2.713-7.212-4.036a34.907,34.907,0,0,0-.9-10.169c3.2-1.461,6.415-3.336,6.682-5.056.541-3.489-4.778-11.484-6.128-12.128-.864-.413-4.463.531-8.152,2.343a34.923,34.923,0,0,0-7.639-6.625c1.232-3.3,2.189-6.918,1.16-8.326-2.084-2.85-11.5-4.741-12.909-4.243-.885.313-2.7,3.4-4.024,7.175a34.91,34.91,0,0,0-10.341.593c-1.437-3.08-3.238-6.08-4.9-6.338-3.489-.542-11.484,4.779-12.128,6.129-.384.8.4,3.972,1.973,7.379a34.961,34.961,0,0,0-7.249,8.053c-3.005-1.044-6.064-1.729-7.332-.8-2.851,2.084-4.742,11.5-4.243,12.91.281.794,2.8,2.344,6.054,3.609a34.884,34.884,0,0,0,.7,11.246c-2.693,1.344-5.091,2.931-5.319,4.4-.542,3.489,4.779,11.484,6.129,12.129.742.355,3.507-.294,6.613-1.634a34.924,34.924,0,0,0,8.655,7.391c-.95,2.846-1.516,5.651-.639,6.851,2.084,2.85,11.5,4.741,12.91,4.243.8-.282,2.351-2.814,3.619-6.078a34.943,34.943,0,0,0,11.053-1.041c1.381,2.84,3.048,5.45,4.588,5.689,3.49.542,11.485-4.779,12.129-6.129.385-.807-.414-4-2-7.429a34.933,34.933,0,0,0,6.742-8.19c3.17,1.147,6.521,1.971,7.863.989C4734.3,532.365,4736.185,522.95,4735.687,521.54Zm-47.214,8.871a15.718,15.718,0,1,1,19.839-10.025A15.718,15.718,0,0,1,4688.472,530.411Z" transform="translate(-4652.269 -473.221)" fill="#f2672a"></path><g id="Group_4640" data-name="Group 4640" transform="translate(18.968 19.597)"><path id="Path_3713" data-name="Path 3713" d="M4819.143,673.352a22.368,22.368,0,1,1,28.231-14.267A22.394,22.394,0,0,1,4819.143,673.352Zm13.866-42.2a22.051,22.051,0,1,0,14.064,27.833A22.076,22.076,0,0,0,4833.009,631.152Z" transform="translate(-4803.754 -629.731)" fill="#fff"></path></g><g id="Group_4641" data-name="Group 4641" transform="translate(9.547 9.876)"><path id="Path_3714" data-name="Path 3714" d="M4792.486,837.091c-.135-.062-.269-.126-.4-.194a32.062,32.062,0,0,1-63.128,4.124h0c-.147-.015-.292-.035-.437-.06a32.478,32.478,0,0,0,63.969-3.869Z" transform="translate(-4728.517 -801.238)" fill="#fff"></path><path id="Path_3715" data-name="Path 3715" d="M4895.407,554.381a31.9,31.9,0,0,1,20.726-.262c.138.045.27.1.406.145-.005-.147,0-.3,0-.443-.093-.031-.182-.067-.275-.1a32.31,32.31,0,0,0-20.913.236C4895.37,554.1,4895.391,554.24,4895.407,554.381Z" transform="translate(-4874.46 -552.1)" fill="#fff"></path></g></g><g id="Group_4645" data-name="Group 4645" transform="translate(1156.562 1130.35)"><path id="Path_3716" data-name="Path 3716" d="M5417.528,956.748c-.254.694.71,3.352,2.347,6.052a27.445,27.445,0,0,0-4.543,6.609c-2.667-.715-5.554-1.19-6.576-.282-2.075,1.842-2.853,9.345-2.358,10.411.317.682,2.968,1.911,6.107,2.66a27.45,27.45,0,0,0,1.312,7.834c-2.4,1.382-4.788,3.094-4.869,4.461-.165,2.769,4.592,8.625,5.695,9.029.691.253,3.335-.7,6.026-2.332a27.416,27.416,0,0,0,6.559,4.815c-.671,2.584-1.082,5.3-.207,6.288,1.842,2.074,9.346,2.853,10.412,2.358.635-.295,1.743-2.608,2.5-5.456a27.451,27.451,0,0,0,8.419-1.249c1.3,2.137,2.809,4.082,4.04,4.155,2.769.164,8.625-4.591,9.028-5.695.228-.622-.522-2.821-1.858-5.215a27.438,27.438,0,0,0,5.206-7.158c2.3.534,4.549.772,5.425-.006,2.074-1.842,2.853-9.346,2.358-10.411-.272-.587-2.272-1.577-4.823-2.32a27.448,27.448,0,0,0-1.542-8.807c2-1.248,3.745-2.663,3.814-3.829.164-2.769-4.591-8.625-5.694-9.029-.623-.228-2.833.528-5.233,1.87a27.446,27.446,0,0,0-7.215-4.9c.584-2.411.883-4.825.069-5.741-1.841-2.074-9.345-2.853-10.411-2.358-.637.3-1.753,2.631-2.508,5.5a27.419,27.419,0,0,0-8.181,1.586c-1.346-2.281-2.962-4.457-4.267-4.534C5423.788,950.889,5417.931,955.644,5417.528,956.748ZM5450.558,975a12.347,12.347,0,1,1-17.031-3.857A12.347,12.347,0,0,1,5450.558,975Z" transform="translate(-5406.254 -948.359)" fill="#e0e1e1"></path><g id="Group_4643" data-name="Group 4643" transform="translate(16.01 15.725)"><path id="Path_3717" data-name="Path 3717" d="M5566.547,1082.144a17.572,17.572,0,1,1-24.237-5.489A17.591,17.591,0,0,1,5566.547,1082.144Zm-29.513,18.615a17.322,17.322,0,1,0,5.41-23.892A17.341,17.341,0,0,0,5537.034,1100.759Z" transform="translate(-5534.117 -1073.951)" fill="#fff"></path></g><g id="Group_4644" data-name="Group 4644" transform="translate(12.151 7.605)"><path id="Path_3718" data-name="Path 3718" d="M5533.833,1016.4c.05.105.1.211.145.318a25.187,25.187,0,0,1,40.292,29.091v0q.122.124.234.255a25.512,25.512,0,0,0-40.672-29.667Z" transform="translate(-5530.01 -1009.093)" fill="#fff"></path><path id="Path_3719" data-name="Path 3719" d="M5516.373,1328.372a25.057,25.057,0,0,1-12.682-10.213c-.061-.1-.114-.194-.173-.291-.07.092-.146.18-.221.269.04.065.077.132.118.2a25.383,25.383,0,0,0,12.782,10.323C5516.253,1328.561,5516.313,1328.466,5516.373,1328.372Z" transform="translate(-5503.297 -1279.207)" fill="#fff"></path></g></g><g id="Group_4649" data-name="Group 4649" transform="translate(1037 1140.544)"><path id="Path_3720" data-name="Path 3720" d="M4800.5,1092.083s23.424-22.427,24.143-38.887a10.271,10.271,0,0,0-15.052-9.478c-20.746,10.406-12.578,47.345-12.578,47.345Z" transform="translate(-4752.346 -1040.963)" fill="#123354"></path><g id="Group_4646" data-name="Group 4646" transform="translate(46.011 2.36)"><path id="Path_3721" data-name="Path 3721" d="M4819.778,1100.214l-.947-.083c.145-1.666,3.507-40.741,19.927-51.511l.965.448C4823.689,1059.587,4819.813,1099.811,4819.778,1100.214Z" transform="translate(-4818.832 -1048.621)" fill="#fff"></path></g><path id="Path_3722" data-name="Path 3722" d="M4467.878,1069.521a42.631,42.631,0,0,1-11.954-8.839,18.12,18.12,0,0,1,3.184-26.856c4.944-3.484,12.005-5.767,21.271-2.418,20.364,7.363,20.008,54.171,20.008,54.171l-6.67,3.184S4489.683,1080.96,4467.878,1069.521Z" transform="translate(-4451.361 -1029.771)" fill="#e0e1e1"></path><path id="Path_3723" data-name="Path 3723" d="M4493.955,1369.975s-21.476,5.047-32.11-8.152a8,8,0,0,1,3.243-12.329c24.676-10.272,36.3,16.933,36.3,16.933Z" transform="translate(-4459.031 -1307.434)" fill="#123354"></path><g id="Group_4647" data-name="Group 4647" transform="translate(4.519 6.155)"><path id="Path_3724" data-name="Path 3724" d="M4528.421,1130.392l-.928.2c-.093-.426-10-42.69-40.042-50.859l.75-.806C4518.8,1087.252,4528.328,1129.961,4528.421,1130.392Z" transform="translate(-4487.451 -1078.931)" fill="#fff"></path></g><g id="Group_4648" data-name="Group 4648" transform="translate(1.1 47.324)"><path id="Path_3725" data-name="Path 3725" d="M4498.324,1421.131c-.242-.164-24.51-16.251-38.181-11.37l.09-1.052c14.125-5.044,37.621,10.955,38.625,11.635Z" transform="translate(-4460.143 -1407.728)" fill="#fff"></path></g></g><path id="Path_3726" data-name="Path 3726" d="M4690.98,580.481h-.507l-.255.25v-.25h-27.954V606.82h-27.956v27.545h-27.954v27.563H4578.4v27.545h-27.953v27.954H4691.23ZM4578.4,689.882h.211l-.211.206Z" transform="translate(-3501.042 503.807)" fill="#b4d5df"></path><g id="Group_4651" data-name="Group 4651" transform="translate(1190.157 1181.773)"><path id="Path_3727" data-name="Path 3727" d="M5694.144,1359.053c-8.686.139-15.083,6.02-19.579,12.785v20.071c8.54-3.476,23.178-10.508,27.98-19.453A9.135,9.135,0,0,0,5694.144,1359.053Z" transform="translate(-5674.565 -1359.052)" fill="#123354"></path><g id="Group_4650" data-name="Group 4650" transform="translate(0 3.041)"><path id="Path_3728" data-name="Path 3728" d="M5701.263,1383.342c-9.811,1.3-19.771,11.5-26.7,20.324v1.657c7.031-8.991,17.457-19.947,27.3-21.249Z" transform="translate(-5674.565 -1383.342)" fill="#fff"></path></g></g><g id="Group_4660" data-name="Group 4660" transform="translate(1085.503 1071.325)"><g id="Group_4652" data-name="Group 4652" transform="translate(37.587 4.512)"><path id="Path_3729" data-name="Path 3729" d="M5142.078,516.195l1.318-1.1a.434.434,0,0,0,.146-.4l-.056-.353a.431.431,0,0,0-.173-.281l-1.369-1a.432.432,0,0,0-.537.021l-.16.137a.439.439,0,0,0-.149.287l-.205,2.123Z" transform="translate(-5140.646 -512.98)" fill="#f99e75"></path><path id="Path_3730" data-name="Path 3730" d="M5139.175,520.328l-.241-1.5a.414.414,0,0,1,.438-.479l.658.046c.175.012.583.871.583.871s-.526.459-.818-.366a.654.654,0,0,1-.326.062,1.862,1.862,0,0,1,.56,1.771Z" transform="translate(-5138.928 -517.677)" fill="#f4876e"></path></g><path id="Path_3731" data-name="Path 3731" d="M5052.3,532.5a121.072,121.072,0,0,1-4.8,11.377c-1.714,3.03-7.057,7.947-7.057,7.947l-2.485-6.746s4.8-2.341,7.172-4.838,5.572-8.654,5.572-8.654Z" transform="translate(-5013.011 -524.747)" fill="#e0e1e1"></path><g id="Group_4653" data-name="Group 4653" transform="translate(10.564 0)"><path id="Path_3732" data-name="Path 3732" d="M4923.918,479.771l-.767-1.537a.431.431,0,0,1,.025-.423l.193-.3a.432.432,0,0,1,.271-.188l1.653-.366a.435.435,0,0,1,.484.234l.091.19a.437.437,0,0,1,.021.323l-.662,2.027Z" transform="translate(-4923.108 -476.945)" fill="#f99e75"></path><path id="Path_3733" data-name="Path 3733" d="M4933.43,484.392l.822-1.277a.415.415,0,0,0-.21-.614l-.621-.222c-.166-.059-.884.565-.884.565s.3.632.9-.007a.657.657,0,0,0,.274.187,1.861,1.861,0,0,0-1.223,1.4Z" transform="translate(-4931.311 -481.607)" fill="#f99e75"></path></g><g id="Group_4654" data-name="Group 4654" transform="translate(0 54.175)"><path id="Path_3734" data-name="Path 3734" d="M4841.249,912.358a8.76,8.76,0,0,0-1.654,3.6c-.141.551.047,1.144-.861,1.144v-3.034l.437-2.524h-.437v-1.363s2.229-.38,2.515.416Z" transform="translate(-4838.734 -910.029)" fill="#052241"></path><path id="Path_3735" data-name="Path 3735" d="M4858.5,911.791l-1.6.153h0a1.541,1.541,0,0,1-.056-1.67l.056-.094,1.6-.566Z" transform="translate(-4854.386 -909.615)" fill="#f99e75"></path></g><path id="Path_3736" data-name="Path 3736" d="M4883.963,752.172a32.151,32.151,0,0,0-1.341,11.667,3.2,3.2,0,0,1-2.625,3.393c-4.93.928-10.561,4.542-10.561,4.542v2.516s15.239-1.372,18.418-3.544,4.678-16.35,4.678-16.35Z" transform="translate(-4865.591 -717.711)" fill="#123354"></path><path id="Path_3737" data-name="Path 3737" d="M4940.668,515.179c3.456,2.287,1.879,16.35,1.879,16.35L4932,530.272l1.143-10.4s-4.8-5.85-5.716-10.129a99.243,99.243,0,0,1-1.373-11.024H4928s2.171,8.795,3.544,11.024,5.946,5.383,5.946,5.383Z" transform="translate(-4915.118 -495.988)" fill="#e0e1e1"></path><g id="Group_4655" data-name="Group 4655" transform="translate(26.49 20.283)"><path id="Path_3738" data-name="Path 3738" d="M5051.147,653.969c.154-1.519,1.017-11.009-.846-14.784.043-.083.084-.167.125-.251,2.089,3.914,1.051,14.127.936,15.2C5051.291,654.077,5051.218,654.024,5051.147,653.969Z" transform="translate(-5050.301 -638.934)" fill="url(#linear-gradient)"></path></g><g id="Group_4656" data-name="Group 4656" transform="translate(37.093 62.858)"><path id="Path_3739" data-name="Path 3739" d="M5137.721,991.754a8.76,8.76,0,0,0,3.6,1.654c.55.14,1.145-.047,1.145.861h-3.035l-2.524-.436v.436h-1.362s-.38-2.229.416-2.515Z" transform="translate(-5135.392 -990.153)" fill="#052241"></path><path id="Path_3740" data-name="Path 3740" d="M5137.155,978.967l.153,1.6h0a1.54,1.54,0,0,1-1.669.056l-.094-.056-.566-1.6Z" transform="translate(-5134.979 -978.967)" fill="#f99e75"></path></g><g id="Group_4659" data-name="Group 4659" transform="translate(20.532 10.433)"><g id="Group_4657" data-name="Group 4657" transform="translate(2.706 6.579)"><path id="Path_3741" data-name="Path 3741" d="M5024.323,614.781l.461-1.966,2.259.252.168,2.337a.394.394,0,0,1-.047.047A6.427,6.427,0,0,0,5024.323,614.781Z" transform="translate(-5024.323 -612.814)" fill="#f99e75"></path></g><g id="Group_4658" data-name="Group 4658"><path id="Path_3742" data-name="Path 3742" d="M5018.116,580.936l.593,3.093a.486.486,0,0,1,.519.551.607.607,0,0,1,.083.222,3.609,3.609,0,0,0,2.867.26c1.918-.652.2-4.3.2-4.3Z" transform="translate(-5016.187 -578.198)" fill="#f99e75"></path><path id="Path_3743" data-name="Path 3743" d="M5003.976,565.484a1.936,1.936,0,0,0-.62-.793c-1.25-.81-.351-1.654-.028-1.93.357-.306.181-1.006.633-1.474.689-.714,1.524-.19,2.007-.351s.7-.864,1.468-.615.769.826,1.034,1.033.6-.513,1.406.143c1.229,1-.8,1.781-.8,1.781a3.842,3.842,0,0,1-2.685.251.5.5,0,0,0-.567.226c-.294.547.064,3.146.064,3.146l-.567-.351A1.423,1.423,0,0,1,5003.976,565.484Z" transform="translate(-5002.712 -560.268)" fill="#052241"></path><path id="Path_3744" data-name="Path 3744" d="M5022.077,597.573a.483.483,0,1,0,.174-.66A.482.482,0,0,0,5022.077,597.573Z" transform="translate(-5019.595 -592.266)" fill="#f99e75"></path></g></g><path id="Path_3745" data-name="Path 3745" d="M4983.771,752.009s7.635,7.269,8.318,9.047,3.542,18.395,3.542,18.395h-2.172s-4.357-7.081-5.691-12.642a5.718,5.718,0,0,0-3.872-4.124c-12.026-3.726-10.675-11.934-10.675-11.934Z" transform="translate(-4956.341 -716.468)" fill="#123354"></path><path id="Path_3746" data-name="Path 3746" d="M5022.952,621.267l.046,1.071-3.495-.7.733-1.167Z" transform="translate(-4996.87 -602.502)" fill="#e0e1e1"></path></g><g id="Group_4667" data-name="Group 4667" transform="translate(1198.765 1093.219)"><g id="Group_4661" data-name="Group 4661" transform="translate(0 0)"><path id="Path_3747" data-name="Path 3747" d="M5756.39,667.4l1.579,3.105-3.316-.757-11.344-3.575Z" transform="translate(-5743.309 -664.379)" fill="#c1c1c0"></path><path id="Path_3748" data-name="Path 3748" d="M5821.034,693.421l-5.634-.35,1.381-.7Z" transform="translate(-5806.374 -687.29)" fill="#c1c1c0"></path><path id="Path_3749" data-name="Path 3749" d="M5756.39,654.831l.986-3.025-14.067,1.8Z" transform="translate(-5743.309 -651.805)" fill="#e0e1e1"></path><path id="Path_3750" data-name="Path 3750" d="M5743.309,666.179l11.344,3.575-1.69,4.361Z" transform="translate(-5743.309 -664.379)" fill="#e0e1e1"></path></g><g id="Group_4666" data-name="Group 4666" transform="translate(1.614 7.979)"><g id="Group_4662" data-name="Group 4662" transform="translate(10.342)"><path id="Path_3751" data-name="Path 3751" d="M5840.256,716.81a.29.29,0,0,0,.081-.062.266.266,0,0,0-.026-.374,7.5,7.5,0,0,0-1.115-.8.265.265,0,1,0-.269.457,6.925,6.925,0,0,1,1.035.746A.265.265,0,0,0,5840.256,716.81Z" transform="translate(-5838.796 -715.534)" fill="#e0e1e1"></path></g><g id="Group_4664" data-name="Group 4664" transform="translate(0 1.95)"><g id="Group_4663" data-name="Group 4663"><path id="Path_3752" data-name="Path 3752" d="M5763.877,759.393a.265.265,0,0,1,.093-.363,7.431,7.431,0,0,0,1.943-1.685.266.266,0,0,1,.41.338,7.987,7.987,0,0,1-2.083,1.8l-.016.008A.264.264,0,0,1,5763.877,759.393Zm3.02-2.971a.265.265,0,0,1-.1-.361,9.483,9.483,0,0,0,.961-2.412.265.265,0,0,1,.515.127,9.995,9.995,0,0,1-1.016,2.546.254.254,0,0,1-.11.105A.264.264,0,0,1,5766.9,756.422Zm1.349-4.03a.266.266,0,0,1-.245-.283l.008-.12a12.263,12.263,0,0,0-.131-2.491.265.265,0,0,1,.524-.079,12.756,12.756,0,0,1,.135,2.6l-.008.128a.264.264,0,0,1-.144.217A.268.268,0,0,1,5768.245,752.393Zm-.367-4.247a.265.265,0,0,1-.323-.188,19.373,19.373,0,0,0-.861-2.495.268.268,0,0,1,.142-.347.264.264,0,0,1,.347.142,19.96,19.96,0,0,1,.884,2.564.265.265,0,0,1-.136.3A.3.3,0,0,1,5767.878,748.146Zm-1.49-4.009a.266.266,0,0,1-.355-.121c-.032-.067-.065-.133-.1-.2a9,9,0,0,1-.856.286.265.265,0,0,1-.142-.511c.256-.071.508-.154.756-.249-.275-.527-.579-1.075-.921-1.665a.264.264,0,1,1,.457-.266c.356.611.669,1.178.954,1.724a8.02,8.02,0,0,0,1.1-.616.265.265,0,0,1,.295.441,8.612,8.612,0,0,1-1.158.647c.03.058.059.116.088.174a.266.266,0,0,1-.119.353Zm2.094-2.23a.263.263,0,0,1-.005-.375,6.735,6.735,0,0,0,.966-1.257,6.841,6.841,0,0,0,.439-.882.265.265,0,1,1,.49.2,7.157,7.157,0,0,1-1.516,2.307.265.265,0,0,1-.374,0Zm-5.032,2.488a8.279,8.279,0,0,1-2.745-.214.265.265,0,0,1,.13-.514,7.748,7.748,0,0,0,2.569.2.265.265,0,0,1,.142.5A.26.26,0,0,1,5763.451,744.4Zm7.074-6.18a.265.265,0,0,1-.215-.307,8.073,8.073,0,0,0,.023-2.58.265.265,0,0,1,.524-.078,8.594,8.594,0,0,1-.025,2.75.268.268,0,0,1-.142.191A.262.262,0,0,1,5770.524,738.215Zm-11.374,5.381a6.875,6.875,0,0,1-.622-.36,5.667,5.667,0,0,1-1.5-1.431.265.265,0,1,1,.43-.309,5.135,5.135,0,0,0,1.356,1.3,6.4,6.4,0,0,0,.575.333.265.265,0,0,1,.115.357.259.259,0,0,1-.116.115A.263.263,0,0,1,5759.151,743.6Zm4.794-3.283a9.824,9.824,0,0,0-1.637-2.019.265.265,0,1,1,.355-.393,10.359,10.359,0,0,1,1.728,2.126.266.266,0,0,1-.08.366l-.024.014A.265.265,0,0,1,5763.945,740.314Zm6.356-6.333a.266.266,0,0,1-.337-.165,8.42,8.42,0,0,0-.46-1.088,8.014,8.014,0,0,0-.745-1.2.265.265,0,0,1,.424-.319,8.572,8.572,0,0,1,.793,1.275,9.185,9.185,0,0,1,.489,1.157.265.265,0,0,1-.13.322A.237.237,0,0,1,5770.3,733.981Zm-13.68,6.487a.265.265,0,0,1-.322-.193,2.943,2.943,0,0,1,.217-2.113,2.688,2.688,0,0,1,.453-.623.265.265,0,0,1,.38.369,2.16,2.16,0,0,0-.365.5,2.4,2.4,0,0,0-.172,1.738.265.265,0,0,1-.136.3A.288.288,0,0,1,5756.621,740.468Zm4.429-3.027a3.792,3.792,0,0,0-2.44-.23.265.265,0,1,1-.13-.514,4.279,4.279,0,0,1,2.792.263.265.265,0,1,1-.222.481Z" transform="translate(-5756.197 -731.107)" fill="#e0e1e1"></path></g></g><g id="Group_4665" data-name="Group 4665" transform="translate(4.843 30.484)"><path id="Path_3753" data-name="Path 3753" d="M5796.57,959.5a.265.265,0,0,0-.194-.491,5.669,5.669,0,0,1-1.246.21.265.265,0,1,0,.029.529,6.228,6.228,0,0,0,1.362-.229A.329.329,0,0,0,5796.57,959.5Z" transform="translate(-5794.88 -958.999)" fill="#e0e1e1"></path></g></g></g><g id="Group_4670" data-name="Group 4670" transform="translate(1048.976 1057.328)"><g id="Group_4668" data-name="Group 4668" transform="translate(43.351 0)"><path id="Path_3754" data-name="Path 3754" d="M4938.989,371.158l-9.172-5.062-4.682-.937-3.539.52Z" transform="translate(-4918.045 -365.159)" fill="#e0e1e1"></path><path id="Path_3755" data-name="Path 3755" d="M4938.989,374.793l-17.175-4.415-.218-1.064" transform="translate(-4918.045 -368.794)" fill="#c1c1c0"></path><path id="Path_3756" data-name="Path 3756" d="M4919.421,401.342l.023.036.721,2.666,16.878-1.233Z" transform="translate(-4916.142 -396.812)" fill="#c1c1c0"></path><path id="Path_3757" data-name="Path 3757" d="M4893.227,374.968l2.451-1.989,18.383,4.991-15.824-.47Z" transform="translate(-4893.227 -372)" fill="#e0e1e1"></path></g><g id="Group_4669" data-name="Group 4669" transform="translate(0 0.848)"><path id="Path_3758" data-name="Path 3758" d="M4579.146,655.426a12.9,12.9,0,0,0,1.653-.717.249.249,0,1,1,.229.443,13.347,13.347,0,0,1-1.716.745q-.317.112-.637.207a.25.25,0,0,1-.221-.038.254.254,0,0,1-.09-.129.25.25,0,0,1,.167-.311C4578.736,655.565,4578.942,655.5,4579.146,655.426Z" transform="translate(-4574.428 -619.278)" fill="#e0e1e1"></path><path id="Path_3759" data-name="Path 3759" d="M4851.181,374c.779.1,1.59.228,2.479.392a.25.25,0,1,1-.09.491c-.88-.163-1.682-.289-2.451-.388a.255.255,0,0,1-.118-.047.25.25,0,0,1,.18-.448Z" transform="translate(-4812.85 -373.736)" fill="#e0e1e1"></path><path id="Path_3760" data-name="Path 3760" d="M4819.2,372.386a.25.25,0,0,1,.147-.45c.8-.007,1.646.026,2.516.1a.25.25,0,0,1-.042.5c-.854-.071-1.685-.1-2.469-.1A.249.249,0,0,1,4819.2,372.386Z" transform="translate(-4785.032 -371.934)" fill="#e0e1e1"></path><path id="Path_3761" data-name="Path 3761" d="M4609.1,636.1a.249.249,0,0,1,.348.357,13.9,13.9,0,0,1-1.969,1.6.25.25,0,0,1-.288-.006.241.241,0,0,1-.058-.062.249.249,0,0,1,.068-.346A13.506,13.506,0,0,0,4609.1,636.1Z" transform="translate(-4599.565 -602.963)" fill="#e0e1e1"></path><path id="Path_3762" data-name="Path 3762" d="M4630.714,613.256a.249.249,0,0,1-.034-.351c.14-.172.277-.347.41-.526a12.858,12.858,0,0,0,.958-1.5.249.249,0,1,1,.438.239,13.406,13.406,0,0,1-1,1.557q-.206.278-.426.546a.248.248,0,0,1-.341.042Z" transform="translate(-4620.154 -580.847)" fill="#e0e1e1"></path><path id="Path_3763" data-name="Path 3763" d="M4647.047,583.879a.24.24,0,0,1-.053-.03.249.249,0,0,1-.083-.3,16.994,16.994,0,0,0,.76-2.336.249.249,0,1,1,.483.122,17.382,17.382,0,0,1-.782,2.4A.249.249,0,0,1,4647.047,583.879Z" transform="translate(-4634.385 -554.849)" fill="#e0e1e1"></path><path id="Path_3764" data-name="Path 3764" d="M4687.692,430.859c-.208.254-.411.512-.6.775-.295.4-.576.808-.835,1.223a.25.25,0,0,1-.344.079l-.016-.011a.25.25,0,0,1-.062-.333c.266-.425.554-.847.856-1.254q.3-.4.621-.795a.236.236,0,0,1,.351-.034A.25.25,0,0,1,4687.692,430.859Z" transform="translate(-4668.415 -423.12)" fill="#e0e1e1"></path><path id="Path_3765" data-name="Path 3765" d="M4673.306,457.383a18.261,18.261,0,0,0-.99,2.251.249.249,0,1,1-.469-.169,18.579,18.579,0,0,1,1.015-2.314.25.25,0,0,1,.443.231Z" transform="translate(-4656.203 -446.365)" fill="#e0e1e1"></path><path id="Path_3766" data-name="Path 3766" d="M4707.6,408.436a20.283,20.283,0,0,0-1.806,1.675.25.25,0,0,1-.329.029l-.024-.02a.249.249,0,0,1-.007-.353,20.754,20.754,0,0,1,1.849-1.717.25.25,0,0,1,.317.386Z" transform="translate(-4685.532 -403.478)" fill="#e0e1e1"></path><path id="Path_3767" data-name="Path 3767" d="M4757.513,379.5a.251.251,0,0,1-.25-.028.264.264,0,0,1-.079-.1.249.249,0,0,1,.127-.329,19.741,19.741,0,0,1,2.371-.872.249.249,0,1,1,.141.479A19.272,19.272,0,0,0,4757.513,379.5Z" transform="translate(-4730.848 -377.379)" fill="#e0e1e1"></path><path id="Path_3768" data-name="Path 3768" d="M4660.226,520.947a.25.25,0,0,1-.22-.276l.036-.314c.082-.723.165-1.447.261-2.169a.249.249,0,1,1,.494.066c-.095.718-.176,1.439-.259,2.159l-.036.314A.249.249,0,0,1,4660.226,520.947Z" transform="translate(-4645.856 -499.687)" fill="#e0e1e1"></path><path id="Path_3769" data-name="Path 3769" d="M4729.867,392.051a.25.25,0,0,1-.292,0,.266.266,0,0,1-.057-.057.251.251,0,0,1,.061-.348,20.773,20.773,0,0,1,2.148-1.326.25.25,0,0,1,.236.44A20.018,20.018,0,0,0,4729.867,392.051Z" transform="translate(-4706.626 -387.989)" fill="#e0e1e1"></path><path id="Path_3770" data-name="Path 3770" d="M4656.245,549.642a.249.249,0,0,1,.216.279c-.122.972-.243,1.76-.378,2.482a.25.25,0,0,1-.491-.092c.134-.711.253-1.49.375-2.452A.25.25,0,0,1,4656.245,549.642Z" transform="translate(-4641.992 -527.39)" fill="#e0e1e1"></path><path id="Path_3771" data-name="Path 3771" d="M4549.68,665.008a.249.249,0,0,1,.095.49,20.1,20.1,0,0,1-2.5.323.248.248,0,0,1-.166-.048.249.249,0,0,1,.13-.45A19.863,19.863,0,0,0,4549.68,665.008Z" transform="translate(-4547.004 -628.308)" fill="#e0e1e1"></path><path id="Path_3772" data-name="Path 3772" d="M4664.954,486.672a.25.25,0,0,1,.177.306c-.2.734-.366,1.524-.515,2.415a.25.25,0,0,1-.493-.082c.152-.908.324-1.713.526-2.462A.248.248,0,0,1,4664.954,486.672Z" transform="translate(-4649.456 -472.298)" fill="#e0e1e1"></path><path id="Path_3773" data-name="Path 3773" d="M4789.267,372.525c.291-.035.583-.063.874-.085a.25.25,0,1,1,.038.5q-.427.032-.853.082c-.527.063-1.06.15-1.583.261a.25.25,0,0,1-.2-.044.254.254,0,0,1-.1-.149.25.25,0,0,1,.193-.3C4788.176,372.68,4788.724,372.59,4789.267,372.525Z" transform="translate(-4757.336 -372.376)" fill="#e0e1e1"></path></g></g><g id="Group_4676" data-name="Group 4676" transform="translate(1123.527 1166.611)"><path id="Path_3774" data-name="Path 3774" d="M5276.718,1259.1a1.859,1.859,0,0,0-.079,1.323l.241,1.717.294.2,1.1.454a1.181,1.181,0,0,1,0-.687l.482-1.776s.75-3-1.285-2.869c.011-2.442-.669-2.038-.669-2.038l-.048,2.111Z" transform="translate(-5259.758 -1253.208)" fill="#f99e75"></path><path id="Path_3775" data-name="Path 3775" d="M5234.021,1310.9s1.423,5.43,2.636,5.527,2.475-8.6,2.475-8.6l1.65.2s.642,12.509-3.06,12.737-4.19-2.539-4.19-2.539Z" transform="translate(-5222.124 -1299.08)" fill="#e0e1e1"></path><path id="Path_3776" data-name="Path 3776" d="M5168.552,1325.75h-9.682v-14.706c2.766-4.221,6.213-3.071,6.213-3.071s3.135.056,3.624,2.932C5168.707,1312.985,5168.552,1325.75,5168.552,1325.75Z" transform="translate(-5156.809 -1299.081)" fill="#f2672a"></path><g id="Group_4671" data-name="Group 4671" transform="translate(7 6.939)"><path id="Path_3777" data-name="Path 3777" d="M5198.458,1293.372l-.144,2.079.069.065a1.8,1.8,0,0,0,2.449.034h0l.033-1.564Z" transform="translate(-5198.314 -1293.372)" fill="#f99e75"></path></g><g id="Group_4672" data-name="Group 4672" transform="translate(4.172)"><path id="Path_3778" data-name="Path 3778" d="M5193.387,1258.681l.176,3.437a.531.531,0,0,1,.476.675.637.637,0,0,1,.058.253,3.941,3.941,0,0,0,3.062.713c2.175-.417.862-4.62.862-4.62Z" transform="translate(-5191.176 -1256.086)" fill="#f99e75"></path><path id="Path_3779" data-name="Path 3779" d="M5176.848,1243.13a2.1,2.1,0,0,0-.551-.952c-1.231-1.065-.13-1.842.261-2.093.432-.278.348-1.062.907-1.5.855-.669,1.677.024,2.225-.077s.887-.829,1.682-.444.708,1.01.963,1.273.724-.465,1.5.367c1.181,1.266-1.133,1.807-1.133,1.807a4.2,4.2,0,0,1-2.944-.134.549.549,0,0,0-.649.159c-.4.547-.406,3.414-.406,3.414l-.559-.465A1.554,1.554,0,0,1,5176.848,1243.13Z" transform="translate(-5175.73 -1237.954)" fill="#e0e1e1"></path><path id="Path_3780" data-name="Path 3780" d="M5194.8,1276.458a.527.527,0,1,0,.288-.688A.527.527,0,0,0,5194.8,1276.458Z" transform="translate(-5192.376 -1271.001)" fill="#f99e75"></path></g><g id="Group_4673" data-name="Group 4673" transform="translate(7.213 52.75)"><path id="Path_3781" data-name="Path 3781" d="M5202.355,1672.4s.546.755,3.118,1.41c.567.144,1.177.243,1.177,1.177h-2.54l-2.6-.449v.449h-1.4s-.39-2.293.429-2.587Z" transform="translate(-5200.02 -1670.757)" fill="#052241"></path><path id="Path_3782" data-name="Path 3782" d="M5206.133,1659.248,5206,1660.9h0a1.584,1.584,0,0,1-1.717.058l-.1-.058v-1.647Z" transform="translate(-5203.664 -1659.248)" fill="#f99e75"></path></g><g id="Group_4674" data-name="Group 4674" transform="translate(0 52.75)"><path id="Path_3783" data-name="Path 3783" d="M5144.748,1672.4s.545.755,3.118,1.41c.567.144,1.177.243,1.177,1.177h-2.54l-2.6-.449v.449h-1.4s-.391-2.293.428-2.587Z" transform="translate(-5142.411 -1670.757)" fill="#052241"></path><path id="Path_3784" data-name="Path 3784" d="M5148.524,1659.248l-.132,1.647h0a1.587,1.587,0,0,1-1.718.058l-.1-.058v-1.647Z" transform="translate(-5146.055 -1659.248)" fill="#f99e75"></path></g><path id="Path_3785" data-name="Path 3785" d="M5151.363,1333.5s-2.9,6.7.8,10.119a11.978,11.978,0,0,0,8.73,2.839v-1.929s-4.544-.384-6-3.422a5.7,5.7,0,0,1,.582-5.666" transform="translate(-5149.296 -1321.537)" fill="#f2672a"></path><path id="Path_3786" data-name="Path 3786" d="M5232.668,1416.055l2.318.048c.942-.052,1.567-1.457,1.724-2.5a.212.212,0,0,0-.281-.229,29.362,29.362,0,0,0-3.332,1.314Z" transform="translate(-5221.367 -1391.397)" fill="#f99e75"></path><path id="Path_3787" data-name="Path 3787" d="M5191.95,1450.95c2.887,8.154-1.626,26.208-1.626,26.208h-2.572s1.212-25.6-2.137-26.208Z" transform="translate(-5180.206 -1424.281)" fill="#123354"></path><path id="Path_3788" data-name="Path 3788" d="M5154.438,1378.078a5.222,5.222,0,0,0,.517,2.026c1.456,3.038,6.236,3.44,6.236,3.44v1.948s-5.263.545-8.966-2.877a6.267,6.267,0,0,1-1.875-4.538Z" transform="translate(-5149.357 -1360.533)" fill="#e0e1e1"></path><g id="Group_4675" data-name="Group 4675" transform="translate(4.783 13.743)"><path id="Path_3789" data-name="Path 3789" d="M5180.931,1351.807c-.1-.046-.2-.09-.3-.138a6.225,6.225,0,0,1,1.154-3.958l.229.181A5.868,5.868,0,0,0,5180.931,1351.807Z" transform="translate(-5180.611 -1347.711)" fill="#fff"></path></g><path id="Path_3790" data-name="Path 3790" d="M5273.308,1274.093s-.533-.16-.617-1.135-.545-.673-.545-.673.24,3.842.852,3.987S5273.308,1274.093,5273.308,1274.093Z" transform="translate(-5255.902 -1267.947)" fill="#f99e75"></path><path id="Path_3791" data-name="Path 3791" d="M5152.99,1450.95c.787,10-5.6,26.208-5.6,26.208h-3.057a121.265,121.265,0,0,0,2.12-20.094,51.862,51.862,0,0,0-.3-6.115Z" transform="translate(-5144.094 -1424.281)" fill="#123354"></path></g><g id="Group_4677" data-name="Group 4677" transform="translate(1051.343 1220.386)"><path id="Path_3792" data-name="Path 3792" d="M4566.37,1679.718l4.633-.005c.615.064,1.3.239,1.417.772a3.087,3.087,0,0,1,.067.706c-.164.193-6.307-.026-6.307-.026l-.026-.022A.974.974,0,0,1,4566.37,1679.718Z" transform="translate(-4565.913 -1678.176)" fill="#0c2146"></path><path id="Path_3793" data-name="Path 3793" d="M4574.367,1691.339l-6.307-.026.055.245h6.261Z" transform="translate(-4567.791 -1688.324)" fill="#0c2146"></path><path id="Path_3794" data-name="Path 3794" d="M4567.036,1667.433l.318,1.542h0a1.5,1.5,0,0,0,1.242.029l.069-.031.224-1.541Z" transform="translate(-4566.896 -1667.433)" fill="#f99e75"></path></g><g id="Group_4678" data-name="Group 4678" transform="translate(1040.516 1220.386)"><path id="Path_3795" data-name="Path 3795" d="M4479.9,1679.718l4.632-.005c.615.064,1.3.239,1.418.772a3.1,3.1,0,0,1,.067.706c-.164.193-6.307-.026-6.307-.026l-.026-.022A.974.974,0,0,1,4479.9,1679.718Z" transform="translate(-4479.445 -1678.176)" fill="#0c2146"></path><path id="Path_3796" data-name="Path 3796" d="M4487.9,1691.339l-6.306-.026.055.245h6.26Z" transform="translate(-4481.325 -1688.324)" fill="#0c2146"></path><path id="Path_3797" data-name="Path 3797" d="M4483.307,1667.433l-.2,1.542h0a1.5,1.5,0,0,0,1.242.029l.071-.031.741-1.541Z" transform="translate(-4482.647 -1667.433)" fill="#f99e75"></path></g><g id="Group_4679" data-name="Group 4679" transform="translate(1044.274 1168.497)"><path id="Path_3798" data-name="Path 3798" d="M4513.269,1253.021l-3.814,2.488,1.177,3.015c.017.043.04.082.058.124.084-.006.168-.01.252-.01l.041,0,.04,0a2.944,2.944,0,0,1,2.432,1.474,5.069,5.069,0,0,0,1.8-.467,1.866,1.866,0,0,0,.848-.643C4516.512,1256.862,4513.269,1253.021,4513.269,1253.021Z" transform="translate(-4509.454 -1253.021)" fill="#f99e75"></path></g><path id="Path_3799" data-name="Path 3799" d="M4575.368,1253.8s.467,4.428-.473,7.247c.437.379,2.04,2.1,2.544-.13s-.566-7.9-.566-7.9Z" transform="translate(-3522.428 -84.524)" fill="#f99e75"></path><g id="Group_4681" data-name="Group 4681" transform="translate(1049.754 1162.753)"><g id="Group_4680" data-name="Group 4680" transform="translate(0 6.211)"><path id="Path_3800" data-name="Path 3800" d="M4554.125,1256.746l-.9.577.32.67.963-.425Z" transform="translate(-4553.227 -1256.746)" fill="#0c2146"></path><path id="Path_3801" data-name="Path 3801" d="M4553.6,1261c.09.205.1.4.015.436s-.223-.1-.312-.306-.1-.4-.014-.436S4553.506,1260.8,4553.6,1261Z" transform="translate(-4553.227 -1260.199)" fill="#0c2146"></path></g><path id="Path_3802" data-name="Path 3802" d="M4570.267,1210.09a.15.15,0,0,1,0-.025,9.085,9.085,0,0,0-.868-1.558,7.784,7.784,0,0,1-.834-1.362l-9.269,6.066.6,1.133,10.367-3.831A2.84,2.84,0,0,1,4570.267,1210.09Z" transform="translate(-4558.54 -1207.145)" fill="#b4d5df"></path></g><path id="Path_3803" data-name="Path 3803" d="M4530.869,1306.375l-.333,2.082h2.949l.213-2.551Z" transform="translate(-3483.623 -130.788)" fill="#f99e75"></path><path id="Path_3804" data-name="Path 3804" d="M4586.225,1243.868s3.483-1.109,4.575-2.6-.755-9.655-.755-9.655l.238-1.469a1.367,1.367,0,0,0-1.337-1.587l-.931-.008a.532.532,0,0,0-.491.749l1.224,2.754s.919,6.183-.368,6.653a14.51,14.51,0,0,1-3.272.678Z" transform="translate(-3531.361 -63.115)" fill="#f99e75"></path><path id="Path_3805" data-name="Path 3805" d="M4510.893,1251.7l-.9-1.987.583-.366a1.1,1.1,0,0,0,.456-1.281l-.64-1.873s1.815-.222,1.761-1.913c0-.871-1.2-.876-1.2-.876a1.743,1.743,0,0,1-1.471.871,2.892,2.892,0,0,0-2.671,1.659,4.768,4.768,0,0,0,.184,3.883,3.542,3.542,0,0,0,2.821,1.883Z" transform="translate(-3462.574 -76.108)" fill="#123354"></path><path id="Path_3806" data-name="Path 3806" d="M4484.362,1442.986a65.51,65.51,0,0,0,1.1,8.83,7.878,7.878,0,0,1-.271,4.061c-2.08,6.18-5,15.472-5,15.472h2.594s5.877-10.982,7.393-16.429,1.773-7.177,1.773-7.177l-1.8-4.756Z" transform="translate(-3439.586 -250.704)" fill="#f2672a"></path><path id="Path_3807" data-name="Path 3807" d="M4530.564,1284.208a.841.841,0,0,0,.481.926c.373.2.762.1.869-.208a.845.845,0,0,0-.483-.926C4531.059,1283.8,4530.67,1283.895,4530.564,1284.208Z" transform="translate(-3483.623 -111.533)" fill="#f99e75"></path><path id="Path_3808" data-name="Path 3808" d="M4521.93,1330.168h-8.458v-10.852a4.6,4.6,0,0,1,4.175-4.584l5.881-.712s.693,1.059,2.62,3.519a19.861,19.861,0,0,1-5,2.091Z" transform="translate(-3468.695 -137.885)" fill="#b4d5df"></path><path id="Path_3809" data-name="Path 3809" d="M4513.472,1442.986a25.225,25.225,0,0,0,5.6,9.17,5.669,5.669,0,0,1,1.645,4.406l-.909,14.786h2.631s3.207-12.279,2.515-18.332a27.789,27.789,0,0,0-3.026-10.031Z" transform="translate(-3468.695 -250.704)" fill="#f2672a"></path><path id="Path_3810" data-name="Path 3810" d="M4632.486,1208.678c.456.944,1.072,1.589,1.38,1.441s.185-1.032-.271-1.976-1.071-1.589-1.378-1.441S4632.032,1207.734,4632.486,1208.678Z" transform="translate(-3572.425 -43.986)" fill="#fff"></path><path id="Path_3811" data-name="Path 3811" d="M4575.754,1235.584l.078.037a1.179,1.179,0,0,0,.883.055l.052-.017a1.575,1.575,0,0,0,1-1.017h0a.292.292,0,0,0-.338-.374l-.586.123a.886.886,0,0,0-.557.379Z" transform="translate(-3523.179 -68.113)" fill="#f99e75"></path><g id="Group_4689" data-name="Group 4689" transform="translate(1065.165 1188.11)"><g id="Group_4684" data-name="Group 4684" transform="translate(14.826 1.287)"><path id="Path_3812" data-name="Path 3812" d="M4797.72,1448.843l-1.143,2.553-1.86-1.676,1.313-3.719Z" transform="translate(-4794.717 -1442.737)" fill="#f99e75"></path><g id="Group_4683" data-name="Group 4683" transform="translate(1.267)"><path id="Path_3813" data-name="Path 3813" d="M4807.234,1426.205a1.27,1.27,0,0,0,.782-.072c1.131-1.281.742-5.054.742-5.054l-1.323-1.141-2.024.945-.528,2.074a3.318,3.318,0,0,0,.52,2.4h0A3.522,3.522,0,0,0,4807.234,1426.205Z" transform="translate(-4804.837 -1419.938)" fill="#f99e75"></path></g></g><path id="Path_3814" data-name="Path 3814" d="M4794.838,1412.25a5.689,5.689,0,0,1-3.541,1.223c-.485-.016-.427-.079-.43.8a4.279,4.279,0,0,1-.552,1.815l-1.142-.326s-1.426-5.154,1.675-5.955A3.1,3.1,0,0,1,4794.838,1412.25Z" transform="translate(-4774.754 -1409.661)" fill="#052241"></path><g id="Group_4685" data-name="Group 4685" transform="translate(16.865 31.761)"><path id="Path_3815" data-name="Path 3815" d="M4811.578,1672.237s-.672.355-.566.935.274,1.5.274,1.5h.4l.015-.683a.1.1,0,0,1,.163-.081l.781.568a1.02,1.02,0,0,0,.6.2h3.146s0-1.007-1.849-1.282A6.769,6.769,0,0,1,4811.578,1672.237Z" transform="translate(-4811 -1671.121)" fill="#052241"></path><path id="Path_3816" data-name="Path 3816" d="M4814.495,1663.321l.4,1.165a1.147,1.147,0,0,0,.467.593,4.63,4.63,0,0,0,1.181.512c-.687.588-1.782,0-2.407-.435a1.536,1.536,0,0,1-.612-.887l-.239-.948Z" transform="translate(-4813 -1663.321)" fill="#f99e75"></path></g><path id="Path_3817" data-name="Path 3817" d="M4789.181,1458.379l-.327.653,1.217.253.251-.58Z" transform="translate(-4774.762 -1452.279)" fill="#e0e1e1"></path><path id="Path_3818" data-name="Path 3818" d="M4738.181,1462.614a4.948,4.948,0,0,0-3.467,1.428,5.486,5.486,0,0,0-.8,2.25,1.831,1.831,0,0,1-.831,1.189c-1.192.727-3.337,2.417-1.472,4.312,2.489,2.529,4.038.245,4.038.245l3.794-9.161Z" transform="translate(-4724.048 -1455.984)" fill="#052241"></path><g id="Group_4687" data-name="Group 4687" transform="translate(22.26 9.691)"><g id="Group_4686" data-name="Group 4686"><rect id="Rectangle_2803" data-name="Rectangle 2803" width="3.496" height="0.924" transform="translate(0.529 0.563) rotate(-9.271)" fill="#f2672a"></rect><rect id="Rectangle_2804" data-name="Rectangle 2804" width="0.924" height="0.319" transform="translate(0.645 0.544) rotate(80.729)" fill="url(#linear-gradient-2)"></rect><path id="Path_3819" data-name="Path 3819" d="M4854.489,1491.731c-.252.043-.451.124-.384.536.073.45.281.426.534.387Z" transform="translate(-4854.092 -1491.146)" fill="#0c2146"></path><path id="Path_3820" data-name="Path 3820" d="M4885.873,1487.058l.761.182.054.332-.667.4Z" transform="translate(-4881.894 -1487.058)" fill="#e0e1e1"></path><path id="Path_3821" data-name="Path 3821" d="M4891.956,1488.508l.342.112-.288.22Z" transform="translate(-4887.215 -1488.327)" fill="#0c2146"></path></g><rect id="Rectangle_2805" data-name="Rectangle 2805" width="0.21" height="3.378" transform="matrix(0.161, 0.987, -0.987, 0.161, 4.002, 0.14)" fill="#e24b1b"></rect><rect id="Rectangle_2806" data-name="Rectangle 2806" width="0.21" height="3.378" transform="matrix(0.161, 0.987, -0.987, 0.161, 4.074, 0.58)" fill="#e24b1b"></rect></g><path id="Path_3822" data-name="Path 3822" d="M4780.384,1567.462s5.038-3.916,7.791-2.57-2.736,12.726-2.736,12.726a5.073,5.073,0,0,1-1.322-2.6,8.484,8.484,0,0,1,0-3.584l-2.673,4.834Z" transform="translate(-4767.353 -1545.209)" fill="#123354"></path><path id="Path_3823" data-name="Path 3823" d="M4862.583,1484.487c-.159-.4-.215-.494-.612-.328a1.6,1.6,0,0,0-.821.8l-.982,2.1-.017.011a6.161,6.161,0,0,1,.714.834l.143-.157,1.123-.831c.394-.289.909-.683.959-1.169S4862.734,1484.866,4862.583,1484.487Z" transform="translate(-4837.132 -1474.762)" fill="#f99e75"></path><path id="Path_3824" data-name="Path 3824" d="M4801.993,1438.757a.576.576,0,0,1,.741.2.5.5,0,0,1-.016.721.575.575,0,0,1-.74-.2A.5.5,0,0,1,4801.993,1438.757Z" transform="translate(-4786.115 -1435.053)" fill="#f99e75"></path><g id="Group_4688" data-name="Group 4688" transform="translate(0 29.258)"><path id="Path_3825" data-name="Path 3825" d="M4679.536,1644.514s-.079-.756-.656-.874l-1.5-.306-.151.374.628.268a.1.1,0,0,1,.014.181l-.828.366-.716,2.533c-.141.5.362,1.356.362,1.356s.65.983,1.252.983h1.072a.494.494,0,0,0-.122-.524c-.4-.464-1.223-1.164-1.019-2.035A3.236,3.236,0,0,1,4679.536,1644.514Z" transform="translate(-4676.306 -1643.334)" fill="#052241"></path><path id="Path_3826" data-name="Path 3826" d="M4689.143,1654.028l-1.23-.063a.9.9,0,0,0-.724.212c-.316.349-.218,1.206-.257,1.836a2.061,2.061,0,0,1,.642-3,1.536,1.536,0,0,1,1.052-.237l.969.132Z" transform="translate(-4685.222 -1651.579)" fill="#f99e75"></path></g><path id="Path_3827" data-name="Path 3827" d="M4780.007,1507.083s1.775,5.257,4.1,5.563,7.267-7.8,7.267-7.8l-1.207-.581-5.305,4.222-2.125-4.467" transform="translate(-4767.022 -1492.204)" fill="#f2672a"></path><path id="Path_3828" data-name="Path 3828" d="M4751.076,1471l1.672,2.137a13.743,13.743,0,0,1,.838,4.72,3.148,3.148,0,0,1-.9,2.032,54.218,54.218,0,0,0-3.651,5.683l-4.487-1.958s2.693-9.31,4-11.013S4751.076,1471,4751.076,1471Z" transform="translate(-4736.004 -1463.317)" fill="#f2672a"></path><path id="Path_3829" data-name="Path 3829" d="M4703.8,1571.746a6.094,6.094,0,0,0-3.263,4.344c-.551,3.151,5.874,8.076,5.874,8.076s-1.224-2.142-7.526-2.325a9,9,0,0,0-.917,1.407c11.013,7.342,15.212,6.608,15.957,3.488s-5.637-13.032-5.637-13.032Z" transform="translate(-4695.252 -1551.451)" fill="#123354"></path></g><g id="Group_4694" data-name="Group 4694" transform="translate(1141.459 1169.705)"><g id="Group_4690" data-name="Group 4690" transform="translate(26.429 17.666)"><path id="Path_3830" data-name="Path 3830" d="M5501.822,1438.665h.575c-1.053-7-2.079-14.046-3.072-20.865-.669-4.591-1.361-9.339-2.057-14.042l-.561.083c.7,4.7,1.387,9.45,2.055,14.04C5499.751,1424.675,5500.774,1431.688,5501.822,1438.665Z" transform="translate(-5496.706 -1403.758)" fill="#123354"></path></g><g id="Group_4691" data-name="Group 4691" transform="translate(9.911 17.666)"><path id="Path_3831" data-name="Path 3831" d="M5369.9,1438.665h.574c-1.052-7-2.08-14.046-3.073-20.865-.669-4.591-1.36-9.339-2.056-14.042l-.562.083c.7,4.7,1.387,9.45,2.056,14.04C5367.825,1424.675,5368.848,1431.688,5369.9,1438.665Z" transform="translate(-5364.78 -1403.758)" fill="#123354"></path></g><path id="Path_3832" data-name="Path 3832" d="M5472.714,1307.359c-4.8-9.877-4.8-29.172-4.8-29.172l-4.548,29.172Z" transform="translate(-5441.111 -1276.244)" fill="#d0b6d8"></path><g id="Group_4692" data-name="Group 4692" transform="translate(0 18.586)"><path id="Path_3833" data-name="Path 3833" d="M5286.2,1446.226c1.754-11.313,3.315-22.236,4.966-33.785l.554-1.257-.562-.081-.554,1.258c-1.654,11.577-3.22,22.525-4.979,33.865Z" transform="translate(-5285.627 -1411.103)" fill="#123354"></path></g><g id="Group_4693" data-name="Group 4693" transform="translate(18.222 18.584)"><path id="Path_3834" data-name="Path 3834" d="M5431.735,1446.217c1.059-7.046,2.092-14.133,3.092-20.994.67-4.593,1.361-9.343,2.057-14.048l-.562-.083c-.7,4.706-1.387,9.456-2.057,14.049-1,6.888-2.041,14-3.1,21.076Z" transform="translate(-5431.16 -1411.092)" fill="#123354"></path></g><path id="Path_3835" data-name="Path 3835" d="M5461.885,1360.6l-3.373-22.192-4.5,20.618.589,1.574Z" transform="translate(-5432.93 -1328.924)" fill="#0c2146"></path><path id="Path_3836" data-name="Path 3836" d="M5292.94,1267.11c4.417-.743,20.685.359,20.685.359s.453,22.23-4.762,29.692c-5.318,0-21.871,0-21.871,0S5293.536,1282.857,5292.94,1267.11Z" transform="translate(-5286.821 -1266.328)" fill="#123354"></path><path id="Path_3837" data-name="Path 3837" d="M5291.844,1508.941l.766,1.361,20.351.009.281-1.37Z" transform="translate(-5291.065 -1478.105)" fill="#123354"></path><path id="Path_3838" data-name="Path 3838" d="M5334.77,1264.906l.205,1.361,20.351.009.094-1.37Z" transform="translate(-5328.617 -1264.626)" fill="#123354"></path><path id="Path_3839" data-name="Path 3839" d="M5487.5,1263.633a.966.966,0,1,0,.966-.966A.966.966,0,0,0,5487.5,1263.633Z" transform="translate(-5462.224 -1262.667)" fill="#0c2146"></path><path id="Path_3840" data-name="Path 3840" d="M5326.589,1263.633a.965.965,0,1,0,.965-.966A.965.965,0,0,0,5326.589,1263.633Z" transform="translate(-5321.461 -1262.667)" fill="#123354"></path></g><g id="Group_4695" data-name="Group 4695" transform="translate(1148.429 1177.602)"><path id="Path_3841" data-name="Path 3841" d="M5343.886,1400.221h-2.593l.1-8.7h2.8Z" transform="translate(-5341.293 -1383.282)" fill="#f2672a"></path><path id="Path_3842" data-name="Path 3842" d="M5373.883,1369.821h-2.8l-.408-13.053h3.205Z" transform="translate(-5366.999 -1352.882)" fill="#e0e1e1"></path><rect id="Rectangle_2807" data-name="Rectangle 2807" width="2.797" height="10.722" transform="translate(8.041 6.216)" fill="#ea465a"></rect><path id="Path_3843" data-name="Path 3843" d="M5408.315,1386.107h-2.8v-10.722h3.1Z" transform="translate(-5397.477 -1369.168)" fill="#f2672a"></path><path id="Path_3844" data-name="Path 3844" d="M5439.895,1342.678h-2.8V1325.74h3.614Z" transform="translate(-5425.101 -1325.74)" fill="#e0e1e1"></path></g><g id="Group_4698" data-name="Group 4698" transform="translate(1152.249 1165.768)"><g id="Group_4696" data-name="Group 4696" transform="translate(17.991 39.412)"><path id="Path_3845" data-name="Path 3845" d="M5543.926,1668.179a1.129,1.129,0,0,1,.6.861c0,.544.085,1.8.085,1.8l-.54.1-.192-1.152c-.015-.075-.968,1.217-1.617,1.865l-2.385.046s-.33-.741,1.3-1.294A6.288,6.288,0,0,0,5543.926,1668.179Z" transform="translate(-5536.799 -1652.88)" fill="#0c2146"></path><path id="Path_3846" data-name="Path 3846" d="M5520.677,1551.768a10.317,10.317,0,0,0-.14-1.456,9,9,0,0,0-1.192-2.994c-.585-.217-1.145-.487-1.742-.724a15.713,15.713,0,0,0-2.114-.6c.029.08.06.161.09.242,3.494,9.219,5.447,13.406,5.752,14.4a1.16,1.16,0,0,1,.073.459,3.424,3.424,0,0,1-1.674,2.475c1.487.37,2.885-2.275,2.885-2.275S5520.751,1554.941,5520.677,1551.768Z" transform="translate(-5515.489 -1545.994)" fill="#f99e75"></path></g><path id="Path_3847" data-name="Path 3847" d="M5499.415,1284.489l.158,2.505,2.447-.506-.293-3.405Z" transform="translate(-5483.436 -1276.59)" fill="#f99e75"></path><path id="Path_3848" data-name="Path 3848" d="M5485.923,1250.521a1.441,1.441,0,0,1-.863-.224c-1.03-1.643.144-6.073.144-6.073l3.743.671.119,2.969a2.49,2.49,0,0,1-.935,2.048h0A4,4,0,0,1,5485.923,1250.521Z" transform="translate(-5470.509 -1242.596)" fill="#f99e75"></path><path id="Path_3849" data-name="Path 3849" d="M5483.01,1675.158a1.092,1.092,0,0,1,.42.921c-.095.516-.228,1.724-.228,1.724h-.529l.016-1.127c0-.074-1.135,1.127-1.328,1.127h-2.8s-.186-.76,1.459-1A6.073,6.073,0,0,0,5483.01,1675.158Z" transform="translate(-5465.187 -1619.573)" fill="#0c2146"></path><g id="Group_4697" data-name="Group 4697" transform="translate(14.657 38.853)"><path id="Path_3850" data-name="Path 3850" d="M5493.445,1548.74a10.28,10.28,0,0,0,.373-1.415,15.416,15.416,0,0,0,.109-3.982c-.474-.406-1.093-.094-1.572-.522a15.626,15.626,0,0,0-1.774-1.3c0,.086,0,.171,0,.258.081,9.859.461,14.464.4,15.5-.009.158-.476,2.2-2.128,2.623,1.266.863,3.167-1.648,3.167-1.648S5492.415,1551.741,5493.445,1548.74Z" transform="translate(-5488.858 -1541.525)" fill="#f99e75"></path></g><path id="Path_3851" data-name="Path 3851" d="M5482.012,1299.855l-2.352,3.841a3.009,3.009,0,0,0-.215,1.957l1.495,6.554a5.779,5.779,0,0,1,.142,1.158l.357,17.182h7.5a53.382,53.382,0,0,1-1.428-7.769c-.476-4.378.917-6.283.529-8.2a9.43,9.43,0,0,0-1.847-3.741,3.634,3.634,0,0,1-.778-2.189c-.079-3.25,3.324-12.222.075-10.039S5482.012,1299.855,5482.012,1299.855Z" transform="translate(-5465.902 -1289.877)" fill="#f2672a"></path><path id="Path_3852" data-name="Path 3852" d="M5453.667,1388.533l-.178.63a3.5,3.5,0,0,1-.5.952c-.827,1.38-3.614,4.759-3.614,4.759l-2.253,1.277s.047.325.559.233a2.313,2.313,0,0,0,.882-.372s.093.371-.372,1.115c-.348.556-1.462,1.5-.7,1.672a12.878,12.878,0,0,0,1.551-.858,1.5,1.5,0,0,0,.754-1.061l.2-1.193,4.783-3.911a3.624,3.624,0,0,0,1.146-1.662l.015-.048Z" transform="translate(-5437.687 -1368.836)" fill="#f99e75"></path><path id="Path_3853" data-name="Path 3853" d="M5374.773,1347.51a2.12,2.12,0,0,1-1.168-.409c-.6-.365-1.595-1.507-1.8-.748.307.706.581,1.577.581,1.577a2.3,2.3,0,0,0,1.439.786l1.548.092s.554-.561.584-.583l-.161-.281A3.386,3.386,0,0,1,5374.773,1347.51Z" transform="translate(-5371.801 -1331.714)" fill="#f99e75"></path><path id="Path_3854" data-name="Path 3854" d="M5481.065,1234.616a3.806,3.806,0,0,1-2.019.467,2.565,2.565,0,0,1-1.979-1.3,1.307,1.307,0,0,1,.553-1.812,1.362,1.362,0,0,1,1.66.122.628.628,0,0,0,.832.022,3.842,3.842,0,0,1,2.533-.888c1.3,0,1.266,1.262,1.067,2.179a1.318,1.318,0,0,0,.584,1.4c.773.479,1.757,1.259,1.553,2.039a4.6,4.6,0,0,1-.865,1.623,1.153,1.153,0,0,0-.011,1.406,3.2,3.2,0,0,1,.875,2.22,7.809,7.809,0,0,1-1.005,2.023,1.254,1.254,0,0,0,0,1.359,1.673,1.673,0,0,1,.264,1.263,2.929,2.929,0,0,1-.475,1.022.816.816,0,0,1-1.4-.108c-.853-1.721-2.345-5.243-1.824-7.929.261-1.347.618-3.724.618-3.724S5482.413,1234.043,5481.065,1234.616Z" transform="translate(-5463.738 -1231.225)" fill="#fff"></path><path id="Path_3855" data-name="Path 3855" d="M5411.483,1358.917l-2.865,1.484a1.568,1.568,0,0,1-1.16.114l-7.88-2.489v-.995l7.679.932,2.4-1.277Z" transform="translate(-5396.1 -1340.978)" fill="#f99e75"></path><path id="Path_3856" data-name="Path 3856" d="M5514.049,1263.016a.651.651,0,0,0-.864.085.562.562,0,0,0-.117.81.654.654,0,0,0,.866-.085A.562.562,0,0,0,5514.049,1263.016Z" transform="translate(-5495.27 -1258.922)" fill="#f99e75"></path><path id="Path_3857" data-name="Path 3857" d="M5470.11,1338l-.793-4.9-3.4,3.91.933,3.043,3.242-1.677C5469.993,1338.007,5470.089,1338.381,5470.11,1338Z" transform="translate(-5454.13 -1320.349)" fill="#f2672a"></path><path id="Path_3858" data-name="Path 3858" d="M5388.482,1348.591a.558.558,0,0,1-.114.026c.05.087.095.176.137.266.286.225.565.46.851.689.114-.194.277-.466.292-.483l-1.543-1.894s-.313.1-.136.588A2.307,2.307,0,0,0,5388.482,1348.591Z" transform="translate(-5385.896 -1332.675)" fill="#f99e75"></path></g><g id="Group_4711" data-name="Group 4711" transform="translate(1172.467 1145.485)"><g id="Group_4700" data-name="Group 4700" transform="translate(13.169)"><path id="Path_3859" data-name="Path 3859" d="M5663.916,1148.407l-25.468-79.174h1.451l25.468,79.174Z" transform="translate(-5638.447 -1069.233)" fill="#f2672a"></path></g><g id="Group_4701" data-name="Group 4701" transform="translate(0)"><path id="Path_3860" data-name="Path 3860" d="M5558.745,1148.407l-25.468-79.174h1.45l25.468,79.174Z" transform="translate(-5533.276 -1069.233)" fill="#f2672a"></path></g><g id="Group_4702" data-name="Group 4702" transform="translate(7.338 20.553)"><path id="Path_3861" data-name="Path 3861" d="M5605.765,1233.389v1.181l-13.646-.008-.233-1.18Z" transform="translate(-5591.885 -1233.381)" fill="#f2672a"></path></g><g id="Group_4703" data-name="Group 4703" transform="translate(4.517 12.881)"><path id="Path_3862" data-name="Path 3862" d="M5583.233,1172.119v1.18l-13.645-.008-.234-1.18Z" transform="translate(-5569.354 -1172.112)" fill="#f2672a"></path></g><g id="Group_4704" data-name="Group 4704" transform="translate(2.185 5.21)"><path id="Path_3863" data-name="Path 3863" d="M5564.6,1110.85v1.18l-13.646-.008-.232-1.181Z" transform="translate(-5550.727 -1110.842)" fill="#f2672a"></path></g><g id="Group_4705" data-name="Group 4705" transform="translate(9.824 28.323)"><path id="Path_3864" data-name="Path 3864" d="M5625.614,1295.446v1.18l-13.645-.007-.233-1.181Z" transform="translate(-5611.736 -1295.439)" fill="#f2672a"></path></g><g id="Group_4706" data-name="Group 4706" transform="translate(12.156 36.093)"><path id="Path_3865" data-name="Path 3865" d="M5644.244,1357.5v1.181l-13.645-.008-.233-1.18Z" transform="translate(-5630.365 -1357.494)" fill="#f2672a"></path></g><g id="Group_4707" data-name="Group 4707" transform="translate(15.121 44.166)"><path id="Path_3866" data-name="Path 3866" d="M5667.367,1421.975l.552,1.181-13.646-.008-.233-1.18Z" transform="translate(-5654.041 -1421.968)" fill="#f2672a"></path></g><g id="Group_4708" data-name="Group 4708" transform="translate(17.679 52.239)"><path id="Path_3867" data-name="Path 3867" d="M5687.8,1486.449l.551,1.181-13.645-.008-.233-1.18Z" transform="translate(-5674.473 -1486.442)" fill="#f2672a"></path></g><g id="Group_4709" data-name="Group 4709" transform="translate(20.075 60.132)"><path id="Path_3868" data-name="Path 3868" d="M5706.935,1549.486l.552,1.181-13.646-.008-.233-1.181Z" transform="translate(-5693.607 -1549.478)" fill="#f2672a"></path></g><g id="Group_4710" data-name="Group 4710" transform="translate(22.06 68.197)"><path id="Path_3869" data-name="Path 3869" d="M5722.788,1613.9l.552,1.181-13.645-.008-.233-1.181Z" transform="translate(-5709.461 -1613.891)" fill="#f2672a"></path></g></g><g id="Group_4716" data-name="Group 4716" transform="translate(1178.235 1110.608)"><g id="Group_4712" data-name="Group 4712" transform="translate(25.958 51.428)"><path id="Path_3870" data-name="Path 3870" d="M5792.01,1206.428l-1.134,3a.989.989,0,0,0,.323,1.17,3.843,3.843,0,0,0,.594.273,35.609,35.609,0,0,0,1.515-4.1l-.013-.025A1.077,1.077,0,0,0,5792.01,1206.428Z" transform="translate(-5790.3 -1205.72)" fill="#052241"></path><path id="Path_3871" data-name="Path 3871" d="M5787.114,1201.415l1.257.708h0a.805.805,0,0,1-.277.814l-.045.036-1.388-.357Z" transform="translate(-5786.662 -1201.415)" fill="#f99e75"></path></g><path id="Path_3872" data-name="Path 3872" d="M5674.7,1050.229a7.211,7.211,0,0,1,1.568,3.707c.214,1.573-.374,4.065-.439,6.021a5.045,5.045,0,0,0,2.166,4.3l6.744,4.9-.452,1.2s-9.231-1.384-11.655-5.519-3-13.494-3-13.494Z" transform="translate(-5658.333 -1017.731)" fill="#123354"></path><path id="Path_3873" data-name="Path 3873" d="M5736.671,1009.542l3.469,7.746a4.714,4.714,0,0,1,2.044.713,1.481,1.481,0,0,1,.22,1.337.478.478,0,0,1-.783.276,3.3,3.3,0,0,0-1.2-.758,1.44,1.44,0,0,1-1.112-.748l-4.977-7.805Z" transform="translate(-5714.93 -982.139)" fill="#f99e75"></path><path id="Path_3874" data-name="Path 3874" d="M5583.6,802.507l-1.778-1.52,1.379-7.508,2.139-1.093a.619.619,0,0,0-.76-.238,1.962,1.962,0,0,1-.975.071s-.4-.5.358-.83c.426-.287.711,0,1.947-.049,0-.19-1.628-.642-1.628-.642-.508-.163-1.8.841-1.8.841a.909.909,0,0,0-.165.4l-.205,1.394s-2.755,7.557-2.755,8.364,1.543,1.912,1.543,1.912Z" transform="translate(-5579.349 -790.682)" fill="#f99e75"></path><path id="Path_3875" data-name="Path 3875" d="M5633.362,1049.016s1.069,1.288.428,4.282c-.41,1.911-2.208,4.316-3.416,5.972a5.257,5.257,0,0,0-.625,4.128c.989,5.5-.593,12.211-.593,12.211h-1.284s-1.924-9.837-2.494-16.751a19.946,19.946,0,0,1,2.209-10.906Z" transform="translate(-5619.557 -1015.739)" fill="#123354"></path><g id="Group_4714" data-name="Group 4714" transform="translate(1.879 0.37)"><g id="Group_4713" data-name="Group 4713" transform="translate(0 0)"><rect id="Rectangle_2808" data-name="Rectangle 2808" width="4.073" height="1.076" transform="matrix(0.989, -0.145, 0.145, 0.989, 0.628, 0.591)" fill="#f2672a"></rect><rect id="Rectangle_2809" data-name="Rectangle 2809" width="1.076" height="0.372" transform="translate(0.552 1.69) rotate(-98.347)" fill="#fff"></rect><path id="Path_3876" data-name="Path 3876" d="M5594.984,799.515c-.294.041-.542.021-.613-.46-.079-.526.161-.572.456-.617Z" transform="translate(-5594.355 -797.836)" fill="#0c2146"></path><path id="Path_3877" data-name="Path 3877" d="M5631.708,794.7l.782-.47-.057-.387-.881-.207Z" transform="translate(-5626.896 -793.637)" fill="#fff"></path><path id="Path_3878" data-name="Path 3878" d="M5638.648,795.679l.34-.245-.4-.143Z" transform="translate(-5633.052 -795.084)" fill="#ee4f1b"></path></g><rect id="Rectangle_2810" data-name="Rectangle 2810" width="3.936" height="0.245" transform="translate(0.86 1.23) rotate(-8.335)" fill="#d95921"></rect><rect id="Rectangle_2811" data-name="Rectangle 2811" width="3.936" height="0.245" transform="translate(0.785 0.716) rotate(-8.335)" fill="#d95921"></rect></g><path id="Path_3879" data-name="Path 3879" d="M5603.086,891.382c2.292,1.684,4.992,9.78,4.992,9.78l-2.014,1.129-3.276-4.495a43.508,43.508,0,0,0,.465,9.2c-.356,1.5-2.056,1.328-4.813.806a13.668,13.668,0,0,1-4.562-1.711s-.119-7.22-.475-11.049.348-4.237-.618-4.11c-2.153-1.223-5.683-5.161-5.683-5.161l3.278-.637,7.058,4.135A30.515,30.515,0,0,1,5603.086,891.382Z" transform="translate(-5586.133 -873.303)" fill="#f2672a"></path><path id="Path_3880" data-name="Path 3880" d="M5664.784,858.587l-1.7,1.681a2.953,2.953,0,0,0-.807,2.741l.2.9Z" transform="translate(-5651.829 -850.085)" fill="#f99e75"></path><path id="Path_3881" data-name="Path 3881" d="M5628.228,853.505c4.134,0,2.375,7.936,2.375,7.936s-.736,5.148-2.375,7.215c-1.42,1.789-4.227,1.251-5.558.392a5.075,5.075,0,0,0-2.146-.792,2.451,2.451,0,0,1-2.466-2.665c0-1.913,2.283-3.392,3.787-4.448a4.951,4.951,0,0,0,1.947-2.881C5624.274,856.3,5625.447,853.505,5628.228,853.505Z" transform="translate(-5613.211 -845.639)" fill="#e0e1e1"></path><g id="Group_4715" data-name="Group 4715" transform="translate(5.143 59.869)"><path id="Path_3882" data-name="Path 3882" d="M5624.658,1280.189l-3.208-.005c-.425.06-.9.221-.981.714a3.67,3.67,0,0,0-.047.652,35.659,35.659,0,0,0,4.367-.024l.018-.02A1.077,1.077,0,0,0,5624.658,1280.189Z" transform="translate(-5620.421 -1278.763)" fill="#052241"></path><path id="Path_3883" data-name="Path 3883" d="M5647.047,1268.834l-.22,1.426h0a.808.808,0,0,1-.861.027l-.047-.029-.155-1.425Z" transform="translate(-5642.59 -1268.834)" fill="#f99e75"></path></g><path id="Path_3884" data-name="Path 3884" d="M5609.475,802.1a.618.618,0,0,1,.76.238l-1.422.727-.06-.026a6.7,6.7,0,0,0-.942-.343A11.836,11.836,0,0,1,5609.475,802.1Z" transform="translate(-5604.247 -800.629)" fill="#f99e75"></path></g></g></svg>