<?xml version="1.0" encoding="UTF-8"?>
<svg xmlns="http://www.w3.org/2000/svg" viewBox="0 0 71 71">
  <defs>
    <style>.cls-1{fill:#ff8055;}.cls-2{fill:#4c4c4c;}</style>
  </defs>
  <g id="Слой_2" data-name="Слой 2">
    <g id="Layer_1" data-name="Layer 1">
      <path class="cls-1" d="M35.5,8.55a27,27,0,1,0,27,27A27,27,0,0,0,35.5,8.55ZM31.49,49v3.3a1.35,1.35,0,0,1-.48,1,1.37,1.37,0,0,1-1.13.27,1.39,1.39,0,0,1-1-1.38V49H25.35A1.34,1.34,0,0,1,24,47.53a1.4,1.4,0,0,1,1.43-1.21h3.38V22.49H25.31a1.27,1.27,0,0,1-1.17-1.31,1.29,1.29,0,0,1,.38-.91,1.48,1.48,0,0,1,1.05-.44h3.27V16.51a1.33,1.33,0,0,1,1.61-1.3,1.38,1.38,0,0,1,1,1.37v3.25h3.08V16.44a1.28,1.28,0,0,1,.36-.92,1.31,1.31,0,0,1,1-.4,1.36,1.36,0,0,1,1.35,1.33v2.94h2.2c5.41.51,7.88,4.37,7.88,7.74A7.53,7.53,0,0,1,45,32.47l-.62.59.74.44a8.08,8.08,0,0,1,4,7.07c0,4.46-3.29,7.91-8,8.39l-3.89,0v3.34a1.37,1.37,0,0,1-.5,1.07,1.3,1.3,0,0,1-1.11.27,1.39,1.39,0,0,1-1-1.38V49Z"></path>
      <path class="cls-2" d="M35.5,0A35.5,35.5,0,1,0,71,35.5,35.5,35.5,0,0,0,35.5,0ZM64.43,22.83a1.3,1.3,0,0,1,1.7.75,1.31,1.31,0,1,1-1.7-.75ZM56.88,12.26a1.32,1.32,0,0,1,1.86,1.86,1.32,1.32,0,0,1-1.86-1.86ZM47,6.08A1.32,1.32,0,0,1,49.4,7.14,1.32,1.32,0,1,1,47,6.08ZM35.5,2.63a1.32,1.32,0,1,1-1.31,1.31A1.31,1.31,0,0,1,35.5,2.63ZM23.58,4.87a1.31,1.31,0,1,1-.75,1.7A1.3,1.3,0,0,1,23.58,4.87ZM12.26,12.26a1.3,1.3,0,0,1,1.86,0,1.32,1.32,0,0,1-1.86,1.86A1.3,1.3,0,0,1,12.26,12.26Zm-6.85,10A1.32,1.32,0,1,1,6.08,24,1.32,1.32,0,0,1,5.41,22.27ZM2.63,35.5a1.32,1.32,0,1,1,1.31,1.31A1.31,1.31,0,0,1,2.63,35.5ZM6.57,48.17a1.3,1.3,0,0,1-1.7-.75,1.31,1.31,0,1,1,1.7.75Zm7.55,10.57a1.32,1.32,0,0,1-1.86-1.86,1.32,1.32,0,0,1,1.86,1.86ZM24,64.92a1.32,1.32,0,0,1-2.41-1.06A1.32,1.32,0,1,1,24,64.92ZM35.5,68.37a1.32,1.32,0,1,1,1.31-1.31A1.31,1.31,0,0,1,35.5,68.37Zm11.92-2.24a1.31,1.31,0,1,1,.75-1.7A1.3,1.3,0,0,1,47.42,66.13Zm11.32-7.39a1.3,1.3,0,0,1-1.86,0,1.32,1.32,0,0,1,1.86-1.86A1.3,1.3,0,0,1,58.74,58.74Zm-23.24,5A28.27,28.27,0,1,1,63.77,35.5,28.3,28.3,0,0,1,35.5,63.77Zm30.09-15A1.32,1.32,0,1,1,64.92,47,1.32,1.32,0,0,1,65.59,48.73Zm1.47-11.92a1.31,1.31,0,1,1,1.31-1.31A1.31,1.31,0,0,1,67.06,36.81Z"></path>
      <path class="cls-1" d="M40.79,46.31a5.53,5.53,0,0,0,5.36-5.51c0-2.47-1.66-5.13-5.45-5.51H31.94v11h8.85Z"></path>
      <path class="cls-1" d="M39.15,32.19c3.56-.33,5.16-2.67,5.16-4.85s-1.61-4.52-5.26-4.85H31.94v9.7h7.21Z"></path>
    </g>
  </g>
</svg>
