<?xml version="1.0" encoding="UTF-8"?>
<svg xmlns="http://www.w3.org/2000/svg" viewBox="0 0 91.77 75.2">
  <defs>
    <style>.cls-1{fill:#4c4c4c;}.cls-2{fill:#ff8055;}</style>
  </defs>
  <g id="Слой_2" data-name="Слой 2">
    <g id="Layer_1" data-name="Layer 1">
      <polygon class="cls-1" points="40.9 62.18 59.73 75.16 59.73 56.98 50.95 52.13 40.9 62.18"></polygon>
      <polygon class="cls-1" points="84.47 48.59 62.6 57.11 62.6 75.2 91.77 63.04 84.47 48.59"></polygon>
      <polygon class="cls-1" points="64.64 38.45 53.06 50.02 61.27 54.56 82.87 46.14 64.64 38.45"></polygon>
      <polygon class="cls-2" points="0 52.83 21.66 74.5 21.66 67.72 6.78 52.83 0 52.83"></polygon>
      <polygon class="cls-2" points="49.97 6.78 49.97 0 0 49.97 6.78 49.97 49.97 6.78"></polygon>
      <polygon class="cls-2" points="74.5 21.66 52.83 0 52.83 6.78 67.72 21.66 74.5 21.66"></polygon>
      <path class="cls-2" d="M65.07,23.13v0s0,0,0,0L51.4,9.4l-42,42L23.1,65.1Z"></path>
      <polygon class="cls-2" points="74.5 24.53 67.72 24.53 24.53 67.72 24.53 74.5 74.5 24.53"></polygon>
    </g>
  </g>
</svg>
