<svg xmlns="http://www.w3.org/2000/svg" id="Layer_1" data-name="Layer 1" viewBox="0 0 250 50"><defs><style>.cls-1{fill:#f3ba2f;}</style></defs><polygon class="cls-1" points="15.29 21.01 25 11.3 34.72 21.02 40.37 15.37 25 0 9.64 15.36 15.29 21.01"></polygon><rect class="cls-1" x="1.65" y="21" width="7.99" height="7.99" transform="translate(-16.02 11.32) rotate(-45)"></rect><polygon class="cls-1" points="15.29 28.99 25 38.7 34.72 28.99 40.37 34.63 40.37 34.63 25 50 9.64 34.64 9.63 34.63 15.29 28.99"></polygon><rect class="cls-1" x="40.37" y="21" width="7.99" height="7.99" transform="translate(-4.68 38.69) rotate(-45)"></rect><polygon class="cls-1" points="30.73 25 30.74 25 25 19.26 20.76 23.5 20.76 23.5 20.28 23.99 19.27 24.99 19.27 24.99 19.26 25 19.27 25.01 25 30.74 30.74 25 30.74 25 30.73 25"></polygon><path class="cls-1" d="M58.81,12.12H71.1c3,0,5.35.78,6.92,2.34A6.14,6.14,0,0,1,79.83,19v.08a6.21,6.21,0,0,1-1,3.58,6.72,6.72,0,0,1-1.09,1.23,7.71,7.71,0,0,1-1.34.91A9,9,0,0,1,80,27.13a6,6,0,0,1,1.32,4.15v.08a6.75,6.75,0,0,1-.7,3.18,6.16,6.16,0,0,1-2,2.27,9.25,9.25,0,0,1-3.14,1.36,16.77,16.77,0,0,1-4.12.42H58.81ZM69.87,22.83a6.15,6.15,0,0,0,3.07-.66A2.26,2.26,0,0,0,74.07,20V20a2.31,2.31,0,0,0-1-2,4.8,4.8,0,0,0-2.84-.7H64.47v5.6Zm1.51,10.69a5.59,5.59,0,0,0,3-.7,2.39,2.39,0,0,0,1.1-2.18v-.05a2.5,2.5,0,0,0-1-2.1,5.53,5.53,0,0,0-3.3-.78H64.44v5.84Z"></path><path class="cls-1" d="M88.63,12.12h5.83V38.59H88.63Z"></path><path class="cls-1" d="M103.3,12.12h5.37L121.1,28.44V12.12h5.76V38.59h-5L109,21.73V38.59h-5.75Z"></path><path class="cls-1" d="M144.52,11.93h5.37l11.37,26.66h-6.1l-2.42-6H141.52l-2.42,6h-6Zm6.13,15.6-3.52-8.6-3.52,8.6Z"></path><path class="cls-1" d="M167.56,12.12h5.37l12.45,16.32V12.12h5.76V38.59h-5L173.3,21.73V38.59h-5.75Z"></path><path class="cls-1" d="M212.11,39.08A13.64,13.64,0,0,1,206.69,38a13,13,0,0,1-7.16-7.23,14,14,0,0,1-1-5.34v-.08a13.79,13.79,0,0,1,3.85-9.68,13.35,13.35,0,0,1,4.36-2.95,14.22,14.22,0,0,1,5.61-1.08,17.52,17.52,0,0,1,3.39.3,14.15,14.15,0,0,1,2.78.84,11.83,11.83,0,0,1,2.31,1.28,16,16,0,0,1,2,1.67L219.12,20a14.43,14.43,0,0,0-3.16-2.2,8.1,8.1,0,0,0-3.62-.79,7.3,7.3,0,0,0-5.53,2.42,8.28,8.28,0,0,0-1.59,2.64,9,9,0,0,0-.57,3.2v.07a9.07,9.07,0,0,0,.57,3.22,8.57,8.57,0,0,0,1.57,2.65,7.26,7.26,0,0,0,5.55,2.46,8.09,8.09,0,0,0,3.84-.83,14.89,14.89,0,0,0,3.13-2.27L223,34.35a18.24,18.24,0,0,1-2.12,2,12.26,12.26,0,0,1-5.27,2.44A16.63,16.63,0,0,1,212.11,39.08Z"></path><path class="cls-1" d="M229.84,12.12h20V17.3H235.6v5.38h12.5v5.19H235.6v5.57H250v5.15H229.84Z"></path></svg>