<svg xmlns="http://www.w3.org/2000/svg" id="Layer_1" data-name="Layer 1" viewBox="0 0 220.2 30"><defs><style>.cls-1{fill:#4d4d4d;}.cls-2{fill:#0ac18e;}.cls-3{fill:#fff;}</style></defs><path class="cls-1" d="M43,29.59c-1.43,0-2.87,0-4.28-.14a31.48,31.48,0,0,1-4.43-.62V3.5a38.36,38.36,0,0,1,4-.51c1.43-.11,2.76-.17,4-.17a26.16,26.16,0,0,1,4.59.37A10.89,10.89,0,0,1,50.48,4.4a6.4,6.4,0,0,1,2.36,2.29,6.62,6.62,0,0,1,.86,3.48,5.53,5.53,0,0,1-3,4.93,6.12,6.12,0,0,1,3.39,2.56,7.62,7.62,0,0,1,.9,3.65,7,7,0,0,1-3,6.17C49.92,28.89,47,29.59,43,29.59ZM40,13.4h2.87a8,8,0,0,0,3.88-.69,2.42,2.42,0,0,0,1.17-2.24,2.35,2.35,0,0,0-1.2-2.23,8,8,0,0,0-3.54-.64H41.57A7.29,7.29,0,0,0,40,7.7v5.7Zm0,4.49v6.7c.43.06.89.09,1.4.11s1.06.05,1.66.05A10,10,0,0,0,47.33,24,2.8,2.8,0,0,0,49,21.21a2.72,2.72,0,0,0-1.35-2.58,7.92,7.92,0,0,0-3.89-.77H40Z"></path><path class="cls-1" d="M63.31,3.69a3.08,3.08,0,0,1-1,2.44,3.57,3.57,0,0,1-4.72,0,3.08,3.08,0,0,1-1-2.44,3.06,3.06,0,0,1,1-2.43,3.57,3.57,0,0,1,4.72,0A3.1,3.1,0,0,1,63.31,3.69Zm-.54,25.55h-5.6V9.41h5.6Z"></path><path class="cls-1" d="M65.79,4.48l5.61-.91V9.41h6.75v4.68H71.4v7A5.56,5.56,0,0,0,72,23.92,2.69,2.69,0,0,0,74.53,25a11.6,11.6,0,0,0,3.62-.64l.79,4.37a14.85,14.85,0,0,1-2.26.72,13.7,13.7,0,0,1-3.06.31,10.51,10.51,0,0,1-3.81-.62,5.6,5.6,0,0,1-2.42-1.74,6.45,6.45,0,0,1-1.25-2.69,15.83,15.83,0,0,1-.37-3.5V4.48Z"></path><path class="cls-1" d="M79,19.33a11.61,11.61,0,0,1,.69-4,9.75,9.75,0,0,1,2-3.31,9.59,9.59,0,0,1,3.21-2.24A10.38,10.38,0,0,1,89.14,9a13.46,13.46,0,0,1,2.9.29,14.37,14.37,0,0,1,2.56.81L93.48,14.5A15.12,15.12,0,0,0,91.74,14a8.81,8.81,0,0,0-2.11-.23,4.46,4.46,0,0,0-3.71,1.55,6.35,6.35,0,0,0-1.22,4.06,6.63,6.63,0,0,0,1.14,4.14c.77,1,2.11,1.47,4,1.47a12.39,12.39,0,0,0,2.19-.2,8.93,8.93,0,0,0,2.15-.6l.79,4.6a13,13,0,0,1-2.45.72,16.88,16.88,0,0,1-3.25.31A12.25,12.25,0,0,1,84.59,29a8.87,8.87,0,0,1-3.23-2.21,8.46,8.46,0,0,1-1.88-3.29A16.71,16.71,0,0,1,79,19.33Z"></path><path class="cls-1" d="M114.26,19.3a13.2,13.2,0,0,1-.68,4.27,8.81,8.81,0,0,1-5,5.44,11,11,0,0,1-8,0,8.79,8.79,0,0,1-3.08-2.13,9.36,9.36,0,0,1-2-3.31,12.87,12.87,0,0,1,0-8.53,9.68,9.68,0,0,1,2-3.27,9.28,9.28,0,0,1,3.1-2.11,10,10,0,0,1,3.9-.75,10.16,10.16,0,0,1,4,.75,8.92,8.92,0,0,1,3.07,2.11,9.68,9.68,0,0,1,2,3.27A12.85,12.85,0,0,1,114.26,19.3Zm-5.73,0a7,7,0,0,0-1-4.08,3.7,3.7,0,0,0-5.18-.75,3.56,3.56,0,0,0-.75.75,8.37,8.37,0,0,0,0,8.2,3.64,3.64,0,0,0,5.08.85,3.43,3.43,0,0,0,.85-.85,7.34,7.34,0,0,0,1-4.12Z"></path><path class="cls-1" d="M122.66,3.69a3.08,3.08,0,0,1-1,2.44A3.38,3.38,0,0,1,119.3,7a3.49,3.49,0,0,1-2.36-.89,3.08,3.08,0,0,1-1-2.44,3.06,3.06,0,0,1,1-2.43,3.57,3.57,0,0,1,4.72,0A3.1,3.1,0,0,1,122.66,3.69Zm-.53,25.55h-5.6V9.41h5.6Z"></path><path class="cls-1" d="M125.32,10.09A33.55,33.55,0,0,1,133.76,9a11.46,11.46,0,0,1,4.19.66,6.34,6.34,0,0,1,2.65,1.86,7.35,7.35,0,0,1,1.4,2.86,15.81,15.81,0,0,1,.4,3.69v11.2h-5.61V18.7a7.43,7.43,0,0,0-.72-3.85,2.92,2.92,0,0,0-2.66-1.12,9.43,9.43,0,0,0-1.28.06c-.45.06-.85.08-1.2.14V29.22h-5.61V10.09Z"></path><path class="cls-2" d="M157.74,29.76c-4.26,0-7.48-1.18-9.71-3.54s-3.32-5.7-3.32-10a15.44,15.44,0,0,1,1-5.78,12.47,12.47,0,0,1,2.79-4.3,11.75,11.75,0,0,1,4.21-2.65,16.87,16.87,0,0,1,8.34-.65,17.51,17.51,0,0,1,2.38.56,13,13,0,0,1,1.7.66l1,.52-1.7,4.74a13.43,13.43,0,0,0-2.8-1.09A13.15,13.15,0,0,0,158,7.79a8.23,8.23,0,0,0-2.65.44A6.37,6.37,0,0,0,153,9.68a7.39,7.39,0,0,0-1.61,2.58,10.73,10.73,0,0,0-.59,3.85,14.08,14.08,0,0,0,.38,3.36,7.27,7.27,0,0,0,1.28,2.69A6,6,0,0,0,154.81,24a8.1,8.1,0,0,0,3.47.66,17.65,17.65,0,0,0,2.3-.15,12.77,12.77,0,0,0,1.82-.37,9.84,9.84,0,0,0,1.39-.46l1.09-.49,1.62,4.72a13.43,13.43,0,0,1-3.5,1.35A20.24,20.24,0,0,1,157.74,29.76Z"></path><path class="cls-2" d="M175.3,8.89a13.19,13.19,0,0,1,4.14.57,5.89,5.89,0,0,1,4.06,4.18,12.94,12.94,0,0,1,.4,3.34V28.66c-.81.17-1.91.39-3.34.62a32.32,32.32,0,0,1-5.2.36,15.63,15.63,0,0,1-3.48-.35,7.54,7.54,0,0,1-2.69-1.1,5.25,5.25,0,0,1-1.74-2,7,7,0,0,1-.6-3.05,5.9,5.9,0,0,1,.69-2.94,5.19,5.19,0,0,1,1.86-1.92,8.3,8.3,0,0,1,2.67-1A15,15,0,0,1,175.2,17a17.82,17.82,0,0,1,1.93.1,7.13,7.13,0,0,1,1.38.25v-.52a3.11,3.11,0,0,0-.88-2.31,4.17,4.17,0,0,0-3-.87,17.89,17.89,0,0,0-2.83.22,11.14,11.14,0,0,0-2.41.58l-.72-4.53c.32-.09.73-.21,1.21-.32s1-.22,1.61-.31,1.18-.15,1.82-.23A16.36,16.36,0,0,1,175.3,8.89Zm.44,16.42h1.59a7.87,7.87,0,0,0,1.19-.12v-4.3a14.31,14.31,0,0,0-2.26-.23,14.71,14.71,0,0,0-1.49.1,3.26,3.26,0,0,0-1.21.36A2,2,0,0,0,172.42,23a1.89,1.89,0,0,0,.89,1.82A4.56,4.56,0,0,0,175.74,25.31Z"></path><path class="cls-2" d="M192.62,25.22a5.45,5.45,0,0,0,2.19-.31,1.16,1.16,0,0,0,.64-1.17,1.41,1.41,0,0,0-.83-1.18,15.49,15.49,0,0,0-2.53-1.13,22.9,22.9,0,0,1-2.4-1,6.74,6.74,0,0,1-1.82-1.26,4.83,4.83,0,0,1-1.16-1.76,6.6,6.6,0,0,1-.4-2.45,5.31,5.31,0,0,1,2.07-4.41,8.87,8.87,0,0,1,5.68-1.63,19.24,19.24,0,0,1,3.47.33,15.21,15.21,0,0,1,2.63.69l-1,4.37a19,19,0,0,0-2.12-.6,11.78,11.78,0,0,0-2.58-.27c-1.76,0-2.63.49-2.63,1.47a1.37,1.37,0,0,0,.12.6,1.25,1.25,0,0,0,.44.5,6.56,6.56,0,0,0,.93.53,16.06,16.06,0,0,0,1.49.61,24.51,24.51,0,0,1,3.06,1.35,7.78,7.78,0,0,1,1.89,1.43,4.72,4.72,0,0,1,1,1.7,7.71,7.71,0,0,1,.29,2.19,5,5,0,0,1-2.21,4.43,10.86,10.86,0,0,1-6.22,1.51,18.49,18.49,0,0,1-4.39-.45,25.48,25.48,0,0,1-2.44-.75l1-4.57a18.8,18.8,0,0,0,2.94.89A11.77,11.77,0,0,0,192.62,25.22Z"></path><path class="cls-2" d="M203.13,29.24V.91L208.74,0V9.5a14.67,14.67,0,0,1,1.45-.37A9,9,0,0,1,211.91,9a10.32,10.32,0,0,1,4,.66,6.31,6.31,0,0,1,2.56,1.85,7.51,7.51,0,0,1,1.35,2.87A15.79,15.79,0,0,1,220.2,18v11.2h-5.6V18.7a7.73,7.73,0,0,0-.7-3.85,2.77,2.77,0,0,0-2.57-1.12,6.68,6.68,0,0,0-1.41.14,9.67,9.67,0,0,0-1.18.29V29.22h-5.61Z"></path><circle class="cls-2" cx="14.79" cy="15.21" r="14.79"></circle><path id="symbol" class="cls-3" d="M19.39,10.26c-.74-1.69-2.45-2-4.53-1.69L14.19,6l-1.59.41L13.26,9c-.41.1-.84.19-1.26.31l-.66-2.57-1.59.41.67,2.59c-.33.1-3.18.83-3.18.83l.44,1.69s1.16-.32,1.15-.29a.84.84,0,0,1,1.09.45l1.84,7.12a.57.57,0,0,1-.45.67h0l-1.15.3.17,2s2.82-.73,3.19-.81l.68,2.62,1.58-.41-.67-2.64,1.26-.32L17,23.57l1.58-.41L18,20.54c2.43-.6,4.15-2.12,3.79-4.47a3.66,3.66,0,0,0-3-2.71,2.63,2.63,0,0,0,.7-3.07Zm-.76,6.19c.31,2.32-2.91,2.61-4,2.88l-.93-3.47C14.79,15.59,18.1,14.4,18.63,16.45Zm-1.95-4.73c.34,2.06-2.42,2.31-3.32,2.54l-.84-3.16c.89-.23,3.49-1.29,4.16.62Z"></path></svg>