<svg xmlns="http://www.w3.org/2000/svg" id="Layer_1" data-name="Layer 1" viewBox="0 0 167.48 35"><defs><style>.cls-1{fill:#f7931a;}.cls-2{fill:#fff;}.cls-3{fill:#4d4d4d;}</style></defs><g id="Layer_1-2" data-name="Layer 1"><g id="_1421487920208" data-name=" 1421487920208"><path class="cls-1" d="M34.46,21.74A17.49,17.49,0,1,1,21.69.52h0A17.47,17.47,0,0,1,34.47,21.71Z"></path><path class="cls-2" d="M21.45,15c-.55,2.19-3.88,1.07-5,.8L17.4,12c1.07.26,4.56.76,4,3Zm-.6,6.18c-.59,2.39-4.6,1.1-5.9.77l1-4.22C17.31,18,21.47,18.68,20.85,21.16ZM25.23,15c.34-2.33-1.43-3.58-3.83-4.41l.79-3.16L20.25,7,19.48,10,18,9.68l.76-3.1L16.83,6.1,16,9.25,14.76,9l-2.65-.66-.51,2s1.42.32,1.4.35a1,1,0,0,1,.89,1.09L13,15.4l.19.06-.2-.05-1.25,5a.72.72,0,0,1-.88.46h0l-1.37-.35-1,2.19,2.5.62,1.36.35-.79,3.19,1.92.48.79-3.15,1.52.39L15,27.75l1.92.48.8-3.18c3.27.62,5.73.37,6.77-2.59.83-2.38,0-3.76-1.77-4.65A3.07,3.07,0,0,0,25.18,15Z"></path><path class="cls-3" d="M45.52,29.52a6.19,6.19,0,0,0,2.92-.75,7.62,7.62,0,0,0,2.37-2,9.86,9.86,0,0,0,1.57-2.86A9.54,9.54,0,0,0,53,20.62a6.37,6.37,0,0,0-.71-3.32,2.75,2.75,0,0,0-2.61-1.2,7.63,7.63,0,0,0-1.64.23,4,4,0,0,0-1.8.93L43.31,29.37l.46.08a3.07,3.07,0,0,0,.42.07h1.33Zm5.76-18.93a8.27,8.27,0,0,1,3.67.75,7.28,7.28,0,0,1,2.57,2,8.21,8.21,0,0,1,1.53,3,13.79,13.79,0,0,1,.48,3.73A15.05,15.05,0,0,1,55.3,30.62a14.37,14.37,0,0,1-4.6,3.18A14.19,14.19,0,0,1,45,35h-1.4c-.76,0-1.52-.1-2.27-.2-.92-.14-1.84-.32-2.74-.55a14,14,0,0,1-2.73-1L43.49,1.11,50.35,0,47.62,11.44a9.45,9.45,0,0,1,1.76-.62,7.28,7.28,0,0,1,1.91-.22Z"></path><path class="cls-3" d="M69.81,8.26a4.19,4.19,0,0,1-2.48-.82,2.92,2.92,0,0,1-1.1-2.5,4.17,4.17,0,0,1,.38-1.75,4.46,4.46,0,0,1,1-1.42A4.94,4.94,0,0,1,69.05.82,4.2,4.2,0,0,1,70.8.52a4,4,0,0,1,2.46.82,2.92,2.92,0,0,1,1.09,2.5A4.09,4.09,0,0,1,74,5.52a4.65,4.65,0,0,1-1,1.41,4.76,4.76,0,0,1-1.43,1,4.56,4.56,0,0,1-1.75.35h0ZM66.62,34.37H60.06l5.55-23.28H72.2Z"></path><path class="cls-3" d="M78,5.29l6.86-1.06-1.76,6.86h7.35l-1.32,5.43H81.83l-1.94,8.09a9.32,9.32,0,0,0-.32,1.9A3.48,3.48,0,0,0,79.8,28a1.92,1.92,0,0,0,1,1,4.31,4.31,0,0,0,2,.36,10.2,10.2,0,0,0,2.06-.2,16.83,16.83,0,0,0,2-.54l.49,5a25.66,25.66,0,0,1-2.88.83,16.68,16.68,0,0,1-3.67.36A10.32,10.32,0,0,1,76,34a5.32,5.32,0,0,1-2.39-2.46A7.93,7.93,0,0,1,73,27.89a22.88,22.88,0,0,1,.62-4.29L78,5.27h0Z"></path><path class="cls-3" d="M90.2,25.08a16.09,16.09,0,0,1,1-5.67A14,14,0,0,1,94,14.76a12.82,12.82,0,0,1,4.4-3.14,13.86,13.86,0,0,1,5.75-1.1,14.18,14.18,0,0,1,3.56.38,13.66,13.66,0,0,1,2.86,1L108.28,17c-.59-.24-1.21-.45-1.84-.64a7.54,7.54,0,0,0-2.32-.29A6.5,6.5,0,0,0,99,18.31a9,9,0,0,0-2,6.06A6.3,6.3,0,0,0,98,28c.65.93,1.84,1.4,3.59,1.4a12.08,12.08,0,0,0,2.48-.27,12.72,12.72,0,0,0,2.12-.66l.49,5.27c-.89.33-1.81.62-2.73.86a16,16,0,0,1-3.59.37,12.31,12.31,0,0,1-4.69-.79,8.81,8.81,0,0,1-3.13-2.15,8.15,8.15,0,0,1-1.8-3.17,13.14,13.14,0,0,1-.55-3.83h0Z"></path><path class="cls-3" d="M122.56,16.05a4.13,4.13,0,0,0-2.57.84A7.14,7.14,0,0,0,118.14,19,10.46,10.46,0,0,0,117,21.83a11.68,11.68,0,0,0-.37,2.89,7.15,7.15,0,0,0,.7,3.46,2.75,2.75,0,0,0,2.57,1.24,4.16,4.16,0,0,0,2.57-.85,7.68,7.68,0,0,0,1.86-2.12,10.68,10.68,0,0,0,1.13-2.81,12.39,12.39,0,0,0,.37-2.9,6.89,6.89,0,0,0-.71-3.46,2.69,2.69,0,0,0-2.57-1.23Zm-3.28,19a10.74,10.74,0,0,1-4.08-.72,7.72,7.72,0,0,1-2.85-2,9,9,0,0,1-1.71-3,12.7,12.7,0,0,1-.54-3.87A16.78,16.78,0,0,1,111,20.1a15,15,0,0,1,2.52-4.76,13.19,13.19,0,0,1,4.11-3.47,11.23,11.23,0,0,1,5.58-1.35,10.3,10.3,0,0,1,4,.71,7.38,7.38,0,0,1,2.87,2,8.28,8.28,0,0,1,1.7,3,12.11,12.11,0,0,1,.55,3.88,17.75,17.75,0,0,1-.84,5.31A15.57,15.57,0,0,1,129,30.17a13.14,13.14,0,0,1-4.09,3.47A11.7,11.7,0,0,1,119.25,35Z"></path><path class="cls-3" d="M142.7,8.26a4.19,4.19,0,0,1-2.48-.82,2.88,2.88,0,0,1-1.09-2.5,4,4,0,0,1,.37-1.75,4.93,4.93,0,0,1,1-1.42,5.07,5.07,0,0,1,1.44-.95,4.33,4.33,0,0,1,1.74-.35,3.9,3.9,0,0,1,2.48.82,2.91,2.91,0,0,1,1.1,2.5,4.1,4.1,0,0,1-.39,1.75,4.22,4.22,0,0,1-1,1.41,4.76,4.76,0,0,1-1.43,1,4.33,4.33,0,0,1-1.74.35Zm-3.19,26.11H133l5.53-23.28h6.6l-5.58,23.28Z"></path><path class="cls-3" d="M149.81,12.15c.5-.14,1.05-.32,1.64-.51s1.28-.36,2-.54a21.65,21.65,0,0,1,2.52-.4,25.73,25.73,0,0,1,3.16-.16c3.46,0,5.85,1,7.15,3a7.82,7.82,0,0,1,1.19,4.4v.13a15.56,15.56,0,0,1-.5,3.71l-3,12.57h-6.58L160.31,22c.18-.77.32-1.51.42-2.24a5.06,5.06,0,0,0,0-1.9,2.28,2.28,0,0,0-.82-1.33,3.07,3.07,0,0,0-2-.5,12.77,12.77,0,0,0-2.61.26l-4.29,18h-6.62l5.36-22.23Z"></path></g></g></svg>