<svg xmlns="http://www.w3.org/2000/svg" id="Layer_1" data-name="Layer 1" viewBox="0 0 248.85 50"><defs><style>.cls-1{fill:#0033ad;}</style></defs><g id="Layer_2-2" data-name="Layer 2-2"><g id="Layer_1-2-2" data-name="Layer 1-2-2"><path class="cls-1" d="M14.84,24.81a3.66,3.66,0,0,0,3.43,3.86h.2a3.65,3.65,0,1,0-3.64-3.86Z"></path><path class="cls-1" d="M1.25,23.89A1.18,1.18,0,0,0,0,25a1.17,1.17,0,0,0,1.11,1.24,1.18,1.18,0,0,0,1.25-1.11h0A1.18,1.18,0,0,0,1.25,23.89Z"></path><path class="cls-1" d="M14.61,3.67a1.19,1.19,0,0,0-1.08-2.11A1.18,1.18,0,0,0,14.6,3.67Z"></path><path class="cls-1" d="M18.3,10.11a1.82,1.82,0,1,0-2.45-.81h0A1.82,1.82,0,0,0,18.3,10.11Z"></path><path class="cls-1" d="M5.86,14.55a1.5,1.5,0,1,0-.43-2.08h0A1.51,1.51,0,0,0,5.86,14.55Z"></path><path class="cls-1" d="M8.05,23.23a1.82,1.82,0,1,0,1.71,1.92h0a1.81,1.81,0,0,0-1.7-1.92Z"></path><path class="cls-1" d="M6.05,35.46a1.5,1.5,0,1,0,2,.68v0A1.49,1.49,0,0,0,6.05,35.46Z"></path><path class="cls-1" d="M13.13,19.46a2.14,2.14,0,1,0-.61-3,2.15,2.15,0,0,0,.61,3Z"></path><path class="cls-1" d="M35.57,10A1.82,1.82,0,1,0,35,7.48,1.82,1.82,0,0,0,35.57,10Z"></path><path class="cls-1" d="M39.31,3.55A1.18,1.18,0,1,0,39,1.91h0a1.18,1.18,0,0,0,.33,1.63Z"></path><path class="cls-1" d="M35.86,21.34a3.65,3.65,0,0,0-.42,7.28h.21a3.64,3.64,0,0,0,.21-7.28Z"></path><path class="cls-1" d="M19.5,19.21a3.64,3.64,0,0,0,6.9-1.64A3.6,3.6,0,0,0,26,15.93a3.64,3.64,0,1,0-6.51,3.28Z"></path><path class="cls-1" d="M48.05,14.54a1.5,1.5,0,1,0-2-.68v0A1.5,1.5,0,0,0,48.05,14.54Z"></path><path class="cls-1" d="M38.83,15.7a2.14,2.14,0,1,0,2.87.95h0A2.13,2.13,0,0,0,38.83,15.7Z"></path><path class="cls-1" d="M26.93,3a1.5,1.5,0,1,0-1.42-1.59h0A1.51,1.51,0,0,0,26.93,3Z"></path><path class="cls-1" d="M26.91,12.43a2.14,2.14,0,1,0-2-2.27h0A2.16,2.16,0,0,0,26.91,12.43Z"></path><path class="cls-1" d="M15.3,34.3a2.14,2.14,0,1,0-2.87-1h0A2.14,2.14,0,0,0,15.3,34.3Z"></path><path class="cls-1" d="M28.29,15.56a3.64,3.64,0,1,0,5-1l0,0A3.66,3.66,0,0,0,28.29,15.56Z"></path><path class="cls-1" d="M34.63,30.79a3.64,3.64,0,1,0-3.26,5.28A3.78,3.78,0,0,0,33,35.68,3.65,3.65,0,0,0,34.63,30.79Z"></path><path class="cls-1" d="M41,30.54a2.14,2.14,0,1,0,.06,0Z"></path><path class="cls-1" d="M48,25.06a1.82,1.82,0,1,0-1.92,1.72A1.83,1.83,0,0,0,48,25.06Z"></path><path class="cls-1" d="M53.05,23.77A1.18,1.18,0,1,0,54.12,25h0A1.18,1.18,0,0,0,53.05,23.77Z"></path><path class="cls-1" d="M48.26,35.45a1.5,1.5,0,1,0,.44,2.08,1.51,1.51,0,0,0-.44-2.08Z"></path><path class="cls-1" d="M14.82,46.45a1.18,1.18,0,0,0-1.29,2,1.18,1.18,0,1,0,1.29-2Z"></path><path class="cls-1" d="M39.52,46.33a1.18,1.18,0,1,0,1.58.52h0A1.18,1.18,0,0,0,39.52,46.33Z"></path><path class="cls-1" d="M25.83,34.44a3.64,3.64,0,1,0-5,1l0,0a3.72,3.72,0,0,0,2,.6A3.66,3.66,0,0,0,25.83,34.44Z"></path><path class="cls-1" d="M18.55,40a1.82,1.82,0,1,0,.53,2.52A1.82,1.82,0,0,0,18.55,40Z"></path><path class="cls-1" d="M27.05,47a1.5,1.5,0,1,0,1.41,1.59A1.5,1.5,0,0,0,27.05,47Z"></path><path class="cls-1" d="M27.05,37.57a2.14,2.14,0,1,0,2,2.27h0A2.14,2.14,0,0,0,27.05,37.57Z"></path><path class="cls-1" d="M35.82,39.89a1.82,1.82,0,1,0,2.45.8h0a1.83,1.83,0,0,0-2.44-.8Z"></path><path class="cls-1" d="M76.05,16.39c3.53,0,6,1.94,6,5.54h4.62c0-6.31-4.65-9.36-10.68-9.36-7.41,0-11.72,4-11.72,12.53,0,8.71,4.31,12.52,11.72,12.52,6.1,0,10.68-3,10.68-9.27H82.23c0,3.52-2.44,5.46-6.17,5.46-4.91,0-7.17-2.71-7.17-8.36v-.7C68.86,19.21,71.16,16.39,76.05,16.39Z"></path><path class="cls-1" d="M98.86,13,89.44,37.21H94.1l2-5.21h11.07l2,5.26H114L104.54,13ZM97.45,28.13l2.47-6.63c.49-1.3,1.37-4.13,1.55-4.62h.18c.17.49,1.06,3.35,1.55,4.62l2.47,6.63Z"></path><path class="cls-1" d="M139.16,20.34c0-4.48-2.58-7.34-7.9-7.34H118.48V37.21h4.57V27.85h7.51l4.49,9.36h5l-5.2-10.06C137.71,26,139.16,23.63,139.16,20.34Zm-8.26,3.71h-7.85v-7.2H131c2.44,0,3.71,1.31,3.71,3.49a3.42,3.42,0,0,1-3.1,3.71A3.64,3.64,0,0,1,130.9,24.05Z"></path><path class="cls-1" d="M155.05,13h-9.67V37.21h9.67c7.3,0,11.74-3.81,11.74-12.1S162.3,13,155.05,13Zm7.13,12.46c0,5.29-2.54,7.9-7.13,7.9h-5.2V16.85h5.2c4.58,0,7.13,2.61,7.13,7.9Z"></path><path class="cls-1" d="M178.57,13l-9.42,24.21h4.66L175.75,32h11.08l2,5.26h4.87L184.25,13Zm-1.41,15.13,2.47-6.63c.49-1.3,1.38-4.13,1.55-4.62h.18c.18.49,1.06,3.35,1.55,4.62l2.47,6.63Z"></path><path class="cls-1" d="M214.32,27.4c0,.46.07,1.69.07,1.9l-.18.07c-.11-.13-.81-1.37-1.19-1.93L202.5,13h-4.31V37.21h4.34V22.71c0-.6-.07-1.77-.07-1.94l.18-.11c.1.14.63,1.17,1.19,2l10.59,14.57h4.23V13h-4.34V27.4Z"></path><path class="cls-1" d="M236.64,12.58c-7.59,0-12.17,4-12.17,12.53s4.58,12.52,12.17,12.52,12.21-4,12.21-12.52S244.22,12.58,236.64,12.58Zm7.58,12.91c0,5.54-2.64,8.33-7.58,8.33s-7.59-2.82-7.59-8.33v-.74c0-5.54,2.68-8.36,7.55-8.36s7.58,2.82,7.58,8.36Z"></path></g></g></svg>