<svg xmlns="http://www.w3.org/2000/svg" id="Layer_1" data-name="Layer 1" viewBox="0 0 184.65 56.73"><defs><style>.cls-1{fill:#375bd2;}</style></defs><g id="Layer_2" data-name="Layer 2"><g id="Layer_1-2" data-name="Layer 1-2"><path class="cls-1" d="M63.39,28A10,10,0,0,1,73,17.61h.49c5.1,0,8.11,3,9,6.51L79.3,25.18a5.58,5.58,0,0,0-5.83-4.38c-3.3,0-6.61,2.41-6.61,7.27s3.23,7.18,6.65,7.18a6,6,0,0,0,5.95-4.41l3.11,1a9,9,0,0,1-9.1,6.63,9.91,9.91,0,0,1-10.09-9.72C63.37,28.54,63.38,28.29,63.39,28Z"></path><path class="cls-1" d="M88.71,38H85.43V17.58h3.28v8a4.91,4.91,0,0,1,3.9-1.72c3.39,0,5,2.43,5,5.46V38H94.45V29.9a2.67,2.67,0,0,0-2.24-3,2.91,2.91,0,0,0-.59,0,2.87,2.87,0,0,0-2.86,2.86h0V30Z"></path><path class="cls-1" d="M105,30.16l3.52-.55c.8-.1,1-.51,1-1,0-1.16-.78-2.09-2.6-2.09a2.64,2.64,0,0,0-2.82,2.37V29l-3-.67c.25-2.38,2.41-4.5,5.79-4.5,4.24,0,5.85,2.4,5.85,5.2v6.83a14.85,14.85,0,0,0,.17,2.21h-3a8.64,8.64,0,0,1-.13-1.76,4.75,4.75,0,0,1-4.24,2.17,4.32,4.32,0,0,1-4.66-3.94v-.2C100.83,31.85,102.64,30.49,105,30.16Zm4.54,2.21v-.63l-3.59.54a1.91,1.91,0,0,0-1.83,1.87A1.84,1.84,0,0,0,106,36h.18a3.11,3.11,0,0,0,3.43-2.76h0a2.83,2.83,0,0,0,0-.77Z"></path><path class="cls-1" d="M118.32,17.3a2.14,2.14,0,0,1,2.17,2.11h0a2.14,2.14,0,1,1-2.17-2.14Zm-1.61,20.8V24.28H120V38Z"></path><path class="cls-1" d="M127.47,38H124.2V24.28h3.19v1.83a4.57,4.57,0,0,1,4.07-2.23c3.36,0,5,2.43,5,5.46V38h-3.27V29.9c0-1.69-.77-3.06-2.83-3.06a2.91,2.91,0,0,0-2.88,2.92h0V38Z"></path><path class="cls-1" d="M140.42,38V17.58h3.29V38Z"></path><path class="cls-1" d="M149.55,17.3a2.13,2.13,0,1,1-2.12,2.14h0A2.16,2.16,0,0,1,149.55,17.3Zm-1.61,20.8V24.28h3.25V38Z"></path><path class="cls-1" d="M158.71,38h-3.28V24.28h3.19v1.83a4.59,4.59,0,0,1,4.07-2.23c3.36,0,5,2.43,5,5.46V38h-3.28V29.9a2.67,2.67,0,0,0-2.24-3,3,3,0,0,0-.6,0,2.9,2.9,0,0,0-2.87,2.9,2,2,0,0,0,0,.35Z"></path><path class="cls-1" d="M178.88,30.09l5.77,8h-4l-4-5.67L175,34.2V38h-3.25V17.58H175V29.84l5.28-5.56h4.35Z"></path><path class="cls-1" d="M24.56,12l14.15,8.18V36.54L24.57,44.73,10.4,36.61V20.26L24.56,12m0-12-5.2,3L5.2,11.22l-5.2,3V42.59l5.2,3,14.18,8.14,5.2,3,5.2-3,14.13-8.2,5.2-3V14.16l-5.2-3L29.71,3l-5.2-3Z"></path></g></g></svg>