<svg xmlns="http://www.w3.org/2000/svg" xmlns:xlink="http://www.w3.org/1999/xlink" width="233.82" height="118.125" viewBox="0 0 233.82 118.125"><defs><linearGradient id="linear-gradient" x1="0.166" y1="-0.003" x2="0.783" y2="0.99" gradientUnits="objectBoundingBox"><stop offset="0" stop-color="#fff" stop-opacity="0.302"></stop><stop offset="0.103" stop-color="#e5e5e6" stop-opacity="0.267"></stop><stop offset="0.271" stop-color="#9fa1a3" stop-opacity="0.169"></stop><stop offset="0.481" stop-color="#2f3237" stop-opacity="0.016"></stop><stop offset="0.5" stop-color="#24282d" stop-opacity="0"></stop></linearGradient><linearGradient id="linear-gradient-2" x1="0.166" y1="-0.003" x2="0.783" y2="0.99" gradientUnits="objectBoundingBox"><stop offset="0" stop-color="#fff" stop-opacity="0.302"></stop><stop offset="0.5" stop-color="#24282d" stop-opacity="0"></stop></linearGradient><linearGradient id="linear-gradient-3" x1="0.166" y1="-0.003" x2="0.783" y2="0.99" gradientUnits="objectBoundingBox"><stop offset="0" stop-color="#fff" stop-opacity="0.302"></stop><stop offset="0.019" stop-color="#f3f4f4" stop-opacity="0.286"></stop><stop offset="0.229" stop-color="#838588" stop-opacity="0.129"></stop><stop offset="0.397" stop-color="#3d4145" stop-opacity="0.035"></stop><stop offset="0.5" stop-color="#24282d" stop-opacity="0"></stop></linearGradient><linearGradient id="linear-gradient-4" x1="0.762" y1="8.249" x2="0.077" y2="-2.466" gradientUnits="objectBoundingBox"><stop offset="0.37" stop-color="#183d6d"></stop><stop offset="0.746" stop-color="#f2672a"></stop></linearGradient><linearGradient id="linear-gradient-5" x1="0.634" y1="2.382" x2="-0.007" y2="-1.274" xlink:href="#linear-gradient-4"></linearGradient><linearGradient id="linear-gradient-6" x1="0.691" y1="7.138" x2="0.006" y2="-3.577" xlink:href="#linear-gradient-4"></linearGradient><linearGradient id="linear-gradient-7" x1="0.567" y1="2.003" x2="-0.073" y2="-1.653" xlink:href="#linear-gradient-4"></linearGradient><linearGradient id="linear-gradient-8" x1="0.691" y1="7.138" x2="0.006" y2="-3.577" xlink:href="#linear-gradient-4"></linearGradient></defs><g id="Group_9675" data-name="Group 9675" transform="translate(2465.186 -2130.921)"><g id="_1" data-name="1" transform="translate(-2457.656 2177.151)"><g id="Group_9612" data-name="Group 9612"><g id="Group_9611" data-name="Group 9611"><g id="Group_9608" data-name="Group 9608" transform="translate(0 19.934)"><path id="Path_23901" data-name="Path 23901" d="M73.88,626.695H72.2v10.518a.535.535,0,0,1-.536.536h-.38l36.942,36.941L119.62,663.3,79.048,622.728A5.354,5.354,0,0,1,73.88,626.695Z" transform="translate(-71.287 -622.728)" fill="url(#linear-gradient)"></path></g><g id="Group_9609" data-name="Group 9609" transform="translate(25.63 10.231)"><path id="Path_23902" data-name="Path 23902" d="M99.9,616.844H98.22v10.519a.536.536,0,0,1-.535.536h-.38l36.941,36.941,11.39-11.39-40.571-40.571A5.353,5.353,0,0,1,99.9,616.844Z" transform="translate(-97.305 -612.878)" fill="url(#linear-gradient-2)"></path></g><g id="Group_9610" data-name="Group 9610" transform="translate(51.971)"><path id="Path_23903" data-name="Path 23903" d="M126.638,606.459h-1.677v10.518a.536.536,0,0,1-.536.536h-.38l36.941,36.942,11.391-11.391-40.571-40.571A5.355,5.355,0,0,1,126.638,606.459Z" transform="translate(-124.045 -602.492)" fill="url(#linear-gradient-3)"></path></g></g></g></g><g id="Group_9621" data-name="Group 9621" transform="translate(-2368.549 2131.089)"><g id="Group_9620" data-name="Group 9620"><g id="Group_9618" data-name="Group 9618" transform="translate(0 56.37)"><path id="Path_23909" data-name="Path 23909" d="M175.975,615.1a1.165,1.165,0,0,1,.679.9,1.4,1.4,0,0,1-.306,1.117,1.06,1.06,0,0,1-.759.453,1.551,1.551,0,0,1-.917-.187,8.575,8.575,0,0,0-1.622-.638,6.656,6.656,0,0,0-1.809-.239,7.185,7.185,0,0,0-2.727.492,5.953,5.953,0,0,0-2.088,1.411,6.246,6.246,0,0,0-1.344,2.167,7.879,7.879,0,0,0-.466,2.767,8.125,8.125,0,0,0,.505,2.967,6.271,6.271,0,0,0,1.4,2.18,5.673,5.673,0,0,0,2.1,1.331,7.661,7.661,0,0,0,2.621.438,7.392,7.392,0,0,0,1.769-.213,6.708,6.708,0,0,0,1.636-.638,1.583,1.583,0,0,1,.943-.173,1.1,1.1,0,0,1,.759.467,1.321,1.321,0,0,1,.334,1.13,1.234,1.234,0,0,1-.68.864,8.389,8.389,0,0,1-1.463.639,12.829,12.829,0,0,1-1.622.425,8.723,8.723,0,0,1-1.676.161,10.2,10.2,0,0,1-3.618-.639,9.193,9.193,0,0,1-3.033-1.862,8.574,8.574,0,0,1-2.087-3.006,10.291,10.291,0,0,1-.759-4.069,10.018,10.018,0,0,1,.7-3.791,8.729,8.729,0,0,1,2-3.005,9.269,9.269,0,0,1,3.019-1.969,9.912,9.912,0,0,1,3.778-.705,9.75,9.75,0,0,1,2.486.319A9.413,9.413,0,0,1,175.975,615.1Z" transform="translate(-161.744 -612.971)" fill="#fff"></path><path id="Path_23910" data-name="Path 23910" d="M192.936,625.727a7.4,7.4,0,0,1-.945,3.765,6.9,6.9,0,0,1-6.132,3.5,7.018,7.018,0,0,1-3.578-.931,6.911,6.911,0,0,1-2.553-2.567,8.026,8.026,0,0,1,0-7.555,6.965,6.965,0,0,1,6.131-3.525,6.925,6.925,0,0,1,3.593.945,7.02,7.02,0,0,1,2.54,2.58A7.447,7.447,0,0,1,192.936,625.727Zm-2.661,0a5.241,5.241,0,0,0-.584-2.539,4.512,4.512,0,0,0-1.584-1.7,4.149,4.149,0,0,0-2.248-.625,4.1,4.1,0,0,0-2.22.625,4.6,4.6,0,0,0-1.6,1.7,5.6,5.6,0,0,0,0,5.041,4.47,4.47,0,0,0,1.6,1.7,4.153,4.153,0,0,0,2.22.612,4.2,4.2,0,0,0,2.248-.612,4.383,4.383,0,0,0,1.584-1.7A5.206,5.206,0,0,0,190.275,625.727Z" transform="translate(-161.998 -613.038)" fill="#fff"></path><path id="Path_23911" data-name="Path 23911" d="M203.116,618.493a6.006,6.006,0,0,1,3.312.931,6.65,6.65,0,0,1,2.3,2.542,7.888,7.888,0,0,1,.85,3.737,8.053,8.053,0,0,1-.85,3.764,6.629,6.629,0,0,1-2.288,2.566,5.83,5.83,0,0,1-3.246.931,5.713,5.713,0,0,1-1.915-.318,5.986,5.986,0,0,1-1.6-.837,5.645,5.645,0,0,1-1.131-1.1,2.862,2.862,0,0,1-.546-1.091l.718-.346v7.422a1.322,1.322,0,0,1-.385.971,1.367,1.367,0,0,1-1.9,0,1.344,1.344,0,0,1-.372-.971V620.036a1.356,1.356,0,0,1,.372-.958,1.333,1.333,0,0,1,1.9,0,1.334,1.334,0,0,1,.385.958v1.836l-.425-.239a2.333,2.333,0,0,1,.505-1.051,5.435,5.435,0,0,1,1.077-1.024,5.636,5.636,0,0,1,1.489-.77A5.23,5.23,0,0,1,203.116,618.493Zm-.294,2.448a3.924,3.924,0,0,0-2.22.625,4.275,4.275,0,0,0-1.478,1.688,5.421,5.421,0,0,0-.532,2.448,5.6,5.6,0,0,0,.532,2.46,4.221,4.221,0,0,0,1.478,1.73,3.931,3.931,0,0,0,2.22.625,3.826,3.826,0,0,0,2.182-.625,4.352,4.352,0,0,0,1.476-1.73,5.476,5.476,0,0,0,.546-2.46,5.319,5.319,0,0,0-.546-2.435,4.388,4.388,0,0,0-1.476-1.7A3.818,3.818,0,0,0,202.823,620.941Z" transform="translate(-162.256 -613.039)" fill="#fff"></path><path id="Path_23912" data-name="Path 23912" d="M223.1,618.628a1.276,1.276,0,0,1,.958.385,1.344,1.344,0,0,1,.372.971v11.439a7.235,7.235,0,0,1-.891,3.8,5.34,5.34,0,0,1-2.395,2.143,8.177,8.177,0,0,1-3.392.677,10.772,10.772,0,0,1-1.916-.172,5.542,5.542,0,0,1-1.568-.493,2.01,2.01,0,0,1-.905-.717,1.011,1.011,0,0,1-.08-.931,1.306,1.306,0,0,1,.638-.866,1.1,1.1,0,0,1,.931-.039c.3.123.7.284,1.2.479a4.654,4.654,0,0,0,1.7.294,5.168,5.168,0,0,0,2.209-.426,2.9,2.9,0,0,0,1.369-1.331,5.106,5.106,0,0,0,.465-2.341v-1.835l.427.639a4.408,4.408,0,0,1-1.117,1.462,4.959,4.959,0,0,1-1.636.905,6.519,6.519,0,0,1-2.088.319,4.667,4.667,0,0,1-2.514-.653,4.228,4.228,0,0,1-1.609-1.809,6,6,0,0,1-.559-2.647v-7.9a1.344,1.344,0,0,1,.372-.971,1.367,1.367,0,0,1,1.9,0,1.32,1.32,0,0,1,.386.971v7.183a3.625,3.625,0,0,0,.771,2.567,3.011,3.011,0,0,0,2.287.811,3.466,3.466,0,0,0,1.755-.426,3.072,3.072,0,0,0,1.171-1.183,3.568,3.568,0,0,0,.426-1.769v-7.183a1.319,1.319,0,0,1,.385-.971A1.289,1.289,0,0,1,223.1,618.628Z" transform="translate(-162.504 -613.042)" fill="#fff"></path><path id="Path_23913" data-name="Path 23913" d="M228.424,616.591a1.378,1.378,0,0,1-.957-.359,1.209,1.209,0,0,1-.4-.945,1.139,1.139,0,0,1,.4-.9,1.413,1.413,0,0,1,.957-.346h12.1a1.332,1.332,0,0,1,.945.36,1.3,1.3,0,0,1,0,1.848,1.365,1.365,0,0,1-.945.346Zm6.038,16.068a1.382,1.382,0,0,1-1.024-.387,1.313,1.313,0,0,1-.385-.97V615.368H235.9V631.3a1.271,1.271,0,0,1-.413.97A1.439,1.439,0,0,1,234.463,632.659Z" transform="translate(-162.719 -612.973)" fill="#ed672a"></path><path id="Path_23914" data-name="Path 23914" d="M244.546,632.724a1.27,1.27,0,0,1-.958-.387,1.339,1.339,0,0,1-.372-.97V620.088a1.342,1.342,0,0,1,.372-.97,1.364,1.364,0,0,1,1.9,0,1.317,1.317,0,0,1,.386.97v2.981l-.266-1.146a4.713,4.713,0,0,1,.651-1.382,5.03,5.03,0,0,1,1.05-1.118,4.8,4.8,0,0,1,2.953-1.011,1.963,1.963,0,0,1,1.2.373,1.115,1.115,0,0,1,.506.93,1.341,1.341,0,0,1-.373,1.051,1.2,1.2,0,0,1-.824.332,1.813,1.813,0,0,1-.772-.172,2.068,2.068,0,0,0-.878-.172,2.546,2.546,0,0,0-1.144.292,3.376,3.376,0,0,0-1.065.866,4.414,4.414,0,0,0-.758,1.343,5.083,5.083,0,0,0-.279,1.729v6.384a1.314,1.314,0,0,1-.386.97A1.282,1.282,0,0,1,244.546,632.724Z" transform="translate(-162.96 -613.038)" fill="#ed672a"></path><path id="Path_23915" data-name="Path 23915" d="M265.526,618.519a1.288,1.288,0,0,1,.945.385,1.315,1.315,0,0,1,.385.971v11.491a1.313,1.313,0,0,1-.385.97,1.283,1.283,0,0,1-.945.387,1.27,1.27,0,0,1-.957-.387,1.339,1.339,0,0,1-.372-.97v-1.915l.532.08a1.988,1.988,0,0,1-.385,1.064,5.135,5.135,0,0,1-1.051,1.13,5.82,5.82,0,0,1-1.569.905,5.219,5.219,0,0,1-1.943.359,5.948,5.948,0,0,1-3.3-.945,6.635,6.635,0,0,1-2.315-2.594,8.777,8.777,0,0,1,0-7.541,6.6,6.6,0,0,1,2.3-2.568,6.114,6.114,0,0,1,5.347-.558,6.119,6.119,0,0,1,1.689.958,4.963,4.963,0,0,1,1.118,1.236,2.391,2.391,0,0,1,.4,1.237l-.826.08v-2.42a1.352,1.352,0,0,1,.372-.958A1.251,1.251,0,0,1,265.526,618.519ZM260.1,630.542a3.83,3.83,0,0,0,2.195-.637,4.325,4.325,0,0,0,1.477-1.744,5.987,5.987,0,0,0,0-4.934,4.333,4.333,0,0,0-1.477-1.729,4.069,4.069,0,0,0-4.376,0,4.3,4.3,0,0,0-1.49,1.729,6,6,0,0,0,0,4.934,4.327,4.327,0,0,0,1.478,1.744A3.829,3.829,0,0,0,260.1,630.542Z" transform="translate(-163.111 -613.038)" fill="#ed672a"></path><path id="Path_23916" data-name="Path 23916" d="M282.161,612.957a1.3,1.3,0,0,1,1.331,1.356v16.972a1.314,1.314,0,0,1-.386.97,1.283,1.283,0,0,1-.945.387,1.268,1.268,0,0,1-.957-.387,1.338,1.338,0,0,1-.372-.97V629.37l.532.027a2.055,2.055,0,0,1-.385,1.078,5.3,5.3,0,0,1-1.051,1.157,5.715,5.715,0,0,1-1.57.917,5.214,5.214,0,0,1-1.942.36,5.971,5.971,0,0,1-3.285-.945,6.625,6.625,0,0,1-2.328-2.58,8.75,8.75,0,0,1,0-7.529,6.692,6.692,0,0,1,2.3-2.58,6.011,6.011,0,0,1,5.32-.571,6.116,6.116,0,0,1,1.688.958,5.2,5.2,0,0,1,1.132,1.236,2.345,2.345,0,0,1,.412,1.237l-.825.08v-7.9a1.342,1.342,0,0,1,.372-.97A1.271,1.271,0,0,1,282.161,612.957Zm-5.427,17.5a3.832,3.832,0,0,0,2.195-.637,4.341,4.341,0,0,0,1.477-1.73,6.019,6.019,0,0,0,0-4.948,4.325,4.325,0,0,0-1.477-1.729,4.071,4.071,0,0,0-4.377,0,4.294,4.294,0,0,0-1.489,1.729,6.02,6.02,0,0,0,0,4.948,4.31,4.31,0,0,0,1.489,1.73A3.854,3.854,0,0,0,276.734,630.461Z" transform="translate(-163.359 -612.957)" fill="#ed672a"></path><path id="Path_23917" data-name="Path 23917" d="M293.821,632.99a7.673,7.673,0,0,1-3.817-.917,6.431,6.431,0,0,1-2.528-2.528,7.491,7.491,0,0,1-.892-3.685,7.984,7.984,0,0,1,.946-4A6.713,6.713,0,0,1,290,619.3a6.325,6.325,0,0,1,3.233-.891,6.072,6.072,0,0,1,2.46.518,6.659,6.659,0,0,1,2.088,1.437,6.974,6.974,0,0,1,1.436,2.154,7.1,7.1,0,0,1,.559,2.7,1.2,1.2,0,0,1-.426.878,1.377,1.377,0,0,1-.931.346H288.1l-.638-2.262h10l-.506.479V624a2.979,2.979,0,0,0-.637-1.634,3.829,3.829,0,0,0-1.37-1.091,3.95,3.95,0,0,0-1.715-.385,4.8,4.8,0,0,0-1.544.252,3.337,3.337,0,0,0-1.3.812,4.068,4.068,0,0,0-.9,1.476,6.479,6.479,0,0,0-.347,2.276,5.136,5.136,0,0,0,.612,2.553,4.386,4.386,0,0,0,1.649,1.689,4.553,4.553,0,0,0,2.315.6,5.443,5.443,0,0,0,1.6-.2,3.973,3.973,0,0,0,1.064-.492c.283-.194.532-.381.745-.558a1.626,1.626,0,0,1,.8-.24,1.065,1.065,0,0,1,.8.332,1.094,1.094,0,0,1,.319.786,1.372,1.372,0,0,1-.585,1.064,6.468,6.468,0,0,1-1.982,1.224A6.768,6.768,0,0,1,293.821,632.99Z" transform="translate(-163.607 -613.038)" fill="#ed672a"></path></g><g id="Group_9619" data-name="Group 9619" transform="translate(0.098)"><path id="_5" data-name=" 5" d="M215.2,597.917a1.835,1.835,0,0,1-1.789-1.732V561.967a2.381,2.381,0,0,0-2.235-2.518l-.058,0H202.27a1.892,1.892,0,0,1-1.682-1.849,1.825,1.825,0,0,1,1.682-1.789h25.613a1.722,1.722,0,0,1,1.734,1.71c0,.026,0,.052,0,.079a1.761,1.761,0,0,1-1.673,1.847l-.059,0H216.87v36.747a1.819,1.819,0,0,1-1.675,1.732" transform="translate(-162.422 -555.734)" fill="#fff"></path><path id="_4" data-name=" 4" d="M239.051,597.918a1.737,1.737,0,0,1-1.732-1.732V557.6a1.778,1.778,0,0,1,1.732-1.738h21.975a1.778,1.778,0,0,1,1.732,1.738,1.839,1.839,0,0,1-1.732,1.849H243.5a2.584,2.584,0,0,0-2.665,2.5,2.518,2.518,0,0,0,.011.334v10.375H258.9a1.82,1.82,0,0,1,0,3.608H240.85v19.9a1.788,1.788,0,0,1-1.793,1.732" transform="translate(-162.97 -555.735)" fill="#fff"></path><path id="_3" data-name=" 3" d="M299.28,595.061l-10.093-15.554a5.181,5.181,0,0,1-.649-2.7,6.069,6.069,0,0,1,.917-3.2l9.844-15.163a1.826,1.826,0,0,0-.428-2.356,1.769,1.769,0,0,0-2.477.345,1.874,1.874,0,0,0-.152.237l-10.93,16.86-10.932-16.85a1.78,1.78,0,0,0-2.577-.634,1.834,1.834,0,0,0-.448,2.433l11.854,18.288-11.854,18.292a1.892,1.892,0,0,0,.436,2.515,1.855,1.855,0,0,0,2.474-.572L285.315,580,296.366,597a1.892,1.892,0,0,0,2.474.572,1.915,1.915,0,0,0,.436-2.515" transform="translate(-163.474 -555.733)" fill="#fff"></path><path id="_2" data-name=" 2" d="M196.356,597.943a1.764,1.764,0,0,1-1.546-1.057l-12.944-30.658a1.978,1.978,0,0,0-1.638-1.073,2.275,2.275,0,0,0-1.9,1.455l-12.679,30.3a1.763,1.763,0,0,1-2.31.86,1.722,1.722,0,0,1-.968-2.207l16.277-38.615a1.669,1.669,0,0,1,1.6-1.1,1.871,1.871,0,0,1,1.656,1.207l16.118,38.491a1.665,1.665,0,0,1,0,1.335,1.757,1.757,0,0,1-.873.882,2.1,2.1,0,0,1-.789.181" transform="translate(-161.85 -555.735)" fill="#fff"></path><path id="_1-2" data-name=" 1" d="M163.694,585.013a1.943,1.943,0,0,1,0-3.882H188l1.639,3.882Z" transform="translate(-161.844 -556.112)" fill="#ed672a"></path></g></g></g><rect id="Rectangle_27072" data-name="Rectangle 27072" width="233.82" height="97.601" transform="translate(-2465.186 2130.921)" fill="none"></rect><g id="Group_5253" data-name="Group 5253" transform="translate(-2465.186 2131.089)"><g id="Group_5250" data-name="Group 5250" transform="translate(52.387)"><circle id="Ellipse_2" data-name="Ellipse 2" cx="7.304" cy="7.304" r="7.304" transform="translate(0.504)" fill="url(#linear-gradient-4)"></circle><path id="Path_4672" data-name="Path 4672" d="M1740.288,157.175h-4.873a5.371,5.371,0,0,0-5.371,5.371v20.992a5.371,5.371,0,0,0,5.371,5.371h1.681v10.544a.538.538,0,0,0,.537.538h.437a.538.538,0,0,0,.537-.538V188.91h1.681a5.37,5.37,0,0,0,5.37-5.371V162.546A5.371,5.371,0,0,0,1740.288,157.175Z" transform="translate(-1730.044 -138.538)" fill="url(#linear-gradient-5)"></path></g><g id="Group_5251" data-name="Group 5251" transform="translate(0 19.645)"><path id="Path_4673" data-name="Path 4673" d="M1663.521,173.217a7.3,7.3,0,1,0-7.3-7.3A7.3,7.3,0,0,0,1663.521,173.217Z" transform="translate(-1655.713 -158.609)" fill="url(#linear-gradient-6)"></path><path id="Path_4674" data-name="Path 4674" d="M1665.745,185.129h-4.874a5.372,5.372,0,0,0-5.371,5.371v20.992a5.372,5.372,0,0,0,5.371,5.371h1.682v10.544a.537.537,0,0,0,.537.537h.437a.537.537,0,0,0,.537-.537V216.864h1.681a5.372,5.372,0,0,0,5.371-5.371V190.5A5.372,5.372,0,0,0,1665.745,185.129Z" transform="translate(-1655.5 -166.492)" fill="url(#linear-gradient-7)"></path></g><g id="Group_5252" data-name="Group 5252" transform="translate(26.194 10.161)"><path id="Path_4675" data-name="Path 4675" d="M1700.794,159.722a7.3,7.3,0,1,0-7.3-7.3A7.3,7.3,0,0,0,1700.794,159.722Z" transform="translate(-1692.985 -145.114)" fill="url(#linear-gradient-8)"></path><path id="Path_4676" data-name="Path 4676" d="M1703.017,171.635h-4.874a5.37,5.37,0,0,0-5.37,5.371V198a5.37,5.37,0,0,0,5.37,5.371h1.682v10.545a.537.537,0,0,0,.537.537h.437a.537.537,0,0,0,.537-.537V203.369h1.681a5.371,5.371,0,0,0,5.372-5.371V177.006A5.371,5.371,0,0,0,1703.017,171.635Z" transform="translate(-1692.772 -152.997)" fill="url(#linear-gradient-7)"></path></g></g></g></svg>