<svg xmlns="http://www.w3.org/2000/svg" id="Layer_1" data-name="Layer 1" viewBox="0 0 232.36 45"><defs><style>.cls-1{fill:#c2a633;}.cls-2{fill:none;}.cls-3{fill:#1e4151;}</style></defs><path class="cls-1" d="M23,14.83H19.83v6.34h5.05v2.65H19.83v6.34H23.2c.86,0,7.11.09,7.1-7.38S24.24,14.83,23,14.83Z"></path><path class="cls-1" d="M22.5,0A22.5,22.5,0,1,0,45,22.5h0A22.5,22.5,0,0,0,22.5,0Zm.88,34.68H15.24V23.82H12.36V21.17h2.88V10.33h7c1.65,0,12.61-.34,12.61,12.37,0,12.91-11.46,12-11.46,12Z"></path><path class="cls-2" d="M188.4,17.61a5.86,5.86,0,0,0-8,2l-.13.23a6.71,6.71,0,0,0-.78,3.26,6.85,6.85,0,0,0,.78,3.29,5.67,5.67,0,0,0,2.13,2.19,6.21,6.21,0,0,0,6,0,5.6,5.6,0,0,0,2.13-2.19,6.6,6.6,0,0,0,.78-3.29,6.49,6.49,0,0,0-.78-3.26A5.5,5.5,0,0,0,188.4,17.61Z"></path><path class="cls-2" d="M68.67,18.68a6.32,6.32,0,0,0-4.52-1.61H60.22v12h3.93a6.32,6.32,0,0,0,4.52-1.61,6.5,6.5,0,0,0,0-8.82Z"></path><path class="cls-2" d="M94,17.61a5.86,5.86,0,0,0-8,2l-.13.23a6.49,6.49,0,0,0-.78,3.26,6.71,6.71,0,0,0,.78,3.29A5.68,5.68,0,0,0,88,28.58a6.21,6.21,0,0,0,6,0,5.74,5.74,0,0,0,2.13-2.19,6.6,6.6,0,0,0,.78-3.29,6.49,6.49,0,0,0-.78-3.26A5.85,5.85,0,0,0,94,17.61Z"></path><path class="cls-3" d="M97.23,13.16A13,13,0,0,0,91,11.68a13.21,13.21,0,0,0-6.26,1.48,11.21,11.21,0,0,0-4.37,4.08,11,11,0,0,0-1.56,5.87,10.92,10.92,0,0,0,5.93,10A13.21,13.21,0,0,0,91,34.54a12.9,12.9,0,0,0,6.24-1.48,11.23,11.23,0,0,0,0-19.9ZM96.14,26.39A5.7,5.7,0,0,1,94,28.58a6.21,6.21,0,0,1-6,0,5.74,5.74,0,0,1-2.13-2.19,6.6,6.6,0,0,1-.78-3.29,6.49,6.49,0,0,1,.78-3.26,5.85,5.85,0,0,1,10.29,0,6.49,6.49,0,0,1,.78,3.26,6.73,6.73,0,0,1-.8,3.29Z"></path><path class="cls-3" d="M117.86,16.83a7,7,0,0,1,5.33,2.44l4-3.58a10.63,10.63,0,0,0-4.08-3,13.67,13.67,0,0,0-5.51-1,13.45,13.45,0,0,0-6.32,1.48,10.71,10.71,0,0,0-4.36,4,11.13,11.13,0,0,0-1.56,5.9,11.34,11.34,0,0,0,1.56,5.9A11,11,0,0,0,111.26,33a13,13,0,0,0,6.21,1.45,17.23,17.23,0,0,0,4.89-.72,14,14,0,0,0,4.33-2.08v-9h-5.48v6a7.79,7.79,0,0,1-3.36.73,6.58,6.58,0,0,1-3.22-.78,5.53,5.53,0,0,1-2.19-2.23,6.61,6.61,0,0,1-.79-3.26,5.93,5.93,0,0,1,5.56-6.28h.7Z"></path><path class="cls-3" d="M70.8,13.47a14.56,14.56,0,0,0-6.4-1.35H54v22H64.4a14.56,14.56,0,0,0,6.4-1.35A10.14,10.14,0,0,0,75.13,29a11.71,11.71,0,0,0,0-11.6A10.28,10.28,0,0,0,70.8,13.47ZM68.67,27.53a6.32,6.32,0,0,1-4.52,1.61H60.22v-12h3.93a6.4,6.4,0,0,1,4.52,1.6,6.53,6.53,0,0,1,0,8.83Z"></path><rect class="cls-3" x="200.85" y="12.12" width="6.21" height="21.96"></rect><path class="cls-3" d="M191.64,13.16a12.9,12.9,0,0,0-6.24-1.48,13.28,13.28,0,0,0-6.27,1.48,11.33,11.33,0,0,0-4.36,4.08,11.82,11.82,0,0,0,0,11.74,11.25,11.25,0,0,0,4.36,4.08,13.28,13.28,0,0,0,6.27,1.48,12.9,12.9,0,0,0,6.24-1.48,11.24,11.24,0,0,0,0-19.9Zm-1.11,13.23a5.54,5.54,0,0,1-2.13,2.19,5.9,5.9,0,0,1-8.08-2,1.09,1.09,0,0,0-.08-.15,6.85,6.85,0,0,1-.78-3.29,6.6,6.6,0,0,1,.78-3.26,6,6,0,0,1,8.16-2.23,5.64,5.64,0,0,1,2.13,2.23,6.49,6.49,0,0,1,.78,3.26,6.6,6.6,0,0,1-.78,3.29Z"></path><polygon class="cls-3" points="136.73 25.27 146.49 25.27 146.49 20.62 136.73 20.62 136.73 16.93 147.81 16.93 147.81 12.12 130.58 12.12 130.58 34.08 148.2 34.08 148.2 29.28 136.73 29.28 136.73 25.27"></polygon><polygon class="cls-3" points="226.28 12.12 226.28 23.82 216.59 12.12 211.48 12.12 211.48 34.08 217.57 34.08 217.57 22.39 227.25 34.08 232.36 34.08 232.36 12.12 226.28 12.12"></polygon><path class="cls-3" d="M159.69,17.61a6.37,6.37,0,0,1,3.2-.78,6.47,6.47,0,0,1,5.17,2.57L172,15.82a10.32,10.32,0,0,0-4-3.07,13.29,13.29,0,0,0-5.43-1.07,13,13,0,0,0-6.21,1.48,10.94,10.94,0,0,0-4.29,4,11.35,11.35,0,0,0,3.8,15.6l.49.28a13,13,0,0,0,6.21,1.45A13.36,13.36,0,0,0,168,33.42a10.32,10.32,0,0,0,4-3.07l-3.95-3.58a6.47,6.47,0,0,1-5.17,2.57,6.37,6.37,0,0,1-3.2-.78,5.55,5.55,0,0,1-2.16-2.19,7,7,0,0,1-.75-3.3,6.78,6.78,0,0,1,.75-3.25A5.41,5.41,0,0,1,159.69,17.61Z"></path></svg>