<svg xmlns="http://www.w3.org/2000/svg" viewBox="0 0 50 55"><g id="&#x421;&#x433;&#x440;&#x443;&#x43F;&#x43F;&#x438;&#x440;&#x43E;&#x432;&#x430;&#x442;&#x44C;_5370" data-name="&#x421;&#x433;&#x440;&#x443;&#x43F;&#x43F;&#x438;&#x440;&#x43E;&#x432;&#x430;&#x442;&#x44C; 5370" transform="translate(-1084.226 -693)"><g id="&#x421;&#x433;&#x440;&#x443;&#x43F;&#x43F;&#x438;&#x440;&#x43E;&#x432;&#x430;&#x442;&#x44C;_5249" data-name="&#x421;&#x433;&#x440;&#x443;&#x43F;&#x43F;&#x438;&#x440;&#x43E;&#x432;&#x430;&#x442;&#x44C; 5249" transform="translate(1083.728 692.588)"><path id="&#x41A;&#x43E;&#x43D;&#x442;&#x443;&#x440;_4603" data-name="&#x41A;&#x43E;&#x43D;&#x442;&#x443;&#x440; 4603" d="M28199.234,7036.352a.52.52,0,0,0,.246.041.591.591,0,0,0,.535-.329,13.087,13.087,0,0,1,8.3-7.36.624.624,0,1,0-.367-1.193,14.435,14.435,0,0,0-9.047,8.06A.588.588,0,0,0,28199.234,7036.352Z" transform="translate(-28185.762 -7015.001)" fill="#0f2c52" fill-rule="evenodd"></path><path id="&#x41A;&#x43E;&#x43D;&#x442;&#x443;&#x440;_4604" data-name="&#x41A;&#x43E;&#x43D;&#x442;&#x443;&#x440; 4604" d="M28747.207,6807.084a1.622,1.622,0,0,0,1.234.165,1.649,1.649,0,0,0,1.2-2.015,1.814,1.814,0,0,0-.781-1.028,1.871,1.871,0,0,0-.824-.206,1.509,1.509,0,0,0-1.437.823h0a1.51,1.51,0,0,0-.164,1.274A1.55,1.55,0,0,0,28747.207,6807.084Z" transform="translate(-28710.752 -6800.701)" fill="#4c4c4c" fill-rule="evenodd"></path><path id="&#x41A;&#x43E;&#x43D;&#x442;&#x443;&#x440;_4605" data-name="&#x41A;&#x43E;&#x43D;&#x442;&#x443;&#x440; 4605" d="M28960.252,7018.125a1.685,1.685,0,0,0,.615-2.3,1.5,1.5,0,0,0-.986-.74,1.744,1.744,0,0,0-.451-.082,1.488,1.488,0,0,0-.824.247,1.658,1.658,0,0,0,1.646,2.878Z" transform="translate(-28913.473 -7003.025)" fill="#4c4c4c" fill-rule="evenodd"></path><path id="&#x41A;&#x43E;&#x43D;&#x442;&#x443;&#x440;_4606" data-name="&#x41A;&#x43E;&#x43D;&#x442;&#x443;&#x440; 4606" d="M27959.443,7593.041a1.408,1.408,0,0,0-.412-.041,2.221,2.221,0,0,0-.863.205h0a1.7,1.7,0,0,0-.74,1.028,1.567,1.567,0,0,0,.166,1.275,1.494,1.494,0,0,0,.986.739,1.547,1.547,0,0,0,1.275-.164,1.507,1.507,0,0,0,.74-.987,1.567,1.567,0,0,0-.164-1.274A1.708,1.708,0,0,0,27959.443,7593.041Z" transform="translate(-27954.195 -7557.258)" fill="#4c4c4c" fill-rule="evenodd"></path><circle id="&#x42D;&#x43B;&#x43B;&#x438;&#x43F;&#x441;_86" data-name="&#x42D;&#x43B;&#x43B;&#x438;&#x43F;&#x441; 86" cx="1.5" cy="1.5" r="1.5" transform="translate(47.499 23.412)" fill="#4c4c4c"></circle><circle id="&#x42D;&#x43B;&#x43B;&#x438;&#x43F;&#x441;_87" data-name="&#x42D;&#x43B;&#x43B;&#x438;&#x43F;&#x441; 87" cx="1.5" cy="1.5" r="1.5" transform="translate(0.499 23.412)" fill="#4c4c4c"></circle><path id="&#x41A;&#x43E;&#x43D;&#x442;&#x443;&#x440;_4607" data-name="&#x41A;&#x43E;&#x43D;&#x442;&#x443;&#x440; 4607" d="M28958.855,7596.084a1.676,1.676,0,0,0,2.262-.575,1.581,1.581,0,0,0,.164-1.275,1.764,1.764,0,0,0-.781-1.028h0a1.877,1.877,0,0,0-.824-.205,1.669,1.669,0,0,0-1.437.822,1.94,1.94,0,0,0-.164,1.274A1.689,1.689,0,0,0,28958.855,7596.084Z" transform="translate(-28913.721 -7557.258)" fill="#4c4c4c" fill-rule="evenodd"></path><path id="&#x41A;&#x43E;&#x43D;&#x442;&#x443;&#x440;_4608" data-name="&#x41A;&#x43E;&#x43D;&#x442;&#x443;&#x440; 4608" d="M27958.32,7018.125a1.665,1.665,0,0,0,2.262-.617,1.628,1.628,0,0,0-.578-2.262,1.579,1.579,0,0,0-.82-.247,1.759,1.759,0,0,0-.453.082,1.51,1.51,0,0,0-.988.74A1.71,1.71,0,0,0,27958.32,7018.125Z" transform="translate(-27954.344 -7003.025)" fill="#4c4c4c" fill-rule="evenodd"></path><path id="&#x41A;&#x43E;&#x43D;&#x442;&#x443;&#x440;_4609" data-name="&#x41A;&#x43E;&#x43D;&#x442;&#x443;&#x440; 4609" d="M28170.016,6807.249a1.622,1.622,0,0,0,1.234-.165,1.648,1.648,0,0,0-.824-3.084,1.867,1.867,0,0,0-.82.206,1.674,1.674,0,0,0-.617,2.262A1.634,1.634,0,0,0,28170.016,6807.249Z" transform="translate(-28156.914 -6800.701)" fill="#4c4c4c" fill-rule="evenodd"></path><circle id="&#x42D;&#x43B;&#x43B;&#x438;&#x43F;&#x441;_88" data-name="&#x42D;&#x43B;&#x43B;&#x438;&#x43F;&#x441; 88" cx="1.5" cy="1.5" r="1.5" transform="translate(23.499 0.412)" fill="#4c4c4c"></circle><rect id="&#x41F;&#x440;&#x44F;&#x43C;&#x43E;&#x443;&#x433;&#x43E;&#x43B;&#x44C;&#x43D;&#x438;&#x43A;_20149" data-name="&#x41F;&#x440;&#x44F;&#x43C;&#x43E;&#x443;&#x433;&#x43E;&#x43B;&#x44C;&#x43D;&#x438;&#x43A; 20149" width="12" height="7" rx="2" transform="translate(19.272 48.412)" fill="#4c4c4c"></rect><path id="&#x41A;&#x43E;&#x43D;&#x442;&#x443;&#x440;_4602" data-name="&#x41A;&#x43E;&#x43D;&#x442;&#x443;&#x440; 4602" d="M28053.855,6946.691v4.113h15.707v-4.113a18.709,18.709,0,1,0-15.707,0Zm4.648,4.113h0Z" transform="translate(-28036.313 -6903.301)" fill="#ff8055" fill-rule="evenodd"></path></g><path id="&#x41A;&#x43E;&#x43D;&#x442;&#x443;&#x440;_5142" data-name="&#x41A;&#x43E;&#x43D;&#x442;&#x443;&#x440; 5142" d="M28199.32,7038.387a.636.636,0,0,0,.3.051.727.727,0,0,0,.66-.405,16.091,16.091,0,0,1,10.211-9.05.768.768,0,1,0-.453-1.467,17.743,17.743,0,0,0-11.121,9.91A.721.721,0,0,0,28199.32,7038.387Z" transform="translate(8150.714 -27493.279) rotate(90)" fill="#fff" fill-rule="evenodd"></path><rect id="&#x41F;&#x440;&#x44F;&#x43C;&#x43E;&#x443;&#x433;&#x43E;&#x43B;&#x44C;&#x43D;&#x438;&#x43A;_20150" data-name="&#x41F;&#x440;&#x44F;&#x43C;&#x43E;&#x443;&#x433;&#x43E;&#x43B;&#x44C;&#x43D;&#x438;&#x43A; 20150" width="16" height="11" rx="2" transform="translate(1101 732)" fill="#ff8055"></rect></g></svg>