<svg xmlns="http://www.w3.org/2000/svg" viewBox="0 0 56 56"><g id="&#x421;&#x433;&#x440;&#x443;&#x43F;&#x43F;&#x438;&#x440;&#x43E;&#x432;&#x430;&#x442;&#x44C;_5366" data-name="&#x421;&#x433;&#x440;&#x443;&#x43F;&#x43F;&#x438;&#x440;&#x43E;&#x432;&#x430;&#x442;&#x44C; 5366" transform="translate(-1042 -1185)"><rect id="&#x41F;&#x440;&#x44F;&#x43C;&#x43E;&#x443;&#x433;&#x43E;&#x43B;&#x44C;&#x43D;&#x438;&#x43A;_20071" data-name="&#x41F;&#x440;&#x44F;&#x43C;&#x43E;&#x443;&#x433;&#x43E;&#x43B;&#x44C;&#x43D;&#x438;&#x43A; 20071" width="56" height="56" transform="translate(1042 1185)" fill="gray" opacity="0"></rect><g id="_2297188935808" transform="translate(1042 1189.206)"><path id="&#x41A;&#x43E;&#x43D;&#x442;&#x443;&#x440;_4990" data-name="&#x41A;&#x43E;&#x43D;&#x442;&#x443;&#x440; 4990" d="M34146,19.874a.713.713,0,0,1-.328.617l-5.539,4.32a.738.738,0,0,1-1.035-.126.755.755,0,0,1-.148-.446v-8.3a.724.724,0,0,1,1.191-.56l5.551,3.9A.718.718,0,0,1,34146,19.874Zm-5.59,2.88,3.645-2.846-3.645-2.56Zm5.59,26.972a.73.73,0,0,1-.734.731h-54.531a.73.73,0,0,1-.734-.731.722.722,0,0,1,.328-.617l19.117-14.88a.7.7,0,0,1,.445-.149l16.223-.011a.731.731,0,0,1,.5.206l19.105,14.88A.71.71,0,0,1,34146,49.726Zm-56-29.852a.712.712,0,0,1,.355-.617l6.184-4.354a.737.737,0,0,1,1.02.183.811.811,0,0,1,.125.423v9.223a.73.73,0,0,1-.734.731.708.708,0,0,1-.488-.206l-6.187-4.8A.769.769,0,0,1,34090,19.874Zm6.23-2.971-4.289,3.006,4.289,3.326Zm11.625-9.943,9.719-6.834a.754.754,0,0,1,.867,0l9.754,6.869a.718.718,0,0,1,.184,1.006.729.729,0,0,1-.605.309l-19.543.011a.729.729,0,0,1-.73-.731A.7.7,0,0,1,34107.852,6.96ZM34118,1.611l-7.48,5.246h14.953Z" transform="translate(-34089.996 0.012)" fill="#4c4c4c"></path><path id="&#x41A;&#x43E;&#x43D;&#x442;&#x443;&#x440;_4991" data-name="&#x41A;&#x43E;&#x43D;&#x442;&#x443;&#x440; 4991" d="M34635.723,601h42.734a.734.734,0,0,1,.73.731v16.652a.736.736,0,0,1-.348.617l-13.508,10.514a.734.734,0,0,1-.449.16h-16.223a.738.738,0,0,1-.508-.194l-12.875-10.034a.714.714,0,0,1-.277-.571V601.731A.72.72,0,0,1,34635.723,601Z" transform="translate(-34628.773 -594.131)" fill="#ff8055"></path><path id="&#x41A;&#x43E;&#x43D;&#x442;&#x443;&#x440;_4992" data-name="&#x41A;&#x43E;&#x43D;&#x442;&#x443;&#x440; 4992" d="M34110.316,1692.24l-19.141,14.914a.737.737,0,0,1-1.027-.126.708.708,0,0,1-.152-.446v-29.852a.73.73,0,0,1,.734-.731.685.685,0,0,1,.484.206l19.117,14.88A.753.753,0,0,1,34110.316,1692.24Z" transform="translate(-34089.996 -1656.845)" fill="#4c4c4c"></path><path id="&#x41A;&#x43E;&#x43D;&#x442;&#x443;&#x440;_4993" data-name="&#x41A;&#x43E;&#x43D;&#x442;&#x443;&#x440; 4993" d="M37205.711,1707.155l-19.145-14.914-.133-.137a.718.718,0,0,1,.125-1.017l19.109-14.88a.71.71,0,0,1,.492-.206.726.726,0,0,1,.727.731v29.852a.718.718,0,0,1-1.176.572Z" transform="translate(-37150.891 -1656.845)" fill="#4c4c4c"></path><path id="&#x41A;&#x43E;&#x43D;&#x442;&#x443;&#x440;_4994" data-name="&#x41A;&#x43E;&#x43D;&#x442;&#x443;&#x440; 4994" d="M35794.734,2983.7a.859.859,0,0,1,0-1.7h16.211a.859.859,0,0,1,0,1.7Z" transform="translate(-35774.527 -2947.92)" fill="#4c4c4c"></path><path id="&#x41A;&#x43E;&#x43D;&#x442;&#x443;&#x440;_4995" data-name="&#x41A;&#x43E;&#x43D;&#x442;&#x443;&#x440; 4995" d="M36182.016,1406.731a2.743,2.743,0,0,1-.484,1.669,3.65,3.65,0,0,1-1.418,1.074,8.631,8.631,0,0,1-2.285.606,23.738,23.738,0,0,1-3.078.24,1.423,1.423,0,0,0-.016.251,1.89,1.89,0,0,0-.012.263,2.78,2.78,0,0,0,.734,2.126,3.089,3.089,0,0,0,2.172.674,6.027,6.027,0,0,0,.777-.046,6.187,6.187,0,0,0,.813-.148,7.389,7.389,0,0,0,.777-.206,5.427,5.427,0,0,0,.672-.263l-.309,1.566a7.944,7.944,0,0,1-3.016.605,5.609,5.609,0,0,1-1.965-.308,3.71,3.71,0,0,1-1.352-.88,3.594,3.594,0,0,1-.777-1.337,5.368,5.368,0,0,1-.246-1.7,8.37,8.37,0,0,1,.172-1.692,7.33,7.33,0,0,1,.484-1.611,6.9,6.9,0,0,1,.816-1.429,6.16,6.16,0,0,1,1.117-1.143,5.558,5.558,0,0,1,1.43-.766,5.121,5.121,0,0,1,1.691-.274,4.95,4.95,0,0,1,1.254.16,3.12,3.12,0,0,1,1.055.5,2.528,2.528,0,0,1,.73.857A2.661,2.661,0,0,1,36182.016,1406.731Zm-6.949,2.034a18.39,18.39,0,0,0,2.211-.114,7.619,7.619,0,0,0,1.629-.377,2.5,2.5,0,0,0,1.031-.64,1.356,1.356,0,0,0,.352-.96,1.159,1.159,0,0,0-.1-.457,1.079,1.079,0,0,0-.3-.389,1.444,1.444,0,0,0-.5-.263,2.054,2.054,0,0,0-.676-.1,3.332,3.332,0,0,0-1.211.229,3.457,3.457,0,0,0-1.039.674,4.262,4.262,0,0,0-.84,1.051A5.7,5.7,0,0,0,36175.066,1408.766Z" transform="translate(-36149.199 -1387.954)" fill="#fff"></path></g></g></svg>