<svg xmlns="http://www.w3.org/2000/svg" viewBox="0 0 56 56"><g id="&#x421;&#x433;&#x440;&#x443;&#x43F;&#x43F;&#x438;&#x440;&#x43E;&#x432;&#x430;&#x442;&#x44C;_5254" data-name="&#x421;&#x433;&#x440;&#x443;&#x43F;&#x43F;&#x438;&#x440;&#x43E;&#x432;&#x430;&#x442;&#x44C; 5254" transform="translate(1773 -1709)"><rect id="&#x41F;&#x440;&#x44F;&#x43C;&#x43E;&#x443;&#x433;&#x43E;&#x43B;&#x44C;&#x43D;&#x438;&#x43A;_20111" data-name="&#x41F;&#x440;&#x44F;&#x43C;&#x43E;&#x443;&#x433;&#x43E;&#x43B;&#x44C;&#x43D;&#x438;&#x43A; 20111" width="56" height="56" transform="translate(-1773 1709)" fill="#fff" opacity="0"></rect><g id="&#x421;&#x43B;&#x43E;&#x439;_2" data-name="&#x421;&#x43B;&#x43E;&#x439; 2" transform="translate(-1773 1709)"><g id="&#x421;&#x43B;&#x43E;&#x439;_1" data-name="&#x421;&#x43B;&#x43E;&#x439; 1" transform="translate(0 0)"><path id="&#x41A;&#x43E;&#x43D;&#x442;&#x443;&#x440;_5064" data-name="&#x41A;&#x43E;&#x43D;&#x442;&#x443;&#x440; 5064" d="M0,.762a.762.762,0,1,1,1.525,0V54.475H55.238a.762.762,0,1,1,0,1.525H.762A.764.764,0,0,1,0,55.237Z" transform="translate(0 0)" fill="#4c4c4c"></path><path id="&#x41A;&#x43E;&#x43D;&#x442;&#x443;&#x440;_5065" data-name="&#x41A;&#x43E;&#x43D;&#x442;&#x443;&#x440; 5065" d="M.458,22.541a.758.758,0,0,1,.7-1.345l9.109,4.777L24.742,15.912a.763.763,0,0,1,.972.086l6.868,6.866L52.637,2.811a.762.762,0,1,1,1.078,1.078L33.122,24.481a.765.765,0,0,1-1.078,0l-6.957-6.957L10.761,27.483a.766.766,0,0,1-.785.048Z" transform="translate(0.164 8.371)" fill="#4c4c4c"></path><path id="&#x41A;&#x43E;&#x43D;&#x442;&#x443;&#x440;_5066" data-name="&#x41A;&#x43E;&#x43D;&#x442;&#x443;&#x440; 5066" d="M18.957,9.854a.762.762,0,0,1-1.525,0V4.112H11.689a.762.762,0,1,1,0-1.525h6.506a.763.763,0,0,1,.762.762v6.5Z" transform="translate(35.349 8.371)" fill="#4c4c4c"></path><path id="&#x41A;&#x43E;&#x43D;&#x442;&#x443;&#x440;_5069" data-name="&#x41A;&#x43E;&#x43D;&#x442;&#x443;&#x440; 5069" d="M.079,2.644a.76.76,0,1,1,1.364-.672L8.165,15.618l3.576-6.883a.759.759,0,0,1,.488-.386L19,6.013a.758.758,0,1,1,.495,1.433L12.955,9.7,8.824,17.654a.77.77,0,0,1-.34.331.761.761,0,0,1-1.018-.345Z" transform="translate(0.001 5.007)" fill="#4c4c4c"></path><path id="&#x41A;&#x43E;&#x43D;&#x442;&#x443;&#x440;_5070" data-name="&#x41A;&#x43E;&#x43D;&#x442;&#x443;&#x440; 5070" d="M.492,11.352a.76.76,0,1,1,.535-1.422l19.859,7.528,3.957-7.616a.765.765,0,0,1,.765-.405l13.618,1.654a.762.762,0,1,1-.178,1.513l-13.1-1.591L21.926,18.76a.765.765,0,0,1-.944.36Z" transform="translate(0.001 30.515)" fill="#4c4c4c"></path><path id="&#x41A;&#x43E;&#x43D;&#x442;&#x443;&#x440;_5067" data-name="&#x41A;&#x43E;&#x43D;&#x442;&#x443;&#x440; 5067" d="M13.059.135A9.416,9.416,0,1,1,3.643,9.551,9.415,9.415,0,0,1,13.059.135Zm-.2,13.972a.515.515,0,1,1-.514.515.515.515,0,0,1,.514-.515Zm.4-1.1a.5.5,0,1,1-.992.024l0-.175a3.708,3.708,0,0,1,.471-1.885,3.141,3.141,0,0,1,1.332-1.3,3.314,3.314,0,0,0,1.309-1.087,2.537,2.537,0,0,0,.383-1.423,2.7,2.7,0,1,0-5.4,0l.005.206a.5.5,0,0,1-.992.031l-.01-.237a3.7,3.7,0,1,1,7.39,0,3.506,3.506,0,0,1-.549,1.968,4.254,4.254,0,0,1-1.687,1.424l-.014.007a2.138,2.138,0,0,0-.9.893,2.708,2.708,0,0,0-.346,1.373l0,.178Z" transform="translate(11.787 0.438)" fill="#ff8055" fill-rule="evenodd"></path><path id="&#x41A;&#x43E;&#x43D;&#x442;&#x443;&#x440;_5068" data-name="&#x41A;&#x43E;&#x43D;&#x442;&#x443;&#x440; 5068" d="M17.661,7.709a9.467,9.467,0,1,1-9.467,9.467,9.467,9.467,0,0,1,9.467-9.467Zm-.2,14.023a.515.515,0,1,1-.514.515.515.515,0,0,1,.514-.515Zm.4-1.1a.5.5,0,1,1-.992.024l0-.175a3.708,3.708,0,0,1,.471-1.884,3.143,3.143,0,0,1,1.332-1.3,3.318,3.318,0,0,0,1.309-1.086,2.537,2.537,0,0,0,.383-1.423,2.7,2.7,0,1,0-5.4,0l.005.2a.5.5,0,1,1-.992.032l-.01-.237a3.7,3.7,0,1,1,7.39,0,3.5,3.5,0,0,1-.549,1.968,4.253,4.253,0,0,1-1.687,1.424l-.014.007a2.149,2.149,0,0,0-.9.893,2.715,2.715,0,0,0-.346,1.374l0,.178Z" transform="translate(26.509 24.941)" fill="#ff8055" fill-rule="evenodd"></path></g></g></g></svg>