<svg xmlns="http://www.w3.org/2000/svg" viewBox="0 0 56 56"><g id="&#x421;&#x433;&#x440;&#x443;&#x43F;&#x43F;&#x438;&#x440;&#x43E;&#x432;&#x430;&#x442;&#x44C;_5271" data-name="&#x421;&#x433;&#x440;&#x443;&#x43F;&#x43F;&#x438;&#x440;&#x43E;&#x432;&#x430;&#x442;&#x44C; 5271" transform="translate(-1078 -1663)"><rect id="&#x41F;&#x440;&#x44F;&#x43C;&#x43E;&#x443;&#x433;&#x43E;&#x43B;&#x44C;&#x43D;&#x438;&#x43A;_20123" data-name="&#x41F;&#x440;&#x44F;&#x43C;&#x43E;&#x443;&#x433;&#x43E;&#x43B;&#x44C;&#x43D;&#x438;&#x43A; 20123" width="56" height="56" transform="translate(1078 1663)" fill="#fff" opacity="0"></rect><g id="_543" data-name="543" transform="translate(1081 1663)"><path id="&#x41A;&#x43E;&#x43D;&#x442;&#x443;&#x440;_5121" data-name="&#x41A;&#x43E;&#x43D;&#x442;&#x443;&#x440; 5121" d="M955.574,537.361l6.922-4a2.716,2.716,0,0,1,3.633.869l.076.125a2.716,2.716,0,0,1-.993,3.708l-7.136,4.117a2.714,2.714,0,0,1-3.707-.99l-.124-.213v-.033a2.712,2.712,0,0,1,1.114-3.464l.214-.123Z" transform="translate(-950.25 -533)" fill="#ff8055"></path><path id="&#x41A;&#x43E;&#x43D;&#x442;&#x443;&#x440;_5122" data-name="&#x41A;&#x43E;&#x43D;&#x442;&#x443;&#x440; 5122" d="M4.271,1.58l1.89,3.275-1.546.9L2.725,2.476l1.546-.9Z" transform="translate(7.45 4.32)" fill="#ff8055"></path><path id="&#x41A;&#x43E;&#x43D;&#x442;&#x443;&#x440;_5123" data-name="&#x41A;&#x43E;&#x43D;&#x442;&#x443;&#x440; 5123" d="M966.208,533.363l7.137,4.12a2.716,2.716,0,0,1,1.114,3.464v.031l-.123.213a2.715,2.715,0,0,1-3.708.992l-7.132-4.118a2.714,2.714,0,0,1-1-3.708l.075-.122A2.716,2.716,0,0,1,966.208,533.363Z" transform="translate(-928.019 -533)" fill="#ff8055"></path><path id="&#x41A;&#x43E;&#x43D;&#x442;&#x443;&#x440;_5124" data-name="&#x41A;&#x43E;&#x43D;&#x442;&#x443;&#x440; 5124" d="M13.3,2.476l-1.89,3.275-1.55-.9L11.754,1.58l1.546.9Z" transform="translate(26.962 4.32)" fill="#ff8055"></path><path id="&#x41A;&#x43E;&#x43D;&#x442;&#x443;&#x440;_5110" data-name="&#x41A;&#x43E;&#x43D;&#x442;&#x443;&#x440; 5110" d="M978.22,534.487a25.222,25.222,0,1,1-17.832,7.388,25.223,25.223,0,0,1,17.832-7.388Zm16.693,8.526c-7.964-7.967,4.433,4.423,0,0Z" transform="translate(-952.999 -528.934)" fill="#4c4c4c"></path><path id="&#x41A;&#x43E;&#x43D;&#x442;&#x443;&#x440;_5111" data-name="&#x41A;&#x43E;&#x43D;&#x442;&#x443;&#x440; 5111" d="M964.073,542.016a.448.448,0,1,1,0-.9H967.7a.448.448,0,1,1,0,.9Z" transform="translate(-923.946 -510.797)" fill="#fff"></path><path id="&#x41A;&#x43E;&#x43D;&#x442;&#x443;&#x440;_5112" data-name="&#x41A;&#x43E;&#x43D;&#x442;&#x443;&#x440; 5112" d="M960.528,540.233a.448.448,0,0,1-.9,0V536.6a.448.448,0,0,1,.9,0v3.629Z" transform="translate(-934.864 -524.37)" fill="#fff"></path><path id="&#x41A;&#x43E;&#x43D;&#x442;&#x443;&#x440;_5113" data-name="&#x41A;&#x43E;&#x43D;&#x442;&#x443;&#x440; 5113" d="M960.528,549.189a.448.448,0,0,1-.9,0V545.56a.448.448,0,0,1,.9,0Z" transform="translate(-934.864 -499.881)" fill="#fff"></path><path id="&#x41A;&#x43E;&#x43D;&#x442;&#x443;&#x440;_5114" data-name="&#x41A;&#x43E;&#x43D;&#x442;&#x443;&#x440; 5114" d="M963.22,540.941a.448.448,0,1,1-.633-.633l2.567-2.567a.448.448,0,0,1,.633.633Z" transform="translate(-927.145 -520.395)" fill="#fff"></path><path id="&#x41A;&#x43E;&#x43D;&#x442;&#x443;&#x440;_5115" data-name="&#x41A;&#x43E;&#x43D;&#x442;&#x443;&#x440; 5115" d="M956.888,547.273a.448.448,0,0,1-.633-.633l2.566-2.566a.447.447,0,1,1,.633.633Z" transform="translate(-944.461 -503.078)" fill="#fff"></path><path id="&#x41A;&#x43E;&#x43D;&#x442;&#x443;&#x440;_5116" data-name="&#x41A;&#x43E;&#x43D;&#x442;&#x443;&#x440; 5116" d="M962.588,544.707a.448.448,0,1,1,.633-.633l2.567,2.568a.448.448,0,1,1-.633.633Z" transform="translate(-927.143 -503.078)" fill="#fff"></path><path id="&#x41A;&#x43E;&#x43D;&#x442;&#x443;&#x440;_5117" data-name="&#x41A;&#x43E;&#x43D;&#x442;&#x443;&#x440; 5117" d="M956.253,538.373a.448.448,0,0,1,.633-.633l2.566,2.566a.448.448,0,0,1-.633.633Z" transform="translate(-944.462 -520.397)" fill="#fff"></path><path id="&#x41A;&#x43E;&#x43D;&#x442;&#x443;&#x440;_5118" data-name="&#x41A;&#x43E;&#x43D;&#x442;&#x443;&#x440; 5118" d="M955.117,542.016a.448.448,0,0,1,0-.9h3.629a.448.448,0,1,1,0,.9Z" transform="translate(-948.437 -510.797)" fill="#fff"></path><path id="&#x41A;&#x43E;&#x43D;&#x442;&#x443;&#x440;_5119" data-name="&#x41A;&#x43E;&#x43D;&#x442;&#x443;&#x440; 5119" d="M959.862,548.506a.669.669,0,0,1-.667-1.16l13.68-7.9a.669.669,0,1,1,.667,1.16Z" transform="translate(-936.979 -515.614)" fill="#fff"></path><path id="&#x41A;&#x43E;&#x43D;&#x442;&#x443;&#x440;_5120" data-name="&#x41A;&#x43E;&#x43D;&#x442;&#x443;&#x440; 5120" d="M961.037,540.771a1.753,1.753,0,1,1-1.753,1.753A1.753,1.753,0,0,1,961.037,540.771Z" transform="translate(-935.817 -511.752)" fill="#fff" fill-rule="evenodd"></path></g></g></svg>