<svg xmlns="http://www.w3.org/2000/svg" viewBox="0 0 56 56"><g id="&#x421;&#x433;&#x440;&#x443;&#x43F;&#x43F;&#x438;&#x440;&#x43E;&#x432;&#x430;&#x442;&#x44C;_5402" data-name="&#x421;&#x433;&#x440;&#x443;&#x43F;&#x43F;&#x438;&#x440;&#x43E;&#x432;&#x430;&#x442;&#x44C; 5402" transform="translate(-377 -1496)"><rect id="icon_mask" width="56" height="56" transform="translate(377 1496)" fill="none"></rect><g id="&#x42D;&#x43B;&#x43B;&#x438;&#x43F;&#x441;_193" data-name="&#x42D;&#x43B;&#x43B;&#x438;&#x43F;&#x441; 193" transform="translate(377 1500)" fill="#fff" stroke="#4c4c4c" stroke-width="3"><circle cx="24" cy="24" r="24" stroke="none"></circle><circle cx="24" cy="24" r="22.5" fill="none"></circle></g><circle id="&#x42D;&#x43B;&#x43B;&#x438;&#x43F;&#x441;_194" data-name="&#x42D;&#x43B;&#x43B;&#x438;&#x43F;&#x441; 194" cx="14" cy="14" r="14" transform="translate(405 1521)" fill="#ff8055"></circle><g id="&#x421;&#x433;&#x440;&#x443;&#x43F;&#x43F;&#x438;&#x440;&#x43E;&#x432;&#x430;&#x442;&#x44C;_5376" data-name="&#x421;&#x433;&#x440;&#x443;&#x43F;&#x43F;&#x438;&#x440;&#x43E;&#x432;&#x430;&#x442;&#x44C; 5376" transform="translate(-267 1315)"><path id="&#x41A;&#x43E;&#x43D;&#x442;&#x443;&#x440;_1720" data-name="&#x41A;&#x43E;&#x43D;&#x442;&#x443;&#x440; 1720" d="M669.5,208.6a.6.6,0,0,1-.4-.1.483.483,0,0,1,0-.7l9.8-9.8a.495.495,0,0,1,.7.7l-9.8,9.8A.367.367,0,0,1,669.5,208.6Z" fill="#ff8055"></path></g><g id="&#x421;&#x433;&#x440;&#x443;&#x43F;&#x43F;&#x438;&#x440;&#x43E;&#x432;&#x430;&#x442;&#x44C;_5375" data-name="&#x421;&#x433;&#x440;&#x443;&#x43F;&#x43F;&#x438;&#x440;&#x43E;&#x432;&#x430;&#x442;&#x44C; 5375" transform="translate(-268 1314)"><path id="&#x41A;&#x43E;&#x43D;&#x442;&#x443;&#x440;_1722" data-name="&#x41A;&#x43E;&#x43D;&#x442;&#x443;&#x440; 1722" d="M669.6,213.1a.713.713,0,0,1-.6-.3l-10.2-10.2a.913.913,0,0,1,0-1.2l1.7-1.7a.913.913,0,0,1,1.2,0l10.2,10.2a.913.913,0,0,1,0,1.2l-1.7,1.7A.6.6,0,0,1,669.6,213.1Z" fill="#ff8055"></path></g><g id="&#x421;&#x433;&#x440;&#x443;&#x43F;&#x43F;&#x438;&#x440;&#x43E;&#x432;&#x430;&#x442;&#x44C;_5377" data-name="&#x421;&#x433;&#x440;&#x443;&#x43F;&#x43F;&#x438;&#x440;&#x43E;&#x432;&#x430;&#x442;&#x44C; 5377" transform="translate(-267 1314)"><path id="&#x41A;&#x43E;&#x43D;&#x442;&#x443;&#x440;_1725" data-name="&#x41A;&#x43E;&#x43D;&#x442;&#x443;&#x440; 1725" d="M664.2,225.1h-.1a.548.548,0,0,1-.4-.6l3.7-13.7a.51.51,0,0,1,1,.2l-3.7,13.7A.51.51,0,0,1,664.2,225.1Z" fill="#ff8055"></path></g><g id="&#x421;&#x433;&#x440;&#x443;&#x43F;&#x43F;&#x438;&#x440;&#x43E;&#x432;&#x430;&#x442;&#x44C;_5378" data-name="&#x421;&#x433;&#x440;&#x443;&#x43F;&#x43F;&#x438;&#x440;&#x43E;&#x432;&#x430;&#x442;&#x44C; 5378" transform="translate(-267 1313)"><path id="&#x41A;&#x43E;&#x43D;&#x442;&#x443;&#x440;_1723" data-name="&#x41A;&#x43E;&#x43D;&#x442;&#x443;&#x440; 1723" d="M685.1,226.6v1.2h-8.2v-1.1l4.5-5a12.887,12.887,0,0,0,1.3-1.8,3.167,3.167,0,0,0,.4-1.6,1.969,1.969,0,0,0-.6-1.6,2.352,2.352,0,0,0-1.7-.6,5.637,5.637,0,0,0-3.6,1.5l-.6-1.1a5.161,5.161,0,0,1,1.9-1.2,6.2,6.2,0,0,1,2.3-.4,4.1,4.1,0,0,1,2.8.9,3.04,3.04,0,0,1,1,2.5,5.375,5.375,0,0,1-.5,2.1,12.127,12.127,0,0,1-1.6,2.3l-3.7,4h6.3Z" fill="#fff"></path><path id="&#x41A;&#x43E;&#x43D;&#x442;&#x443;&#x440;_1724" data-name="&#x41A;&#x43E;&#x43D;&#x442;&#x443;&#x440; 1724" d="M695.3,223.8V225h-1.9v2.8h-1.5V225H686v-1.1l6.2-8.9h1.2v8.8Zm-7.8,0h4.4v-6.3Z" fill="#fff"></path></g><g id="&#x421;&#x433;&#x440;&#x443;&#x43F;&#x43F;&#x438;&#x440;&#x43E;&#x432;&#x430;&#x442;&#x44C;_5379" data-name="&#x421;&#x433;&#x440;&#x443;&#x43F;&#x43F;&#x438;&#x440;&#x43E;&#x432;&#x430;&#x442;&#x44C; 5379" transform="translate(-267 1315)"><path id="&#x41A;&#x43E;&#x43D;&#x442;&#x443;&#x440;_1726" data-name="&#x41A;&#x43E;&#x43D;&#x442;&#x443;&#x440; 1726" d="M665.2,212.9a.6.6,0,0,1-.4-.1.483.483,0,0,1,0-.7l2-2a.495.495,0,0,1,.7.7l-2,2A1.007,1.007,0,0,1,665.2,212.9Z" fill="#ff8055"></path></g><path id="&#x41A;&#x43E;&#x43D;&#x442;&#x443;&#x440;_5263" data-name="&#x41A;&#x43E;&#x43D;&#x442;&#x443;&#x440; 5263" d="M668.8,207.9h-.1a.548.548,0,0,1-.4-.6l.6-2.2a.51.51,0,0,1,1,.2l-.6,2.2A.51.51,0,0,1,668.8,207.9Z" transform="translate(-267 1315)" fill="#ff8055"></path></g></svg>