<svg xmlns="http://www.w3.org/2000/svg" viewBox="0 0 56 56"><g id="&#x421;&#x433;&#x440;&#x443;&#x43F;&#x43F;&#x438;&#x440;&#x43E;&#x432;&#x430;&#x442;&#x44C;_5270" data-name="&#x421;&#x433;&#x440;&#x443;&#x43F;&#x43F;&#x438;&#x440;&#x43E;&#x432;&#x430;&#x442;&#x44C; 5270" transform="translate(-620 -1659)"><rect id="&#x41F;&#x440;&#x44F;&#x43C;&#x43E;&#x443;&#x433;&#x43E;&#x43B;&#x44C;&#x43D;&#x438;&#x43A;_20109" data-name="&#x41F;&#x440;&#x44F;&#x43C;&#x43E;&#x443;&#x433;&#x43E;&#x43B;&#x44C;&#x43D;&#x438;&#x43A; 20109" width="56" height="56" transform="translate(620 1659)" fill="#fff" opacity="0"></rect><g id="&#x421;&#x433;&#x440;&#x443;&#x43F;&#x43F;&#x438;&#x440;&#x43E;&#x432;&#x430;&#x442;&#x44C;_5269" data-name="&#x421;&#x433;&#x440;&#x443;&#x43F;&#x43F;&#x438;&#x440;&#x43E;&#x432;&#x430;&#x442;&#x44C; 5269"><path id="&#x41A;&#x43E;&#x43D;&#x442;&#x443;&#x440;_5058" data-name="&#x41A;&#x43E;&#x43D;&#x442;&#x443;&#x440; 5058" d="M36.025,18.235a.83.83,0,0,0,.828-.828V10.575a3.155,3.155,0,0,0-.579-1.9,2.027,2.027,0,0,0-1.7-.952H20.538V.844a.976.976,0,0,0-.083-.331A.841.841,0,0,0,19.379.057L.621,7.386A.883.883,0,0,0,0,8.214V47.759a.85.85,0,0,0,.538.787L19.3,55.917a1.21,1.21,0,0,0,.373.083.849.849,0,0,0,.87-.87V48.174H34.576a2.014,2.014,0,0,0,1.656-.911l.041-.041a3.245,3.245,0,0,0,.579-1.9V38.484a.84.84,0,0,0-.828-.87.849.849,0,0,0-.87.87v6.832a1.487,1.487,0,0,1-.249.911l-.041.041a.428.428,0,0,1-.29.207H20.538V9.374H34.576c.083,0,.207.124.331.248a1.714,1.714,0,0,1,.249.952v6.832a.84.84,0,0,0,.869.828Z" transform="translate(627 1659)" fill="#4c4c4c"></path><g id="&#x421;&#x433;&#x440;&#x443;&#x43F;&#x43F;&#x438;&#x440;&#x43E;&#x432;&#x430;&#x442;&#x44C;_5268" data-name="&#x421;&#x433;&#x440;&#x443;&#x43F;&#x43F;&#x438;&#x440;&#x43E;&#x432;&#x430;&#x442;&#x44C; 5268" transform="translate(652.672 1679.687)"><path id="&#x41A;&#x43E;&#x43D;&#x442;&#x443;&#x440;_5059" data-name="&#x41A;&#x43E;&#x43D;&#x442;&#x443;&#x440; 5059" d="M15.281,19.243a.845.845,0,0,0,1.195-1.195l-5.8-5.806,5.8-5.8a.845.845,0,0,0-1.195-1.195l-6.4,6.4a.845.845,0,0,0,0,1.194Z" transform="translate(-8.632 -4.996)" fill="#ff8055"></path><path id="&#x41A;&#x43E;&#x43D;&#x442;&#x443;&#x440;_5060" data-name="&#x41A;&#x43E;&#x43D;&#x442;&#x443;&#x440; 5060" d="M23.2,8.232a.845.845,0,1,0,0-1.69H7.045a.845.845,0,1,0,0,1.69Z" transform="translate(-5.888 -0.14)" fill="#ff8055"></path></g></g></g></svg>