<svg xmlns="http://www.w3.org/2000/svg" id="Layer_1" data-name="Layer 1" viewBox="0 0 239.48 60"><defs><style>.cls-1{fill:#343434;}.cls-2{fill:#8c8c8c;}.cls-3{fill:#3c3c3b;}.cls-4{fill:#141414;}.cls-5{fill:#393939;}.cls-6{fill:#3b3b3b;}</style></defs><g id="Layer_1-2-3" data-name="Layer 1-2-3"><g id="_1421394342400" data-name=" 1421394342400"><polygon class="cls-1" points="18.42 0 18.02 1.37 18.02 41.04 18.42 41.44 36.83 30.56 18.42 0"></polygon><polygon class="cls-2" points="18.42 0 0 30.56 18.42 41.44 18.42 22.19 18.42 0"></polygon><polygon class="cls-3" points="18.42 44.93 18.19 45.2 18.19 59.34 18.42 60 36.85 34.05 18.42 44.93"></polygon><polygon class="cls-2" points="18.42 60 18.42 44.93 0 34.05 18.42 60"></polygon><polygon class="cls-4" points="18.42 41.44 36.83 30.56 18.42 22.19 18.42 41.44"></polygon><polygon class="cls-5" points="0 30.56 18.42 41.44 18.42 22.19 0 30.56"></polygon></g></g><path class="cls-6" d="M67.9,34.52a.79.79,0,0,1-.8.78H52.4c.38,3.64,3.11,7,7,7a6.86,6.86,0,0,0,6.05-3.1.78.78,0,0,1,.64-.38.71.71,0,0,1,.73.69h0a.57.57,0,0,1-.11.38,8.34,8.34,0,0,1-7.31,3.84c-4.95,0-8.5-4.44-8.5-9.16s3.53-9.16,8.5-9.16,8.51,4.39,8.53,9.11Zm-1.57-.68c-.31-3.64-3.11-7-7-7s-6.59,3.33-7,7Z"></path><path class="cls-6" d="M85.77,25.76a.78.78,0,0,1,.74.74.71.71,0,0,1-.69.73h-4v15.5a.75.75,0,0,1-.73.73.76.76,0,0,1-.74-.73V27.23H76.57a.71.71,0,0,1-.73-.69h0a.75.75,0,0,1,.73-.74h3.79V20.11a.79.79,0,0,1,.67-.78.72.72,0,0,1,.81.62h0a.21.21,0,0,1,0,.11v5.69Z"></path><path class="cls-6" d="M109.83,33.26v9.38a.75.75,0,0,1-.73.73.71.71,0,0,1-.73-.69h0V33.26c0-3.17-1.8-6.32-5.32-6.32-4.53,0-6.48,3.95-6.21,8v7.65a.78.78,0,0,1-.66.77.72.72,0,0,1-.82-.61h0V11.82a.73.73,0,0,1,.73-.73h0a.75.75,0,0,1,.73.73V29.25a7.08,7.08,0,0,1,6.16-3.8C107.37,25.45,109.83,29.25,109.83,33.26Z"></path><path class="cls-6" d="M136.24,34.52a.79.79,0,0,1-.8.78h-14.7c.38,3.64,3.11,7,7,7a6.87,6.87,0,0,0,6.06-3.1.77.77,0,0,1,.64-.38.71.71,0,0,1,.73.69h0a.73.73,0,0,1-.11.38,8.31,8.31,0,0,1-7.32,3.84c-4.94,0-8.49-4.44-8.49-9.16s3.53-9.16,8.49-9.16,8.52,4.39,8.54,9.11Zm-1.6-.68c-.31-3.64-3.1-7-7-7s-6.58,3.33-7,7Z"></path><path class="cls-6" d="M154.31,26.45a.75.75,0,0,1-.69.8c-4.32.64-6.27,4.17-6.27,8.27v7a.79.79,0,0,1-.67.78.72.72,0,0,1-.81-.63.21.21,0,0,1,0-.11v-16a.79.79,0,0,1,.67-.77.71.71,0,0,1,.81.6v3.39c1.22-2.06,3.63-4,6.16-4A.77.77,0,0,1,154.31,26.45Z"></path><path class="cls-6" d="M178.48,34.52a.79.79,0,0,1-.8.78H163c.38,3.64,3.1,7,7,7A6.87,6.87,0,0,0,176,39.2a.77.77,0,0,1,.64-.38.71.71,0,0,1,.73.69h0a.73.73,0,0,1-.11.38A8.31,8.31,0,0,1,170,43.73c-4.94,0-8.49-4.44-8.49-9.16S165,25.41,170,25.41s8.52,4.39,8.54,9.11Zm-1.58-.68c-.31-3.64-3.1-7-7-7s-6.58,3.33-7,7Z"></path><path class="cls-6" d="M202.25,26.63v16.1a.75.75,0,0,1-.73.73.71.71,0,0,1-.73-.69h0v-3.1a7,7,0,0,1-6.12,4.17c-4.37,0-6.79-3.8-6.79-7.81V26.61a.73.73,0,0,1,.73-.73h0a.75.75,0,0,1,.73.73V36c0,3.17,1.8,6.32,5.33,6.32,4.94,0,6.12-4.63,6.12-9.76v-6a.75.75,0,0,1,.75-.74,1,1,0,0,1,.24,0A.82.82,0,0,1,202.25,26.63Z"></path><path class="cls-6" d="M239.48,33.19v9.43a.75.75,0,0,1-.73.73.73.73,0,0,1-.74-.69V33.19c0-3.17-1.79-6.27-5.32-6.27-4.43,0-6.12,4.74-6.12,8.42v7.28a.75.75,0,0,1-.73.73.71.71,0,0,1-.73-.69h0V33.19c0-3.17-1.8-6.27-5.32-6.27-4.48,0-6.32,3.52-6.17,8.22,0,.11,0,.31,0,.38v7.07a.79.79,0,0,1-.66.78.74.74,0,0,1-.82-.62V26.56a.78.78,0,0,1,.66-.77.72.72,0,0,1,.82.61h0V29.2a7.07,7.07,0,0,1,6.17-3.75,6.57,6.57,0,0,1,6.27,4.68,7.27,7.27,0,0,1,6.63-4.68c4.33,0,6.79,3.75,6.79,7.74Z"></path></svg>