<?xml version="1.0" encoding="UTF-8"?>
<!-- Generator: Adobe Illustrator 17.1.0, SVG Export Plug-In . SVG Version: 6.00 Build 0)  -->
<svg xmlns="http://www.w3.org/2000/svg" xmlns:xlink="http://www.w3.org/1999/xlink" version="1.1" id="Layer_1" x="0px" y="0px" viewBox="0 0 85 85" xml:space="preserve">
<circle fill="#F2672B" cx="42.5" cy="42.5" r="42.5"></circle>
<g>
	<path fill="#FFFFFF" d="M42.6,19.6c10.6,0,14.3,7.3,14.3,11.5c0,4.2-2.2,7.6-6.2,9v0.1c5.1,1.2,8,5.1,8,10.4c0,9-8.1,13.4-16,13.4   c-8.2,0-16.2-4.1-16.2-13.4c0-5.4,3-9.3,8.1-10.5v-0.1c-4.1-1.2-6.3-4.6-6.3-8.8C28.2,23.6,35.6,19.6,42.6,19.6z M42.6,57.5   c4.1,0,7.3-2.9,7.3-7.2c0-4.1-3.3-6.8-7.3-6.8c-4.2,0-7.6,2.4-7.6,6.8C35.1,54.7,38.5,57.5,42.6,57.5z M42.6,37.7   c3.5,0,6.4-2,6.4-5.6c0-2.2-1-5.9-6.4-5.9c-3.5,0-6.5,2.1-6.5,5.9C36,35.8,39.1,37.7,42.6,37.7z"></path>
</g>
<path opacity="0.15" d="M57.4,58.5c3.7-2.2,6.2-5.8,6.2-10.9c0-5.3-2.9-9.2-7.8-10.4c0,0,0,0,0,0c0,0,1.2-0.7,1.2-0.7  c3.1-1.6,4.8-4.7,4.8-8.4c0-4.1-3.7-11.5-14.3-11.5c-3.1,0-6.2,0.8-8.8,2.3c0,0-4.8,2.9-4.9,2.9c0,0,0,0,0,0c0,0,0,0,0,0  c-3.3,1.9-5.7,5.1-5.7,9.4c0,4,2,7.3,5.8,8.6c0,0,0,0,0,0c0,0-2.7,1.6-2.7,1.6c0,0,0,0,0,0c-3,1.8-4.7,5-4.7,9.1  c0,9.2,8,13.4,16.2,13.4c3.5,0,7-0.9,9.8-2.6C52.5,61.5,57.4,58.5,57.4,58.5z M42.6,26.2c5.4,0,6.4,3.7,6.4,5.9c0,1-0.2,1.8-0.6,2.6  c-0.3,0-0.5,0-0.8,0c-3.5,0-6.5-1.9-6.5-5.6c0-1.1,0.3-2.1,0.7-2.9C42,26.2,42.3,26.2,42.6,26.2z M47.6,54.5c-4.1,0-7.6-2.9-7.6-7.3  c0-1.4,0.4-2.7,1-3.7c0.5-0.1,1-0.1,1.6-0.1c4,0,7.3,2.7,7.3,6.8c0,1.6-0.4,3-1.2,4.1C48.4,54.5,48,54.5,47.6,54.5z"></path>
<g>
	<path fill="#FFFFFF" d="M42.6,19.6c10.6,0,14.3,7.3,14.3,11.5c0,4.2-2.2,7.6-6.2,9v0.1c5.1,1.2,8,5.1,8,10.4c0,9-8.1,13.4-16,13.4   c-8.2,0-16.2-4.1-16.2-13.4c0-5.4,3-9.3,8.1-10.5v-0.1c-4.1-1.2-6.3-4.6-6.3-8.8C28.2,23.6,35.6,19.6,42.6,19.6z M42.6,57.5   c4.1,0,7.3-2.9,7.3-7.2c0-4.1-3.3-6.8-7.3-6.8c-4.2,0-7.6,2.4-7.6,6.8C35.1,54.7,38.5,57.5,42.6,57.5z M42.6,37.7   c3.5,0,6.4-2,6.4-5.6c0-2.2-1-5.9-6.4-5.9c-3.5,0-6.5,2.1-6.5,5.9C36,35.8,39.1,37.7,42.6,37.7z"></path>
</g>
</svg>
