<svg xmlns="http://www.w3.org/2000/svg" viewBox="0 0 50.14 77.36"><defs><style>.cls-1{fill:#ff8055;}.cls-2{fill:#4c4c4c;}</style></defs><g id="&#x421;&#x43B;&#x43E;&#x439;_2" data-name="&#x421;&#x43B;&#x43E;&#x439; 2"><g id="Layer_1" data-name="Layer 1"><ellipse class="cls-1" cx="25.07" cy="75.21" rx="25.07" ry="2.15"></ellipse><path class="cls-2" d="M24.83,68.46h.49c10.23-.07,20.49-7.79,22.9-17.28,3-11.76-4.29-21.57-12-31.95l-1.7-2.29A73.49,73.49,0,0,1,25.07,0a73.49,73.49,0,0,1-9.45,16.94l-1.69,2.29c-7.71,10.38-15,20.19-12,32C4.34,60.67,14.6,68.4,24.83,68.46Zm-13-21.18a1.43,1.43,0,0,1,1.43,1.43,7.17,7.17,0,0,0,7.17,7.16,1.44,1.44,0,0,1,0,2.87,10,10,0,0,1-10-10A1.43,1.43,0,0,1,11.83,47.28Z"></path></g></g></svg>