<svg xmlns="http://www.w3.org/2000/svg" xmlns:xlink="http://www.w3.org/1999/xlink" viewBox="0 0 56 56"><defs><style>      .cls-1 {        fill: none;      }      .cls-2 {        clip-path: url(#clip-path);      }      .cls-3 {        fill: #0f2c52;      }    </style><clipPath id="clip-path"><rect class="cls-1" width="56" height="56"></rect></clipPath></defs><g id="icon_adjustment" class="cls-2"><rect id="icon_mask" class="cls-1" width="56" height="56"></rect><g id="icon" transform="translate(-774 -527)"><g id="Group_2284" data-name="Group 2284"><path id="Path_1539" data-name="Path 1539" class="cls-3" d="M812.6,542.1a6.3,6.3,0,0,1,0-12.6,6.274,6.274,0,0,1,6.3,6.3A6.4,6.4,0,0,1,812.6,542.1Zm0-11a4.8,4.8,0,0,0,0,9.6,4.739,4.739,0,0,0,4.8-4.8A4.866,4.866,0,0,0,812.6,531.1Z"></path></g><g id="Group_2285" data-name="Group 2285"><path id="Path_1540" data-name="Path 1540" class="cls-3" d="M804.5,536.7H774.9a.5.5,0,0,1,0-1h29.6a.5.5,0,0,1,0,1Z"></path></g><g id="Group_2286" data-name="Group 2286"><path id="Path_1541" data-name="Path 1541" class="cls-3" d="M828.9,536.7h-8.3a.5.5,0,0,1,0-1h8.3a.5.5,0,0,1,0,1Z"></path></g><g id="Group_2287" data-name="Group 2287"><path id="Path_1542" data-name="Path 1542" class="cls-3" d="M791.3,561.5a6.3,6.3,0,1,1,6.3-6.3A6.4,6.4,0,0,1,791.3,561.5Zm0-11a4.8,4.8,0,1,0,4.8,4.8A4.866,4.866,0,0,0,791.3,550.5Z"></path></g><g id="Group_2288" data-name="Group 2288"><path id="Path_1543" data-name="Path 1543" class="cls-3" d="M828.9,556.1H799.3a.5.5,0,0,1,0-1h29.6a.5.5,0,0,1,0,1Z"></path></g><g id="Group_2289" data-name="Group 2289"><path id="Path_1544" data-name="Path 1544" class="cls-3" d="M783.2,556.1h-8.3a.5.5,0,0,1,0-1h8.3a.5.5,0,0,1,0,1Z"></path></g><g id="Group_2290" data-name="Group 2290"><path id="Path_1545" data-name="Path 1545" class="cls-3" d="M812.6,580.8a6.338,6.338,0,0,1-6.3-6.3,6.274,6.274,0,0,1,6.3-6.3,6.3,6.3,0,0,1,0,12.6Zm0-11a4.8,4.8,0,0,0-4.8,4.8,4.739,4.739,0,0,0,4.8,4.8,4.8,4.8,0,0,0,0-9.6Z"></path></g><g id="Group_2291" data-name="Group 2291"><path id="Path_1546" data-name="Path 1546" class="cls-3" d="M804.5,575.5H774.9a.5.5,0,0,1,0-1h29.6a.5.5,0,0,1,0,1Z"></path></g><g id="Group_2292" data-name="Group 2292"><path id="Path_1547" data-name="Path 1547" class="cls-3" d="M828.9,575.5h-8.3a.5.5,0,0,1,0-1h8.3a.5.5,0,0,1,0,1Z"></path></g></g></g></svg>