<svg xmlns="http://www.w3.org/2000/svg" xmlns:xlink="http://www.w3.org/1999/xlink" viewBox="0 0 54 31.427"><defs><style>.a{fill:none;}.b{clip-path:url(#a);}.c{fill:#fff;}.d{fill:#bd0034;}.e{fill:#1a237b;}</style><clipPath id="a"><rect class="a" width="54" height="31.427"></rect></clipPath></defs><g class="b"><rect class="c" width="54" height="31.427"></rect><path class="d" d="M15.912,11.326l17.867-9.97V0H32.5L12.19,11.326Z" transform="translate(20.221)"></path><path class="d" d="M13.28,7.76l18.691,10.5V16.215L17,7.76Z" transform="translate(22.029 12.872)"></path><path class="d" d="M0,2.147l15.979,9.013H19.7L0,.1Z" transform="translate(0 0.166)"></path><path class="d" d="M18.824,7.76,0,18.422v.106H3.4L22.573,7.76Z" transform="translate(0 12.872)"></path><path class="e" d="M30.644,0H11.82V10.529Z" transform="translate(19.607)"></path><path class="e" d="M20.431,0H1.58L20.431,10.529Z" transform="translate(2.621)"></path><path class="e" d="M28.322,8.772V1.54L15.48,8.772Z" transform="translate(25.678 2.555)"></path><path class="e" d="M28.322,14.859V7.76H15.48Z" transform="translate(25.678 12.872)"></path><path class="e" d="M1.99,17.931H19.751V8.12Z" transform="translate(3.301 13.469)"></path><path class="e" d="M11.82,17.931H29.607L11.82,8.12Z" transform="translate(19.607 13.469)"></path><path class="e" d="M0,7.76v7.524L13.294,7.76Z" transform="translate(0 12.872)"></path><path class="e" d="M0,8.938H13.294L0,1.44Z" transform="translate(0 2.389)"></path><path class="d" d="M24.7,0V13.267H0v5.583H24.7V31.4h5V18.851H54V13.267H29.7V0Z"></path></g></svg>