<svg xmlns="http://www.w3.org/2000/svg" viewBox="0 0 54 48.736"><defs><style>.a{fill:#0f2c52;}</style></defs><g transform="translate(-0.3 -3)"><g transform="translate(0.3 3)"><path class="a" d="M24.278,50.859A23.93,23.93,0,1,1,48.257,26.881c0,.39-.195.292-.585.292s-.877,0-.877-.39A22.468,22.468,0,1,0,24.376,49.4a22.855,22.855,0,0,0,8.09-1.462c.39-.195-.195.292-.1.682s.975.585.585.682A23.967,23.967,0,0,1,24.278,50.859Z" transform="translate(-0.3 -3)"></path></g><g transform="translate(27.008 24.444)"><path class="a" d="M41.346,52.292A13.646,13.646,0,1,1,54.992,38.646,13.686,13.686,0,0,1,41.346,52.292Zm.006-26.318A12.671,12.671,0,1,0,54.024,38.646,12.709,12.709,0,0,0,41.352,25.975Z" transform="translate(-27.7 -25)"></path></g><g transform="translate(24.425 14.94)"><path class="a" d="M25.586,25.728a.586.586,0,0,1-.39-.1.471.471,0,0,1,0-.682L34.749,15.4a.482.482,0,1,1,.682.682l-9.552,9.552A.358.358,0,0,1,25.586,25.728Z" transform="translate(-25.05 -15.25)"></path></g><g transform="translate(23.791 21.715)"><path class="a" d="M24.887,25.319h-.1a.534.534,0,0,1-.39-.585l.585-2.144a.5.5,0,0,1,.975.195l-.585,2.144A.648.648,0,0,1,24.887,25.319Z" transform="translate(-24.4 -22.2)"></path></g><g transform="translate(14.312 16.524)"><path class="a" d="M25.421,30.156a.7.7,0,0,1-.585-.292l-9.942-9.942a.889.889,0,0,1,0-1.17l1.657-1.657a.889.889,0,0,1,1.17,0l9.942,9.942a.889.889,0,0,1,0,1.17l-1.657,1.657A.589.589,0,0,1,25.421,30.156ZM15.674,19.336l9.845,9.845,1.462-1.462-9.845-9.942Z" transform="translate(-14.675 -16.875)"></path></g><g transform="translate(31.881 31.56)"><path class="a" d="M40.985,43.7v1.17H32.992V43.8l4.386-4.874a12.56,12.56,0,0,0,1.267-1.755,3.086,3.086,0,0,0,.39-1.56,1.919,1.919,0,0,0-.585-1.56,2.293,2.293,0,0,0-1.657-.585,5.5,5.5,0,0,0-3.509,1.462L32.7,33.86a5.031,5.031,0,0,1,1.852-1.17,6.044,6.044,0,0,1,2.242-.39,3.993,3.993,0,0,1,2.729.877,2.963,2.963,0,0,1,.975,2.437,5.238,5.238,0,0,1-.487,2.047,11.819,11.819,0,0,1-1.56,2.242l-3.606,3.9h6.141Z" transform="translate(-32.7 -32.3)"></path><path class="a" d="M51.165,40.978v1.17H49.313v2.729H47.851V42.147H42.1V41.075L48.143,32.4h1.17v8.578Zm-7.6,0h4.289V34.837Z" transform="translate(-32.938 -32.303)"></path></g><g transform="translate(19.307 27.173)"><path class="a" d="M20.287,42.129h-.1a.534.534,0,0,1-.39-.585L23.406,28.19a.5.5,0,1,1,.975.195L20.775,41.739A.5.5,0,0,1,20.287,42.129Z" transform="translate(-19.8 -27.8)"></path></g><g transform="translate(20.233 26.735)"><path class="a" d="M21.286,30.225a.586.586,0,0,1-.39-.1.471.471,0,0,1,0-.682L22.846,27.5a.482.482,0,0,1,.682.682l-1.949,1.949A.982.982,0,0,1,21.286,30.225Z" transform="translate(-20.75 -27.35)"></path></g></g></svg>