<svg xmlns="http://www.w3.org/2000/svg" viewBox="0 0 75 122"><g id="Group_6302" data-name="Group 6302" transform="translate(-346 -549)"><g id="Group_6300" data-name="Group 6300"><rect id="Rectangle_24072" data-name="Rectangle 24072" width="75" height="75" transform="translate(346 549)" fill="none"></rect><g id="Group_6291" data-name="Group 6291" transform="translate(346 555)"><path id="Path_2249" data-name="Path 2249" d="M153.64,133.411c-1.295-3.548.4-7.825-.652-11.411l-4.331-16.443a5.089,5.089,0,0,0-6.192-3.613,5,5,0,0,0-2.147,1.216,4.752,4.752,0,0,0-7.832-2.024,4.783,4.783,0,0,0-7.291-1.26l-.844-3.2h1.732a4.066,4.066,0,0,0,4.058-4.064V81.16a4.066,4.066,0,0,0-4.058-4.064H114.65a4.065,4.065,0,0,0-4.058,4.064V92.61a4.053,4.053,0,0,0,3.591,4.017l3.67,13.93a4.986,4.986,0,0,0-5.842,6.226l4.253,14.7a11.457,11.457,0,0,0,3.183,5.187l2.128,1.987h0a1.354,1.354,0,0,0,1.845-1.981l-2.129-1.987a8.737,8.737,0,0,1-2.43-3.96l-4.253-14.7a2.266,2.266,0,0,1,4.366-1.21l1.874,7.115a5.435,5.435,0,0,1-.351,3.692,1.359,1.359,0,1,0,2.565.885,8.1,8.1,0,0,0,.4-5.268L116.5,94.817a2.2,2.2,0,0,1,4.263-1.127c1.625,6.17,5.021,19.066,6.671,25.308h0a1.353,1.353,0,0,0,1.37.929,1.392,1.392,0,0,0,1.221-1.7c-.1-.406-3.737-14.16-3.762-14.29a2.1,2.1,0,0,1,4.087-.962c.552,2.088,2.784,10.583,3.359,12.74h0a1.354,1.354,0,0,0,1.706.864,1.388,1.388,0,0,0,.885-1.635c-.111-.386-2.544-9.666-2.6-9.883a2.1,2.1,0,0,1,4.088-.962c.038.147,1.128,4.276,1.068,4.053.088.325,3.364,12.788,3.39,12.859h0a1.353,1.353,0,0,0,2.591-.774c-.1-.38-3.359-12.747-3.392-12.885a2.377,2.377,0,0,1,3.592-2.485,2.486,2.486,0,0,1,1,1.387c.065.244,4.274,16.17,4.386,16.661.692,3.552-.743,8,.641,11.341.025.077,1.539,4.737,1.575,4.825h0a1.354,1.354,0,0,0,1.754.758,1.38,1.38,0,0,0,.787-1.684l-1.546-4.745ZM117.382,89.5a4.913,4.913,0,0,0-3.616,4.117,1.338,1.338,0,0,1-.469-1.007V81.16a1.355,1.355,0,0,1,1.353-1.355h11.432a1.355,1.355,0,0,1,1.353,1.355V92.61a1.355,1.355,0,0,1-1.353,1.355h-2.445a5.081,5.081,0,0,0-6.254-4.465Z" transform="translate(-110.592 -77.089)" fill="#143051"></path><path id="Path_2250" data-name="Path 2250" d="M307.846,77.051H296.413a4.061,4.061,0,0,0-4.058,4.058V92.543a4.062,4.062,0,0,0,4.058,4.058h11.434a4.062,4.062,0,0,0,4.058-4.058V81.109a4.061,4.061,0,0,0-4.058-4.058ZM309.2,92.542a1.354,1.354,0,0,1-1.353,1.353H296.413a1.354,1.354,0,0,1-1.353-1.353V81.108a1.353,1.353,0,0,1,1.353-1.353h11.434a1.354,1.354,0,0,1,1.353,1.353Z" transform="translate(-264.197 -77.051)" fill="#143051"></path><path id="Path_2251" data-name="Path 2251" d="M488.756,77.051H478.187a4.061,4.061,0,0,0-4.058,4.058V92.543a4.063,4.063,0,0,0,4.058,4.058h10.569a4.062,4.062,0,0,0,4.058-4.058V81.109a4.061,4.061,0,0,0-4.058-4.058Zm1.353,15.491a1.354,1.354,0,0,1-1.353,1.353H478.187a1.354,1.354,0,0,1-1.353-1.353V81.108a1.353,1.353,0,0,1,1.353-1.353h10.569a1.354,1.354,0,0,1,1.353,1.353Z" transform="translate(-417.813 -77.051)" fill="#143051"></path></g></g><g id="_01" data-name="01" transform="translate(370 645)"><circle id="Ellipse_82" data-name="Ellipse 82" cx="13" cy="13" r="13" fill="#f2672b"></circle><path id="Path_1741" data-name="Path 1741" d="M35.735,30.62H33.1V22.176H29.8V20.188l1.53-.918a5.828,5.828,0,0,0,1.652-.184,2.709,2.709,0,0,0,.642-1.469l1.53-.918h2.111V29.733Z" transform="translate(-20.683 -11.591)" opacity="0.15"></path><g id="Group_3099" data-name="Group 3099" transform="translate(9.117 5.997)"><path id="Path_1742" data-name="Path 1742" d="M35.735,32.633H33.1V24.189H29.8V22.2c1.836.031,3.549-.581,3.824-2.6h2.111Z" transform="translate(-29.8 -19.6)" fill="#fff"></path></g></g></g></svg>