<svg xmlns="http://www.w3.org/2000/svg" viewBox="0 0 230 230"><g fill="#0f2c52"><path d="m227 199.5c-.4.1-.9-.1-1.2-.4l-224.2-122.9c-1.4-.7-1.9-2.4-1.2-3.8s2.4-1.9 3.7-1.2l224.3 122.9c1.4.7 1.9 2.4 1.2 3.8-.5 1-1.5 1.6-2.6 1.6z" transform="translate(0 24.649)"></path><path d="m127.6 185.9h-74.2l37-64.5zm-64.3-5.7h54.5l-27.3-47.3z" transform="translate(18.962 42.63)"></path><path d="m58.9 7.1c13.2 0 25.9 5.2 35.3 14.5 9 9.3 14.1 21.8 14.2 34.7-.1 12.9-5.2 25.2-14.2 34.4-8.9 9.5-21.3 15-34.3 15h-1.4c-6.3-.2-12.4-1.6-18.2-4.1-5.7-2.7-11-6.4-15.4-10.9-8.9-9.3-14-21.6-14.2-34.5-.1-6.5 1.1-13 3.7-19 2.5-5.9 6.1-11.2 10.5-15.8 4.4-4.4 9.5-8 15.3-10.4h.2c5.8-2.5 12-3.9 18.3-4zm0-5.7h-.2c-7.2.1-14.4 1.7-20.9 4.7-6.5 2.7-12.3 6.7-17.2 11.7-5 5.1-8.9 11-11.7 17.6-2.8 6.7-4.1 13.9-4 21.2.1 14.2 5.8 28 15.7 38.3 5 5 10.8 9.1 17.2 12.1 6.7 3 13.9 4.6 21.2 4.7h.7c14.6 0 28.6-6.1 38.5-16.8 10-10.3 15.7-24.1 15.8-38.4-.1-14.5-5.7-28.4-15.8-38.8-10.4-10.4-24.6-16.3-39.3-16.3z" transform="translate(1.712)"></path><path d="m154.5 103c13-.1 23.7 10.3 23.8 23.3.1 6.3-2.4 12.4-6.8 16.9-4.2 4.6-10.2 7.1-16.4 7.1h-.8c-3-.1-5.9-.7-8.6-2-2.8-1.3-5.3-3.1-7.4-5.3-4.3-4.5-6.7-10.4-6.8-16.6-.1-3.1.5-6.2 1.8-9 1.2-2.8 2.9-5.4 5.1-7.6 2.1-2.1 4.5-3.8 7.2-5h.2c2.7-1.1 5.7-1.8 8.7-1.8zm0-5.7c-3.9.1-7.7.9-11.2 2.5-3.4 1.4-6.5 3.6-9.1 6.2-2.7 2.7-4.8 5.8-6.2 9.3-1.5 3.6-2.3 7.4-2.2 11.3.1 7.7 3.1 15 8.4 20.5 2.6 2.7 5.7 4.8 9.1 6.4 3.6 1.6 7.4 2.4 11.3 2.5h.4c7.8 0 15.2-3.2 20.5-8.9 11.4-11.5 11.3-30-.1-41.4-5.5-5.4-13-8.5-20.9-8.4z" transform="translate(44.669 34.039)"></path><path d="m49.3 18.8c-1.9 0-3.5 1.5-3.5 3.4v.2 3.8c-6.7.9-11.8 6.4-12.2 13.2.4 8.3 7.4 14.7 15.8 14.3 4.1.7 6.8 4.6 6.1 8.6-.7 4.1-4.6 6.8-8.6 6.1-3.6-.6-6.2-3.7-6.2-7.3.1-1.8-1.3-3.4-3.1-3.6-.1 0-.2 0-.3 0-1.8-.1-3.4 1.3-3.5 3.1v.5c.4 6.8 5.5 12.3 12.2 13.3v3.9c-.1 1.8 1.3 3.4 3.1 3.6h.3c1.8.1 3.4-1.3 3.5-3.1 0-.2 0-.3 0-.5v-3.1c6.9-1.1 12.1-7 12.2-14 0-9.3-6.1-14.4-15.8-14.4-4 .7-7.9-2-8.6-6s2-7.9 6-8.6c.8-.1 1.6-.2 2.4 0h.4c4.4-.3 8.2 3 8.5 7.3-.1 1.8 1.3 3.4 3.1 3.6h.3c1.8.1 3.4-1.3 3.5-3.1 0-.2 0-.3 0-.5-.3-7-5.4-12.8-12.2-14v-3.1c0-2-1.5-3.5-3.4-3.6z" transform="translate(11.927 6.173)"></path><path d="m149.5 106.2c-1 0-1.9.8-1.9 1.8v.2 2.1c-3.7.5-6.5 3.5-6.7 7.2.2 4.5 4.1 8.1 8.6 7.8 2.2.4 3.8 2.5 3.4 4.7s-2.5 3.8-4.7 3.4c-2-.3-3.5-2-3.5-4.1 0-1.1-.8-1.9-1.8-2 0 0 0 0-.1 0-1-.1-1.8.7-1.9 1.7v.3c.2 3.7 3 6.8 6.7 7.2v2.1c0 1.1.8 1.9 1.8 2h.1c1 .1 1.8-.7 1.9-1.7 0-.1 0-.2 0-.3v-1.7c3.8-.6 6.6-3.8 6.7-7.6 0-5.1-3.3-7.8-8.6-7.8-2.4.2-4.6-1.6-4.8-4 .2-2.4 2.3-4.2 4.7-4.1h.2c2.4-.2 4.4 1.6 4.7 4 0 1.1.8 1.9 1.8 2h.1c1 0 1.9-.8 1.9-1.8 0-.1 0-.1 0-.2-.1-3.8-3-7-6.7-7.6v-1.7c0-1-.8-1.9-1.8-1.9-.1.1-.1.1-.1 0z" transform="translate(50.022 37.221)"></path></g></svg>