<svg xmlns="http://www.w3.org/2000/svg" viewBox="0 0 54 54"><g id="icon-about-money-protection2a" transform="translate(2990 -4211)"><rect id="Rectangle_20223" data-name="Rectangle 20223" width="54" height="54" transform="translate(-2990 4211)" fill="#940000" opacity="0"></rect><g id="Group_5418" data-name="Group 5418" transform="translate(-2989.724 4212)"><path id="Path_4781" data-name="Path 4781" d="M25473.715,32375h35.344a1.655,1.655,0,0,1,1.2.521,1.593,1.593,0,0,1,.52,1.2v41.885a1.6,1.6,0,0,1-.52,1.2,1.667,1.667,0,0,1-1.2.518h-19.187l1.115-1.236a18.989,18.989,0,0,0,3.592-5.824,18.687,18.687,0,0,0-17.432-25.41,19.46,19.46,0,0,0-2.156.121,19.857,19.857,0,0,0-2.111.357l-.879.24v-11.848a1.777,1.777,0,0,1,1.715-1.717Z" transform="translate(-25457.049 -32374.996)" fill="#4c4c4c"></path><path id="Path_4783" data-name="Path 4783" d="M25117.1,32661a20.123,20.123,0,1,1,0,40.246,20.082,20.082,0,0,1-20.1-20.143,20.082,20.082,0,0,1,20.1-20.1Zm13.205,6.9a18.668,18.668,0,0,0-31.871,13.2,18.668,18.668,0,1,0,31.871-13.2Z" transform="translate(-25097.01 -32649.594)" fill="#4c4c4c"></path><g id="Group_5356" data-name="Group 5356" transform="translate(-0.276 11.293)"><g id="Ellipse_190" data-name="Ellipse 190" transform="translate(0)" fill="#fff" stroke="#4c4c4c" stroke-width="2"><circle cx="20.372" cy="20.372" r="20.372" stroke="none"></circle><circle cx="20.372" cy="20.372" r="19.372" fill="none"></circle></g><g id="Ellipse_191" data-name="Ellipse 191" transform="translate(5.821 5.821)" fill="#fff" stroke="#ff8055" stroke-width="1.5"><circle cx="14.551" cy="14.551" r="14.551" stroke="none"></circle><circle cx="14.551" cy="14.551" r="13.801" fill="none"></circle></g><path id="Path_5242" data-name="Path 5242" d="M25605.957,32895v21.66H25605V32895Z" transform="translate(-25585.439 -32885.551)" fill="#ff8055"></path><path id="Path_5243" data-name="Path 5243" d="M25455.967,32944.961h-8.895c-.92,0-1.6,1-1.875,2.273a5.4,5.4,0,0,0-.2,1.59,5.316,5.316,0,0,0,.16,1.6c.279,1.109.916,1.988,1.916,1.988h3.828v.961h-3.828c-1.557,0-2.473-1.2-2.834-2.715a6.85,6.85,0,0,1-.238-1.836,9.536,9.536,0,0,1,.238-1.832c.4-1.676,1.355-2.992,2.834-2.992h8.895Z" transform="translate(-25430.859 -32932.594)" fill="#ff8055"></path><path id="Path_5244" data-name="Path 5244" d="M25491,33163.418h8.9c.916,0,1.555-1.039,1.873-2.273a7.277,7.277,0,0,0,.2-1.637,7.154,7.154,0,0,0-.158-1.6c-.281-1.117-.918-1.953-1.916-1.953h-3.871V33155h3.871c1.516,0,2.471,1.152,2.832,2.676a7.021,7.021,0,0,1,.2,1.832,8.947,8.947,0,0,1-.2,1.836c-.439,1.676-1.4,3.031-2.832,3.031h-8.9Z" transform="translate(-25475.986 -33135.18)" fill="#ff8055"></path></g><path id="Path_5248" data-name="Path 5248" d="M10.817,0H29.989a.485.485,0,1,1,0,.97H10.817a.485.485,0,1,1,0-.97Z" transform="translate(21.727 18.083)" fill="#fff"></path><path id="Path_5251" data-name="Path 5251" d="M-5.117,0H29.442a.485.485,0,1,1,0,.97H-5.117A.485.485,0,0,1-5.6.485.485.485,0,0,1-5.117,0Z" transform="translate(22.203 9.353)" fill="#fff"></path><path id="Path_5249" data-name="Path 5249" d="M13.014,0h16.9a.485.485,0,1,1,0,.97h-16.9a.485.485,0,0,1,0-.97Z" transform="translate(21.661 26.814)" fill="#fff"></path><path id="Path_5250" data-name="Path 5250" d="M13.014,0H29.843a.485.485,0,1,1,0,.97H13.014a.485.485,0,0,1,0-.97Z" transform="translate(21.661 35.545)" fill="#fff"></path></g></g></svg>