<svg xmlns="http://www.w3.org/2000/svg" xmlns:xlink="http://www.w3.org/1999/xlink" id="Layer_1" x="0px" y="0px" viewBox="0 0 48 48" style="enable-background:new 0 0 48 48;" xml:space="preserve"><style type="text/css">	.st0{fill:#0F2C52;}	.st1{enable-background:new    ;}</style><g transform="translate(-204 -655)">	<circle class="st0" cx="228" cy="656" r="1"></circle>	<circle class="st0" cx="228" cy="702" r="1"></circle>	<g class="st1">		<path class="st0" d="M221.3,677.8c-0.6-0.9-0.9-2.1-0.9-3.8c0-1.6,0.3-2.9,0.9-3.8c0.6-0.9,1.5-1.3,2.7-1.3c1.2,0,2.1,0.4,2.7,1.3    c0.6,0.9,0.9,2.1,0.9,3.8c0,1.7-0.3,2.9-0.9,3.8c-0.6,0.9-1.5,1.3-2.7,1.3C222.8,679.1,221.9,678.7,221.3,677.8z M225.4,676.8    c0.3-0.6,0.4-1.5,0.4-2.8c0-1.3-0.1-2.2-0.4-2.8c-0.3-0.6-0.8-0.9-1.4-0.9s-1.1,0.3-1.4,0.9c-0.3,0.6-0.4,1.5-0.4,2.8    c0,1.3,0.1,2.2,0.4,2.8s0.8,0.9,1.4,0.9S225.1,677.4,225.4,676.8z"></path>	</g>	<g class="st1">		<path class="st0" d="M232.3,689.8c-0.6-0.9-0.9-2.1-0.9-3.8c0-1.6,0.3-2.9,0.9-3.8c0.6-0.9,1.5-1.3,2.7-1.3s2.1,0.4,2.7,1.3    c0.6,0.9,0.9,2.1,0.9,3.8c0,1.7-0.3,2.9-0.9,3.8c-0.6,0.9-1.5,1.3-2.7,1.3S232.9,690.7,232.3,689.8z M236.4,688.8    c0.3-0.6,0.4-1.5,0.4-2.8c0-1.3-0.1-2.2-0.4-2.8c-0.3-0.6-0.8-0.9-1.4-0.9c-0.6,0-1.1,0.3-1.4,0.9c-0.3,0.6-0.4,1.5-0.4,2.8    c0,1.3,0.1,2.2,0.4,2.8s0.8,0.9,1.4,0.9C235.6,689.7,236.1,689.4,236.4,688.8z"></path>	</g>	<g>		<path class="st0" d="M219.5,690.3c-0.2,0-0.4-0.1-0.5-0.2c-0.3-0.3-0.3-0.8,0-1.1l21-21c0.3-0.3,0.8-0.3,1.1,0s0.3,0.8,0,1.1    l-21,21C219.9,690.2,219.7,690.3,219.5,690.3z"></path>	</g>	<circle class="st0" cx="251" cy="679" r="1"></circle>	<circle class="st0" cx="205" cy="679" r="1"></circle>	<circle class="st0" cx="250.2" cy="685" r="1"></circle>	<circle class="st0" cx="205.8" cy="673" r="1"></circle>	<circle class="st0" cx="247.9" cy="690.5" r="1"></circle>	<circle class="st0" cx="208.1" cy="667.5" r="1"></circle>	<circle class="st0" cx="244.3" cy="695.3" r="1"></circle>	<circle class="st0" cx="211.7" cy="662.7" r="1"></circle>	<circle class="st0" cx="239.5" cy="698.9" r="1"></circle>	<circle class="st0" cx="216.5" cy="659.1" r="1"></circle>	<circle class="st0" cx="234" cy="701.2" r="1"></circle>	<circle class="st0" cx="222" cy="656.8" r="1"></circle>	<circle class="st0" cx="251" cy="679" r="1"></circle>	<circle class="st0" cx="205" cy="679" r="1"></circle>	<circle class="st0" cx="228" cy="702" r="1"></circle>	<circle class="st0" cx="228" cy="656" r="1"></circle>	<circle class="st0" cx="222" cy="701.2" r="1"></circle>	<circle class="st0" cx="234" cy="656.8" r="1"></circle>	<circle class="st0" cx="216.5" cy="698.9" r="1"></circle>	<circle class="st0" cx="239.5" cy="659.1" r="1"></circle>	<circle class="st0" cx="211.7" cy="695.3" r="1"></circle>	<circle class="st0" cx="244.3" cy="662.7" r="1"></circle>	<circle class="st0" cx="208.1" cy="690.5" r="1"></circle>	<circle class="st0" cx="247.9" cy="667.5" r="1"></circle>	<circle class="st0" cx="205.8" cy="685" r="1"></circle>	<circle class="st0" cx="250.2" cy="673" r="1"></circle></g></svg>