<svg xmlns="http://www.w3.org/2000/svg" viewBox="0 0 64.855 40.2"><defs><style>.a{fill:#0f2c52;}</style></defs><g transform="translate(-124.584 -186.4)"><g transform="translate(124.584 186.4)"><path class="a" d="M130.951,207.9a2.328,2.328,0,0,1-1.411-.4l-3.73-2.4a2.711,2.711,0,0,1-.807-3.7l8.972-13.8a2.535,2.535,0,0,1,2.218-1.2,2.328,2.328,0,0,1,1.411.4l3.73,2.4a2.982,2.982,0,0,1,1.21,1.7,2.379,2.379,0,0,1-.4,2l-8.972,13.8A2.636,2.636,0,0,1,130.951,207.9Zm5.242-20a1.244,1.244,0,0,0-1.008.5l-8.972,13.8a1.126,1.126,0,0,0,.3,1.6l3.73,2.4a1.244,1.244,0,0,0,1.613-.3l8.972-13.8a1.476,1.476,0,0,0,.2-.9c-.1-.3-.2-.6-.5-.7l-3.73-2.4C136.7,187.9,136.5,187.9,136.194,187.9Z" transform="translate(-124.584 -186.4)"></path></g><g transform="translate(132.136 191.989)"><path class="a" d="M154.178,226.2a5.619,5.619,0,0,1-2.621-.6,3.36,3.36,0,0,1-1.512-1.8,5.871,5.871,0,0,1-3.73-1A3.363,3.363,0,0,1,145,220.5a3.854,3.854,0,0,1-3.428-1,3.563,3.563,0,0,1-.6-2.8c-2.52.2-3.629-1-4.033-1.9a3.79,3.79,0,0,1,0-3.3l-4.637-4.6a.78.78,0,0,1,0-1.1.8.8,0,0,1,1.109,0l4.637,4.6c2.823-1.9,15.626-10.5,18.449-11.4,2.621-.8,5.545,1.3,7.763,2.9a18.536,18.536,0,0,0,1.815,1.2,1.7,1.7,0,0,0,1.714,0c.4-.3.5-1.1.2-2.1-.6-3-6.553-8.2-13.912-7.3-7.863.9-12.9.1-13.106,0a.765.765,0,1,1,.3-1.5,51.166,51.166,0,0,0,12.7-.1c8.368-1,14.82,5,15.626,8.5.3,1.7.1,2.9-.706,3.6a3.3,3.3,0,0,1-3.226.2,15.428,15.428,0,0,1-2.117-1.3c-1.815-1.3-4.537-3.3-6.452-2.7-2.42.8-14.114,8.5-18.55,11.5a2.14,2.14,0,0,0-.1,2.1c.5.9,1.714,1.3,3.428,1l9.477-6.2a.786.786,0,0,1,1.008.2.771.771,0,0,1-.2,1l-9.376,6.1c-.3,1.1-.3,1.8.1,2.2s1.311.6,2.722.4l7.964-4.8a.761.761,0,0,1,1.008.2.771.771,0,0,1-.2,1l-7.763,4.7a1.9,1.9,0,0,0,.807,1.5,3.954,3.954,0,0,0,3.024.6l5.444-3.4a.786.786,0,0,1,1.008.2.771.771,0,0,1-.2,1l-5.041,3.1a1.794,1.794,0,0,0,.907,1c1.613.9,4.94,0,7.259-.7l.6-.2a.722.722,0,0,1,.907.5.715.715,0,0,1-.5.9l-.6.2A12.61,12.61,0,0,1,154.178,226.2Z" transform="translate(-132.075 -191.989)"></path></g><g transform="translate(171.462 186.4)"><path class="a" d="M182.694,207.9h0a2.636,2.636,0,0,1-2.218-1.2L171.5,192.9a2.711,2.711,0,0,1,.807-3.7l3.73-2.4a2.328,2.328,0,0,1,1.411-.4,2.636,2.636,0,0,1,2.218,1.2l8.972,13.8a2.711,2.711,0,0,1-.807,3.7l-3.73,2.4A2.625,2.625,0,0,1,182.694,207.9Zm-5.242-20a1.441,1.441,0,0,0-.6.2l-3.73,2.4a1.141,1.141,0,0,0-.3,1.6l8.972,13.8a1.244,1.244,0,0,0,1.008.5h0a1.441,1.441,0,0,0,.6-.2l3.73-2.4a1.141,1.141,0,0,0,.3-1.6l-8.972-13.8A1.244,1.244,0,0,0,177.451,187.9Z" transform="translate(-171.084 -186.4)"></path></g><g transform="translate(164.324 209.2)"><path class="a" d="M171.863,223.2a3.223,3.223,0,0,1-2.823-1.6l-4.537-7.3a3.351,3.351,0,0,1,1.109-4.6,3.5,3.5,0,0,1,1.815-.5,3.223,3.223,0,0,1,2.823,1.6l4.537,7.3a3.351,3.351,0,0,1-1.109,4.6h0A4.134,4.134,0,0,1,171.863,223.2Zm-4.637-12.4a1.957,1.957,0,0,0-1.008.3,1.8,1.8,0,0,0-.6,2.5l4.537,7.3a1.927,1.927,0,0,0,2.52.6h0a2.1,2.1,0,0,0,.807-1.1,2.283,2.283,0,0,0-.2-1.4l-4.537-7.3A1.477,1.477,0,0,0,167.226,210.8Z" transform="translate(-164.003 -209.2)"></path></g><g transform="translate(170.373 209.1)"><path class="a" d="M175.444,219.2a3.223,3.223,0,0,1-2.823-1.6l-2.117-3.4a3.351,3.351,0,0,1,1.109-4.6,3.5,3.5,0,0,1,1.815-.5,3.223,3.223,0,0,1,2.823,1.6l2.117,3.4a3.28,3.28,0,0,1-1.109,4.6A3.129,3.129,0,0,1,175.444,219.2Zm-2.117-8.5a1.957,1.957,0,0,0-1.008.3,1.8,1.8,0,0,0-.6,2.5l2.117,3.4a1.927,1.927,0,0,0,2.52.6,2.1,2.1,0,0,0,.807-1.1,2.183,2.183,0,0,0-.2-1.4l-2.117-3.4A1.665,1.665,0,0,0,173.327,210.7Z" transform="translate(-170.003 -209.1)"></path></g><g transform="translate(161.079 214)"><path class="a" d="M167.051,225.4a3.223,3.223,0,0,1-2.823-1.6l-2.924-4.7a3.28,3.28,0,0,1,1.109-4.6,3.5,3.5,0,0,1,1.815-.5,3.223,3.223,0,0,1,2.823,1.6l2.924,4.7a3.28,3.28,0,0,1-1.109,4.6A3.5,3.5,0,0,1,167.051,225.4Zm-2.924-9.8a1.957,1.957,0,0,0-1.008.3,2.1,2.1,0,0,0-.807,1.1,2.183,2.183,0,0,0,.2,1.4l2.924,4.7a1.927,1.927,0,0,0,2.52.6,1.8,1.8,0,0,0,.6-2.5l-2.924-4.7A1.477,1.477,0,0,0,164.127,215.6Z" transform="translate(-160.784 -214)"></path></g><g transform="translate(158.563 218.5)"><path class="a" d="M162.736,226.6a2.842,2.842,0,0,1-2.42-1.3l-1.613-2.6a2.747,2.747,0,0,1,.907-3.8,2.642,2.642,0,0,1,1.512-.4,2.842,2.842,0,0,1,2.42,1.3l1.613,2.6a2.563,2.563,0,0,1,.3,2.1,2.982,2.982,0,0,1-1.21,1.7A2.863,2.863,0,0,1,162.736,226.6Zm-1.714-6.7a1.881,1.881,0,0,0-.706.2,1.3,1.3,0,0,0-.4,1.8l1.613,2.6a1.32,1.32,0,0,0,1.815.4,1.3,1.3,0,0,0,.4-1.8l-1.613-2.6A1.16,1.16,0,0,0,161.022,219.9Z" transform="translate(-158.288 -218.5)"></path></g><g transform="translate(163.69 192.875)"><path class="a" d="M176.1,212.7c-.2,0-.3-.1-.5-.2a.779.779,0,0,1-.1-1.1l4.839-6.1a.8.8,0,0,1,1.109-.1.779.779,0,0,1,.1,1.1l-4.839,6.1A.874.874,0,0,1,176.1,212.7Zm-12-16.2a.735.735,0,0,1-.706-.6.715.715,0,0,1,.5-.9l8.771-2.1a.722.722,0,0,1,.907.5.715.715,0,0,1-.5.9l-8.771,2.1C164.308,196.5,164.207,196.5,164.106,196.5Z" transform="translate(-163.375 -192.875)"></path></g></g></svg>