<svg xmlns="http://www.w3.org/2000/svg" xmlns:xlink="http://www.w3.org/1999/xlink" id="Layer_1" x="0px" y="0px" viewBox="0 0 66 30.2" style="enable-background:new 0 0 66 30.2;" xml:space="preserve"><style type="text/css">	.st0{fill:#0F2C52;}</style><g transform="translate(0 0)">	<g transform="translate(16.019)">		<path class="st0" d="M48.2,30.2H1.8C0.7,30.2,0,28.9,0,28v-5.4h1.3v5.5c0,0.3,0.2,0.7,0.5,0.9h46.3c0.3,0,0.5-0.2,0.5-0.5V1.8    c0-0.3-0.2-0.5-0.5-0.5H1.8c-0.3,0-0.5,0.2-0.5,0.5v16.5H0V1.8C0,0.8,0.8,0,1.8,0h46.3c1,0,1.8,0.8,1.8,1.8v26.7    C50,29.5,49.2,30.2,48.2,30.2z"></path>	</g>	<g transform="translate(34.361 5.38)">		<path class="st0" d="M10.8,19.4c-0.1,0-0.1,0-0.2-0.1l-3.9-2.7l-3.9,2.8c-0.1,0.1-0.3,0.1-0.5,0C2.1,19.3,2,19.2,2,19.1v-7.6    C-0.7,8.9-0.7,4.6,2,2c1.3-1.2,3-2,4.7-2c3.7,0,6.6,3,6.6,6.7c0,1.8-0.8,3.6-2.1,4.9v7.5c0,0.1-0.1,0.4-0.2,0.4L10.8,19.4z     M2.8,12.2v6l3.5-2.4c0.1-0.1,0.3-0.1,0.5,0l3.4,2.4v-5.9c-1.1,0.7-2.4,1.1-3.7,1.1C5.3,13.4,4,12.9,2.8,12.2L2.8,12.2z M2.8,11    c1,0.9,2.4,1.4,3.8,1.5c1.3,0,2.7-0.5,3.7-1.3c0-0.1,0.1-0.2,0.2-0.2c1.1-1.1,1.8-2.6,1.8-4.2C12.3,3.6,9.8,1,6.6,1    C3.4,1,0.9,3.5,0.9,6.7c0,0,0,0,0,0c0,1.5,0.6,3,1.7,4C2.7,10.8,2.8,10.9,2.8,11L2.8,11z"></path>	</g>	<g transform="translate(0 6.603)">		<path class="st0" d="M21.9,12.5H9c-0.4,0-0.7-0.3-0.7-0.7c0,0,0,0,0-0.1c-0.1-0.4,0.2-0.7,0.5-0.7C8.9,11,9,11,9,11h13    c0.4,0,0.7,0.3,0.7,0.7c0,0,0,0,0,0.1C22.7,12.2,22.4,12.5,21.9,12.5z M13.6,6.8H0.7C0.3,6.8,0,6.5,0,6.1c0-0.4,0.3-0.7,0.7-0.7    h13c0.4,0,0.7,0.3,0.7,0.7c0,0,0,0,0,0.1C14.3,6.5,14,6.8,13.6,6.8z M16.2,1.3H3.3c-0.5,0-0.7-0.2-0.7-0.6C2.6,0.4,2.9,0,3.3,0    c0,0,0,0,0.1,0h13C16.7,0,17,0.3,17,0.7c0,0,0,0,0,0.1C17,1.2,16.7,1.3,16.2,1.3L16.2,1.3z"></path>	</g></g></svg>