<svg xmlns="http://www.w3.org/2000/svg" viewBox="0 0 48 48"><defs><style>.a,.b{fill:#0f2c52;}.b{font-size:14px;font-family:Muli-Bold, Muli;font-weight:700;}.c{fill:none;stroke:#0f2c52;stroke-linecap:round;stroke-width:1.5px;}</style></defs><g transform="translate(-204 -655)"><circle class="a" cx="1" cy="1" r="1" transform="translate(227 655)"></circle><circle class="a" cx="1" cy="1" r="1" transform="translate(227 701)"></circle><text class="b" transform="translate(224 679)"><tspan x="-4.2" y="0">0</tspan></text><text class="b" transform="translate(235 691)"><tspan x="-4.2" y="0">0</tspan></text><line class="c" y1="21" x2="21" transform="translate(219.5 668.5)"></line><circle class="a" cx="1" cy="1" r="1" transform="translate(252 678) rotate(90)"></circle><circle class="a" cx="1" cy="1" r="1" transform="translate(206 678) rotate(90)"></circle><circle class="a" cx="1" cy="1" r="1" transform="matrix(-0.259, 0.966, -0.966, -0.259, 251.441, 684.246)"></circle><circle class="a" cx="1" cy="1" r="1" transform="matrix(-0.259, 0.966, -0.966, -0.259, 207.008, 672.34)"></circle><circle class="a" cx="1" cy="1" r="1" transform="translate(249.284 690.134) rotate(120)"></circle><circle class="a" cx="1" cy="1" r="1" transform="translate(209.447 667.134) rotate(120)"></circle><circle class="a" cx="1" cy="1" r="1" transform="translate(245.678 695.263) rotate(135)"></circle><circle class="a" cx="1" cy="1" r="1" transform="translate(213.151 662.736) rotate(135)"></circle><circle class="a" cx="1" cy="1" r="1" transform="translate(240.866 699.284) rotate(150)"></circle><circle class="a" cx="1" cy="1" r="1" transform="translate(217.866 659.447) rotate(150)"></circle><circle class="a" cx="1" cy="1" r="1" transform="matrix(-0.966, 0.259, -0.259, -0.966, 235.178, 701.923)"></circle><circle class="a" cx="1" cy="1" r="1" transform="matrix(-0.966, 0.259, -0.259, -0.966, 223.272, 657.491)"></circle><circle class="a" cx="1" cy="1" r="1" transform="translate(252 678) rotate(90)"></circle><circle class="a" cx="1" cy="1" r="1" transform="translate(206 678) rotate(90)"></circle><circle class="a" cx="1" cy="1" r="1" transform="translate(229 703) rotate(180)"></circle><circle class="a" cx="1" cy="1" r="1" transform="translate(229 657) rotate(180)"></circle><circle class="a" cx="1" cy="1" r="1" transform="matrix(-0.966, -0.259, 0.259, -0.966, 222.754, 702.441)"></circle><circle class="a" cx="1" cy="1" r="1" transform="matrix(-0.966, -0.259, 0.259, -0.966, 234.66, 658.008)"></circle><circle class="a" cx="1" cy="1" r="1" transform="translate(216.866 700.285) rotate(-150)"></circle><circle class="a" cx="1" cy="1" r="1" transform="translate(239.866 660.447) rotate(-150)"></circle><circle class="a" cx="1" cy="1" r="1" transform="translate(211.737 696.678) rotate(-135)"></circle><circle class="a" cx="1" cy="1" r="1" transform="translate(244.264 664.15) rotate(-135)"></circle><circle class="a" cx="1" cy="1" r="1" transform="translate(207.716 691.866) rotate(-120)"></circle><circle class="a" cx="1" cy="1" r="1" transform="translate(247.553 668.866) rotate(-120)"></circle><circle class="a" cx="1" cy="1" r="1" transform="matrix(-0.259, -0.966, 0.966, -0.259, 205.077, 686.178)"></circle><circle class="a" cx="1" cy="1" r="1" transform="matrix(-0.259, -0.966, 0.966, -0.259, 249.509, 674.271)"></circle></g></svg>