<svg xmlns="http://www.w3.org/2000/svg" viewBox="0 0 54 54"><defs><style>.a{fill:#0f2c52;}</style></defs><path class="a" d="M19.372,49.4h9.4l-.754-2.75h-7.9l-.754,2.75Zm10.355-38.58.506-1.211-.267-.269H2.451v35.84H45.79v-19.9l-.334-.336-1.317.548v2.73l.038-.019V39.5a.544.544,0,0,1-.487.558H4.9a.852.852,0,0,1-.926-.961V11.411a.558.558,0,0,1,.582-.586ZM28.506,7.874l-.2-.2a1.064,1.064,0,0,1,0-1.49l3.732-3.759a1.037,1.037,0,0,1,1.479,0l1.928,1.942,1.317-.548V1.058A1.063,1.063,0,0,1,37.811,0h5.278a1.063,1.063,0,0,1,1.05,1.058v2.75l1.317.558,1.928-1.942a1.037,1.037,0,0,1,1.479,0l3.732,3.759a1.064,1.064,0,0,1,0,1.49L50.667,9.614l.544,1.327H53.95A1.063,1.063,0,0,1,55,12v5.316a1.057,1.057,0,0,1-1.05,1.058h-2.73L50.667,19.7l1.928,1.952a1.056,1.056,0,0,1,0,1.49L48.863,26.9a1.046,1.046,0,0,1-1.479,0l-.134-.135V45.309A1.357,1.357,0,0,1,45.9,46.665H29.021l.754,2.75h1.231a.481.481,0,0,1,.429.269l1.842,3.6a.583.583,0,0,1,.057.221.491.491,0,0,1-.487.49L15.421,54a.571.571,0,0,1-.248-.048.493.493,0,0,1-.22-.654l1.775-3.605a.481.481,0,0,1,.439-.269h1.2l.754-2.75H2.346A1.361,1.361,0,0,1,1,45.319V9.248A1.361,1.361,0,0,1,2.346,7.893h26.17ZM43.2,29.293l-.115.01H37.811a1.057,1.057,0,0,1-1.05-1.058V25.5l-1.317-.558L33.516,26.88a1.046,1.046,0,0,1-1.479,0l-3.732-3.759a1.056,1.056,0,0,1,0-1.49l1.928-1.942-.544-1.327H26.96a1.042,1.042,0,0,1-.926-.567L16.461,34.677a.726.726,0,0,1-1.336-.173l-2.09-8.133-.63,2.384a.737.737,0,0,1-.716.6H4.961v9.739H43.213V29.3ZM25.91,15.055V12a1.312,1.312,0,0,1,.019-.192H4.951V27.87h6.165l1.222-4.576a.726.726,0,0,1,1.413.038l2.329,9.046,9.83-17.333ZM40.445,9.816a4.749,4.749,0,0,1,3.388,1.413,4.864,4.864,0,0,1,0,6.835,4.779,4.779,0,0,1-6.786,0,4.864,4.864,0,0,1,0-6.835A4.772,4.772,0,0,1,40.445,9.816Zm2.682,2.125a3.782,3.782,0,0,0-5.373-.01,3.838,3.838,0,0,0,0,5.412,3.771,3.771,0,0,0,5.373,0,3.849,3.849,0,0,0,.01-5.412Zm-13.152-.106H26.8v5.624h3.484l1,2.442c-.821.827-1.632,1.654-2.453,2.471l3.942,3.97c.811-.827,1.642-1.654,2.462-2.48l2.415,1.019v3.5h5.583V24.871l2.424-1.009,2.453,2.471,3.942-3.97-2.462-2.48L50.6,17.449h3.474V11.825H50.591l-1-2.442c.821-.827,1.642-1.654,2.453-2.48L48.1,2.932c-.811.827-1.642,1.654-2.462,2.48L43.223,4.393V.894H37.639V4.4L35.215,5.412,32.762,2.942l-3.942,3.97,2.462,2.48-1.012,2.432h-.3Zm-.62,38.541h-11.9l-1.3,2.634L32.037,53,30.7,50.385H29.346Z" transform="translate(-1)"></path></svg>