<svg xmlns="http://www.w3.org/2000/svg" viewBox="0 0 51.684 54"><defs><style>.a{fill:#0f2c52;}</style></defs><g transform="translate(-117 -556.569)"><path class="a" d="M45.22,25.652h1.421a9.4,9.4,0,0,0,.5,1.677q1.421,3.425,5.563,3.425a5.9,5.9,0,0,0,2.515-.526V28.367a3.744,3.744,0,0,1-2.657.9,4.327,4.327,0,0,1-2.267-.625,4.093,4.093,0,0,1-1.84-2.963h5.414l.256-1.222H48.24v-1.2h6.11l.249-1.222H48.382a3.951,3.951,0,0,1,.6-1.577,4.22,4.22,0,0,1,1.123-1.236,4.32,4.32,0,0,1,2.565-.711,3.844,3.844,0,0,1,2.522.917l.362-1.712A5.2,5.2,0,0,0,52.716,17a6.629,6.629,0,0,0-3.233.8,5.784,5.784,0,0,0-2.942,4.263H45.476l-.256,1.222h1.194v1.208h-.938Z" transform="translate(103.895 546.272)"></path><path class="a" d="M16.383,45.035A16.4,16.4,0,0,0,32.207,32.921a13.407,13.407,0,1,0-6.125-17.472,16.377,16.377,0,1,0-9.7,29.586Zm0-31.057a14.678,14.678,0,0,1,9.505,3.495l.946.8.412-1.165A11.7,11.7,0,1,1,32.086,30.9l-1.052-.661L30.8,31.457A14.679,14.679,0,1,1,16.383,13.979Z" transform="translate(116.979 549)"></path><path class="a" d="M17.832,38.448a5.578,5.578,0,0,1-.9-2.6l-2.21.412a6.139,6.139,0,0,0,.874,2.892,4.675,4.675,0,0,0,1.783,1.719,8.128,8.128,0,0,0,2.679.711v2.2h1.293V41.589a5.481,5.481,0,0,0,4.867-7.4,4.427,4.427,0,0,0-.995-1.542,5.421,5.421,0,0,0-1.67-1.1,17.443,17.443,0,0,0-2.2-.647V24.586a3,3,0,0,1,1.691.909,3.759,3.759,0,0,1,.81,1.982l2.274-.341A4.974,4.974,0,0,0,24.4,23.854a5.421,5.421,0,0,0-3.041-1.123V21.68h-1.3v1.052a5.777,5.777,0,0,0-3.3,1.194,5.167,5.167,0,0,0-1.094,6.153,4.057,4.057,0,0,0,1.62,1.627,9.187,9.187,0,0,0,2.771,1.052v7a3.2,3.2,0,0,1-2.224-1.307Zm3.517-5.386a5.116,5.116,0,0,1,2.366,1.3,2.949,2.949,0,0,1,.59,1.926,3.446,3.446,0,0,1-.86,2.352,3.261,3.261,0,0,1-2.132,1.108Zm-3.425-3.624a3.055,3.055,0,0,1,.107-3.844,3.261,3.261,0,0,1,2.018-1.023v6.075A4.327,4.327,0,0,1,17.924,29.439Z" transform="translate(112.724 544.915)"></path><path class="a" d="M39.3,48.36,18.429,63.089h-.9L8.361,56.957a1.244,1.244,0,1,0-1.386,2.068l10.182,6.842v7.51h1.705V65.832L38.337,52.076v8.171h1.705V52.431l9.784,9.031a1.243,1.243,0,0,0,1.684-1.826Z" transform="translate(115.126 537.192)"></path></g></svg>