<svg xmlns="http://www.w3.org/2000/svg" viewBox="0 0 54 52"><g transform="translate(-809 -653)"><g transform="translate(809 653)"><path d="M2.07,24.335l17.6-22.5,1.191.852-17.6,22.5Z" transform="translate(15.533 13.77)" fill="#0f2c52"></path><path d="M1.685,0V26.852H.75V0Z" transform="translate(5.628)" fill="#0f2c52"></path><path d="M2.95,4.96v9.718H1.93V4.96Z" transform="translate(14.483 37.322)" fill="#0f2c52"></path><path d="M4.055,0V52H3.12V0Z" transform="translate(23.412)" fill="#0f2c52"></path><path d="M5.32,1.93V37.478H4.3V1.93Z" transform="translate(32.267 14.522)" fill="#0f2c52"></path><path d="M6.5,3.85V23.03H5.48V3.85Z" transform="translate(41.122 28.97)" fill="#0f2c52"></path><path d="M3.351,3.07a3.134,3.134,0,0,1,2.041.852,2.827,2.827,0,0,1,.85,2.046,2.98,2.98,0,0,1-.85,2.046,2.813,2.813,0,0,1-2.041.852A2.966,2.966,0,0,1,1.31,8.014,2.827,2.827,0,0,1,.46,5.968a3.15,3.15,0,0,1,.85-2.046A2.813,2.813,0,0,1,3.351,3.07Zm.935,1.875a1.364,1.364,0,0,0-.935-.426,1.364,1.364,0,0,0-.935.426,1.37,1.37,0,0,0-.425.938,1.37,1.37,0,0,0,.425.938,1.364,1.364,0,0,0,.935.426,1.364,1.364,0,0,0,.935-.426,1.37,1.37,0,0,0,.425-.938A1.37,1.37,0,0,0,4.287,4.945Z" transform="translate(3.452 23.1)" fill="#0f2c52"></path><path d="M4.541,4.38a3.134,3.134,0,0,1,2.041.852,2.827,2.827,0,0,1,.85,2.046,2.98,2.98,0,0,1-.85,2.046,2.813,2.813,0,0,1-2.041.852A2.966,2.966,0,0,1,2.5,9.324a2.827,2.827,0,0,1-.85-2.046A2.98,2.98,0,0,1,2.5,5.232,2.813,2.813,0,0,1,4.541,4.38Zm.935,1.875a1.364,1.364,0,0,0-.935-.426,1.364,1.364,0,0,0-.935.426,1.37,1.37,0,0,0-.425.938,1.37,1.37,0,0,0,.425.938,1.364,1.364,0,0,0,.935.426,1.364,1.364,0,0,0,.935-.426A1.37,1.37,0,0,0,5.9,7.193,1.37,1.37,0,0,0,5.477,6.255Z" transform="translate(12.381 32.958)" fill="#0f2c52"></path><path d="M6.911,1.35A3.134,3.134,0,0,1,8.952,2.2,2.827,2.827,0,0,1,9.8,4.248a2.98,2.98,0,0,1-.85,2.046,2.813,2.813,0,0,1-2.041.852A2.966,2.966,0,0,1,4.87,6.294a2.827,2.827,0,0,1-.85-2.046A2.98,2.98,0,0,1,4.87,2.2,2.813,2.813,0,0,1,6.911,1.35Zm.935,1.875A1.364,1.364,0,0,0,6.911,2.8a1.364,1.364,0,0,0-.935.426,1.37,1.37,0,0,0-.425.938,1.37,1.37,0,0,0,.425.938,1.364,1.364,0,0,0,.935.426A1.364,1.364,0,0,0,7.847,5.1a1.37,1.37,0,0,0,.425-.938A1.37,1.37,0,0,0,7.847,3.225Z" transform="translate(30.166 10.158)" fill="#0f2c52"></path><path d="M8.091,3.27a2.966,2.966,0,0,1,2.041.852,2.827,2.827,0,0,1,.85,2.046,2.98,2.98,0,0,1-.85,2.046,2.813,2.813,0,0,1-2.041.852A2.966,2.966,0,0,1,6.05,8.214,2.827,2.827,0,0,1,5.2,6.168a3.15,3.15,0,0,1,.85-2.046A2.813,2.813,0,0,1,8.091,3.27Zm.935,1.875a1.364,1.364,0,0,0-.935-.426,1.365,1.365,0,0,0,0,2.728,1.328,1.328,0,0,0,.935-2.3Z" transform="translate(39.02 24.605)" fill="#0f2c52"></path><path d="M5.65,7.659,10.5,2.8,11.6,3.908,6.756,8.767Z" transform="translate(42.397 21.069)" fill="#0f2c52"></path><path d="M5.686,1.85l7.909,12.787-1.276.767L4.41,2.617Z" transform="translate(33.092 13.92)" fill="#0f2c52"></path><path d="M2.006,3.52l7.313,8.1L8.213,12.641.9,4.543Z" transform="translate(6.754 26.487)" fill="#0f2c52"></path><path d="M0,8.72l4.847-5.2L5.953,4.543l-4.847,5.2Z" transform="translate(0 26.487)" fill="#0f2c52"></path><path d="M6.5,0V28.643H5.48V0Z" transform="translate(41.122)" fill="#0f2c52"></path><path d="M5.32,0V12.275H4.3V0Z" transform="translate(32.267)" fill="#0f2c52"></path><path d="M2.95,0V38.1H1.93V0Z" transform="translate(14.483)" fill="#0f2c52"></path><path d="M1.685,3.64V24.61H.75V3.64Z" transform="translate(5.628 27.39)" fill="#0f2c52"></path></g></g></svg>