<svg xmlns="http://www.w3.org/2000/svg" xmlns:xlink="http://www.w3.org/1999/xlink" id="Layer_1" x="0px" y="0px" viewBox="0 0 33.7 55.6" style="enable-background:new 0 0 33.7 55.6;" xml:space="preserve"><style type="text/css">	.st0{fill:#0F2C52;}	.st1{fill-rule:evenodd;clip-rule:evenodd;fill:#0F2C52;}</style><g id="Group_2272" transform="translate(-398 -527)">	<g id="Group_2266">		<path id="Path_1525" class="st0" d="M427.3,582.6h-24.9c-2.4,0-4.4-2-4.4-4.4v-46.8c0-2.4,2-4.4,4.4-4.4h24.9c2.4,0,4.4,2,4.4,4.4    v46.8C431.6,580.6,429.7,582.5,427.3,582.6z M402.4,528.6c-1.6,0-2.9,1.3-2.9,2.9l0,0v46.8c0,1.6,1.3,2.9,2.9,2.9c0,0,0,0,0,0    h24.9c1.6,0,2.9-1.3,2.9-2.9l0,0v-46.8c0-1.6-1.3-2.9-2.9-2.9c0,0,0,0,0,0H402.4z"></path>	</g>	<g id="Group_2267">		<path id="Path_1526" class="st1" d="M414.8,575.1c1,0,1.9,0.9,1.9,1.9c0,1-0.8,1.9-1.9,1.9c-1,0-1.9-0.9-1.9-1.9    C412.9,575.9,413.8,575.1,414.8,575.1z"></path>	</g>	<g id="Group_2268">		<path id="Path_1527" class="st0" d="M430.9,572.8h-32.1c-0.3,0-0.5-0.2-0.5-0.5s0.2-0.5,0.5-0.5h32.1c0.3,0,0.5,0.2,0.5,0.4    c0,0,0,0,0,0.1C431.4,572.6,431.2,572.8,430.9,572.8z M430.9,537.8h-32.1c-0.3,0-0.5-0.2-0.5-0.5s0.2-0.5,0.5-0.5h32.1    c0.3,0,0.5,0.2,0.5,0.4c0,0,0,0,0,0.1C431.4,537.6,431.2,537.8,430.9,537.8z"></path>	</g>	<g id="Group_2269">		<path id="Path_1528" class="st0" d="M420.9,533.2H413c-0.3,0-0.5-0.2-0.5-0.5s0.2-0.5,0.5-0.5h7.9c0.3,0,0.5,0.2,0.5,0.5    S421.2,533.2,420.9,533.2z"></path>	</g>	<g id="Group_2270">		<path id="Path_1529" class="st0" d="M410.7,533.2h-2.1c-0.3,0-0.5-0.2-0.5-0.5s0.2-0.5,0.5-0.5h2.1c0.3,0,0.5,0.2,0.5,0.5    S411,533.2,410.7,533.2z"></path>	</g>	<g id="Group_2271">		<path id="Path_1530" class="st0" d="M406.6,565.2c-1.2,0-2.1-0.9-2.1-2.1c0-1.2,0.9-2.1,2.1-2.1c0.4,0,0.9,0.1,1.2,0.4l0.5-10.6    c0-1.2,0.9-2.1,2.1-2.1c0.9,0,1.8,0.6,2,1.5l3.6,7.5c0.4-0.5,1-0.8,1.7-0.8c0.4,0,0.9,0.1,1.2,0.4l0.5-10.6c0-1.2,0.9-2.1,2.1-2.1    s2.1,0.9,2.1,2.1c0,1.2-0.9,2.1-2.1,2.1c0,0,0,0,0,0c-0.4,0-0.9-0.1-1.2-0.4l-0.5,10.6c0,1.1-0.9,2.1-2,2.1c0,0-0.1,0-0.1,0    c-1.1,0-2-0.9-2.1-2l-3.5-7.1c-0.4,0.6-1.1,1-1.8,1c-0.4,0-0.9-0.1-1.2-0.4l-0.5,10.6C408.6,564.3,407.7,565.2,406.6,565.2    L406.6,565.2z M406.6,561.9c-0.6,0-1.1,0.5-1.1,1.1c0,0.6,0.5,1.1,1.1,1.1s1.1-0.5,1.1-1.1l0,0l0,0    C407.7,562.4,407.2,561.9,406.6,561.9z M416.6,558.9c0,0.6,0.5,1.1,1.1,1.1s1.1-0.5,1.1-1.1l0,0c0-0.6-0.5-1.1-1.1-1.1    C417.1,557.8,416.6,558.3,416.6,558.9L416.6,558.9z M409.3,550.7c0,0.6,0.5,1.1,1.1,1.1s1.1-0.5,1.1-1.1v-0.3l0,0    c-0.1-0.5-0.6-0.8-1.1-0.8C409.8,549.6,409.3,550.1,409.3,550.7z M420.5,546.5c0,0.6,0.5,1.1,1.1,1.1s1.1-0.5,1.1-1.1    c0-0.6-0.5-1.1-1.1-1.1c0,0,0,0,0,0C421,545.4,420.5,545.9,420.5,546.5z"></path>	</g></g></svg>