<svg xmlns="http://www.w3.org/2000/svg" viewBox="0 0 53.536 54"><defs><style>.a{fill:#0f2c52;}</style></defs><g transform="translate(-1112.487 -629.238)"><path class="a" d="M1427.976,1446.615a.49.49,0,0,0-.927-.215.509.509,0,0,0-.049.215v1.947a.49.49,0,0,0,.927.216.512.512,0,0,0,.048-.216Zm-.976,49.67a.49.49,0,0,0,.927.216.511.511,0,0,0,.048-.216v-1.946a.49.49,0,0,0-.927-.216.511.511,0,0,0-.048.216Zm0-6.815a.49.49,0,0,0,.927.216.51.51,0,0,0,.048-.216v-1.946a.49.49,0,0,0-.927-.216.511.511,0,0,0-.048.216Zm0-6.815a.49.49,0,0,0,.927.216.511.511,0,0,0,.048-.216v-1.946a.49.49,0,0,0-.927-.216.511.511,0,0,0-.048.216Zm0-6.815a.49.49,0,0,0,.927.216.511.511,0,0,0,.048-.216v-1.946a.49.49,0,0,0-.927-.216.511.511,0,0,0-.048.216Zm0-6.815a.49.49,0,0,0,.927.216.511.511,0,0,0,.048-.216v-1.947a.49.49,0,0,0-.927-.216.511.511,0,0,0-.048.216Zm0-6.815a.49.49,0,0,0,.927.216.51.51,0,0,0,.048-.216v-1.946a.49.49,0,0,0-.927-.216.51.51,0,0,0-.048.216Zm0-6.815a.49.49,0,0,0,.927.216.511.511,0,0,0,.048-.216v-1.946a.49.49,0,0,0-.927-.216.511.511,0,0,0-.048.216Z" transform="translate(-310.227 -816.892)"></path><path class="a" d="M1507.566,1446.615a.49.49,0,0,0-.927-.215.509.509,0,0,0-.049.215v1.947a.49.49,0,0,0,.927.216.51.51,0,0,0,.048-.216Zm-.976,36.034a.49.49,0,0,0,.928.215.509.509,0,0,0,.048-.215V1480.7a.49.49,0,0,0-.927-.216.507.507,0,0,0-.049.216Zm0-6.815a.49.49,0,0,0,.928.216.508.508,0,0,0,.048-.216v-1.947a.49.49,0,0,0-.927-.216.507.507,0,0,0-.049.216Zm0-6.815a.49.49,0,0,0,.928.216.508.508,0,0,0,.048-.216v-1.947a.49.49,0,0,0-.927-.216.507.507,0,0,0-.049.216Zm0-6.815a.49.49,0,0,0,.928.216.509.509,0,0,0,.048-.216v-1.946a.49.49,0,0,0-.927-.216.506.506,0,0,0-.049.216Zm0-6.815a.49.49,0,0,0,.928.215.508.508,0,0,0,.048-.215v-1.947a.49.49,0,0,0-.927-.216.507.507,0,0,0-.049.216Z" transform="translate(-346.902 -816.892)"></path><path class="a" d="M1419.535,1533.67a.49.49,0,0,0-.216.928.508.508,0,0,0,.216.048h1.947a.49.49,0,0,0,.216-.927.505.505,0,0,0-.216-.049Zm35.668.976a.49.49,0,0,0,.216-.927.51.51,0,0,0-.216-.049h-1.58a.49.49,0,0,0-.215.927.505.505,0,0,0,.215.048Zm-6.448,0a.49.49,0,0,0,.215-.927.506.506,0,0,0-.215-.049h-1.947a.49.49,0,0,0-.215.927.505.505,0,0,0,.215.048Zm-6.815,0a.49.49,0,0,0,.216-.927.51.51,0,0,0-.216-.049h-1.947a.49.49,0,0,0-.215.927.506.506,0,0,0,.215.048Zm-6.815,0a.49.49,0,0,0,.216-.927.509.509,0,0,0-.216-.049h-1.946a.49.49,0,0,0-.216.927.506.506,0,0,0,.216.048Zm-6.815,0a.49.49,0,0,0,.216-.927.511.511,0,0,0-.216-.049h-1.947a.49.49,0,0,0-.216.927.508.508,0,0,0,.216.048Z" transform="translate(-306.563 -857.231)"></path><path class="a" d="M1419.535,1454.08a.49.49,0,0,0-.216.927.51.51,0,0,0,.216.048h1.947a.49.49,0,0,0,.216-.928.507.507,0,0,0-.216-.048Zm49.67.976a.49.49,0,0,0,.216-.928.51.51,0,0,0-.216-.048h-1.947a.49.49,0,0,0-.216.927.509.509,0,0,0,.216.048Zm-6.815,0a.49.49,0,0,0,.216-.928.509.509,0,0,0-.216-.048h-1.947a.49.49,0,0,0-.216.927.508.508,0,0,0,.216.048Zm-6.815,0a.49.49,0,0,0,.216-.928.508.508,0,0,0-.216-.048h-1.947a.49.49,0,0,0-.216.927.51.51,0,0,0,.216.048Zm-6.815,0a.49.49,0,0,0,.215-.928.508.508,0,0,0-.215-.048h-1.947a.49.49,0,0,0-.215.927.508.508,0,0,0,.215.048Zm-6.815,0a.49.49,0,0,0,.215-.928.508.508,0,0,0-.215-.048H1440a.49.49,0,0,0-.215.927.508.508,0,0,0,.215.048Zm-6.815,0a.49.49,0,0,0,.215-.928.506.506,0,0,0-.215-.048h-1.947a.49.49,0,0,0-.215.927.507.507,0,0,0,.215.048Zm-6.816,0a.49.49,0,0,0,.216-.928.508.508,0,0,0-.216-.048h-1.947a.49.49,0,0,0-.216.927.508.508,0,0,0,.216.048Z" transform="translate(-306.563 -820.555)"></path><path class="a" d="M1493.468,1512.236a9.154,9.154,0,0,1,6.487,2.69l.011.011a9.17,9.17,0,0,1-.011,12.967l-.032.027a9.179,9.179,0,0,1-12.952-13.011l.011-.011a9.151,9.151,0,0,1,6.476-2.68Zm5.807,3.375a8.207,8.207,0,1,0-.022,11.635l.022-.021a8.214,8.214,0,0,0,0-11.614Z" transform="translate(-336.622 -847.352)"></path><path class="a" d="M1500.42,1519.165a.485.485,0,1,1,.971,0v10.455a.485.485,0,0,1-.971,0Z" transform="translate(-344.059 -850.323)"></path><path class="a" d="M1491.215,1529.341a.485.485,0,0,1,0-.971h10.46a.485.485,0,1,1,0,.971Z" transform="translate(-339.594 -854.789)"></path><ellipse class="a" cx="2.507" cy="2.507" rx="2.507" ry="2.507" transform="translate(1119.944 660.835)"></ellipse><ellipse class="a" cx="2.507" cy="2.507" rx="2.507" ry="2.507" transform="translate(1127.643 652.817)"></ellipse><ellipse class="a" cx="2.507" cy="2.507" rx="2.507" ry="2.507" transform="translate(1144.261 651.232)"></ellipse><ellipse class="a" cx="2.507" cy="2.507" rx="2.507" ry="2.507" transform="translate(1152.171 643.101)"></ellipse><path class="a" d="M1437.467,1494.149a.484.484,0,1,1-.7-.668l7.7-8.023a.487.487,0,0,1,.636-.054l8.573,6.292c5.09-5.376,10.158-10.649,15.324-15.949a.484.484,0,0,1,.7.674c-5.263,5.408-10.422,10.779-15.6,16.257a.486.486,0,0,1-.642.054l-8.578-6.3-7.4,7.715Z" transform="translate(-314.665 -830.472)"></path><ellipse class="a" cx="2.507" cy="2.507" rx="2.507" ry="2.507" transform="translate(1136.561 659.363)"></ellipse></g></svg>