<svg xmlns="http://www.w3.org/2000/svg" viewBox="0 0 75 122"><g id="Group_6304" data-name="Group 6304" transform="translate(-945 -549)"><g id="Group_6289" data-name="Group 6289" transform="translate(945 549)"><path id="Path_2204" data-name="Path 2204" d="M142.5,35a37.542,37.542,0,1,0,26.5,11,37.5,37.5,0,0,0-26.5-11Zm0,72.322a34.862,34.862,0,1,1,24.612-10.211A34.825,34.825,0,0,1,142.5,107.32Z" transform="translate(-105.002 -34.998)" fill="#143051"></path><path id="Path_2205" data-name="Path 2205" d="M172.092,70a32.127,32.127,0,1,0,22.68,9.41A32.088,32.088,0,0,0,172.092,70Zm0,61.506a29.451,29.451,0,1,1,20.791-8.627,29.415,29.415,0,0,1-20.791,8.627Z" transform="translate(-134.592 -64.589)" fill="#143051"></path><path id="Path_2206" data-name="Path 2206" d="M251.471,172.977a1.347,1.347,0,0,0-1.877,0l-14.007,14.272-5.928-6.04h0a1.347,1.347,0,0,0-1.877,0l-7.508,7.652h0a1.372,1.372,0,0,0,0,1.913l14.375,14.645a1.309,1.309,0,0,0,1.877,0l22.455-22.881a1.371,1.371,0,0,0,0-1.912Zm-15.884,29.575-12.5-12.733,5.631-5.739,5.927,6.039a1.348,1.348,0,0,0,1.877,0l14.007-14.272,5.631,5.738Z" transform="translate(-202.127 -151.698)" fill="#143051"></path></g><g id="_03" data-name="03" transform="translate(969.711 645)"><circle id="Ellipse_84" data-name="Ellipse 84" cx="13" cy="13" r="13" transform="translate(0.289)" fill="#f2672b"></circle><path id="Path_1746" data-name="Path 1746" d="M26.7,26.4c-.061,3,1.927,4.742,4.834,4.742a5.646,5.646,0,0,0,3.029-.857s1.5-.918,1.53-.918a3.989,3.989,0,0,0,1.836-3.427A2.905,2.905,0,0,0,35.692,23l.52-.306a2.748,2.748,0,0,0,1.224-2.386c0-2.325-2.295-3.61-4.375-3.61a4.739,4.739,0,0,0-2.57.734h0l-1.53.887a4.568,4.568,0,0,0-1.927,3.794h2.509l1.53-.918a2.6,2.6,0,0,1,.337-1.407h.153A1.727,1.727,0,0,1,33.4,21.534a1.458,1.458,0,0,1-.153.673,4.467,4.467,0,0,1-1.1.031l-1.53.918v1.866c1.285,0,3-.031,3,1.927a2.113,2.113,0,0,1-.306,1.1c-.092,0-.184.031-.275.031-1.53,0-2.233-1.163-2.295-2.57H28.227C28.227,25.481,26.7,26.4,26.7,26.4Z" transform="translate(-18.528 -11.591)" opacity="0.15"></path><g id="Group_3103" data-name="Group 3103" transform="translate(8.167 5.997)"><g id="Group_3102" data-name="Group 3102"><path id="Path_1747" data-name="Path 1747" d="M30.613,25.138c1.132.092,2.784-.122,2.784-1.622a1.744,1.744,0,0,0-1.836-1.744c-1.316,0-2.019.979-2.019,2.325H27.033a4.339,4.339,0,0,1,4.5-4.5c2.08,0,4.375,1.285,4.375,3.61a2.589,2.589,0,0,1-1.836,2.662V25.9a2.884,2.884,0,0,1,2.295,2.968c0,2.723-2.295,4.283-4.834,4.283-2.906,0-4.9-1.744-4.834-4.742h2.509c.061,1.407.765,2.57,2.295,2.57a2.009,2.009,0,0,0,2.111-2.05c0-1.958-1.744-1.927-3-1.927Z" transform="translate(-26.696 -19.6)" fill="#fff"></path></g></g></g></g></svg>