<svg xmlns="http://www.w3.org/2000/svg" viewBox="0 0 54 46"><defs><style>.a{fill:#0f2c52;}</style></defs><g transform="translate(-728.378 -155.848)"><path class="a" d="M211.97,57.283,207.3,48.055a1.268,1.268,0,0,0-.616-.615L196.65,43.25l-.967.966,10.472,4.423.074.148-12.32,4.786L188.98,50.86l-.616.615,5.1,2.811V64.794l-10.9-7.505-.912.911,11.359,7.813a1.27,1.27,0,0,0,1.232.123l17.088-7.118a1.267,1.267,0,0,0,.616-1.741ZM194.352,64.72V54.342l12.283-4.78,4.183,8.3Z" transform="translate(570.291 135.608)"></path><path class="a" d="M173.054,36.739l.616-.615,6.591-6.583.967-.966,7.041-7.032a1.266,1.266,0,0,0,0-1.79L174.717,6.218a1.27,1.27,0,0,0-1.793,0L143.769,35.354a1.266,1.266,0,0,0,0,1.79l13.552,13.534a1.27,1.27,0,0,0,1.793,0l7.3-7.29.912-.91Zm-6.813,5.014-.912.911-6.7,6.693V45.105l4.183-4.177.912-.91,5.439-5.432.616-.615,6.234-6.226.967-.966,5.71-5.7h4.257l-6.955,6.952-.967.966-6.487,6.478-.616.615ZM186.963,20.22h-4.257l-8.439-8.428V7.517Zm-18.6,13.965-5.372,5.365-.912.91-3.893,3.888-8.076-8.1,23.722-23.691,8.082,8.071-5.784,5.777-.949.96-6.16,6.152Zm5.47-27.069Zm-.431,3.224V11.8L149.313,35.822h-4.257l28.336-28.3ZM144.638,36.277Zm3.228.431h1.448l8.439,8.428v4.251L145.069,36.7Z" transform="translate(584.979 150)"></path></g></svg>