<svg xmlns="http://www.w3.org/2000/svg" viewBox="0 0 50.021 54"><defs><style>.a{fill:#0f2c52;}</style></defs><path class="a" d="M2401.773,2475.5a.732.732,0,0,1-1.465,0,2.49,2.49,0,0,0-.732-1.774,2.67,2.67,0,0,0-1.641-.794l-.185-.009a2.572,2.572,0,0,0-.644.08,2.278,2.278,0,0,0-1.324,1.1l-.026.044a2.157,2.157,0,0,0-.256.679,1.887,1.887,0,0,0,.309,1.359,3.577,3.577,0,0,0,1.165,1.076,3.159,3.159,0,0,0,.927.379,4.205,4.205,0,0,1,1.65.556,4.929,4.929,0,0,1,1.588,1.438,3.424,3.424,0,0,1,.618,2.223,3.831,3.831,0,0,1-2.674,3.265l-.459.1v.812a.732.732,0,0,1-1.465,0v-.874l-.2-.053a4.132,4.132,0,0,1-1.818-1.1,4.017,4.017,0,0,1-1.138-2.815.732.732,0,0,1,1.465,0,2.532,2.532,0,0,0,.723,1.8,2.778,2.778,0,0,0,1.183.715,2.349,2.349,0,0,0,1.306.017,2.234,2.234,0,0,0,1.315-1.068,2.3,2.3,0,0,0,.3-.9,2.031,2.031,0,0,0-.362-1.279,3.371,3.371,0,0,0-1.1-.988,2.757,2.757,0,0,0-1.067-.371l-.15-.027a4.9,4.9,0,0,1-1.385-.547,5.009,5.009,0,0,1-1.65-1.544,3.279,3.279,0,0,1-.512-2.409,3.914,3.914,0,0,1,.424-1.156l.026-.044a3.673,3.673,0,0,1,2.188-1.782l.45-.1v-.776a.732.732,0,0,1,1.465,0v.847l.185.053a4.272,4.272,0,0,1,1.809,1.076,3.927,3.927,0,0,1,1.165,2.806Z" transform="translate(-2372.867 -2448.206)"></path><path class="a" d="M18.15,1075.518a53.382,53.382,0,0,0-9.591,8.974,39.979,39.979,0,0,0-6.362,10.35,23.721,23.721,0,0,0-1.526,5.471,15.611,15.611,0,0,0,.026,4.844,11.2,11.2,0,0,0,1.721,4.333,12.643,12.643,0,0,0,3.468,3.406,22.064,22.064,0,0,0,7.4,3.018,47.419,47.419,0,0,0,10.412,1.094h.626a47.608,47.608,0,0,0,10.368-1.1,22.353,22.353,0,0,0,7.376-3.009,12.5,12.5,0,0,0,3.468-3.4,11.2,11.2,0,0,0,1.721-4.332,15.093,15.093,0,0,0,.026-4.844,23.721,23.721,0,0,0-1.526-5.471A40.221,40.221,0,0,0,39.4,1084.5a53.083,53.083,0,0,0-9.591-8.974H18.133Zm-10.756,8.012a54.611,54.611,0,0,1,10.076-9.38,1,1,0,0,1,.512-.15H29.718a1.863,1.863,0,0,1,.785.15,54.611,54.611,0,0,1,10.076,9.38,41.593,41.593,0,0,1,6.6,10.756,25.324,25.324,0,0,1,1.624,5.824,16.778,16.778,0,0,1-.035,5.321,12.644,12.644,0,0,1-1.968,4.915,14.033,14.033,0,0,1-3.882,3.812,23.6,23.6,0,0,1-7.871,3.229,49.352,49.352,0,0,1-10.7,1.138H23.7a49.777,49.777,0,0,1-10.747-1.129,23.757,23.757,0,0,1-7.9-3.238,14.033,14.033,0,0,1-3.882-3.812,12.921,12.921,0,0,1-1.968-4.915,16.778,16.778,0,0,1-.035-5.321,25.324,25.324,0,0,1,1.624-5.824,41.553,41.553,0,0,1,6.6-10.747Z" transform="translate(1.023 -1064.524)"></path><path class="a" d="M1474.144,1913.185c-8.144-7.924-12.441-12.732-11.647-24.874a16.772,16.772,0,0,0,12-5.312c2.982,2.991,7.218,5.312,11.532,5.312h.476l.027.476c.794,12.159-4.2,17.091-12.035,24.759l-.353-.353Zm.353-1.068c7.218-6.962,11.612-11.885,11.056-22.8a18.185,18.185,0,0,1-11.056-4.9,18.163,18.163,0,0,1-11.056,4.9C1462.885,1900.232,1467.279,1905.156,1474.5,1912.118Z" transform="translate(-1449.491 -1866.385)"></path><path class="a" d="M1924.3,5.029h10.818a21.233,21.233,0,0,0,.944-3.521l-12.679.009a17.827,17.827,0,0,0,.918,3.521Zm11.277,1.518h-11.727a.739.739,0,0,1-.644-.362,24.17,24.17,0,0,1-1.535-5.312.753.753,0,0,1,.75-.874h14.709a.75.75,0,0,1,.635.856,24.023,24.023,0,0,1-1.518,5.268.754.754,0,0,1-.679.415Z" transform="translate(-1904.7)"></path></svg>