<?xml version="1.0" encoding="UTF-8"?>
<!-- Generator: Adobe Illustrator 17.1.0, SVG Export Plug-In . SVG Version: 6.00 Build 0)  -->
<svg xmlns="http://www.w3.org/2000/svg" xmlns:xlink="http://www.w3.org/1999/xlink" version="1.1" id="Layer_1" x="0px" y="0px" viewBox="0 0 85 85" xml:space="preserve">
<circle fill="#F2672B" cx="42.5" cy="42.5" r="42.5"></circle>
<path opacity="0.15" d="M55.6,59.2c4.7-2.6,7.5-7.8,7.5-13.8c0-3.4-1-6.9-3.3-9.5c-2.4-2.7-6.2-4.4-9.8-4.4c-2.6,0-4.8,0.6-6.6,1.8  c0,0-3,1.8-3,1.8c0,0,0,0,0,0c0.2-2.8,1-6.4,2.7-8.9c0.1,0,0.3,0,0.4,0c3,0,5.2,2.4,5.7,5.3h8.2c0,0,5-3,5-3  c-1-7.5-6.5-11.8-13.8-11.8c-3,0-5.6,0.8-7.8,2c-1.7,1-3.3,2-5,3c-6.4,3.8-9.1,12.5-9.1,20.3c0,10.8,3.5,22.1,16.4,22.1  c2.8,0,5.3-0.7,7.5-1.9C50.7,62.2,55.6,59.2,55.6,59.2z M43,41.1c4.5,0,6.5,4,6.5,8.1c0,1.7-0.5,3.4-1.3,4.8c-0.1,0-0.1,0-0.2,0  c-4.3,0-6.9-4-6.9-7.9c0-1.8,0.4-3.5,1.3-4.9C42.6,41.1,42.8,41.1,43,41.1z"></path>
<g>
	<path fill="#FFFFFF" d="M49.2,31.5c-0.5-2.9-2.7-5.3-5.7-5.3c-6.3,0-7.9,8.2-8.2,13l0.1,0.1c2.4-3.4,5.5-4.8,9.6-4.8   c3.7,0,7.4,1.7,9.8,4.4c2.3,2.6,3.3,6.2,3.3,9.5c0,8.7-6,15.6-14.9,15.6c-12.9,0-16.4-11.3-16.4-22.1c0-10.4,4.6-22.3,16.8-22.3   c7.4,0,12.9,4.3,13.8,11.8H49.2z M36.1,49c0,4,2.6,7.9,6.9,7.9c4.1,0,6.5-4,6.5-7.8c0-4-2.1-8.1-6.5-8.1   C38.4,41.1,36.1,44.8,36.1,49z"></path>
</g>
</svg>
