<svg xmlns="http://www.w3.org/2000/svg" xmlns:xlink="http://www.w3.org/1999/xlink" viewBox="0 0 85 85"><defs><clipPath id="clip-path"><rect width="85" height="85" fill="none"></rect></clipPath></defs><g id="_03" data-name="03" clip-path="url(#clip-path)"><circle id="Ellipse_79" data-name="Ellipse 79" cx="42.5" cy="42.5" r="42.5" fill="#f2672b"></circle><path id="Path_1744" data-name="Path 1744" d="M26.7,48.4c-.2,9.8,6.3,15.5,15.8,15.5a18.454,18.454,0,0,0,9.9-2.8s4.9-3,5-3a13.039,13.039,0,0,0,6-11.2,9.5,9.5,0,0,0-7.3-9.6l1.7-1a8.983,8.983,0,0,0,4-7.8c0-7.6-7.5-11.8-14.3-11.8a15.49,15.49,0,0,0-8.4,2.4h0l-5,2.9c-3.8,2.5-6.1,6.9-6.3,12.4H36l5-3a8.487,8.487,0,0,1,1.1-4.6h.5c3.2,0,6,2.1,6,5.7a4.767,4.767,0,0,1-.5,2.2,14.6,14.6,0,0,1-3.6.1l-5,3v6.1c4.2,0,9.8-.1,9.8,6.3a6.907,6.907,0,0,1-1,3.6c-.3,0-.6.1-.9.1-5,0-7.3-3.8-7.5-8.4H31.7C31.7,45.4,26.7,48.4,26.7,48.4Z" opacity="0.15"></path><g id="Group_3094" data-name="Group 3094"><g id="Group_3093" data-name="Group 3093"><path id="Path_1745" data-name="Path 1745" d="M39.5,37.7c3.7.3,9.1-.4,9.1-5.3a5.7,5.7,0,0,0-6-5.7c-4.3,0-6.6,3.2-6.6,7.6H27.8c.3-8.7,6-14.7,14.7-14.7,6.8,0,14.3,4.2,14.3,11.8,0,4-2,7.6-6,8.7v.1c4.7,1,7.5,4.9,7.5,9.7,0,8.9-7.5,14-15.8,14-9.5,0-16-5.7-15.8-15.5h8.2c.2,4.6,2.5,8.4,7.5,8.4a6.567,6.567,0,0,0,6.9-6.7c0-6.4-5.7-6.3-9.8-6.3V37.7Z" fill="#fff"></path></g></g></g></svg>