<svg xmlns="http://www.w3.org/2000/svg" xmlns:xlink="http://www.w3.org/1999/xlink" viewBox="0 0 56 56"><defs><clipPath id="clip-path"><rect width="56" height="56" fill="none"></rect></clipPath></defs><g id="icon_settings" clip-path="url(#clip-path)"><rect id="icon_mask" width="56" height="56" fill="none"></rect><g id="icon" transform="translate(-7 -1022)"><g id="Group_2455" data-name="Group 2455"><path id="Path_1687" data-name="Path 1687" d="M37,1073.4H25.7a.5.5,0,0,1,0-1H37a.472.472,0,0,1,.5.5A.536.536,0,0,1,37,1073.4Z" fill="#fff"></path></g><g id="Group_2456" data-name="Group 2456"><path id="Path_1688" data-name="Path 1688" d="M22.6,1077.1a.52.52,0,0,1-.4-.2.446.446,0,0,1,0-.5l1.8-3.7a.536.536,0,0,1,.4-.3h1.2l1-3.7a.665.665,0,0,1,.5-.4h8.7a.664.664,0,0,1,.5.4l1,3.7h1.3c.2,0,.4.1.4.3l1.9,3.7a.454.454,0,0,1,0,.5.758.758,0,0,1-.4.2Zm2.1-3.7-1.3,2.7H39.7l-1.4-2.7H37a.664.664,0,0,1-.5-.4l-1-3.6h-8l-1,3.6a.665.665,0,0,1-.5.4Z" fill="#fff"></path></g><g id="Group_2457" data-name="Group 2457"><path id="Path_1689" data-name="Path 1689" d="M53.9,1069.6H9.1a1.367,1.367,0,0,1-1.4-1.4v-36.8c0-1.3.9-1.4,1.2-1.4H37.7a.789.789,0,0,1,.8.8.736.736,0,0,1-.8.8H9.3v36.6H53.8v-20.3a.789.789,0,0,1,.8-.8.736.736,0,0,1,.8.8v20.4A1.514,1.514,0,0,1,53.9,1069.6Z" fill="#fff"></path></g><g id="Group_2458" data-name="Group 2458"><path id="Path_1690" data-name="Path 1690" d="M52.1,1062.9H10.8v-29.8H34.7v6.3c0,.1,0,.1.1.1h3.4l1,2.5-2.4,2.4h0v.1l3.7,3.7.5.4-.4-.4,2.4-2.4,2.5,1v3.4c0,.1,0,.1.1.1H51c.1,0,.1,0,.1-.1h1Zm-40.3-1H51.1v-10.6H45.7a1.11,1.11,0,0,1-1.1-1.1v-2.7l-1.3-.5-1.9,1.9a1.215,1.215,0,0,1-1.6,0l-3.7-3.7a1.217,1.217,0,0,1,0-1.6l1.9-1.9-.5-1.3H34.8a1.11,1.11,0,0,1-1.1-1.1V1034H11.8Z" fill="#fff"></path></g><g id="Group_2459" data-name="Group 2459"><path id="Path_1691" data-name="Path 1691" d="M23,1057.8h-.1a.9.9,0,0,1-.6-.6l-2.1-8.3-.7,2.5a.858.858,0,0,1-.7.6H11.7a.789.789,0,0,1-.8-.8.736.736,0,0,1,.8-.8h6.5l1.3-4.7a.858.858,0,0,1,.7-.6h0a.73.73,0,0,1,.7.6l2.4,9.4,10.5-15.5a.721.721,0,0,1,1.2.8l-11.5,16.9A.467.467,0,0,1,23,1057.8Z" fill="#fff"></path></g><g id="Group_2460" data-name="Group 2460"><path id="Path_1692" data-name="Path 1692" d="M51,1051.4H45.7a1.11,1.11,0,0,1-1.1-1.1v-2.7l-1.3-.5-1.9,1.9a1.215,1.215,0,0,1-1.6,0l-3.7-3.7a1.217,1.217,0,0,1,0-1.6l1.9-1.9-.5-1.3H34.8a1.11,1.11,0,0,1-1.1-1.1v-5.3a1.11,1.11,0,0,1,1.1-1.1h2.7l.5-1.3-1.9-1.9a1.215,1.215,0,0,1,0-1.6l3.7-3.7a1.215,1.215,0,0,1,1.6,0l1.9,1.9,1.3-.5v-2.7a1.11,1.11,0,0,1,1.1-1.1H51a1.11,1.11,0,0,1,1.1,1.1v2.7l1.3.5,1.9-1.9a1.215,1.215,0,0,1,1.6,0l3.7,3.7a1.217,1.217,0,0,1,0,1.6l-1.9,1.9.5,1.3h2.7a1.11,1.11,0,0,1,1.1,1.1v5.3a1.11,1.11,0,0,1-1.1,1.1H59.2l-.5,1.3,1.9,1.9a1.217,1.217,0,0,1,0,1.6l-3.7,3.7a1.215,1.215,0,0,1-1.6,0l-1.9-1.9-1.3.5v2.7A1.11,1.11,0,0,1,51,1051.4Zm-7.9-5.5,2.5,1v3.4c0,.1,0,.1.1.1H51c.1,0,.1,0,.1-.1v-3.4l2.5-1,2.4,2.4.5.4-.4-.4,3.7-3.7v-.1l-2.4-2.4,1-2.5h3.4c.1,0,.1,0,.1-.1v-5.3c0-.1,0-.1-.1-.1H58.4l-1-2.5,2.4-2.4v-.1l-3.7-3.7-.5-.4.4.4-2.4,2.4-2.5-1v-3.4c0-.1,0-.1-.1-.1H45.7c-.1,0-.1,0-.1.1v3.4l-2.5,1-2.4-2.4-.5-.4.4.4-3.7,3.7v.1l2.4,2.4-1,2.5H34.9c-.1,0-.1,0-.1.1v5.3c0,.1,0,.1.1.1h3.4l1,2.5-2.4,2.4v.1l3.7,3.7.5.4-.4-.4Z" fill="#fff"></path></g><g id="Group_2461" data-name="Group 2461"><path id="Path_1693" data-name="Path 1693" d="M48.4,1041.6a4.8,4.8,0,1,1,4.8-4.8A4.867,4.867,0,0,1,48.4,1041.6Zm0-8.7a3.8,3.8,0,1,0,3.8,3.8A3.8,3.8,0,0,0,48.4,1032.9Z" fill="#fff"></path></g></g></g></svg>