<?xml version="1.0" encoding="UTF-8"?>
<!-- Generator: Adobe Illustrator 17.1.0, SVG Export Plug-In . SVG Version: 6.00 Build 0)  -->
<svg xmlns="http://www.w3.org/2000/svg" xmlns:xlink="http://www.w3.org/1999/xlink" version="1.1" id="Layer_1" x="0px" y="0px" viewBox="0 0 85 85" xml:space="preserve">
<circle fill="#F2672B" cx="42.5" cy="42.5" r="42.5"></circle>
<path opacity="0.15" d="M51.6,60.3c-2.6,1.8-5.8,2.8-9.1,2.7c-8.3,0-15.7-4.6-15.8-13.5l5-3c0,0,0,0,0,0h8.6c0.4,3.8,3.2,6.4,7,6.4  c0.3,0,0.5,0,0.8,0c1-1.4,1.6-3.3,1.6-5.2c0-4.4-2.7-8-7.4-8c-0.4,0-0.9,0-1.2,0.1c-0.1,0.1-0.2,0.2-0.3,0.3h0l-5,3l-7.8,0l4.2-23.5  l5-3H61v7.1l-5,3l-13.1,0l-1.1,6.4c0,0,0,0,0,0c0,0,0,0,0,0c0,0,0,0,0,0c0,0,0,0,0,0c0,0,0,0,0,0c0,0,0,0,0,0c0,0,0,0,0,0  c0,0,0,0,0,0c0,0,0,0,0,0c0,0,0,0,0,0c0,0,0,0,0,0c0,0,0,0,0,0c0,0,0,0,0,0c0,0,0,0,0,0c0,0,0,0,0,0c0,0,0,0,0,0c0,0,0,0,0,0  c0,0,0,0,0,0c0,0,0,0,0,0c0,0,0,0,0,0c0,0,0,0,0,0c0,0,0,0,0,0c0,0,0,0,0,0c0,0,0,0,0,0c0,0,0,0,0,0c0,0,0,0,0,0c0,0,0,0,0,0  c0,0,0,0,0,0c0,0,0,0,0,0c0,0,0,0,0,0c0,0,0,0,0,0c0,0,0,0,0,0c0,0,0,0,0,0c0,0,0,0,0.1,0c0,0,0,0,0,0c0,0,0,0,0,0c0,0,0,0,0,0  c0,0,0,0,0,0c1.9-1.3,4-1.8,6.5-1.8c8.4,0,13.1,6.5,13.1,14.5c0,6-3.4,11.1-8.4,13.6c0,0,0,0,0,0C54.9,58.4,51.6,60.3,51.6,60.3z"></path>
<g>
	<path fill="#FFFFFF" d="M56,26.8H38.4l-1.7,9.7l0.1,0.1c2.3-2.4,5-3.3,8.3-3.3c8.4,0,13.1,6.5,13.1,14.5c0,8.8-7.2,15.5-15.8,15.3   c-8.3,0-15.7-4.6-15.8-13.5h8.6c0.4,3.8,3.2,6.4,7,6.4c4.5,0,7.4-4,7.4-8.2c0-4.4-2.7-8-7.4-8c-3.1,0-4.8,1.1-6.5,3.4H28l4.2-23.5   H56V26.8z"></path>
</g>
</svg>
