<svg xmlns="http://www.w3.org/2000/svg" viewBox="0 0 51.6 55.4"><defs><style>.a{fill:#0f2c52;}</style></defs><g transform="translate(-517.1 -700.1)"><g transform="translate(-1)"><path class="a" d="M566.8,751.7H521a2.9,2.9,0,0,1-2.9-2.9V703a2.9,2.9,0,0,1,2.9-2.9h45.8a2.9,2.9,0,0,1,2.9,2.9v45.8A2.9,2.9,0,0,1,566.8,751.7ZM521,701.5a1.367,1.367,0,0,0-1.4,1.4v45.8a1.367,1.367,0,0,0,1.4,1.4h45.8a1.367,1.367,0,0,0,1.4-1.4V703a1.367,1.367,0,0,0-1.4-1.4H521Z"></path></g><path class="a" d="M562.5,745H525.2a.472.472,0,0,1-.5-.5v-4.3a.472.472,0,0,1,.5-.5h2.2a.645.645,0,0,0,.6-.6v-5.9a.645.645,0,0,0-.6-.6h-2.2a.472.472,0,0,1-.5-.5V719.5a.472.472,0,0,1,.5-.5h2.2a.645.645,0,0,0,.6-.6v-5.9a.645.645,0,0,0-.6-.6h-2.2a.472.472,0,0,1-.5-.5v-4.3a.472.472,0,0,1,.5-.5h37.3a.472.472,0,0,1,.5.5v37.3C563,744.8,562.8,745,562.5,745Zm-36.8-1H562V707.7H525.7V711h1.7a1.579,1.579,0,0,1,1.6,1.6v5.9a1.579,1.579,0,0,1-1.6,1.6h-1.7v11.6h1.7a1.579,1.579,0,0,1,1.6,1.6v5.9a1.579,1.579,0,0,1-1.6,1.6h-1.7Z"></path><path class="a" d="M527.4,740.7h-3.1a1.579,1.579,0,0,1-1.6-1.6v-5.9a1.579,1.579,0,0,1,1.6-1.6h3.1a1.579,1.579,0,0,1,1.6,1.6v5.9A1.58,1.58,0,0,1,527.4,740.7Zm-3.2-8.1a.645.645,0,0,0-.6.6v5.9a.645.645,0,0,0,.6.6h3.1a.645.645,0,0,0,.6-.6v-5.9a.645.645,0,0,0-.6-.6Zm3.2-12.5h-3.1a1.579,1.579,0,0,1-1.6-1.6v-5.9a1.579,1.579,0,0,1,1.6-1.6h3.1a1.579,1.579,0,0,1,1.6,1.6v5.9A1.579,1.579,0,0,1,527.4,720.1Zm-3.2-8.1a.645.645,0,0,0-.6.6v5.9a.645.645,0,0,0,.6.6h3.1a.645.645,0,0,0,.6-.6v-5.9a.645.645,0,0,0-.6-.6Z"></path><path class="a" d="M543.9,733.6a7.7,7.7,0,1,1,7.7-7.7A7.7,7.7,0,0,1,543.9,733.6Zm0-3.1a.472.472,0,0,1,.5.5v1.6a6.667,6.667,0,0,0,6.2-6.2H549a.5.5,0,0,1,0-1h1.6a6.667,6.667,0,0,0-6.2-6.2v1.6a.5.5,0,0,1-1,0v-1.6a6.667,6.667,0,0,0-6.2,6.2h1.6a.5.5,0,0,1,0,1h-1.6a6.667,6.667,0,0,0,6.2,6.2V731A.472.472,0,0,1,543.9,730.5Zm13.1.5a.472.472,0,0,1-.5-.5V725a2.14,2.14,0,0,1-1.7-2.1,2.2,2.2,0,0,1,4.4,0,2.14,2.14,0,0,1-1.7,2.1v5.5A.472.472,0,0,1,557,731Zm0-9.3a1.216,1.216,0,0,0-1.2,1.2,1.2,1.2,0,1,0,1.2-1.2Zm-13.1,8.2a4.118,4.118,0,0,1-4.1-4.1,4.055,4.055,0,0,1,4.1-4.1,4.1,4.1,0,0,1,0,8.2Zm0-7.1a3.1,3.1,0,1,0,3.1,3.1A3.116,3.116,0,0,0,543.9,722.8Z"></path><path class="a" d="M564.6,755.5h-7.2a1.792,1.792,0,0,1-1.8-1.8V751a.789.789,0,0,1,.8-.8h9.4a.789.789,0,0,1,.8.8v2.7A2.127,2.127,0,0,1,564.6,755.5Zm-7.5-3.8v2a.319.319,0,0,0,.3.3h7.2a.319.319,0,0,0,.3-.3v-2Zm-26.8,3.8h-7.2a1.792,1.792,0,0,1-1.8-1.8V751a.789.789,0,0,1,.8-.8h9.4a.789.789,0,0,1,.8.8v2.7A2.046,2.046,0,0,1,530.3,755.5Zm-7.5-3.8v2a.319.319,0,0,0,.3.3h7.2a.319.319,0,0,0,.3-.3v-2Z"></path></g></svg>