<svg xmlns="http://www.w3.org/2000/svg" viewBox="0 0 56 56"><g id="Group_5702" data-name="Group 5702" transform="translate(-1036 -1460)"><rect id="icon_mask" width="56" height="56" transform="translate(1036 1460)" fill="none"></rect><g id="Group_5701" data-name="Group 5701" transform="translate(33 65)"><rect id="Rectangle_20304" data-name="Rectangle 20304" width="1" height="8" rx="0.5" transform="translate(1015 1401)" fill="#4c4c4c"></rect><rect id="Rectangle_20308" data-name="Rectangle 20308" width="1" height="8" rx="0.5" transform="translate(1047 1395)" fill="#4c4c4c"></rect><rect id="Rectangle_20306" data-name="Rectangle 20306" width="1" height="8" rx="0.5" transform="translate(1015 1443)" fill="#4c4c4c"></rect><rect id="Rectangle_20309" data-name="Rectangle 20309" width="1" height="8" rx="0.5" transform="translate(1047 1437)" fill="#4c4c4c"></rect><g id="Group_5700" data-name="Group 5700" transform="translate(-322 837)"><g id="Group_5696" data-name="Group 5696"><rect id="Rectangle_20296" data-name="Rectangle 20296" width="2" height="2" rx="1" transform="translate(1345 572)" fill="#ff8055"></rect><rect id="Rectangle_20297" data-name="Rectangle 20297" width="2" height="2" rx="1" transform="translate(1350 571)" fill="#ff8055"></rect><rect id="Rectangle_20298" data-name="Rectangle 20298" width="2" height="2" rx="1" transform="translate(1355 570)" fill="#ff8055"></rect><rect id="Rectangle_20299" data-name="Rectangle 20299" width="2" height="2" rx="1" transform="translate(1360 569)" fill="#ff8055"></rect></g><g id="Group_5697" data-name="Group 5697" transform="translate(0 29)"><rect id="Rectangle_20296-2" data-name="Rectangle 20296" width="2" height="2" rx="1" transform="translate(1345 572)" fill="#ff8055"></rect><rect id="Rectangle_20297-2" data-name="Rectangle 20297" width="2" height="2" rx="1" transform="translate(1350 571)" fill="#ff8055"></rect><rect id="Rectangle_20298-2" data-name="Rectangle 20298" width="2" height="2" rx="1" transform="translate(1355 570)" fill="#ff8055"></rect><rect id="Rectangle_20299-2" data-name="Rectangle 20299" width="2" height="2" rx="1" transform="translate(1360 569)" fill="#ff8055"></rect></g></g><rect id="Rectangle_20305" data-name="Rectangle 20305" width="9" height="32" rx="3" transform="translate(1011 1410)" fill="#4c4c4c"></rect><rect id="Rectangle_20307" data-name="Rectangle 20307" width="9" height="32" rx="3" transform="translate(1043 1404)" fill="#4c4c4c"></rect></g></g></svg>