<svg xmlns="http://www.w3.org/2000/svg" xmlns:xlink="http://www.w3.org/1999/xlink" viewBox="0 0 85 85"><defs><clipPath id="clip-path"><rect width="85" height="85" fill="none"></rect></clipPath></defs><g id="_02" data-name="02" clip-path="url(#clip-path)"><circle id="Ellipse_78" data-name="Ellipse 78" cx="42.5" cy="42.5" r="42.5" fill="#f2672b"></circle><path id="Path_1741" data-name="Path 1741" d="M63.1,60.1V52.7H43c3.1-4.4,8.1-6.8,12.3-9.8s7.6-6.5,7.6-12.9c0-8.3-6.8-13.3-14.6-13.3a15.144,15.144,0,0,0-8.2,2.1s-4.9,3-5,3c-4.9,2.9-7.5,8.5-7.3,15.2h8.3l5-3a13.147,13.147,0,0,1,1.6-6.8h.2a6.2,6.2,0,0,1,6.4,6.6c-.1,5.2-5.2,7.8-8.9,10.4C33,49.2,27,53.4,27,63.2H58.2Z" opacity="0.15"></path><g id="Group_3092" data-name="Group 3092"><path id="Path_1742" data-name="Path 1742" d="M32.4,40.1"></path><g id="Group_3091" data-name="Group 3091"><path id="Path_1743" data-name="Path 1743" d="M27.8,36.9c-.3-9.7,5.2-17.2,15.4-17.2,7.8,0,14.6,5,14.6,13.3,0,6.4-3.4,9.9-7.6,12.9S41,51.3,37.9,55.7H58v7.4H26.9c.1-9.8,6.1-14,13.4-19,3.8-2.6,8.9-5.2,8.9-10.4a6.2,6.2,0,0,0-6.4-6.6c-5.1,0-6.7,5.3-6.7,9.8H27.8Z" fill="#fff"></path></g></g></g></svg>