<svg xmlns="http://www.w3.org/2000/svg" xmlns:xlink="http://www.w3.org/1999/xlink" id="Layer_1" x="0px" y="0px" viewBox="0 0 35.8 35.8" style="enable-background:new 0 0 35.8 35.8;" xml:space="preserve"><style type="text/css">	.st0{fill:#0F2C52;}</style><g transform="translate(-810.439 -655.75)">	<g>		<path class="st0" d="M811.5,691.3c-0.2,0-0.4-0.1-0.5-0.2c-0.3-0.3-0.3-0.8,0-1.1l33.3-33.3c0.3-0.3,0.8-0.3,1.1,0s0.3,0.8,0,1.1    L812,691C811.9,691.2,811.7,691.3,811.5,691.3z"></path>	</g>	<g>		<path class="st0" d="M845.5,657.3h-11.6c-0.4,0-0.8-0.3-0.8-0.8s0.3-0.8,0.8-0.8h11.6c0.4,0,0.8,0.3,0.8,0.8    S845.9,657.3,845.5,657.3z"></path>	</g>	<g>		<path class="st0" d="M845.5,668.8c-0.4,0-0.8-0.3-0.8-0.8v-11.6c0-0.4,0.3-0.8,0.8-0.8s0.8,0.3,0.8,0.8v11.6    C846.2,668.5,845.9,668.8,845.5,668.8z"></path>	</g>	<g>		<path class="st0" d="M823.1,691.3h-11.6c-0.4,0-0.8-0.3-0.8-0.8s0.3-0.8,0.8-0.8h11.6c0.4,0,0.8,0.3,0.8,0.8    S823.5,691.3,823.1,691.3z"></path>	</g>	<g>		<path class="st0" d="M811.5,691.3c-0.4,0-0.8-0.3-0.8-0.8v-11.6c0-0.4,0.3-0.8,0.8-0.8s0.8,0.3,0.8,0.8v11.6    C812.3,690.9,811.9,691.3,811.5,691.3z"></path>	</g></g></svg>