<svg xmlns="http://www.w3.org/2000/svg" xmlns:xlink="http://www.w3.org/1999/xlink" viewBox="0 0 56 56"><defs><clipPath id="clip-path"><rect width="56" height="56" fill="none"></rect></clipPath></defs><g id="icon-product-shares-blue" clip-path="url(#clip-path)"><rect id="icon_mask" width="56" height="56" fill="none"></rect><g id="icon" transform="translate(-1017 -184)"><g id="Group_2199" data-name="Group 2199"><path id="Path_1468" data-name="Path 1468" d="M1024.1,209.2a3.7,3.7,0,1,1,0-7.4,3.7,3.7,0,0,1,0,7.4Zm0-6.4a2.7,2.7,0,1,0,2.7,2.7A2.689,2.689,0,0,0,1024.1,202.8Zm27.7,1.1a3.7,3.7,0,0,1,0-7.4,3.7,3.7,0,0,1,0,7.4Zm0-6.5a2.7,2.7,0,1,0,2.7,2.7A2.754,2.754,0,0,0,1051.8,197.4Zm-13.8.4a3.7,3.7,0,0,1,0-7.4,3.757,3.757,0,0,1,3.7,3.7A3.691,3.691,0,0,1,1038,197.8Zm0-6.4a2.7,2.7,0,1,0,2.7,2.7A2.689,2.689,0,0,0,1038,191.4Zm27.7.3a3.7,3.7,0,0,1,0-7.4,3.691,3.691,0,0,1,3.7,3.7A3.757,3.757,0,0,1,1065.7,191.7Zm0-6.4a2.7,2.7,0,1,0,2.7,2.7A2.689,2.689,0,0,0,1065.7,185.3Z" fill="#0f2c52"></path></g><g id="Group_2200" data-name="Group 2200"><path id="Path_1469" data-name="Path 1469" d="M1027.5,239.5h-6.8a2.8,2.8,0,0,1-2.8-2.8V216.9a2.8,2.8,0,0,1,2.8-2.8h6.8a2.8,2.8,0,0,1,2.8,2.8v19.8A2.734,2.734,0,0,1,1027.5,239.5Zm-6.8-23.8a1.324,1.324,0,0,0-1.3,1.3v19.8a1.324,1.324,0,0,0,1.3,1.3h6.8a1.324,1.324,0,0,0,1.3-1.3V217a1.324,1.324,0,0,0-1.3-1.3Z" fill="#0f2c52"></path></g><g id="Group_2201" data-name="Group 2201"><path id="Path_1470" data-name="Path 1470" d="M1041.4,239.5h-6.8a2.8,2.8,0,0,1-2.8-2.8V206.3a2.8,2.8,0,0,1,2.8-2.8h6.8a2.8,2.8,0,0,1,2.8,2.8v30.4A2.86,2.86,0,0,1,1041.4,239.5Zm-6.8-34.4a1.324,1.324,0,0,0-1.3,1.3v30.4a1.324,1.324,0,0,0,1.3,1.3h6.8a1.324,1.324,0,0,0,1.3-1.3V206.4a1.324,1.324,0,0,0-1.3-1.3Z" fill="#0f2c52"></path></g><g id="Group_2202" data-name="Group 2202"><path id="Path_1471" data-name="Path 1471" d="M1055.2,239.5h-6.8a2.8,2.8,0,0,1-2.8-2.8V211.6a2.8,2.8,0,0,1,2.8-2.8h6.8a2.8,2.8,0,0,1,2.8,2.8v25.1A2.8,2.8,0,0,1,1055.2,239.5Zm-6.8-29.1a1.324,1.324,0,0,0-1.3,1.3v25.1a1.324,1.324,0,0,0,1.3,1.3h6.8a1.324,1.324,0,0,0,1.3-1.3V211.7a1.324,1.324,0,0,0-1.3-1.3Z" fill="#0f2c52"></path></g><g id="Group_2203" data-name="Group 2203"><path id="Path_1472" data-name="Path 1472" d="M1069.1,239.5h-6.8a2.8,2.8,0,0,1-2.8-2.8V200.5a2.8,2.8,0,0,1,2.8-2.8h6.8a2.8,2.8,0,0,1,2.8,2.8v36.2A2.86,2.86,0,0,1,1069.1,239.5Zm-6.8-40.2a1.324,1.324,0,0,0-1.3,1.3v36.2a1.324,1.324,0,0,0,1.3,1.3h6.8a1.324,1.324,0,0,0,1.3-1.3V200.6a1.324,1.324,0,0,0-1.3-1.3Z" fill="#0f2c52"></path></g><g id="Group_2204" data-name="Group 2204"><path id="Path_1473" data-name="Path 1473" d="M1026.7,204.1a.758.758,0,0,1-.4-.2.494.494,0,0,1,.1-.7l8.8-7.4a.5.5,0,0,1,.6.8L1027,204C1026.9,204,1026.8,204.1,1026.7,204.1Zm22.2-4.8h-.2l-7.9-3.7a.515.515,0,0,1,.5-.9l7.9,3.7a.43.43,0,0,1,.2.7A.764.764,0,0,1,1048.9,199.3Zm5.5-.5a.758.758,0,0,1-.4-.2.429.429,0,0,1,.1-.7l9.2-7.8a.5.5,0,0,1,.6.8l-9.2,7.8A1.007,1.007,0,0,1,1054.4,198.8Z" fill="#0f2c52"></path></g></g></g></svg>