<svg xmlns="http://www.w3.org/2000/svg" viewBox="0 0 56 56"><g id="icon-account-manager-blue" transform="translate(-969 -374)"><rect id="Rectangle_20074" data-name="Rectangle 20074" width="56" height="56" transform="translate(969 374)" fill="gray" opacity="0"></rect><g id="&#x421;&#x43B;&#x43E;&#x439;_x0020_1" transform="translate(969 378)"><g id="_2306674471456"><path id="Path_5003" data-name="Path 5003" d="M302.193,263.641a27.1,27.1,0,0,1-3.139-1.256c-.628-.251-1.13-.628-1.632-.879a8.6,8.6,0,0,1-7.659,2.386c.753,2.135.753,5.022.879,8.789v1h15.067v-.5C305.709,267.91,305.583,265.022,302.193,263.641Zm-2.511-2.386c.879.377,1.883.879,3.013,1.256,4.269,1.632,4.269,4.771,4.269,10.673v1.758H289.386v-2.26c-.126-4.395-.126-7.408-1.381-9.417l-1-1.632,1.758.628a7.343,7.343,0,0,0,8.036-1.883l.5-.377.377.251C298.175,260.5,298.8,260.879,299.682,261.256Z" transform="translate(-250.964 -227.354)" fill="#0f2c52"></path><path id="Path_5004" data-name="Path 5004" d="M249.984,90.5a6.662,6.662,0,0,0,.628,1.758.389.389,0,0,1,.126.251h.5l.126.5a6.876,6.876,0,0,0,1.883,4.269,5.888,5.888,0,0,0,3.892,1.632,5.625,5.625,0,0,0,4.144-1.883,9.014,9.014,0,0,0,1.507-3.641l.126-1,.753.5A5.116,5.116,0,0,0,264.549,91a13.187,13.187,0,0,0,.251-1.632c-.126-.251-.126-.377-.251-.377l-.5-.251.126-.5c.879-3.892-.251-6.655-2.26-8.161a7.568,7.568,0,0,0-2.762-1.13,6.121,6.121,0,0,0-3.013,0,7.08,7.08,0,0,0-5.776,5.4h0a8.29,8.29,0,0,0-.126,1.758,3.476,3.476,0,0,0,.377,1.632l.5,1.256-1.381-.377h0A2.776,2.776,0,0,0,249.984,90.5Zm-.5,2.386a6.713,6.713,0,0,1-.753-2.009,5.206,5.206,0,0,1-.251-2.637c.126-.126.126-.377.377-.5a.27.27,0,0,1,.251-.251,4.71,4.71,0,0,1-.126-1.256,5.945,5.945,0,0,1,.126-2.135,8.829,8.829,0,0,1,10.3-6.4,10.655,10.655,0,0,1,3.265,1.381c2.26,1.758,3.641,4.771,2.888,9.04a2.366,2.366,0,0,1,.5,1.13,8.469,8.469,0,0,1-.377,2.135,5.936,5.936,0,0,1-1.13,2.386.69.69,0,0,1-.628.377,8.614,8.614,0,0,1-1.632,3.641,7.151,7.151,0,0,1-5.148,2.386h-.126a6.437,6.437,0,0,1-4.646-2.009,8.1,8.1,0,0,1-2.26-4.646A1.481,1.481,0,0,1,249.482,92.881Z" transform="translate(-217.212 -67.769)" fill="#0f2c52"></path><path id="Path_5005" data-name="Path 5005" d="M29.381,245.669h9.04v-1c-.126-6.529-.251-10.17-4.52-11.8A46.4,46.4,0,0,1,27,229.6c-1.256,4.018-2.637,8.161-3.892,12.179-.126.377-.377.628-.753.5q-.377-.188-.377-.377l-1.758-4.646a.755.755,0,0,1,.126-.5,8.892,8.892,0,0,0,1.381-2.637,1.7,1.7,0,0,0,0-1.13c-.251-.251-.5-.5-.753-.5a1.9,1.9,0,0,0-1-.251,2.293,2.293,0,0,0-1.13.251.834.834,0,0,0-.628.5,1.575,1.575,0,0,0-.126,1.13,13.576,13.576,0,0,0,1.381,2.637.941.941,0,0,1,.126.628l-1.632,4.52a.766.766,0,0,1-.879.377,1.733,1.733,0,0,1-.377-.5l-.5-1.507L12.807,229.6A46.4,46.4,0,0,1,5.9,232.861c-4.52,1.632-4.52,5.148-4.646,11.8v1Zm9.668,1.256H.628A.593.593,0,0,1,0,246.3v-1.632c.126-7.157.126-11.049,5.4-13.058a44.245,44.245,0,0,0,7.408-3.516l.126-.126a.689.689,0,0,1,.753.5l3.641,11.175.879-2.511a10.764,10.764,0,0,1-1.381-2.637,3.15,3.15,0,0,1,.251-2.26,2.633,2.633,0,0,1,1.381-1,4.052,4.052,0,0,1,1.507-.251,3.21,3.21,0,0,1,1.381.251,2.359,2.359,0,0,1,1.381,1,2.618,2.618,0,0,1,.251,2.26,10.764,10.764,0,0,1-1.381,2.637l.879,2.511,3.516-11.175.126-.126A.539.539,0,0,1,27,228.09a39.53,39.53,0,0,0,7.283,3.516c5.274,2.009,5.274,5.9,5.4,13.058V246.3a.593.593,0,0,1-.628.628Z" transform="translate(0 -199.337)" fill="#0f2c52"></path><path id="Path_5006" data-name="Path 5006" d="M71.66,12.556a11.142,11.142,0,0,1-.377-1.758,9.558,9.558,0,0,1,.377-2.637,10.534,10.534,0,0,1,.879-2.386A10.826,10.826,0,0,1,74.3,3.516a8.124,8.124,0,0,1,1.13-1,4.51,4.51,0,0,1,1.256-.879,2.734,2.734,0,0,1,1-.628A5.247,5.247,0,0,1,78.943.5a2.955,2.955,0,0,1,1-.251C80.324.126,80.7.126,81.077,0a11.258,11.258,0,0,1,3.013.251,9.429,9.429,0,0,1,2.26.879,7.133,7.133,0,0,1,2.637,2.26c1,.251,4.269,1.883,2.762,9.794a2.428,2.428,0,0,1,.628,1.13A6.831,6.831,0,0,1,92,17.2a12.892,12.892,0,0,1-1,2.637,1.674,1.674,0,0,1-.753.628.461.461,0,0,1-.377.126,11.184,11.184,0,0,1-2.135,4.646,8.366,8.366,0,0,1-6.4,2.888h0a8.1,8.1,0,0,1-6.4-3.139,11.544,11.544,0,0,1-2.26-4.9,5.462,5.462,0,0,1-.753-.879,14.335,14.335,0,0,1-1-2.511,6.251,6.251,0,0,1-.126-3.39A1.688,1.688,0,0,1,71.66,12.556Zm1-1.883a5.865,5.865,0,0,0,.377,2.135l.377,1-1-.126c-.126,0-.377,0-.377.251-.251.377-.251,1,.126,2.511a13.871,13.871,0,0,0,.879,2.135q.188.377.377.377h.377l.126.5A10.309,10.309,0,0,0,75.8,24.233a7.2,7.2,0,0,0,10.924.251,9.873,9.873,0,0,0,1.883-4.646l.251-1,.753.5c.126,0,.126-.126.251-.251a5.826,5.826,0,0,0,.879-2.26,6.253,6.253,0,0,0,.377-2.26c-.126-.251-.126-.377-.251-.377l-.5-.251.126-.5c1.758-8.538-2.009-8.789-2.009-8.789l-.377-.126-.126-.251A6.023,6.023,0,0,0,85.848,2.26h-.126a6.545,6.545,0,0,0-1.883-.753A8.558,8.558,0,0,0,81.2,1.256c-.377.126-.628.126-1,.251a2.328,2.328,0,0,0-.879.251h0a1.426,1.426,0,0,0-1,.377,4.405,4.405,0,0,0-1,.628h0l-1.13.753c-.377.251-.628.628-1,.879V4.52A12.345,12.345,0,0,0,73.669,6.4a5.547,5.547,0,0,0-.753,2.009v.126A4.03,4.03,0,0,0,72.665,10.673Z" transform="translate(-61.741)" fill="#0f2c52"></path></g></g></g></svg>