<svg xmlns="http://www.w3.org/2000/svg" viewBox="0 0 54 48.737"><defs><style>.a{fill:#0f2c52;}</style></defs><g transform="translate(-0.3 -3)"><g transform="translate(0.3 3)"><path class="a" d="M24.278,50.859A23.93,23.93,0,1,1,48.257,26.881c0,.39-.195.39-.585.39s-.877,0-.877-.39A22.468,22.468,0,1,0,24.376,49.4a22.855,22.855,0,0,0,8.09-1.462c.39-.1-.1.195,0,.585s.877.682.487.78A23.967,23.967,0,0,1,24.278,50.859Z" transform="translate(-0.3 -3)"></path></g><g transform="translate(27.008 24.444)"><path class="a" d="M41.346,52.292A13.646,13.646,0,1,1,54.992,38.646,13.686,13.686,0,0,1,41.346,52.292Zm.021-26.318A12.671,12.671,0,1,0,54.039,38.646,12.709,12.709,0,0,0,41.368,25.975Z" transform="translate(-27.7 -25)"></path></g><g transform="translate(24.425 14.94)"><path class="a" d="M25.586,25.728a.586.586,0,0,1-.39-.1.471.471,0,0,1,0-.682L34.749,15.4a.482.482,0,1,1,.682.682l-9.552,9.552A.358.358,0,0,1,25.586,25.728Z" transform="translate(-25.05 -15.25)"></path></g><g transform="translate(23.791 21.715)"><path class="a" d="M24.887,25.319h-.1a.534.534,0,0,1-.39-.585l.585-2.144a.5.5,0,0,1,.975.195l-.585,2.144A.648.648,0,0,1,24.887,25.319Z" transform="translate(-24.4 -22.2)"></path></g><g transform="translate(14.312 16.524)"><path class="a" d="M25.421,30.156a.7.7,0,0,1-.585-.292l-9.942-9.942a.889.889,0,0,1,0-1.17l1.657-1.657a.889.889,0,0,1,1.17,0l9.942,9.942a.842.842,0,0,1,.292.585.7.7,0,0,1-.292.585l-1.657,1.657A.589.589,0,0,1,25.421,30.156ZM15.674,19.336l9.845,9.845,1.462-1.462-9.845-9.942Z" transform="translate(-14.675 -16.875)"></path></g><g transform="translate(19.307 27.173)"><path class="a" d="M20.287,42.129h-.1a.534.534,0,0,1-.39-.585L23.406,28.19a.606.606,0,0,1,.585-.39.534.534,0,0,1,.39.585L20.775,41.739A.5.5,0,0,1,20.287,42.129Z" transform="translate(-19.8 -27.8)"></path></g><g transform="translate(20.233 26.735)"><path class="a" d="M21.286,30.225a.586.586,0,0,1-.39-.1.471.471,0,0,1,0-.682L22.846,27.5a.482.482,0,0,1,.682.682l-1.949,1.949A.982.982,0,0,1,21.286,30.225Z" transform="translate(-20.75 -27.35)"></path></g><g transform="translate(32.174 31.949)"><path class="a" d="M41.383,44.1v1.17H33.39V44.2l4.386-4.874a12.561,12.561,0,0,0,1.267-1.755,3.087,3.087,0,0,0,.39-1.56,1.919,1.919,0,0,0-.585-1.56,2.293,2.293,0,0,0-1.657-.585,5.5,5.5,0,0,0-3.509,1.462L33,34.26a5.031,5.031,0,0,1,1.852-1.17,6.044,6.044,0,0,1,2.242-.39,3.993,3.993,0,0,1,2.729.877,2.963,2.963,0,0,1,.975,2.437,5.238,5.238,0,0,1-.487,2.047,11.819,11.819,0,0,1-1.56,2.242l-3.606,3.9h6.238Z" transform="translate(-33 -32.7)"></path><path class="a" d="M50.6,40.013a3.093,3.093,0,0,1,.585,1.949A3.231,3.231,0,0,1,50.113,44.5a4.669,4.669,0,0,1-3.022.975,6.553,6.553,0,0,1-2.339-.39,5.031,5.031,0,0,1-1.852-1.17l.585-1.072A5.533,5.533,0,0,0,47.091,44.3a3.2,3.2,0,0,0,2.047-.585,2.085,2.085,0,0,0,.682-1.755q0-2.339-2.924-2.339H45.434v-1.17H46.6a3.5,3.5,0,0,0,2.144-.585,2.142,2.142,0,0,0,.78-1.755,2.058,2.058,0,0,0-.585-1.56,2.544,2.544,0,0,0-1.755-.585,5.5,5.5,0,0,0-3.509,1.462l-.585-1.072a5.031,5.031,0,0,1,1.852-1.17,6.044,6.044,0,0,1,2.242-.39,3.993,3.993,0,0,1,2.729.877,2.89,2.89,0,0,1,.975,2.339,3.733,3.733,0,0,1-.487,1.852,3.4,3.4,0,0,1-1.462,1.17A2.633,2.633,0,0,1,50.6,40.013Z" transform="translate(-33.25 -32.703)"></path></g></g></svg>