<svg xmlns="http://www.w3.org/2000/svg" viewBox="0 0 55.5 47.2"><g id="icon_free_trading_tool" transform="translate(0 -531.2)"><g id="Group_2247" data-name="Group 2247"><path id="Path_1508" data-name="Path 1508" d="M5.8,570.5a2,2,0,1,1-2,2,2.006,2.006,0,0,1,2-2Z" fill="#0f2c52" fill-rule="evenodd"></path></g><g id="Group_2248" data-name="Group 2248"><path id="Path_1509" data-name="Path 1509" d="M5.8,578.4a5.8,5.8,0,1,1,5.8-5.8A5.741,5.741,0,0,1,5.8,578.4Zm0-10.2a4.3,4.3,0,1,0,0,8.6,4.3,4.3,0,1,0,0-8.6Z" fill="#0f2c52"></path></g><g id="Group_2249" data-name="Group 2249"><path id="Path_1510" data-name="Path 1510" d="M21.1,548.7a2,2,0,1,1-2,2,2.006,2.006,0,0,1,2-2Z" fill="#0f2c52" fill-rule="evenodd"></path></g><g id="Group_2250" data-name="Group 2250"><path id="Path_1511" data-name="Path 1511" d="M21.1,556.6a5.8,5.8,0,1,1,5.8-5.8A5.741,5.741,0,0,1,21.1,556.6Zm0-10.2a4.3,4.3,0,1,0,4.3,4.3A4.268,4.268,0,0,0,21.1,546.4Z" fill="#0f2c52"></path></g><g id="Group_2251" data-name="Group 2251"><path id="Path_1512" data-name="Path 1512" d="M36.5,556.2a2,2,0,1,1-2,2,2.006,2.006,0,0,1,2-2Z" fill="#0f2c52" fill-rule="evenodd"></path></g><g id="Group_2252" data-name="Group 2252"><path id="Path_1513" data-name="Path 1513" d="M36.5,564a5.8,5.8,0,1,1,5.8-5.8A5.741,5.741,0,0,1,36.5,564Zm0-10.2a4.332,4.332,0,0,0-4.3,4.3,4.3,4.3,0,1,0,4.3-4.3Z" fill="#0f2c52"></path></g><g id="Group_2253" data-name="Group 2253"><path id="Path_1514" data-name="Path 1514" d="M49.7,535.1a2,2,0,1,1-2,2,1.944,1.944,0,0,1,2-2Z" fill="#0f2c52" fill-rule="evenodd"></path></g><g id="Group_2254" data-name="Group 2254"><path id="Path_1515" data-name="Path 1515" d="M49.7,543a5.8,5.8,0,1,1,5.8-5.8A5.8,5.8,0,0,1,49.7,543Zm0-10.2a4.332,4.332,0,0,0-4.3,4.3,4.3,4.3,0,0,0,8.6,0A4.332,4.332,0,0,0,49.7,532.8Z" fill="#0f2c52"></path></g><g id="Group_2255" data-name="Group 2255"><path id="Path_1516" data-name="Path 1516" d="M26.2,575.5a3.4,3.4,0,1,1,3.4-3.4A3.372,3.372,0,0,1,26.2,575.5Zm0-5.7a2.4,2.4,0,1,0,2.4,2.4A2.433,2.433,0,0,0,26.2,569.8ZM50.7,559a3.4,3.4,0,1,1,3.4-3.4A3.372,3.372,0,0,1,50.7,559Zm0-5.7a2.4,2.4,0,1,0,2.4,2.4A2.433,2.433,0,0,0,50.7,553.3ZM7.5,557a3.4,3.4,0,1,1,3.4-3.4A3.5,3.5,0,0,1,7.5,557Zm0-5.7a2.4,2.4,0,1,0,2.4,2.4A2.5,2.5,0,0,0,7.5,551.3ZM35.8,544a3.4,3.4,0,1,1,3.4-3.4A3.372,3.372,0,0,1,35.8,544Zm0-5.8a2.4,2.4,0,1,0,2.4,2.4A2.433,2.433,0,0,0,35.8,538.2ZM16.6,538a3.4,3.4,0,1,1,3.4-3.4A3.436,3.436,0,0,1,16.6,538Zm0-5.7a2.4,2.4,0,1,0,2.4,2.4A2.433,2.433,0,0,0,16.6,532.3Z" fill="#0f2c52"></path></g><g id="Group_2256" data-name="Group 2256"><path id="Path_1517" data-name="Path 1517" d="M5.8,573a.367.367,0,0,1-.3-.1.494.494,0,0,1-.1-.7l15.3-21.8a.481.481,0,0,1,.6-.2l15,7.2,12.9-20.6a.515.515,0,1,1,.9.5L37,558.3a.481.481,0,0,1-.6.2l-15-7.2-15,21.4A.864.864,0,0,1,5.8,573Z" fill="#0f2c52"></path></g></g></svg>