<?xml version="1.0" encoding="UTF-8"?>
<svg xmlns="http://www.w3.org/2000/svg" viewBox="0 0 54 54">
  <g id="icon-product-indices-blue" transform="translate(1364 -3858)">
    <rect id="Rectangle_20236" data-name="Rectangle 20236" width="54" height="54" transform="translate(-1364 3858)" fill="#940000" opacity="0"></rect>
    <g id="Group_5431" data-name="Group 5431" transform="translate(2033 990)">
      <g id="Group_60" data-name="Group 60" transform="translate(-3397 2868)">
        <path id="Path_76" data-name="Path 76" d="M736.852,290.837H691.595V245.324a.828.828,0,0,0-1.656,0v45.514h-5.183a.827.827,0,1,0,0,1.654h5.183v5.179a.828.828,0,0,0,1.656,0v-5.179h45.257a.827.827,0,1,0,0-1.654Z" transform="translate(-683.928 -244.497)" fill="#0f2c52"></path>
      </g>
      <path id="Path_77" data-name="Path 77" d="M727.218,256.167H698.054v1H726.37A7.063,7.063,0,0,1,727.218,256.167Z" transform="translate(-4085.209 2619.966)" fill="#0f2c52"></path>
      <path id="Path_78" data-name="Path 78" d="M754.807,257.169h4.271v-1h-5.12A7.067,7.067,0,0,1,754.807,257.169Z" transform="translate(-4102.153 2619.966)" fill="#0f2c52"></path>
      <rect id="Rectangle_2" data-name="Rectangle 2" width="44.081" height="1.002" transform="translate(-3387.156 2868.118)" fill="#0f2c52"></rect>
      <path id="Path_79" data-name="Path 79" d="M734.164,269.105H723.771a7.069,7.069,0,0,1,.848,1h10.393A7.064,7.064,0,0,1,734.164,269.105Z" transform="translate(-4093.004 2616.031)" fill="#0f2c52"></path>
      <path id="Path_80" data-name="Path 80" d="M753.959,270.107h5.12v-1h-4.271A7.068,7.068,0,0,1,753.959,270.107Z" transform="translate(-4102.153 2616.031)" fill="#0f2c52"></path>
      <path id="Path_81" data-name="Path 81" d="M706.179,269.105h-8.125v1h7.277A7.066,7.066,0,0,1,706.179,269.105Z" transform="translate(-4085.209 2616.031)" fill="#0f2c52"></path>
      <path id="Path_82" data-name="Path 82" d="M706.009,282.868a7.049,7.049,0,0,1-.678-.825h-7.277v1h7.854Z" transform="translate(-4085.209 2612.102)" fill="#0f2c52"></path>
      <path id="Path_83" data-name="Path 83" d="M741.869,283.044h13.288v-1H741.021A7.016,7.016,0,0,1,741.869,283.044Z" transform="translate(-4098.231 2612.102)" fill="#0f2c52"></path>
      <path id="Path_84" data-name="Path 84" d="M701.327,294.981h-3.274v1h2.7Z" transform="translate(-4085.209 2608.173)" fill="#0f2c52"></path>
      <path id="Path_85" data-name="Path 85" d="M708.552,295.982h12.831a7.06,7.06,0,0,1-.848-1H709.124Z" transform="translate(-4088.391 2608.173)" fill="#0f2c52"></path>
      <path id="Path_86" data-name="Path 86" d="M741.021,295.982h14.136v-1H741.869A7.015,7.015,0,0,1,741.021,295.982Z" transform="translate(-4098.231 2608.173)" fill="#0f2c52"></path>
      <path id="Path_87" data-name="Path 87" d="M701.984,307.475l-.006.008h41.346v-1H702.552Z" transform="translate(-4086.398 2604.681)" fill="#0f2c52"></path>
      <path id="Path_88" data-name="Path 88" d="M717.541,270.107a4.989,4.989,0,0,0-6.987,6.984l1.167-2.042.73-1.277.372-.652a2.005,2.005,0,0,1,2.734-.746,1.9,1.9,0,0,1,.2.145l.006-.008.606.454,1.17.877,1.887,1.415a4.9,4.9,0,0,0-1.887-5.152Z" transform="translate(-4088.695 2616.028)" fill="#0f2c52"></path>
      <path id="Path_89" data-name="Path 89" d="M718.518,281.589l-1.391-1.043-.6,1.043-.542.949a5.024,5.024,0,0,0,.526.052,4.962,4.962,0,0,0,2.452-.666Z" transform="translate(-4090.645 2612.556)" fill="#0f2c52"></path>
      <path id="Path_90" data-name="Path 90" d="M728.836,291.852a4.986,4.986,0,0,0,6.812-7.2l-1.044,2.088a3,3,0,1,1-5.768,1.371l-1.887-1.415a4.9,4.9,0,0,0,1.887,5.152Z" transform="translate(-4093.923 2611.305)" fill="#0f2c52"></path>
      <path id="Path_91" data-name="Path 91" d="M730.922,283.044l1.285.964.482-.964.488-.976c-.084,0-.164-.025-.251-.025a4.951,4.951,0,0,0-2.451.666Z" transform="translate(-4095.035 2612.102)" fill="#0f2c52"></path>
      <path id="Path_92" data-name="Path 92" d="M747.729,265.184a5.019,5.019,0,1,0-6.812-.82l1.044-2.089a2.971,2.971,0,0,1-.215-1.1,3.006,3.006,0,1,1,3.8,2.885l-.562,1.123-.488.976c.085,0,.165.026.252.026A4.964,4.964,0,0,0,747.729,265.184Z" transform="translate(-4097.844 2619.958)" fill="#0f2c52"></path>
      <path id="Path_93" data-name="Path 93" d="M730.739,267.431l.095-.19.406-.813.519-1.038.413-.827A2.145,2.145,0,1,0,730,262.186a2,2,0,0,0-.024.236,2.128,2.128,0,0,0,.4,1.245l-.417.835-.921,1.841-.042.086-.5,1-.372.744-2.813,5.627-.822,1.643-.094.189-.407.813-.519,1.039-.268.536-.146.291a2.143,2.143,0,0,0-.863.206l-.262-.2-.489-.367L719.8,276.72l-.365-.273-1.275-.956-.06-.045-.861-.646-1.636-1.227-1.659-1.245-.743-.557-.124-.093-1.388-1.042-.01.014a.882.882,0,0,0-.093-.082,1,1,0,0,0-1.367.373l-.939,1.644-.459.8-1.027,1.8-.149.261-.573,1-.293.512-4.287,7.5-.573,1-3.723,6.516a.976.976,0,0,0-.116.5.98.98,0,0,0,.985,1,1,1,0,0,0,.871-.5l.284-.5,4.007-7.013.573-1,3.717-6.506.862-1.51.155-.27.418-.731.6-1.056.339-.593.125-.219c.024,0,.046.007.07.007a2.121,2.121,0,0,0,.912-.21l.2.151.55.413,1.645,1.234.365.273,1.275.956.061.045.861.645,1.636,1.228,1.659,1.245.743.557a2.1,2.1,0,0,0-.034.333,2.141,2.141,0,0,0,4.27.233,2.172,2.172,0,0,0,.024-.233,2.134,2.134,0,0,0-.4-1.246l.417-.835.921-1.842.042-.085.5-1,.373-.746,2.813-5.626Z" transform="translate(-4085.216 2618.698)" fill="#0f2c52"></path>
    </g>
  </g>
</svg>
