<svg xmlns="http://www.w3.org/2000/svg" viewBox="0 0 49.769 54"><g id="Group_5411" data-name="Group 5411" transform="translate(503 1059)"><path id="Path_5033" data-name="Path 5033" d="M0,16.308H49.769v-54H0Z" transform="translate(-503 -1021.308)" fill="#0f2c52" opacity="0"></path><g id="Group_5410" data-name="Group 5410" transform="translate(28.999)"><g id="Group_5185" data-name="Group 5185" transform="translate(-521.991 -1059)"><path id="Path_5025" data-name="Path 5025" d="M5.8,8.973H-2.887a.685.685,0,0,1-.49-.206C-15.429-3.6-13.277-19.985-13.254-20.15a.686.686,0,0,1,.679-.589H15.493a.686.686,0,0,1,.679.589C16.195-19.985,18.346-3.6,6.3,8.767a.688.688,0,0,1-.491.206M-2.6,7.6h8.11c10.093-10.534,9.606-24.011,9.36-26.971h-26.83C-12.2-16.409-12.689-2.932-2.6,7.6" transform="translate(13.417 20.739)" fill="#fff"></path></g><g id="Group_5186" data-name="Group 5186" transform="translate(-502.895 -1055.346)"><path id="Path_5026" data-name="Path 5026" d="M1.186,4.093a.687.687,0,0,1-.638-.938A34.187,34.187,0,0,0,2.872-8.089H-2.055a.685.685,0,0,1-.685-.686.685.685,0,0,1,.685-.685H3.577a.689.689,0,0,1,.489.2.69.69,0,0,1,.2.491A35.7,35.7,0,0,1,1.823,3.66a.686.686,0,0,1-.638.433" transform="translate(2.74 9.46)" fill="#fff"></path></g><g id="Group_5187" data-name="Group 5187" transform="translate(-522.457 -1012.784)"><path id="Path_5027" data-name="Path 5027" d="M9.06,2.351H-20.254a.685.685,0,0,1-.685-.685,7.106,7.106,0,0,1,7.1-7.1H2.647a7.106,7.106,0,0,1,7.1,7.1.685.685,0,0,1-.685.685M-19.528.98H8.333A5.735,5.735,0,0,0,2.647-4.062H-13.842A5.735,5.735,0,0,0-19.528.98" transform="translate(20.939 5.433)" fill="#fff"></path></g><g id="Group_5188" data-name="Group 5188" transform="translate(-516.662 -1030.659)"><path id="Path_5028" data-name="Path 5028" d="M5.556,5.812h-17.7a.685.685,0,0,1-.682-.623A7.37,7.37,0,0,1-11.689.87,5.328,5.328,0,0,1-10.11-.722l.176-.113c1.314-.838,3.3-2.1,3.3-4.2A5.7,5.7,0,0,0-8.107-9.276a.69.69,0,0,1-.239-.55l.128-2.951a.687.687,0,0,1,.685-.656H.944a.687.687,0,0,1,.685.656l.128,2.951a.686.686,0,0,1-.239.55A5.721,5.721,0,0,0,.047-5.031c0,2.093,1.984,3.358,3.3,4.2l.176.113A5.312,5.312,0,0,1,5.1.87,7.37,7.37,0,0,1,6.238,5.189a.685.685,0,0,1-.682.623M-11.456,4.441H4.865A5.988,5.988,0,0,0,3.951,1.62,3.948,3.948,0,0,0,2.781.431L2.607.321C1.136-.617-1.324-2.188-1.324-5.031a7.413,7.413,0,0,1,1.7-5.033l-.086-2H-6.877l-.087,2a7.413,7.413,0,0,1,1.7,5.033c0,2.844-2.46,4.414-3.93,5.352l-.175.11a3.981,3.981,0,0,0-1.17,1.189,6,6,0,0,0-.914,2.821" transform="translate(12.841 13.434)" fill="#fff"></path></g><g id="Group_5189" data-name="Group 5189" transform="translate(-496.386 -1053.656)"><path id="Path_5029" data-name="Path 5029" d="M0,4.6V3.229c9.556,0,12.119-8.365,12.777-11.963a.442.442,0,0,0-.1-.368.442.442,0,0,0-.341-.159H3.457v-1.371H12.34a1.808,1.808,0,0,1,1.394.653,1.811,1.811,0,0,1,.391,1.491C13.563-5.417,10.884,4.6,0,4.6" transform="translate(0 10.632)" fill="#fff"></path></g><g id="Group_5190" data-name="Group 5190" transform="translate(-493.659 -1050.839)"><path id="Path_5030" data-name="Path 5030" d="M1.127,2.265A.685.685,0,0,1,.69,1.052,11.656,11.656,0,0,0,4.02-3.866H-1.919a.686.686,0,0,1-.686-.685.686.686,0,0,1,.686-.685H4.952a.689.689,0,0,1,.539.259.688.688,0,0,1,.129.583,13.224,13.224,0,0,1-4.057,6.5.686.686,0,0,1-.436.156" transform="translate(2.605 5.236)" fill="#fff"></path></g><g id="Group_5191" data-name="Group 5191" transform="translate(-532 -1053.656)"><path id="Path_5031" data-name="Path 5031" d="M4.275,4.6C-6.611,4.6-9.29-5.417-9.85-8.487a1.812,1.812,0,0,1,.391-1.491,1.808,1.808,0,0,1,1.394-.653H.818v1.371H-8.065a.443.443,0,0,0-.342.159.448.448,0,0,0-.095.368c.658,3.6,3.219,11.963,12.777,11.963Z" transform="translate(9.88 10.632)" fill="#fff"></path></g><g id="Group_5192" data-name="Group 5192" transform="translate(-528.816 -1050.839)"><path id="Path_5032" data-name="Path 5032" d="M1.362,2.265a.686.686,0,0,1-.436-.156,13.224,13.224,0,0,1-4.057-6.5A.688.688,0,0,1-3-4.977a.689.689,0,0,1,.539-.259H4.408a.686.686,0,0,1,.686.685.686.686,0,0,1-.686.685H-1.529A11.7,11.7,0,0,0,1.8,1.052a.685.685,0,0,1-.437,1.213" transform="translate(3.149 5.236)" fill="#fff"></path></g></g></g></svg>