<svg xmlns="http://www.w3.org/2000/svg" xmlns:xlink="http://www.w3.org/1999/xlink" viewBox="0 0 56 56"><defs><clipPath id="clip-path"><rect width="56" height="56" fill="none"></rect></clipPath></defs><g id="icon_oil" clip-path="url(#clip-path)"><rect id="icon_mask" width="56" height="56" fill="none"></rect><g id="icon" transform="translate(7.565)"><g id="Group_2111" data-name="Group 2111" transform="translate(1.652)"><path id="Path_1396" data-name="Path 1396" d="M303.815,61.627a.8.8,0,0,1-.807-.8V6.5a.794.794,0,0,1,.807-.8.741.741,0,0,1,.807.8V60.823A.8.8,0,0,1,303.815,61.627Zm-35.508,0a.8.8,0,0,1-.807-.8V6.5a.794.794,0,0,1,.807-.8.741.741,0,0,1,.807.8V60.823C269.013,61.325,268.711,61.627,268.307,61.627Z" transform="translate(-267.5 -5.7)" fill="#0f2c52"></path></g><g id="Group_2112" data-name="Group 2112"><path id="Path_1397" data-name="Path 1397" d="M305.13,7.255H266.6a.781.781,0,0,1-.8-.778.728.728,0,0,1,.8-.778H305.13a.778.778,0,1,1,0,1.555Z" transform="translate(-265.8 -5.7)" fill="#0f2c52"></path></g><g id="Group_2113" data-name="Group 2113" transform="translate(0.292 9.387)"><path id="Path_1398" data-name="Path 1398" d="M305.148,20.054H266.6a.486.486,0,1,1,0-.972h38.545a.486.486,0,1,1,0,.972Zm0-4.082H266.6a.486.486,0,1,1,0-.972h38.545a.486.486,0,1,1,0,.972Z" transform="translate(-266.1 -15)" fill="#0f2c52"></path></g><g id="Group_2114" data-name="Group 2114" transform="translate(0 54.372)"><path id="Path_1399" data-name="Path 1399" d="M305.13,61.255H266.6a.781.781,0,0,1-.8-.778.728.728,0,0,1,.8-.778H305.13a.778.778,0,1,1,0,1.555Z" transform="translate(-265.8 -59.7)" fill="#0f2c52"></path></g><g id="Group_2115" data-name="Group 2115" transform="translate(0.292 41.486)"><path id="Path_1400" data-name="Path 1400" d="M305.148,51.854H266.6a.486.486,0,1,1,0-.972h38.545a.486.486,0,1,1,0,.972Zm0-4.082H266.6a.486.486,0,1,1,0-.972h38.545a.486.486,0,1,1,0,.972Z" transform="translate(-266.1 -46.8)" fill="#0f2c52"></path></g><g id="Group_2116" data-name="Group 2116" transform="translate(15.258 20.848)"><path id="Path_1401" data-name="Path 1401" d="M285.66,39.516a4.874,4.874,0,0,1-4.86-4.86c0-2.624,2.721-7.29,4.471-8.262l.389-.194.389.194c1.944,1.166,4.471,5.735,4.471,8.262A4.874,4.874,0,0,1,285.66,39.516Zm0-11.663c-1.361,1.166-3.4,4.957-3.4,6.706a3.4,3.4,0,0,0,6.8,0C289.062,32.712,287.118,29.116,285.66,27.852Z" transform="translate(-280.8 -26.2)" fill="#0f2c52"></path></g></g></g></svg>