<svg xmlns="http://www.w3.org/2000/svg" xmlns:xlink="http://www.w3.org/1999/xlink" viewBox="0 0 56 56"><defs><clipPath id="clip-path"><rect width="56" height="56" fill="none"></rect></clipPath></defs><g id="icon_growing_chart" clip-path="url(#clip-path)"><rect id="icon_mask" width="56" height="56" fill="none"></rect><g id="icon" transform="translate(2.25 0)"><g id="Group_2259" data-name="Group 2259" transform="translate(6.15 35.1)"><path id="Path_1519" data-name="Path 1519" d="M1031.5,413.7h-4.1a2.006,2.006,0,0,1-2-2v-16a2.006,2.006,0,0,1,2-2h4.1a2.006,2.006,0,0,1,2,2v16A1.944,1.944,0,0,1,1031.5,413.7Zm-4-18.4a.536.536,0,0,0-.5.5v16a.536.536,0,0,0,.5.5h4.1a.536.536,0,0,0,.5-.5v-16a.536.536,0,0,0-.5-.5Z" transform="translate(-1025.4 -393.7)" fill="#0f2c52"></path></g><g id="Group_2260" data-name="Group 2260" transform="translate(18.55 20.8)"><path id="Path_1520" data-name="Path 1520" d="M1043.9,413.7h-4.1a2.006,2.006,0,0,1-2-2V381.4a2.006,2.006,0,0,1,2-2h4.1a2.006,2.006,0,0,1,2,2v30.3A1.944,1.944,0,0,1,1043.9,413.7Zm-4-32.7a.536.536,0,0,0-.5.5v30.3a.536.536,0,0,0,.5.5h4.1a.536.536,0,0,0,.5-.5V381.5a.536.536,0,0,0-.5-.5Z" transform="translate(-1037.8 -379.4)" fill="#0f2c52"></path></g><g id="Group_2261" data-name="Group 2261" transform="translate(30.95 27.8)"><path id="Path_1521" data-name="Path 1521" d="M1056.3,413.7h-4.1a2.006,2.006,0,0,1-2-2V388.4a2.006,2.006,0,0,1,2-2h4.1a2.006,2.006,0,0,1,2,2v23.3A1.944,1.944,0,0,1,1056.3,413.7Zm-4-25.6a.536.536,0,0,0-.5.5v23.3a.536.536,0,0,0,.5.5h4.1a.536.536,0,0,0,.5-.5V388.6a.536.536,0,0,0-.5-.5Z" transform="translate(-1050.2 -386.4)" fill="#0f2c52"></path></g><g id="Group_2262" data-name="Group 2262" transform="translate(43.35 15.2)"><path id="Path_1522" data-name="Path 1522" d="M1068.7,413.7h-4.1a2.006,2.006,0,0,1-2-2V375.8a2.006,2.006,0,0,1,2-2h4.1a2.006,2.006,0,0,1,2,2v35.9A1.944,1.944,0,0,1,1068.7,413.7Zm-4-38.2a.536.536,0,0,0-.5.5v35.9a.536.536,0,0,0,.5.5h4.1a.536.536,0,0,0,.5-.5V376a.536.536,0,0,0-.5-.5Z" transform="translate(-1062.6 -373.8)" fill="#0f2c52"></path></g><g id="Group_2263" data-name="Group 2263" transform="translate(0 0.05)"><path id="Path_1523" data-name="Path 1523" d="M1019.8,386a.6.6,0,0,1-.4-.1.483.483,0,0,1,0-.7l21.8-21.8a.483.483,0,0,1,.7,0l11.5,11.5,16.1-16.1a.495.495,0,1,1,.7.7L1053.7,376a.483.483,0,0,1-.7,0l-11.5-11.5L1020,386C1020.1,385.9,1019.9,386,1019.8,386Z" transform="translate(-1019.25 -358.65)" fill="#0f2c52"></path></g><g id="Group_2264" data-name="Group 2264" transform="translate(43.523)"><path id="Path_1524" data-name="Path 1524" d="M1068.3,366.2h-.1a.548.548,0,0,1-.4-.6l1.4-5.9-5.8,1.7a.474.474,0,1,1-.3-.9l6.7-1.9h.3c.1,0,.1.1.2.1s.1.1.1.2v.3l-1.6,6.7A.55.55,0,0,1,1068.3,366.2Z" transform="translate(-1062.773 -358.6)" fill="#0f2c52"></path></g></g></g></svg>