<svg xmlns="http://www.w3.org/2000/svg" viewBox="0 0 54 53"><defs><style>.a{fill:#0f2c52;}</style></defs><path class="a" d="M.6,1450.445a.484.484,0,0,1,0-.687.5.5,0,0,1,.7,0l10.472,10.335a.485.485,0,0,1,0,.687.5.5,0,0,1-.348.14H.948a.483.483,0,1,1,0-.966h9.287L.6,1450.445Z" transform="translate(-0.452 -1449.618)"></path><path class="a" d="M.6,1450.445a.484.484,0,0,1,0-.687.5.5,0,0,1,.7,0l9.635,9.509V1450.1a.489.489,0,0,1,.979,0v10.325a.505.505,0,0,1-.141.354.5.5,0,0,1-.7,0L.6,1450.445Z" transform="translate(-0.452 -1449.618)"></path><path class="a" d="M89.312,1449.759a.5.5,0,0,1,.7,0,.484.484,0,0,1,0,.687l-9.635,9.509H89.66a.483.483,0,1,1,0,.966H79.2a.518.518,0,0,1-.359-.14.485.485,0,0,1,0-.687Z" transform="translate(-36.151 -1449.618)"></path><path class="a" d="M89.313,1449.759a.5.5,0,0,1,.7,0,.484.484,0,0,1,0,.687l-10.472,10.335a.5.5,0,0,1-.7,0,.49.49,0,0,1-.141-.344V1450.1a.489.489,0,0,1,.979,0v9.166Z" transform="translate(-36.152 -1449.618)"></path><path class="a" d="M1.286,1538.472a.5.5,0,0,1-.7,0,.485.485,0,0,1,0-.687l9.635-9.509H.938a.483.483,0,1,1,0-.966H11.4a.519.519,0,0,1,.359.139.485.485,0,0,1,0,.687L1.286,1538.472Z" transform="translate(-0.447 -1485.618)"></path><path class="a" d="M1.286,1538.471a.5.5,0,0,1-.7,0,.485.485,0,0,1,0-.687l10.472-10.335a.5.5,0,0,1,.7,0,.489.489,0,0,1,.141.343v10.335a.489.489,0,0,1-.979,0v-9.165l-9.635,9.509Z" transform="translate(-0.447 -1485.617)"></path><path class="a" d="M90,1537.795a.485.485,0,0,1,0,.687.5.5,0,0,1-.7,0L78.83,1528.146a.485.485,0,0,1,0-.687.5.5,0,0,1,.348-.14H89.65a.483.483,0,1,1,0,.966H80.364Z" transform="translate(-36.146 -1485.623)"></path><path class="a" d="M90,1537.794a.485.485,0,0,1,0,.687.5.5,0,0,1-.7,0l-9.635-9.509v9.166a.489.489,0,0,1-.979,0v-10.325a.489.489,0,0,1,.837-.354Z" transform="translate(-36.148 -1485.622)"></path><path class="a" d="M45.786,1489.225a.715.715,0,0,1,.4.944.748.748,0,0,1-.962.392c-3.164-1.293-4.513-3.1-4.709-4.808v-.016a4.352,4.352,0,0,1,1.386-3.558,5.645,5.645,0,0,1,3.7-1.573c2.012-.07,4.17.966,5.568,3.794a.715.715,0,0,1-.343.961.749.749,0,0,1-.984-.333c-1.093-2.216-2.708-3.032-4.187-2.978a4.153,4.153,0,0,0-2.708,1.159,2.94,2.94,0,0,0-.962,2.393c.136,1.234,1.223,2.576,3.806,3.633Z" transform="translate(-18.718 -1463.976)"></path><path class="a" d="M48.51,1477.29a.74.74,0,0,1,1.479,0v21.519a.74.74,0,0,1-1.479,0Z" transform="translate(-22.377 -1462.102)"></path><path class="a" d="M44.777,1498.01a.715.715,0,0,1-.4-.944.748.748,0,0,1,.962-.392c3.164,1.293,4.513,3.1,4.709,4.808v.016a4.352,4.352,0,0,1-1.386,3.558,5.646,5.646,0,0,1-3.7,1.572c-2.012.07-4.17-.966-5.568-3.794a.715.715,0,0,1,.343-.96.748.748,0,0,1,.984.333c1.093,2.216,2.708,3.032,4.187,2.978a4.152,4.152,0,0,0,2.708-1.159,2.941,2.941,0,0,0,.962-2.393c-.136-1.234-1.223-2.576-3.806-3.633Z" transform="translate(-18.188 -1471.397)"></path></svg>