<svg xmlns="http://www.w3.org/2000/svg" viewBox="0 0 55.388 50.166"><g id="Group_5412" data-name="Group 5412" transform="translate(660 1048)"><g id="Group_5071" data-name="Group 5071" transform="translate(-660 -1045.574)"><path id="Path_4539" data-name="Path 4539" d="M4037.041,7622.052l1.521-.083-.37-.617.452.247.535.247.535.247.535.247.617.206.617.205.617.206.658.206.658.206.7.165.7.165.7.165.7.124.74.164.74.124.7.124.74.124.74.082.74.082.7.124.74.041.7.082.7.083.658.041.658.041.658.042.617.041.617.041h.576l.576.041h1.028v1.48h-1.645l-.576-.041-.658-.041h-.617l-.658-.042-.7-.082-.7-.041-.7-.083-.7-.041-.74-.083-.74-.082-.74-.124-.741-.082-.74-.124-.74-.123-.781-.123-.74-.165-.74-.165-.7-.165-.74-.165-.7-.165-.7-.206-.7-.206-.658-.206-.658-.247-.617-.206-.617-.247-.575-.288-.576-.288-.494-.288Zm.411.576a.747.747,0,0,1-.288-1.028.772.772,0,0,1,1.028-.247Zm15.009-18.381,1.48-.041h0l-.041.7-.164.617-.247.576-.37.535-.452.411-.494.329-.576.288-.576.288-.617.206-.658.206-.7.165-.7.206-.7.206-.74.205-.74.206-.7.247-.74.247-.7.329-.658.329-.658.411-.617.452-.617.494-.535.576-.493.658-.494.7-.411.823-.329.946-.288,1.028-.206,1.152-.165,1.274-.041,1.4.041,1.563-1.521.083-.041-1.645.082-1.521.165-1.4.206-1.233.329-1.193.411-1.028.494-.946.534-.864.617-.781.617-.658.7-.617.74-.494.74-.452.781-.411.781-.329.781-.288.74-.288.781-.206.74-.206.74-.206.658-.206.658-.165.617-.206.576-.165.452-.206.452-.247.329-.247.288-.247.206-.247.124-.329.083-.329.041-.452Zm-3.249-10.691,1.48.082h0v1.111l.041.329.041.288.083.247.082.247.082.247.083.247.082.206.124.206.123.205.124.247.165.206.165.206.123.247.165.247.165.246.165.288.165.288.165.288.164.329.124.329.165.371.124.411.123.411.124.411.083.494.082.494.041.534.041.576.041.617-1.48.041-.041-.576-.042-.493-.041-.494-.082-.452-.083-.411-.082-.37-.124-.37-.082-.329-.124-.288-.123-.288-.165-.288-.124-.247-.123-.246-.165-.247-.124-.206-.165-.247-.165-.247-.164-.206-.124-.247-.165-.247-.165-.247-.123-.288-.124-.288-.124-.288-.123-.329-.083-.329-.082-.329-.083-.371-.041-.411-.041-.411v-.453l.041-.452Zm.37-9.581,1.316.74h0l-.165.247-.083.247-.123.206-.082.247-.083.205-.041.247-.041.206-.042.247-.041.206v.945l.041.206v.247l.042.288.041.247.041.247.041.288.042.288.041.288.041.288.041.329.041.329.041.288v.37l.042.329v.371l.041.37v.37l-.041.371v.411l-1.48-.082v-1.727l-.041-.288-.041-.329v-.288l-.042-.329-.041-.288-.041-.288-.041-.288-.042-.288-.041-.247-.042-.288-.041-.288-.041-.288-.041-.288v-1.4l.041-.288.041-.288.041-.288.082-.288.124-.329.083-.288.123-.288.165-.329.165-.288Zm9.17-4.976.165,1.48h-.987l-.206.041h-.206l-.247.042-.247.041-.288.041-.288.041-.288.083-.329.082-.288.083-.329.123-.329.124-.329.124-.329.164-.329.206-.329.165-.329.247-.329.247-.288.247-.329.288-.288.329-.288.329-.288.37-.288.37-.247.452-1.316-.74.288-.494.329-.494.37-.411.329-.411.37-.37.37-.329.37-.329.37-.288.412-.247.37-.247.37-.206.411-.206.371-.165.37-.123.371-.124.37-.124.37-.082.329-.083.329-.082.329-.042.288-.041.288-.041.288-.041h1.11Zm.165,0a.745.745,0,0,1-.165,1.48Zm9.169,4.976-1.275.74h0l-.288-.452-.288-.37-.247-.37-.329-.329-.288-.329-.329-.288-.288-.247-.329-.247-.329-.247-.329-.165-.329-.206-.329-.164-.329-.124-.329-.124-.329-.123-.288-.083-.329-.082-.288-.083-.288-.041-.247-.041-.288-.041-.247-.042h-.206l-.205-.041h-.822l-.165-1.48h1.315l.247.041.288.041.288.041.329.042.329.082.329.083.37.082.37.124.37.124.37.123.37.165.411.206.37.206.412.247.37.247.37.288.37.329.37.329.37.37.37.411.329.411.329.494.288.494Zm.37,9.581-1.48.082h0v-.411l-.041-.371v-.37l.041-.37v-.371l.041-.329.042-.37v-.288l.041-.329.041-.329.041-.288.041-.288.042-.288.041-.288.041-.247.041-.247.041-.288v-.247l.042-.206v-.945l-.042-.206-.041-.247-.041-.206-.041-.247-.083-.205-.082-.247-.082-.206-.124-.247-.124-.247,1.275-.74.165.288.165.329.123.288.124.288.082.329.083.288.041.288.041.288.042.288v.288l.041.288-.041.288v.534l-.042.288-.041.288-.041.288-.041.288-.042.247-.041.288-.041.288-.041.288-.042.288v.329l-.041.288-.041.329-.041.288v1.727Zm-3.249,10.691-1.48-.041h0l.042-.617.041-.576.041-.534.082-.494.124-.494.082-.411.124-.411.124-.411.164-.371.124-.329.165-.329.165-.288.165-.288.164-.288.165-.246.165-.247.165-.247.124-.206.164-.206.124-.247.124-.205.124-.206.082-.206.124-.247.082-.247.041-.247.083-.247.041-.288.041-.329v-1.111l1.48-.082.041.452v.453l-.041.411-.041.411-.042.371-.082.329-.123.329-.124.329-.124.288-.124.288-.123.288-.165.247-.165.247-.124.247-.164.206-.165.247-.124.247-.165.206-.165.247-.123.246-.124.247-.165.288-.123.288-.083.288-.123.329-.124.37-.083.37-.082.411-.083.452-.041.494-.041.493-.042.576Zm15.05,18.381-.781-1.275-.37.617.041-1.562-.041-1.4-.123-1.274-.247-1.152-.288-1.028-.329-.946-.411-.823-.494-.7-.494-.658-.534-.576-.617-.494-.617-.452-.658-.411-.658-.329-.7-.329-.74-.247-.7-.247-.74-.206-.74-.205-.7-.206-.7-.206-.658-.165-.658-.206-.658-.206-.576-.288-.534-.288-.535-.329-.453-.411-.37-.535-.247-.576-.164-.617-.042-.7,1.48.041.042.452.082.329.124.329.206.247.288.247.329.247.453.247.493.206.535.165.617.206.658.165.658.206.74.206.74.206.781.206.781.288.74.288.781.329.781.411.74.452.74.494.7.617.658.658.575.781.535.864.493.946.411,1.028.329,1.193.247,1.233.124,1.4.082,1.521-.041,1.645Zm.37-.576a.778.778,0,0,1-.823.7.765.765,0,0,1-.7-.781Zm-21.793,4.688v-1.48h1.028l.576-.041h.576l.617-.041.617-.041.658-.042.658-.041.7-.041.658-.083.74-.082.7-.041.7-.124.74-.082.74-.082.74-.124.7-.124.74-.124.74-.164.7-.124.7-.165.7-.165.7-.165.658-.206.658-.206.617-.206.617-.205.617-.206.535-.247.535-.247.535-.247.452-.247.781,1.275-.535.288-.576.288-.576.288-.617.247-.617.206-.658.247-.658.206-.7.206-.7.206-.7.165-.74.165-.7.165-.74.165-.74.165-.74.123-.781.123-.74.124-.74.082-.74.124-.74.082-.74.083-.7.041-.7.083-.7.041-.7.082-.658.042h-.617l-.617.041-.617.041h-1.645Zm0,0a.74.74,0,0,1,0-1.48Z" transform="translate(-4037 -7579)" fill="#fff"></path></g><g id="Group_5072" data-name="Group 5072" transform="translate(-633.354 -1048)"><path id="Path_4540" data-name="Path 4540" d="M4690.3,7540.93l1.521-.082h0v.288l-.041.206-.042.247-.041.247-.082.206-.082.206-.082.206-.124.205-.164.165-.124.165-.165.165-.165.123-.165.165-.164.083-.206.124-.206.123-.164.082-.206.083-.206.082-.206.083-.206.082-.247.083-.206.082-.247.042-.206.082-.247.041-.206.083-.247.082-.247.042-.246.082-.247.041-.247.083-.371-1.439.247-.083.247-.082.247-.042.206-.082.247-.041.247-.083.206-.041.205-.083.206-.041.206-.082.206-.042.164-.082.165-.082.164-.041.165-.083.165-.082.123-.041.124-.082.123-.083.082-.082.083-.083.083-.082.082-.083.082-.082.041-.083.041-.082.041-.083.042-.124v-.082l.041-.124v-.288Zm-2.056-5.88,1.48.082-.082-.411.082.124.041.123.083.124.083.082.082.124.082.123.082.124.083.124.083.165.082.124.082.123.082.165.083.165.124.124.082.164.082.206.083.165.083.206.082.165.041.206.082.205.083.247.042.205.082.247.041.247.041.288.041.247.041.288.041.288.042.329v.288l.041.329-1.521.082v-.329l-.041-.288v-.247l-.042-.288-.041-.206-.041-.247-.041-.247-.041-.206-.041-.165-.042-.206-.041-.165-.083-.206-.041-.164-.083-.124-.041-.164-.082-.165-.083-.124-.083-.124-.041-.165-.082-.123-.082-.124-.083-.124-.083-.124-.082-.123-.082-.123-.082-.124-.083-.123-.083-.124-.082-.124-.082-.124-.083-.123-.083-.165Zm.082.411a.755.755,0,0,1,1.316-.74Zm-.246-7.566,1.274-.74h0l.165.247.124.247.123.288.083.247.083.247.082.247.082.288.041.247.041.247.041.247v.247l.042.247v.493l-.042.247v.206l-.041.247v.247l-.041.247-.041.247v.206l-.041.247-.041.247-.042.247-.041.247-.041.247-.042.247v.247l-.041.288-.042.247v.288l-.041.247-1.48-.082.042-.288v-.288l.041-.288.042-.288v-.247l.041-.288.042-.247.041-.247.041-.247.041-.247.041-.247v-.206l.041-.247.042-.205v-.206l.041-.206v-1.192l-.041-.206-.042-.206-.041-.165-.041-.206-.041-.206-.082-.165-.082-.206-.083-.206-.124-.206-.082-.206Zm-.822-1.521,1.48.123-.165-.493h.041v.041l.041.041.042.041v.042l.041.041h.042v.041l.041.041v.042l.041.041.041.041v.041h.041v.041l.041.042.041.041v.041l.041.041h0l.041.042v.041l.042.041.041.041v.042l.042.041v.041l.041.041v.041l.041.041v.042l.041.041-1.274.74-.041-.042v-.041l-.041-.041h0l-.042-.041v-.042l-.041-.041v-.041h-.042v-.041l-.041-.042v-.041l-.041-.041h0l-.041-.041v-.042h-.041v-.041l-.041-.041v-.041h-.042v-.041l-.041-.041v-.041h-.042v-.042l-.041-.041h0l-.042-.041v-.041h-.041v-.041Zm.164.535a.741.741,0,0,1,.123-1.069.731.731,0,0,1,1.028.165Zm.535-2.755,1.316.74h0l-.041.083-.042.041v.041l-.041.083-.042.041v.041l-.041.083-.041.041v.041l-.041.042v.041l-.041.082v.083l-.041.041v.083l-.041.041v.082l-.041.041v.165l-.041.041v.206l-.042.041v.123l-1.48-.123v-.206l.041-.042v-.206l.041-.082v-.124l.041-.082v-.083l.041-.041v-.082l.041-.083v-.082l.042-.041v-.082l.041-.083.042-.041v-.083l.041-.082.042-.041v-.083l.041-.082.041-.083.041-.041v-.083l.041-.082.041-.041.042-.082.041-.083Zm7.648-4.153.165,1.521h-1.151l-.206.042-.205.041-.206.041-.247.041-.247.042-.247.082-.247.083-.247.082-.288.083-.247.123-.288.124-.247.164-.246.165-.288.165-.247.206-.247.206-.247.206-.247.247-.246.288-.247.288-.206.329-.206.329-1.316-.74.288-.411.247-.37.288-.37.287-.329.288-.329.329-.288.288-.247.329-.247.329-.206.329-.205.329-.165.329-.165.288-.124.329-.123.329-.124.288-.082.288-.083.288-.082.287-.041.247-.042.247-.041.247-.041h.206l.206-.041h.74Zm.165,0a.742.742,0,0,1,.658.822.774.774,0,0,1-.823.7Zm7.648,4.153-1.316.74h0l-.205-.329-.206-.329-.247-.288-.246-.288-.247-.247-.246-.206-.247-.206-.247-.206-.288-.165-.247-.165-.247-.164-.287-.124-.247-.123-.288-.083-.247-.082-.247-.083-.247-.082-.247-.042-.206-.041-.247-.041-.205-.041-.206-.042h-.986l-.165-1.521h.905l.205.041h.206l.246.041.247.041.247.042.288.041.288.082.288.083.288.082.329.124.328.123.288.124.329.165.329.165.329.205.329.206.329.247.288.247.329.288.288.329.288.329.288.37.288.37.247.411Zm.329,7.977-1.48.083h0l-.041-.329v-.946l.041-.329v-.288l.041-.247.042-.288v-.247l.041-.247.041-.247.041-.247.041-.247v-.206l.041-.247.042-.206v-.206l.041-.206v-.37l.042-.206-.042-.165v-.37l-.041-.165-.042-.206-.041-.165-.041-.165-.082-.206-.083-.164-.082-.206-.124-.206,1.316-.74.124.247.123.288.124.247.082.247.082.247.082.247.041.288.042.206v.247l.041.247v.74l-.041.206v.247l-.042.206-.041.247-.041.247v.206l-.041.247-.041.247-.041.206-.042.247v.247l-.041.247-.042.247v.535l-.041.288v.247l.041.288v.329Zm-2.673,8.8-1.48-.082h0v-.494l.041-.452.041-.452.082-.411.082-.412.083-.37.124-.329.082-.329.123-.329.124-.288.123-.247.165-.247.124-.247.123-.247.124-.206.165-.206.123-.165.123-.206.083-.164.124-.165.123-.206.083-.165.083-.165.082-.165.041-.206.083-.206.041-.206.042-.247v-.247l.041-.247v-.617l1.48-.083v1.069l-.041.37-.083.288-.041.288-.082.288-.083.288-.124.247-.123.206-.124.247-.124.206-.123.206-.123.206-.124.206-.123.165-.124.205-.123.206-.124.165-.123.206-.083.206-.124.206-.082.247-.124.247-.083.246-.082.288-.082.329-.041.329-.082.37-.041.37-.042.412v.493Zm12.294,15.214-.781-1.275-.37.576.041-1.233-.041-1.151-.123-1.069-.164-.9-.247-.864-.288-.74-.329-.658-.371-.576-.411-.535-.452-.452-.452-.411-.493-.37-.535-.288-.576-.288-.576-.247-.575-.247-.576-.206-.575-.165-.617-.165-.575-.165-.576-.124-.576-.165-.535-.164-.535-.206-.493-.206-.452-.247-.453-.288-.37-.371-.329-.411-.206-.534-.164-.535v-.617l1.48.082v.329l.083.247.082.247.164.206.206.165.288.206.329.164.411.165.411.165.494.165.534.123.576.165.617.165.617.165.617.206.658.205.617.247.658.288.616.329.658.37.575.452.576.493.576.535.494.658.452.7.411.823.329.863.247.946.206,1.069.123,1.152.041,1.233v1.357Zm.37-.617a.774.774,0,0,1-.822.7.74.74,0,0,1-.7-.782Zm-13.98,3.249,1.4-.453-.781-.493.411-.042.411-.041.411-.041.411-.083.411-.041.411-.041.452-.083.412-.041.411-.083.411-.041.453-.082.411-.083.411-.082.411-.083.411-.082.411-.083.411-.082.411-.123.37-.083.411-.124.37-.082.37-.123.37-.124.37-.124.329-.124.37-.123.329-.124.288-.124.329-.165.288-.123.288-.165.247-.124.781,1.275-.328.165-.329.165-.329.164-.329.165-.37.165-.329.124-.37.124-.37.165-.411.123-.37.124-.411.123-.37.083-.411.123-.411.124-.452.083-.411.123-.411.082-.453.083-.412.082-.452.083-.411.082-.453.083-.411.041-.452.082-.411.042-.453.082-.411.041-.452.083-.412.041-.411.041-.411.042-.411.041Zm.781.535a.774.774,0,0,1-.822-.7.684.684,0,0,1,.658-.781ZM4685,7547.386l1.48.041h0l.041.371.041.329.123.288.124.206.205.247.247.206.287.206.329.165.412.206.452.164.452.165.535.165.576.124.576.165.576.164.658.165.617.206.658.206.658.206.658.247.658.288.658.329.617.329.617.411.617.452.576.535.576.535.535.658.452.658.453.782.37.822.329.9-1.4.453-.288-.781-.328-.7-.371-.658-.412-.575-.452-.535-.452-.494-.534-.411-.494-.412-.535-.329-.576-.329-.576-.288-.617-.247-.576-.247-.617-.206-.617-.165-.617-.206-.616-.165-.617-.164-.575-.123-.576-.165-.576-.165-.535-.206-.493-.206-.494-.206-.452-.247-.453-.288-.37-.37-.329-.411-.288-.453-.206-.494-.082-.575-.041-.576Zm1.027-3.906.371,1.439.535-.535-.041.082v.083l-.041.082v.083l-.041.082v.124l-.042.124v.082l-.041.041v.124l-.042.083v.164l-.041.082v.206l-.041.082v.206l-.041.082v.329l-.041.124v.535l-.041.123v.123l-1.48-.041v-.494l.041-.123v-.37l.041-.124v-.329l.041-.123v-.124l.042-.083v-.205l.041-.124v-.082l.041-.124V7545l.042-.123v-.083l.041-.082v-.124l.042-.083v-.082l.041-.083v-.123l.041-.082v-.083l.041-.082Zm-.534.493a.749.749,0,0,1,1.439.411Z" transform="translate(-4685 -7520)" fill="#fff"></path></g></g></svg>