<?xml version="1.0" encoding="UTF-8"?>
<svg xmlns="http://www.w3.org/2000/svg" viewBox="0 0 54 54">
  <g id="Group_3304" data-name="Group 3304" transform="translate(-6842 -805)">
    <g id="Group_3303" data-name="Group 3303" transform="translate(0 -75)">
      <rect id="Rectangle_269" data-name="Rectangle 269" width="54" height="54" transform="translate(6842 880)" fill="#fff" opacity="0"></rect>
      <g id="Group_69" data-name="Group 69" transform="translate(6842.001 884.496)">
        <path id="Path_102" data-name="Path 102" d="M281.517,301.044l-4.624-9.148a1.257,1.257,0,0,0-.632-.59l-9.926-4.189-.958.958,10.4,4.387.075.149-12.181,4.747-4.882-2.7-.629.629,5.056,2.788v10.413l-10.806-7.447-.9.9,11.252,7.752a1.257,1.257,0,0,0,1.195.125l16.932-7.061a1.255,1.255,0,0,0,.637-1.725Zm-17.453,7.377v-10.3l12.173-4.744,4.161,8.233Z" transform="translate(-228.103 -264.424)" fill="#0f2c52"></path>
        <path id="Path_103" data-name="Path 103" d="M242.574,280.245l.629-.627,6.532-6.509.958-.955,6.978-6.954a1.248,1.248,0,0,0,0-1.77l-13.433-13.386a1.258,1.258,0,0,0-1.775,0l-28.932,28.83a1.247,1.247,0,0,0,0,1.77l13.433,13.386a1.258,1.258,0,0,0,1.775,0l7.231-7.206.9-.895Zm-6.751,4.959-.9.9-6.64,6.617v-4.2l4.143-4.129.9-.9,5.387-5.368.629-.627,6.18-6.157.958-.955,5.66-5.641h4.218l-6.91,6.887-.958.955-6.428,6.4-.629.627Zm20.535-21.315h-4.218l-8.36-8.331v-4.2Zm-18.423,13.8L232.611,283l-.9.9-3.855,3.842-8.005-7.979,23.51-23.426,8.005,7.978-5.73,5.709-.958.955-6.108,6.087ZM243.353,250.93Zm-.428,3.19v1.438l-23.859,23.776h-4.218l28.077-27.976ZM214.42,279.762Zm3.2.426h1.444l8.36,8.331v4.2l-12.578-12.534Z" transform="translate(-213.164 -249.679)" fill="#0f2c52"></path>
      </g>
    </g>
  </g>
</svg>
