<svg xmlns="http://www.w3.org/2000/svg" id="icon_calendar" viewBox="0 0 56 56"><rect id="icon_mask" width="56" height="56" fill="none"></rect><g id="icon" transform="translate(-645 1)"><g id="&#x421;&#x433;&#x440;&#x443;&#x43F;&#x43F;&#x438;&#x440;&#x43E;&#x432;&#x430;&#x442;&#x44C;_2138" data-name="&#x421;&#x433;&#x440;&#x443;&#x43F;&#x43F;&#x438;&#x440;&#x43E;&#x432;&#x430;&#x442;&#x44C; 2138"><path id="&#x41A;&#x43E;&#x43D;&#x442;&#x443;&#x440;_1417" data-name="&#x41A;&#x43E;&#x43D;&#x442;&#x443;&#x440; 1417" d="M692.9,54.8h-40a2.9,2.9,0,0,1-2.9-2.9V8.2a2.9,2.9,0,0,1,2.9-2.9h40a2.9,2.9,0,0,1,2.9,2.9V51.9A2.969,2.969,0,0,1,692.9,54.8Zm-40-48.1a1.367,1.367,0,0,0-1.4,1.4V51.8a1.367,1.367,0,0,0,1.4,1.4h40a1.367,1.367,0,0,0,1.4-1.4V8.2a1.367,1.367,0,0,0-1.4-1.4h-40Z" fill="#0f2c52"></path></g><g id="&#x421;&#x433;&#x440;&#x443;&#x43F;&#x43F;&#x438;&#x440;&#x43E;&#x432;&#x430;&#x442;&#x44C;_2139" data-name="&#x421;&#x433;&#x440;&#x443;&#x43F;&#x43F;&#x438;&#x440;&#x43E;&#x432;&#x430;&#x442;&#x44C; 2139"><path id="&#x41A;&#x43E;&#x43D;&#x442;&#x443;&#x440;_1418" data-name="&#x41A;&#x43E;&#x43D;&#x442;&#x443;&#x440; 1418" d="M691.7,49.5H654.1V21.1h37.6Zm-9.2-1h8.1V40.4h-8.1Zm-9.1,0h8.1V40.4h-8.1Zm-9.1,0h8.1V40.4h-8.1Zm-9.2,0h8.1V40.4h-8.1Zm27.4-9.1h8.1V31.3h-8.1Zm-9.1,0h8.1V31.3h-8.1Zm-9.1,0h8.1V31.3h-8.1Zm-9.2,0h8.1V31.3h-8.1Zm27.4-9.2h8.1V22.1h-8.1Zm-9.1,0h8.1V22.1h-8.1Zm-9.1,0h8.1V22.1h-8.1Zm-9.2,0h8.1V22.1h-8.1Z" fill="#ff8055"></path></g><g id="&#x421;&#x433;&#x440;&#x443;&#x43F;&#x43F;&#x438;&#x440;&#x43E;&#x432;&#x430;&#x442;&#x44C;_2140" data-name="&#x421;&#x433;&#x440;&#x443;&#x43F;&#x43F;&#x438;&#x440;&#x43E;&#x432;&#x430;&#x442;&#x44C; 2140"><path id="&#x41A;&#x43E;&#x43D;&#x442;&#x443;&#x440;_1419" data-name="&#x41A;&#x43E;&#x43D;&#x442;&#x443;&#x440; 1419" d="M688.4,11.7h-1.5V0h1.5Zm-29.5,0h-1.5V0h1.5Z" fill="#0f2c52"></path></g></g></svg>