<svg xmlns="http://www.w3.org/2000/svg" viewBox="0 0 46.268 54"><defs><style>.a{fill:#0f2c52;}</style></defs><path class="a" d="M1981.721,35.369H1980.7l-.14-1.439-.033-1.018a16.684,16.684,0,0,1,33.369.005l-.032,1.018-.14,1.439h-.614v-.506l-.3-.038.086-.954.027-.959a15.717,15.717,0,1,0-31.435,0l.027.959.043.523h.151v.97Z" transform="translate(-1974.08 -11.876)"></path><path class="a" d="M1973.915,31.885h-1.288l-.14-1.676-.027-1.024a21.035,21.035,0,1,1,42.07,0l-.027,1.024-.14,1.676h-1.083v-.771l-.3-.032.07-.943.021-.954a19.575,19.575,0,1,0-39.15,0l.021.954.07.943-.091.011v.792Z" transform="translate(-1970.359 -8.15)"></path><path class="a" d="M2034.533,47.906h-3.642V66.2h3.642V64.56h5.528a1.38,1.38,0,0,0,1.379-1.379V50.923a1.38,1.38,0,0,0-1.379-1.379h-5.528Zm-3.949-1.46h4.251a1.159,1.159,0,0,1,1.158,1.158v.48h4.068a2.813,2.813,0,0,1,2,.835,2.854,2.854,0,0,1,.835,2V63.181a2.852,2.852,0,0,1-2.84,2.84h-4.068v.48a1.159,1.159,0,0,1-1.158,1.158h-4.251a1.134,1.134,0,0,1-.814-.339,1.157,1.157,0,0,1-.34-.819V47.6a1.157,1.157,0,0,1,.34-.819,1.143,1.143,0,0,1,.814-.339Z" transform="translate(-1996.633 -25.809)"></path><path class="a" d="M1976.626,46.46h4.251a1.135,1.135,0,0,1,.814.339,1.157,1.157,0,0,1,.34.819v18.9a1.157,1.157,0,0,1-.34.819,1.144,1.144,0,0,1-.814.339h-4.251a1.159,1.159,0,0,1-1.159-1.158v-.48H1971.4a2.852,2.852,0,0,1-2.839-2.84V50.943a2.852,2.852,0,0,1,2.839-2.84h4.068v-.48a1.159,1.159,0,0,1,1.159-1.158Zm3.95,1.46h-3.642v1.638h-5.528a1.38,1.38,0,0,0-1.379,1.379V63.2a1.38,1.38,0,0,0,1.379,1.379h5.528v1.638h3.642Z" transform="translate(-1968.56 -25.818)"></path><path class="a" d="M2015.793,96.08h4.181a.943.943,0,0,1,.657.269l.016.016a.958.958,0,0,1,.269.657v4.736a.942.942,0,0,1-.269.657l-.016.016a.943.943,0,0,1-.657.269h-4.181a.956.956,0,0,1-.657-.269l-.016-.016a.943.943,0,0,1-.269-.657V97.023a.957.957,0,0,1,.269-.657l.016-.016A.956.956,0,0,1,2015.793,96.08Zm3.664,1.46h-3.147v3.7h3.147Z" transform="translate(-1989.908 -48.702)"></path><path class="a" d="M2034.254,81.39c.237,4.553-.722,7.533-2.452,9.348-1.751,1.837-4.257,2.479-7.1,2.36l.038-.97c2.575.108,4.828-.447,6.358-2.058,1.552-1.633,2.408-4.375,2.187-8.632Z" transform="translate(-1994.451 -41.927)"></path></svg>