<svg xmlns="http://www.w3.org/2000/svg" xmlns:xlink="http://www.w3.org/1999/xlink" viewBox="0 0 56 56"><defs><clipPath id="clip-path"><rect width="56" height="56" fill="none"></rect></clipPath></defs><g id="icon_oil" clip-path="url(#clip-path)"><rect id="icon_mask" width="56" height="56" fill="none"></rect><g id="icon" transform="translate(-258.235 -5.7)"><g id="&#x421;&#x433;&#x440;&#x443;&#x43F;&#x43F;&#x438;&#x440;&#x43E;&#x432;&#x430;&#x442;&#x44C;_2111" data-name="&#x421;&#x433;&#x440;&#x443;&#x43F;&#x43F;&#x438;&#x440;&#x43E;&#x432;&#x430;&#x442;&#x44C; 2111" transform="translate(267.452 5.7)"><path id="&#x41A;&#x43E;&#x43D;&#x442;&#x443;&#x440;_1396" data-name="&#x41A;&#x43E;&#x43D;&#x442;&#x443;&#x440; 1396" d="M303.815,61.627a.8.8,0,0,1-.807-.8V6.5a.794.794,0,0,1,.807-.8.741.741,0,0,1,.807.8V60.823A.8.8,0,0,1,303.815,61.627Zm-35.508,0a.8.8,0,0,1-.807-.8V6.5a.794.794,0,0,1,.807-.8.741.741,0,0,1,.807.8V60.823C269.013,61.325,268.711,61.627,268.307,61.627Z" transform="translate(-267.5 -5.7)" fill="#0f2c52"></path></g><g id="&#x421;&#x433;&#x440;&#x443;&#x43F;&#x43F;&#x438;&#x440;&#x43E;&#x432;&#x430;&#x442;&#x44C;_2112" data-name="&#x421;&#x433;&#x440;&#x443;&#x43F;&#x43F;&#x438;&#x440;&#x43E;&#x432;&#x430;&#x442;&#x44C; 2112" transform="translate(265.8 5.7)"><path id="&#x41A;&#x43E;&#x43D;&#x442;&#x443;&#x440;_1397" data-name="&#x41A;&#x43E;&#x43D;&#x442;&#x443;&#x440; 1397" d="M305.13,7.255H266.6a.781.781,0,0,1-.8-.778.728.728,0,0,1,.8-.778H305.13a.778.778,0,1,1,0,1.555Z" transform="translate(-265.8 -5.7)" fill="#0f2c52"></path></g><g id="&#x421;&#x433;&#x440;&#x443;&#x43F;&#x43F;&#x438;&#x440;&#x43E;&#x432;&#x430;&#x442;&#x44C;_2113" data-name="&#x421;&#x433;&#x440;&#x443;&#x43F;&#x43F;&#x438;&#x440;&#x43E;&#x432;&#x430;&#x442;&#x44C; 2113" transform="translate(266.092 15.087)"><path id="&#x41A;&#x43E;&#x43D;&#x442;&#x443;&#x440;_1398" data-name="&#x41A;&#x43E;&#x43D;&#x442;&#x443;&#x440; 1398" d="M305.148,20.054H266.6a.486.486,0,1,1,0-.972h38.545a.486.486,0,1,1,0,.972Zm0-4.082H266.6a.486.486,0,1,1,0-.972h38.545a.486.486,0,1,1,0,.972Z" transform="translate(-266.1 -15)" fill="#0f2c52"></path></g><g id="&#x421;&#x433;&#x440;&#x443;&#x43F;&#x43F;&#x438;&#x440;&#x43E;&#x432;&#x430;&#x442;&#x44C;_2114" data-name="&#x421;&#x433;&#x440;&#x443;&#x43F;&#x43F;&#x438;&#x440;&#x43E;&#x432;&#x430;&#x442;&#x44C; 2114" transform="translate(265.8 60.072)"><path id="&#x41A;&#x43E;&#x43D;&#x442;&#x443;&#x440;_1399" data-name="&#x41A;&#x43E;&#x43D;&#x442;&#x443;&#x440; 1399" d="M305.13,61.255H266.6a.781.781,0,0,1-.8-.778.728.728,0,0,1,.8-.778H305.13a.778.778,0,1,1,0,1.555Z" transform="translate(-265.8 -59.7)" fill="#0f2c52"></path></g><g id="&#x421;&#x433;&#x440;&#x443;&#x43F;&#x43F;&#x438;&#x440;&#x43E;&#x432;&#x430;&#x442;&#x44C;_2115" data-name="&#x421;&#x433;&#x440;&#x443;&#x43F;&#x43F;&#x438;&#x440;&#x43E;&#x432;&#x430;&#x442;&#x44C; 2115" transform="translate(266.092 47.186)"><path id="&#x41A;&#x43E;&#x43D;&#x442;&#x443;&#x440;_1400" data-name="&#x41A;&#x43E;&#x43D;&#x442;&#x443;&#x440; 1400" d="M305.148,51.854H266.6a.486.486,0,1,1,0-.972h38.545a.486.486,0,1,1,0,.972Zm0-4.082H266.6a.486.486,0,1,1,0-.972h38.545a.486.486,0,1,1,0,.972Z" transform="translate(-266.1 -46.8)" fill="#0f2c52"></path></g><g id="&#x421;&#x433;&#x440;&#x443;&#x43F;&#x43F;&#x438;&#x440;&#x43E;&#x432;&#x430;&#x442;&#x44C;_2116" data-name="&#x421;&#x433;&#x440;&#x443;&#x43F;&#x43F;&#x438;&#x440;&#x43E;&#x432;&#x430;&#x442;&#x44C; 2116" transform="translate(281.059 26.548)"><path id="&#x41A;&#x43E;&#x43D;&#x442;&#x443;&#x440;_1401" data-name="&#x41A;&#x43E;&#x43D;&#x442;&#x443;&#x440; 1401" d="M285.66,39.516a4.874,4.874,0,0,1-4.86-4.86c0-2.624,2.721-7.29,4.471-8.262l.389-.194.389.194c1.944,1.166,4.471,5.735,4.471,8.262A4.874,4.874,0,0,1,285.66,39.516Zm0-11.663c-1.361,1.166-3.4,4.957-3.4,6.706a3.4,3.4,0,0,0,6.8,0C289.062,32.712,287.118,29.116,285.66,27.852Z" transform="translate(-280.8 -26.2)" fill="#0f2c52"></path></g></g></g></svg>