<svg xmlns="http://www.w3.org/2000/svg" viewBox="0 0 75 122"><g id="Group_6303" data-name="Group 6303" transform="translate(-646 -549)"><g id="Group_6301" data-name="Group 6301"><g id="Group_6294" data-name="Group 6294"><g id="Group_6293" data-name="Group 6293"><rect id="Rectangle_24073" data-name="Rectangle 24073" width="75" height="75" transform="translate(646 549)" fill="none"></rect><g id="Group_6290" data-name="Group 6290" transform="translate(646 555)"><path id="Path_2271" data-name="Path 2271" d="M314.095,282.922A3.029,3.029,0,0,1,317.07,286a1.353,1.353,0,1,0,2.705,0,5.729,5.729,0,0,0-5.41-5.752v-2a1.353,1.353,0,1,0-2.705,0v1.968H307.6a1.353,1.353,0,0,0-1.353,1.353v8.853a1.352,1.352,0,0,0,1.353,1.353h9.468v6.148h-5.14a3.03,3.03,0,0,1-2.976-3.074,1.353,1.353,0,0,0-2.705,0,5.729,5.729,0,0,0,5.41,5.752V302.6a1.353,1.353,0,0,0,2.705,0v-1.967h4.058a1.352,1.352,0,0,0,1.353-1.353v-8.853a1.352,1.352,0,0,0-1.353-1.353h-9.468v-6.147Z" transform="translate(-275.512 -246.023)" fill="#143051"></path><path id="Path_2272" data-name="Path 2272" d="M168.834,90.253A18.052,18.052,0,0,0,150.817,73.11H150.8a18.042,18.042,0,0,0-15.407,8.638,14.823,14.823,0,0,0-16.009,8.092,14.294,14.294,0,0,0-9.8,3.974A14.6,14.6,0,0,0,119.6,119.033h4.217a18.728,18.728,0,0,0,37.364,0H165.4a14.594,14.594,0,0,0,3.436-28.78ZM142.5,133.765a16.09,16.09,0,1,1,11.359-4.713A16.071,16.071,0,0,1,142.5,133.765Zm22.9-17.411h-4.217a18.728,18.728,0,0,0-37.364,0H119.6a11.92,11.92,0,0,1-8.178-20.595,11.594,11.594,0,0,1,8.765-3.22,1.341,1.341,0,0,0,1.336-.869,11.955,11.955,0,0,1,14.153-7.094,1.337,1.337,0,0,0,1.558-.653A15.369,15.369,0,0,1,150.8,75.788h.014a15.368,15.368,0,0,1,15.358,15.546,1.34,1.34,0,0,0,1.128,1.342,11.915,11.915,0,0,1-1.9,23.678Z" transform="translate(-105 -73.11)" fill="#143051"></path></g></g></g></g><g id="_02" data-name="02" transform="translate(670.355 645)"><circle id="Ellipse_83" data-name="Ellipse 83" cx="13" cy="13" r="13" transform="translate(-0.355)" fill="#f2672b"></circle><path id="Path_1743" data-name="Path 1743" d="M38.045,29.978V27.714H31.9c.948-1.346,2.478-2.08,3.763-3a4.578,4.578,0,0,0,2.325-3.947c0-2.539-2.08-4.069-4.467-4.069a4.633,4.633,0,0,0-2.509.642s-1.5.918-1.53.918a4.991,4.991,0,0,0-2.233,4.65h2.539l1.53-.918a4.022,4.022,0,0,1,.49-2.08h.061a1.9,1.9,0,0,1,1.958,2.019c-.031,1.591-1.591,2.386-2.723,3.182-2.264,1.53-4.1,2.815-4.1,5.813h9.545Z" transform="translate(-19.739 -11.591)" opacity="0.15"></path><g id="Group_3101" data-name="Group 3101" transform="translate(7.23 6.027)"><path id="Path_1744" data-name="Path 1744" d="M32.4,40.1" transform="translate(-30.717 -33.859)"></path><g id="Group_3100" data-name="Group 3100"><path id="Path_1745" data-name="Path 1745" d="M27.175,24.962c-.092-2.968,1.591-5.262,4.712-5.262,2.386,0,4.467,1.53,4.467,4.069a4.578,4.578,0,0,1-2.325,3.947c-1.285.918-2.815,1.652-3.763,3h6.149v2.264H26.9c.031-3,1.866-4.283,4.1-5.813,1.163-.8,2.723-1.591,2.723-3.182a1.9,1.9,0,0,0-1.958-2.019c-1.56,0-2.05,1.622-2.05,3Z" transform="translate(-26.9 -19.7)" fill="#fff"></path></g></g></g></g></svg>