<svg xmlns="http://www.w3.org/2000/svg" id="icon_peaks" viewBox="0 0 56 56"><rect id="icon_mask" width="56" height="56" fill="none"></rect><g id="icon" transform="translate(-516 -527)"><g id="Group_2434" data-name="Group 2434"><path id="Path_1669" data-name="Path 1669" d="M527,582.7a.472.472,0,0,1-.5-.5V570.8a.5.5,0,0,1,1,0v11.4A.472.472,0,0,1,527,582.7Zm0-28.6a.472.472,0,0,1-.5-.5V542.2a.5.5,0,0,1,1,0v11.4A.472.472,0,0,1,527,554.1Z" fill="#4c4c4c"></path></g><g id="Group_2435" data-name="Group 2435"><path id="Path_1670" data-name="Path 1670" d="M529.1,568.5h-4.2a1.9,1.9,0,0,1-1.9-1.9v-8.8a1.9,1.9,0,0,1,1.9-1.9h4.2a1.9,1.9,0,0,1,1.9,1.9v8.8A2.043,2.043,0,0,1,529.1,568.5Zm-4.2-11a.43.43,0,0,0-.4.4v8.8a.43.43,0,0,0,.4.4h4.2a.43.43,0,0,0,.4-.4v-8.8a.43.43,0,0,0-.4-.4Z" fill="#ff8055"></path></g><g id="Group_2436" data-name="Group 2436"><path id="Path_1671" data-name="Path 1671" d="M549.2,578.1a.472.472,0,0,1-.5-.5V566.2a.5.5,0,0,1,1,0v11.4A.642.642,0,0,1,549.2,578.1Zm0-28.7a.472.472,0,0,1-.5-.5V537.5a.5.5,0,0,1,1,0v11.4A.536.536,0,0,1,549.2,549.4Z" fill="#4c4c4c"></path></g><g id="Group_2437" data-name="Group 2437"><path id="Path_1672" data-name="Path 1672" d="M551.3,563.8h-4.2a1.9,1.9,0,0,1-1.9-1.9v-8.8a1.9,1.9,0,0,1,1.9-1.9h4.2a1.9,1.9,0,0,1,1.9,1.9v8.8A1.965,1.965,0,0,1,551.3,563.8Zm-4.2-11a.43.43,0,0,0-.4.4V562a.43.43,0,0,0,.4.4h4.2a.43.43,0,0,0,.4-.4v-8.8a.43.43,0,0,0-.4-.4Z" fill="#ff8055"></path></g><g id="Group_2438" data-name="Group 2438"><path id="Path_1673" data-name="Path 1673" d="M538.1,573.4a.472.472,0,0,1-.5-.5V561.5a.5.5,0,0,1,1,0v11.4A.536.536,0,0,1,538.1,573.4Zm0-28.6a.472.472,0,0,1-.5-.5V532.9a.5.5,0,0,1,1,0v11.4A.642.642,0,0,1,538.1,544.8Z" fill="#4c4c4c"></path></g><g id="Group_2439" data-name="Group 2439"><path id="Path_1674" data-name="Path 1674" d="M535.6,546.5h4.9a1.324,1.324,0,0,1,1.3,1.3V558a1.324,1.324,0,0,1-1.3,1.3h-4.9a1.324,1.324,0,0,1-1.3-1.3V547.8a1.4,1.4,0,0,1,1.3-1.3Z" fill="#ff8055" fill-rule="evenodd"></path></g><g id="Group_2440" data-name="Group 2440"><path id="Path_1675" data-name="Path 1675" d="M560.2,568.7a.472.472,0,0,1-.5-.5V556.8a.5.5,0,0,1,1,0v11.4A.472.472,0,0,1,560.2,568.7Zm0-28.6a.472.472,0,0,1-.5-.5V528.2a.5.5,0,0,1,1,0v11.4A.472.472,0,0,1,560.2,540.1Z" fill="#4c4c4c"></path></g><g id="Group_2441" data-name="Group 2441"><path id="Path_1676" data-name="Path 1676" d="M557.8,541.7h4.9A1.324,1.324,0,0,1,564,543v10.2a1.324,1.324,0,0,1-1.3,1.3h-4.9a1.324,1.324,0,0,1-1.3-1.3V543a1.324,1.324,0,0,1,1.3-1.3Z" fill="#ff8055" fill-rule="evenodd"></path></g></g></svg>