<svg xmlns="http://www.w3.org/2000/svg" viewBox="0 0 55.5 50.7"><defs><style>.a{fill:#0f2c52;}</style></defs><g transform="translate(0 -183.6)"><path class="a" d="M52.5,222.5h-15a.789.789,0,0,1-.8-.8.736.736,0,0,1,.8-.8h15a1.538,1.538,0,0,0,1.5-1.5V186.5a1.538,1.538,0,0,0-1.5-1.5H3a1.538,1.538,0,0,0-1.5,1.5v32.9A1.538,1.538,0,0,0,3,220.9H18a.789.789,0,0,1,.8.8.736.736,0,0,1-.8.8H3a2.946,2.946,0,0,1-3-3V186.6a2.946,2.946,0,0,1,3-3H52.5a2.946,2.946,0,0,1,3,3v32.9A3.009,3.009,0,0,1,52.5,222.5Z"></path><path class="a" d="M1.6,193a2.768,2.768,0,0,1-.9-.1c-.3,0-.4-.2-.4-.5v-5.9a2.8,2.8,0,0,1,2.8-2.8H9.4a.472.472,0,0,1,.5.5v.5A8.409,8.409,0,0,1,1.6,193Zm-.3-1h.4a7.17,7.17,0,0,0,7.2-7.2H3a1.793,1.793,0,0,0-1.8,1.8V192Z"></path><path class="a" d="M26.2,228.6a.764.764,0,0,1-.5-.2l-1-.9-1.4-.1a.675.675,0,0,1-.6-.4l-.6-1.3-1.2-.7a.842.842,0,0,1-.4-.7v-1.4l-.8-1.1a.755.755,0,0,1-.1-.8l.6-1.3-.3-1.4a.618.618,0,0,1,.2-.7l1-.9.3-1.4c.1-.3.2-.5.5-.6l1.3-.4.8-1.1a.908.908,0,0,1,.7-.3l1.4.2,1.2-.7a1.1,1.1,0,0,1,.8,0l1.2.7,1.4-.2a.908.908,0,0,1,.7.3l.8,1.1,1.3.4c.3.1.4.3.5.6l.3,1.4,1,.9a.663.663,0,0,1,.2.7l-.3,1.4.6,1.3a.8.8,0,0,1-.1.8l-.8,1.1v1.4a.755.755,0,0,1-.4.7l-1.2.7-.6,1.3a.675.675,0,0,1-.6.4l-1.4.1-1,.9a.952.952,0,0,1-.7.2l-1.3-.4-1.3.4Zm-2.4-2.7,1.2.1a.52.52,0,0,1,.4.2l.9.8,1.1-.4c.2,0,.3-.1.5,0l1.1.4.9-.8a.758.758,0,0,1,.4-.2l1.2-.1.5-1.1c.1-.1.2-.3.3-.3l1-.6v-1.2c0-.2.1-.3.1-.4l.7-1-.5-1.1a.446.446,0,0,1,0-.5l.3-1.2-.9-.8a.52.52,0,0,1-.2-.4l-.2-1.2-1.2-.4c-.2,0-.3-.1-.4-.3l-.7-1-1.2.1a.9.9,0,0,1-.5-.1l-1-.6-1,.6a.749.749,0,0,1-.5.1l-1.2-.1-.7,1a1.38,1.38,0,0,1-.4.3l-1.2.4-.2,1.2a.52.52,0,0,1-.2.4l-.9.8.3,1.2v.5l-.5,1.1.7,1a.6.6,0,0,1,.1.4v1.2l1,.6.3.3Z"></path><path class="a" d="M27.8,224.8a4.3,4.3,0,1,1,4.3-4.3A4.4,4.4,0,0,1,27.8,224.8Zm0-7.5a3.3,3.3,0,1,0,3.3,3.3A3.4,3.4,0,0,0,27.8,217.3Z"></path><path class="a" d="M24.6,234.3c-.1,0-.2,0-.2-.1a.536.536,0,0,1-.3-.4v-7a.5.5,0,0,1,1,0v6l2.4-1.8a.637.637,0,0,1,.6,0l2.4,1.8v-6.1a.5.5,0,0,1,1,0v7.1c0,.2-.1.4-.3.4-.2.1-.4.1-.5-.1l-2.9-2.2-2.9,2.2C24.8,234.3,24.7,234.3,24.6,234.3Zm22.7-25.7H8.2a.5.5,0,0,1,0-1H47.3a.5.5,0,0,1,0,1Zm0-5.1H8.2a.5.5,0,0,1,0-1H47.3a.5.5,0,0,1,0,1Zm0-5H8.2a.5.5,0,0,1,0-1H47.3a.5.5,0,0,1,0,1Z"></path><path class="a" d="M34.2,192.3H21.3a.5.5,0,1,1,0-1H34.1a.472.472,0,0,1,.5.5A.458.458,0,0,1,34.2,192.3Z"></path><path class="a" d="M53.9,193a8.237,8.237,0,0,1-8.2-8.2v-.5a.472.472,0,0,1,.5-.5h6.3a2.8,2.8,0,0,1,2.8,2.8v5.9a.458.458,0,0,1-.4.5Zm-7.2-8.2a7.17,7.17,0,0,0,7.2,7.2h.4v-5.4a1.793,1.793,0,0,0-1.8-1.8Z"></path><path class="a" d="M9.3,222.2H3a2.689,2.689,0,0,1-2.7-2.7v-5.9a.458.458,0,0,1,.4-.5c.3,0,.6-.1.9-.1a8.237,8.237,0,0,1,8.2,8.2v.5A.472.472,0,0,1,9.3,222.2Zm-8.1-8.1v5.4A1.793,1.793,0,0,0,3,221.3H8.8a7.17,7.17,0,0,0-7.2-7.2C1.5,214,1.4,214,1.2,214.1Z"></path><path class="a" d="M52.5,222.2H46.2a.472.472,0,0,1-.5-.5v-.5a8.237,8.237,0,0,1,8.2-8.2,2.768,2.768,0,0,1,.9.1c.3,0,.4.2.4.5v5.9A2.689,2.689,0,0,1,52.5,222.2Zm-5.8-1h5.8a1.793,1.793,0,0,0,1.8-1.8V214h-.4A7.234,7.234,0,0,0,46.7,221.2Z"></path></g></svg>