<svg xmlns="http://www.w3.org/2000/svg" viewBox="0 0 56 56"><g id="icon_news" transform="translate(-3647 -469)"><rect id="icon_mask" width="56" height="56" transform="translate(3647 469)" fill="none"></rect><g id="journalism" transform="translate(3649 471)"><g id="&#x421;&#x433;&#x440;&#x443;&#x43F;&#x43F;&#x438;&#x440;&#x43E;&#x432;&#x430;&#x442;&#x44C;_5422" data-name="&#x421;&#x433;&#x440;&#x443;&#x43F;&#x43F;&#x438;&#x440;&#x43E;&#x432;&#x430;&#x442;&#x44C; 5422" transform="translate(0 0)"><path id="&#x41A;&#x43E;&#x43D;&#x442;&#x443;&#x440;_5300" data-name="&#x41A;&#x43E;&#x43D;&#x442;&#x443;&#x440; 5300" d="M49.668,22.553H42.236V11.02a.767.767,0,0,0,0-.077c0-.019-.005-.037-.008-.055s0-.013,0-.02c0-.022-.01-.043-.016-.064l0-.008c-.007-.022-.014-.042-.023-.063l0-.008c-.008-.019-.017-.038-.027-.057l-.005-.011c-.009-.017-.019-.033-.029-.049l-.01-.016c-.01-.015-.021-.029-.032-.043l-.013-.017c-.014-.017-.029-.034-.045-.05l-.005-.006L31.759.225l0,0C31.738.2,31.721.189,31.7.175L31.689.164c-.015-.012-.03-.023-.046-.034L31.63.122C31.613.111,31.6.1,31.578.091l-.01,0c-.019-.01-.038-.019-.058-.028l-.006,0c-.021-.009-.042-.016-.064-.023l-.008,0c-.021-.006-.043-.012-.065-.016l-.019,0L31.292,0a.769.769,0,0,0-.077,0H2.819A2.822,2.822,0,0,0,0,2.819V46.592a5.9,5.9,0,0,0,5.895,5.895h40.7a5.9,5.9,0,0,0,5.895-5.895V25.372A2.822,2.822,0,0,0,49.668,22.553Zm-16.4-12.3A1.283,1.283,0,0,1,31.984,8.97V2.625l7.626,7.626ZM50.949,46.592a4.357,4.357,0,0,1-8.714,0V35.536a.769.769,0,1,0-1.538,0V46.592a5.88,5.88,0,0,0,1.928,4.357H5.895a4.362,4.362,0,0,1-4.357-4.357V2.819A1.283,1.283,0,0,1,2.819,1.538H30.447V5.749H5.895A1.8,1.8,0,0,0,4.1,7.543v9.226a1.8,1.8,0,0,0,1.794,1.794H13.55a.769.769,0,0,0,0-1.538H5.895a.257.257,0,0,1-.256-.256V7.543a.257.257,0,0,1,.256-.256H30.447V8.97a2.822,2.822,0,0,0,2.819,2.819H36.6v4.98a.257.257,0,0,1-.256.256H16.421a.769.769,0,1,0,0,1.538H36.341a1.8,1.8,0,0,0,1.794-1.794v-4.98H40.7V32.666a.769.769,0,1,0,1.538,0V24.091h7.432a1.283,1.283,0,0,1,1.281,1.281Z" transform="translate(0 0)" fill="#0f2c52"></path><path id="&#x41A;&#x43E;&#x43D;&#x442;&#x443;&#x440;_5301" data-name="&#x41A;&#x43E;&#x43D;&#x442;&#x443;&#x440; 5301" d="M41.794,223.895H56.018a1.8,1.8,0,0,0,1.794-1.794V207.877a1.8,1.8,0,0,0-1.794-1.794H41.794A1.8,1.8,0,0,0,40,207.877V222.1A1.8,1.8,0,0,0,41.794,223.895Zm-.256-16.018a.257.257,0,0,1,.256-.256H56.018a.257.257,0,0,1,.256.256V222.1a.257.257,0,0,1-.256.256H41.794a.257.257,0,0,1-.256-.256Z" transform="translate(-35.899 -184.957)" fill="#0f2c52"></path><path id="&#x41A;&#x43E;&#x43D;&#x442;&#x443;&#x440;_5302" data-name="&#x41A;&#x43E;&#x43D;&#x442;&#x443;&#x440; 5302" d="M251.641,206.083H239.519a.769.769,0,1,0,0,1.538h12.122a.769.769,0,1,0,0-1.538Z" transform="translate(-214.275 -184.957)" fill="#ff8055"></path><path id="&#x41A;&#x43E;&#x43D;&#x442;&#x443;&#x440;_5303" data-name="&#x41A;&#x43E;&#x43D;&#x442;&#x443;&#x440; 5303" d="M251.641,245.771H239.519a.769.769,0,1,0,0,1.538h12.122a.769.769,0,1,0,0-1.538Z" transform="translate(-214.275 -220.576)" fill="#ff8055"></path><path id="&#x41A;&#x43E;&#x43D;&#x442;&#x443;&#x440;_5304" data-name="&#x41A;&#x43E;&#x43D;&#x442;&#x443;&#x440; 5304" d="M251.641,285.458H239.519a.769.769,0,0,0,0,1.538h12.122a.769.769,0,0,0,0-1.538Z" transform="translate(-214.275 -256.195)" fill="#ff8055"></path><path id="&#x41A;&#x43E;&#x43D;&#x442;&#x443;&#x440;_5305" data-name="&#x41A;&#x43E;&#x43D;&#x442;&#x443;&#x440; 5305" d="M251.641,325.146H239.519a.769.769,0,1,0,0,1.538h12.122a.769.769,0,1,0,0-1.538Z" transform="translate(-214.275 -291.814)" fill="#ff8055"></path><path id="&#x41A;&#x43E;&#x43D;&#x442;&#x443;&#x440;_5306" data-name="&#x41A;&#x43E;&#x43D;&#x442;&#x443;&#x440; 5306" d="M251.641,364.833H239.519a.769.769,0,0,0,0,1.538h12.122a.769.769,0,0,0,0-1.538Z" transform="translate(-214.275 -327.433)" fill="#ff8055"></path><path id="&#x41A;&#x43E;&#x43D;&#x442;&#x443;&#x440;_5307" data-name="&#x41A;&#x43E;&#x43D;&#x442;&#x443;&#x440; 5307" d="M73.266,404.521h-32.5a.769.769,0,0,0,0,1.538h32.5a.769.769,0,0,0,0-1.538Z" transform="translate(-35.899 -363.052)" fill="#ff8055"></path><path id="&#x41A;&#x43E;&#x43D;&#x442;&#x443;&#x440;_5308" data-name="&#x41A;&#x43E;&#x43D;&#x442;&#x443;&#x440; 5308" d="M73.266,444.208h-32.5a.769.769,0,1,0,0,1.538h32.5a.769.769,0,1,0,0-1.538Z" transform="translate(-35.899 -398.671)" fill="#ff8055"></path></g></g></g></svg>