<svg xmlns="http://www.w3.org/2000/svg" id="Layer_1" data-name="Layer 1" viewBox="0 0 1464.95 1006.34"><defs><style>      .cls-1 {        opacity: .08;      }      .cls-2 {        opacity: .12;      }      .cls-3 {        fill: #f4b27b;      }      .cls-4 {        fill: #f7c87a;      }      .cls-5 {        fill: #f1565b;      }      .cls-6 {        fill: #f2794e;      }      .cls-7 {        fill: #f5b078;      }      .cls-8 {        fill: #f5ad8f;      }      .cls-9 {        fill: #e8a06f;      }      .cls-10 {        fill: #fff;      }      .cls-11 {        fill: #f1f1f1;      }      .cls-12 {        fill: #f2b279;      }      .cls-13 {        fill: #e7611d;      }      .cls-14 {        fill: #f16838;      }      .cls-15 {        fill: #6acaca;      }      .cls-16 {        fill: #979797;      }      .cls-17 {        fill: #7c7c7c;      }      .cls-18 {        fill: #b3b3b3;      }      .cls-19 {        fill: #b55200;      }      .cls-20 {        fill: #b2b2b2;      }      .cls-21 {        fill: #d25b25;      }      .cls-22 {        fill: #db9d70;      }      .cls-23 {        fill: #e19b66;      }      .cls-24 {        fill: #e45f1b;      }      .cls-25 {        fill: #1f3154;      }      .cls-26 {        fill: #415b85;      }      .cls-27 {        fill: #1b3055;      }      .cls-28 {        fill: #3e3e3f;      }      .cls-29 {        fill: #3e3e3e;      }      .cls-30 {        fill: #2c2c2c;      }      .cls-31 {        fill: #344e7b;      }      .cls-32 {        fill: #5874a4;      }      .cls-33 {        fill: #3c3948;      }      .cls-34 {        fill: #2f2f2f;      }      .cls-35 {        fill: #2e2e2e;      }      .cls-36 {        fill: #602d22;      }      .cls-37 {        fill: #534f6e;      }      .cls-38 {        fill: #534849;      }      .cls-39 {        opacity: .16;      }      .cls-40 {        opacity: .2;      }      .cls-41 {        opacity: .18;      }    </style></defs><g><path class="cls-20" d="M1464.95,844.41c0,17.55-87.72,31.77-195.93,31.77s-195.92-14.23-195.92-31.77,87.72-31.77,195.92-31.77,195.93,14.22,195.93,31.77Z"></path><path class="cls-20" d="M1168.75,974.57c0,17.55-150.11,31.77-335.28,31.77s-335.27-14.23-335.27-31.77,150.11-31.77,335.27-31.77,335.28,14.22,335.28,31.77Z"></path><path class="cls-20" d="M670.54,903.4c0,17.55-150.11,31.77-335.27,31.77S0,920.95,0,903.4s150.11-31.77,335.27-31.77,335.27,14.23,335.27,31.77Z"></path><rect class="cls-18" x="122.39" y="548.09" width="6.06" height="128.97"></rect><rect class="cls-18" x="169.99" y="547.11" width="6.06" height="128.97"></rect><path class="cls-18" d="M210.23,588.66H92.83c-21.1,0-38.37-17.26-38.37-38.37v-26.58c0-21.1,17.27-38.37,38.37-38.37l118.86,10.87c21.1,0,36.91,14,36.91,35.1v18.98c0,21.11-17.27,38.37-38.37,38.37Z"></path><g class="cls-2"><path d="M210.23,588.66H92.83c-21.1,0-38.37-17.26-38.37-38.37v-26.58c0-21.1,17.35,45.37,38.45,45.37l100.32,5.2c21.1,0,55.37-64.07,55.37-42.97v18.98c0,21.11-17.27,38.37-38.37,38.37Z"></path></g><path class="cls-18" d="M267.58,683.49c-.38,61.13-.76,122.27-1.14,183.4-.04,6.41,9.09,6.41,9.13,0,.38-61.13,.75-122.27,1.13-183.4,.04-6.41-9.08-6.41-9.13,0h0Z"></path><path class="cls-31" d="M336.21,649.8l-26.35,38.27-33.15,116.96,20.67,7.93c55.46-105.23,91.68-168.32,91.68-168.32l-7.27-33.04-45.58,38.21Z"></path><path class="cls-24" d="M276.71,805.02c-12.38,8.99-19.07,19.28-19.07,19.28l-1.3,33.86,3.86,1.48,11.72-25.98,3.6,1.38-6.56,24.28,52.55,19.76,12.17-3.84,4.61-7.85c-23.67-9.98-27.79-23.33-27.79-23.33-6.9-15.47-13.12-31.12-13.12-31.12l-20.67-7.93Z"></path><path class="cls-31" d="M159.95,622.49l-4.75,31.57,29.49,26.56c86.65-12.83,189.98-23.75,189.98-23.75l-10.91,45.16,10.91,121.07h22.14c14.13-118.1,25.36-189.98,25.36-189.98l-18.61-28.24-133.5,7.7-110.11,9.92Z"></path><polygon class="cls-31" points="159.95 622.49 173.02 593.74 250.86 597.18 260.74 617.54 159.95 622.49"></polygon><path class="cls-9" d="M270.06,357.12c-12.2,15.41-16.69,42.36-16.69,42.36-19.26-14.76-29.46-26.61-29.46-26.61l7.6-26.28,30.84-19.65,7.7,30.17Z"></path><path class="cls-24" d="M253.37,399.48c10.91,14.76,33.37,45.57,33.37,45.57,10.27,17.33-7.06,44.28-7.06,44.28-21.82,30.81-32.09,75.1-32.09,75.1-4.49,20.54,4.4,35.06,4.4,35.06l-78.97-5.98c21.72-82.43,8.45-164.2,8.45-164.2l19.02-36.9,23.42-19.54,29.46,26.61Z"></path><g class="cls-40"><path d="M279.68,489.34c-21.82,30.81-32.09,75.1-32.09,75.1-4.49,20.54,4.4,35.06,4.4,35.06l-24.43-1.86-1.55-53.22,53.68-55.08Z"></path></g><path class="cls-24" d="M374.67,823.09c-8.34,12.84-10.91,24.83-10.91,24.83l10.91,32.09h4.13l1.65-28.46h3.85l2.57,25.03,56.15-.35,9.99-7.95,1.49-8.98c-25.67-.85-34.29-11.84-34.29-11.84-11.98-11.98-23.39-24.37-23.39-24.37h-22.14Z"></path><path class="cls-18" d="M110.02,683.01c-.38,64.94-.76,129.88-1.14,194.81-.03,5.89,9.09,5.89,9.13,0,.38-64.94,.77-129.87,1.14-194.81,.04-5.89-9.09-5.88-9.13,0h0Z"></path><path class="cls-18" d="M155.96,678.36c-.38,63.69-.76,127.38-1.14,191.07-.04,6.48,9.09,6.47,9.13,0,.38-63.69,.76-127.38,1.14-191.07,.04-6.48-9.09-6.48-9.13,0h0Z"></path><path class="cls-12" d="M280.8,274.17l11.59,32.54-3.96,14.23,11.36,11.83-8.25,5.7-3.24,16.41,1.33,14.37-5.26,4.53-31.09-9.6-17.35-25.2c-9.38-4.61,14.73-9.24,14.73-9.24,1.35-9.62,9.66-5.96,9.66-5.96,10.08-21.85,13.7-34.82,13.7-34.82l6.77-14.77Z"></path><path class="cls-36" d="M280.8,274.17c-40.45-30.44-70.63-2.35-70.63-2.35l-12.73,21.78-6.37,22.87,15.51,25.64,14.92,11.49,32.22-11.21,27.08-68.22Z"></path><path class="cls-12" d="M341.77,496.2c19.18-4.89,33.12-15.4,33.12-15.4l7.05-8.56,9.74-12.78c.16-1.22-9.53,7.33-12.37,7.74l-.53-.13c.01-.37,14.64-11.57,14.66-11.88,.02-1.14,.03-1.91,.03-1.91-.49,.12-15.95,9.83-15.95,9.83l-.34-.32c.03-.66,16.76-12.01,16.77-12.62,.01-.29,.05-1.79,.06-2.06,.01-.6-17.88,9.92-17.87,9.4,0-.37,17.92-11.82,17.92-12.15,.03-1.64,.03-2.67,.03-2.67-7.73,5.09-14.71,7.66-20.64,10.54-.64,.3-17.04,8.28-17.04,8.28l12.57-9.17,1.94-4.54-20.88,10.64c-5.38,4.16-12.78,25.26-12.78,25.26l4.49,12.5Z"></path><path class="cls-6" d="M260.59,508.11c4.12,6.89,14.53,21.6,29.41,13.43l-7.46-9.57c8-4.76,11.16-14.23,7.04-21.13l-43.59-73.21c-4.11-6.9-13.95-8.63-21.95-3.86h0c-8.02,4.76-11.17,14.23-7.05,21.13l43.59,73.21Z"></path><path class="cls-6" d="M268.59,513.99c2.72,7.55,11.05,11.48,18.61,8.76l50.51-21.7c7.56-2.72,12.61-7.93,9.89-15.47h0c-2.72-7.57-9.92-8.37-17.48-5.65l-52.76,15.43c-7.55,2.72-11.48,11.05-8.76,18.62h0Z"></path><path class="cls-36" d="M246.98,265.16c-22.89-11.41-36.63-5.15-36.63-5.15-37.6,16.57-45.26,190.12-45.26,190.12-1.22,19.16,24.14,63.53,24.14,63.53,13.31-74.17,46.71-123.62,46.71-123.62,18.9-50.46,11.04-124.88,11.04-124.88Z"></path><rect class="cls-18" x="91.08" y="670.26" width="198.92" height="14.88"></rect><g><g><polygon class="cls-11" points="1147.87 677.69 713.8 655.44 713.8 36.51 1147.87 25.38 1147.87 677.69"></polygon><path class="cls-30" d="M708.06,660.86V30.93l445.53-11.44V683.72l-445.53-22.86h0Zm439.8,16.84l.29-5.72-.29,5.72h0ZM719.52,42.07V649.99l422.61,21.68V31.24l-422.61,10.83h0Z"></path></g><g><path class="cls-5" d="M725.93,566.99c9.58,4.63,19.11,9.33,28.62,14.07l-.59-.07c15.35-4.05,30.7-8.06,46.11-11.89l-.87,.5,36.86-40.31,1.57-1.71,1.82,1.51,53.23,44.33-3.87,.32c19-22.44,37.92-44.94,57.07-67.24l1.82-2.12,2.14,1.76,44.03,36.32-.58-.35,21.38,9.76c7.14,3.21,14.19,6.63,21.3,9.94l-2.28,.31,51.07-41.99,.97-.81,.88,.87,27.07,26.8-1.25-.06c8.21-6.12,16.42-12.24,24.72-18.24-7.79,6.65-15.67,13.19-23.54,19.74l-.62,.53-.64-.6-27.65-26.19,1.84,.07-50.06,43.18-1.01,.87-1.26-.55c-7.19-3.12-14.42-6.13-21.57-9.35l-21.49-9.53-.3-.13-.28-.23-44.31-35.99,3.96-.36c-18.94,22.49-38.1,44.79-57.19,67.16l-1.78,2.09-2.09-1.77-52.85-44.77,3.38-.2-37.92,39.31-.38,.4-.49,.11c-15.48,3.51-31,6.84-46.52,10.13l-.32,.07-.26-.14c-9.31-5.14-18.6-10.31-27.84-15.57Z"></path><path class="cls-15" d="M723.65,612.02c9.57,4.63,19.11,9.33,28.62,14.07l-.58-.07c15.34-4.04,30.7-8.05,46.1-11.89l-.87,.5,36.87-40.31,1.57-1.71,1.82,1.51,53.23,44.34-3.87,.32c19-22.44,37.92-44.94,57.08-67.25l1.82-2.12,2.13,1.76,44.03,36.33-.58-.36,21.38,9.76c7.14,3.23,14.2,6.64,21.3,9.94l-2.28,.32,51.06-42,.98-.79,.87,.86,27.07,26.8-1.26-.07c8.21-6.11,16.42-12.23,24.72-18.23-7.78,6.66-15.67,13.2-23.54,19.74l-.63,.53-.63-.59-27.65-26.19,1.84,.06-50.06,43.19-1.01,.87-1.26-.55c-7.19-3.12-14.42-6.13-21.57-9.35l-21.49-9.52-.3-.13-.28-.22-44.31-35.98,3.95-.36c-18.93,22.49-38.1,44.78-57.19,67.15l-1.78,2.09-2.09-1.77-52.85-44.77,3.38-.21-37.93,39.32-.37,.39-.49,.11c-15.47,3.52-30.99,6.85-46.52,10.15l-.33,.07-.26-.14c-9.31-5.13-18.59-10.31-27.84-15.56Z"></path></g><g><polygon class="cls-5" points="1062.3 212 1061.4 160.35 1142.5 160.35 1142.7 164.24 1065.36 164.24 1066.18 211.93 1062.3 212"></polygon><polygon class="cls-5" points="978.28 262.43 977.39 210.79 1065.74 210.79 1065.74 214.67 981.35 214.67 982.17 262.36 978.28 262.43"></polygon><polygon class="cls-5" points="894.98 312.1 894.08 260.45 981.65 260.45 981.65 264.34 898.04 264.34 898.86 312.03 894.98 312.1"></polygon><g><polygon class="cls-15" points="932.32 361.78 931.42 310.14 1012.52 310.14 1012.72 314.03 935.37 314.03 936.2 361.72 932.32 361.78"></polygon><polygon class="cls-15" points="848.3 412.21 847.41 360.57 935.75 360.57 935.75 364.45 851.36 364.45 852.19 412.15 848.3 412.21"></polygon><polygon class="cls-15" points="765 461.88 764.1 410.23 851.66 410.23 851.66 414.12 768.06 414.12 768.88 461.82 765 461.88"></polygon></g><polygon class="cls-5" points="810.11 361.77 809.22 310.12 898.21 310.12 898.21 314.01 813.17 314.01 814 361.7 810.11 361.77"></polygon><polygon class="cls-5" points="727.39 397.91 726.73 359.79 813.23 359.79 813.23 363.68 730.69 363.68 731.28 397.85 727.39 397.91"></polygon></g><g><path class="cls-4" d="M973.88,119.83l55.61-.24c0-15.29-6.26-28.93-16.37-38.48-1.26-1.17-2.59-2.3-3.97-3.34-1.65-1.24-3.4-2.37-5.2-3.42l-30.06,45.47Z"></path><path class="cls-15" d="M973.61,67.34h0c-30.86,1.72-50.96,25.08-50.96,52.48s20.1,51.05,50.96,52.49v-52.49h.27l30.06-45.47h0c-8.74-5.02-19.14-7.63-30.33-7.01Z"></path><path class="cls-5" d="M1033.94,153.71c.96-1.88,1.79-3.83,2.54-5.84,2.15-5.88,3.38-12.24,3.38-18.93h0l-55.61-.24-.27,.4v52.62h0c7.72,.43,15.07-.67,21.75-3.04,3.34-1.21,6.52-2.73,9.49-4.55,1.49-.91,2.92-1.91,4.3-2.95,2.77-2.12,5.3-4.52,7.58-7.16,1.83-2.14,3.44-4.44,4.91-6.87,.69-1.11,1.33-2.26,1.93-3.43Z"></path></g><g><rect class="cls-15" x="855.81" y="80.42" width="15.03" height="173.06"></rect><rect class="cls-28" x="839.11" y="195.8" width="15.03" height="57.69"></rect><rect class="cls-5" x="822.41" y="109.27" width="15.03" height="144.22"></rect><rect class="cls-4" x="805.72" y="138.11" width="15.03" height="115.38"></rect><rect class="cls-18" x="789.02" y="166.96" width="15.03" height="86.52"></rect></g></g><g class="cls-1"><polygon points="1147.87 677.69 713.8 655.44 1032.32 548.09 1147.87 25.38 1147.87 677.69"></polygon></g><polygon class="cls-28" points="1176.94 29.05 685.66 44.77 684.73 20.51 1176.01 0 1176.94 29.05"></polygon><rect class="cls-12" x="464.02" y="389.22" width="35.97" height="50.36"></rect><path class="cls-12" d="M594.77,540.76c17.94-8.35,29.71-21.25,29.71-21.25l5.35-9.72,7.22-14.36c-.07-1.22-8.02,8.97-10.73,9.89l-.54-.04c-.06-.36,12.25-14.06,12.2-14.38-.18-1.12-.31-1.88-.31-1.88-.46,.2-13.86,12.6-13.86,12.6l-.4-.25c-.09-.65,14.26-14.9,14.16-15.51-.04-.28-.29-1.76-.33-2.03-.1-.59-15.74,13.06-15.83,12.54-.06-.37,15.43-14.93,15.38-15.25-.29-1.62-.47-2.63-.47-2.63-6.65,6.43-13.04,10.24-18.33,14.17-.57,.42-15.22,11.29-15.22,11.29l10.67-11.32,1.06-4.83-18.56,14.31c-4.52,5.09-7.89,27.19-7.89,27.19l6.72,11.45Z"></path><path class="cls-26" d="M424.82,411.47c-20.51,2.09-33.73,29.9-33.73,29.9-14.25,35.81-27.82,97.71-27.82,97.71l9.04,13.21,16.34-9.39,36.16-131.44Z"></path><path class="cls-12" d="M593.12,667.2c26.07,64.16,30.24,78.07,30.24,78.07l17.74,118.23-20.79,4.82c-34.78-89.36-40.93-105.76-40.93-105.76l-12.35-69.44,26.09-25.91Z"></path><polygon class="cls-12" points="503.75 718.15 491.23 749.8 486.49 855.16 503.75 856.2 513.14 812.04 541.3 709.81 503.75 718.15"></polygon><path class="cls-12" d="M577.47,581.16l22.6-44.16c-7.3-4.87-11.3-8.35-11.3-8.35l-30.07,36.16,18.78,16.34Z"></path><path class="cls-26" d="M547.25,432.93c4.39,4.04,33.34,105.46,33.34,105.46l5.56,19.12-8.69,23.64-26.25-9.04s-28.73-78.17-30.42-84.15c-13.64-48.18-5.38-59.99,6.43-60.88,7.46-.57,15.64,1.81,20.04,5.85Z"></path><g class="cls-2"><path d="M558.69,560.68l13.25,10.79,14.22-13.96-8.69,23.64-26.25-9.04s-28.73-78.17-30.42-84.15c-22.25-78.59,37.9,72.71,37.9,72.71Z"></path></g><path class="cls-26" d="M530.18,506.39l-28.86,70.93,3.82,53.55c-68.5,26.08-119.61,1.74-119.61,1.74,10.43-66.42,10.38-103.31,10.38-103.31l1.74-79.63,24.38-38.21,105.18,15.62,2.96,79.31Z"></path><g class="cls-2"><path d="M530.18,506.39l-28.86,70.93,3.82,53.55c-47.29,18.13-25.13-49.73-25.13-49.73l27.78-77.61,22.39-25.04v27.89Z"></path></g><path class="cls-14" d="M505.14,630.88c54.95,17.38,77.9,27.12,77.9,27.12,7.99,2.43,29.98,30.99,29.98,30.99-43.11,70.23-136.74,57.54-136.74,57.54v-41.03l-129.7-4.39c9.04-35.11,38.94-68.5,38.94-68.5l119.61-1.74Z"></path><g class="cls-2"><path d="M515.85,688.71c21.88,20.68-39.56,57.83-39.56,57.83v-41.03l-129.7-4.39c5.55-12.74,38.94-15.98,38.94-15.98l130.32,3.58Z"></path></g><path class="cls-28" d="M466.67,305.91l11.04-5.34c19.9-1.13,36.03,15.61,36.03,15.61,26.52,35.13,22.62,91.08,22.62,91.08-68.42,16.81-123.2,4.97-123.2,4.97-1.38-58.02,17.69-90.2,17.69-90.2,9.88-15,28.19-20.88,28.19-20.88l7.64,4.76Z"></path><g><path class="cls-28" d="M498.2,835.53c-9.07-2.95-11.9-3.24-11.9-3.24l-10.97,5.38-9.61,24.54-13.86,15.21,16.95,42.69,8.69-3.9,3.52-14.31,17.17-66.37Z"></path><polygon class="cls-28" points="477.51 838.01 445.31 858.96 449.11 866.69 467.53 857.64 477.51 838.01"></polygon></g><path class="cls-12" d="M503.75,856.2c-10.95,28.84-24.44,47.2-24.44,47.2,5.72-43.75,24.44-75.33,24.44-75.33v28.12Z"></path><g><path class="cls-28" d="M613,847.96c-6.9,6.58-8.49,8.94-8.49,8.94l-.44,12.21,17.07,20.07,6.85,19.4,45.63,5.26,.68-9.5-10.94-9.88-50.35-46.51Z"></path><polygon class="cls-28" points="605.39 867.35 608.62 905.63 617.23 905.94 617.98 885.44 605.39 867.35"></polygon></g><path class="cls-12" d="M641.1,863.5c10.77,16.14,19.82,29.64,19.82,29.64-49-26.3-39.62-45.18-39.62-45.18l19.8,15.54Z"></path><g><rect class="cls-16" x="365.67" y="710.33" width="6.06" height="200.57"></rect><rect class="cls-16" x="488.82" y="710.33" width="6.06" height="200.57"></rect><rect class="cls-18" x="332.88" y="695.46" width="198.91" height="14.87"></rect><rect class="cls-18" x="347.21" y="710.33" width="6.06" height="213.79"></rect><rect class="cls-18" x="511.97" y="710.33" width="6.06" height="213.79"></rect><rect class="cls-18" x="389.64" y="544.47" width="6.06" height="155.13"></rect><rect class="cls-18" x="464.02" y="547.76" width="6.06" height="155.14"></rect><rect class="cls-18" x="335.27" y="478.51" width="194.15" height="103.33" rx="6.7" ry="6.7"></rect></g><g class="cls-2"><path d="M491.04,581.83h-117.4c-21.11,0-38.37-17.26-38.37-38.37,0,0,25.72,21.59,97.07,21.59s97.08-21.59,97.08-21.59c0,21.11-17.27,38.37-38.37,38.37Z"></path></g><g class="cls-41"><path class="cls-10" d="M494.86,451.07s-29.59-15.39-50.32-.11c-20.23,14.92-40.7,15.26-40.7,.11s20.37-27.44,45.52-27.44,45.51,12.28,45.51,27.44Z"></path></g><rect class="cls-16" x="645.81" y="774.01" width="6.06" height="200.56"></rect><rect class="cls-16" x="768.95" y="774.01" width="6.06" height="200.56"></rect><polygon class="cls-27" points="634.51 686.4 625.69 735.98 638.92 759.13 783.28 759.13 790.45 733.78 777.73 692.01 692.37 678.68 634.51 686.4"></polygon><polygon class="cls-9" points="732.96 436.61 731.85 412.73 735.53 411.99 740.14 392.13 707.61 383.7 675.41 393.62 681.36 405.37 684.47 414.57 682.99 435.14 732.96 436.61"></polygon><path class="cls-24" d="M682.99,435.14l-66.85,27.91-27.55,138.79,47.75,63.24-1.83,21.31c55.47,14.69,143.22,5.61,143.22,5.61l5.56-47.07,32.06-73.47-12.96-106.06-69.43-28.8-49.96-1.47Z"></path><rect class="cls-18" x="613.02" y="759.13" width="198.91" height="14.87"></rect><polygon class="cls-31" points="687.96 774.01 696.77 810.37 696.77 909 668.67 912.86 648.84 814.23 648.84 774.01 687.96 774.01"></polygon><path class="cls-23" d="M696.77,909l6.06,3.86,5.23,44.63c-20.11,2.76-45.46,0-45.46,0l6.06-44.63,28.1-3.86Z"></path><polygon class="cls-31" points="735.07 774.01 726.25 810.37 726.25 909 754.35 912.86 774.19 814.23 774.19 774.01 735.07 774.01"></polygon><path class="cls-23" d="M726.25,909l-6.06,3.86-5.23,44.63c20.11,2.76,45.46,0,45.46,0l-6.06-44.63-28.09-3.86Z"></path><rect class="cls-18" x="627.34" y="774.01" width="6.06" height="213.8"></rect><rect class="cls-18" x="792.1" y="774.01" width="6.06" height="213.8"></rect><path class="cls-36" d="M735.62,308.08c-7.63-6.42-22.41-8.99-22.41-8.99l-40.12,8.43c-9.63,12.83-14.05,26.88-14.05,26.88l3.62,36.51c1.61,7.63,6.42,24.48,6.42,24.48l25.55,17.34,52.28-19.35c1.21-29.69,5.62-73.82,5.62-73.82l-16.91-11.48Z"></path><rect class="cls-18" x="669.77" y="608.14" width="6.06" height="155.13"></rect><rect class="cls-18" x="744.16" y="611.43" width="6.06" height="155.14"></rect><path class="cls-38" d="M707.37,951.52l.7,5.97c-20.11,2.76-45.46,0-45.46,0l1.02-7.53,43.73,1.56Z"></path><path class="cls-38" d="M715.65,951.52l-.7,5.97c20.11,2.76,45.46,0,45.46,0l-1.02-7.53-43.73,1.56Z"></path><path class="cls-18" d="M622.11,542.18h180.73c3.7,0,6.7,3,6.7,6.7v89.92c0,3.7-3,6.7-6.7,6.7h-180.73c-3.7,0-6.7-3-6.7-6.7v-89.92c0-3.7,3-6.7,6.7-6.7Z"></path><path class="cls-12" d="M732.74,374.13c0,6.42-2.11,11.62-4.71,11.62s-4.71-5.2-4.71-11.62,2.11-11.62,4.71-11.62,4.71,5.2,4.71,11.62Z"></path><path class="cls-12" d="M750.71,339.1l2.88,25.74,4.2,11.79-8.16,6.81,.16,30.96s-6,3.9-6.69,3.9-15.09-3.64-15.09-3.64v-38.26l22.68-37.29Z"></path><path class="cls-22" d="M1252.06,100.54c-.04,25.74,0,48.44,0,48.44-20.4,15.31-46.83,35.7-46.83,35.7,3.71-13.68,1.39-26.66,1.39-26.66,9.51-26.2,22.02-54.49,22.02-54.49,14.48-26.08,23.42-3,23.42-3Z"></path><path class="cls-11" d="M1233.84,358.39c-98.08-2.82-132.81-12.91-132.81-12.91,4.66-19.69,7.41-31.29,7.41-31.29,69.22,7.12,92.33,2.29,92.33,2.29,33.2,8.52,33.08,41.91,33.08,41.91Z"></path><path class="cls-17" d="M1259.66,156.27c23.41,13.68,46.36,32.68,46.36,32.68,6.03,6.26-7.89,44.74-7.89,44.74-18.08,51.46-18.24,144.72-18.24,144.72-71.87,31.3-92.79,22.45-93.49,22.41-13.67-.7-17.38-9.04-17.38-9.04,16.69-72.1,1.39-94.81,1.39-94.81-12.52-34.54,18.78-100.61,18.78-100.61,7.19-13.44,21.49-24.14,21.49-24.14l48.99-15.96Z"></path><g class="cls-2"><path d="M1306.02,188.95c6.03,6.26-7.89,44.74-7.89,44.74-18.08,51.46-18.24,144.72-18.24,144.72-3.99,1.74-7.53,4.61-11.5,4.85-20.77,1.26-25.56-112.66-25.56-112.66,27.95-77.78,63.19-81.65,63.19-81.65Z"></path></g><path class="cls-11" d="M1280.83,188.88c-18.42,3.25-23.19,22.04-23.19,22.04-7.88,19.14,19.21,113.43,19.21,113.43,18.79,9.03,40.46,28.18,40.46,28.18l7.59-23.12c-4.34-64.3-16.98-130.59-16.98-130.59-3.25-12.46-27.09-9.94-27.09-9.94Z"></path><path class="cls-35" d="M1161.31,413.01c-17.73,86.35,21.21,172.7,21.21,172.7,0,24.57,12.06,59.34,12.06,59.34,10.66,40.8,19.01,151.6,19.01,151.6,18.08,1.86,41.26-2.78,41.26-2.78,3.25-84.85,3.25-171.54,3.25-171.54,2.32-91.8-41.37-205.96-41.37-205.96-25.39-4.52-55.41-3.36-55.41-3.36Z"></path><path class="cls-7" d="M1108.44,314.2l-18.92-4.48-6.12-4.32-18.17,.52-5.75-1.36c.05,4.3,7.27,7.8,7.27,7.8l-16.17,2.62c-4.45,1.43-.87,8.18-.87,8.18,.91,2.18,10.68,.92,10.68,.92-9.77,1.26-10.38,3.08-10.38,3.08-2.97,1.98,1.3,6.6,1.3,6.6,2.24,3.35,10.52,.84,10.52,.84-8.28,2.5-8.24,5.37-8.24,5.37-2.37,2.48,4.53,5,4.53,5,4.67-.86,7.48-.49,7.48-.49l-5.27,2.45c-2.05,1.12,4.28,4.59,4.28,4.59,3.42,.63,37.06-8.73,37.06-8.73l6.77-28.58Z"></path><path class="cls-7" d="M1176.96,73.47c-5.1,24.28-3.95,31.7-3.95,31.7l3.02,5.33-2.09,22.02,10.2,16.69,3.01,16.92c6.72,1.86,17.38,0,17.38,0,11.59-3.24,24.34-16.46,24.34-16.46l4.63-9.27,2.78-19.24c11.13-3.48,12.98-12.06,12.98-12.06,4.63-12.75-1.85-13.68-1.85-13.68-7.89-3.71-14.14,7.89-14.14,7.89-3.25-32.92-14.38-36.7-14.38-36.7-14.61-8.5-36.62,0-36.62,0-5.1,2.16-5.33,6.85-5.33,6.85Z"></path><path class="cls-36" d="M1244.18,54.53c-27.59-13.11-60.74,1.96-60.74,1.96-9.73,6.34-8.37,26.74-8.37,26.74,10.69-13.06,45.23-10.75,45.23-10.75-3.01,12.06,7.42,23.64,7.42,23.64l-1.39,21.34,8.58-5.33-.31-10.85c13.99-18.59,16.36,2.74,16.36,2.74l.26,32.63,5.26-30.78c3.48-27.82-1.86-39.25-1.86-39.25-2.78-9.2-10.43-12.09-10.43-12.09Z"></path><path class="cls-11" d="M1256.01,158.72l-4.4-14.15c-41.5,26.43-46.37,40.11-46.37,40.11l12.75,14.14c17.16-19.47,38.02-40.1,38.02-40.1Z"></path><path class="cls-11" d="M1317.31,352.53c-96.09,19.86-132.21,18.06-132.21,18.06v-32.15c68.99-9.03,90.36-19.06,90.36-19.06,34.26,.64,41.85,33.15,41.85,33.15Z"></path><path class="cls-34" d="M1169.01,391.79l-7.7,21.22s13.39,7.65,33.38,6.43c0,0,34.77-1.74,87.97-22.43,0,0-.17-10.96-2.78-18.61l-110.87,13.38Z"></path><path class="cls-29" d="M1279.88,378.41c18.54,8.81,14.83,96.03,14.83,96.03l1.1,101.07,17.9,28.28c32.92,119.15,18.54,204.92,18.54,204.92-30.13,10.66-37.08-3.24-37.08-3.24-11.13-94.11-38.48-159.49-38.48-159.49l-6.49-9.92v-15.58c-28.74-83.91-45.9-161.8-45.9-161.8-3.7-20.86,1.53-71.33,1.53-71.33,38.09-12.95,74.05-8.93,74.05-8.93Z"></path><g class="cls-39"><path class="cls-10" d="M1279.88,378.41c18.54,8.81,14.83,96.03,14.83,96.03l1.1,101.07,17.9,28.28c32.92,119.15,18.54,204.92,18.54,204.92-2.63,.93-7.46,4.62-7.37,2.26,3.06-74.02-7.59-147.17-7.59-147.17l-9.79-58.82-24.86-9.71c-9.97-118.19-23.04-217.78-10.46-217.34,4.87,.17,7.69,.48,7.69,.48Z"></path></g><path class="cls-34" d="M1332.43,807.65c7.78,19.67,6.91,40.88,6.91,40.88-9.04,2.96-17.56,2.6-17.56,2.6l-1.39-5.74c-2.08,2.09-9.74,7.3-9.74,7.3-28.16,3.82-56.15,0-56.15,0-10.08-1.56-15.13-6.78-15.13-6.78-6.08-5.04,4.52-12.69,4.52-12.69,3.66-2.78,15.82-3.48,15.82-3.48,17.03-.52,35.47-24.28,35.47-24.28l37.25,2.18Z"></path><path class="cls-34" d="M1253.88,794.5c8.83,19.21,9.12,40.44,9.12,40.44-8.86,3.45-17.38,3.56-17.38,3.56l-1.7-5.65c-1.97,2.2-9.32,7.83-9.32,7.83-27.92,5.35-56.08,3.05-56.08,3.05-10.16-1.01-15.47-5.94-15.47-5.94-6.35-4.71,3.82-12.92,3.82-12.92,3.49-2.97,15.61-4.33,15.61-4.33,16.99-1.45,34.1-26.19,34.1-26.19l37.32,.16Z"></path><rect class="cls-35" x="1078.39" y="270.6" width="80.72" height="126.58"></rect><g class="cls-39"><polygon class="cls-10" points="1108.58 304.55 1078.39 397.18 1078.39 270.6 1159.11 270.6 1108.58 304.55"></polygon></g><path class="cls-3" d="M1185.1,338.44h-19.44l-6.96-2.79-17.56,4.7h-5.91c1.05,4.17,8.87,5.91,8.87,5.91l-15.13,6.28c-4,2.41,1.05,8.15,1.05,8.15,1.39,1.91,10.6-1.57,10.6-1.57-9.21,3.48-9.38,5.39-9.38,5.39-2.44,2.61,2.77,6.13,2.77,6.13,2.96,2.74,10.44-1.6,10.44-1.6-7.48,4.35-6.78,7.13-6.78,7.13-1.74,2.95,5.57,3.82,5.57,3.82,4.34-1.91,7.17-2.2,7.17-2.2l-4.57,3.6c-1.73,1.56,5.22,3.48,5.22,3.48,3.48-.18,34.05-17.04,34.05-17.04v-29.37Z"></path><polygon class="cls-7" points="872.98 469.02 855.99 475.45 848.39 487.27 846.77 510.75 899.22 708.11 908.14 692.59 872.98 469.02"></polygon><path class="cls-33" d="M989.08,930.3c-.4,30.18-3.93,56.51-3.93,56.51,14.94-2.76,25.56-2.76,25.56-2.76,15.33-51.88-4.32-59.65-4.32-59.65l-17.31,5.9Z"></path><path class="cls-33" d="M935.61,930.3c.4,30.18,3.93,56.51,3.93,56.51-14.94-2.76-25.55-2.76-25.55-2.76-15.33-51.88,4.33-59.65,4.33-59.65l17.29,5.9Z"></path><polygon class="cls-8" points="1014.23 751.3 1022.88 784.25 1006.38 878.37 1006.38 923.82 989.08 930.3 989.08 871.89 977.29 779.92 982 756.11 1014.23 751.3"></polygon><polygon class="cls-8" points="910.45 751.3 901.8 784.25 918.31 878.37 918.31 923.82 935.61 930.3 935.61 871.89 947.4 779.92 942.69 756.11 910.45 751.3"></polygon><g><path class="cls-37" d="M1013.05,934.14l-6.67-9.73-4.71-.98-4.7,.98-6.68,9.73,3.34,14.55c4.48,14.36,6.18,31.96,6.44,34.9v.48h3.19v-.48c.26-2.94,1.96-20.54,6.45-34.9l3.34-14.55Z"></path><path class="cls-37" d="M923.01,923.43l-4.7,.98-6.69,9.73,3.34,14.55c4.49,14.36,6.19,31.96,6.45,34.9v.48h3.19v-.48c.26-2.94,1.96-20.54,6.44-34.9l3.35-14.55-6.68-9.73-4.7-.98Z"></path></g><path class="cls-21" d="M1032.32,698.66l14.94,16.51-16.23,47.39c-69.58,32.22-137.05-4.92-137.05-4.92l-15.77-34.59,9.44-31.45,144.67,7.08Z"></path><path class="cls-7" d="M980.82,334.64l11.79,23.19v12.58l1.97,10.22c1.96,20.84-9.44,47.57-9.44,47.57h-13.75c-3.55-31.45,1.56-62.9,1.56-62.9l7.86-30.67Z"></path><path class="cls-7" d="M971.39,428.2c.78,12.97,0,24.76,0,24.76-13.38,14.16-45.61,5.12-45.61,5.12,2.75-31.06,0-41.37,0-41.37l45.1-32.19,.51,43.68Z"></path><path class="cls-32" d="M971.39,452.96c8.24,9.04,32.25,16.06,32.25,16.06l12.57,43.62c-24.38,98.28,16.12,186.03,16.12,186.03-73.12,22.8-146.89-2.19-144.67-7.08,29.92-65.99-22.8-161.18-22.8-161.18l8.13-61.39c25.16-7.08,53.42-18.9,53.42-18.9l44.99,2.84Z"></path><path class="cls-7" d="M1003.64,469.02c11.8-7.86,82.93-40.82,82.93-40.82v-98.28h17.29c3.93,45.61,4.72,110.08,4.72,110.08-52.68,52.67-92.38,72.64-92.38,72.64l-12.57-43.62Z"></path><path class="cls-4" d="M980.82,334.64c-13.76-9.44-25.55-13.37-25.55-13.37-18.08-.79-24.76,2.76-24.76,2.76-19.27,10.22-23.59,23.98-23.59,23.98-5.5,20.44,3.14,44.42,3.14,44.42,7.86,16.51,19.27,28.3,19.27,28.3h19.26c10.23-25.15,44.03-62.9,44.03-62.9l-11.79-23.19Z"></path><g class="cls-2"><path d="M883.79,551.69l28.09,56.45c-25.06,115.62,120.44,90.53,120.44,90.53-73.12,22.8-146.89-2.19-144.67-7.08,29.92-65.99-22.8-161.18-22.8-161.18l18.94,21.28Z"></path></g><g class="cls-2"><path d="M1012.72,500.52c11.79-7.86,90.11-62.45,90.11-62.45l1.03-108.16h0c3.93,45.61,4.72,110.08,4.72,110.08-52.68,52.67-92.38,72.64-92.38,72.64l-3.49-12.11Z"></path></g><rect class="cls-16" x="899.22" y="777.43" width="6.06" height="200.57"></rect><rect class="cls-16" x="1022.38" y="777.43" width="6.06" height="200.57"></rect><rect class="cls-18" x="866.44" y="762.56" width="198.92" height="14.87"></rect><rect class="cls-18" x="880.77" y="777.43" width="6.05" height="213.8"></rect><rect class="cls-18" x="1045.52" y="777.43" width="6.06" height="213.8"></rect><rect class="cls-18" x="923.19" y="611.57" width="6.06" height="155.13"></rect><rect class="cls-18" x="997.58" y="614.87" width="6.06" height="155.13"></rect><path class="cls-18" d="M868.07,556.48h180.73c3.7,0,6.7,3,6.7,6.7v89.92c0,3.7-3,6.7-6.7,6.7h-180.74c-3.7,0-6.7-3-6.7-6.7v-89.92c0-3.7,3-6.7,6.7-6.7Z"></path><g class="cls-2"><path d="M1017.14,659.8h-117.4c-21.11,0-38.37-17.27-38.37-38.37,0,0,25.72,21.59,97.07,21.59s97.07-21.59,97.07-21.59c0,21.1-17.26,38.37-38.37,38.37Z"></path></g><g class="cls-2"><path d="M771.18,645.51h-117.4c-21.11,0-38.37-17.27-38.37-38.37,0,0,25.72,21.59,97.07,21.59s97.07-21.59,97.07-21.59c0,21.1-17.26,38.37-38.37,38.37Z"></path></g><path class="cls-12" d="M1097.59,348.89c9.26-17.49,10.84-34.89,10.84-34.89l-1.6-10.97-2.92-15.8c-.8-.94-.97,11.98-2.57,14.36l-.46,.3c-.26-.26,1.27-18.61,1.04-18.84-.82-.78-1.39-1.31-1.39-1.31-.24,.44-3.44,18.41-3.44,18.41l-.47,.04c-.46-.46,2.37-20.48,1.93-20.91-.21-.2-1.29-1.23-1.49-1.42-.44-.42-4.66,19.91-5.04,19.55-.27-.26,3.28-21.21,3.04-21.44-1.2-1.12-1.96-1.81-1.96-1.81-1.42,9.14-4.21,16.04-6.06,22.36-.2,.68-5.32,18.19-5.32,18.19l1.66-15.47-2.07-4.49-6.14,22.62c-.54,6.78,10.12,26.43,10.12,26.43l12.28,5.08Z"></path><g><path class="cls-4" d="M979.16,580.77l21.45,.39c-37.57-74.2-31.97-253.88-31.97-253.88l-31.3-5.14-19.77-2.31c-48.29,40.87-42.86,98.48-42.86,98.48-.76,35.03,0,157.38,0,157.38l29.41,3.76c-.97-7.47-2.21-24.71-1.43-62.31,0,0-.7,27.3,8.6,62.44l31.94,.57c-.18-8.5,.21-30.59,5.36-79.4,0,0-3.62,43.83,1.39,79.52l19.02,.34c-2.52-9.04-5.81-26.14-5.56-53.08,0,0,4.68,35.25,15.72,53.26Z"></path><g class="cls-2"><path class="cls-19" d="M979.16,580.77l21.45,.39c-23.76-46.91-30.26-135.97-31.82-195.15l-19.94,50.6s14.34,117.85,14.59,90.91c0,0,4.68,35.25,15.72,53.26Z"></path></g></g></g><g><path class="cls-25" d="M774.39,91.82c-.39,0-.68-.35-.68-.66v-12.94c0-.65-.5-.96-.87-.96h-3.34c-.32,0-.63-.35-.63-.7s.31-.68,.63-.68h9.69c.37,0,.66,.29,.66,.68,0,.34-.23,.7-.66,.7h-4.17v13.9c0,.3-.28,.66-.63,.66"></path><path class="cls-25" d="M755.24,110.61c-.36,0-.66-.29-.66-.66v-14.6c0-.35,.31-.66,.66-.66h8.31c.35,0,.66,.31,.66,.66,0,.37-.31,.7-.66,.7h-6.63c-.46,0-1,.28-1,1.07v3.92h6.83c.42,0,.68,.36,.68,.7s-.28,.68-.68,.68h-6.83v7.53c0,.36-.31,.66-.68,.66"></path><path class="cls-25" d="M779.54,109.53l-3.82-5.89c-.13-.21-.25-.57-.25-1.02,0-.61,.26-1.07,.35-1.21l3.72-5.74c.12-.15,.19-.64-.16-.89-.29-.21-.73-.21-.99,.22l-4.14,6.38-4.14-6.38c-.13-.23-.49-.52-.97-.24-.28,.16-.38,.63-.18,.92l4.49,6.92-4.49,6.92c-.16,.25-.18,.71,.16,.95,.23,.16,.7,.14,.94-.22l4.18-6.44,4.18,6.44c.19,.3,.66,.41,.94,.22,.35-.24,.31-.69,.17-.95"></path><path class="cls-25" d="M767.47,91.83c-.29,0-.51-.21-.59-.4l-4.89-11.6c-.16-.26-.38-.4-.62-.4-.28,0-.55,.21-.72,.55l-4.8,11.46s-.22,.52-.87,.33c-.4-.12-.46-.59-.37-.83l6.16-14.61c.04-.08,.16-.41,.61-.42,.23,0,.51,.16,.62,.46l6.1,14.56c.04,.09,.1,.27,0,.51-.06,.14-.19,.27-.33,.33-.14,.06-.27,.07-.3,.07"></path><path class="cls-13" d="M755.12,86.79c-.4,0-.73-.33-.73-.73s.33-.73,.73-.73h9.19l.62,1.47h-9.81Z"></path></g></svg>