<svg xmlns="http://www.w3.org/2000/svg" id="Layer_1" data-name="Layer 1" viewBox="0 0 177.5 50"><defs><style>.cls-1{fill:#345d9d;}</style></defs><path class="cls-1" d="M25,0A25,25,0,1,0,50,25,25,25,0,0,0,25,0m.37,25.8-2.58,8.79H36.68a.72.72,0,0,1,.72.72.64.64,0,0,1,0,.2l-1.2,4.16a1,1,0,0,1-.92.69H14L17.6,28.21l-4,1.24.86-2.87,4-1.24,5-17a1,1,0,0,1,.92-.69h5.36a.72.72,0,0,1,.72.72.58.58,0,0,1,0,.19L26.24,22.93l4-1.23-.86,2.9Z"></path><path class="cls-1" d="M64.44,7.58H62.89a.54.54,0,0,0-.55.46l-4,31.83c0,.31,0,.46.37.46h1.55a.49.49,0,0,0,.54-.44v0L64.8,8c.09-.32-.09-.46-.4-.46"></path><path class="cls-1" d="M72.54,16.76H71a.5.5,0,0,0-.54.46h0L67.58,39.9a.38.38,0,0,0,.29.46h1.67a.52.52,0,0,0,.54-.46l2.84-22.65c0-.32-.08-.49-.4-.49"></path><path class="cls-1" d="M140.47,16.39a8.76,8.76,0,0,0-5.59,1.84,8.64,8.64,0,0,0-3.13,4.85,42.25,42.25,0,0,0-1,5.48,53,53,0,0,0-.43,5.48,6.73,6.73,0,0,0,1.92,4.88,7.22,7.22,0,0,0,5.17,1.84A8.83,8.83,0,0,0,143,38.92,8.58,8.58,0,0,0,146.11,34a44,44,0,0,0,1-5.48,48.49,48.49,0,0,0,.43-5.51,6.36,6.36,0,0,0-1.89-4.82,7.13,7.13,0,0,0-5.17-1.84m4.37,10c-.15,1.15-.23,1.89-.26,2.21-.29,2.35-.55,4-.78,5a6.37,6.37,0,0,1-2.21,3.62,6,6,0,0,1-3.9,1.35,4.59,4.59,0,0,1-4.88-4.28q0-.3,0-.6a23.45,23.45,0,0,1,.23-2.9c.14-1.15.23-1.9.26-2.21.28-2.24.54-3.9.77-5A6.48,6.48,0,0,1,136.29,20a6,6,0,0,1,3.91-1.35,4.91,4.91,0,0,1,3.55,1.32,4.77,4.77,0,0,1,1.32,3.53,26.08,26.08,0,0,1-.22,2.93"></path><path class="cls-1" d="M156.37,16.76h-1.52a.52.52,0,0,0-.54.46l-2.9,22.68a.38.38,0,0,0,.29.46h1.69a.5.5,0,0,0,.54-.46h0l2.85-22.65c0-.32-.09-.49-.41-.49"></path><path class="cls-1" d="M176,18.11a5.9,5.9,0,0,0-4.51-1.66,8.3,8.3,0,0,0-3.47.71,7,7,0,0,0-2.7,2.19c-.14.11-.2.08-.2-.09l.23-2c0-.29-.09-.46-.37-.46h-1.55a.54.54,0,0,0-.55.46L160,39.91c0,.28.06.46.37.46h1.55a.49.49,0,0,0,.52-.46h0l2.11-16.26A6.46,6.46,0,0,1,166.66,20a5.75,5.75,0,0,1,3.82-1.35A4.25,4.25,0,0,1,173.75,20,4.91,4.91,0,0,1,175,23.42a8.39,8.39,0,0,1-.06,1l-2,15.45a.55.55,0,0,0,0,.31.5.5,0,0,0,.38.15h1.55a.46.46,0,0,0,.51-.41v-.05l2-15.82c0-.63.08-1.09.08-1.4A5.84,5.84,0,0,0,176,18.08"></path><path class="cls-1" d="M73.54,7.61A1.88,1.88,0,0,0,71,8.36l0,.05A1.93,1.93,0,0,0,71.79,11a1.9,1.9,0,0,0,1.75-3.38"></path><path class="cls-1" d="M157.54,7.61a1.85,1.85,0,0,0-2.52.75l0,.05a1.91,1.91,0,1,0,3.39,1.78,2,2,0,0,0-.84-2.58"></path><path class="cls-1" d="M120.27,16.39a9.05,9.05,0,0,0-5.6,1.84,8.69,8.69,0,0,0-3.13,4.85,48.84,48.84,0,0,0-1,5.48,53,53,0,0,0-.43,5.48A6.7,6.7,0,0,0,112,38.92a7.15,7.15,0,0,0,5.16,1.84,8.83,8.83,0,0,0,5.57-1.84A8.58,8.58,0,0,0,125.9,34c0-.17.09-.34.11-.52a.22.22,0,0,0-.17-.25h-2a.27.27,0,0,0-.29.23v.08a6.51,6.51,0,0,1-2.21,3.62,6,6,0,0,1-3.91,1.35,4.59,4.59,0,0,1-4.88-4.28q0-.3,0-.6a25.56,25.56,0,0,1,.23-2.9c.12-1,.23-1.9.26-2.21.29-2.24.55-3.9.77-5a6.44,6.44,0,0,1,2.22-3.62,6,6,0,0,1,3.9-1.35,4.84,4.84,0,0,1,3.56,1.32,4.77,4.77,0,0,1,1.32,3.53h0a.39.39,0,0,0,.37.37H127a.29.29,0,0,0,.29-.28V23a6.35,6.35,0,0,0-1.9-4.82,7.28,7.28,0,0,0-5.16-1.78"></path><path class="cls-1" d="M104.68,18.23a7.14,7.14,0,0,0-5.14-1.84A8.75,8.75,0,0,0,94,18.23a8.64,8.64,0,0,0-3.13,4.85,48.84,48.84,0,0,0-1,5.48A38.67,38.67,0,0,0,89.39,34a6.73,6.73,0,0,0,1.92,4.88,7.22,7.22,0,0,0,5.17,1.84,8.83,8.83,0,0,0,5.57-1.84A8.58,8.58,0,0,0,105.18,34a3.46,3.46,0,0,1,.11-.52.19.19,0,0,0-.14-.24h-2a.27.27,0,0,0-.29.23v.08a6.37,6.37,0,0,1-2.21,3.62,6,6,0,0,1-3.9,1.35,4.59,4.59,0,0,1-4.88-4.28q0-.3,0-.6a23.71,23.71,0,0,1,.17-2.53l14-4.33c.29-.09.4-.23.46-.58a31.33,31.33,0,0,0,.14-3.21,6.74,6.74,0,0,0-1.92-4.79m-.55,6.51A.27.27,0,0,1,104,25L92.4,28.62v-.06c.29-2.24.54-3.9.77-5a6.48,6.48,0,0,1,2.21-3.62,6,6,0,0,1,3.91-1.35,4.88,4.88,0,0,1,3.56,1.32c1.4,1.46,1.43,3,1.34,4.85"></path><path class="cls-1" d="M84.1,37.86a.36.36,0,0,1,.5.14.37.37,0,0,1,.05.23l-.21,1.55a.62.62,0,0,1-.34.46,6.66,6.66,0,0,1-4.85.06c-1.78-.81-2.24-2.56-2-4.74l2-16.62.28-2.38.69-5.28a.48.48,0,0,1,.49-.46h1.55c.35,0,.43.2.37.46l-.89,7.52h4.85c.29,0,.41.17.41.46l-.15,1.09a.73.73,0,0,1-.14.37.63.63,0,0,1-.37.12h-4.8L79.85,34.47c-.17,1.47-.37,2.79.37,3.5,1,.81,2.87.35,3.85-.11"></path></svg>