<svg xmlns="http://www.w3.org/2000/svg" viewBox="0 0 177.284 42" width="177.3" height="42"><g id="Group_5245" data-name="Group 5245" transform="translate(-370 -326)"><rect id="Rectangle_7307" data-name="Rectangle 7307" width="177" height="42" transform="translate(370 326)" fill="red" opacity="0"></rect><g id="neteller" transform="translate(370 332)"><path id="Path_1172" data-name="Path 1172" d="M165.608,64.583a7.32,7.32,0,0,1-4.253.97H159.49l1.418-7.76h1.418a6.452,6.452,0,0,1,3.507.746,3.015,3.015,0,0,1,1.343,2.686,3.8,3.8,0,0,1-1.567,3.357m-111.621,9.7H39.442l.97-5.074h9.1l1.045-5.745H41.532l.9-5h14.4ZM173.443,54.138c-2.163-1.493-5.371-2.163-9.55-2.163H152.85l-4.1,22.309H134.272l.9-5.074H143.9l1.045-5.67h-8.729l.97-5.074h9.027l1.194-6.566H129.124l-3.88,21.194h-6.715L122.483,51.9h-9.7l-3.88,21.194h-6.566L106.293,51.9h-9.55l-4.1,22.384H78.016l.9-5.074h8.8l1.045-5.67H80.031l.9-5.074h9.1l1.19-6.566H34.293L31.086,69.583,24.6,51.975H14.671L9.3,80.849h9.475l3.208-18.2,6.267,18.2H62.2L66.3,58.54h5.3L67.5,80.849h89.233l2.611-14.1,4.178,14.1H173l-4.328-11.49.97-.224a8.546,8.546,0,0,0,5.074-2.984,9.175,9.175,0,0,0,1.79-5.819,6.9,6.9,0,0,0-3.059-6.192" transform="translate(-9.3 -51.9)" fill="#8dc640"></path><path id="Path_1173" data-name="Path 1173" d="M239.472,85.389l1.269-.075a1.491,1.491,0,0,0,.672-.149.746.746,0,0,0,.373-.3.947.947,0,0,0,.075-.448.677.677,0,0,0-.224-.522,1.118,1.118,0,0,0-.746-.149l-1.418.075Zm-.448,2.536-.224-4.552,2.014-.075a2.818,2.818,0,0,1,.9.075,1.339,1.339,0,0,1,.522.373,1.2,1.2,0,0,1,.224.672,1.122,1.122,0,0,1-.3.821,1.687,1.687,0,0,1-.97.448,1.63,1.63,0,0,1,.373.224,4.265,4.265,0,0,1,.522.6L242.9,87.7l-.746.075-.672-.9a5.948,5.948,0,0,1-.448-.6l-.3-.3a.449.449,0,0,0-.3-.075H239.4l.075,2.014Z" transform="translate(-67.569 -59.873)" fill="#8dc640"></path><path id="Path_1174" data-name="Path 1174" d="M236.246,85.1a3.43,3.43,0,0,1,.9-2.536,3.7,3.7,0,0,1,2.462-1.194,3.621,3.621,0,0,1,3.731,3.357v.149a3.523,3.523,0,0,1-3.357,3.507,3.422,3.422,0,0,1-3.731-3.283m3.283-4.4a4.044,4.044,0,0,0-2.91,1.418,4.554,4.554,0,0,0-1.12,3.059,4.309,4.309,0,0,0,4.477,4.029,4.258,4.258,0,0,0,4.029-4.477h0a4.253,4.253,0,0,0-4.477-4.029" transform="translate(-66.731 -59.209)" fill="#8dc640"></path></g></g></svg>