<svg xmlns="http://www.w3.org/2000/svg" xmlns:xlink="http://www.w3.org/1999/xlink" viewBox="0 0 69 42" width="69" height="42"><defs><clipPath id="clip-path"><rect id="Rectangle_7356" data-name="Rectangle 7356" width="69" height="42" transform="translate(563 356)" fill="#fff"></rect></clipPath><clipPath id="clip-path-2"><rect id="Rectangle_7355" data-name="Rectangle 7355" width="67.932" height="42" fill="#fff"></rect></clipPath></defs><g id="Mask_Group_6" data-name="Mask Group 6" transform="translate(-563 -356)" clip-path="url(#clip-path)"><g id="Group_5296" data-name="Group 5296" transform="translate(564 356)"><rect id="Rectangle_7354" data-name="Rectangle 7354" width="18.367" height="33.002" transform="translate(24.785 4.495)" fill="#ff5f00"></rect><g id="Group_5295" data-name="Group 5295" transform="translate(0 0)"><g id="Group_5294" data-name="Group 5294" clip-path="url(#clip-path-2)"><path id="Path_4122" data-name="Path 4122" d="M25.951,20.995a21.122,21.122,0,0,1,7.988-16.5A20.972,20.972,0,1,0,34,37.5a21,21,0,0,1-8.046-16.5" transform="translate(0 0)" fill="#eb001b"></path><path id="Path_4123" data-name="Path 4123" d="M92.242,20.995A20.968,20.968,0,0,1,58.308,37.5a21.027,21.027,0,0,0,3.5-29.5,22.058,22.058,0,0,0-3.5-3.5,20.994,20.994,0,0,1,33.934,16.5" transform="translate(-24.311 0)" fill="#f79e1b"></path><path id="Path_4124" data-name="Path 4124" d="M112.816,57.724v-.7h.292v-.117h-.7v.117h.292v.7Zm1.341,0v-.816h-.233l-.233.583-.233-.583h-.233v.816h.175v-.641l.233.525h.175l.233-.525v.641Z" transform="translate(-46.867 -23.727)" fill="#f79e1b"></path></g></g></g></g></svg>