<?xml version="1.0" encoding="UTF-8"?>
<svg xmlns="http://www.w3.org/2000/svg" id="Слой_1" data-name="Слой 1" viewBox="0 0 182.89 120">
  <path id="Path_2295" data-name="Path 2295" d="M171.557,21.144c-20.9-24.261-64.816-21-64.816-21C57.709.429,29.042,25.8,29.042,25.8-14.541,57.869,3.857,88.955,3.857,88.955c13.832,29.576,61.611,31.032,61.611,31.032,73.278.724,102.887-39.52,102.887-39.52C199.076,44.681,171.557,21.144,171.557,21.144Zm-1.191,2.9a3.6,3.6,0,1,1-3.6,3.6A3.6,3.6,0,0,1,170.365,24.041ZM72.309,6.266a3.654,3.654,0,1,1-3.654,3.654A3.654,3.654,0,0,1,72.309,6.266ZM12.519,95.447A3.476,3.476,0,1,1,16,91.971,3.476,3.476,0,0,1,12.519,95.447ZM110.8,113.335a3.549,3.549,0,1,1,3.549-3.549,3.549,3.549,0,0,1-3.549,3.549Zm-1.217-8S60,117.452,22.125,92.923c0,0-25.466-15.465-14.357-38.212,0,0,4.255-14.183,28.606-27.3,0,0,44.538-24.659,97.206-11.312,0,0,48.181,9.335,42.666,44.176,0-.014-7.706,34.4-66.666,45.071Z" transform="translate(-0.002 0.004)" fill="#13ca60"></path>
  <path id="Path_2296" data-name="Path 2296" d="M85.007,128.44h4.48V112.76h5.6V109.4H79.78v3.36h5.227Z" transform="translate(-50.971 -70.009)" fill="#fff"></path>
  <path id="Path_2297" data-name="Path 2297" d="M240.007,193.814h4.48V177.827h5.6V174.4H234.78v3.427h5.227Z" transform="translate(-150 -111.613)" fill="#fff"></path>
  <path id="Path_2298" data-name="Path 2298" d="M138.727,121.347c4.107-1.12,3.733-5.6,3.733-5.6,0-6.347-5.6-6.347-5.6-6.347H126.78v19.04h4.107v-5.973h3.36l.747,1.12,3.36,4.853h5.227Zm-2.613-2.613h-5.227V112.76h5.227s2.24,0,2.24,2.987C138.353,115.747,138.353,118.733,136.113,118.733Z" transform="translate(-81.013 -70.009)" fill="#fff"></path>
  <path id="Path_2299" data-name="Path 2299" d="M293.727,186.558c4.107-1.142,3.733-5.708,3.733-5.708,0-6.47-5.6-6.47-5.6-6.47H281.78v19.414h4.107v-6.082h3.36l.747,1.142,3.36,4.947h5.227Zm-2.613-2.666h-5.227v-6.078h5.227s2.24,0,2.24,3.046c0,0,0,3.043-2.24,3.043Z" transform="translate(-180.058 -111.601)" fill="#fff"></path>
  <path id="Path_2300" data-name="Path 2300" d="M192.207,127.814h4.48L188.473,108.4h-4.48l-8.213,19.414h4.48l1.99-4.48h7.963Zm-8.464-7.84,2.49-5.6,2.49,5.6Z" transform="translate(-112.377 -69.374)" fill="#fff"></path>
  <path id="Path_2301" data-name="Path 2301" d="M346.207,193.814h4.107L342.1,174.4h-4.107l-8.213,19.414h4.107l1.99-4.48h8.337Zm-8.837-7.84,2.677-5.865,2.677,5.865Z" transform="translate(-210.82 -111.613)" fill="#fff"></path>
  <path id="Path_2302" data-name="Path 2302" d="M243.993,108.4H235.78v19.414h8.213s9.333-.373,9.333-10.08C253.327,117.733,252.954,108.4,243.993,108.4Zm4.853,9.707c0,5.6-4.853,5.973-4.853,5.973h-4.107V112.133h4.48A5.305,5.305,0,0,1,248.847,118.107Z" transform="translate(-150.677 -69.374)" fill="#fff"></path>
  <rect id="Rectangle_2510" data-name="Rectangle 2510" width="4.48" height="19.414" transform="translate(105.573 39.026)" fill="#fff"></rect>
  <path id="Path_2303" data-name="Path 2303" d="M314.78,127.814h4.48V115.867l9.333,11.947H332.7V108.4h-4.107v12.693L318.887,108.4H314.78Z" transform="translate(-201.17 -69.374)" fill="#fff"></path>
  <path id="Path_2304" data-name="Path 2304" d="M180.78,193.814h4.48V181.867l9.333,11.947H198.7V174.4h-4.107v12.693L184.887,174.4H180.78Z" transform="translate(-115.534 -111.613)" fill="#fff"></path>
  <path id="Path_2305" data-name="Path 2305" d="M384.2,117.429v5.227s-8.214,3.733-9.333-5.227c0,0,0-5.973,5.973-6.347a6.948,6.948,0,0,1,4.48,1.867l2.52-2.8a9.586,9.586,0,0,0-7.373-2.8s-9.333-.373-9.707,10.08c0,0-.747,10.08,10.08,10.08,0,0,5.973-.373,7.467-3.36v-6.72Z" transform="translate(-236.93 -68.692)" fill="#fff"></path>
  <path id="Path_2306" data-name="Path 2306" d="M391.887,190.08V174.4H387.78v19.414H400.1V190.08Z" transform="translate(-247.67 -111.613)" fill="#fff"></path>
  <path id="Path_2307" data-name="Path 2307" d="M148.967,178.133V174.4H134.78v19.414h14.187V190.08H139.26v-4.107h8.587V182.24H139.26v-4.107Z" transform="translate(-86.1 -111.613)" fill="#fff"></path>
  <path id="Path_2308" data-name="Path 2308" d="M95.661,186.821s-1.12,2.987-5.227,2.613a5.706,5.706,0,0,1-5.227-5.973s-.373-5.227,5.6-6.347a5.009,5.009,0,0,1,4.853,2.613l2.613-2.613s-1.493-3.733-7.467-3.733c0,0-8.96-.747-10.08,9.707,0,0-1.12,10.08,10.08,10.453,0,0,5.973-.373,7.467-3.733Z" transform="translate(-51.57 -110.97)" fill="#fff"></path>
</svg>
