<svg xmlns="http://www.w3.org/2000/svg" xmlns:xlink="http://www.w3.org/1999/xlink" viewBox="0 0 93 42" width="93" height="42"><defs><clipPath id="clip-path"><rect id="Rectangle_7349" data-name="Rectangle 7349" width="92.9" height="30.011" transform="translate(0 0)" fill="none"></rect></clipPath></defs><g id="Group_5247" data-name="Group 5247" transform="translate(-98 -326)"><rect id="Rectangle_7305" data-name="Rectangle 7305" width="93" height="42" transform="translate(98 326)" fill="red" opacity="0"></rect><g id="Group_5290" data-name="Group 5290" transform="translate(98 332)"><g id="Group_5290-2" data-name="Group 5290" clip-path="url(#clip-path)"><path id="Path_4114" data-name="Path 4114" d="M48.2,9.6c-.1,4.2,3.7,6.5,6.6,7.9s3.9,2.3,3.9,3.6c0,1.9-2.3,2.8-4.5,2.8a15.873,15.873,0,0,1-7.7-1.8l-1.4,6.4A21.757,21.757,0,0,0,53.4,30c7.9,0,13-3.9,13.1-9.9C66.5,12.4,55.9,12,56,8.6c0-1,1-2.1,3.2-2.4a14.556,14.556,0,0,1,7.4,1.3l1.3-6.2a20.683,20.683,0,0,0-7-1.3C53.4,0,48.2,3.9,48.2,9.6M80.5.5a3.386,3.386,0,0,0-3.2,2.1L66,29.5h7.9l1.6-4.3h9.6l.9,4.3h6.9L86.8.5H80.5m1.1,7.9,2.3,10.9H77.7L81.6,8.4M38.6.5l-6.2,29h7.5L46.1.5H38.6M27.5.5,19.7,20.3,16.5,3.5A3.55,3.55,0,0,0,13,.5H.2L0,1.3A26.929,26.929,0,0,1,7.4,3.8,3.129,3.129,0,0,1,9.2,6.3l6,23.2h7.9L35.3.5H27.5" fill="#15195a" fill-rule="evenodd"></path></g></g></g></svg>