<svg xmlns="http://www.w3.org/2000/svg" viewBox="0 0 177.284 42" width="177.3" height="42"><g id="Group_5254" data-name="Group 5254" transform="translate(59 -754)"><rect id="Rectangle_7308" data-name="Rectangle 7308" width="177.28" height="42" transform="translate(-59 754)" fill="red" opacity="0"></rect><g id="Group_5252" data-name="Group 5252" transform="translate(-2012 -560.42)"><g id="Group_5231" data-name="Group 5231" transform="translate(1959.834 1315.42)"><path id="Path_4065" data-name="Path 4065" d="M38.621,0h2.3a13.239,13.239,0,0,1,6.835,2.717,21.359,21.359,0,0,1,3.051,3.132,18.637,18.637,0,0,0-5.964-.382A15.988,15.988,0,0,0,34.61,11.433a3.638,3.638,0,0,0-1.1,2.322q0,5.375,0,10.752a14.112,14.112,0,0,1-6.336-8.553A12.9,12.9,0,0,1,29.4,5.186,13.093,13.093,0,0,1,38.621,0Z" transform="translate(-26.817)" fill="#f37521"></path><path id="Path_4066" data-name="Path 4066" d="M51.689,59.67a13.488,13.488,0,0,1,6.269,7.939A12.962,12.962,0,0,1,36.767,80.683a30.522,30.522,0,0,1-2.322-2.513,20.047,20.047,0,0,0,5.4.443A14.792,14.792,0,0,0,51.11,71.546a2.834,2.834,0,0,0,.579-1.621C51.689,66.508,51.681,63.09,51.689,59.67Z" transform="translate(-32.501 -44.463)" fill="#f37521"></path><g id="Group_5220" data-name="Group 5220" transform="translate(37.797 26.638)"><path id="Path_4067" data-name="Path 4067" d="M176.826,104.714a2.12,2.12,0,0,1,2.582.612,4.621,4.621,0,0,1,.7,2.661,8.7,8.7,0,0,1-.477,4.136,2.261,2.261,0,0,1-3.881.178,8.336,8.336,0,0,1-.594-4.333C175.251,106.758,175.51,105.17,176.826,104.714Zm.306,1.055a3.759,3.759,0,0,0-.619,2.436,7.94,7.94,0,0,0,.461,3.637.8.8,0,0,0,1.392-.015,5.586,5.586,0,0,0,.392-2.6,8.248,8.248,0,0,0-.347-3.1C178.255,105.618,177.5,105.267,177.131,105.769Z" transform="translate(-175.122 -104.52)" fill="#f37521"></path></g><path id="Path_4068" data-name="Path 4068" d="M216.845,105.005l1.208-.005q0,4.27,0,8.538l-1.208-.005Q216.853,109.27,216.845,105.005Z" transform="translate(-168.415 -78.24)" fill="#f37521"></path><g id="Group_5221" data-name="Group 5221" transform="translate(65.248 26.746)"><path id="Path_4069" data-name="Path 4069" d="M282.838,104.965c1.17.079,2.7-.344,3.543.721a3.232,3.232,0,0,1,.028,3.137c-.469.81-1.471.872-2.3.958V113.5l-1.274-.008C282.845,110.648,282.84,107.807,282.838,104.965Zm1.307.838c-.053,1.009-.038,2.024-.031,3.035a1.4,1.4,0,0,0,1.323-1.825C285.457,106.254,284.744,105.982,284.145,105.8Z" transform="translate(-282.835 -104.946)" fill="#f37521"></path></g><g id="Group_5222" data-name="Group 5222" transform="translate(107.432 26.749)"><path id="Path_4070" data-name="Path 4070" d="M448.355,104.97c1.139.061,2.628-.3,3.428.749.5,1.114.571,2.918-.785,3.448a1.9,1.9,0,0,1,1.2,1.376c.11.915.079,2.133-.831,2.648a7.077,7.077,0,0,1-3.015.311Zm1.226.846q-.05,1.514.005,3.028C451.288,108.752,451.306,105.867,449.581,105.816Zm0,3.706q-.046,1.552,0,3.107c.459-.155,1.109-.229,1.223-.81a4.392,4.392,0,0,0-.02-1.483C450.664,109.767,450.029,109.7,449.581,109.522Z" transform="translate(-448.355 -104.957)" fill="#f37521"></path></g><g id="Group_5223" data-name="Group 5223" transform="translate(132.471 26.746)"><path id="Path_4071" data-name="Path 4071" d="M546.6,104.962c1.106.069,2.408-.268,3.344.494a3.079,3.079,0,0,1,.252,3.326c-.454.838-1.486.923-2.327,1q0,1.858,0,3.716H546.6Q546.6,109.228,546.6,104.962Zm1.292.864c-.036,1.007-.031,2.016-.008,3.025.566-.148,1.323-.359,1.313-1.091A1.487,1.487,0,0,0,547.9,105.826Z" transform="translate(-546.605 -104.945)" fill="#f37521"></path></g><path id="Path_4072" data-name="Path 4072" d="M224.535,107.058c.313-.372.721-.808,1.259-.581a.7.7,0,0,1-.237,1.361C225.027,107.943,224.8,107.39,224.535,107.058Z" transform="translate(-174.145 -79.294)" fill="#f37521"></path><path id="Path_4073" data-name="Path 4073" d="M648.525,107.173c.352-.849,1.85-.833,1.738.234C649.94,108.314,648.762,107.96,648.525,107.173Z" transform="translate(-490.079 -79.409)" fill="#f37521"></path><path id="Path_4074" data-name="Path 4074" d="M595.735,109.753l1.206,0c0,.5,0,1,0,1.509.678-.074.683.464.686.966l-.683.013c-.005,1.616.008,3.232-.01,4.847-.4-.008-.8-.01-1.2-.015,0-1.613.005-3.229-.005-4.842-.158,0-.471.008-.63.008,0-.219-.005-.663-.005-.884l.64-.01C595.735,110.81,595.732,110.28,595.735,109.753Z" transform="translate(-450.266 -81.78)" fill="#f37521"></path><path id="Path_4075" data-name="Path 4075" d="M403.475,109.76h1.211c0,.522-.005,1.045-.013,1.567l.65.038c0,.219,0,.655-.005.874h-.635v4.842h-1.205v-4.845c-.158,0-.477.005-.635.005,0-.222-.005-.663-.008-.882l.645-.018Q403.476,110.551,403.475,109.76Z" transform="translate(-307.005 -81.787)" fill="#f37521"></path><path id="Path_4076" data-name="Path 4076" d="M638.232,109.76h1.211c0,.528-.005,1.055-.005,1.583.161.005.482.013.642.015,0,.222,0,.663-.005.884-.158,0-.477,0-.635,0v4.842h-1.206V112.24H637.6c0-.219-.005-.66-.005-.879.161-.005.484-.018.645-.025Q638.232,110.548,638.232,109.76Z" transform="translate(-481.935 -81.787)" fill="#f37521"></path><path id="Path_4077" data-name="Path 4077" d="M523.484,116.212a3.82,3.82,0,0,1,1.361-.9c.033.364.059.729.092,1.1-.479.168-1.216.173-1.323.8-.138,1.328-.013,2.673-.054,4.009h-1.206v-5.732c.41,0,.823.005,1.239.01C523.566,115.674,523.512,116.034,523.484,116.212Z" transform="translate(-396.064 -85.923)" fill="#f37521"></path><path id="Path_4078" data-name="Path 4078" d="M198.105,115.762c.405,0,.81,0,1.218,0-.018.219-.033.438-.048.658a1.664,1.664,0,0,1,1.5-.719,1.2,1.2,0,0,1,1.068,1.325c.046,1.486,0,2.974.015,4.463h-1.205c-.031-1.448.064-2.9-.041-4.343-.069-.512-.7-.6-1.073-.352a2.2,2.2,0,0,0-.234,1.264c0,1.144.008,2.286.005,3.43h-1.205Z" transform="translate(-154.451 -86.196)" fill="#f37521"></path><path id="Path_4079" data-name="Path 4079" d="M225.845,116.005l1.208-.005q0,2.867,0,5.729l-1.2.008C225.842,119.825,225.853,117.914,225.845,116.005Z" transform="translate(-175.122 -86.437)" fill="#f37521"></path><path id="Path_4080" data-name="Path 4080" d="M234.845,115.829l1.221-.005c-.01.166-.031.494-.043.658.543-.895,2.2-1.058,2.487.115a48.872,48.872,0,0,1,.084,4.967c-.4-.005-.8-.008-1.2-.01-.036-1.488.079-2.984-.059-4.468a.659.659,0,0,0-1.244.232c-.1,1.407-.013,2.824-.041,4.236l-1.2.008C234.842,119.649,234.853,117.738,234.845,115.829Z" transform="translate(-181.828 -86.26)" fill="#f37521"></path><g id="Group_5224" data-name="Group 5224" transform="translate(57.655 29.492)"><path id="Path_4081" data-name="Path 4081" d="M253.4,116.762a1.768,1.768,0,0,1,2.908-.482,4.569,4.569,0,0,1,.67,2.554c-.925.015-1.848.005-2.77.038.138.632.079,1.5.8,1.792.607-.041.716-.66.9-1.119.273.005.813.013,1.083.015a2.968,2.968,0,0,1-.693,1.621,1.936,1.936,0,0,1-2.877-.538A5.354,5.354,0,0,1,253.4,116.762Zm.864,1.246c.512.013,1.022.015,1.537.013-.161-.477-.138-1.379-.838-1.328C254.3,116.752,254.378,117.529,254.263,118.008Z" transform="translate(-253.041 -115.72)" fill="#f37521"></path></g><g id="Group_5225" data-name="Group 5225" transform="translate(69.731 29.49)"><path id="Path_4082" data-name="Path 4082" d="M300.425,118.591c.076-.968.033-2.306,1.078-2.78.624-.311,1.205.186,1.736.459-.031-.12-.089-.362-.12-.482.41,0,.823,0,1.234,0v5.729l-1.236-.008c.025-.155.079-.461.107-.614-.456.364-.986.895-1.629.632C300.425,121.086,300.489,119.621,300.425,118.591Zm1.606-1.838a3.938,3.938,0,0,0-.392,2.317c.051.619.054,1.572.872,1.654A1.075,1.075,0,0,0,303.1,120a6.869,6.869,0,0,0-.1-2.936A.671.671,0,0,0,302.031,116.754Z" transform="translate(-300.425 -115.712)" fill="#f37521"></path></g><path id="Path_4083" data-name="Path 4083" d="M317.805,115.985c.449,0,.9.005,1.348.005.313,1.33.6,2.668.974,3.983q.547-1.984,1.06-3.973l1.226-.02c-.9,2.691-1.764,5.4-2.635,8.094h-1.231c.27-1.221,1.31-2.444.709-3.708C318.753,118.913,318.3,117.44,317.805,115.985Z" transform="translate(-243.645 -86.422)" fill="#f37521"></path><path id="Path_4084" data-name="Path 4084" d="M338.1,115.761c.405,0,.813,0,1.223,0-.015.178-.048.535-.064.714.362-.336.709-.8,1.254-.8.545-.061.93.352,1.272.706.594-.9,2.312-1.009,2.628.163.13,1.641.015,3.293.054,4.939h-1.205c-.036-1.481.069-2.967-.046-4.442-.138-.607-1.206-.492-1.246.122-.127,1.435-.015,2.88-.051,4.32h-1.205c-.025-1.414.051-2.831-.033-4.243.043-.838-1.389-.754-1.348.048-.071,1.4,0,2.8-.025,4.195H338.1Z" transform="translate(-258.771 -86.195)" fill="#f37521"></path><g id="Group_5226" data-name="Group 5226" transform="translate(86.579 29.491)"><path id="Path_4085" data-name="Path 4085" d="M366.917,116.712a1.763,1.763,0,0,1,2.923-.385,4.646,4.646,0,0,1,.629,2.51c-.92.01-1.837.008-2.758.008.133.6.041,1.412.668,1.764.67.148.826-.6,1.03-1.055.354,0,.708,0,1.065,0a3.034,3.034,0,0,1-.642,1.585,1.924,1.924,0,0,1-2.959-.573A5.332,5.332,0,0,1,366.917,116.712Zm1.542-.031c-.67.059-.581.864-.7,1.343.512,0,1.027-.008,1.539-.023C369.126,117.517,369.149,116.681,368.459,116.681Z" transform="translate(-366.534 -115.717)" fill="#f37521"></path></g><path id="Path_4086" data-name="Path 4086" d="M385.355,115.767c.41,0,.821,0,1.234.005l-.092.67c.4-.4.861-.859,1.488-.739a1.123,1.123,0,0,1,1.086,1.106c.1,1.557.008,3.125.038,4.687H387.9c-.036-1.453.069-2.913-.046-4.361a.635.635,0,0,0-1.236.043c-.15,1.43-.018,2.88-.061,4.317h-1.205Z" transform="translate(-293.979 -86.201)" fill="#f37521"></path><path id="Path_4087" data-name="Path 4087" d="M468.077,116.01h1.206c.031,1.442-.066,2.893.048,4.33.018.566.731.568,1.144.477a1.946,1.946,0,0,0,.28-1.239c.005-1.19-.008-2.378,0-3.568H471.9c-.018,1.442.031,2.882-.015,4.322.028,2.075-3.711,1.99-3.744-.008C468.006,118.89,468.108,117.447,468.077,116.01Z" transform="translate(-355.613 -86.444)" fill="#f37521"></path><path id="Path_4088" data-name="Path 4088" d="M483.805,116h1.346c.316,1.346.627,2.689.968,4.027.362-1.338.726-2.673,1.068-4.017.408-.008.816-.01,1.226-.015-.9,2.691-1.764,5.393-2.635,8.092h-1.231c.27-1.221,1.307-2.444.708-3.708C484.753,118.921,484.3,117.448,483.805,116Z" transform="translate(-367.339 -86.429)" fill="#f37521"></path><g id="Group_5227" data-name="Group 5227" transform="translate(121.494 29.491)"><path id="Path_4089" data-name="Path 4089" d="M503.918,116.707a1.762,1.762,0,0,1,2.913-.387,4.606,4.606,0,0,1,.637,2.518c-.92.01-1.838.008-2.758.008.14.584.025,1.432.67,1.743.658.212.828-.6,1.027-1.035.352,0,.708,0,1.065,0a3.091,3.091,0,0,1-.627,1.567,1.921,1.921,0,0,1-2.979-.563A5.339,5.339,0,0,1,503.918,116.707Zm1.544-.023c-.673.051-.589.859-.7,1.341.512,0,1.025-.008,1.539-.023C506.128,117.522,506.151,116.684,505.462,116.684Z" transform="translate(-503.533 -115.717)" fill="#f37521"></path></g><path id="Path_4090" data-name="Path 4090" d="M565.1,115.481c.405,0,.813,0,1.223,0-.018.178-.048.533-.064.711a3.193,3.193,0,0,1,1.346-.895c.02.367.041.734.064,1.1-.51.148-1.284.222-1.333.9-.084,1.3-.005,2.607-.031,3.91H565.1Z" transform="translate(-427.919 -85.915)" fill="#f37521"></path><g id="Group_5228" data-name="Group 5228" transform="translate(140.31 29.488)"><path id="Path_4091" data-name="Path 4091" d="M578.524,115.9a1.948,1.948,0,0,1,2.729,1.152,6.082,6.082,0,0,1-.13,3.492,1.942,1.942,0,0,1-3.42.059,5.39,5.39,0,0,1-.229-3.079A2.064,2.064,0,0,1,578.524,115.9Zm.489.928a4.716,4.716,0,0,0-.25,3.255.653.653,0,0,0,1.272.092,6,6,0,0,0,.069-2.867C580.053,116.828,579.373,116.438,579.014,116.826Z" transform="translate(-577.361 -115.706)" fill="#f37521"></path></g><g id="Group_5229" data-name="Group 5229" transform="translate(147.807 29.491)"><path id="Path_4092" data-name="Path 4092" d="M607.221,116.595a1.764,1.764,0,0,1,2.946-.161,5.1,5.1,0,0,1,.548,2.4c-.92.013-1.838.01-2.755.01.135.612.031,1.626.833,1.781.589,0,.658-.678.856-1.083l1.07.015a3.036,3.036,0,0,1-.668,1.606,1.931,1.931,0,0,1-2.949-.624A5.282,5.282,0,0,1,607.221,116.595Zm1.032.145c-.092.423-.173.844-.242,1.269.51.008,1.019.008,1.534-.005a6.584,6.584,0,0,0-.336-1.111C608.959,116.625,608.566,116.763,608.253,116.74Z" transform="translate(-606.778 -115.717)" fill="#f37521"></path></g><path id="Path_4093" data-name="Path 4093" d="M625.712,115.95a3.276,3.276,0,0,1,1.741-.1c.005.326.013.652.023.981-.461-.048-1.142-.227-1.376.321a4.165,4.165,0,0,0-.02,3.081c.242.566.92.423,1.4.352-.008.234-.023.7-.031.935-.8.143-1.881.26-2.357-.571a5.4,5.4,0,0,1-.347-3.565A2.039,2.039,0,0,1,625.712,115.95Z" transform="translate(-472.251 -86.275)" fill="#f37521"></path><path id="Path_4094" data-name="Path 4094" d="M649.838,116.005l1.208-.005q0,2.867,0,5.734l-1.211-.008C649.843,119.82,649.84,117.911,649.838,116.005Z" transform="translate(-491.055 -86.437)" fill="#f37521"></path><g id="Group_5230" data-name="Group 5230" transform="translate(160.888 29.488)"><path id="Path_4095" data-name="Path 4095" d="M659.54,115.8a1.921,1.921,0,0,1,2.424,1.132,6.1,6.1,0,0,1-.079,3.578,1.949,1.949,0,0,1-3.423.13,5.559,5.559,0,0,1-.194-3.354A1.873,1.873,0,0,1,659.54,115.8Zm.268,1c-.691.889-.451,2.25-.29,3.308.059.714,1.147.693,1.282.028a5.952,5.952,0,0,0,.028-2.9C660.75,116.836,660.126,116.444,659.807,116.8Z" transform="translate(-658.105 -115.706)" fill="#f37521"></path></g><path id="Path_4096" data-name="Path 4096" d="M677.6,115.721c.469.036.94.084,1.412.14l-.464.594c.573-.194.928-.879,1.606-.77a1.152,1.152,0,0,1,1.16,1.1c.094,1.567.01,3.14.038,4.71l-1.211-.01c-.028-1.473.084-2.954-.051-4.422a.649.649,0,0,0-1.249.224c-.1,1.4-.013,2.8-.038,4.2-.4,0-.8.008-1.2.013C677.591,119.572,677.6,117.645,677.6,115.721Z" transform="translate(-511.744 -86.194)" fill="#f37521"></path><path id="Path_4097" data-name="Path 4097" d="M424.849,125.26h2.289q0,.443,0,.887h-2.289Q424.846,125.7,424.849,125.26Z" transform="translate(-323.407 -93.337)" fill="#f37521"></path></g><g id="Group_5236" data-name="Group 5236" transform="translate(1953 1321.726)"><path id="Path_4098" data-name="Path 4098" d="M282.518,24.74q1.124,0,2.248,0c.693,1.269,1.356,2.554,2.049,3.823l-.777,0q-1.189-1.017-2.368-2.039c-.831.665-1.649,1.346-2.457,2.034-.209,0-.622.01-.828.015C281.076,27.289,281.8,26.017,282.518,24.74Z" transform="translate(-208.927 -24.74)" fill="#050708"></path><path id="Path_4099" data-name="Path 4099" d="M67.146,27.255A12.96,12.96,0,0,1,81.7,46.668a18.558,18.558,0,0,1-3.841,4.062,19.632,19.632,0,0,0,.418-5.586,14.471,14.471,0,0,0-7.944-11.489,2.5,2.5,0,0,0-1.07-.168q-5.027.015-10.054,0A13.96,13.96,0,0,1,67.146,27.255Z" transform="translate(-44.116 -26.228)" fill="#050708"></path><path id="Path_4100" data-name="Path 4100" d="M173.475,27.32a42.05,42.05,0,0,1,5.1-.143c2.289,2.78,4.478,5.645,6.784,8.41-.013-1.975,0-3.95,0-5.925A2.683,2.683,0,0,0,185,28.121c-.372-.474-1.017-.487-1.552-.629v-.306a28.118,28.118,0,0,1,4.659.155c-.762.364-1.947.482-1.932,1.58-.161,4.172.061,8.359-.112,12.531a11.989,11.989,0,0,1-.917-.953c-2.872-3.548-5.724-7.113-8.627-10.635-.036,2.826-.005,5.653-.02,8.479a2.324,2.324,0,0,0,.533,1.82c.553.324,1.228.364,1.774.714a38.441,38.441,0,0,1-5.309-.01c.533-.275,1.119-.41,1.662-.658a1.936,1.936,0,0,0,.581-1.616c.013-3.242-.015-6.486.01-9.73A3.857,3.857,0,0,0,173.475,27.32Z" transform="translate(-129.264 -26.546)" fill="#050708"></path><path id="Path_4101" data-name="Path 4101" d="M359.135,27.355a33.206,33.206,0,0,1,5.212-.173c.841.066,1.779-.206,2.541.26-.8.173-2.2.02-2.243,1.175-.1,3.326-.01,6.659-.043,9.988,0,.561.015,1.448.752,1.516a10.049,10.049,0,0,0,3.652-.163c1.458-.525,2.026-2.1,2.492-3.433.036-.311.319-.4.561-.507-.155,1.644-.334,3.288-.522,4.929q-6.086,0-12.174,0l.036-.324c.7-.076,1.774-.082,1.837-1.007.138-3.392.01-6.794.061-10.189-.054-.543.089-1.3-.489-1.616A14.985,14.985,0,0,0,359.135,27.355Z" transform="translate(-267.607 -26.544)" fill="#050708"></path><path id="Path_4102" data-name="Path 4102" d="M1.451,39.528a15.418,15.418,0,0,1,4.4-5.018,19.8,19.8,0,0,0-.382,5.719,15.912,15.912,0,0,0,5.938,10.4,3.965,3.965,0,0,0,2.258,1.147c3.56.01,7.121-.018,10.681.01A15.99,15.99,0,0,1,20.93,55.7,12.957,12.957,0,0,1,1.451,39.528Z" transform="translate(0 -32.02)" fill="#050708"></path><g id="Group_5232" data-name="Group 5232" transform="translate(118.258 3.9)"><path id="Path_4103" data-name="Path 4103" d="M472.851,41.3a1.1,1.1,0,0,1,1.455-1.2c.566.153.622,1.045,1.295.979,1.2.079,2.4.01,3.6.023,0,.408,0,.816,0,1.223a4.235,4.235,0,0,1,2.773-1.542,2.411,2.411,0,0,1,2.528,2.016c.278,2.159,0,4.343.155,6.509.028.609.7.816,1.065,1.2-1.667.056-3.334.046-5,.005a11.07,11.07,0,0,0,.951-.879,7.957,7.957,0,0,0,.145-2.2c-.043-1.448.069-2.9-.054-4.345a.922.922,0,0,0-1.188-.92,1.963,1.963,0,0,0-1.381,1.947c.028,1.7-.051,3.41.043,5.11-.005.637.683.887,1.063,1.287q-2.5.073-5.01,0c.479-.426,1.228-.765,1.1-1.534-.005-2.233.074-4.47-.041-6.7.025-.64-.675-.683-1.124-.849a2.406,2.406,0,0,1-.548,1.2,3.659,3.659,0,0,1-2.273.619,6.246,6.246,0,0,1-.566,5.966,4.37,4.37,0,0,1-5.92.785c-2.3-1.771-2.47-5.467-.731-7.681a4.3,4.3,0,0,1,5.189-1.1c.734.38,1.211,1.111,1.947,1.491a1.767,1.767,0,0,0,1.44-.265A5.638,5.638,0,0,1,472.851,41.3Zm-5.021.4c-.731.66-.665,1.753-.752,2.651a15.546,15.546,0,0,0,.283,4.97,1.177,1.177,0,0,0,2.067.285,6.5,6.5,0,0,0,.451-2.709,17.141,17.141,0,0,0-.235-4.483A1.18,1.18,0,0,0,467.831,41.7Z" transform="translate(-464.019 -40.042)" fill="#050708"></path></g><g id="Group_5233" data-name="Group 5233" transform="translate(59.902 4.653)"><path id="Path_4104" data-name="Path 4104" d="M237.109,43.4a4.8,4.8,0,0,1,3.173-.247,15.61,15.61,0,0,0,4.006.219c0,.364,0,.726.005,1.091-.6,0-1.193-.005-1.789-.013a3.4,3.4,0,0,1,.826,2.406,3.468,3.468,0,0,1-2.569,2.78,9.268,9.268,0,0,1-2.8.229c-.867.074-1.17,1.537-.219,1.728,1.771.24,3.665-.232,5.352.517a2.334,2.334,0,0,1,.8,3.374,4.361,4.361,0,0,1-3.382,1.659,9.339,9.339,0,0,1-4.429-.5c-.629-.255-1.254-.94-.971-1.659.168-.617.844-.8,1.33-1.1-.538-.441-1.157-.943-1.147-1.713-.031-1.279,1.124-2.08,2.136-2.607a3.46,3.46,0,0,1-2.322-2.513A3.318,3.318,0,0,1,237.109,43.4Zm1.7.421A1.6,1.6,0,0,0,238.06,45a7.99,7.99,0,0,0,.036,3.28c.158.65.867,1.277,1.557.958a1.588,1.588,0,0,0,.928-1.4,7.8,7.8,0,0,0-.161-3.239A1.139,1.139,0,0,0,238.809,43.823ZM237.3,54.3a.891.891,0,0,0-.591,1.172c.344.762,1.267.933,2.016,1a6.3,6.3,0,0,0,3.362-.454,1.01,1.01,0,0,0,.54-1.3,3.61,3.61,0,0,0-2.365-.568A11.62,11.62,0,0,0,237.3,54.3Z" transform="translate(-235.041 -42.996)" fill="#050708"></path></g><g id="Group_5234" data-name="Group 5234" transform="translate(70.415 4.655)"><path id="Path_4105" data-name="Path 4105" d="M277.3,44.206a5.415,5.415,0,0,1,3.938-1.19,2.8,2.8,0,0,1,2.791,2.3c.166,1.942-.059,3.9.1,5.839.048.655.838.2,1.249.278-.65.81-1.527,1.672-2.671,1.435-.8-.025-1.246-.754-1.493-1.427-.961.731-2.054,1.583-3.339,1.43a1.846,1.846,0,0,1-1.57-1.97,2.855,2.855,0,0,1,1.277-2.1,25.02,25.02,0,0,1,3.706-2.036,12.324,12.324,0,0,0-.1-2.233,1.39,1.39,0,0,0-2.434-.219c.041.668.854,1.185.589,1.927a1.493,1.493,0,0,1-2.569.219A1.841,1.841,0,0,1,277.3,44.206Zm1.746,5.525a1.2,1.2,0,0,0,.647,1.521c.6.2,1.114-.263,1.6-.545-.018-1.081-.008-2.164-.023-3.247A5.026,5.026,0,0,0,279.044,49.731Z" transform="translate(-276.294 -43.007)" fill="#050708"></path></g><path id="Path_4106" data-name="Path 4106" d="M319.132,44.5a4.222,4.222,0,0,1,2.8-1.542,2.41,2.41,0,0,1,2.5,2c.285,2.166-.005,4.361.161,6.532.023.6.7.81,1.065,1.19-1.662.051-3.326.046-4.99,0,.454-.443,1.16-.81,1.068-1.555.005-1.957.071-3.922-.036-5.877a.922.922,0,0,0-1.2-.912,1.965,1.965,0,0,0-1.371,1.937c.028,1.708-.051,3.42.043,5.128-.005.635.7.879,1.073,1.277q-2.508.069-5.018,0c.382-.4,1.1-.637,1.073-1.284.059-2.227.043-4.463.01-6.69.076-.716-.652-.994-1.1-1.381,1.3-.069,2.61-.038,3.917-.046Z" transform="translate(-234.881 -38.311)" fill="#050708"></path><path id="Path_4107" data-name="Path 4107" d="M452.1,44.1a1.21,1.21,0,0,1,2.016-.673,1.594,1.594,0,0,1-.385,2.47,7.747,7.747,0,0,1-2.024.5l-.01-.41a6.186,6.186,0,0,0,1.234-.387C452.913,45.006,452.072,44.741,452.1,44.1Z" transform="translate(-336.578 -38.423)" fill="#050708"></path><g id="Group_5235" data-name="Group 5235" transform="translate(141.262 4.653)"><path id="Path_4108" data-name="Path 4108" d="M556.673,43.275a4.875,4.875,0,0,1,2.931-.1,16.649,16.649,0,0,0,3.935.2c-.005.362-.008.724-.008,1.088l-1.766-.013a3.072,3.072,0,0,1,.319,3.726,4.967,4.967,0,0,1-4.659,1.672c-.948-.135-1.488,1.445-.479,1.733,1.876.3,3.991-.334,5.7.716,1.46,1.007.991,3.377-.482,4.139a9.013,9.013,0,0,1-6.007.492c-.831-.2-1.934-.688-1.863-1.708.071-.734.8-1.022,1.366-1.323-.581-.5-1.244-1.126-1.111-1.98.13-1.154,1.177-1.848,2.123-2.34a3.548,3.548,0,0,1-2.312-2.5A3.36,3.36,0,0,1,556.673,43.275Zm1.343.568c-.747.454-.772,1.43-.844,2.2a5.079,5.079,0,0,0,.39,2.714,1.087,1.087,0,0,0,1.445.428c.688-.324.813-1.157.879-1.832a6.957,6.957,0,0,0-.321-2.984A1.094,1.094,0,0,0,558.016,43.843Zm-1.527,10.48a.886.886,0,0,0-.538,1.157,2.2,2.2,0,0,0,1.96.994,6.442,6.442,0,0,0,3.392-.433,1.105,1.105,0,0,0,.624-1.228c-.528-.665-1.455-.586-2.21-.652A11.891,11.891,0,0,0,556.49,54.323Z" transform="translate(-554.282 -42.999)" fill="#050708"></path></g><path id="Path_4109" data-name="Path 4109" d="M658.572,44.492a4.233,4.233,0,0,1,2.969-1.527,2.434,2.434,0,0,1,2.393,2.317c.189,2.029-.023,4.073.1,6.106-.051.665.663.91,1.06,1.295-1.662.056-3.326.048-4.988.008.4-.415,1.078-.711,1.068-1.374.061-1.85.02-3.7.02-5.556.033-.619-.2-1.478-.958-1.476a1.955,1.955,0,0,0-1.654,2c.025,1.69-.051,3.382.041,5.069-.036.67.665.928,1.065,1.33q-2.5.069-5,0c.4-.4,1.124-.637,1.068-1.313.064-2.2.038-4.4.015-6.6.1-.744-.632-1.04-1.116-1.407,1.31-.127,2.628-.069,3.943-.071C658.588,43.691,658.58,44.092,658.572,44.492Z" transform="translate(-487.812 -38.316)" fill="#050708"></path><path id="Path_4110" data-name="Path 4110" d="M414.415,44.294c1.307-.084,2.62-.048,3.93-.054.015,2.271-.018,4.542.01,6.81.051.528.043,1.348.711,1.46.813.12,1.328-.675,1.84-1.167-.043-1.878.036-3.759-.033-5.637.087-.716-.619-1.037-1.058-1.437,1.292-.043,2.587-.028,3.879-.025a23.365,23.365,0,0,0,.087,2.737,29.964,29.964,0,0,0,.084,6.01c.331.194.665.4.979.624-1.312.1-2.63.041-3.945.054,0-.392,0-.782,0-1.175a4.875,4.875,0,0,1-2.355,1.392,2.432,2.432,0,0,1-2.872-1.957c-.306-2.151.01-4.335-.178-6.491C415.457,44.839,414.8,44.643,414.415,44.294Z" transform="translate(-308.799 -39.268)" fill="#050708"></path><path id="Path_4111" data-name="Path 4111" d="M612.275,44.261c1.774-.054,3.55-.051,5.324-.005-.431.387-1.333.683-.968,1.42a40,40,0,0,0,1.962,4.483c.461-1.16.956-2.3,1.4-3.466a2.989,2.989,0,0,0,.273-1.708c-.367-.265-.777-.454-1.16-.688a23.241,23.241,0,0,1,3.474-.023,3.723,3.723,0,0,0-1.432,1.521c-1.078,2.431-2.092,4.888-3.13,7.335a3.358,3.358,0,0,1-.553.9,2,2,0,0,1-.609-.884c-1.06-2.416-2.108-4.837-3.2-7.238A4.892,4.892,0,0,0,612.275,44.261Z" transform="translate(-456.233 -39.255)" fill="#050708"></path><path id="Path_4112" data-name="Path 4112" d="M596.324,69.234a1.691,1.691,0,0,1,2.069,2.082,1.713,1.713,0,0,1-2.908.6A1.664,1.664,0,0,1,596.324,69.234Z" transform="translate(-443.419 -57.842)" fill="#050708"></path><path id="Path_4113" data-name="Path 4113" d="M475.925,85.281a1.684,1.684,0,1,1-.53,2.783A1.67,1.67,0,0,1,475.925,85.281Z" transform="translate(-353.835 -69.762)" fill="#050708"></path></g></g></g></svg>