<svg xmlns="http://www.w3.org/2000/svg" viewBox="0 0 163.166 42" width="163" height="42"><g id="logo_perfect_money" transform="translate(-538 -1276)"><g id="Group_5134" data-name="Group 5134" transform="translate(431.937 1059.173)"><path id="Path_3987" data-name="Path 3987" d="M133.391,241.8c-.708,0-.735.055-.735.736,0,2.752,1.607,5.095,4.523,5.095a2.934,2.934,0,0,0,2.506-1.335.361.361,0,0,1,.491.327,4.762,4.762,0,0,1-4.278,2.534,4.884,4.884,0,0,1-3.951-1.8,5.787,5.787,0,0,1-1.144-3.542c0-3.352,2.207-6.158,5.477-6.158,2.343,0,3.869,1.607,3.869,3.242a1.692,1.692,0,0,1-.108.708c-.082.164-.464.191-1.608.191Zm1.689-.817c2.016,0,2.616-.109,2.834-.272.082-.055.164-.164.164-.518,0-.763-.518-1.716-2.1-1.716a3.2,3.2,0,0,0-3.024,2.371c0,.055,0,.136.191.136Z" transform="translate(-10.786 -6.466)" fill="#ed0a0a"></path><path id="Path_3988" data-name="Path 3988" d="M150.235,240.659c0-1.062,0-1.2-.736-1.689l-.245-.163a.373.373,0,0,1,.028-.491,21.2,21.2,0,0,0,2.752-1.335c.136.028.218.082.218.191v1.58c0,.136.028.218.082.245.954-.79,1.989-1.634,3-1.634a1.128,1.128,0,0,1,1.226,1.09,1.208,1.208,0,0,1-1.171,1.253,1.048,1.048,0,0,1-.6-.191,2.235,2.235,0,0,0-1.2-.436,1.209,1.209,0,0,0-.981.545,4.146,4.146,0,0,0-.354,2.1v3.706c0,1.962.055,2.289,1.09,2.371l.981.082a.477.477,0,0,1-.054.681c-1.281-.055-2.071-.081-3.025-.081-.981,0-1.8.027-2.507.081a.477.477,0,0,1-.054-.681l.518-.082c1.008-.164,1.035-.409,1.035-2.371Z" transform="translate(-18.529 -6.171)" fill="#ed0a0a"></path><path id="Path_3989" data-name="Path 3989" d="M168.329,232.718c-.463,0-.463.054-.463.79v5.749c0,1.962.054,2.289,1.036,2.371l.981.082a.476.476,0,0,1-.055.681c-1.226-.055-2.016-.081-2.97-.081-.981,0-1.8.027-2.616.081a.476.476,0,0,1-.055-.681l.627-.082c1.008-.136,1.036-.409,1.036-2.371v-5.749c0-.736,0-.79-.545-.79h-.954a.382.382,0,0,1-.082-.518l1.171-.572a.618.618,0,0,0,.409-.545,12.223,12.223,0,0,1,.844-4.8,5.36,5.36,0,0,1,4.9-3.46c1.444,0,2.671.654,2.671,1.635a1.043,1.043,0,0,1-1.036.981.775.775,0,0,1-.654-.327,3.044,3.044,0,0,0-2.18-1.2,2.1,2.1,0,0,0-1.935,1.5,14.453,14.453,0,0,0-.6,4.605v.79c0,.736,0,.763.463.763h3.106a.841.841,0,0,1-.191,1.145Z" transform="translate(-25.29)" fill="#ed0a0a"></path><path id="Path_3990" data-name="Path 3990" d="M179.62,241.8c-.708,0-.735.055-.735.736,0,2.752,1.607,5.095,4.523,5.095a2.935,2.935,0,0,0,2.507-1.335.36.36,0,0,1,.49.327,4.762,4.762,0,0,1-4.277,2.534,4.884,4.884,0,0,1-3.951-1.8,5.788,5.788,0,0,1-1.144-3.542c0-3.352,2.207-6.158,5.477-6.158,2.343,0,3.869,1.607,3.869,3.242a1.679,1.679,0,0,1-.109.708c-.082.164-.463.191-1.608.191Zm1.69-.817c2.016,0,2.615-.109,2.833-.272.082-.055.164-.164.164-.518,0-.763-.518-1.716-2.1-1.716a3.2,3.2,0,0,0-3.025,2.371c0,.055,0,.136.191.136Z" transform="translate(-30.942 -6.466)" fill="#ed0a0a"></path><path id="Path_3991" data-name="Path 3991" d="M204.263,238.121a1.543,1.543,0,0,1,.409,1.09c0,.491-.272,1.008-.6,1.008a.476.476,0,0,1-.381-.191,3.717,3.717,0,0,0-2.725-1.444c-1.907,0-3.76,1.5-3.76,4.387a4.477,4.477,0,0,0,4.387,4.659A3.324,3.324,0,0,0,204.617,246a.43.43,0,0,1,.491.382,4.966,4.966,0,0,1-4.55,2.779,5.279,5.279,0,0,1-3.733-1.39,5.423,5.423,0,0,1-1.58-4.033c0-2.942,2.07-6.076,6.594-6.076A6.79,6.79,0,0,1,204.263,238.121Z" transform="translate(-38.882 -6.466)" fill="#ed0a0a"></path><path id="Path_3992" data-name="Path 3992" d="M217.812,238c-.463,0-.491.081-.491.654v5.1c0,1.58.191,3.024,1.989,3.024a2.078,2.078,0,0,0,.735-.136c.245-.082.6-.382.681-.382.218,0,.327.3.272.464a3.773,3.773,0,0,1-2.861,1.253c-2.343,0-2.834-1.308-2.834-2.942v-6.24c0-.736-.027-.79-.572-.79h-.763a.454.454,0,0,1-.082-.572,5.411,5.411,0,0,0,1.744-.844,6.751,6.751,0,0,0,1.144-1.608c.137-.054.463-.054.572.136v1.226c0,.491.027.518.49.518h3.024a.872.872,0,0,1,.028,1.145Z" transform="translate(-46.982 -5.283)" fill="#ed0a0a"></path><path id="Path_3993" data-name="Path 3993" d="M252.925,236.128c.627,1.281,1.226,2.534,1.88,3.733h.055c.735-1.28,1.417-2.7,2.1-4.087l2.562-5.2c1.226-2.479,2.016-3.978,2.07-5.232a20.434,20.434,0,0,0,2.043.082c.681,0,1.58-.028,2.425-.082a.573.573,0,0,1,.027.681l-.572.055c-1.717.164-1.935.681-1.907,2.588.055,2.888.082,7.929.3,11.852.082,1.363.055,2.1,1.335,2.208l.872.082a.5.5,0,0,1-.054.681c-1.117-.055-2.234-.081-3.215-.081-.954,0-2.179.026-3.3.081a.5.5,0,0,1-.055-.681l.79-.082c1.335-.136,1.335-.572,1.335-2.316l-.082-11.361h-.054c-.191.3-1.226,2.479-1.771,3.542l-2.425,4.768c-1.226,2.4-2.452,4.959-2.942,6.213a.318.318,0,0,1-.272.109.335.335,0,0,1-.245-.109c-.463-1.444-1.771-4.114-2.4-5.45l-2.452-5.258c-.572-1.253-1.144-2.67-1.744-3.924h-.055c-.109,1.689-.191,3.27-.272,4.851-.082,1.662-.191,4.087-.191,6.4,0,2.016.164,2.452,1.226,2.534l1.036.082c.191.163.163.6-.027.681-.927-.055-1.989-.081-3.025-.081-.872,0-1.853.026-2.779.081a.538.538,0,0,1-.055-.681l.6-.082c1.144-.164,1.526-.327,1.689-2.234.164-1.8.3-3.3.463-5.994.136-2.262.245-4.578.3-6.077.054-1.716-.164-2.125-1.826-2.343l-.436-.055a.511.511,0,0,1,.109-.681c.817.055,1.472.082,2.153.082.627,0,1.362,0,2.261-.082-.109,1.063.572,2.752,1.417,4.5Z" transform="translate(-59.698 -1.095)" fill="#ed0a0a"></path><path id="Path_3994" data-name="Path 3994" d="M295.03,243.3a5.566,5.566,0,0,1-5.75,5.858,5.386,5.386,0,0,1-5.585-5.613,5.726,5.726,0,0,1,5.8-5.885A5.443,5.443,0,0,1,295.03,243.3Zm-5.858-4.823c-1.8,0-3.134,1.716-3.134,4.713,0,2.48,1.117,5.149,3.515,5.149s3.134-2.506,3.134-4.6C292.686,241.418,291.76,238.475,289.172,238.475Z" transform="translate(-77.445 -6.466)" fill="#ed0a0a"></path><path id="Path_3995" data-name="Path 3995" d="M305.886,240.659c0-1.062,0-1.2-.736-1.689l-.245-.163a.373.373,0,0,1,.028-.491,14.9,14.9,0,0,0,2.725-1.335.318.318,0,0,1,.3.191c-.055.627-.055,1.036-.055,1.281a.286.286,0,0,0,.3.3,7.469,7.469,0,0,1,3.814-1.389c2.262,0,3.188,1.553,3.188,3.378v4.686c0,1.962.055,2.234,1.036,2.371l.6.082a.476.476,0,0,1-.055.681c-.817-.055-1.607-.081-2.561-.081-.981,0-1.8.027-2.534.081a.476.476,0,0,1-.055-.681l.518-.082c1.008-.164,1.035-.409,1.035-2.371v-4.06c0-1.553-.708-2.7-2.561-2.7a2.97,2.97,0,0,0-2.316.954,2.3,2.3,0,0,0-.409,1.635v4.169c0,1.962.055,2.207,1.035,2.371l.491.082a.476.476,0,0,1-.055.681c-.735-.055-1.526-.081-2.479-.081-.981,0-1.8.027-2.561.081a.476.476,0,0,1-.055-.681l.572-.082c1.008-.136,1.036-.409,1.036-2.371Z" transform="translate(-86.368 -6.171)" fill="#ed0a0a"></path><path id="Path_3996" data-name="Path 3996" d="M330.34,241.8c-.708,0-.736.055-.736.736,0,2.752,1.608,5.095,4.523,5.095a2.935,2.935,0,0,0,2.506-1.335.36.36,0,0,1,.49.327,4.762,4.762,0,0,1-4.277,2.534,4.884,4.884,0,0,1-3.951-1.8,5.787,5.787,0,0,1-1.144-3.542c0-3.352,2.207-6.158,5.477-6.158,2.343,0,3.869,1.607,3.869,3.242a1.689,1.689,0,0,1-.109.708c-.082.164-.463.191-1.607.191Zm1.689-.817c2.016,0,2.615-.109,2.834-.272.082-.055.164-.164.164-.518,0-.763-.518-1.716-2.1-1.716a3.2,3.2,0,0,0-3.024,2.371c0,.055,0,.136.191.136Z" transform="translate(-96.653 -6.466)" fill="#ed0a0a"></path><path id="Path_3997" data-name="Path 3997" d="M345.434,254.619a1.015,1.015,0,0,1,1.09-1.09h.518a.989.989,0,0,0,.9-.491,17.3,17.3,0,0,0,1.58-3.024,4.122,4.122,0,0,0,.272-1.171,5.173,5.173,0,0,0-.463-1.88l-2.126-5.831c-.463-1.281-.654-1.935-1.607-2.126l-.681-.136c-.164-.136-.136-.6.082-.681.872.055,1.69.081,2.589.081.735,0,1.5-.027,2.37-.081.218.081.245.545.055.681l-.681.136c-.382.082-.6.164-.6.354a20.663,20.663,0,0,0,.79,2.561l.872,2.506a15.277,15.277,0,0,0,.79,1.935,13.325,13.325,0,0,0,1.008-2.016l.926-2.153a12.657,12.657,0,0,0,.954-2.725c0-.191-.164-.381-.654-.463l-.845-.136c-.191-.136-.164-.6.055-.681.872.055,1.689.081,2.4.081.681,0,1.308-.027,2.071-.081a.455.455,0,0,1,.054.681l-.463.081c-.9.164-1.39.954-2.316,2.888l-1.526,3.134c-.9,1.825-3.134,6.567-4.469,9.536a1.814,1.814,0,0,1-1.744,1.281A1.1,1.1,0,0,1,345.434,254.619Z" transform="translate(-104.091 -6.698)" fill="#ed0a0a"></path><g id="Group_5128" data-name="Group 5128" transform="translate(183.937 244.531)"><path id="Path_3998" data-name="Path 3998" d="M245.974,262.061h1.112v3.946c0,1.678-.813,2.237-2.019,2.237a3.056,3.056,0,0,1-.933-.143l.136-.9a2.193,2.193,0,0,0,.686.11c.632,0,1.018-.286,1.018-1.343Z" transform="translate(-244.134 -261.636)"></path><path id="Path_3999" data-name="Path 3999" d="M256.436,268.135c0,.522.016.959.036,1.317H255.5l-.054-.664h-.026a1.592,1.592,0,0,1-1.408.763c-.8,0-1.53-.48-1.53-1.916v-2.577H253.6v2.391c0,.73.231,1.2.82,1.2a.922.922,0,0,0,.848-.594.953.953,0,0,0,.06-.344v-2.651h1.112Z" transform="translate(-247.774 -262.943)"></path><path id="Path_4000" data-name="Path 4000" d="M262.473,268.352a2.429,2.429,0,0,0,1.121.321c.488,0,.707-.205.707-.493s-.182-.448-.722-.641c-.86-.294-1.219-.763-1.215-1.284,0-.773.642-1.375,1.668-1.375a2.537,2.537,0,0,1,1.166.263l-.221.78a2,2,0,0,0-.93-.253c-.4,0-.615.2-.615.465s.212.413.767.616c.8.283,1.169.691,1.173,1.338,0,.8-.624,1.38-1.785,1.38a2.845,2.845,0,0,1-1.339-.308Z" transform="translate(-252.032 -262.865)"></path><path id="Path_4001" data-name="Path 4001" d="M271.332,262.824v1.259h1.057v.827h-1.057v1.94c0,.537.143.811.569.811a1.69,1.69,0,0,0,.432-.048l.022.845a2.49,2.49,0,0,1-.809.115,1.285,1.285,0,0,1-.955-.362,1.751,1.751,0,0,1-.347-1.233v-2.067h-.627v-.827h.627v-1Z" transform="translate(-255.244 -261.969)"></path><path id="Path_4002" data-name="Path 4002" d="M281.7,266.436c0-.57-.016-1.043-.036-1.456h.976l.055.675h.017a1.7,1.7,0,0,1,1.507-.774,1.992,1.992,0,0,1,1.844,2.235,2.089,2.089,0,0,1-2,2.358,1.428,1.428,0,0,1-1.236-.587h-.018v2.275H281.7Zm1.111,1.1a1.406,1.406,0,0,0,.03.3,1.008,1.008,0,0,0,.976.777c.7,0,1.119-.585,1.119-1.448,0-.778-.378-1.411-1.093-1.411a1.041,1.041,0,0,0-.992.823,1.142,1.142,0,0,0-.04.28Z" transform="translate(-260.497 -262.865)"></path><path id="Path_4003" data-name="Path 4003" d="M292.837,267.484a1.2,1.2,0,0,0,1.358,1.145,3.344,3.344,0,0,0,1.213-.2l.164.765a3.965,3.965,0,0,1-1.536.279,2.082,2.082,0,0,1-2.263-2.229,2.174,2.174,0,0,1,2.149-2.36,1.908,1.908,0,0,1,1.893,2.138,2.312,2.312,0,0,1-.039.466Zm1.933-.774a.945.945,0,0,0-.917-1.07,1.087,1.087,0,0,0-1.018,1.07Z" transform="translate(-264.904 -262.865)"></path><path id="Path_4004" data-name="Path 4004" d="M301.544,266.393c0-.589-.012-1.022-.036-1.413h.962l.041.835h.032a1.309,1.309,0,0,1,1.2-.935,1.058,1.058,0,0,1,.26.024v1.046a1.51,1.51,0,0,0-.325-.031.98.98,0,0,0-1,.841,1.852,1.852,0,0,0-.028.335v2.279h-1.113Z" transform="translate(-269.148 -262.865)"></path><path id="Path_4005" data-name="Path 4005" d="M308.93,267.817V264.25h-.6v-.827h.6v-.187a2.058,2.058,0,0,1,.534-1.5,1.668,1.668,0,0,1,1.15-.424,2.172,2.172,0,0,1,.706.109l-.078.854a1.325,1.325,0,0,0-.474-.08c-.549,0-.733.462-.733,1v.23H311v.827h-.954v3.567Z" transform="translate(-272.124 -261.308)"></path><path id="Path_4006" data-name="Path 4006" d="M315.721,267.484a1.2,1.2,0,0,0,1.357,1.145,3.346,3.346,0,0,0,1.213-.2l.165.765a3.968,3.968,0,0,1-1.536.279,2.083,2.083,0,0,1-2.263-2.229,2.174,2.174,0,0,1,2.15-2.36,1.908,1.908,0,0,1,1.893,2.138,2.3,2.3,0,0,1-.04.466Zm1.933-.774a.946.946,0,0,0-.917-1.07,1.088,1.088,0,0,0-1.019,1.07Z" transform="translate(-274.881 -262.865)"></path><path id="Path_4007" data-name="Path 4007" d="M327.652,269.244a3.135,3.135,0,0,1-1.241.227,2.115,2.115,0,0,1-2.265-2.248,2.265,2.265,0,0,1,2.444-2.338,2.893,2.893,0,0,1,1.073.2l-.2.836a1.869,1.869,0,0,0-.84-.172,1.424,1.424,0,0,0,0,2.844,2.163,2.163,0,0,0,.873-.174Z" transform="translate(-279.018 -262.868)"></path><path id="Path_4008" data-name="Path 4008" d="M334.579,262.824v1.259h1.058v.827h-1.058v1.94c0,.537.143.811.569.811a1.7,1.7,0,0,0,.432-.048l.022.845a2.491,2.491,0,0,1-.809.115,1.285,1.285,0,0,1-.955-.362,1.75,1.75,0,0,1-.347-1.233v-2.067h-.628v-.827h.628v-1Z" transform="translate(-282.819 -261.969)"></path></g><circle id="Ellipse_1" data-name="Ellipse 1" cx="6.905" cy="6.905" r="6.905" transform="translate(255.419 224.231)" fill="#ed0a0a"></circle><g id="Group_5129" data-name="Group 5129" transform="translate(106.063 224.273)"><path id="Path_4009" data-name="Path 4009" d="M116.494,251.162a.535.535,0,0,1-.051.682c-1.557-.056-2.453-.085-3.542-.085-1.145,0-2.126.028-3.328.085a.531.531,0,0,1-.051-.682l.57-.079c1.579-.22,1.636-.547,1.636-3.407V244.45c.682.039,1.438.056,2.233.056v3.17c0,2.86.056,3.215,1.8,3.407Z" transform="translate(-107.528 -233.7)" fill="#ed0a0a"></path><path id="Path_4010" data-name="Path 4010" d="M118.684,226.479a9.856,9.856,0,0,0-5.234-1.089,42.8,42.8,0,0,0-5.392.214.455.455,0,0,0-.056.682l.981.107c1.224.135,1.28.6,1.28,2.916v5.566c.7.038,1.907.022,2.234.017v-7.681c0-.869.028-.981,1.472-.981a4.022,4.022,0,0,1,4.388,4.36c0,2.374-1.066,4.033-4,4.58-.434.062-.919.1-1.433.124l-.423.017c-.506.045-2.234-.011-2.234-.011l-.423-.017c-2.03-.085-3.756-.254-3.768-.214a.463.463,0,0,0,.017.248,29.575,29.575,0,0,0,3.751.378c.141.011.282.017.423.023.716.039,1.472.056,2.234.056.141,0,.282,0,.423-.006.491-.006.981-.023,1.461-.051a10.623,10.623,0,0,0,3.756-.818,4.623,4.623,0,0,0,2.724-4.337A4.7,4.7,0,0,0,118.684,226.479Z" transform="translate(-106.063 -225.39)" fill="#ed0a0a"></path></g><g id="Group_5131" data-name="Group 5131" transform="translate(257.236 228.627)"><path id="Path_4011" data-name="Path 4011" d="M383.587,236.062c.171.351.336.693.514,1.021h.015c.2-.35.387-.738.574-1.118l.7-1.424a4.371,4.371,0,0,0,.567-1.431,5.578,5.578,0,0,0,.559.023c.187,0,.433-.007.663-.023a.157.157,0,0,1,.008.187l-.157.015c-.47.045-.529.187-.522.708.015.79.022,2.169.082,3.243.023.373.015.574.365.6l.239.023a.137.137,0,0,1-.015.186c-.306-.015-.611-.023-.879-.023s-.6.007-.9.023a.138.138,0,0,1-.015-.186l.216-.023c.365-.037.365-.157.365-.634l-.023-3.108h-.015c-.052.082-.336.678-.485.969l-.664,1.3c-.335.656-.671,1.357-.8,1.7a.087.087,0,0,1-.074.03.092.092,0,0,1-.067-.03c-.127-.4-.484-1.126-.656-1.491l-.671-1.439c-.156-.343-.313-.73-.477-1.073h-.015c-.03.462-.052.895-.074,1.327-.023.455-.052,1.118-.052,1.752,0,.552.045.671.336.693l.283.023c.052.045.045.164-.007.186-.253-.015-.544-.023-.827-.023-.239,0-.507.007-.76.023a.147.147,0,0,1-.015-.186l.164-.023c.313-.045.417-.09.463-.611.045-.492.082-.9.126-1.64.037-.619.067-1.252.082-1.662.015-.47-.045-.581-.5-.641l-.119-.015a.14.14,0,0,1,.029-.187c.224.015.4.023.589.023.171,0,.373,0,.619-.023a2.844,2.844,0,0,0,.387,1.23Z" transform="translate(-377.048 -233.11)" fill="#fff"></path><g id="Group_5130" data-name="Group 5130" transform="translate(0 0.008)"><path id="Path_4012" data-name="Path 4012" d="M376.948,240.175a.146.146,0,0,1-.014.187c-.426-.015-.671-.023-.969-.023-.313,0-.582.008-.91.023a.146.146,0,0,1-.014-.187l.156-.021c.432-.06.447-.15.447-.932v-.883c.187.011.394.015.611.015v.867c0,.782.015.88.492.932Z" transform="translate(-374.495 -235.398)" fill="#fff"></path><path id="Path_4013" data-name="Path 4013" d="M377.548,233.422a2.7,2.7,0,0,0-1.432-.3,11.72,11.72,0,0,0-1.475.059.125.125,0,0,0-.015.187l.268.029c.335.037.35.165.35.8v1.523c.192.01.522.006.611,0v-2.1c0-.237.007-.268.4-.268a1.1,1.1,0,0,1,1.2,1.193,1.161,1.161,0,0,1-1.1,1.253c-.119.017-.252.028-.392.034l-.116,0c-.139.012-.611,0-.611,0l-.116,0c-.556-.023-1.028-.069-1.031-.059a.127.127,0,0,0,.005.068,8.061,8.061,0,0,0,1.026.1l.116.006c.2.011.4.015.611.015h.116c.134,0,.268-.006.4-.014a2.908,2.908,0,0,0,1.028-.224,1.264,1.264,0,0,0,.745-1.187A1.288,1.288,0,0,0,377.548,233.422Z" transform="translate(-374.095 -233.124)" fill="#fff"></path></g></g></g><rect id="Rectangle_7311" data-name="Rectangle 7311" width="163" height="42" transform="translate(538 1276)" fill="red" opacity="0"></rect></g></svg>