<svg xmlns="http://www.w3.org/2000/svg" viewBox="0 0 88 42" width="88" height="42"><g id="Group_5244" data-name="Group 5244" transform="translate(-610 -326)"><rect id="Rectangle_7308" data-name="Rectangle 7308" width="88" height="42" transform="translate(610 326)" fill="red" opacity="0"></rect><g id="skrill" transform="translate(610 332)"><g id="Group_1767" data-name="Group 1767"><path id="Path_1154" data-name="Path 1154" d="M84.331,16.733l7.308-1.289V43.493H84.331Zm10.7,0V43.493h7.308V15.447Zm-21.1,26.759h7.3V22.965h-7.3Zm-48.32-17.6c-.926-.052-3.088-.206-3.088-2.11,0-2.316,3.088-2.316,4.22-2.316a25.265,25.265,0,0,1,6.535,1.184s1.029.36,1.956.772h.1V16.99h-.1a26.04,26.04,0,0,0-9.572-1.544c-8.231,0-11.167,4.786-11.167,8.9,0,2.367,1.029,7.976,10.446,8.594.823.052,2.933.155,2.933,2.161,0,1.647-1.749,2.624-4.683,2.624a22.8,22.8,0,0,1-8.182-1.6v6.535A39.141,39.141,0,0,0,24.74,43.8c8.079,0,11.681-4.528,11.681-9.057C36.422,29.65,32.408,26.357,25.616,25.894Zm44.2-3.19c-6.743.206-10.189,3.242-10.189,9.263V43.493h7.359V34.072c0-3.6.463-5.146,4.734-5.3V22.805a9.566,9.566,0,0,0-1.9-.1Zm-19.863.257a25.585,25.585,0,0,1-4.165,7.153V15.447l-7.565,1.488V43.493h7.561V35.262a29.167,29.167,0,0,1,3.242,8.231h9.057C57.212,39.787,53.3,32.939,53.3,32.939a33.618,33.618,0,0,0,5.3-9.983ZM77.59,21a3.58,3.58,0,1,0-2.554-1.049A3.6,3.6,0,0,0,77.59,21Z" transform="translate(-14.499 -13.801)" fill="#862165"></path></g></g></g></svg>