<svg xmlns="http://www.w3.org/2000/svg" viewBox="0 0 88.799 42" width="88.8" height="42"><g id="Group_5260" data-name="Group 5260" transform="translate(-1178.497 -326.218)"><rect id="Rectangle_7305" data-name="Rectangle 7305" width="88.799" height="42" transform="translate(1178.497 326.218)" fill="red" opacity="0"></rect><g id="Group_5258" data-name="Group 5258" transform="translate(1178.497 332.941)"><rect id="Rectangle_1" data-name="Rectangle 1" width="88.794" height="29.514" fill="rgba(106,32,32,0)"></rect><g id="Group_5202" data-name="Group 5202" transform="translate(0 0)"><g id="Group_15" data-name="Group 15" transform="translate(34.99 10.808)"><path id="Path_16" data-name="Path 16" d="M120898.367,33762.73l2.82-2.832c.016-.02.016-.02.031-.023a.8.8,0,0,0,.125-.406c.047-.027,0-.047.047-.062h0c0-.039-.047-.066-.047-.1a.52.52,0,0,0-.125-.367c-.016,0-.016,0-.031-.031l-2.82-2.828-.078-.09-1.883-1.9a.952.952,0,0,0-.547-.2.617.617,0,0,0-.469.2.947.947,0,0,0-.219.523v1.777a.393.393,0,0,0,.43.41c.047,0,.094-.012.148-.012a.562.562,0,0,0,.273-.4l-.047-1.543,4.516,4.535-2.758,2.773-1.758,1.77v-1.508a.377.377,0,0,0-.133-.281.314.314,0,0,0-.289-.117h-6.375a.4.4,0,0,0-.422.4.481.481,0,0,0,.422.434h5.961v1.359a.755.755,0,0,0,.188.5.708.708,0,0,0,.516.219.8.8,0,0,0,.531-.219l1.875-1.887.117-.109Z" transform="translate(-120881.313 -33751.672)" fill="#0f2c52" fill-rule="evenodd"></path><path id="Path_17" data-name="Path 17" d="M100685.086,27725.8a.938.938,0,0,0,.086-.459v-4.246a.86.86,0,0,0-.859-.9l-5.656-.021v-1.873a.317.317,0,0,0-.289-.314.471.471,0,0,0-.227.084l-5.031,5.061c-.1.061-.1.15-.1.244a.415.415,0,0,0,.086.236l5.016,5.061a.413.413,0,0,0,.219.084.334.334,0,0,0,.328-.32h0v-2.25h5.82A.8.8,0,0,0,100685.086,27725.8Z" transform="translate(-100673.008 -27717.994)" fill="#0f2c52" fill-rule="evenodd"></path></g><g id="&#x421;&#x43B;&#x43E;&#x439;_x0020_1"><path id="Rectangle_530" d="M0,29.514H32.639V26.549H0Zm25.965-6.8h2.966V9.856H25.965Zm-7.416,0H21.51V9.856H18.549Zm-7.42,0h2.966V9.856H11.128Zm-7.416,0H6.674V9.856H3.712ZM4.334,5.4H28.1L16.38,0ZM1.856,8.492H30.782V7.383H1.856Zm0,16.693H30.782v-1.11H1.856Z" fill="#0f2c52" fill-rule="evenodd"></path></g><g id="&#x421;&#x43B;&#x43E;&#x439;_x0020_1-2" data-name="&#x421;&#x43B;&#x43E;&#x439;_x0020_1" transform="translate(56.154)"><path id="Rectangle_530-2" data-name="Rectangle_530" d="M0,29.514H32.639V26.549H0Zm25.965-6.8h2.966V9.856H25.965Zm-7.416,0H21.51V9.856H18.549Zm-7.42,0h2.966V9.856H11.128Zm-7.416,0H6.674V9.856H3.712ZM4.334,5.4H28.1L16.38,0ZM1.856,8.492H30.782V7.383H1.856Zm0,16.693H30.782v-1.11H1.856Z" fill="#0f2c52" fill-rule="evenodd"></path></g></g></g></g></svg>