<svg xmlns="http://www.w3.org/2000/svg" xmlns:xlink="http://www.w3.org/1999/xlink" width="368" height="176" viewBox="0 0 368 176"><defs><path id="a" d="M192.436 33.974V1.102H1.135v32.872z"></path><path id="c" d="M0 .341v88.942h132.806V.34z"></path></defs><g fill="none" fill-rule="evenodd"><path d="M0 0h368v184H0z" opacity=".4"></path><path fill="#000" d="M68.747 120.976c-3.589 0-4.133 1.106-4.184 2.294-.057 1.367-.047 1.58-.036 1.884.015.192.033.446.033 1.037 0 .594.226 2.548 3.186 2.548h10.452c1.45 0 4.469-1.973 4.825-3.147l.048-.165v-2.167c-1.841-1.291-3.298-2.284-6.592-2.284h-7.732zm-.994 10.53c-4.5 0-5.701-3.339-5.701-5.315l-.018-.764c-.03-.46-.048-.764.018-2.286.134-3.276 2.39-4.936 6.697-4.936h7.73c2.998 0 4.874.749 6.59 1.916v-3.367c0-3.963-3.393-4.27-4.44-4.27H65.99v-2.773H78.63c2.583 0 6.955 1.487 6.955 7.054v14.582h-2.515v-1.925c-1.57 1.233-3.51 2.081-4.866 2.081H67.753v.004zm86.749-2.053s4.445.08 6.305.08l.518-.006c.214-.017 1.144-.093 1.625-.093 2.184 0 4.542-1.813 4.542-4.749v-7.08c0-1.084-1.076-4.048-4.542-4.048h-10.095c-3.47 0-4.546 2.964-4.546 4.047v7.078c0 2.934 2.361 4.742 4.546 4.742l1.647.03zm6.303 2.842c-1.873 0-6.36-.08-6.36-.08l-1.59-.025c-3.395 0-7.054-2.87-7.054-7.514v-7.067c0-2.38 2.066-6.828 7.054-6.828h10.097c4.988 0 7.062 4.449 7.062 6.828v7.067c0 4.638-3.665 7.514-7.062 7.514-.452 0-1.345.08-1.488.096l-.66.009zm-29.651 0c-3.944 0-6.302-3.04-6.302-5.98v-12.883h-4.192v-2.771h4.192v-3.774h2.515v3.774h12.893v2.77h-12.893v12.883c0 1.244 1.03 3.213 3.792 3.213l9.205.007v2.76h-9.21zm-30.712-.009c-5.22 0-7.166-4.392-7.166-7.158v-14.486h2.517v14.486c0 1.222.833 4.399 4.648 4.399h6.121c.618 0 6.045-.156 6.045-5.457v-.443h.107v-13.796l2.518-.005v21.516h-2.511v-1.312c-1.798 1.643-4.284 2.256-6.153 2.256h-6.126z"></path><g transform="translate(174.408 98.32)"><mask id="b" fill="#fff"><use xlink:href="#a"></use></mask><path fill="#008700" d="M146.941 33.974v-2.848h15.556c4.449 0 4.449-.722 4.449-3.766 0-.886-.152-1.516-.466-1.875-.518-.597-1.72-.597-2.688-.597h-11.444c-5.255 0-5.972-3.336-5.972-6.945 0-3.841 2.602-6.132 6.96-6.132h10.981v2.86h-10.98c-2.029 0-4.451.573-4.451 3.272 0 3.167.455 4.095 3.462 4.095h11.385c1.75 0 3.366.111 4.523 1.423.797.912 1.205 2.218 1.205 3.889.003 2.536-.36 4.026-1.232 5.026-.994 1.136-2.654 1.591-5.74 1.591h-15.548v.007zM135.633 7.848h2.518V1.102h-2.518v6.746zm0 25.147h2.518v-22h-2.518v22zm-45.873.012V11.011h2.515v1.573c.977-1.087 2.01-1.666 3.106-1.73.924-.056 2.372-.081 3.886-.081 2.32 0 4.815.05 5.86.068l.891.005-.049 2.857h-.387c-.799-.017-3.682-.067-6.312-.067-1.475 0-2.88.02-3.76.067-1.434.085-2.766 2.643-3.267 3.99l.032 15.318H89.76v-.004zM66.574 22.293c-3.59 0-4.128 1.144-4.177 2.372-.066 1.358-.052 1.61-.038 1.91.022.396.038.656.038 1.108 0 .615.232 2.63 3.174 2.63h10.43c1.554 0 4.487-2.134 4.817-3.246l.038-.136v-2.268c-1.827-1.338-3.28-2.364-6.563-2.364h-7.719v-.006zM65.58 33.16c-4.493 0-5.687-3.441-5.687-5.481 0-.385-.014-.603-.023-.752-.03-.514-.049-.824.023-2.394.136-3.382 2.382-5.092 6.681-5.092h7.72c2.996 0 4.864.772 6.562 1.978v-3.475c0-4.089-3.381-4.406-4.42-4.406H63.812V10.68h12.622c2.578 0 6.936 1.53 6.942 7.275v15.042h-2.52v-1.981c-1.558 1.267-3.497 2.14-4.85 2.14H65.58v.003zm-34.862-.167V3.245h2.51v9.468c1.22-1.245 2.759-1.915 4.417-1.915h9.866c2.158 0 6.188 2.344 6.188 7.996v13.382l-.059.38-.375.42-2.145-.032.031-.486.028-13.669c0-3.92-2.69-5.139-3.671-5.139h-9.865c-2.668 0-4.321 2.665-4.321 5.14l-.016 1.757c0 .102-.086 6.393-.068 7.835l.003.451h-.015v4.15h-2.508v.009zm-14.078.982l.022-.451-.157.451h-.158c-2.303 0-6.58-.08-6.58-.08l-1.588-.026c-3.389 0-7.044-2.962-7.044-7.753v-7.29c0-2.455 2.066-7.046 7.044-7.046H23.45l.35.056.308.088-.03 2.81-.44-.05-15.455-.039c-3.459 0-4.533 3.055-4.533 4.176v7.29c0 3.034 2.35 4.902 4.533 4.902l1.536.016c.098.005 4.96.087 6.624.087l.408.457-.007-.462c.851-.015 7.038-.098 7.038-.098l.293.4.127 2.384-.795.075c-.515 0-6.75.091-6.75.091h-.017v.012zm166.602 0c-3.933 0-6.28-3.135-6.28-6.169v-13.29h-4.19v-2.858h4.19V7.763h2.501v3.894h12.857v2.859h-12.857v13.289c0 1.28 1.029 3.315 3.785 3.315l9.19.006v2.848h-9.196zm-63.032 0c-3.935 0-6.293-3.135-6.293-6.169v-13.29h-4.19v-2.858h4.19V7.763h2.503v3.894h12.868v2.859H116.42v13.289c0 1.28 1.034 3.315 3.786 3.315l9.186.006v2.848h-9.182z" mask="url(#b)"></path></g><g transform="translate(0 43.377)"><mask id="d" fill="#fff"><use xlink:href="#c"></use></mask><path fill="#008700" d="M25.496 85.515c0 2.09-1.531 3.768-3.417 3.768h-3.137c-1.885 0-3.419-1.683-3.419-3.768v-28.29c0-2.085 1.532-3.762 3.419-3.762h3.137c1.886 0 3.42 1.682 3.42 3.762l-.003 28.29zm30.612-30.723c0 2.08-1.526 3.774-3.413 3.774h-3.13c-1.89 0-3.43-1.7-3.43-3.774V28.39c0-2.081 1.537-3.766 3.43-3.766h3.13c1.88 0 3.413 1.692 3.413 3.766v26.402zm76.698-33.705c0 2.085-1.526 3.774-3.417 3.774h-3.129c-1.885 0-3.422-1.69-3.422-3.774V4.113c0-2.084 1.537-3.772 3.422-3.772h3.129c1.887 0 3.417 1.688 3.417 3.772v16.974zM101.62 43.48c0 2.084-1.532 3.77-3.424 3.77h-3.132c-1.887 0-3.422-1.693-3.422-3.77V26.508c0-2.08 1.524-3.77 3.422-3.77h3.132c1.886 0 3.424 1.694 3.424 3.77v16.97zm-14.745-6.606c0 2.087-1.526 3.77-3.421 3.77h-3.13c-1.883 0-3.42-1.687-3.42-3.77V19.896c0-2.081 1.528-3.77 3.42-3.77h3.13c1.894 0 3.421 1.689 3.421 3.77v16.977zM40.738 61.627c0 2.08-1.533 3.767-3.428 3.767h-3.128c-1.887 0-3.422-1.691-3.422-3.767v-16.97c0-2.087 1.526-3.776 3.422-3.776h3.128c1.888 0 3.428 1.69 3.428 3.775v16.971zm76.406-24.985c0 2.082-1.53 3.772-3.426 3.772h-3.128c-1.89 0-3.422-1.69-3.422-3.772V25.325c0-2.086 1.53-3.77 3.422-3.77h3.128c1.895 0 3.426 1.684 3.426 3.77v11.317zm-45.078 8.014c0 2.08-1.53 3.766-3.42 3.766h-3.132c-1.88 0-3.425-1.693-3.425-3.766V37.11c0-2.087 1.54-3.773 3.425-3.773h3.132c1.886 0 3.42 1.685 3.42 3.773v7.547zM9.963 85.516c0 2.089-1.526 3.767-3.41 3.767h-3.13C1.531 89.283 0 87.6 0 85.515v-7.553C0 75.888 1.531 74.2 3.423 74.2h3.132c1.884 0 3.415 1.69 3.415 3.763l-.007 7.553z" mask="url(#d)"></path></g></g></svg>