<svg xmlns="http://www.w3.org/2000/svg" id="Layer_1" data-name="Layer 1" viewBox="0 0 210.41 45"><defs><style>.cls-1{fill:#e6007a;}</style></defs><path d="M65.35,6.68a27,27,0,0,0-5.81.57,2.45,2.45,0,0,0-2,2.29L52,35.31a8.37,8.37,0,0,0-.18,1.41,2,2,0,0,0,1.87,2.12H54c1.5,0,2.11-1,2.42-2.47L58,29a35.59,35.59,0,0,0,4.62.27c9.1,0,14.77-4.93,14.77-12.36C77.35,10.45,72.82,6.68,65.35,6.68Zm-3,18.38a27.57,27.57,0,0,1-3.52-.17l3-13.68a26.75,26.75,0,0,1,3.69-.31c4.84,0,7.3,2.29,7.3,6.07C72.77,21.81,69.25,25.06,62.35,25.06Z"></path><path d="M208.61,30.37c-.75,0-1.23.44-2.15,1.45-1.63,1.67-2.64,2.59-3.92,2.59s-1.75-.92-1.75-2.41a16.33,16.33,0,0,1,.39-2.95l1.63-7.65h4.88a2.25,2.25,0,0,0,2.47-2,3.38,3.38,0,0,0,0-.45c0-.89-.58-1.54-1.89-1.54h-4.58l.79-3.56a10.2,10.2,0,0,0,.17-1.46,2,2,0,0,0-1.88-2.12h-.31c-1.46,0-2.11,1-2.42,2.46l-1,4.67H197a2.27,2.27,0,0,0-2.51,2,2.57,2.57,0,0,0,0,.48c0,.88.62,1.54,1.94,1.54h1.8L196.56,29a18.3,18.3,0,0,0-.39,3.61c0,3.56,1.84,6.15,5.8,6.15a9,9,0,0,0,5.85-2.51c1.5-1.31,2.59-2.94,2.59-4a1.81,1.81,0,0,0-1.78-1.84Z"></path><path d="M107.46,9.31a2,2,0,0,0-1.87-2.12,1.51,1.51,0,0,0-.37,0c-1.45,0-2.11,1-2.42,2.46L97.31,35.21a5.6,5.6,0,0,0-.22,1.4A2,2,0,0,0,99,38.73h.33c1.49,0,2.15-1,2.46-2.46l5.5-25.58A10.54,10.54,0,0,0,107.46,9.31Z"></path><path d="M186,17c-7,0-11.83,7-11.83,13.63V31c-1.1,1.67-2.51,3.41-3.48,3.41-.7,0-1-.66-1-1.67a27.41,27.41,0,0,1,.75-5.1l3.69-16.92a8.37,8.37,0,0,0,.18-1.41,2,2,0,0,0-1.88-2.12h-.32c-1.5,0-2.11,1-2.42,2.46l-2,9.15a6.47,6.47,0,0,0-4.93-1.85c-4.67,0-9.37,3.6-11.2,9.11-2,5.22-3.82,8.3-5.24,8.3-.53,0-.84-.44-.84-1.18,0-2.2,1.23-7.57,1.76-10.16a11.34,11.34,0,0,0,.26-1.93c0-1.94-3.21-4.23-7.38-4.23a12.9,12.9,0,0,0-11.4,7.61c-3.26,5.76-6.25,9.89-7.73,9.89-.66,0-.88-.83-1.06-1.62l-1.07-6,6.72-5.5A3.22,3.22,0,0,0,127,18.94a1.87,1.87,0,0,0-1.73-2,1.22,1.22,0,0,0-.27,0,3.88,3.88,0,0,0-2.37,1.14l-10.12,8.38,3.41-15.78a9.41,9.41,0,0,0,.22-1.41,2,2,0,0,0-1.87-2.12,1.51,1.51,0,0,0-.37,0c-1.45,0-2.11,1-2.42,2.46l-5.49,25.55a5.11,5.11,0,0,0-.22,1.4,2,2,0,0,0,1.88,2.12h.31c1.5,0,2.16-1,2.47-2.46l.7-3.3,4.14-3.34,1,5.1c.39,2,1.45,4,4.17,4s4.85-2.47,7-5.82c.65,3.51,3.14,5.82,6.6,5.82s5.85-2.07,7.39-4.83v.08c0,2.86,1.45,4.75,4,4.75,2.31,0,4.23-1.39,5.94-4.34a6.38,6.38,0,0,0,6.14,4.34c3.57,0,6.12-2.15,7.74-5.14v.26c0,3.17,1.59,4.89,4.18,4.89,2.29,0,4.24-1.33,5.9-3.5a7.21,7.21,0,0,0,6.59,3.5c7,0,11.83-7,11.83-13.68C193.71,20.34,190.85,17,186,17Zm-43.83,8.93c-1.28,5.49-4,8.61-7.09,8.61-2.06,0-3.21-1.58-3.21-3.95,0-4.66,3.39-9.68,7.92-9.68a6.09,6.09,0,0,1,3.34,1Zm24.49-2.33C165.21,30,162,34.5,158.48,34.5c-1.93,0-3.08-1.49-3.08-3.95,0-4.71,3.26-9.59,7.61-9.59a6,6,0,0,1,3.87,1.32ZM182.4,34.5c-2.55,0-3.6-1.84-3.6-4.17,0-4.27,2.94-9.15,6.64-9.15,2.55,0,3.6,1.85,3.6,4.18,0,4.32-2.94,9.14-6.64,9.14Z"></path><path d="M88.3,17c-7,0-11.83,7-11.83,13.63,0,4.75,2.86,8.13,7.74,8.13,7,0,11.83-7,11.83-13.67C96,20.34,93.18,17,88.3,17ZM84.74,34.5c-2.55,0-3.6-1.84-3.6-4.17,0-4.27,2.94-9.15,6.64-9.15,2.55,0,3.6,1.85,3.6,4.18C91.38,29.68,88.46,34.5,84.74,34.5Z"></path><ellipse class="cls-1" cx="21.16" cy="4.72" rx="8.11" ry="4.72"></ellipse><ellipse class="cls-1" cx="21.16" cy="40.28" rx="8.11" ry="4.72"></ellipse><ellipse class="cls-1" cx="5.76" cy="13.6" rx="8.11" ry="4.72" transform="translate(-8.9 11.79) rotate(-60)"></ellipse><ellipse class="cls-1" cx="36.56" cy="31.38" rx="8.11" ry="4.72" transform="translate(-8.89 47.35) rotate(-60)"></ellipse><ellipse class="cls-1" cx="5.76" cy="31.4" rx="4.72" ry="8.11" transform="translate(-14.93 7.09) rotate(-30)"></ellipse><ellipse class="cls-1" cx="36.56" cy="13.61" rx="4.72" ry="8.11" transform="translate(-1.91 20.1) rotate(-30)"></ellipse></svg>