<svg xmlns="http://www.w3.org/2000/svg" id="Layer_1" data-name="Layer 1" viewBox="0 0 180.12 45.03"><g id="Layer_1-3" data-name="Layer 1-3"><path d="M138.13,6.64h4V38.33h-4Zm-8,0h4V38.33h-4ZM160.92,28.5c0,5.54-3.56,7.24-7.27,7.24-2.85,0-4.54-1.48-4.54-3.71,0-3.25,4.61-4.33,11.81-5Zm3.6,1V24c.07-6.66-2.74-9.69-9.33-9.69-4.54,0-9.11,2.85-9.43,7.93h4.1c.18-2.92,2-4.69,5.37-4.69,3,0,5.33,1.41,5.33,5.73v.58c-9.62,1-15.92,2.7-15.92,8.24,0,4.33,3.67,6.77,8.1,6.77,4.18,0,6.59-1.33,8-3.78a24.77,24.77,0,0,0,.33,3.21h4a39.3,39.3,0,0,1-.62-8.86Zm14.37-14.8a7,7,0,0,0-6.62,4.22V14.81h-3.89V38.33h4V26c0-5.23,1.83-7.21,5.51-7.21a15.17,15.17,0,0,1,2.23.22V14.73a11.81,11.81,0,0,0-1.19,0ZM100.1,8.94h-4v5.87H92.39V18H96.1v14.4c0,4.9,1,5.91,5.54,5.91h2.92V35h-2c-2.26,0-2.44-.61-2.44-3V18h4.46V14.8h-4.46ZM80.9,20.18l-3.67-.83c-3-.68-5.19-2.05-5.19-4.86,0-3.57,4.29-4.65,6.74-4.65,3.16,0,6.84,1.26,7.88,4.9H91C89.72,8.65,84.68,6.1,79,6.1c-5.11,0-11.45,2.55-11.45,8.64,0,5.26,4.32,7.71,8.68,8.64l4,.83c4,.94,6.81,2.23,6.81,5.62,0,3.13-2.67,5.33-7.39,5.33-4.93,0-7.92-2.27-8.75-6.66H66.53c.82,6.3,5.54,10.4,13,10.4,6.3,0,12.06-3.31,12.06-9.5,0-6.38-5.83-8.21-10.66-9.26Zm28.49,4.32c.36-4.75,3.6-6.66,7.09-6.66a6.68,6.68,0,0,1,6.77,6.59v.07Zm7.09-10.08c-6.41,0-11.41,4.75-11.41,12.2,0,7,4.1,12.28,11.52,12.28,5.73,0,9.51-3.34,10.52-7.38h-4c-1,2.31-3,3.89-6.44,3.89a7.2,7.2,0,0,1-7.24-7.49h18.08c.5-7.49-3.75-13.47-11-13.47ZM53.21,11.24l-42,21.39L7.53,34.46,0,38.32v4.61l7.5-3.82,6.41-3.28,31-15.77A18.42,18.42,0,0,1,29.06,40.73a20,20,0,0,1-2.45.18,18.45,18.45,0,0,1-9-2.38l-.22.15-4,2A22.53,22.53,0,0,0,49.21,22.47a12.45,12.45,0,0,0-.08-1.73,4.14,4.14,0,0,1,2.24-4l1.91-1ZM45.72,5.87,39.31,9.11,8.41,24.89A18.4,18.4,0,0,1,35.67,6.41l3.68-1.87.54-.29A22.52,22.52,0,0,0,4.21,22.47V24.2a4.09,4.09,0,0,1-2.2,4l-1.95,1v4.61l5.7-2.91L7.59,30l1.84-.9L42,12.42l3.67-1.87,7.52-3.91V2Z"></path></g></svg>