<svg xmlns="http://www.w3.org/2000/svg" id="Group_5274" data-name="Group 5274" viewBox="0 0 55.389 54.852"><path id="Path_4750" data-name="Path 4750" d="M16948.986,32470.758h46.219v-32.77h-46.219Zm46.713.988H16948v-34.129a.568.568,0,0,1,.617-.617h46.957a.571.571,0,0,1,.619.617v34.129Z" transform="translate(-16944.463 -32433.545)" fill="#0f2c52"></path><path id="Path_4751" data-name="Path 4751" d="M17369,33558h13.2v.984H17369Z" transform="translate(-17348.152 -33508.453)" fill="#0f2c52"></path><path id="Path_4752" data-name="Path 4752" d="M17417,33445h9.621v.984H17417Z" transform="translate(-17394.178 -33400.098)" fill="#0f2c52"></path><path id="Path_4753" data-name="Path 4753" d="M17270.75,33447.754l-1.605,3.293h19.367l-1.727-3.293h-1.6a.53.53,0,0,1-.5-.41l-1.191-4.359h-9.457l-1.193,4.4a.574.574,0,0,1-.494.367Zm-2.879,3.578,2.137-4.316a.474.474,0,0,1,.453-.246h1.521l1.193-4.359a.524.524,0,0,1,.492-.41h10.2a.493.493,0,0,1,.492.367l1.191,4.4h1.563a.57.57,0,0,1,.453.246l2.18,4.316a.323.323,0,0,1,.082.207.5.5,0,0,1-.492.5l-20.973.035a.55.55,0,0,1-.246-.078A.5.5,0,0,1,17267.871,33451.332Z" transform="translate(-17251.135 -33397.219)" fill="#0f2c52"></path><path id="Path_4754" data-name="Path 4754" d="M17683.111,32962.949h0a.223.223,0,0,1-.164-.082l-3-3a4.551,4.551,0,0,0-.824,1.359.226.226,0,0,1-.246.164.266.266,0,0,1-.205-.207l-1.07-4.852a.256.256,0,0,1,.041-.246.62.62,0,0,1,.248-.082l4.852,1.066a.264.264,0,0,1,.205.25.26.26,0,0,1-.164.246,11.489,11.489,0,0,0-1.355.781l3,3a.233.233,0,0,1,0,.371l-1.109,1.109C17683.236,32962.906,17683.2,32962.949,17683.111,32962.949Z" transform="translate(-17644.049 -32931.203)" fill="#0f2c52" fill-rule="evenodd"></path><path id="Path_4755" data-name="Path 4755" d="M17210.617,32786h25.412a.616.616,0,0,1,.453.164.872.872,0,0,1,.164.449v5.059a.873.873,0,0,1-.164.453.616.616,0,0,1-.453.164h-25.412a.616.616,0,0,1-.453-.164.624.624,0,0,1-.164-.453v-5.059a.621.621,0,0,1,.164-.449A.873.873,0,0,1,17210.617,32786Zm25.041.988h-24.672v4.316h24.672Z" transform="translate(-17195.691 -32768.195)" fill="#0f2c52"></path><path id="Path_4756" data-name="Path 4756" d="M16863.48,32353h52.428a1.539,1.539,0,0,1,1.027.41,1.489,1.489,0,0,1,.453,1.07v43.051a1.55,1.55,0,0,1-1.48,1.523h-52.428a1.55,1.55,0,0,1-1.48-1.523v-43.051a1.407,1.407,0,0,1,1.48-1.48Zm52.387,1.48h-52.387v43.051h52.387Z" transform="translate(-16862 -32353)" fill="#0f2c52"></path></svg>