<svg xmlns="http://www.w3.org/2000/svg" xmlns:xlink="http://www.w3.org/1999/xlink" viewBox="0 0 56 56"><defs><clipPath id="clip-path"><rect width="56" height="56" fill="none"></rect></clipPath></defs><g id="icon_24_hours" clip-path="url(#clip-path)"><rect id="icon_mask" width="56" height="56" fill="none"></rect><g id="icon" transform="translate(-644 -183)"><g id="Group_2491" data-name="Group 2491"><path id="Path_1718" data-name="Path 1718" d="M668.8,234.7A24.6,24.6,0,1,1,693.4,210a.789.789,0,0,1-.8.8.736.736,0,0,1-.8-.8,23.1,23.1,0,1,0-23.1,23.2,23.448,23.448,0,0,0,8.3-1.5.731.731,0,0,1,1,.4.819.819,0,0,1-.4,1A23.687,23.687,0,0,1,668.8,234.7Z" fill="#0f2c52"></path></g><g id="Group_2492" data-name="Group 2492"><path id="Path_1719" data-name="Path 1719" d="M685.6,235.6a14,14,0,1,1,14-14A14.041,14.041,0,0,1,685.6,235.6Zm0-26.9a13,13,0,1,0,13,13A13.038,13.038,0,0,0,685.6,208.7Z" fill="#0f2c52"></path></g><g id="Group_2493" data-name="Group 2493"><path id="Path_1720" data-name="Path 1720" d="M669.5,208.6a.6.6,0,0,1-.4-.1.483.483,0,0,1,0-.7l9.8-9.8a.495.495,0,0,1,.7.7l-9.8,9.8A.367.367,0,0,1,669.5,208.6Z" fill="#0f2c52"></path></g><g id="Group_2494" data-name="Group 2494"><path id="Path_1721" data-name="Path 1721" d="M668.8,207.9h-.1a.548.548,0,0,1-.4-.6l.6-2.2a.51.51,0,0,1,1,.2l-.6,2.2A.51.51,0,0,1,668.8,207.9Z" fill="#0f2c52"></path></g><g id="Group_2495" data-name="Group 2495"><path id="Path_1722" data-name="Path 1722" d="M669.6,213.1a.713.713,0,0,1-.6-.3l-10.2-10.2a.913.913,0,0,1,0-1.2l1.7-1.7a.913.913,0,0,1,1.2,0l10.2,10.2a.913.913,0,0,1,0,1.2l-1.7,1.7A.6.6,0,0,1,669.6,213.1Zm-10-11.1,10.1,10.1,1.5-1.5-10.1-10.1Z" fill="#0f2c52"></path></g><g id="Group_2496" data-name="Group 2496"><path id="Path_1723" data-name="Path 1723" d="M685.1,226.6v1.2h-8.2v-1.1l4.5-5a12.887,12.887,0,0,0,1.3-1.8,3.167,3.167,0,0,0,.4-1.6,1.969,1.969,0,0,0-.6-1.6,2.352,2.352,0,0,0-1.7-.6,5.637,5.637,0,0,0-3.6,1.5l-.6-1.1a5.161,5.161,0,0,1,1.9-1.2,6.2,6.2,0,0,1,2.3-.4,4.1,4.1,0,0,1,2.8.9,3.04,3.04,0,0,1,1,2.5,5.375,5.375,0,0,1-.5,2.1,12.127,12.127,0,0,1-1.6,2.3l-3.7,4h6.3Z" fill="#0f2c52"></path><path id="Path_1724" data-name="Path 1724" d="M695.3,223.8V225h-1.9v2.8h-1.5V225H686v-1.1l6.2-8.9h1.2v8.8Zm-7.8,0h4.4v-6.3Z" fill="#0f2c52"></path></g><g id="Group_2497" data-name="Group 2497"><path id="Path_1725" data-name="Path 1725" d="M664.2,225.1h-.1a.548.548,0,0,1-.4-.6l3.7-13.7a.51.51,0,0,1,1,.2l-3.7,13.7A.51.51,0,0,1,664.2,225.1Z" fill="#0f2c52"></path></g><g id="Group_2498" data-name="Group 2498"><path id="Path_1726" data-name="Path 1726" d="M665.2,212.9a.6.6,0,0,1-.4-.1.483.483,0,0,1,0-.7l2-2a.495.495,0,0,1,.7.7l-2,2A1.007,1.007,0,0,1,665.2,212.9Z" fill="#0f2c52"></path></g></g></g></svg>