<svg xmlns="http://www.w3.org/2000/svg" viewBox="0 0 41 54"><g id="&#x421;&#x433;&#x440;&#x443;&#x43F;&#x43F;&#x438;&#x440;&#x43E;&#x432;&#x430;&#x442;&#x44C;_5289" data-name="&#x421;&#x433;&#x440;&#x443;&#x43F;&#x43F;&#x438;&#x440;&#x43E;&#x432;&#x430;&#x442;&#x44C; 5289" transform="translate(-830 -371)"><path id="&#x418;&#x441;&#x43A;&#x43B;&#x44E;&#x447;&#x435;&#x43D;&#x438;&#x435;_1" data-name="&#x418;&#x441;&#x43A;&#x43B;&#x44E;&#x447;&#x435;&#x43D;&#x438;&#x435; 1" d="M-1699.807,24h-21.387v-.851H-1725V14.5a14.4,14.4,0,0,1,4.247-10.253A14.405,14.405,0,0,1-1710.5,0a14.406,14.406,0,0,1,10.254,4.247A14.4,14.4,0,0,1-1696,14.5v8.647h-3.807V24Zm-21.387-.852h21.387V14.471A10.705,10.705,0,0,0-1710.5,3.778a10.7,10.7,0,0,0-10.693,10.693v8.677Z" transform="translate(2561 371)" fill="#ff8055"></path><rect id="&#x41F;&#x440;&#x44F;&#x43C;&#x43E;&#x443;&#x433;&#x43E;&#x43B;&#x44C;&#x43D;&#x438;&#x43A;_20112" data-name="&#x41F;&#x440;&#x44F;&#x43C;&#x43E;&#x443;&#x433;&#x43E;&#x43B;&#x44C;&#x43D;&#x438;&#x43A; 20112" width="41" height="31" rx="2" transform="translate(830 394)" fill="#4c4c4c"></rect><path id="&#x41A;&#x43E;&#x43D;&#x442;&#x443;&#x440;_5098" data-name="&#x41A;&#x43E;&#x43D;&#x442;&#x443;&#x440; 5098" d="M674.414,738.736h-4.2a.727.727,0,0,1-.5-.252c-.084-.168-.168-.252-.168-.42l.757-5.3a3.1,3.1,0,0,1,2.018-5.466,3.052,3.052,0,0,1,3.111,3.111,2.832,2.832,0,0,1-1.177,2.354l.757,5.3c0,.168,0,.336-.168.42A.463.463,0,0,1,674.414,738.736Z" transform="translate(177.8 -325.888)" fill="#fff"></path><rect id="&#x41F;&#x440;&#x44F;&#x43C;&#x43E;&#x443;&#x433;&#x43E;&#x43B;&#x44C;&#x43D;&#x438;&#x43A;_20115" data-name="&#x41F;&#x440;&#x44F;&#x43C;&#x43E;&#x443;&#x433;&#x43E;&#x43B;&#x44C;&#x43D;&#x438;&#x43A; 20115" width="35" height="1.5" rx="0.75" transform="translate(833 418)" fill="#fff"></rect></g></svg>