<svg xmlns="http://www.w3.org/2000/svg" viewBox="0 0 55.094 56"><g id="Group_2122" data-name="Group 2122" transform="translate(-387.4 -8.7)"><g id="Group_2118" data-name="Group 2118" transform="translate(387.4 50.9)"><path id="Path_1402" data-name="Path 1402" d="M394.3,64.3a6.9,6.9,0,1,1,6.9-6.9A6.914,6.914,0,0,1,394.3,64.3Zm0-12.4a5.4,5.4,0,1,0,5.4,5.4A5.378,5.378,0,0,0,394.3,51.9Z" transform="translate(-387.4 -50.5)" fill="#0f2c52"></path></g><g id="Group_2119" data-name="Group 2119" transform="translate(398.458 9.95)"><path id="Path_1403" data-name="Path 1403" d="M432,61.8a.6.6,0,0,1-.4-.1l-5.5-5.543L420.6,61.7a.481.481,0,0,1-.7,0,.49.49,0,0,1,0-.705l5.5-5.543-5.5-5.543a.49.49,0,0,1,0-.705.481.481,0,0,1,.7,0l5.5,5.543,5.5-5.543a.481.481,0,0,1,.7,0,.49.49,0,0,1,0,.705l-5.5,5.543,5.5,5.543a.49.49,0,0,1,0,.705A1,1,0,0,1,432,61.8ZM410.5,22.7a.6.6,0,0,1-.4-.1l-5.5-5.543L399.1,22.6a.481.481,0,0,1-.7,0,.49.49,0,0,1,0-.705l5.5-5.543-5.5-5.543a.49.49,0,0,1,0-.705.481.481,0,0,1,.7,0l5.5,5.543,5.5-5.543a.481.481,0,0,1,.7,0,.49.49,0,0,1,0,.705l-5.5,5.543,5.5,5.543a.49.49,0,0,1,0,.705A.366.366,0,0,1,410.5,22.7Z" transform="translate(-398.25 -9.95)" fill="#0f2c52"></path></g><g id="Group_2120" data-name="Group 2120" transform="translate(393.59 8.8)"><path id="Path_1404" data-name="Path 1404" d="M394.306,51.9a.687.687,0,0,1-.706-.7c-.4-18.3,10.9-18.6,21.892-18.8,6.759-.2,13.619-.3,17.655-4.8,3.228-3.5,4.338-9.4,3.632-18a.758.758,0,0,1,1.513-.1c.807,9-.605,15.3-4.035,19.2-4.439,4.9-11.7,5.1-18.764,5.3-10.694.2-20.782.5-20.379,17.3a.878.878,0,0,1-.807.6Z" transform="translate(-393.59 -8.8)" fill="#0f2c52"></path></g><g id="Group_2121" data-name="Group 2121" transform="translate(432.294 8.7)"><path id="Path_1405" data-name="Path 1405" d="M432.7,18a.6.6,0,0,1-.4-.1.714.714,0,0,1-.3-1l4.4-7.7c0-.1.1-.1.1-.2l.2-.2c.1,0,.2-.1.3-.1a.367.367,0,0,1,.3.1.215.215,0,0,1,.2.2.349.349,0,0,1,.1.2l4.4,7.7a.738.738,0,1,1-1.3.7L436.9,11l-3.8,6.6C433.2,17.9,432.9,18,432.7,18Z" transform="translate(-431.9 -8.7)" fill="#0f2c52"></path></g></g></svg>