<svg xmlns="http://www.w3.org/2000/svg" viewBox="0 0 56 56"><g id="&#x421;&#x433;&#x440;&#x443;&#x43F;&#x43F;&#x438;&#x440;&#x43E;&#x432;&#x430;&#x442;&#x44C;_5287" data-name="&#x421;&#x433;&#x440;&#x443;&#x43F;&#x43F;&#x438;&#x440;&#x43E;&#x432;&#x430;&#x442;&#x44C; 5287" transform="translate(-721 -1501)"><rect id="&#x41F;&#x440;&#x44F;&#x43C;&#x43E;&#x443;&#x433;&#x43E;&#x43B;&#x44C;&#x43D;&#x438;&#x43A;_2962" data-name="&#x41F;&#x440;&#x44F;&#x43C;&#x43E;&#x443;&#x433;&#x43E;&#x43B;&#x44C;&#x43D;&#x438;&#x43A; 2962" width="56" height="56" transform="translate(721 1501)" fill="gray" opacity="0"></rect><g id="_2297188923008" transform="translate(721 1504)"><path id="&#x41A;&#x43E;&#x43D;&#x442;&#x443;&#x440;_4978" data-name="&#x41A;&#x43E;&#x43D;&#x442;&#x443;&#x440; 4978" d="M45943,166.712a23.066,23.066,0,0,1,46.125-.055l-1.383.022a21.675,21.675,0,0,0-43.344.055Z" transform="translate(-45938.059 -144)" fill="#4c4c4c"></path><path id="&#x41A;&#x43E;&#x43D;&#x442;&#x443;&#x440;_4976" data-name="&#x41A;&#x43E;&#x43D;&#x442;&#x443;&#x440; 4976" d="M49738.105,2130a7.516,7.516,0,1,1,0,15.032H49736V2130Z" transform="translate(-49689.629 -2108.304)" fill="#ff8055"></path><path id="&#x41A;&#x43E;&#x43D;&#x442;&#x443;&#x440;_4977" data-name="&#x41A;&#x43E;&#x43D;&#x442;&#x443;&#x440; 4977" d="M45493.2,2132.2a7.509,7.509,0,0,1,5.316-2.2h2.113v15.032h-2.113a7.519,7.519,0,0,1-5.316-12.836Z" transform="translate(-45491 -2108.304)" fill="#ff8055"></path><path id="&#x41A;&#x43E;&#x43D;&#x442;&#x443;&#x440;_4979" data-name="&#x41A;&#x43E;&#x43D;&#x442;&#x443;&#x440; 4979" d="M48006,2729h1.047v1.955H48006Z" transform="translate(-47978.527 -2700.76)" fill="#ff8055" fill-rule="evenodd"></path><path id="&#x41A;&#x43E;&#x43D;&#x442;&#x443;&#x440;_4980" data-name="&#x41A;&#x43E;&#x43D;&#x442;&#x443;&#x440; 4980" d="M47554,2729h1.051v1.955H47554Z" transform="translate(-47531.465 -2700.76)" fill="#ff8055" fill-rule="evenodd"></path><path id="&#x41A;&#x43E;&#x43D;&#x442;&#x443;&#x440;_4981" data-name="&#x41A;&#x43E;&#x43D;&#x442;&#x443;&#x440; 4981" d="M48459,2729h1.047v1.955H48459Z" transform="translate(-48426.578 -2700.76)" fill="#ff8055" fill-rule="evenodd"></path><path id="&#x41A;&#x43E;&#x43D;&#x442;&#x443;&#x440;_4982" data-name="&#x41A;&#x43E;&#x43D;&#x442;&#x443;&#x440; 4982" d="M48334.875,3271v3.987a12.675,12.675,0,0,1-3.5,8.63,11.266,11.266,0,0,1-8.156,3.671H48318V3285.9h5.223a9.935,9.935,0,0,0,7.156-3.234,11.382,11.382,0,0,0,3.113-7.68V3271Z" transform="translate(-48287.121 -3236.84)" fill="#ff8055"></path><path id="&#x41A;&#x43E;&#x43D;&#x442;&#x443;&#x440;_4983" data-name="&#x41A;&#x43E;&#x43D;&#x442;&#x443;&#x440; 4983" d="M48010.781,4251h2.941a2.829,2.829,0,0,1,1.977.82,2.791,2.791,0,0,1-1.977,4.763h-2.941a2.805,2.805,0,0,1-2.785-2.785,2.807,2.807,0,0,1,2.785-2.8Z" transform="translate(-47980.5 -4206.133)" fill="#ff8055"></path><path id="&#x41A;&#x43E;&#x43D;&#x442;&#x443;&#x440;_4974" data-name="&#x41A;&#x43E;&#x43D;&#x442;&#x443;&#x440; 4974" d="M46247.75,1930a2.76,2.76,0,0,1,2.766,2.753v13.885a2.76,2.76,0,0,1-5.52,0v-13.885a2.7,2.7,0,0,1,.813-1.933A2.748,2.748,0,0,1,46247.75,1930Z" transform="translate(-46236.758 -1910.489)" fill="#4c4c4c"></path><path id="&#x41A;&#x43E;&#x43D;&#x442;&#x443;&#x440;_4975" data-name="&#x41A;&#x43E;&#x43D;&#x442;&#x443;&#x440; 4975" d="M49361.746,1930a2.753,2.753,0,0,1,2.758,2.753v13.885a2.752,2.752,0,0,1-5.5,0v-13.885a2.68,2.68,0,0,1,.813-1.933A2.736,2.736,0,0,1,49361.746,1930Z" transform="translate(-49316.742 -1910.489)" fill="#4c4c4c"></path></g></g></svg>