<svg xmlns="http://www.w3.org/2000/svg" viewBox="0 0 56 56"><g id="&#x421;&#x433;&#x440;&#x443;&#x43F;&#x43F;&#x438;&#x440;&#x43E;&#x432;&#x430;&#x442;&#x44C;_5273" data-name="&#x421;&#x433;&#x440;&#x443;&#x43F;&#x43F;&#x438;&#x440;&#x43E;&#x432;&#x430;&#x442;&#x44C; 5273" transform="translate(-867 -355)"><rect id="&#x41F;&#x440;&#x44F;&#x43C;&#x43E;&#x443;&#x433;&#x43E;&#x43B;&#x44C;&#x43D;&#x438;&#x43A;_20113" data-name="&#x41F;&#x440;&#x44F;&#x43C;&#x43E;&#x443;&#x433;&#x43E;&#x43B;&#x44C;&#x43D;&#x438;&#x43A; 20113" width="56" height="56" transform="translate(867 355)" fill="#fff" opacity="0"></rect><g id="&#x421;&#x433;&#x440;&#x443;&#x43F;&#x43F;&#x438;&#x440;&#x43E;&#x432;&#x430;&#x442;&#x44C;_5272" data-name="&#x421;&#x433;&#x440;&#x443;&#x43F;&#x43F;&#x438;&#x440;&#x43E;&#x432;&#x430;&#x442;&#x44C; 5272" transform="translate(0 -4)"><path id="&#x41A;&#x43E;&#x43D;&#x442;&#x443;&#x440;_5078" data-name="&#x41A;&#x43E;&#x43D;&#x442;&#x443;&#x440; 5078" d="M54.992,12.955a.855.855,0,0,1,0,1.71H.855a.855.855,0,1,1,0-1.71Z" transform="translate(867.057 397.045)" fill="#4c4c4c"></path><path id="&#x41A;&#x43E;&#x43D;&#x442;&#x443;&#x440;_5079" data-name="&#x41A;&#x43E;&#x43D;&#x442;&#x443;&#x440; 5079" d="M21.975,24.922a2.756,2.756,0,1,1,3.9,3.9l-8.936,8.936a2.75,2.75,0,0,1-3.9,0L4.1,28.82A2.755,2.755,0,0,1,8,24.922l4.234,4.23V2.757a2.757,2.757,0,0,1,5.513,0v26.4Z" transform="translate(879.569 370.997)" fill="#ff8055"></path></g></g></svg>