<svg xmlns="http://www.w3.org/2000/svg" viewBox="0 0 56 56"><g id="&#x421;&#x433;&#x440;&#x443;&#x43F;&#x43F;&#x438;&#x440;&#x43E;&#x432;&#x430;&#x442;&#x44C;_5313" data-name="&#x421;&#x433;&#x440;&#x443;&#x43F;&#x43F;&#x438;&#x440;&#x43E;&#x432;&#x430;&#x442;&#x44C; 5313" transform="translate(-282 -2138)"><g id="&#x42D;&#x43B;&#x43B;&#x438;&#x43F;&#x441;_178" data-name="&#x42D;&#x43B;&#x43B;&#x438;&#x43F;&#x441; 178" transform="translate(282 2138)" fill="#fff" stroke="#ff8055" stroke-width="4"><circle cx="28" cy="28" r="28" stroke="none"></circle><circle cx="28" cy="28" r="26" fill="none"></circle></g><circle id="&#x42D;&#x43B;&#x43B;&#x438;&#x43F;&#x441;_179" data-name="&#x42D;&#x43B;&#x43B;&#x438;&#x43F;&#x441; 179" cx="21" cy="21" r="21" transform="translate(289 2145)" fill="#4c4c4c"></circle><path id="&#x41A;&#x43E;&#x43D;&#x442;&#x443;&#x440;_5188" data-name="&#x41A;&#x43E;&#x43D;&#x442;&#x443;&#x440; 5188" d="M11907.9,23232.637a.789.789,0,0,1-.246-1.027.75.75,0,0,1,1.027-.246l9.992,6.209,15.338-8.883a.755.755,0,0,1,.74,1.316l-16.078,9.293Z" transform="translate(-11609.624 -21071.516)" fill="#fff"></path><rect id="&#x41F;&#x440;&#x44F;&#x43C;&#x43E;&#x443;&#x433;&#x43E;&#x43B;&#x44C;&#x43D;&#x438;&#x43A;_20165" data-name="&#x41F;&#x440;&#x44F;&#x43C;&#x43E;&#x443;&#x433;&#x43E;&#x43B;&#x44C;&#x43D;&#x438;&#x43A; 20165" width="1.5" height="6" rx="0.75" transform="translate(309 2141)" fill="#ff8055"></rect><rect id="&#x41F;&#x440;&#x44F;&#x43C;&#x43E;&#x443;&#x433;&#x43E;&#x43B;&#x44C;&#x43D;&#x438;&#x43A;_20166" data-name="&#x41F;&#x440;&#x44F;&#x43C;&#x43E;&#x443;&#x433;&#x43E;&#x43B;&#x44C;&#x43D;&#x438;&#x43A; 20166" width="1.5" height="6" rx="0.75" transform="translate(309 2185)" fill="#ff8055"></rect><rect id="&#x41F;&#x440;&#x44F;&#x43C;&#x43E;&#x443;&#x433;&#x43E;&#x43B;&#x44C;&#x43D;&#x438;&#x43A;_20167" data-name="&#x41F;&#x440;&#x44F;&#x43C;&#x43E;&#x443;&#x433;&#x43E;&#x43B;&#x44C;&#x43D;&#x438;&#x43A; 20167" width="1.5" height="6" rx="0.75" transform="translate(284.75 2166.75) rotate(-90)" fill="#ff8055"></rect><rect id="&#x41F;&#x440;&#x44F;&#x43C;&#x43E;&#x443;&#x433;&#x43E;&#x43B;&#x44C;&#x43D;&#x438;&#x43A;_20168" data-name="&#x41F;&#x440;&#x44F;&#x43C;&#x43E;&#x443;&#x433;&#x43E;&#x43B;&#x44C;&#x43D;&#x438;&#x43A; 20168" width="1.5" height="6" rx="0.75" transform="translate(328.75 2166.75) rotate(-90)" fill="#ff8055"></rect></g></svg>