<svg xmlns="http://www.w3.org/2000/svg" viewBox="0 0 55.664 53.641"><g id="&#x421;&#x433;&#x440;&#x443;&#x43F;&#x43F;&#x438;&#x440;&#x43E;&#x432;&#x430;&#x442;&#x44C;_5355" data-name="&#x421;&#x433;&#x440;&#x443;&#x43F;&#x43F;&#x438;&#x440;&#x43E;&#x432;&#x430;&#x442;&#x44C; 5355" transform="translate(0.276 0)"><path id="&#x41A;&#x43E;&#x43D;&#x442;&#x443;&#x440;_4781" data-name="&#x41A;&#x43E;&#x43D;&#x442;&#x443;&#x440; 4781" d="M25473.768,32375h36.432a1.708,1.708,0,0,1,1.234.535,1.647,1.647,0,0,1,.535,1.234v43.176a1.643,1.643,0,0,1-.535,1.232,1.716,1.716,0,0,1-1.234.535h-19.777l1.15-1.275a19.565,19.565,0,0,0,3.7-6,19.263,19.263,0,0,0-17.969-26.193,19.857,19.857,0,0,0-4.4.494l-.9.248v-12.213a1.827,1.827,0,0,1,1.768-1.77Zm36.432,1.521h-36.432c-.082,0-.166,0-.205.041a.365.365,0,0,0-.043.207v10.32c.453-.082.945-.164,1.4-.205a23.227,23.227,0,0,1,2.387-.123,20.712,20.712,0,0,1,16.406,33.43h16.488c.082,0,.125,0,.164-.041a.226.226,0,0,0,.082-.205v-43.176a.231.231,0,0,0-.082-.207C25510.324,32376.52,25510.281,32376.52,25510.2,32376.52Z" transform="translate(-25456.58 -32374.998)" fill="#4c4c4c"></path><path id="&#x41A;&#x43E;&#x43D;&#x442;&#x443;&#x440;_4783" data-name="&#x41A;&#x43E;&#x43D;&#x442;&#x443;&#x440; 4783" d="M25117.723,32661a20.744,20.744,0,1,1,0,41.488,20.7,20.7,0,0,1-20.723-20.764,20.705,20.705,0,0,1,20.723-20.725Zm13.611,7.113a19.243,19.243,0,0,0-32.854,13.611,19.243,19.243,0,1,0,32.854-13.611Z" transform="translate(-25097 -32649.24)" fill="#4c4c4c"></path><path id="&#x41A;&#x43E;&#x43D;&#x442;&#x443;&#x440;_5245" data-name="&#x41A;&#x43E;&#x43D;&#x442;&#x443;&#x440; 5245" d="M25528.447,32619.43l-19.363-1.088-19.084-6.166V32601h38.447Z" transform="translate(-25473.84 -32599.707)" fill="#4c4c4c"></path><path id="&#x41A;&#x43E;&#x43D;&#x442;&#x443;&#x440;_5247" data-name="&#x41A;&#x43E;&#x43D;&#x442;&#x443;&#x440; 5247" d="M25528.447,32609.492H25490l.586-19.025h37.861v19.025Z" transform="translate(-25473.84 -32563.707)" fill="#4c4c4c"></path><path id="&#x41A;&#x43E;&#x43D;&#x442;&#x443;&#x440;_5246" data-name="&#x41A;&#x43E;&#x43D;&#x442;&#x443;&#x440; 5246" d="M25528.447,32609.953H25490V32601h38.447Z" transform="translate(-25473.84 -32582.168)" fill="#4c4c4c"></path><path id="&#x41A;&#x43E;&#x43D;&#x442;&#x443;&#x440;_4788" data-name="&#x41A;&#x43E;&#x43D;&#x442;&#x443;&#x440; 4788" d="M25991.586,32821.984H25973V32821h18.586Z" transform="translate(-25936.98 -32802.66)" fill="#4c4c4c"></path><g id="&#x421;&#x433;&#x440;&#x443;&#x43F;&#x43F;&#x438;&#x440;&#x43E;&#x432;&#x430;&#x442;&#x44C;_5356" data-name="&#x421;&#x433;&#x440;&#x443;&#x43F;&#x43F;&#x438;&#x440;&#x43E;&#x432;&#x430;&#x442;&#x44C; 5356" transform="translate(-28)"><g id="&#x42D;&#x43B;&#x43B;&#x438;&#x43F;&#x441;_190" data-name="&#x42D;&#x43B;&#x43B;&#x438;&#x43F;&#x441; 190" transform="translate(27.724 11.641)" fill="#fff" stroke="#4c4c4c" stroke-width="2"><circle cx="21" cy="21" r="21" stroke="none"></circle><circle cx="21" cy="21" r="20" fill="none"></circle></g><g id="&#x42D;&#x43B;&#x43B;&#x438;&#x43F;&#x441;_191" data-name="&#x42D;&#x43B;&#x43B;&#x438;&#x43F;&#x441; 191" transform="translate(33.724 17.641)" fill="#fff" stroke="#ff8055" stroke-width="1.5"><circle cx="15" cy="15" r="15" stroke="none"></circle><circle cx="15" cy="15" r="14.25" fill="none"></circle></g><path id="&#x41A;&#x43E;&#x43D;&#x442;&#x443;&#x440;_5242" data-name="&#x41A;&#x43E;&#x43D;&#x442;&#x443;&#x440; 5242" d="M25605.986,32895v22.328H25605V32895Z" transform="translate(-25557.113 -32873.617)" fill="#ff8055"></path><path id="&#x41A;&#x43E;&#x43D;&#x442;&#x443;&#x440;_5243" data-name="&#x41A;&#x43E;&#x43D;&#x442;&#x443;&#x440; 5243" d="M25456.336,32944.988h-9.168c-.949,0-1.646,1.027-1.934,2.344a5.564,5.564,0,0,0-.207,1.641,5.426,5.426,0,0,0,.164,1.648c.289,1.148.945,2.055,1.977,2.055h3.945v.988h-3.945c-1.605,0-2.551-1.234-2.922-2.8a7.05,7.05,0,0,1-.246-1.895,9.838,9.838,0,0,1,.246-1.891c.412-1.727,1.4-3.082,2.922-3.082h9.168Z" transform="translate(-25402.73 -32920.602)" fill="#ff8055"></path><path id="&#x41A;&#x43E;&#x43D;&#x442;&#x443;&#x440;_5244" data-name="&#x41A;&#x43E;&#x43D;&#x442;&#x443;&#x440; 5244" d="M25491,33163.676h9.17c.945,0,1.6-1.07,1.932-2.344a7.447,7.447,0,0,0,.207-1.687,7.23,7.23,0,0,0-.164-1.645c-.289-1.148-.945-2.012-1.975-2.012h-3.988V33155h3.988c1.564,0,2.549,1.191,2.92,2.758a7.188,7.188,0,0,1,.205,1.887,9.247,9.247,0,0,1-.205,1.895c-.453,1.727-1.441,3.121-2.92,3.121H25491Z" transform="translate(-25447.801 -33122.926)" fill="#ff8055"></path></g><path id="&#x41A;&#x43E;&#x43D;&#x442;&#x443;&#x440;_5248" data-name="&#x41A;&#x43E;&#x43D;&#x442;&#x443;&#x440; 5248" d="M10.832,0H30.595a.5.5,0,0,1,0,1H10.832a.5.5,0,0,1,0-1Z" transform="translate(22.724 18.641)" fill="#fff"></path><path id="&#x41A;&#x43E;&#x43D;&#x442;&#x443;&#x440;_5251" data-name="&#x41A;&#x43E;&#x43D;&#x442;&#x443;&#x440; 5251" d="M-5.1,0H30.522a.5.5,0,0,1,0,1H-5.1A.5.5,0,0,1-5.6.5.5.5,0,0,1-5.1,0Z" transform="translate(22.724 9.641)" fill="#fff"></path><path id="&#x41A;&#x43E;&#x43D;&#x442;&#x443;&#x440;_5249" data-name="&#x41A;&#x43E;&#x43D;&#x442;&#x443;&#x440; 5249" d="M13.029,0h17.42a.5.5,0,0,1,0,1H13.029a.5.5,0,0,1,0-1Z" transform="translate(22.724 27.641)" fill="#fff"></path><path id="&#x41A;&#x43E;&#x43D;&#x442;&#x443;&#x440;_5250" data-name="&#x41A;&#x43E;&#x43D;&#x442;&#x443;&#x440; 5250" d="M13.029,0H30.377a.5.5,0,0,1,0,1H13.029a.5.5,0,0,1,0-1Z" transform="translate(22.724 36.641)" fill="#fff"></path></g></svg>