<svg xmlns="http://www.w3.org/2000/svg" viewBox="0 0 56 56"><g id="&#x421;&#x433;&#x440;&#x443;&#x43F;&#x43F;&#x438;&#x440;&#x43E;&#x432;&#x430;&#x442;&#x44C;_5288" data-name="&#x421;&#x433;&#x440;&#x443;&#x43F;&#x43F;&#x438;&#x440;&#x43E;&#x432;&#x430;&#x442;&#x44C; 5288" transform="translate(-1033 -1501)"><rect id="&#x41F;&#x440;&#x44F;&#x43C;&#x43E;&#x443;&#x433;&#x43E;&#x43B;&#x44C;&#x43D;&#x438;&#x43A;_20070" data-name="&#x41F;&#x440;&#x44F;&#x43C;&#x43E;&#x443;&#x433;&#x43E;&#x43B;&#x44C;&#x43D;&#x438;&#x43A; 20070" width="56" height="56" transform="translate(1033 1501)" fill="gray" opacity="0"></rect><g id="_2297188932192" transform="translate(1035 1501)"><path id="&#x41A;&#x43E;&#x43D;&#x442;&#x443;&#x440;_4984" data-name="&#x41A;&#x43E;&#x43D;&#x442;&#x443;&#x440; 4984" d="M55384.6,287.338a5.044,5.044,0,0,1,1.406,3.246,4.56,4.56,0,0,1-.441,2.054,7.465,7.465,0,0,1-1.375,1.929.852.852,0,0,0-.129,1.044l.008.011a5.628,5.628,0,0,1,.539,4.12,6.514,6.514,0,0,1-2.543,3.45c-.418.318-.332.738-.23,1.271a4.67,4.67,0,0,1-.48,3.7c-1.234,2.168-3.887,3.235-6.9,3.711a39.751,39.751,0,0,1-8.652.159l-.1-.011c-3.2.079-6.258-.023-8.914-.193-4.418-.272-7.773-.726-9.023-.919l-.77-.114.172-.76.09-.5.035-.5V288.121c-.012-2.61-.012-3.541,2.324-6.061l.094-.068c1.828-1.453,3.676-4.143,5.332-7.071a100.719,100.719,0,0,0,5.848-12.871l.039-.2v-.216a11.676,11.676,0,0,1-.109-2.429,3.811,3.811,0,0,1,.465-1.907l.215-.3h.363a6.356,6.356,0,0,1,2.473.556,4.679,4.679,0,0,1,1.824,1.5,6.79,6.79,0,0,1,1.082,4.165,19.653,19.653,0,0,1-1.121,5.766,30.762,30.762,0,0,0-1.691,7.241c-.094,1.578.191,2.588.82,3.167.746.647,1.746.409,2.957.125.418-.1.875-.2,1.3-.284a45.138,45.138,0,0,1,6.809-.76c2.813-.068,5.676.306,7.293,1.771a3.957,3.957,0,0,1,1.3,3.621,5.613,5.613,0,0,1-.727,2.043C55383.852,286.419,55384.176,286.827,55384.6,287.338Z" transform="translate(-55333.059 -257)" fill="#ff8055"></path><path id="&#x41A;&#x43E;&#x43D;&#x442;&#x443;&#x440;_5165" data-name="&#x41A;&#x43E;&#x43D;&#x442;&#x443;&#x440; 5165" d="M54122.852,2462h7.914a3.865,3.865,0,0,1,2.715,1.135,3.99,3.99,0,0,1,1.148,2.781v23.142a3.97,3.97,0,0,1-1.148,2.781,3.863,3.863,0,0,1-2.715,1.135h-7.914a3.841,3.841,0,0,1-2.7-1.135,3.924,3.924,0,0,1-1.152-2.781v-23.142a3.943,3.943,0,0,1,1.152-2.781A3.856,3.856,0,0,1,54122.852,2462Z" transform="translate(-54117 -2436.974)" fill="#fff"></path><path id="&#x41A;&#x43E;&#x43D;&#x442;&#x443;&#x440;_4985" data-name="&#x41A;&#x43E;&#x43D;&#x442;&#x443;&#x440; 4985" d="M54122.852,2462h7.914a3.865,3.865,0,0,1,2.715,1.135,3.99,3.99,0,0,1,1.148,2.781v23.142a3.97,3.97,0,0,1-1.148,2.781,3.863,3.863,0,0,1-2.715,1.135h-7.914a3.841,3.841,0,0,1-2.7-1.135,3.924,3.924,0,0,1-1.152-2.781v-23.142a3.943,3.943,0,0,1,1.152-2.781A3.856,3.856,0,0,1,54122.852,2462Z" transform="translate(-54119 -2436.974)" fill="#4c4c4c"></path></g></g></svg>