<svg xmlns="http://www.w3.org/2000/svg" viewBox="0 0 56 44"><g id="&#x421;&#x433;&#x440;&#x443;&#x43F;&#x43F;&#x438;&#x440;&#x43E;&#x432;&#x430;&#x442;&#x44C;_5384" data-name="&#x421;&#x433;&#x440;&#x443;&#x43F;&#x43F;&#x438;&#x440;&#x43E;&#x432;&#x430;&#x442;&#x44C; 5384" transform="translate(-966 -650)"><path id="&#x412;&#x44B;&#x447;&#x438;&#x442;&#x430;&#x43D;&#x438;&#x435;_23" data-name="&#x412;&#x44B;&#x447;&#x438;&#x442;&#x430;&#x43D;&#x438;&#x435; 23" d="M1946.646,33h-43.291A4,4,0,0,1,1902,30V4a4,4,0,0,1,4-4h38a4,4,0,0,1,4,4V30a4,4,0,0,1-1.354,3Z" transform="translate(-933 650)" fill="#4c4c4c"></path><rect id="&#x41F;&#x440;&#x44F;&#x43C;&#x43E;&#x443;&#x433;&#x43E;&#x43B;&#x44C;&#x43D;&#x438;&#x43A;_20182" data-name="&#x41F;&#x440;&#x44F;&#x43C;&#x43E;&#x443;&#x433;&#x43E;&#x43B;&#x44C;&#x43D;&#x438;&#x43A; 20182" width="49" height="4" rx="2" transform="translate(966 684)" fill="#4c4c4c"></rect><rect id="&#x41F;&#x440;&#x44F;&#x43C;&#x43E;&#x443;&#x433;&#x43E;&#x43B;&#x44C;&#x43D;&#x438;&#x43A;_20181" data-name="&#x41F;&#x440;&#x44F;&#x43C;&#x43E;&#x443;&#x433;&#x43E;&#x43B;&#x44C;&#x43D;&#x438;&#x43A; 20181" width="36" height="26" rx="1" transform="translate(974 654)" fill="#fff"></rect><path id="&#x41A;&#x43E;&#x43D;&#x442;&#x443;&#x440;_5278" data-name="&#x41A;&#x43E;&#x43D;&#x442;&#x443;&#x440; 5278" d="M416.3,389.4h0a.664.664,0,0,1-.5-.4l-2.9-15.2-3.8,11.1c-.1.2-.2.3-.4.3a.55.55,0,0,1-.5-.3l-1.8-3.5h-6.8a.5.5,0,1,1,0-1h7.1c.2,0,.4.1.4.3l1.4,2.8,4-11.7a.55.55,0,0,1,.5-.3.664.664,0,0,1,.5.4l2.8,14.7,2.7-11.8a.43.43,0,0,1,.4-.4.55.55,0,0,1,.5.3l2.4,5.8h3.5a.5.5,0,0,1,0,1H422a.55.55,0,0,1-.5-.3l-1.9-4.7-2.9,12.6C416.8,389.2,416.6,389.4,416.3,389.4Z" transform="translate(576.702 287.135)" fill="#ff8055"></path><g id="&#x421;&#x433;&#x440;&#x443;&#x43F;&#x43F;&#x438;&#x440;&#x43E;&#x432;&#x430;&#x442;&#x44C;_5383" data-name="&#x421;&#x433;&#x440;&#x443;&#x43F;&#x43F;&#x438;&#x440;&#x43E;&#x432;&#x430;&#x442;&#x44C; 5383"><g id="&#x421;&#x433;&#x440;&#x443;&#x43F;&#x43F;&#x438;&#x440;&#x43E;&#x432;&#x430;&#x442;&#x44C;_5383-2" data-name="&#x421;&#x433;&#x440;&#x443;&#x43F;&#x43F;&#x438;&#x440;&#x43E;&#x432;&#x430;&#x442;&#x44C; 5383" transform="translate(451.087 -523.721)"><g id="&#x421;&#x433;&#x440;&#x443;&#x43F;&#x43F;&#x438;&#x440;&#x43E;&#x432;&#x430;&#x442;&#x44C;_5126" data-name="&#x421;&#x433;&#x440;&#x443;&#x43F;&#x43F;&#x438;&#x440;&#x43E;&#x432;&#x430;&#x442;&#x44C; 5126" transform="translate(551.547 1186)"><path id="&#x41A;&#x43E;&#x43D;&#x442;&#x443;&#x440;_4921" data-name="&#x41A;&#x43E;&#x43D;&#x442;&#x443;&#x440; 4921" d="M51857.7,396h13.609a2.77,2.77,0,0,1,1.9.756,2.538,2.538,0,0,1,.8,1.834V425.4a2.544,2.544,0,0,1-.8,1.844,2.77,2.77,0,0,1-1.9.756H51857.7a2.727,2.727,0,0,1-1.891-.756,2.488,2.488,0,0,1-.8-1.844V398.59a2.483,2.483,0,0,1,.8-1.834A2.727,2.727,0,0,1,51857.7,396Z" transform="translate(-51854.637 -396.279)" fill="#4c4c4c"></path><rect id="&#x41F;&#x440;&#x44F;&#x43C;&#x43E;&#x443;&#x433;&#x43E;&#x43B;&#x44C;&#x43D;&#x438;&#x43A;_20189" data-name="&#x41F;&#x440;&#x44F;&#x43C;&#x43E;&#x443;&#x433;&#x43E;&#x43B;&#x44C;&#x43D;&#x438;&#x43A; 20189" width="17" height="30" rx="2" transform="translate(1.367 0.721)" fill="#fff"></rect><path id="&#x41A;&#x43E;&#x43D;&#x442;&#x443;&#x440;_4922" data-name="&#x41A;&#x43E;&#x43D;&#x442;&#x443;&#x440; 4922" d="M52572.426,664.832a.416.416,0,1,1,0-.832h3.527a.416.416,0,1,1,0,.832Z" transform="translate(-52564.637 -661.248)" fill="#4c4c4c"></path></g><path id="&#x41A;&#x43E;&#x43D;&#x442;&#x443;&#x440;_1530" data-name="&#x41A;&#x43E;&#x43D;&#x442;&#x443;&#x440; 1530" d="M405.714,556.512a1.214,1.214,0,0,1,0-2.429,1.009,1.009,0,0,1,.694.231l.289-6.13a1.221,1.221,0,0,1,1.214-1.214,1.133,1.133,0,0,1,1.156.867l2.082,4.337a1.235,1.235,0,0,1,.983-.463,1.01,1.01,0,0,1,.694.231l.289-6.129a1.214,1.214,0,1,1,1.214,1.214,1.01,1.01,0,0,1-.694-.231l-.289,6.13a1.186,1.186,0,0,1-1.214,1.214,1.252,1.252,0,0,1-1.214-1.156l-2.024-4.106a1.215,1.215,0,0,1-1.041.578,1.01,1.01,0,0,1-.694-.231l-.289,6.129A1.159,1.159,0,0,1,405.714,556.512Z" transform="translate(151.284 651.81)" fill="#ff8055"></path></g></g></g></svg>