<svg xmlns="http://www.w3.org/2000/svg" viewBox="0 0 56.683 56"><g id="&#x421;&#x433;&#x440;&#x443;&#x43F;&#x43F;&#x438;&#x440;&#x43E;&#x432;&#x430;&#x442;&#x44C;_5365" data-name="&#x421;&#x433;&#x440;&#x443;&#x43F;&#x43F;&#x438;&#x440;&#x43E;&#x432;&#x430;&#x442;&#x44C; 5365" transform="translate(205 -690)"><path id="&#x41E;&#x431;&#x44A;&#x435;&#x434;&#x438;&#x43D;&#x435;&#x43D;&#x438;&#x435;_2" data-name="&#x41E;&#x431;&#x44A;&#x435;&#x434;&#x438;&#x43D;&#x435;&#x43D;&#x438;&#x435; 2" d="M14.736,38.706l-.262-.711-.329-.7-.371-.658-.411-.575-.452-.535-.453-.494-.534-.41-.494-.411-.535-.329-.575-.328-.576-.288-.616-.247-.576-.247-.616-.206L7.32,32.4,6.7,32.2l-.616-.165-.617-.164-.575-.123-.576-.165-.576-.165-.535-.205L2.714,31,2.22,30.8l-.452-.247-.453-.287-.371-.37-.329-.411L.329,29.03l-.205-.494-.082-.575L0,27.386v-.494l.041-.123V26.4l.041-.123v-.329l.041-.123V25.7l.041-.082v-.205l.041-.124v-.082l.041-.123V25l.041-.122V24.8l.04-.082V24.59l.041-.083v-.082l.041-.083v-.123l.041-.082v-.083l.041-.082a.725.725,0,0,1,.629-.525l.152-.05.248-.083.247-.041.205-.082.247-.041.247-.083.206-.041.205-.082.206-.041.205-.082.205-.041.165-.082.165-.082.164-.041.165-.083.165-.082.123-.04.124-.083.122-.082.082-.082.083-.083.083-.082.082-.083.082-.082.041-.083.04-.082.041-.083.041-.123v-.082l.041-.123V20.6l-.041-.288v-.247l-.041-.288-.041-.205-.04-.247L5.1,19.08l-.041-.206-.041-.165L4.975,18.5l-.041-.164-.083-.206-.041-.164-.083-.123-.041-.165-.082-.165-.083-.123-.082-.123L4.4,17.105l-.082-.123-.082-.123-.083-.123-.082-.123-.083-.123-.082-.123-.082-.123-.083-.123L3.659,16l-.082-.123-.083-.124-.082-.122-.083-.165a.732.732,0,0,1-.06-.561l.02-.138v-.288l.041-.288.042-.287v-.248l.04-.287.041-.247.041-.247.041-.247.041-.247.04-.247v-.206l.041-.247.041-.205v-.206l.04-.205V9.869L3.7,9.663l-.041-.206-.041-.164-.04-.206-.041-.205-.082-.165-.082-.206-.083-.205L3.166,8.1l-.082-.206-.041-.041V7.813L3,7.772,2.96,7.73V7.689L2.92,7.648V7.607H2.878v-.04l-.041-.042V7.484L2.8,7.442,2.755,7.4V7.36H2.714V7.319l-.04-.041v-.04H2.632V7.2L2.59,7.155V7.114H2.549V7.072l-.04-.041L2.467,6.99V6.949H2.426V6.908a.683.683,0,0,1-.164-.586V6.168L2.3,6.126V5.921l.04-.082V5.715l.041-.082V5.551l.041-.041V5.428l.041-.083V5.263l.041-.041V5.14l.04-.082.041-.041V4.934l.041-.082.041-.041V4.729l.04-.082.041-.083L2.8,4.523V4.441l.04-.082.041-.041.041-.082.041-.083.288-.411.247-.37L3.784,3l.287-.329.288-.329.328-.287.288-.247L5.3,1.562l.328-.206.329-.205L6.291.986,6.62.823,6.908.7,7.237.576,7.566.452,7.853.37,8.141.288,8.429.205,8.717.165,8.964.123,9.211.082,9.457.041h.206L9.869,0h1.645l.205.041h.206l.246.041.248.041.247.041.288.041.287.083.288.082.289.082.328.124L14.474.7l.288.124.329.164.328.165.329.205.328.206.329.247.288.247.329.287.287.329L17.6,3l.287.37.288.37.247.411-1.016.572,1.016-.572.123.247.123.288.124.247.082.247.082.247.082.247.041.287.041.206v.247l.041.247V7.4l-.041.205v.247l-.041.206-.041.247L19,8.553v.205L18.956,9l-.041.247-.041.205-.041.247v.248l-.041.247-.041.247v.535l-.041.287v.248l.041.288v.328l-1.054.058,1.054-.058V13.2l-.041.37-.082.288-.041.288-.082.288-.083.287-.123.247-.123.206-.123.247-.123.206-.123.205-.123.205-.124.206-.122.165-.124.205-.122.206-.123.164-.123.206-.083.205-.123.206-.082.247-.124.247-.082.247-.082.288-.083.329-.041.329-.082.37-.041.37-.041.411v.493l-.767-.042.767.042v.329l.083.247.082.247.164.206.206.165.288.205.329.164.41.165.411.165.493.165.535.123.576.164.617.165.617.165.617.206.658.205.617.247.659.288.616.329.659.37.575.452.576.493.576.535.493.658.453.7.41.823.329.863.247.946.205,1.069.123,1.152.041,1.233v1.357a.8.8,0,0,1-.344.574l-.025.042-.012-.019.012.019-.329.165-.329.165-.329.164-.329.165-.37.165-.329.123-.37.123-.37.165-.411.123-.371.123-.41.123-.371.082-.41.123-.411.123-.453.083-.41.123-.411.082-.453.083-.412.082-.452.082-.41.083-.453.082-.411.041-.452.082-.411.041-.453.082-.411.041-.452.083-.412.041-.41.041-.411.041-.411.041a.7.7,0,0,1-.07,0A.777.777,0,0,1,14.736,38.706ZM1.3,24.533l-.092-.357ZM2.262,6.374ZM0,27.386ZM10.733,0h.041Z" transform="translate(-177.059 692)" fill="#ff8055"></path><path id="&#x41E;&#x431;&#x44A;&#x435;&#x434;&#x438;&#x43D;&#x435;&#x43D;&#x438;&#x435;_1" data-name="&#x41E;&#x431;&#x44A;&#x435;&#x434;&#x438;&#x43D;&#x435;&#x43D;&#x438;&#x435; 1" d="M22.9,47.74H20.19l-.576-.041-.658-.041h-.617l-.658-.041-.7-.082-.7-.041-.7-.083-.7-.041-.74-.083-.741-.082-.74-.123L11.924,47l-.74-.124-.74-.122-.781-.123-.741-.165-.74-.165-.7-.165-.741-.164-.7-.165-.7-.206-.7-.205-.659-.205-.657-.247-.617-.206L2.1,44.492,1.522,44.2l-.576-.288-.494-.288A.741.741,0,0,1,.076,43.1l-.034-.048L0,41.407l.082-1.522.165-1.4.205-1.233.329-1.193.411-1.028.493-.946.535-.863.617-.781.616-.658.7-.617.741-.494.74-.452.781-.411.781-.329.781-.288.741-.288L9.5,28.7l.74-.205.741-.206.658-.205.657-.165.617-.205.576-.165.452-.206.453-.246.329-.247.288-.248.205-.247.124-.329.082-.328.041-.453-.041-.575-.041-.493-.041-.494-.083-.452-.082-.411-.082-.37-.124-.37-.082-.329-.123-.288-.123-.288-.165-.288-.123-.247-.123-.246-.164-.247-.124-.205-.165-.247-.164-.247-.165-.205L13.323,19l-.165-.247-.165-.247-.122-.288-.124-.288-.123-.288-.123-.329-.082-.329-.082-.328-.083-.371-.041-.41-.04-.411v-.453l.04-.452V12.83l-.04-.288-.041-.329v-.288l-.041-.328-.04-.287-.041-.289-.041-.288-.041-.288-.04-.247-.041-.287-.04-.288-.041-.288-.041-.288v-1.4l.041-.288.041-.288.04-.287.082-.288.124-.329.082-.288.123-.288.165-.328.165-.288.288-.493.328-.494.37-.41.329-.411.37-.37.37-.329.37-.329.37-.288L15.79,1.6l.37-.248.37-.205.411-.206.371-.164.37-.123.371-.123L18.421.41l.37-.081.329-.083L19.45.165l.329-.041.288-.041.288-.041L20.642,0h2.425l.247.041L23.6.082l.288.041.328.041.329.082.329.083.37.081.37.124.37.123.37.123.37.164.411.206.37.205.412.248.369.247.371.288.37.329.37.329.37.37.371.411.329.41.328.494.288.493-.528.307.528-.307.165.288.165.328.123.288.123.288.082.329.083.288.041.287.04.288.041.288v.288l.041.287-.041.288v.535l-.041.288-.04.288-.041.288-.041.287-.041.247-.04.288-.041.288-.041.289-.042.287v.328l-.041.288-.041.329-.041.288v1.727l-.635.035.635-.035.041.452v.453l-.041.411-.041.41-.041.371-.082.328-.123.329-.123.329-.123.288-.124.288-.122.288-.165.247L30.346,19l-.123.247-.165.205-.164.247-.124.247-.164.205-.165.247-.123.246-.123.247-.165.288-.123.288-.083.288-.122.329-.124.37-.082.37-.082.411-.083.452-.041.494-.041.493-.041.575L27.2,25.219l1.008.028.041.453.082.328.123.329.206.247.288.248.328.247.453.246.493.206.535.165.616.205.658.165.658.205.741.206.74.205.781.206.781.288.741.288.781.329.781.411.74.452.741.494.7.617.658.658.576.781.535.863.493.946.411,1.028.329,1.193.247,1.233.123,1.4.082,1.522-.041,1.645a.747.747,0,0,1-.493.641l-.412.222-.575.288-.576.288-.616.247-.617.206-.657.247-.659.205-.7.205-.7.206-.7.165-.74.164-.7.165-.74.165-.741.165-.74.123-.781.122L31.744,47l-.74.082-.74.123-.741.082-.74.083-.7.041-.7.083-.7.041-.7.082-.658.041h-.617L24.1,47.7l-.617.041ZM21.875,0h.041Z" transform="translate(-203.704 694.426)" fill="#4c4c4c"></path><rect id="icon_mask" width="56" height="56" transform="translate(-205 690)" fill="none"></rect></g></svg>