<svg xmlns="http://www.w3.org/2000/svg" viewBox="0 0 41.745 56"><g id="Group_2442" data-name="Group 2442" transform="translate(-523 -527.7)"><g id="Group_2434" data-name="Group 2434" transform="translate(526.5 542.7)"><path id="Path_1669" data-name="Path 1669" d="M527,582.7a.472.472,0,0,1-.5-.5V570.8a.5.5,0,0,1,1,0v11.4A.472.472,0,0,1,527,582.7Zm0-28.6a.472.472,0,0,1-.5-.5V542.2a.5.5,0,0,1,1,0v11.4A.472.472,0,0,1,527,554.1Z" transform="translate(-526.5 -541.7)" fill="#0f2c52"></path></g><g id="Group_2435" data-name="Group 2435" transform="translate(523 556.565)"><path id="Path_1670" data-name="Path 1670" d="M529.1,568.5h-4.2a1.9,1.9,0,0,1-1.9-1.9v-8.8a1.9,1.9,0,0,1,1.9-1.9h4.2a1.9,1.9,0,0,1,1.9,1.9v8.8A2.043,2.043,0,0,1,529.1,568.5Zm-4.2-11a.43.43,0,0,0-.4.4v8.8a.43.43,0,0,0,.4.4h4.2a.43.43,0,0,0,.4-.4v-8.8a.43.43,0,0,0-.4-.4Z" transform="translate(-523 -555.9)" fill="#0f2c52"></path></g><g id="Group_2436" data-name="Group 2436" transform="translate(549.179 538)"><path id="Path_1671" data-name="Path 1671" d="M549.2,578.1a.472.472,0,0,1-.5-.5V566.2a.5.5,0,0,1,1,0v11.4A.642.642,0,0,1,549.2,578.1Zm0-28.7a.472.472,0,0,1-.5-.5V537.5a.5.5,0,0,1,1,0v11.4A.536.536,0,0,1,549.2,549.4Z" transform="translate(-548.7 -537)" fill="#0f2c52"></path></g><g id="Group_2437" data-name="Group 2437" transform="translate(545.701 551.754)"><path id="Path_1672" data-name="Path 1672" d="M551.3,563.8h-4.2a1.9,1.9,0,0,1-1.9-1.9v-8.8a1.9,1.9,0,0,1,1.9-1.9h4.2a1.9,1.9,0,0,1,1.9,1.9v8.8A1.965,1.965,0,0,1,551.3,563.8Zm-4.2-11a.43.43,0,0,0-.4.4V562a.43.43,0,0,0,.4.4h4.2a.43.43,0,0,0,.4-.4v-8.8a.43.43,0,0,0-.4-.4Z" transform="translate(-545.2 -551.2)" fill="#0f2c52"></path></g><g id="Group_2438" data-name="Group 2438" transform="translate(537.872 532.4)"><path id="Path_1673" data-name="Path 1673" d="M538.1,573.4a.472.472,0,0,1-.5-.5V561.5a.5.5,0,0,1,1,0v11.4A.536.536,0,0,1,538.1,573.4Zm0-28.6a.472.472,0,0,1-.5-.5V532.9a.5.5,0,0,1,1,0v11.4A.642.642,0,0,1,538.1,544.8Z" transform="translate(-537.6 -532.4)" fill="#0f2c52"></path></g><g id="Group_2439" data-name="Group 2439" transform="translate(534.551 546.945)"><path id="Path_1674" data-name="Path 1674" d="M535.6,546.5h4.9a1.324,1.324,0,0,1,1.3,1.3V558a1.324,1.324,0,0,1-1.3,1.3h-4.9a1.324,1.324,0,0,1-1.3-1.3V547.8a1.4,1.4,0,0,1,1.3-1.3Z" transform="translate(-534.3 -546.5)" fill="#0f2c52" fill-rule="evenodd"></path></g><g id="Group_2440" data-name="Group 2440" transform="translate(560.445 527.7)"><path id="Path_1675" data-name="Path 1675" d="M560.2,568.7a.472.472,0,0,1-.5-.5V556.8a.5.5,0,0,1,1,0v11.4A.472.472,0,0,1,560.2,568.7Zm0-28.6a.472.472,0,0,1-.5-.5V528.2a.5.5,0,0,1,1,0v11.4A.472.472,0,0,1,560.2,540.1Z" transform="translate(-559.7 -527.7)" fill="#0f2c52"></path></g><g id="Group_2441" data-name="Group 2441" transform="translate(557.245 542.032)"><path id="Path_1676" data-name="Path 1676" d="M557.8,541.7h4.9A1.324,1.324,0,0,1,564,543v10.2a1.324,1.324,0,0,1-1.3,1.3h-4.9a1.324,1.324,0,0,1-1.3-1.3V543a1.324,1.324,0,0,1,1.3-1.3Z" transform="translate(-556.5 -541.7)" fill="#0f2c52" fill-rule="evenodd"></path></g></g></svg>