<svg xmlns="http://www.w3.org/2000/svg" viewBox="0 0 56 56"><g id="&#x421;&#x433;&#x440;&#x443;&#x43F;&#x43F;&#x438;&#x440;&#x43E;&#x432;&#x430;&#x442;&#x44C;_5400" data-name="&#x421;&#x433;&#x440;&#x443;&#x43F;&#x43F;&#x438;&#x440;&#x43E;&#x432;&#x430;&#x442;&#x44C; 5400" transform="translate(-539 -791)"><g id="&#x421;&#x433;&#x440;&#x443;&#x43F;&#x43F;&#x438;&#x440;&#x43E;&#x432;&#x430;&#x442;&#x44C;_5387" data-name="&#x421;&#x433;&#x440;&#x443;&#x43F;&#x43F;&#x438;&#x440;&#x43E;&#x432;&#x430;&#x442;&#x44C; 5387" transform="translate(-15 -0.1)"><path id="&#x412;&#x44B;&#x447;&#x438;&#x442;&#x430;&#x43D;&#x438;&#x435;_24" data-name="&#x412;&#x44B;&#x447;&#x438;&#x442;&#x430;&#x43D;&#x438;&#x435; 24" d="M2,0H45a2,2,0,0,1,2,2V38a2,2,0,0,1-2,2H2a2,2,0,0,1-2-2V2A2,2,0,0,1,2,0Z" transform="translate(554 799)" fill="#4c4c4c"></path><rect id="&#x41F;&#x440;&#x44F;&#x43C;&#x43E;&#x443;&#x433;&#x43E;&#x43B;&#x44C;&#x43D;&#x438;&#x43A;_20187" data-name="&#x41F;&#x440;&#x44F;&#x43C;&#x43E;&#x443;&#x433;&#x43E;&#x43B;&#x44C;&#x43D;&#x438;&#x43A; 20187" width="39" height="29" rx="1" transform="translate(558 803)" fill="#fff"></rect><path id="&#x41A;&#x43E;&#x43D;&#x442;&#x443;&#x440;_5280" data-name="&#x41A;&#x43E;&#x43D;&#x442;&#x443;&#x440; 5280" d="M23,1057.8h-.1a.9.9,0,0,1-.6-.6l-2.1-8.3-.7,2.5a.858.858,0,0,1-.7.6H11.7a.789.789,0,0,1-.8-.8.736.736,0,0,1,.8-.8h6.5l1.3-4.7a.858.858,0,0,1,.7-.6h0a.73.73,0,0,1,.7.6l2.4,9.4,10.5-15.5a.721.721,0,0,1,1.2.8l-11.5,16.9A.467.467,0,0,1,23,1057.8Z" transform="translate(547 -231)" fill="#ff8055"></path><g id="&#x421;&#x433;&#x440;&#x443;&#x43F;&#x43F;&#x438;&#x440;&#x43E;&#x432;&#x430;&#x442;&#x44C;_5386" data-name="&#x421;&#x433;&#x440;&#x443;&#x43F;&#x43F;&#x438;&#x440;&#x43E;&#x432;&#x430;&#x442;&#x44C; 5386" transform="translate(-61)"><path id="&#x41A;&#x43E;&#x43D;&#x442;&#x443;&#x440;_1692" data-name="&#x41A;&#x43E;&#x43D;&#x442;&#x443;&#x440; 1692" d="M51,1051.4H45.7a1.11,1.11,0,0,1-1.1-1.1v-2.7l-1.3-.5-1.9,1.9a1.215,1.215,0,0,1-1.6,0l-3.7-3.7a1.217,1.217,0,0,1,0-1.6l1.9-1.9-.5-1.3H34.8a1.11,1.11,0,0,1-1.1-1.1v-5.3a1.11,1.11,0,0,1,1.1-1.1h2.7l.5-1.3-1.9-1.9a1.215,1.215,0,0,1,0-1.6l3.7-3.7a1.215,1.215,0,0,1,1.6,0l1.9,1.9,1.3-.5v-2.7a1.11,1.11,0,0,1,1.1-1.1H51a1.11,1.11,0,0,1,1.1,1.1v2.7l1.3.5,1.9-1.9a1.215,1.215,0,0,1,1.6,0l3.7,3.7a1.217,1.217,0,0,1,0,1.6l-1.9,1.9.5,1.3h2.7a1.11,1.11,0,0,1,1.1,1.1v5.3a1.11,1.11,0,0,1-1.1,1.1H59.2l-.5,1.3,1.9,1.9a1.217,1.217,0,0,1,0,1.6l-3.7,3.7a1.215,1.215,0,0,1-1.6,0l-1.9-1.9-1.3.5v2.7A1.11,1.11,0,0,1,51,1051.4Zm-9.9-2.7Z" transform="translate(608 -231)" fill="#ff8055"></path><path id="&#x41A;&#x43E;&#x43D;&#x442;&#x443;&#x440;_1693" data-name="&#x41A;&#x43E;&#x43D;&#x442;&#x443;&#x440; 1693" d="M50.4,1045.6a6.8,6.8,0,1,1,6.8-6.8A6.9,6.9,0,0,1,50.4,1045.6Zm0-12.325a5.383,5.383,0,1,0,5.383,5.383A5.381,5.381,0,0,0,50.4,1033.275Z" transform="translate(606 -233)" fill="#fff"></path></g><path id="&#x41A;&#x43E;&#x43D;&#x442;&#x443;&#x440;_5282" data-name="&#x41A;&#x43E;&#x43D;&#x442;&#x443;&#x440; 5282" d="M17267.863,33449.742l1.773-3.582a.4.4,0,0,1,.375-.2h1.264l.99-3.617a.432.432,0,0,1,.408-.34h8.463a.411.411,0,0,1,.408.3l.988,3.652h1.3a.481.481,0,0,1,.375.2l1.809,3.582a.276.276,0,0,1,.068.172.417.417,0,0,1-.408.414l-17.4.027a.423.423,0,0,1-.205-.066A.411.411,0,0,1,17267.863,33449.742Z" transform="translate(-16699.479 -32604.051)" fill="#4c4c4c"></path></g><rect id="icon_mask" width="56" height="56" transform="translate(539 791)" fill="none"></rect></g></svg>