<svg xmlns="http://www.w3.org/2000/svg" id="Layer_1" data-name="Layer 1" viewBox="0 0 225.94 50.06"><defs><style>.cls-1{fill:#ff007a;}</style></defs><path class="cls-1" d="M17.91,19.86C16.7,18.46.09,0,0,0S.28.49.8,1.13c5.66,6.93,11.84,15.64,12.85,17a.44.44,0,0,0,.12.15c.52.76,1,1.32,1.31,1.73.5.62.77.95.77,1.17s-.08.21-.24.3a2.29,2.29,0,0,1-1.09.27,1.82,1.82,0,0,1-1.24-.53C13.05,21,11.39,18.55,9.13,15l-3.2-5c0-.07-.08-.08,3,5.54a66,66,0,0,1,3.32,6.33,1.62,1.62,0,0,1-.49,1,5.8,5.8,0,0,0-1.24,3.46c-.27,2-1,3.47-2.91,6A12.64,12.64,0,0,0,6,34.66a4.2,4.2,0,0,0-.49,2.08,6.55,6.55,0,0,0,.34,2.52,10.16,10.16,0,0,0,1.21,2.45A5.54,5.54,0,0,1,8,43.59c0,.23,0,.23,1,0a9.88,9.88,0,0,0,5-2.48,2.41,2.41,0,0,0,.79-2A1.79,1.79,0,0,0,14.59,38a5,5,0,0,0-1.8-1.78,4.15,4.15,0,0,1-2.15-2.78c-.15-.87,0-1.47.79-3.09a9.69,9.69,0,0,0,1.13-4.07c.08-1.1.19-1.51.53-1.85a2,2,0,0,1,1.43-.6,4.78,4.78,0,0,0,2.83-1.17,2.47,2.47,0,0,0,.86-1.88v-.61ZM8.3,36.4c-.41-.3-1.09-.15-1.09.22,0,.12.08.19.19.27a.34.34,0,0,1,.07.52.53.53,0,0,0,0,.72.79.79,0,0,0,1.08-.24l0-.1A1.06,1.06,0,0,0,8.3,36.4Zm32-11.68a10.77,10.77,0,0,0-2.48-4.94l-.23-.26-.11.52c-.31,1.36-.95,2.34-1.55,2.34a.8.8,0,0,1-.71-.45c-.16-.34-.12-.45.07-.83a4.73,4.73,0,0,0,.26-2.83,4.35,4.35,0,0,0-.18-.71,9.27,9.27,0,0,0-1.85-1.09,14.26,14.26,0,0,0-8.18-1l-.67.11-.49-.53a10.54,10.54,0,0,0-5.28-3.58,8.5,8.5,0,0,0-2.41-.22c-.26.07-.23.07.3.15a8.84,8.84,0,0,1,5,2.6,25.8,25.8,0,0,1,2.49,2.94c2.48,3.28,3.54,4.22,5.65,4.9a16.47,16.47,0,0,0,4.67.71c2.45.11,3.35.34,4.22.91a4,4,0,0,1,1.24,1.31l.23.34Zm-1-5.81c-.23-.33-.91-1.05-1.47-1.65-1.21-1.28-1.32-1.44-1.47-2.6a4.93,4.93,0,0,1,.07-2.26,2.4,2.4,0,0,0,.12-.38s-.12.19-.23.41a6.08,6.08,0,0,0-.45,2.23c0,.64-.08.86-.19.94s-.26,0-1.17-.34a16.09,16.09,0,0,0-2.15-.64l.72.34c.41.19,1,.53,1.43.75,1.55.91,1.81,1.47,1.81,3.69,0,1.1,0,1.25-.15,1.59s-.15.56,0,.15a5.89,5.89,0,0,0,.56-2.64c0-.75,0-.9.15-1s.15-.15.34,0a16.54,16.54,0,0,1,2,1.63l.45.41ZM21.51,20a9.69,9.69,0,0,1-1-1.88,12.52,12.52,0,0,1-.38-1.58c-.45-2.15-.91-3-1.92-3.58a5.85,5.85,0,0,0-1.62-.6h-.27V13a8.91,8.91,0,0,0,1.62,5.54A5,5,0,0,0,21,20.65c.54,0,.72-.19.42-.61ZM42.91,30.9c-.45-2.87-2.37-4.94-5.46-6a19.4,19.4,0,0,0-3.92-.83c-3.16-.46-4.33-.83-5.35-1.66a3.79,3.79,0,0,0-.45-.34,2.62,2.62,0,0,0,0,.79c0,3,1.77,4.79,6.86,6.86,3.39,1.35,4.75,2.07,5.8,3a4.08,4.08,0,0,1,1.51,2.9c0,.19,0,.34.07.34a6.2,6.2,0,0,0,.83-1.88,10,10,0,0,0,.05-3.18Zm-11.22,0a4.38,4.38,0,0,0-.83-1.51l-.23-.26.11.41A5.88,5.88,0,0,1,31,30.63a4.41,4.41,0,0,1-3.32,5.17c-.26.07-1.28.3-2.29.45a12.06,12.06,0,0,0-3.81,1,5,5,0,0,0-1.36.83l.34-.08a15.29,15.29,0,0,1,4.34-.72,16,16,0,0,0,1.92-.15,6.14,6.14,0,0,0,3.84-1.69,4,4,0,0,0,1-1.76,3.3,3.3,0,0,0,.18-1.39,3.18,3.18,0,0,0-.18-1.43Zm9.68,7.23A6.55,6.55,0,0,0,40,35a13.23,13.23,0,0,0-4.07-3c-1.65-.9-2.29-1.24-2.6-1.47a1,1,0,0,0-.34-.19.74.74,0,0,0-.15.27,5.94,5.94,0,0,0,.46,4.18,21.67,21.67,0,0,0,2.11,3.32,17.22,17.22,0,0,1,2.07,3.73,5.19,5.19,0,0,1-.23,4c-.15.3-.26.56-.22.56a5,5,0,0,0,.52-.26,7.58,7.58,0,0,0,3.7-4.94,12.07,12.07,0,0,0,.05-3.12ZM33.16,49a3.88,3.88,0,0,1-3.51-.07,3.66,3.66,0,0,1-1.13-2c0-.15-.15-.86-.26-1.58a7.19,7.19,0,0,0-1.17-3.5,5.52,5.52,0,0,0-3.2-2.07,9.06,9.06,0,0,0-3.24-.16,13.77,13.77,0,0,0-6.37,3.09l-.57.49.49.08c2.56.41,3.28.75,5,2.6,1,1,1.36,1.32,2.22,1.51A2.39,2.39,0,0,0,24.33,46a2.82,2.82,0,0,0,0-1.77,1.86,1.86,0,0,0-2.52-.75l-.23.15A1,1,0,0,0,21.5,45a1.07,1.07,0,0,0,.42.28H22l-.16-.1a.72.72,0,0,1-.49-.68c0-.79.87-1.2,1.7-.83a1.2,1.2,0,0,1,.82,1.25,1.57,1.57,0,0,1-1.55,1.59h-.22a2.78,2.78,0,0,1-1.47-.76A1.93,1.93,0,0,1,20.9,43a1.82,1.82,0,0,1,.41-.27,3,3,0,0,1,3,.26c1.06.68,1.51,1.32,2.41,3.43.3.68.68,1.43.83,1.7a3.7,3.7,0,0,0,3.13,1.92,3.59,3.59,0,0,0,1.84-.45,3.39,3.39,0,0,0,1.1-.76,1.83,1.83,0,0,0-.52.09ZM20.55,24.38A2.84,2.84,0,0,0,19,24.23a2.39,2.39,0,0,0-1.4,1.54,2.35,2.35,0,0,0,.1,1.41c.27.38.53.45,1.25.45,1.39,0,2.6-.6,2.75-1.36A2,2,0,0,0,20.55,24.38Zm-.19.26c-.68-.41-1.73-.07-1.77.6,0,.31.56.68,1.05.68a1.32,1.32,0,0,0,.95-.41.56.56,0,0,0-.09-.79l-.14-.08ZM142.59,33c-.72-1.31-2.45-2.78-5.43-4.59-3.16-1.89-4.55-3.28-4.74-4.68-.3-2.14,1.62-3.91,4.25-3.91,2.08,0,3,.49,3.7,2,.45.94.79,1.28,1.32,1.28s.67-.11.52-.68a10.61,10.61,0,0,1-.18-2.11c0-1-.16-1.47-.49-1.58a27,27,0,0,0-7.24-.19c-4,1-5.88,4.15-4.75,7.92A8.59,8.59,0,0,0,133.77,31c3.81,2.22,4.94,3.09,5.58,4.44a2.9,2.9,0,0,1,.3,2.53,4.62,4.62,0,0,1-4.75,3.69A4.29,4.29,0,0,1,130.34,38c-.15-.91-.33-1.21-.79-1.21s-.56.26-.56,2.56v2.56l1.58.53a12.34,12.34,0,0,0,8.18-.22c4.1-1.9,5.69-5.66,3.84-9.21ZM73.79,18.91c-3.43,0-3.66,0-3.66.61s.23.6,1,.68c1.62.15,1.77.75,1.77,8.28S72.64,37.6,71,39.15a6,6,0,0,1-4.78,1.92c-3,0-5.09-1.39-5.77-3.81-.23-.82-.34-3.8-.26-9l.07-7.73,1.06-.34c.6-.19,1.13-.56,1.16-.83s-.37-.49-4.18-.49c-4.1,0-4.29,0-4.29.61,0,.41.19.6.71.6,1.47,0,1.55.41,1.77,9.23.12,7.69.19,8.29.8,9.42a7.84,7.84,0,0,0,3.91,3.54c1.25.61,2,.72,4.56.72,2.72,0,3.24-.11,4.79-.87a9.74,9.74,0,0,0,2.64-2c1.73-2.07,1.92-3.09,2.11-11.68.18-8.25.22-8.4,1.62-8.4.34,0,.52-.23.52-.6S77.26,18.91,73.79,18.91ZM105.4,19c-4-.08-4.18-.08-4.18.52s.22.61.75.61a2.9,2.9,0,0,1,1.58.71l.87.72.11,7.31a49.56,49.56,0,0,1-.18,7.31,10.65,10.65,0,0,1-2.08-2c-1-1.13-3.8-4.22-6.25-6.89s-5.13-5.62-6-6.56L88.51,19H85.38c-2.94,0-3.13,0-3.13.57s.23.6.91.6c1.54,0,2.45.6,2.75,1.92a67.29,67.29,0,0,1,.22,9.31c-.07,9-.22,9.57-2.07,10-.6.11-.9.37-.9.75s.3.56,4.26.56,4.25,0,4.25-.52-.37-.64-1.35-.91c-1.17-.34-1.4-.49-1.66-1.5-.34-1.29-.41-15-.08-14.93a19.91,19.91,0,0,1,2.64,2.79c1.32,1.55,4.94,5.54,8,8.93,4.82,5.28,5.72,6.14,6.48,6.14h.9L106.68,32c.07-7.65.19-10.86.45-11.12a3.25,3.25,0,0,1,1.36-.56c.6-.12,1-.38,1-.65S108.83,19.1,105.4,19ZM122.67,41.3a2.7,2.7,0,0,1-1.29-.42c-.56-.38-.6-.9-.67-10-.08-9.27-.08-9.57.52-10.18a2.36,2.36,0,0,1,1.4-.6c.56,0,.75-.15.75-.6s-.19-.61-4.56-.61-4.56,0-4.56.61.23.6.87.6a4.16,4.16,0,0,1,1.43.34c.57.41.6.94.68,9.34.11,10.52,0,11.08-1.77,11.38-.91.15-1.21.34-1.21.76s.3.56,4.56.56,4.56,0,4.56-.6S123.19,41.3,122.67,41.3Zm58.21-22.39c-3.47,0-3.65,0-3.65.61s.22.6.75.6c1.17,0,1.69.3,1.69,1.06,0,.6-5.8,16.35-6.14,16.69s-5.46-14.4-5.65-15.75.38-2,1.66-2c.53,0,.71-.19.71-.6,0-.57-.18-.61-4.71-.61s-4.71,0-4.71.61a.56.56,0,0,0,.49.6A3.11,3.11,0,0,1,163.85,22c.45,1.32.11,2.67-2.64,9.94l-2.33,6.18-.49-1.17c-.31-.64-1.74-4.48-3.21-8.51-2.9-8-2.94-8.29-1-8.29.67,0,.86-.15.86-.6s-.19-.61-4.52-.61-4.52,0-4.37.61a.82.82,0,0,0,.83.6,1.93,1.93,0,0,1,1.28.75A113,113,0,0,1,153,32.18l4.07,10.59,1.05.07,1.06.08L162,35.38c1.55-4.14,3-7.84,3.21-8.25.33-.72.41-.6,1.31,1.81.53,1.43,2,5.12,3.17,8.25l2.18,5.69h1c.53,0,1.06-.19,1.13-.42s1.51-3.8,3.13-8l4-10.25c1.28-3.35,1.54-3.76,2.6-4.14.45-.15.82-.49.82-.75s-.58-.46-3.67-.46Z"></path><path class="cls-1" d="M225.52,23.81c-.86-2.82-3.39-4.56-7-4.74h-1.81c-1.56,0-3.23.06-4.29.11H212c-.68,0-1.43.07-2.11.12l-1.73.14c-.23,0-.23,0-.3.12a.81.81,0,0,0,0,.22,4.69,4.69,0,0,0,0,.53c0,.11.37.15.37.26a3,3,0,0,0,.57.16c.9.22,1.54.37,1.81,1,.19.38.19,1.81.19,9.42,0,8,0,9-.23,9.54s-.79,1-2,1.32a3.52,3.52,0,0,0-.68.26,1,1,0,0,0-.15.41s0,.31.12.42.45.07.45.07h8a.31.31,0,0,0,.3-.11.69.69,0,0,0,.08-.42s0-.3-.16-.41a3.66,3.66,0,0,0-.64-.26c-1.16-.31-1.73-.64-2-1.25a18.15,18.15,0,0,1-.23-4.1V33a3,3,0,0,1,.38.23c.56.37,1.32.9,4,1a7.19,7.19,0,0,0,6.48-3.09A8.38,8.38,0,0,0,225.52,23.81Zm-4.29,7.09c-1.32,1.24-4,1.58-5.73,1.24a3.48,3.48,0,0,1-1.13-.41h0l-.45-.23V27.13c0-2.75,0-4.52.08-4.79.07-1.43,2.18-1.62,3.24-1.58,4.52,0,5.31,3.73,5.42,5.69C222.58,27.69,222.55,29.65,221.23,30.9Z"></path><path class="cls-1" d="M205.44,42.18a2.81,2.81,0,0,0-.75-.22,2.53,2.53,0,0,1-1.59-1.36,2.46,2.46,0,0,0-.22-.34,14.53,14.53,0,0,1-1.06-2.3l-2-5.2c-.72-1.81-1.7-4.37-2.19-5.65s-1.47-3.73-2.11-5.43c-.11-.26-.19-.52-.3-.75-.23-.56-.38-1-.49-1.24a2,2,0,0,0-.19-.42c-.15-.37-.64-.15-.64-.15s-.22.08-.56.23l-1.21.6-.87,2.15c-.49,1.17-1.31,3.35-1.92,4.82-1,2.68-1.77,4.41-2.48,6.26-.23.52-.87,2.18-1.47,3.65s-1.17,2.87-1.29,3.09A.12.12,0,0,1,184,40c-.34.61-.9,1.7-1.88,1.85,0,0-.57,0-.76.26a.6.6,0,0,0-.19.38v.27s0,.11.15.18a.53.53,0,0,0,.27.08h7.46a.62.62,0,0,0,.38,0,.27.27,0,0,0,.11-.22v-.27a.71.71,0,0,0-.19-.41,2.55,2.55,0,0,0-.72-.19,1.8,1.8,0,0,1-1.58-2.37c.08-.49.72-2.38,1.4-4.26l.22-.64h8.18c.11,0,.41.53,1.13,2.26,1.06,2.64,1.17,3,.91,3.47v.11A2.21,2.21,0,0,1,197.18,42s-.56,0-.71.18a.48.48,0,0,0-.11.38v.27a.57.57,0,0,0,.11.22.21.21,0,0,0,.19,0h8.88l.07-.15V42.6A1.28,1.28,0,0,0,205.44,42.18ZM192.82,32.05a17.57,17.57,0,0,1-3.24-.12,2.38,2.38,0,0,1,.15-.52c.11-.34.79-2.26,2.26-6.48.22-.65.41-1.25.45-1.29s.23,0,.56.87l.65,1.55c.15.41.6,1.5,1,2.44s.87,2.15,1.06,2.6.34.91.34.91-1.46,0-3.23,0Z"></path></svg>