<?xml version="1.0" encoding="UTF-8"?>
<svg xmlns="http://www.w3.org/2000/svg" viewBox="0 0 50 50">
  <g id="icon-product-indices-blue" transform="translate(0.412 0.412)">
    <rect id="Rectangle_20236" data-name="Rectangle 20236" width="50" height="50" transform="translate(-0.412 -0.412)" fill="#24282d" opacity="0"></rect>
    <g id="Group_5431" data-name="Group 5431">
      <g id="Group_60" data-name="Group 60">
        <path id="Path_76" data-name="Path 76" d="M732.124,286.7H690.91V245.25a.754.754,0,0,0-1.508,0V286.7h-4.72a.753.753,0,1,0,0,1.506h4.72v4.717a.754.754,0,0,0,1.508,0V288.2h41.214a.753.753,0,1,0,0-1.506Z" transform="translate(-683.928 -244.497)" fill="#24282d"></path>
      </g>
      <path id="Path_77" data-name="Path 77" d="M724.612,256.167H698.054v.913H723.84A6.432,6.432,0,0,1,724.612,256.167Z" transform="translate(-689.089 -248.761)" fill="#24282d"></path>
      <path id="Path_78" data-name="Path 78" d="M754.731,257.08h3.89v-.913h-4.662A6.436,6.436,0,0,1,754.731,257.08Z" transform="translate(-709.513 -248.761)" fill="#24282d"></path>
      <rect id="Rectangle_2" data-name="Rectangle 2" width="40.143" height="0.912" transform="translate(8.965 0.108)" fill="#24282d"></rect>
      <path id="Path_79" data-name="Path 79" d="M733.236,269.105h-9.465a6.438,6.438,0,0,1,.772.913h9.465A6.434,6.434,0,0,1,733.236,269.105Z" transform="translate(-698.484 -253.5)" fill="#24282d"></path>
      <path id="Path_80" data-name="Path 80" d="M753.959,270.018h4.662v-.913h-3.89A6.438,6.438,0,0,1,753.959,270.018Z" transform="translate(-709.513 -253.5)" fill="#24282d"></path>
      <path id="Path_81" data-name="Path 81" d="M705.453,269.105h-7.4v.913h6.627A6.435,6.435,0,0,1,705.453,269.105Z" transform="translate(-689.089 -253.5)" fill="#24282d"></path>
      <path id="Path_82" data-name="Path 82" d="M705.3,282.794a6.417,6.417,0,0,1-.618-.751h-6.627v.912h7.152Z" transform="translate(-689.089 -258.234)" fill="#24282d"></path>
      <path id="Path_83" data-name="Path 83" d="M741.793,282.955h12.1v-.912H741.021A6.392,6.392,0,0,1,741.793,282.955Z" transform="translate(-704.786 -258.234)" fill="#24282d"></path>
      <path id="Path_84" data-name="Path 84" d="M701.035,294.981h-2.981v.912h2.46Z" transform="translate(-689.089 -262.968)" fill="#24282d"></path>
      <path id="Path_85" data-name="Path 85" d="M708.552,295.893h11.685a6.425,6.425,0,0,1-.772-.912H709.073Z" transform="translate(-692.924 -262.968)" fill="#24282d"></path>
      <path id="Path_86" data-name="Path 86" d="M741.021,295.893h12.873v-.912h-12.1A6.389,6.389,0,0,1,741.021,295.893Z" transform="translate(-704.786 -262.968)" fill="#24282d"></path>
      <path id="Path_87" data-name="Path 87" d="M701.984,307.386l-.006.008H739.63v-.913H702.5Z" transform="translate(-690.522 -267.175)" fill="#24282d"></path>
      <path id="Path_88" data-name="Path 88" d="M716.828,270.018a4.543,4.543,0,0,0-6.363,6.36l1.063-1.86.664-1.163.339-.594a1.826,1.826,0,0,1,2.49-.679,1.741,1.741,0,0,1,.185.132l.005-.007.551.414,1.066.8,1.719,1.289a4.464,4.464,0,0,0-1.719-4.691Z" transform="translate(-693.29 -253.502)" fill="#24282d"></path>
      <path id="Path_89" data-name="Path 89" d="M718.292,281.5l-1.267-.95-.543.95-.494.864a4.575,4.575,0,0,0,.479.048,4.518,4.518,0,0,0,2.233-.606Z" transform="translate(-695.641 -257.687)" fill="#24282d"></path>
      <path id="Path_90" data-name="Path 90" d="M728.654,291.209a4.54,4.54,0,0,0,6.2-6.553l-.951,1.9a2.729,2.729,0,1,1-5.253,1.248l-1.719-1.289a4.461,4.461,0,0,0,1.719,4.692Z" transform="translate(-699.592 -259.193)" fill="#24282d"></path>
      <path id="Path_91" data-name="Path 91" d="M730.882,282.955l1.17.878.439-.878.444-.889c-.077,0-.15-.023-.228-.023a4.509,4.509,0,0,0-2.232.607Z" transform="translate(-700.934 -258.234)" fill="#24282d"></path>
      <path id="Path_92" data-name="Path 92" d="M747.016,264.378a4.571,4.571,0,1,0-6.2-.746l.951-1.9a2.706,2.706,0,0,1-.2-1,2.737,2.737,0,1,1,3.464,2.627l-.512,1.022-.444.889c.077,0,.15.023.229.023A4.52,4.52,0,0,0,747.016,264.378Z" transform="translate(-704.319 -248.768)" fill="#24282d"></path>
      <path id="Path_93" data-name="Path 93" d="M727.82,266.791l.086-.173.37-.74.473-.946.376-.753a1.953,1.953,0,1,0-1.978-2.165,1.822,1.822,0,0,0-.022.215,1.938,1.938,0,0,0,.367,1.134l-.38.76-.839,1.677-.039.078-.456.913-.339.678-2.562,5.124-.748,1.5-.086.172-.371.74-.473.946-.244.488-.133.265a1.951,1.951,0,0,0-.786.187l-.239-.179-.446-.334-1.5-1.124-.332-.249-1.161-.871-.055-.041-.784-.588-1.49-1.118-1.511-1.134-.677-.507-.113-.084-1.264-.949-.01.013a.805.805,0,0,0-.085-.075.913.913,0,0,0-1.245.34l-.856,1.5-.418.731-.935,1.636-.136.238-.522.912-.267.466-3.9,6.833-.522.912-3.39,5.933a.889.889,0,0,0-.106.453.893.893,0,0,0,.9.912.912.912,0,0,0,.793-.46l.258-.453,3.649-6.387.522-.912,3.385-5.925.785-1.375.141-.246.381-.666.549-.962.309-.54.114-.2c.022,0,.042.006.063.006a1.932,1.932,0,0,0,.831-.192l.183.138.5.376,1.5,1.124.332.249,1.161.871.055.041.784.588,1.49,1.118,1.511,1.134.677.507a1.912,1.912,0,0,0-.031.3,1.95,1.95,0,0,0,3.889.213,1.989,1.989,0,0,0,.022-.213,1.943,1.943,0,0,0-.368-1.135l.38-.76.838-1.677.039-.077.456-.912.34-.679,2.561-5.124Z" transform="translate(-689.097 -250.282)" fill="#24282d"></path>
    </g>
  </g>
</svg>
