<?xml version="1.0" encoding="UTF-8"?>
<svg xmlns="http://www.w3.org/2000/svg" viewBox="0 0 50 50">
  <g id="Group_17718" data-name="Group 17718" transform="translate(890 -1771)">
    <rect id="Rectangle_36013" data-name="Rectangle 36013" width="50" height="50" transform="translate(-890 1771)" fill="#24282d" opacity="0"></rect>
    <g id="icon-product-shares-blue" transform="translate(-889.567 1771.432)">
      <rect id="icon_mask" width="50" height="50" transform="translate(-0.433 -0.433)" fill="none"></rect>
      <g id="icon" transform="translate(0.79 0.263)">
        <g id="Group_2199" data-name="Group 2199" transform="translate(2.193)">
          <path id="Path_1468" data-name="Path 1468" d="M1023.646,206.147a3.246,3.246,0,0,1,0-6.493,3.246,3.246,0,0,1,0,6.493Zm0-5.615a2.369,2.369,0,1,0,2.369,2.369A2.359,2.359,0,0,0,1023.646,200.532Zm24.3.965a3.246,3.246,0,0,1,0-6.493,3.246,3.246,0,0,1,0,6.493Zm0-5.7a2.369,2.369,0,1,0,2.369,2.369A2.416,2.416,0,0,0,1047.95,195.794Zm-12.108.351a3.246,3.246,0,1,1,0-6.493,3.3,3.3,0,0,1,3.246,3.246A3.239,3.239,0,0,1,1035.842,196.145Zm0-5.615a2.369,2.369,0,1,0,2.369,2.369A2.359,2.359,0,0,0,1035.842,190.53Zm24.3.263a3.246,3.246,0,0,1,0-6.493,3.239,3.239,0,0,1,3.246,3.246A3.3,3.3,0,0,1,1060.146,190.793Zm0-5.615a2.369,2.369,0,1,0,2.369,2.369A2.359,2.359,0,0,0,1060.146,185.177Z" transform="translate(-1020.4 -184.3)" fill="#24282d"></path>
        </g>
        <g id="Group_2200" data-name="Group 2200" transform="translate(0 26.146)">
          <path id="Path_1469" data-name="Path 1469" d="M1026.323,236.386h-5.966a2.452,2.452,0,0,1-2.457-2.457V216.557a2.452,2.452,0,0,1,2.457-2.457h5.966a2.452,2.452,0,0,1,2.457,2.457v17.372A2.4,2.4,0,0,1,1026.323,236.386Zm-5.966-20.882a1.161,1.161,0,0,0-1.141,1.141v17.372a1.161,1.161,0,0,0,1.141,1.141h5.966a1.161,1.161,0,0,0,1.141-1.141V216.644a1.161,1.161,0,0,0-1.141-1.141Z" transform="translate(-1017.9 -214.1)" fill="#24282d"></path>
        </g>
        <g id="Group_2201" data-name="Group 2201" transform="translate(12.196 16.846)">
          <path id="Path_1470" data-name="Path 1470" d="M1040.223,235.086h-5.966a2.453,2.453,0,0,1-2.457-2.457V205.957a2.452,2.452,0,0,1,2.457-2.457h5.966a2.452,2.452,0,0,1,2.457,2.457V232.63A2.51,2.51,0,0,1,1040.223,235.086Zm-5.966-30.182a1.161,1.161,0,0,0-1.141,1.141v26.673a1.161,1.161,0,0,0,1.141,1.141h5.966a1.161,1.161,0,0,0,1.141-1.141V206.044a1.161,1.161,0,0,0-1.141-1.141Z" transform="translate(-1031.8 -203.5)" fill="#24282d"></path>
        </g>
        <g id="Group_2202" data-name="Group 2202" transform="translate(24.304 21.496)">
          <path id="Path_1471" data-name="Path 1471" d="M1054.023,235.736h-5.966a2.453,2.453,0,0,1-2.457-2.457V211.257a2.452,2.452,0,0,1,2.457-2.457h5.966a2.452,2.452,0,0,1,2.457,2.457v22.023A2.452,2.452,0,0,1,1054.023,235.736Zm-5.966-25.532a1.161,1.161,0,0,0-1.141,1.141v22.023a1.161,1.161,0,0,0,1.141,1.141h5.966a1.161,1.161,0,0,0,1.141-1.141V211.344a1.161,1.161,0,0,0-1.141-1.141Z" transform="translate(-1045.6 -208.8)" fill="#24282d"></path>
        </g>
        <g id="Group_2203" data-name="Group 2203" transform="translate(36.5 11.757)">
          <path id="Path_1472" data-name="Path 1472" d="M1067.923,234.375h-5.966a2.453,2.453,0,0,1-2.457-2.457V200.157a2.452,2.452,0,0,1,2.457-2.457h5.966a2.453,2.453,0,0,1,2.457,2.457v31.762A2.51,2.51,0,0,1,1067.923,234.375Zm-5.966-35.271a1.162,1.162,0,0,0-1.141,1.141v31.762a1.161,1.161,0,0,0,1.141,1.141h5.966a1.161,1.161,0,0,0,1.141-1.141V200.244a1.161,1.161,0,0,0-1.141-1.141Z" transform="translate(-1059.5 -197.7)" fill="#24282d"></path>
        </g>
        <g id="Group_2204" data-name="Group 2204" transform="translate(7.274 4.967)">
          <path id="Path_1473" data-name="Path 1473" d="M1026.638,202.367a.666.666,0,0,1-.351-.175.434.434,0,0,1,.088-.614l7.721-6.493a.439.439,0,1,1,.526.7l-7.721,6.493C1026.813,202.279,1026.725,202.367,1026.638,202.367Zm19.478-4.212h-.175l-6.932-3.246a.452.452,0,0,1,.439-.79l6.931,3.246c.263.088.022.2-.153.464C1046.138,197.917,1046.291,198.155,1046.116,198.155Zm4.826-.439a.665.665,0,0,1-.351-.175.376.376,0,0,1,.088-.614l8.072-6.844a.439.439,0,1,1,.526.7l-8.072,6.844A.884.884,0,0,1,1050.942,197.716Z" transform="translate(-1026.191 -189.961)" fill="#24282d"></path>
        </g>
      </g>
    </g>
  </g>
</svg>
