<?xml version="1.0" encoding="UTF-8"?>
<svg xmlns="http://www.w3.org/2000/svg" id="Component_40_23" data-name="Component 40 – 23" viewBox="0 0 15 14.57">
  <path id="Path_1736" data-name="Path 1736" d="M8.09-15a5.529,5.529,0,0,1,3.941,1.582A5.316,5.316,0,0,1,13.639-9.57,5.337,5.337,0,0,1,13.3-7.656a4.966,4.966,0,0,1-.985,1.6l.241.234h.684L17.5-1.68,16.213-.43,11.95-4.57v-.664l-.241-.234a5.173,5.173,0,0,1-1.649.957A5.788,5.788,0,0,1,8.09-4.18,5.64,5.64,0,0,1,4.129-5.742,5.216,5.216,0,0,1,2.5-9.57a5.281,5.281,0,0,1,1.629-3.848A5.6,5.6,0,0,1,8.09-15Zm0,1.68a3.907,3.907,0,0,0-2.735,1.094A3.548,3.548,0,0,0,4.269-9.57,3.548,3.548,0,0,0,5.355-6.914,3.766,3.766,0,0,0,8.09-5.859a3.766,3.766,0,0,0,2.735-1.055A3.548,3.548,0,0,0,11.91-9.57a3.548,3.548,0,0,0-1.086-2.656A3.906,3.906,0,0,0,8.09-13.32Z" transform="translate(-2.5 15)" fill="#f2672a"></path>
</svg>
