<?xml version="1.0" encoding="UTF-8"?>
<svg xmlns="http://www.w3.org/2000/svg" id="The_Japan_Times__2021-01-21_" data-name="The_Japan_Times_(2021-01-21)" viewBox="0 0 102.098 39.587">
  <path id="path40904" d="M9.653,20.174a5.288,5.288,0,0,1-4.042,2.112c-2.523,0-4.067-1.107-4.067-4.042v-7.8H0v-.181A17.745,17.745,0,0,0,5.972,5.371H6.2V8.95H9.4v1.493H6.2v7.775A1.9,1.9,0,0,0,8.289,20.3a4.415,4.415,0,0,0,1.262-.257Zm0,0" transform="translate(0 -3.543)" fill="#7a7878"></path>
  <path id="path40906" d="M34.908,18.535v-.1c1.262-.72,1.416-1.544,1.416-3.4V9.345a1.924,1.924,0,0,0-2.009-2.163,5.584,5.584,0,0,0-1.261.155v7.7c0,1.853.154,2.678,1.415,3.4v.1H26.876v-.1c1.262-.72,1.416-1.544,1.416-3.4V4.762c0-2.265-.257-2.831-1.674-3.5v-.1A43.672,43.672,0,0,0,33.054,0V7.08A5.931,5.931,0,0,1,37.379,5.1c1.88,0,3.6,1.055,3.6,4.248v5.689c0,1.853.154,2.678,1.415,3.4v.1Zm0,0" transform="translate(-17.559)" fill="#7a7878"></path>
  <path id="path40908" d="M83.745,24.864c-.952,1.647-2.5,3.836-5.766,3.836-3.811,0-5.973-2.806-5.973-6.616,0-3.862,2.652-7.105,6.333-7.105,3.192,0,5.123,1.673,5.123,4.917v1.468H76.589c.155,3.295,1.622,4.557,3.475,4.557a6.227,6.227,0,0,0,3.578-1.133Zm-4.2-6.076c0-1.777-.231-2.986-1.339-2.986-1.493,0-1.622,2.454-1.622,4.719v.1l2.961-.317Zm0,0" transform="translate(-47.501 -9.881)" fill="#7a7878"></path>
  <path id="path40910" d="M148.625,27.189s-1.442.017-1.661-1.215c-.148-.84-.11-5.005-.111-6.775a3.78,3.78,0,0,0-3.2-3.965,11.35,11.35,0,0,0-4.278-.09,6.8,6.8,0,0,0-2.35.865l.037.1c.663-.137,3.116-.53,4.359.714.89.889.785,1.784.785,3.9a20.2,20.2,0,0,0-2.917.587,6.9,6.9,0,0,0-3.264,1.774,3.612,3.612,0,0,0-.536,4.187,3.7,3.7,0,0,0,3.748,1.407,4.389,4.389,0,0,0,2.609-1.471c.117-.126.236-.249.383-.4.034.106.047.149.061.192a2.2,2.2,0,0,0,2.372,1.735,7.047,7.047,0,0,0,3.968-1.44Zm-6.422-.76a1.515,1.515,0,0,1-1.994-.376,2.432,2.432,0,0,1-.5-1.215,4.427,4.427,0,0,1,.237-2.2,2.2,2.2,0,0,1,.718-1,1.43,1.43,0,0,1,1.255-.225c.081.019.162.041.243.062a.359.359,0,0,1,.042.017Zm0,0" transform="translate(-89.081 -9.884)" fill="#fff"></path>
  <path id="path40912" d="M138.34,23.009a2.14,2.14,0,1,0-2.14-2.14,2.14,2.14,0,0,0,2.14,2.14" transform="translate(-89.847 -12.355)" fill="#fff"></path>
  <path id="path40914" d="M230,27.189s-1.442.017-1.661-1.215c-.149-.84-.111-5.005-.111-6.775a3.78,3.78,0,0,0-3.2-3.965,11.35,11.35,0,0,0-4.278-.09,6.79,6.79,0,0,0-2.35.865l.037.1c.663-.137,3.116-.53,4.359.714.889.889.785,1.784.785,3.9a20.179,20.179,0,0,0-2.917.587,6.9,6.9,0,0,0-3.265,1.774,3.615,3.615,0,0,0-.536,4.187,3.7,3.7,0,0,0,3.748,1.407,4.389,4.389,0,0,0,2.61-1.471c.116-.126.236-.249.383-.4.033.106.047.149.06.192a2.2,2.2,0,0,0,2.372,1.735A7.047,7.047,0,0,0,230,27.289Zm-6.422-.76a1.515,1.515,0,0,1-1.994-.376,2.433,2.433,0,0,1-.5-1.215,4.438,4.438,0,0,1,.238-2.2,2.2,2.2,0,0,1,.718-1,1.43,1.43,0,0,1,1.255-.225c.081.019.162.041.243.062a.434.434,0,0,1,.042.017Zm0,0" transform="translate(-142.76 -9.884)" fill="#fff"></path>
  <path id="path40916" d="M219.713,23.009a2.14,2.14,0,1,0-2.14-2.14,2.14,2.14,0,0,0,2.14,2.14" transform="translate(-143.527 -12.355)" fill="#fff"></path>
  <path id="path40918" d="M171.529,33.565v-.1c1.262-.721,1.416-1.544,1.416-3.4V19.741c0-2.265-.257-2.831-1.674-3.5v-.1a43.677,43.677,0,0,0,6.436-1.158v2.059a6.165,6.165,0,0,1,3.939-2.059c3.167,0,4.865,2.677,4.865,6.488,0,6.094-4.769,7.259-7.775,7.259-.334,0-1.055-.051-1.055-.051v1.39c0,1.853.18,2.626,1.827,3.4v.1Zm6.179-6.331a2.255,2.255,0,0,0,1.262.268c1.832,0,2.782-2.5,2.782-5.461,0-3.095-.992-4.966-2.747-4.966a2.024,2.024,0,0,0-1.3.578Zm0,0" transform="translate(-112.983 -9.881)" fill="#fff"></path>
  <path id="path40920" d="M262.118,28.416v-.1c1.262-.72,1.416-1.544,1.416-3.4V19.226a1.923,1.923,0,0,0-2.008-2.163,5.592,5.592,0,0,0-1.262.155v7.7c0,1.853.154,2.678,1.416,3.4v.1h-7.492v-.1c1.262-.72,1.416-1.544,1.416-3.4V19.741c0-2.265-.257-2.831-1.674-3.5v-.1a42.094,42.094,0,0,0,6.333-1.158v1.982a5.933,5.933,0,0,1,4.325-1.982c1.879,0,3.6,1.055,3.6,4.248v5.689c0,1.853.154,2.678,1.416,3.4v.1Zm0,0" transform="translate(-167.512 -9.881)" fill="#fff"></path>
  <path id="path40922" d="M110.458,33.663c1.236-.772,2.445-2.908,2.445-5.714V19.74c0-2.265-.257-2.831-1.673-3.5v-.1a43.647,43.647,0,0,0,6.434-1.159V25.891c0,4.916-5.4,7.258-7.129,7.927Zm0,0" transform="translate(-72.866 -9.881)" fill="#fff"></path>
  <path id="path40924" d="M117.719,2.549a2.329,2.329,0,0,1,4.658,0,2.329,2.329,0,1,1-4.658,0" transform="translate(-77.656 -0.154)" fill="#dc1430"></path>
  <path id="path40926" d="M129.839,85.888c-.952,1.647-2.5,3.836-5.766,3.836-3.811,0-5.973-2.806-5.973-6.617,0-3.861,2.652-7.105,6.333-7.105,3.192,0,5.123,1.674,5.123,4.918v1.467h-6.874c.155,3.295,1.622,4.557,3.475,4.557a6.227,6.227,0,0,0,3.578-1.133Zm-4.2-6.076c0-1.777-.231-2.987-1.339-2.987-1.493,0-1.622,2.454-1.622,4.72v.1l2.961-.317Zm0,0" transform="translate(-77.908 -50.136)" fill="#fff"></path>
  <path id="path40928" d="M9.653,81.2a5.286,5.286,0,0,1-4.042,2.111c-2.523,0-4.067-1.107-4.067-4.042v-7.8H0v-.181a17.758,17.758,0,0,0,5.973-4.892H6.2v3.579H9.4v1.493H6.2v7.775a1.9,1.9,0,0,0,2.085,2.085,4.387,4.387,0,0,0,1.261-.258Zm0,0" transform="translate(0 -43.799)" fill="#fff"></path>
  <path id="path40930" d="M27.791,89.337c1.262-.721,1.416-1.544,1.416-3.4V80.765c0-2.266-.258-2.832-1.674-3.5v-.1A42.089,42.089,0,0,0,33.867,76V85.94c0,1.853.154,2.677,1.416,3.4v.1H27.791Zm0,0" transform="translate(-18.163 -50.136)" fill="#fff"></path>
  <path id="path40932" d="M32.223,63.568a2.329,2.329,0,0,1,4.659,0,2.329,2.329,0,1,1-4.659,0" transform="translate(-21.257 -40.406)" fill="#fff"></path>
  <path id="path40934" d="M66.035,89.442v-.1c1.262-.721,1.415-1.544,1.415-3.4v-5.69a2.073,2.073,0,0,0-2.214-2.162,4.719,4.719,0,0,0-1.364.181,5.524,5.524,0,0,1,.308,1.982v5.69c0,1.853.155,2.677,1.416,3.4v.1H58.106v-.1c1.262-.721,1.415-1.544,1.415-3.4v-5.69a1.922,1.922,0,0,0-2.008-2.162,5.633,5.633,0,0,0-1.261.154v7.7c0,1.853.154,2.677,1.415,3.4v.1H50.177v-.1c1.262-.721,1.415-1.544,1.415-3.4V80.767c0-2.266-.257-2.832-1.673-3.5v-.1A42.2,42.2,0,0,0,56.252,76v1.982A5.931,5.931,0,0,1,60.577,76a3.249,3.249,0,0,1,3.27,2.136A6.442,6.442,0,0,1,68.506,76c1.88,0,3.6,1.055,3.6,4.247v5.69c0,1.853.154,2.677,1.415,3.4v.1Zm0,0" transform="translate(-32.93 -50.138)" fill="#fff"></path>
  <path id="path40936" d="M154.411,84.782h.129c1.519,2.471,3.064,4.016,4.4,4.016A1.835,1.835,0,0,0,161,86.971c0-2.884-6.59-1.957-6.59-6.565,0-2.471,2.523-4.4,5.278-4.4a13.314,13.314,0,0,1,3.783.643v3.578h-.1c-1.621-2.111-2.677-3.3-3.939-3.3-1.081,0-1.88.619-1.88,1.442,0,2.652,6.951,2.188,6.951,6.9,0,2.754-2.831,4.453-5.689,4.453a15,15,0,0,1-4.222-.592Zm0,0" transform="translate(-101.861 -50.138)" fill="#fff"></path>
</svg>
