<?xml version="1.0" encoding="UTF-8"?>
<svg xmlns="http://www.w3.org/2000/svg" xmlns:xlink="http://www.w3.org/1999/xlink" id="Group_9351" data-name="Group 9351" version="1.1" viewBox="0 0 183.9 16.8">
  <defs>
    <style>
      .cls-1 {
        clip-path: url(#clippath);
      }

      .cls-2 {
        fill: none;
      }

      .cls-2, .cls-3, .cls-4 {
        stroke-width: 0px;
      }

      .cls-3 {
        fill: #00b2e8;
      }

      .cls-5 {
        clip-path: url(#clippath-1);
      }

      .cls-4 {
        fill: #fff;
      }
    </style>
    <clipPath id="clippath">
      <path class="cls-2" d="M13.3,4.4c0,3.2-4,4.7-6.2,4.7-5.2,0-5.8-3.7-5.8-3.7,1.2,1.1,2.7,1.6,4.3,1.4,3-.1,4.1-2.2,4.1-3.7s-.9-2.5-3.4-2.5C2.5.9-.2,4.1,0,7.9c0,4.8,3.8,8.8,8.6,8.9,4.5,0,7.2-3.9,7.2-3.9-1.9,1.9-4.5,3-7.2,3C4.2,16,.5,11.2.5,7.9c0,0,2.1,6.8,8.7,6.8s8.1-7.5,8.1-7.5c0,0-2.3,5.8-8.6,5.8S.8,6.8.8,6.8c1.6,2.6,4.4,4.2,7.5,4.2,5.1,0,7.1-3.1,7.1-6S11.5,0,11.5,0c0,0,1.7,1.2,1.7,4.4Z"></path>
    </clipPath>
    <clipPath id="clippath-1">
      <rect class="cls-2" width="183.9" height="16.8"></rect>
    </clipPath>
  </defs>
  <g id="Group_9348" data-name="Group 9348">
    <g class="cls-1">
      <g id="Group_9347" data-name="Group 9347">
        <rect id="Rectangle_27092" data-name="Rectangle 27092" class="cls-3" width="17.2" height="16.8"></rect>
      </g>
    </g>
  </g>
  <g id="Group_9350" data-name="Group 9350">
    <g class="cls-5">
      <g id="Group_9349" data-name="Group 9349">
        <path id="Path_18745" data-name="Path 18745" class="cls-4" d="M23.7,1h1.5v14.1h-1.5v.7h11.1v-4.1l-2.6,3.4h-3.8v-6.7h2.8l1.6,2.6v-5.9l-1.6,2.6h-2.8V1h3.8l2.6,3.4V.3h-11.1v.7Z"></path>
        <path id="Path_18746" data-name="Path 18746" class="cls-4" d="M41,15.1V1.1h1.5V.3h-6.2v.7h1.5v14.1h-1.5v.7h11.1v-4.1l-2.6,3.4h-3.8Z"></path>
        <path id="Path_18747" data-name="Path 18747" class="cls-4" d="M53.3,1h1.5v14.1h-1.5v.7h11.1v-4.1l-2.6,3.4h-3.8v-6.7h2.8l1.6,2.6v-5.9l-1.6,2.6h-2.8V1h3.8l2.6,3.4V.3h-11.1v.7Z"></path>
        <path id="Path_18748" data-name="Path 18748" class="cls-4" d="M85.8.3c-4.3,0-7.7,3.5-7.7,7.8,0,4.3,3.5,7.7,7.8,7.7,4.3,0,7.7-3.5,7.7-7.7,0-4.3-3.5-7.8-7.8-7.7h0M85.8,15.1c-2.2,0-3.9-3.2-3.9-7.1s1.8-7.1,3.9-7.1,3.9,3.2,3.9,7.1-1.8,7.1-3.9,7.1"></path>
        <path id="Path_18749" data-name="Path 18749" class="cls-4" d="M65.1,8c0,4.3,3.6,7.8,7.9,7.7,1.5,0,3-.5,4.3-1.3v-4.6c-.5,3-2.3,5.2-4.3,5.2s-4.5-3.2-4.5-7.1,2-7.1,4.5-7.1,3.8,2.2,4.3,5.2V1.6c-3.6-2.4-8.4-1.4-10.8,2.2-.8,1.3-1.3,2.7-1.3,4.3"></path>
        <path id="Path_18750" data-name="Path 18750" class="cls-4" d="M102,.7l2.6,1.6v7.3L98.5.3h-5.3v.7h2.3v13.2l-2.6,1.6h5.9l-2.6-1.6V3.1l8.6,12.7h.7V2.3l2.6-1.6h-5.9Z"></path>
        <path id="Path_18751" data-name="Path 18751" class="cls-4" d="M115.2.3c-4.3,0-7.7,3.5-7.7,7.8,0,4.3,3.5,7.7,7.8,7.7,4.3,0,7.7-3.5,7.7-7.7,0-4.3-3.5-7.8-7.8-7.7h0M115.2,15.1c-2.2,0-3.9-3.2-3.9-7.1s1.8-7.1,3.9-7.1,3.9,3.2,3.9,7.1-1.8,7.1-3.9,7.1"></path>
        <path id="Path_18752" data-name="Path 18752" class="cls-4" d="M132.5,9.7l-4-9.4h-5.9v.7h2.3v13.2l-2.6,1.6h5.9l-2.6-1.6V3.4l5.2,12.2h.6l4-13.4v12.9h-1.5v.7h6.2v-.7h-1.5V1h1.5V.3h-4.7l-2.8,9.4Z"></path>
        <path id="Path_18753" data-name="Path 18753" class="cls-4" d="M141,1h1.5v14.1h-1.5v.7h6.2v-.7h-1.5V1h1.5V.3h-6.2v.7Z"></path>
        <path id="Path_18754" data-name="Path 18754" class="cls-4" d="M155.4,6.9c-2.6-1.4-4.6-1.6-4.6-3.9.1-1.2,1.2-2.1,2.4-2,0,0,0,0,0,0,2.3,0,3.6,2.6,4.1,4V.5l-.4,1c-1.1-.7-2.3-1.1-3.6-1.1-2,0-5.1,1-5.1,4.4s1.7,3.5,4.1,4.6c2.2,1,3.2,1.6,3.2,3.2,0,1.4-1.3,2.5-2.7,2.5-1.8,0-3.2-1.7-4.2-4.3v4.8l.4-1.4c1.2.9,2.5,1.4,4,1.4,4.2,0,5.3-2.7,5.3-4.4s-.6-3.1-2.8-4.3"></path>
        <path id="Path_18755" data-name="Path 18755" class="cls-4" d="M182.9,15.1L177.2.1l-2.3,1.8-3.9,12-2.6,1.6h5.9l-2.6-1.6,1.2-3.6h4.1l1.6,4.8h-1.4v.7h6.8v-.7h-1ZM173.1,9.6l1.8-5.6,1.8,5.6h-3.7Z"></path>
        <path id="Path_18756" data-name="Path 18756" class="cls-4" d="M168,1l2.6,3.4V.3h-11.7v4.1l2.6-3.4h1.6v14.1h-1.5v.7h6.2v-.7h-1.5V1h1.6Z"></path>
      </g>
    </g>
  </g>
</svg>
