<?xml version="1.0" encoding="UTF-8"?>
<svg xmlns="http://www.w3.org/2000/svg" viewBox="0 0 50 50">
  <g id="icon-product-forex-blue" transform="translate(1364.421 -4140.58)">
    <rect id="Rectangle_20234" data-name="Rectangle 20234" width="50" height="50" transform="translate(-1364.421 4140.58)" fill="#24282d" opacity="0"></rect>
    <g id="icon_forex" transform="translate(-1363.09 4141)">
      <path id="Path_97" data-name="Path 97" d="M115.032,268.752H116.3a8.626,8.626,0,0,0,.458,1.53,5,5,0,0,0,5.081,3.127,5.393,5.393,0,0,0,2.3-.482v-1.713a3.422,3.422,0,0,1-2.429.814,3.952,3.952,0,0,1-2.07-.573,3.738,3.738,0,0,1-1.68-2.7h4.948l.233-1.114h-5.356c-.005-.083-.008-.339-.008-.765,0-.105,0-.216.008-.333h5.58l.225-1.114h-5.672a3.6,3.6,0,0,1,.549-1.439,3.849,3.849,0,0,1,1.023-1.131,3.946,3.946,0,0,1,2.345-.674,3.512,3.512,0,0,1,2.3.84l.332-1.547a4.744,4.744,0,0,0-2.6-.674,6.051,6.051,0,0,0-2.952.732,5.283,5.283,0,0,0-2.686,3.892h-.964l-.233,1.114h1.089c-.005.117-.008.23-.008.341q0,.408.025.757h-.873Z" transform="translate(-85.681 -254.725)" fill="#24282d"></path>
      <path id="Path_98" data-name="Path 98" d="M84.769,285.5a14.969,14.969,0,0,0,14.449-11.011,12.18,12.18,0,1,0-5.6-15.88A14.917,14.917,0,1,0,84.769,285.5Zm0-28.227a13.451,13.451,0,0,1,8.682,3.177l.864.732.376-1.066a10.659,10.659,0,1,1,4.417,12.531l-.964-.6-.215,1.111a13.4,13.4,0,1,1-13.16-15.883Z" transform="translate(-69.807 -251.439)" fill="#24282d"></path>
      <path id="Path_99" data-name="Path 99" d="M87.373,280.871a5.084,5.084,0,0,1-.826-2.376l-2.019.379a5.6,5.6,0,0,0,.8,2.643,4.265,4.265,0,0,0,1.628,1.567,7.423,7.423,0,0,0,2.448.675v2.007h1.182v-2.03a4.819,4.819,0,0,0,4.762-4.975A4.8,4.8,0,0,0,95.029,277a4.04,4.04,0,0,0-.909-1.405,4.963,4.963,0,0,0-1.528-1A16.092,16.092,0,0,0,90.584,274v-5.789a2.736,2.736,0,0,1,1.545.832,3.435,3.435,0,0,1,.742,1.812l2.075-.312a4.561,4.561,0,0,0-1.584-3,4.953,4.953,0,0,0-2.777-1.026v-.959H89.4v.959a5.276,5.276,0,0,0-3.011,1.093,4.723,4.723,0,0,0-1,5.622,3.709,3.709,0,0,0,1.478,1.483,8.393,8.393,0,0,0,2.532.959v6.391A2.927,2.927,0,0,1,87.373,280.871Zm3.212-4.919a4.671,4.671,0,0,1,2.158,1.188,2.694,2.694,0,0,1,.541,1.757,3.148,3.148,0,0,1-.764,2.153,2.979,2.979,0,0,1-1.935,1.015Zm-3.129-3.313a2.787,2.787,0,0,1,.1-3.513,2.975,2.975,0,0,1,1.846-.938v5.555A3.955,3.955,0,0,1,87.456,272.64Z" transform="translate(-74.974 -256.448)" fill="#24282d"></path>
      <path id="Path_100" data-name="Path 100" d="M106.26,292.233,87.2,305.688h-.82L78,300.085a1.136,1.136,0,0,0-1.264,1.888l9.3,6.221v6.892h1.557v-6.9l17.792-12.559v7.458h1.557v-7.134l8.934,8.245a1.136,1.136,0,0,0,1.541-1.67Z" transform="translate(-72.064 -265.927)" fill="#24282d"></path>
    </g>
  </g>
</svg>
