<?xml version="1.0" encoding="UTF-8"?>
<svg xmlns="http://www.w3.org/2000/svg" xmlns:xlink="http://www.w3.org/1999/xlink" id="Group_9353" data-name="Group 9353" viewBox="0 0 103.143 44.945">
  <defs>
    <clipPath id="clip-path">
      <rect id="Rectangle_27094" data-name="Rectangle 27094" width="103.143" height="44.945" fill="#fff"></rect>
    </clipPath>
  </defs>
  <g id="Group_9352" data-name="Group 9352" clip-path="url(#clip-path)">
    <path id="Path_18757" data-name="Path 18757" d="M17.17,42.235l2.548,6.846h.047l2.4-6.846h2.883l.447,1.251-.447.049a.448.448,0,0,0-.446.527l.469,7.771.813.049.447,1.3H22.453V51.932l.5-.05c.312-.015.359-.164.344-.576L23,45.132h-.032l-2.545,6.336-1.438.479-2.457-6.766h-.031l-.342,6.651.8.049v1.3H13.071l.447-1.251.469-.05c.3-.049.407-.148.422-.56l.5-7.737-.829-.05.447-1.3H17.17ZM28.054,53.182l.431-1.235.363-.049c.348-.05.408-.225.514-.511l2.446-7.753-.775-.1.432-1.3h2.851l3.128,9.581.551.067.431,1.3h-3.8V51.947l.5-.065c.287-.034.378-.2.272-.511l-.431-1.3H31.514l-.544,1.762.771.049v1.3H28.054Zm3.78-4.5h2.84l-1.39-4.66h-.045Zm14.136,2.6V48.76L45.19,48.7l-.453-1.24H48.8l-.221,1.192-.418.048c-.264.048-.387.143-.387.46V52.2a6.2,6.2,0,0,1-3.514.986c-2.99,0-4.678-1.763-4.678-5.449,0-4.1,2.355-5.5,5.032-5.5a7.143,7.143,0,0,1,3.114.636V44.3l-1.5.584v-.461c0-.271-.031-.4-.278-.477a5.53,5.53,0,0,0-1.255-.126c-2.182,0-3.158,1.477-3.158,3.828,0,2.526.806,4.02,2.771,4.02A3.512,3.512,0,0,0,45.969,51.287ZM59.824,52.7l-1.8.481-4.567-7.954h-.031v6.6l.854.049v1.3H50.526l.444-1.235.271-.065c.264-.049.372-.117.372-.45V43.585l-1.034-.05.444-1.3h2.523l4.439,7.819h.031V43.585l-.854-.05v-1.3H60.9l-.455,1.251-.235.049c-.3.05-.389.115-.389.493l0,8.674Zm3.379.481.452-1.235L63.8,51.9c.355-.05.417-.225.525-.511l2.5-7.753-.8-.1.441-1.3h2.912l3.195,9.581.562.067.441,1.3H69.693V51.947l.51-.065c.292-.034.385-.2.277-.511l-.441-1.3H66.512l-.553,1.762.785.049v1.3H63.2Zm3.635-4.5h2.9l-1.419-4.66h-.046Zm10.1-4.988H75.488c-.316,0-.4.149-.4.427v.619l-1.517-.535V42.235h8.643v1.971l-1.531.54v-.6c0-.281-.063-.45-.4-.45H78.87v8.137l.89.049.463,1.3H75.558l.452-1.235.481-.065c.363-.018.451-.132.451-.511V43.7Zm8.037,8.258.132-.05c.421-.049.5-.115.5-.56V43.6l-.6-.065-.446-1.3h7.324v2l-1.511.482v-.831c0-.313-.1-.187-.408-.187H87.507v3.129h3.727v1.516H87.507v3.377h2.621c.31,0,.372-.115.372-.45v-.135l1.513-.473v2.52H84.523Zm13.683-1.889c0-1.015-.837-1.38-1.954-1.681-1.442-.382-2.944-1-2.944-3.038,0-1.937,1.44-3.111,3.627-3.111a7.153,7.153,0,0,1,2.9.582v1.519l-1.5.521v-.469c0-.271-.032-.4-.28-.477a5.337,5.337,0,0,0-1.108-.126c-.822,0-1.675.3-1.675,1.35s.838,1.317,2.032,1.7c1.427.476,2.9.983,2.9,3.079s-1.364,3.272-3.846,3.272a7.617,7.617,0,0,1-3.069-.54V51.084l1.5-.551v.488c0,.271.046.4.279.477a5.1,5.1,0,0,0,1.225.143c1.013,0,1.912-.339,1.912-1.578" transform="translate(-5.581 -18.033)" fill="#fff"></path>
    <path id="Path_18758" data-name="Path 18758" d="M103.143,44.945H0V0H103.143ZM2.267,42.595h98.61V2.351H2.267Z" transform="translate(0 0)" fill="#fff"></path>
    <path id="Path_18759" data-name="Path 18759" d="M15.084,15.084H22v.682H15.825V19.66h5.1v.7h-5.1v5.1h-.743Zm12.677,0h.576V25.456h-.576Zm7.491,0h.626l6.728,9.08v-9.08h.712V25.456h-.614l-6.735-9.1v9.1h-.712Zm18.4,0h.665l4.557,10.372h-.75l-1.331-3H51.159l-1.331,3h-.748l4.573-10.372ZM56.537,21.8l-2.55-5.757L51.419,21.8Zm8.678-6.713h.635l6.72,9.08v-9.08h.712V25.456h-.613l-6.74-9.1v9.1h-.713Zm14.406,5.478c0-3.192,2.177-5.477,5.008-5.477a4.855,4.855,0,0,1,2.831.832v.8a4.774,4.774,0,0,0-2.818-.907,4.446,4.446,0,0,0-4.292,4.749,4.463,4.463,0,0,0,4.305,4.765,4.54,4.54,0,0,0,3.033-1.112v.832a4.787,4.787,0,0,1-3.062.983c-2.811.009-5.006-2.276-5.006-5.468Zm14.406-5.478h6.687v.682H94.737v3.761h4.939v.7H94.737v4.543h6.2v.684H94.027Z" transform="translate(-6.441 -6.44)" fill="#fff"></path>
  </g>
</svg>
