<?xml version="1.0" encoding="UTF-8"?>
<svg xmlns="http://www.w3.org/2000/svg" id="Layer_x0020_1" viewBox="0 0 107.188 44.986">
  <g id="_2749939849840">
    <path id="Path_18760" data-name="Path 18760" d="M590937.063,131726.484a8.551,8.551,0,0,1-1.437-.062c-1.25-.141-2.812-.969-2.812-2.453a2.112,2.112,0,0,1,1.375-2,2.208,2.208,0,0,1,1.25-.344,19.235,19.235,0,0,1,2.375-.078,3.141,3.141,0,0,1,2.688,1.188,2.014,2.014,0,0,1-.062,2.2l-.375.5a4.678,4.678,0,0,1-1.562.813A6.57,6.57,0,0,1,590937.063,131726.484Zm-3.312-19.484a3.013,3.013,0,0,1,2.875-3.3,2.875,2.875,0,0,1,2.375.875,3.163,3.163,0,0,1,.938,2.047,3.089,3.089,0,0,1-.625,2.172.586.586,0,0,1-.187.219,2.761,2.761,0,0,1-1,.8,3.394,3.394,0,0,1-2,.172,4.746,4.746,0,0,1-.625-.187l-.5-.266a2.121,2.121,0,0,0-.375-.375,3.223,3.223,0,0,1-.875-2.156Zm-4.812-.812a7.086,7.086,0,0,0,.438,3.016,3.575,3.575,0,0,0,.375.859l.5.781a2.393,2.393,0,0,0-.625.344c-.125.078-.187.141-.312.219-.25.2-.562.453-.812.688a5.974,5.974,0,0,0-.812,1.109,4.321,4.321,0,0,0-.75,2.3,6.467,6.467,0,0,0,.313,2.219,6.684,6.684,0,0,0,.75,1.219,4.708,4.708,0,0,0,2.25,1.594c0,.141-.25.219-.437.359l-.625.563a4.4,4.4,0,0,0-1.562,3.125,11.166,11.166,0,0,0,.125,1.469l.188.563a4.624,4.624,0,0,0,.375.859,6.515,6.515,0,0,0,.938,1.109,5.4,5.4,0,0,0,1.688,1.25,7.633,7.633,0,0,0,.75.313,14.374,14.374,0,0,0,3.25.75,14.954,14.954,0,0,0,4.563-.156,4.165,4.165,0,0,0,.938-.219,8.346,8.346,0,0,0,2.75-1.187,1.655,1.655,0,0,0,.563-.422,2.013,2.013,0,0,0,.313-.234,8.634,8.634,0,0,0,1-1c1.813-2.3,2-6.2-.187-8.359a7.191,7.191,0,0,0-3.625-1.922c-1.562-.391-4.812-.25-6.812-.25a3.642,3.642,0,0,1-2.375-.437,1.549,1.549,0,0,1,.063-2.219,2.086,2.086,0,0,1,2.063-.422,14.476,14.476,0,0,0,3.063.25,6.068,6.068,0,0,0,.75-.062,7.746,7.746,0,0,0,4.688-2.391,6.991,6.991,0,0,0,1.75-4.453,6.326,6.326,0,0,0-.875-3.531,4.95,4.95,0,0,0-.625-.875c-.125-.078-.187-.109-.187-.234a1.054,1.054,0,0,0,.375-.125c.188-.047.313-.078.5-.141l1.188-.391a.444.444,0,0,1,.188-.062,1.967,1.967,0,0,1,.25-.078.788.788,0,0,0,.438-.734v-1.453a.893.893,0,0,0-1-.891h-7.812a9.509,9.509,0,0,0-1.375.094,7.871,7.871,0,0,0-4.375,2.25,7.35,7.35,0,0,0-2.062,4.078,4.22,4.22,0,0,0-.125.875Z" transform="translate(-590869.125 -131686)" fill="#fff" fill-rule="evenodd"></path>
    <path id="Path_18761" data-name="Path 18761" d="M396077.188,17.984a6.068,6.068,0,0,1,3.25.81c.063.048.281.165.281.262v4.924a2.667,2.667,0,0,1-.375,1.055l-.406.634a3.841,3.841,0,0,1-5.312.526.53.53,0,0,0-.125-.125,5.2,5.2,0,0,1-.437-.425,5.24,5.24,0,0,1-1.031-2.2,2.478,2.478,0,0,0-.031-.473,3.054,3.054,0,0,1,0-.535,4.343,4.343,0,0,1,2.438-4.037,4.181,4.181,0,0,1,1.75-.419Zm3.344-4.086a3.412,3.412,0,0,1-.437-.139,9.911,9.911,0,0,0-5.469-.412,7.617,7.617,0,0,0-1.719.555,9.531,9.531,0,0,0-2.344,1.577,2.1,2.1,0,0,0-.281.288,8.983,8.983,0,0,0-1.562,2.351l-.187.392a10.741,10.741,0,0,0-.687,4.953c.031.124,0,.247.063.37l.313,1.676a10.326,10.326,0,0,0,1.688,3.227l.844.923c.031.006.031.024.031.03.063.046.063.047.125.094a8.513,8.513,0,0,0,2.875,1.67c.188.065.375.125.594.181a7.427,7.427,0,0,0,2.219.221,5.884,5.884,0,0,0,.781-.053,7.482,7.482,0,0,0,1.938-.521,4.676,4.676,0,0,0,.531-.256,7.43,7.43,0,0,0,1.469-.99l.906-.8a4.339,4.339,0,0,0,.156.637c.156.536.406,1.541,1.063,1.541h1.813a.9.9,0,0,0,.844-.8V1.035a.877.877,0,0,0-.781-.8h-3.969a.91.91,0,0,0-.594.319,1.1,1.1,0,0,0-.219.684V13.9Z" transform="translate(-396029 -0.231)" fill="#fff" fill-rule="evenodd"></path>
    <path id="Path_18762" data-name="Path 18762" d="M8.744,26.7a3.968,3.968,0,0,1-1.417-.258,2.8,2.8,0,0,1-.54-.264c-.1-.063-.146-.1-.241-.161a2.3,2.3,0,0,1-.243-.193A4.226,4.226,0,0,1,5.25,24.434a3.43,3.43,0,0,1-.225-.613V18.73c0-.226,1.173-.691,1.411-.767a5.055,5.055,0,0,1,4.506.479l.574.5a4.808,4.808,0,0,1,.843,1.267,5.078,5.078,0,0,1,.038,3.915l-.156.346a4.448,4.448,0,0,1-1.176,1.437,3.792,3.792,0,0,1-2.32.8ZM-.3.677V30.32a.847.847,0,0,0,.771.77H2.345c.6,0,.779-.8.9-1.173.038-.111.072-.206.108-.327a3.614,3.614,0,0,0,.194-.677l.242.227.2.2.651.555a8.292,8.292,0,0,0,1.224.786,8.068,8.068,0,0,0,2.812.84l.765.039a9.33,9.33,0,0,0,2.422-.394,8.4,8.4,0,0,0,2.174-1.076,10.86,10.86,0,0,0,.891-.717,9.016,9.016,0,0,0,2.517-3.949c.069-.207.128-.39.186-.618a10.529,10.529,0,0,0-1.029-7.841,8.156,8.156,0,0,0-1.2-1.576l-.268-.268a7.659,7.659,0,0,0-1.593-1.187,8.7,8.7,0,0,0-1.938-.809,9.507,9.507,0,0,0-5.053.03,9.861,9.861,0,0,0-1.358.451V.944A.973.973,0,0,0,5,.232a.855.855,0,0,0-.612-.326H.468A.853.853,0,0,0-.3.677Z" transform="translate(0.302 0.094)" fill="#fff" fill-rule="evenodd"></path>
    <path id="Path_18763" data-name="Path 18763" d="M199830.844,131628.125l-.516-1.406c-.172-.516-.359-.891-1.031-.891h-1.516a.908.908,0,0,0-.922.938v16a.891.891,0,0,0,.813.938h3.609c1,0,.906-.719.906-1.25v-9.766c0-.766-.047-.641.453-1.25a3.921,3.921,0,0,1,.531-.469c.109-.078.219-.156.344-.234a3.314,3.314,0,0,1,3.016-.219c.563.2.875.078,1.219-.547l1.609-2.781v15.188a1.49,1.49,0,0,0,.156.922.788.788,0,0,0,.7.406h3.719a.7.7,0,0,0,.375-.094l.25-.219a.864.864,0,0,0,.25-.687v-15.828a1.505,1.505,0,0,0-.062-.422.965.965,0,0,0-.906-.625h-3.516a.986.986,0,0,0-.641.219.77.77,0,0,0-.3.563c-.016,0-.016-.031-.016-.031l-.016-.031a1.663,1.663,0,0,0-.547-.547,7.084,7.084,0,0,0-3.828-.516c-.125.016-.25.047-.391.063a5.606,5.606,0,0,0-2.3,1.094c-.219.172-.359.328-.547.453a11.714,11.714,0,0,0-.906,1.031Z" transform="translate(-199807.281 -131612.516)" fill="#fff" fill-rule="evenodd"></path>
    <path id="Path_18764" data-name="Path 18764" d="M779128.125,131680.078a3.027,3.027,0,0,1,2.313.906c.125.156.25.25.375.406a3.363,3.363,0,0,1,.688,1.656h-6.687a3.758,3.758,0,0,1,.625-1.625,3.8,3.8,0,0,1,2.688-1.344Zm-8.875,4.859v.734a15.574,15.574,0,0,0,.563,2.969,9.411,9.411,0,0,0,2.438,3.688,9.462,9.462,0,0,0,4.125,2.109,7.586,7.586,0,0,0,1.563.2,4.009,4.009,0,0,0,.75,0c.25-.031.563,0,.75-.031a9.653,9.653,0,0,0,2.938-.687,7.907,7.907,0,0,0,1.438-.766c.375-.234,1.625-.984,1.625-1.531,0-.328-.312-.625-.562-.859l-1.562-1.844c-.687-.609-1.187.125-2.312.578a5.032,5.032,0,0,1-4.187.141,4.062,4.062,0,0,1-2-1.922,3.748,3.748,0,0,1-.437-1.531h11.375c.875,0,.875-.859.938-1.5a3.6,3.6,0,0,0,0-.828c-.062-.109,0-.2,0-.312a9.085,9.085,0,0,0-.687-2.922,13.386,13.386,0,0,0-1.5-2.172,9.32,9.32,0,0,0-2.562-1.781c-.062-.016-.125-.047-.25-.078l-.625-.25c-.125-.047-.312-.094-.5-.141a8.959,8.959,0,0,0-3.187-.219l-.75.109a1.814,1.814,0,0,0-.25.047,9.072,9.072,0,0,0-2.5.938,6.581,6.581,0,0,0-1.25.953,5.25,5.25,0,0,0-1,.938,1.636,1.636,0,0,0-.125.172,7.233,7.233,0,0,0-1.312,2.109c-.125.25-.25.531-.375.8-.187.734-.25,1.094-.437,1.844v.5a1.48,1.48,0,0,0-.125.547Z" transform="translate(-779043 -131663.031)" fill="#fff" fill-rule="evenodd"></path>
    <path id="Path_18765" data-name="Path 18765" d="M955336,131703.469a4.4,4.4,0,0,0,1.313,3.453,6.772,6.772,0,0,0,1.375,1.3c1.75,1.094,4,1.641,4.875,2.516a1.024,1.024,0,0,1,.25,1.484c-.625.922-3,.266-3.625.063a6.574,6.574,0,0,1-1-.359c-.125-.078-.375-.141-.5-.219a.857.857,0,0,0-.625-.187.555.555,0,0,0-.625.594,3.535,3.535,0,0,1-.562.828,12.643,12.643,0,0,0-.75,1.672.949.949,0,0,0,.5.828,8.747,8.747,0,0,0,1.813.859c.375.109.625.234,1,.328.375.078.75.125,1,.188a8.5,8.5,0,0,0,1.25.141,4.188,4.188,0,0,1,.625.031,16.5,16.5,0,0,0,1.75-.141,6.69,6.69,0,0,0,2.938-1.031c.25-.094.25-.156.5-.266a7,7,0,0,0,.75-.766.956.956,0,0,0,.375-.562l.25-.391a4.36,4.36,0,0,0,.75-2.078,5.109,5.109,0,0,0-1.125-3.484l-.875-.781-1.125-.922-.875-.453c-.75-.359-1.437-.625-2.062-.922-.5-.172-1-.375-1.5-.578-.625-.312-1-.5-1-1.2,0-.609.75-.906,1.375-.906a7.7,7.7,0,0,1,3.188.688,2.116,2.116,0,0,1,.5.188c1.125.469,1.375-.375,1.625-1.156l.5-.844c.25-.531.5-1.047,0-1.609a1.981,1.981,0,0,0-.625-.422,8.6,8.6,0,0,0-1.375-.578,12.225,12.225,0,0,0-3.687-.547,13.547,13.547,0,0,0-1.375.094,7.205,7.205,0,0,0-1.125.234,11.911,11.911,0,0,0-1.625.672c-.25.188-.625.406-.875.625-.125.2-.562.563-.687.813a2.867,2.867,0,0,0-.5.938c0,.188-.125.328-.125.547A4.553,4.553,0,0,0,955336,131703.469Z" transform="translate(-955242.438 -131685.328)" fill="#fff" fill-rule="evenodd"></path>
    <path id="Path_18766" data-name="Path 18766" d="M323522.281,8987.1a3.141,3.141,0,0,0,1.469-.282,2.906,2.906,0,0,0,.938-.614,3.114,3.114,0,0,0-.937-5.022,3.072,3.072,0,0,0-4.062,1.5,3.3,3.3,0,0,0-.25,1.9c.063.191.125.424.188.594A3.167,3.167,0,0,0,323522.281,8987.1Z" transform="translate(-323487.719 -8980.031)" fill="#fff" fill-rule="evenodd"></path>
    <path id="Path_18767" data-name="Path 18767" d="M115997.547,401822.594h-1.133v-1.156c.828,0,1.742-.125,1.742.656C115998.156,401822.438,115997.844,401822.594,115997.547,401822.594Zm-.164-1.781h-.969v-1.062c.68,0,1.641-.156,1.641.5C115998.055,401820.656,115997.742,401820.813,115997.383,401820.813Zm-1.672,2.5c.781,0,2.18.094,2.719-.312a1.053,1.053,0,0,0-.336-1.906c.258-.156.664-.156.664-1a1,1,0,0,0-.477-.844,7.612,7.612,0,0,0-2.57-.187v4.25Z" transform="translate(-115984.352 -401779.75)" fill="#fff" fill-rule="evenodd"></path>
    <path id="Path_18768" data-name="Path 18768" d="M298325.156,413433.688c0-.469.625-.312.781-.312.281,0,.875,0,.875.313,0,.375-.687.344-.969.344S298325.156,413434,298325.156,413433.688Zm.188-2.281a.5.5,0,0,1,.531-.5.512.512,0,0,1,.656.438.543.543,0,0,1-.187.5c-.187.188-1,.281-1-.437Zm-.281.875c0,.031-.469.281-.281.656.031.25.094.219.125.219v.063c-.594.156-.844,1.344.813,1.344.656,0,1.75-.062,1.75-.906a.8.8,0,0,0-.219-.562c-.562-.531-1.875-.156-1.875-.5,0-.062.063-.062.125-.156a1.857,1.857,0,0,0,1.125-.094.987.987,0,0,0,.531-1c0-.156-.062-.156-.062-.344.188,0,.344-.062.531-.062,0-.594.094-.687-.375-.5l-.406.188a.733.733,0,0,0-.312-.156c-.906-.406-2.187.188-1.812,1.281C298324.813,413432.031,298324.938,413432.063,298325.063,413432.281Z" transform="translate(-298295.281 -413389.875)" fill="#fff" fill-rule="evenodd"></path>
    <path id="Path_18769" data-name="Path 18769" d="M219576.375,413571.406c-.359,0-1.016.063-1.016-.344a.3.3,0,0,1,.25-.312,3,3,0,0,1,.531,0c.344,0,.906,0,.906.313,0,.188-.141.219-.234.281A1.97,1.97,0,0,1,219576.375,413571.406Zm-.156-2.062c-.859,0-.7-.75-.5-.937.3-.25,1.016-.219,1.016.344C219576.734,413569.125,219576.563,413569.344,219576.219,413569.344Zm-1.359-.594a1.488,1.488,0,0,0,.141.563c.172.281.25.156.313.375-.344.094-.531.781-.172.813-.094.188-.172.125-.281.25-.328.375-.281,1.156,1.094,1.156.594,0,1.781,0,1.781-.906,0-1.219-2.125-.594-2.125-1,0-.094.031-.094.094-.156a4.188,4.188,0,0,0,.625.031c1.016-.187,1.3-.937.984-1.5.188,0,.344-.062.516-.062v-.625c-.094.063-.281.063-.406.125a1.031,1.031,0,0,0-.344.188,1.416,1.416,0,0,0-1.062-.312A1.137,1.137,0,0,0,219574.859,413568.75Z" transform="translate(-219553.188 -413527.219)" fill="#fff" fill-rule="evenodd"></path>
    <path id="Path_18770" data-name="Path 18770" d="M282549.375,359865.063c0-.531.5-.375.781-.375,1.625.031.969.906-.437.594C282549.563,359865.25,282549.375,359865.156,282549.375,359865.063Zm.969-1.812c-.469,0-.719.063-.719-.594,0-.5,1.063-.687,1.156.031,0,.281-.125.563-.437.563Zm-1.406-.562a.84.84,0,0,0,.125.563c.094.156.219.219.313.344a.557.557,0,0,0-.25.875h.031v.031h.031c-.531.156-1.125,1.406,1.094,1.406a2.588,2.588,0,0,0,.938-.219.767.767,0,0,0,.5-.75c0-.5-.344-.656-.781-.75-.469-.125-1.281.031-1.281-.281,0-.094.063-.094.125-.187a.91.91,0,0,0,.563.094,1.083,1.083,0,0,0,1.063-.906c0-.531.031-.25-.062-.562a1.01,1.01,0,0,1,.531-.094v-.594a1.571,1.571,0,0,0-.781.281,1.421,1.421,0,0,0-.875-.312c-.656,0-1.281.344-1.281,1.063Z" transform="translate(-282521.031 -359826.406)" fill="#fff" fill-rule="evenodd"></path>
    <path id="Path_18771" data-name="Path 18771" d="M19161.4,347632.781a2.1,2.1,0,0,0,1.023,2.094,1.852,1.852,0,0,0,1.961-.187,1.776,1.776,0,0,0,.533-1.062,4.875,4.875,0,0,0-.67-.125c-.061.125-.062.188-.123.313a.8.8,0,0,1-.447.469,1.3,1.3,0,0,1-.5.063c-1.16,0-1.221-1.844-.785-2.531a1.05,1.05,0,0,1,1.482-.219,1.833,1.833,0,0,1,.309.625,2.577,2.577,0,0,0,.705-.156c-.039-.156-.066-.25-.1-.375-.039-.094-.086-.156-.139-.281C19163.945,347630.188,19161.4,347630.406,19161.4,347632.781Z" transform="translate(-19159.523 -347596.656)" fill="#fff" fill-rule="evenodd"></path>
    <path id="Path_18772" data-name="Path 18772" d="M346276.938,401892.25h-.219c-.156,0-.531-.219-.531-.375v-1.125c0-.094.156-.219.25-.25.469-.312,1.094-.125,1.094.719C346277.531,401891.656,346277.531,401892.25,346276.938,401892.25Zm-1.469.563c.813,0,.719.063.719-.281a1.1,1.1,0,0,0,.875.281c1.719,0,1.563-3.094.125-3.094-.625,0-.562.063-1,.406v-1.219c0-.375.094-.281-.719-.281Z" transform="translate(-346241.531 -401849.313)" fill="#fff" fill-rule="evenodd"></path>
    <path id="Path_18773" data-name="Path 18773" d="M187712.641,401901.844a1.479,1.479,0,0,1,.2-1,.8.8,0,0,1,1.188.188v1.094a.8.8,0,0,1-1.187.219A.916.916,0,0,1,187712.641,401901.844Zm1.391-1.531c-.406-.187-.328-.281-.937-.281a1.011,1.011,0,0,0-.844.438,2.146,2.146,0,0,0-.031,2.281,1.21,1.21,0,0,0,1.453.281c.172-.094.234-.25.375-.25,0,.406-.016.344.734.344.141,0,.047-.062.031-.375-.062-.406-.031-2.781-.031-3.375,0-.562.109-.469-.656-.469-.172,0-.094.344-.094.625v.781Z" transform="translate(-187693.531 -401859.563)" fill="#fff" fill-rule="evenodd"></path>
    <path id="Path_18774" data-name="Path 18774" d="M485881.5,413498.438c.469,0,.75.219.75.656h-1.375C485880.938,413498.75,485881.125,413498.438,485881.5,413498.438Zm-1.344.875a1.551,1.551,0,0,0,.813,1.594,1.764,1.764,0,0,0,1.906-.437l-.375-.406a1.147,1.147,0,0,1-.875.344.682.682,0,0,1-.75-.719h1.969c.156,0,.125-.125.094-.25a2.074,2.074,0,0,1-.031-.406c-.031-.219-.156-.437-.187-.625a1.427,1.427,0,0,0-2.562.906Z" transform="translate(-485832.594 -413457.406)" fill="#fff" fill-rule="evenodd"></path>
    <path id="Path_18775" data-name="Path 18775" d="M155688.25,359898.406a.617.617,0,0,1,.609.406,2.239,2.239,0,0,1,.078.313h-1.375c.078-.187.078-.469.422-.594C155688.016,359898.469,155688.219,359898.406,155688.25,359898.406Zm-1.406,1.031c0,1.938,2.188,1.781,2.734,1l-.406-.375a1.147,1.147,0,0,1-.984.344c-.594-.125-.719-.719-.516-.719h1.938a2.206,2.206,0,0,0-.3-1.344A1.407,1.407,0,0,0,155686.844,359899.438Z" transform="translate(-155671.594 -359862.594)" fill="#fff" fill-rule="evenodd"></path>
    <path id="Path_18776" data-name="Path 18776" d="M513597.094,359862.156a.617.617,0,0,1,.688.656h-1.375A.793.793,0,0,1,513597.094,359862.156Zm-1.375.813a2,2,0,0,0,.375,1.344,1.706,1.706,0,0,0,2.219-.031l.063-.062h.063c0-.156-.25-.406-.375-.469a1.088,1.088,0,0,1-.969.375.75.75,0,0,1-.687-.75h2.094c0-.937-.312-1.812-1.344-1.812a1.408,1.408,0,0,0-1.437,1.406Z" transform="translate(-513545.438 -359826.313)" fill="#fff" fill-rule="evenodd"></path>
    <path id="Path_18777" data-name="Path 18777" d="M57485.23,359926.531c0-1.375,1.473-1.219,1.473-.125a1.26,1.26,0,0,1-.172.781C57486.215,359927.656,57485.23,359927.656,57485.23,359926.531Zm-.734-.031a2.618,2.618,0,0,0,.094.625,1.225,1.225,0,0,0,.734.813,1.477,1.477,0,0,0,2.121-1.375v-.156a1.5,1.5,0,0,0-2.547-1.062A1.721,1.721,0,0,0,57484.5,359926.5Z" transform="translate(-57478.863 -359889.688)" fill="#fff" fill-rule="evenodd"></path>
    <path id="Path_18778" data-name="Path 18778" d="M357909.938,359863.188c0-1.25,1.469-1.156,1.469-.094a1.227,1.227,0,0,1-.25.906C357910.844,359864.344,357909.938,359864.281,357909.938,359863.188Zm-.719,0a2.224,2.224,0,0,0,.125.656,1.456,1.456,0,0,0,2.656.188,1.607,1.607,0,0,0-1.344-2.406,2.018,2.018,0,0,0-.594.125,1.529,1.529,0,0,0-.844,1.438Z" transform="translate(-357874.156 -359826.406)" fill="#fff" fill-rule="evenodd"></path>
    <path id="Path_18779" data-name="Path 18779" d="M268604.031,413567.656v-.312h-.719v3h.719v-2c0-.281,1.188-.781,1.25-.125v1.844c-.031.344-.125.281.719.281v-2.281a.8.8,0,0,0-.781-.812,1.72,1.72,0,0,0-1.187.406Z" transform="translate(-268577 -413526.813)" fill="#fff" fill-rule="evenodd"></path>
    <path id="Path_18780" data-name="Path 18780" d="M252863.953,359901.625v-.312c-.437,0-.719-.062-.719.094v2.906h.719v-1.969c0-.375,1.234-.875,1.234,0v1.969h.766v-2.125a.955.955,0,0,0-.234-.656c-.3-.469-1.125-.312-1.547-.031A1.359,1.359,0,0,1,252863.953,359901.625Z" transform="translate(-252838.469 -359866)" fill="#fff" fill-rule="evenodd"></path>
    <path id="Path_18781" data-name="Path 18781" d="M424974.906,359901.375v-.344h-.719v3.031h.719v-2c0-.187,0-.031.063-.125l.281-.187c.344-.219.938-.312.938.375v1.938h.719v-2.094a.912.912,0,0,0-.219-.687c-.312-.469-1.094-.344-1.531-.031C424975.063,359901.281,424975.031,359901.344,424974.906,359901.375Z" transform="translate(-424932.563 -359865.719)" fill="#fff" fill-rule="evenodd"></path>
    <path id="Path_18782" data-name="Path 18782" d="M454744.063,413567.656v-.312h-.75v3c.875,0,.75.094.75-.437v-1.687a1.9,1.9,0,0,1,.313-.219l.188-.094c.281-.062.719-.062.719.438v2c.469,0,.719.063.719-.094v-2.125a.817.817,0,0,0-.781-.875,1.367,1.367,0,0,0-1.156.406Z" transform="translate(-454698.75 -413526.813)" fill="#fff" fill-rule="evenodd"></path>
    <path id="Path_18783" data-name="Path 18783" d="M391784,360412.625c0,1.25,1.219,1.125,1.781.75.094-.062.156-.125.25-.187v.344c.438,0,.688.094.688-.062v-2.844c0-.125-.25-.094-.687-.094v2.031c0,.125-.5.406-.687.406-.281,0-.594.063-.594-.469v-1.969h-.75v2.094Z" transform="translate(-391745.625 -360375.25)" fill="#fff" fill-rule="evenodd"></path>
    <path id="Path_18784" data-name="Path 18784" d="M124550.023,359893.406v-.375h-.742v3.031h.742v-2.031c0-.125.07-.125.125-.187.508-.312,1.078-.344,1.078.063v2.156h.734v-2.344a.673.673,0,0,0-.148-.406c-.352-.5-1.141-.375-1.562-.094a2.032,2.032,0,0,1-.227.188Z" transform="translate(-124537.086 -359857.75)" fill="#fff" fill-rule="evenodd"></path>
    <path id="Path_18785" data-name="Path 18785" d="M91702.156,359862.5v-.375h-.742v3.031h.742v-2.031c0-.156.461-.437.836-.437a.423.423,0,0,1,.367.375v2.094h.734v-2.375a.822.822,0,0,0-.867-.719A1.709,1.709,0,0,0,91702.156,359862.5Z" transform="translate(-91692.438 -359826.844)" fill="#fff" fill-rule="evenodd"></path>
    <path id="Path_18786" data-name="Path 18786" d="M379123.938,414254.344a.817.817,0,0,0,.281.563,1.118,1.118,0,0,0,1.438.063.474.474,0,0,1,.25-.125c0,.375-.125.313.75.313v-3h-.75v2.125c-.187.063-.25.313-.812.313a.413.413,0,0,1-.375-.437v-2h-.781Z" transform="translate(-379086.844 -414211.625)" fill="#fff" fill-rule="evenodd"></path>
    <path id="Path_18787" data-name="Path 18787" d="M410260.469,413526.531c0,.625.438.844,1,.938a1.973,1.973,0,0,1,.688.25c.281.25-.031.5-.312.5a1.471,1.471,0,0,1-1.094-.312l-.406.438c.344.438,1.875.781,2.438.063a.934.934,0,0,0-.062-1.156c-.5-.406-1.594-.312-1.594-.719,0-.375.719-.312,1.063-.156a.8.8,0,0,1,.313.219l.344-.5c-.437-.625-2.375-.656-2.375.438Z" transform="translate(-410220.188 -413485.219)" fill="#fff" fill-rule="evenodd"></path>
    <path id="Path_18788" data-name="Path 18788" d="M543022.313,413399.75c0,.844.563.875,1.375,1.094.75.219.5.656,0,.656a1.415,1.415,0,0,1-1.062-.344,1.384,1.384,0,0,0-.375.469,2.028,2.028,0,0,0,2.25.25.906.906,0,0,0-.062-1.531c-.562-.219-1.5-.187-1.375-.562.063-.375.625-.25.875-.187.25.094.313.219.5.25.063-.156.313-.281.313-.5a2.132,2.132,0,0,0-1.875-.312C543022.688,413399.125,543022.313,413399.406,543022.313,413399.75Z" transform="translate(-542969.125 -413358.469)" fill="#fff" fill-rule="evenodd"></path>
    <path id="Path_18789" data-name="Path 18789" d="M515307.469,413544.719v.219c0,.969,1.75.75,1.75,1.219,0,.344-.406.344-.687.344a1.737,1.737,0,0,1-.812-.344l-.406.406a1.272,1.272,0,0,0,.531.375,1.784,1.784,0,0,0,1.781-.187.857.857,0,0,0-.406-1.469c-.375-.094-1.125-.156-1.125-.469,0-.406.688-.344,1.031-.156.156.031.219.156.344.156a1.792,1.792,0,0,1,.125-.219.42.42,0,0,0,.188-.219,1.755,1.755,0,0,0-1.062-.469,1.29,1.29,0,0,0-.687.125.589.589,0,0,0-.281.125A.709.709,0,0,0,515307.469,413544.719Z" transform="translate(-515256.875 -413503.438)" fill="#fff" fill-rule="evenodd"></path>
    <path id="Path_18790" data-name="Path 18790" d="M543022.5,359933.25c0,1.281,1.75.844,1.75,1.375,0,.281-.187.375-.625.375-.5,0-.75-.344-.875-.344s-.062.063-.187.188c-.062.063-.125.156-.187.188.375.656,2.375.781,2.625-.125.188-.812-.312-1.094-1-1.187a4.216,4.216,0,0,1-.75-.25c-.312-.312.313-.656.875-.375a3.472,3.472,0,0,0,.5.219,2.319,2.319,0,0,0,.25-.469.953.953,0,0,0-.562-.312c-.75-.281-1.812-.062-1.812.719Z" transform="translate(-542969.25 -359897.188)" fill="#fff" fill-rule="evenodd"></path>
    <path id="Path_18791" data-name="Path 18791" d="M186481.656,359863.438a1.774,1.774,0,0,0,.438,1.469,1.487,1.487,0,0,0,1.828.094,1.347,1.347,0,0,0,.453-.625c-.125-.062-.516-.156-.641-.219-.062.719-1.328.719-1.328-.281,0-.594.016-1.156.766-1.156.469,0,.5.5.594.5a2.192,2.192,0,0,0,.609-.219c-.25-.437-.437-.875-1.281-.875a1.688,1.688,0,0,0-1,.375,1.367,1.367,0,0,0-.3.406A3.338,3.338,0,0,0,186481.656,359863.438Z" transform="translate(-186463.406 -359826.906)" fill="#fff" fill-rule="evenodd"></path>
    <path id="Path_18792" data-name="Path 18792" d="M328824.813,359836.844c0,.688.156,1.313.813,1.563a1.392,1.392,0,0,0,1.469-.125,2.245,2.245,0,0,0,.438-.625c-.062,0-.5-.187-.531-.187-.156,0-.094.188-.281.313-.219.25-1.156.438-1.156-.875,0-.375.25-.812.625-.812.313,0,.625,0,.719.438a2.074,2.074,0,0,0,.625-.187.713.713,0,0,0-.187-.375,1.244,1.244,0,0,0-1.625-.406,1.341,1.341,0,0,0-.906,1.281Z" transform="translate(-328792.594 -359800.188)" fill="#fff" fill-rule="evenodd"></path>
    <path id="Path_18793" data-name="Path 18793" d="M455002.125,349806v.906h-.5c0,.719-.125.625.5.625a6.618,6.618,0,0,0,.156,2.125c.219.406.75.313,1.219.313.156,0,.094-.187.094-.594-.125,0-.5.125-.625-.062a.447.447,0,0,1-.094-.312v-1.469c.906,0,.719.125.719-.625h-.719v-1C455002.438,349805.906,455002.125,349805.844,455002.125,349806Z" transform="translate(-454957.063 -349771.625)" fill="#fff" fill-rule="evenodd"></path>
    <path id="Path_18794" data-name="Path 18794" d="M214799.141,349942.75h-.5c0,.688-.109.563.5.563a6.675,6.675,0,0,0,.156,2.281c.25.25.875.219,1.234.219.141,0,.078-.219.078-.656-.891.125-.719-.031-.719-1.844.906,0,.766.188.766-.562h-.766v-1.062h-.75Z" transform="translate(-214777.609 -349907.406)" fill="#fff" fill-rule="evenodd"></path>
    <path id="Path_18795" data-name="Path 18795" d="M479380.031,359862.438v-.437h-.75v3.031h.75v-1.812a.416.416,0,0,1,.094-.25,1.14,1.14,0,0,1,1-.344c0-.156.094-.687,0-.687a1.062,1.062,0,0,0-.687.188A.838.838,0,0,0,479380.031,359862.438Z" transform="translate(-479332.375 -359826.719)" fill="#fff" fill-rule="evenodd"></path>
    <path id="Path_18796" data-name="Path 18796" d="M153635.047,413568.469v-.469h-.75v3.031c.906,0,.75.188.75-.75v-1a.6.6,0,0,1,.359-.562c.75-.344.719.406.719-.781a.969.969,0,0,0-.719.188,1.359,1.359,0,0,0-.219.125C153635.094,413568.344,153635.125,413568.375,153635.047,413568.469Z" transform="translate(-153619.266 -413527.469)" fill="#fff" fill-rule="evenodd"></path>
    <path id="Path_18797" data-name="Path 18797" d="M441056,414254.969h.719v-3h-.719Z" transform="translate(-441012.813 -414211.438)" fill="#fff" fill-rule="evenodd"></path>
    <path id="Path_18798" data-name="Path 18798" d="M501620,360549h.75v-3.031h-.75Z" transform="translate(-501570.875 -360510.688)" fill="#fff" fill-rule="evenodd"></path>
    <path id="Path_18799" data-name="Path 18799" d="M239518,360549h.734v-3.031h-.734Z" transform="translate(-239494.563 -360510.688)" fill="#fff" fill-rule="evenodd"></path>
    <path id="Path_18800" data-name="Path 18800" d="M254915.953,414254.563c0,.031.016.094.109.094h.656v-3.031h-.766v2.938Z" transform="translate(-254890.984 -414211.094)" fill="#fff" fill-rule="evenodd"></path>
    <path id="Path_18801" data-name="Path 18801" d="M175875,414254.344h.641a.088.088,0,0,0,.094-.094v-2.937h-.734Z" transform="translate(-175857.766 -414210.781)" fill="#fff" fill-rule="evenodd"></path>
    <path id="Path_18802" data-name="Path 18802" d="M573133,437171.781h.813v-.781h-.812Z" transform="translate(-573076.875 -437128.219)" fill="#fff" fill-rule="evenodd"></path>
    <path id="Path_18803" data-name="Path 18803" d="M573133,383465.781h.813v-.781h-.812Z" transform="translate(-573076.875 -383427.469)" fill="#fff" fill-rule="evenodd"></path>
    <path id="Path_18804" data-name="Path 18804" d="M239079.391,348796.938c0,.688-.141.594.672.594.141,0,.094-.25.094-.594,0-.156-.234-.094-.656-.094C239079.422,348796.844,239079.391,348796.875,239079.391,348796.938Z" transform="translate(-239055.969 -348762.688)" fill="#fff" fill-rule="evenodd"></path>
    <path id="Path_18805" data-name="Path 18805" d="M501620,348805.375v.594c.906,0,.75.094.75-.594,0-.125-.25-.094-.625-.094C501620.063,348805.281,501620,348805.313,501620,348805.375Z" transform="translate(-501570.875 -348771.125)" fill="#fff" fill-rule="evenodd"></path>
    <path id="Path_18806" data-name="Path 18806" d="M175433.781,402476.719c0,.719-.156.594.766.594v-.687c-.469,0-.766-.062-.766.094Z" transform="translate(-175416.594 -402437.25)" fill="#fff" fill-rule="evenodd"></path>
    <path id="Path_18807" data-name="Path 18807" d="M254915.953,402478.25c.938,0,.781.125.781-.5,0-.156-.3-.125-.781-.125v.625Z" transform="translate(-254890.984 -402438.25)" fill="#fff" fill-rule="evenodd"></path>
    <path id="Path_18808" data-name="Path 18808" d="M441056,402621.656h.719v-.656h-.719Z" transform="translate(-441012.813 -402581.594)" fill="#fff" fill-rule="evenodd"></path>
  </g>
</svg>
