<?xml version="1.0" encoding="UTF-8"?>
<svg xmlns="http://www.w3.org/2000/svg" id="CNBC-Arabic-01" viewBox="0 0 45.034 41.568">
  <g id="Group_9342" data-name="Group 9342" transform="translate(0)">
    <path id="Path_18717" data-name="Path 18717" d="M140.831,158.018a5.233,5.233,0,0,0,5.3-5.348c0-3.466-2.947-5.376-5.833-5.376a5.862,5.862,0,0,0,2.26-4.508,5.332,5.332,0,0,0-5.354-5.224,5.162,5.162,0,0,0-3.742,1.567,5.341,5.341,0,0,0,.541-2.237,5.249,5.249,0,0,0-5.286-5.19,5.082,5.082,0,0,0-5.1,3.922,5.089,5.089,0,0,0-5.106-3.922,5.135,5.135,0,0,0-4.745,7.428,5.171,5.171,0,0,0-3.742-1.567,5.336,5.336,0,0,0-5.354,5.224,5.862,5.862,0,0,0,2.26,4.508c-2.885,0-5.833,1.91-5.833,5.376a5.233,5.233,0,0,0,5.3,5.348Z" transform="translate(-101.1 -131.7)" fill="#fff"></path>
    <path id="Path_18718" data-name="Path 18718" d="M556.083,431.479H541.2L553.457,423a4.729,4.729,0,0,1,.513-.3,4.646,4.646,0,0,1,4.221,8.279,4.727,4.727,0,0,1-2.108.5" transform="translate(-516.398 -405.82)" fill="#0daf4b"></path>
    <path id="Path_18719" data-name="Path 18719" d="M559.925,250.322,553.5,265.1l13.244-9.163a4.455,4.455,0,0,0,.795-.7,4.589,4.589,0,0,0-6.819-6.143,4.368,4.368,0,0,0-.794,1.229" transform="translate(-528.005 -241.046)" fill="#0087cd"></path>
    <path id="Path_18720" data-name="Path 18720" d="M517.456,149.507a4.645,4.645,0,1,0-8.9-2.294,4.3,4.3,0,0,0-.017.761h-.006c0,.079.034.113.118.113h1.234c.254,0,.626.073.626.271,0,.152-.671.293-1.082.693a2.243,2.243,0,0,0-.53,1.882h0l2.063,13.9Z" transform="translate(-485.57 -142.412)" fill="#645fa8"></path>
    <path id="Path_18721" data-name="Path 18721" d="M118.123,431.384h14.883L120.744,422.9a4.719,4.719,0,0,0-.513-.3,4.646,4.646,0,1,0-2.108,8.786" transform="translate(-112.775 -405.726)" fill="#fbb713"></path>
    <path id="Path_18722" data-name="Path 18722" d="M186.569,250.322l6.425,14.782L179.75,255.94a4.451,4.451,0,0,1-.795-.7,4.589,4.589,0,0,1,6.819-6.143,4.5,4.5,0,0,1,.795,1.229" transform="translate(-173.455 -241.046)" fill="#f16f21"></path>
    <path id="Path_18723" data-name="Path 18723" d="M337.02,147.969l-2.435,16.862L328.1,149.507A4.643,4.643,0,1,1,337,147.214a3.752,3.752,0,0,1,.022.755" transform="translate(-314.963 -142.412)" fill="#c7234a"></path>
    <path id="Path_18724" data-name="Path 18724" d="M119.151,616.239c.716.068,1.358.271,1.516,1.054h3.291c-.011-1.679-2.243-2.406-4.57-2.463-4.176-.1-6.272,1.46-6.363,3.68-.13,3.111,2.575,3.7,5.731,3.7,1.527,0,5.021-.5,5.151-2.575h-3.269c0,.7-1.155,1.121-1.572,1.121-2.271,0-2.637-1.026-2.637-2.271a2.22,2.22,0,0,1,2.722-2.243" transform="translate(-112.349 -587.599)" fill="#fff"></path>
    <path id="Path_18725" data-name="Path 18725" d="M699.666,620.753c-2.271,0-2.637-1.026-2.637-2.271a2.223,2.223,0,0,1,2.722-2.243c.716.068,1.358.271,1.516,1.054h3.291c-.011-1.679-2.243-2.406-4.57-2.463-4.17-.1-6.272,1.46-6.363,3.68-.13,3.111,2.575,3.7,5.731,3.7,1.527,0,5.016-.5,5.151-2.575h-3.269c.006.7-1.155,1.121-1.572,1.121" transform="translate(-660.229 -587.599)" fill="#fff"></path>
    <path id="Path_18726" data-name="Path 18726" d="M325.39,622.672h-.028l-3.624-5.072H317.5v7.039h2.716v-5.066h.034l3.793,5.066h4.063V617.6H325.39Z" transform="translate(-305.305 -590.217)" fill="#fff"></path>
    <path id="Path_18727" data-name="Path 18727" d="M527.718,620.959v-.023c1.358-.225,1.967-.986,1.967-1.6,0-1.043-1.454-1.736-3.934-1.736H520.6v7.039h5.168c2.773,0,4.187-.693,4.187-1.933,0-.62-.6-1.651-2.237-1.747m-4.137-2.051h1.1c1.184,0,1.764.2,1.764.778,0,.547-.7.648-2.012.648h-.851v-1.426Zm.857,4.255h-.851v-1.493h1.1c1.183,0,1.922.2,1.922.783-.011.547-.592.71-2.175.71" transform="translate(-496.959 -590.217)" fill="#fff"></path>
    <path id="Path_18728" data-name="Path 18728" d="M584.908,777.123h2.637V776.3h-2.671c-1.336,0-1.995.569-1.995,1.493a1.111,1.111,0,0,0,.287.828h-4.277v-1.775h-1.054v3.511c0,.271-.141.361-.468.361H576.9v.823h.7a1.579,1.579,0,0,0,1-.225.859.859,0,0,0,.293-.778v-1.093h8.651v-.823h-2.637c-1.217.006-1.2-1.5,0-1.5" transform="translate(-550.086 -739.973)" fill="#0daf4b"></path>
    <path id="Path_18729" data-name="Path 18729" d="M253.558,772.588H247.77v-1.775h-1.054v1.775h-6.007l.006-2.688h-1.059v.823H237.2c-1.313,0-1.8.53-1.8,1.4s.693,1.291,1.8,1.291h2.175a1.838,1.838,0,0,1,.282-.147,1.606,1.606,0,0,1,.282.147h14.681v-2.6h-1.054v1.775Zm-13.909,0h-2.108c-.682,0-1.009-.124-1.009-.507,0-.417.327-.541,1.009-.541h2.108Z" transform="translate(-227.831 -733.934)" fill="#0daf4b"></path>
    <path id="Path_18730" data-name="Path 18730" d="M559.649,839.4a.349.349,0,1,0,.349.349.348.348,0,0,0-.349-.349" transform="translate(-533.478 -799.517)" fill="#0daf4b"></path>
    <path id="Path_18731" data-name="Path 18731" d="M447.449,839.4a.349.349,0,1,0,.349.349.351.351,0,0,0-.349-.349" transform="translate(-427.601 -799.517)" fill="#0daf4b"></path>
    <path id="Path_18732" data-name="Path 18732" d="M431.749,839.4a.349.349,0,1,0,.349.349.348.348,0,0,0-.349-.349" transform="translate(-412.786 -799.517)" fill="#0daf4b"></path>
    <path id="Path_18733" data-name="Path 18733" d="M285.549,767.9a.349.349,0,1,0-.349-.349.355.355,0,0,0,.349.349" transform="translate(-274.825 -731.386)" fill="#0daf4b"></path>
    <path id="Path_18734" data-name="Path 18734" d="M269.849,767.9a.349.349,0,1,0-.349-.349.351.351,0,0,0,.349.349" transform="translate(-260.01 -731.386)" fill="#0daf4b"></path>
  </g>
</svg>
