<?xml version="1.0" encoding="UTF-8"?>
<svg xmlns="http://www.w3.org/2000/svg" xmlns:xlink="http://www.w3.org/1999/xlink" viewBox="0 0 107.496 28.942">
  <defs>
    <clipPath id="clip-path">
      <rect id="Rectangle_36012" data-name="Rectangle 36012" width="2" height="1" transform="translate(-884.4 5952)" fill="#fff" stroke="#707070" stroke-width="1"></rect>
    </clipPath>
  </defs>
  <g id="Group_17705" data-name="Group 17705" transform="translate(971.138 -5976.3)">
    <g id="Group_9385" data-name="Group 9385" transform="translate(-971.138 5977.607)">
      <path id="Path_22094" data-name="Path 22094" d="M22.007,9.151l-1.288.4c-1.092-3.886-3-6.106-6.321-6.106H10.067a100.612,100.612,0,0,0-.234,10.9l2.887-.159c1.951,0,2.77-1.467,3.238-3.608h1.093v9H15.959c-.468-2.18-1.287-3.647-3.238-3.766l-2.887-.04c0,3.211.039,5.947.234,7.612.195,2.379.819,3.45,2.5,3.687l1.561.159v1.031H0V27.23l1.171-.159c1.639-.237,2.3-1.308,2.5-3.687a133.489,133.489,0,0,0,0-16.771c-.2-2.458-.859-3.449-2.5-3.648L0,2.767V1.7H21.968Z" transform="translate(0 -1.142)" fill="#fff"></path>
      <path id="Path_22095" data-name="Path 22095" d="M130.662,28.96c-2.536-1.745-5.268-.991-5.814,0a72.955,72.955,0,0,0,.039,10.149c.117,1.586.546,2.26,1.717,2.379l1.561.158v1.031H116.537V41.647l.9-.158c1.131-.119,1.521-.793,1.6-2.379a63.985,63.985,0,0,0,0-10.942c-.078-1.705-.468-2.339-1.6-2.5l-.9-.119v-.713l8.311-1.666-.117,4.441c1.951-4.6,5.814-5.154,7.921-3.925Z" transform="translate(-78.416 -15.559)" fill="#fff"></path>
      <path id="Path_22096" data-name="Path 22096" d="M77.408,17.564c0,5.551-3.512,10.071-9.794,10.071-6.165,0-9.287-4.283-9.287-9.912,0-5.511,3.512-10.111,9.794-10.111,6.165,0,9.286,4.322,9.286,9.952m-13.189.079c0,4.837,1.249,8.8,3.785,8.8,2.731,0,3.512-3.885,3.512-8.8s-1.21-8.762-3.785-8.762c-2.731,0-3.512,3.766-3.512,8.762m48.228-.714c0,6.5-3.941,10.705-10.614,10.705a30.633,30.633,0,0,1-6.984-.912c.195-2.617.195-18.793,0-21.846-.195-1.586-.625-2.34-1.795-2.5l-.78-.079V1.586L100.507,0c-.039,1.348-.117,4.877-.117,9.04a9.22,9.22,0,0,1,4.565-1.189c4.292,0,7.492,3.806,7.492,9.079m-5.775.317c-.117-4.123-1.561-7.374-4.331-7.374a5.333,5.333,0,0,0-1.951.4c0,6.582.078,14.035.234,15.819a4.606,4.606,0,0,0,1.4.2c2.692,0,4.643-3.965,4.643-9.04M123.49,7.612c5.189,0,7.687,3.965,7.725,9.159H119.549c-.039,4.6,2.3,8.088,6.673,8.088a6.265,6.265,0,0,0,4.175-1.427l.546.634a9.15,9.15,0,0,1-7.491,3.569c-5.7,0-9.638-4.084-9.638-9.833,0-5.194,3.238-10.19,9.677-10.19m1.951,7.652c.117-2.617-.39-6.383-2.458-6.383-2.107,0-3.278,3.529-3.317,6.542Z" transform="translate(-39.248 0)" fill="#fff"></path>
      <path id="Path_22097" data-name="Path 22097" d="M297.342,29.179l-.975.277c-.937-3.331-2.5-4.758-4.722-4.758a2.562,2.562,0,0,0-2.653,2.776c0,1.625,1.288,2.5,4.76,3.965,3.2,1.229,4.527,2.735,4.527,5.352,0,4-3,6.5-7.96,6.5a19.283,19.283,0,0,1-6.594-1.19l-.2-5.55.937-.2c1.4,3.806,3.2,5.234,5.541,5.234a2.912,2.912,0,0,0,3.082-2.974c0-1.506-.819-2.379-3.98-3.568-3-1.03-5.072-2.379-5.072-5.709,0-3.29,2.77-6.066,7.491-6.066a13.658,13.658,0,0,1,5.58,1.031Z" transform="translate(-190.782 -15.659)" fill="#fff"></path>
    </g>
    <path id="Path_31063" data-name="Path 31063" d="M4.666-4.986h.455V-.22H4.613V-3.761L3.066-.22H2.678L1.118-3.734,1.125-.22H.616V-4.986h.455L2.879-.876ZM6.3-.22V-4.986H9.313v.455H6.842v1.66H9.179v.462H6.842V-.675h2.47V-.22Zm5.784-2.437L13.9-.22h-.649L11.77-2.242,10.3-.22H9.641l1.814-2.444L9.728-4.986h.656l1.393,1.915,1.393-1.915h.649ZM14.541-.22V-4.986h.549V-.22ZM18.3-.166a2.268,2.268,0,0,1-1.175-.295,1.938,1.938,0,0,1-.767-.847,2.955,2.955,0,0,1-.268-1.3,2.911,2.911,0,0,1,.268-1.3,1.945,1.945,0,0,1,.767-.84A2.268,2.268,0,0,1,18.3-5.04a2.623,2.623,0,0,1,.907.151,1.935,1.935,0,0,1,.713.452l-.208.422a2.319,2.319,0,0,0-.673-.422,2.03,2.03,0,0,0-.733-.127,1.507,1.507,0,0,0-1.215.509,2.172,2.172,0,0,0-.432,1.446,2.209,2.209,0,0,0,.428,1.456,1.5,1.5,0,0,0,1.218.512,2.03,2.03,0,0,0,.733-.127,2.319,2.319,0,0,0,.673-.422l.208.422a1.935,1.935,0,0,1-.713.452A2.623,2.623,0,0,1,18.3-.166Zm4.465,0a2.188,2.188,0,0,1-1.152-.295,1.937,1.937,0,0,1-.753-.847A2.97,2.97,0,0,1,20.6-2.6a3,3,0,0,1,.261-1.3,1.92,1.92,0,0,1,.75-.844,2.2,2.2,0,0,1,1.158-.295,2.2,2.2,0,0,1,1.158.295,1.92,1.92,0,0,1,.75.844,2.98,2.98,0,0,1,.261,1.292,2.965,2.965,0,0,1-.264,1.3,1.962,1.962,0,0,1-.753.847A2.169,2.169,0,0,1,22.769-.166Zm0-.469a1.438,1.438,0,0,0,1.178-.516,2.248,2.248,0,0,0,.422-1.459,2.232,2.232,0,0,0-.418-1.453,1.444,1.444,0,0,0-1.182-.509,1.449,1.449,0,0,0-1.185.512,2.222,2.222,0,0,0-.422,1.449,2.248,2.248,0,0,0,.422,1.459A1.445,1.445,0,0,0,22.769-.635Z" transform="translate(-888.58 5983.095)" fill="#fff"></path>
    <g id="Mask_Group_702" data-name="Mask Group 702" transform="translate(3 24.3)" clip-path="url(#clip-path)">
      <path id="Path_31063-2" data-name="Path 31063" d="M4.666-4.986h.455V-.22H4.613V-3.761L3.066-.22H2.678L1.118-3.734,1.125-.22H.616V-4.986h.455L2.879-.876ZM6.3-.22V-4.986H9.313v.455H6.842v1.66H9.179v.462H6.842V-.675h2.47V-.22Zm5.784-2.437L13.9-.22h-.649L11.77-2.242,10.3-.22H9.641l1.814-2.444L9.728-4.986h.656l1.393,1.915,1.393-1.915h.649ZM14.541-.22V-4.986h.549V-.22ZM18.3-.166a2.268,2.268,0,0,1-1.175-.295,1.938,1.938,0,0,1-.767-.847,2.955,2.955,0,0,1-.268-1.3,2.911,2.911,0,0,1,.268-1.3,1.945,1.945,0,0,1,.767-.84A2.268,2.268,0,0,1,18.3-5.04a2.623,2.623,0,0,1,.907.151,1.935,1.935,0,0,1,.713.452l-.208.422a2.319,2.319,0,0,0-.673-.422,2.03,2.03,0,0,0-.733-.127,1.507,1.507,0,0,0-1.215.509,2.172,2.172,0,0,0-.432,1.446,2.209,2.209,0,0,0,.428,1.456,1.5,1.5,0,0,0,1.218.512,2.03,2.03,0,0,0,.733-.127,2.319,2.319,0,0,0,.673-.422l.208.422a1.935,1.935,0,0,1-.713.452A2.623,2.623,0,0,1,18.3-.166Zm4.465,0a2.188,2.188,0,0,1-1.152-.295,1.937,1.937,0,0,1-.753-.847A2.97,2.97,0,0,1,20.6-2.6a3,3,0,0,1,.261-1.3,1.92,1.92,0,0,1,.75-.844,2.2,2.2,0,0,1,1.158-.295,2.2,2.2,0,0,1,1.158.295,1.92,1.92,0,0,1,.75.844,2.98,2.98,0,0,1,.261,1.292,2.965,2.965,0,0,1-.264,1.3,1.962,1.962,0,0,1-.753.847A2.169,2.169,0,0,1,22.769-.166Zm0-.469a1.438,1.438,0,0,0,1.178-.516,2.248,2.248,0,0,0,.422-1.459,2.232,2.232,0,0,0-.418-1.453,1.444,1.444,0,0,0-1.182-.509,1.449,1.449,0,0,0-1.185.512,2.222,2.222,0,0,0-.422,1.449,2.248,2.248,0,0,0,.422,1.459A1.445,1.445,0,0,0,22.769-.635Z" transform="translate(-896.58 5957.095)" fill="#fff"></path>
    </g>
  </g>
</svg>
