<?xml version="1.0" encoding="UTF-8"?>
<svg xmlns="http://www.w3.org/2000/svg" xmlns:xlink="http://www.w3.org/1999/xlink" viewBox="0 0 113.151 39.342">
  <defs>
    <clipPath id="clip-path">
      <rect id="Rectangle_27089" data-name="Rectangle 27089" width="113.151" height="39.342" fill="none"></rect>
    </clipPath>
  </defs>
  <g id="Group_9343" data-name="Group 9343" clip-path="url(#clip-path)">
    <path id="Path_18735" data-name="Path 18735" d="M22.9,9.452l-1.34.412c-1.136-4.043-3.126-6.353-6.576-6.353H10.474a104.676,104.676,0,0,0-.244,11.343l3-.165c2.03,0,2.882-1.526,3.369-3.754H17.74V20.3H16.6c-.487-2.268-1.339-3.794-3.369-3.918l-3-.042c0,3.341.04,6.187.244,7.92.2,2.475.853,3.589,2.6,3.836l1.624.165v1.073H0V28.261L1.218,28.1c1.7-.247,2.395-1.361,2.6-3.836a138.88,138.88,0,0,0,0-17.448c-.2-2.557-.893-3.589-2.6-3.795L0,2.811V1.7H22.855Z" transform="translate(0 -1.119)" fill="#fff"></path>
    <path id="Path_18736" data-name="Path 18736" d="M131.232,29.2c-2.639-1.815-5.48-1.031-6.049,0a75.9,75.9,0,0,0,.04,10.559c.122,1.65.568,2.352,1.786,2.475l1.624.165v1.073h-12.1V42.4l.934-.165c1.177-.124,1.583-.825,1.664-2.475a66.568,66.568,0,0,0,0-11.384c-.081-1.774-.487-2.434-1.664-2.6l-.934-.124v-.742l8.647-1.733-.122,4.62c2.03-4.784,6.049-5.362,8.241-4.084Z" transform="translate(-76.876 -15.254)" fill="#fff"></path>
    <path id="Path_18737" data-name="Path 18737" d="M78.179,18.273c0,5.775-3.653,10.478-10.189,10.478-6.414,0-9.662-4.456-9.662-10.312,0-5.734,3.654-10.519,10.19-10.519,6.413,0,9.661,4.5,9.661,10.353m-13.721.083c0,5.032,1.3,9.157,3.938,9.157,2.842,0,3.654-4.042,3.654-9.157S70.791,9.24,68.111,9.24c-2.841,0-3.654,3.919-3.654,9.116m50.175-.743c0,6.765-4.1,11.138-11.042,11.138a31.87,31.87,0,0,1-7.266-.949c.2-2.722.2-19.552,0-22.728-.2-1.65-.65-2.434-1.867-2.6l-.812-.083V1.65L102.211,0c-.041,1.4-.122,5.074-.122,9.4a9.592,9.592,0,0,1,4.749-1.237c4.465,0,7.795,3.96,7.795,9.446m-6.008.33c-.122-4.29-1.624-7.672-4.506-7.672a5.548,5.548,0,0,0-2.029.412c0,6.847.081,14.6.243,16.458a4.792,4.792,0,0,0,1.461.207c2.8,0,4.831-4.125,4.831-9.405m17.5-10.023c5.4,0,8,4.125,8.037,9.528H122.021c-.041,4.785,2.4,8.415,6.942,8.415a6.518,6.518,0,0,0,4.343-1.485l.568.66a9.52,9.52,0,0,1-7.794,3.713c-5.927,0-10.027-4.249-10.027-10.23,0-5.4,3.369-10.6,10.068-10.6m2.029,7.961c.122-2.723-.406-6.641-2.557-6.641-2.192,0-3.41,3.671-3.451,6.806Z" transform="translate(-38.477 0)" fill="#fff"></path>
    <path id="Path_18738" data-name="Path 18738" d="M297.9,29.418l-1.014.289c-.975-3.465-2.6-4.95-4.912-4.95a2.666,2.666,0,0,0-2.76,2.888c0,1.691,1.34,2.6,4.952,4.125,3.329,1.279,4.709,2.846,4.709,5.568,0,4.166-3.126,6.765-8.281,6.765a20.061,20.061,0,0,1-6.861-1.238l-.2-5.774.974-.207c1.461,3.96,3.329,5.445,5.765,5.445a3.029,3.029,0,0,0,3.207-3.094c0-1.567-.853-2.475-4.141-3.712-3.126-1.072-5.277-2.475-5.277-5.94,0-3.423,2.882-6.311,7.793-6.311a14.209,14.209,0,0,1,5.805,1.073Z" transform="translate(-187.036 -15.351)" fill="#fff"></path>
    <path id="Path_18739" data-name="Path 18739" d="M292.511,89.262a42.527,42.527,0,0,0,.168,4.948c.059.791.273,1.127.857,1.186l.435.079v.515h-5.455v-.515l.447-.079c.565-.059.759-.4.8-1.186a31.91,31.91,0,0,0,0-5.457c-.039-.85-.233-1.166-.8-1.246l-.447-.059v-.356l4.047-.83Z" transform="translate(-190.326 -56.905)" fill="#ea0029"></path>
    <path id="Path_18740" data-name="Path 18740" d="M272.738,89.208l-.486.139c-.467-1.661-1.245-2.373-2.355-2.373a1.278,1.278,0,0,0-1.323,1.384c0,.81.642,1.246,2.374,1.977,1.6.613,2.257,1.364,2.257,2.67,0,2-1.5,3.242-3.97,3.242a9.6,9.6,0,0,1-3.288-.594l-.1-2.768.467-.1c.7,1.9,1.6,2.61,2.764,2.61a1.452,1.452,0,0,0,1.537-1.483c0-.751-.409-1.186-1.985-1.779-1.5-.514-2.53-1.186-2.53-2.848,0-1.641,1.381-3.026,3.736-3.026a6.8,6.8,0,0,1,2.782.515Z" transform="translate(-175.374 -56.904)" fill="#ea0029"></path>
    <path id="Path_18741" data-name="Path 18741" d="M230.547,84.662l-.582,1.9a3.336,3.336,0,0,0-.155.872c0,.62.427.989,1.28,1.086v.524h-.272l-.834-.019h-2.191l-.8.019h-.271V88.52c.931-.136,1.473-.717,2.016-2.229l3.819-10.567h.892l4.4,10.838c.484,1.2.93,1.706,1.745,1.958v.524h-.369l-.892-.019h-3.024l-.911.019h-.33V88.52c.737-.058,1.067-.291,1.067-.795a2.579,2.579,0,0,0-.194-.795l-.872-2.269Zm3.216-.788L232.175,79.6l-1.412,4.272Z" transform="translate(-149.566 -49.953)" fill="#ea0029"></path>
    <path id="Path_18742" data-name="Path 18742" d="M293.89,76.87a1.555,1.555,0,0,1-1.674,1.654,1.582,1.582,0,0,1-1.7-1.654,1.657,1.657,0,0,1,1.7-1.715,1.561,1.561,0,0,1,1.674,1.715" transform="translate(-191.648 -49.578)" fill="#ea0029"></path>
    <path id="Path_18743" data-name="Path 18743" d="M314.7,95.546a12.6,12.6,0,0,0-3.149.641A3.56,3.56,0,0,1,310.981,95a5.633,5.633,0,0,1-3.085,1.182,2.431,2.431,0,0,1-2.362-2.193c0-1.871,1.491-2.731,5.32-3.2l-.073-2c0-1.226-.566-1.677-1.353-1.677-.617,0-1.255.215-1.255,1.075a2.815,2.815,0,0,0,.3,1.011l-2.383.968a1.906,1.906,0,0,1-.34-1.118c0-1.656,2.766-2.838,4.914-2.838a2.832,2.832,0,0,1,2.851,2.924v4.915c0,.473.108.82.447.848a1.7,1.7,0,0,0,.744-.069Zm-3.85-4.2c-1.851.194-2.724,1.075-2.724,2.022a1.407,1.407,0,0,0,1.468,1.57,1.912,1.912,0,0,0,1.3-.452c-.021-.194-.043-.516-.043-.817Z" transform="translate(-201.553 -56.87)" fill="#ea0029"></path>
  </g>
</svg>
