<?xml version="1.0" encoding="UTF-8"?>
<svg xmlns="http://www.w3.org/2000/svg" id="Group_9760" data-name="Group 9760" viewBox="0 0 75.286 44.998">
  <path id="Path_22344" data-name="Path 22344" d="M7.374,12.714c-1.19,0-1.776-.034-2.928.062v4.86c.282.006.248.062.561.062H6.5c0,.475-.062.695-.062,1.184V20.5H4.633c-.143,0-.187.043-.187.187v4.673H6.5a13.139,13.139,0,0,1,.685,3.8,11.361,11.361,0,0,1-2.324,6.773c-.368.436-.657.783-1.056,1.187-.215.218-.376.31-.592.529a17.372,17.372,0,0,1-1.982,1.507c-1.293.77-1.639.924-.7,2.269l1.435,2.178c.052.088.03.053.1.153.5.749.856,1.666,1.93,1.023l1.02-.6a27.9,27.9,0,0,0,2.379-1.8c.174-.173.275-.207.439-.371s.2-.268.37-.44L9.446,40.33a27.461,27.461,0,0,0,2.041-2.881,18.818,18.818,0,0,0,1.348-2.826,16.613,16.613,0,0,0,1.082-6.893,11.41,11.41,0,0,0-.249-2.368H25.505V20.5h-11.9c-.144,0-.187-.043-.187-.187V17.7H25.505V12.714H14.664l.51-.985a8.89,8.89,0,0,1,1.311-1.8A8.624,8.624,0,0,1,18.427,8.19a11.2,11.2,0,0,1,1.284-.772,11.985,11.985,0,0,1,1.5-.615,14.05,14.05,0,0,1,6.852-.263,6,6,0,0,0,.99.193V.315C28.768.315,27.062,0,25.941,0A25.036,25.036,0,0,0,22.4.139a18.566,18.566,0,0,0-3.707.9A6.947,6.947,0,0,1,18,1.288,20.11,20.11,0,0,0,13.9,3.6a18.176,18.176,0,0,0-5.15,5.878A28.476,28.476,0,0,0,7.374,12.714Z" transform="translate(-0.001 -0.001)" fill="#37b771" fill-rule="evenodd"></path>
  <path id="Path_22345" data-name="Path 22345" d="M247.874,145.542c0,.144.043.187.187.187h5.483c.284,0,.189-.442.187-.747V130.464a2.289,2.289,0,0,1,.409.463l1.185,1.432c.529.67,1.034,1.262,1.57,1.919l6.321,7.7c.536.657,1.039,1.248,1.57,1.92.267.337.528.626.792.952.318.393.606.881.926.881h4.424c.144,0,.187-.043.187-.187V120.371h-5.67c-.284,0-.189.442-.187.747v14.517l-1.94-2.359c-.146-.185-.242-.286-.393-.479l-7.849-9.6c-.267-.338-.527-.626-.793-.952a16.638,16.638,0,0,0-1.611-1.878h-4.8Z" transform="translate(-221.31 -107.471)" fill="#37b771" fill-rule="evenodd"></path>
  <path id="Path_22346" data-name="Path 22346" d="M474.03,128.7a13.173,13.173,0,0,0,.8,5.366,12.443,12.443,0,0,0,5.823,6.638,14.1,14.1,0,0,0,1.76.795,16.494,16.494,0,0,0,8.679.651,16.7,16.7,0,0,0,6.276-2.447c.182-.121.71-.4.71-.6V129.078c0-.144-.043-.187-.187-.187h-5.047c-.284,0-.189.442-.187.747v6.729a9.643,9.643,0,0,1-4.24,1.056,10.179,10.179,0,0,1-2.365-.245,7.443,7.443,0,0,1-5.631-5.023,8.521,8.521,0,0,1-.412-3.264,8.04,8.04,0,0,1,1.853-4.938,4.657,4.657,0,0,1,.487-.51,7.206,7.206,0,0,1,2.359-1.5,9.171,9.171,0,0,1,8.83,1.085l.91.772a2.163,2.163,0,0,0,.327.3l3.738-3.427a9.422,9.422,0,0,0-1.869-1.807,13.139,13.139,0,0,0-2.369-1.369c-4.6-2.071-11.108-1.581-15.192,1.5l-.929.753a12.3,12.3,0,0,0-2.818,3.724,12.854,12.854,0,0,0-1.308,5.234Z" transform="translate(-423.23 -103.78)" fill="#37b771" fill-rule="evenodd"></path>
  <path id="Path_22347" data-name="Path 22347" d="M255.391,385.149h1.371a11.916,11.916,0,0,0,.561-1.807h.125c.026.313.4,1.375.5,1.807h1.371l1.184-3.738h-1.184a13.2,13.2,0,0,0-.623,1.994h-.125c-.008-.355-.443-1.489-.561-1.994h-1.184c-.161.693-.47,1.336-.623,1.994l-.1-.209c-.032-.083-.06-.179-.077-.234l-.443-1.551h-1.308a3.613,3.613,0,0,0,.257.927l.579,1.851A5.924,5.924,0,0,1,255.391,385.149Z" transform="translate(-227.02 -340.537)" fill="#37b771" fill-rule="evenodd"></path>
  <path id="Path_22348" data-name="Path 22348" d="M656,385.039h1.184v-1.5c.671.772.366,1.184,1.184,1.184.322,0,.557-.953.872-1.184,0,1.766-.257,1.5,1.059,1.5.263,0,.194-.281.189-.559l-.065-3.18h-1.059a12.586,12.586,0,0,1-1.184,1.931,5.319,5.319,0,0,0-.564-.993c-.676-1.136-.339-.938-1.616-.938Z" transform="translate(-585.703 -340.426)" fill="#fff" fill-rule="evenodd"></path>
  <path id="Path_22349" data-name="Path 22349" d="M178.69,385.008h1.246v-1.62c.224.257.435.489.659.774a4.673,4.673,0,0,1,.65.846h1.121v-3.738H181.12v1.62a1.631,1.631,0,0,1-.36-.388l-.883-1.049c-.227-.283-.259-.183-1.187-.183Z" transform="translate(-159.541 -340.395)" fill="#37b771" fill-rule="evenodd"></path>
  <path id="Path_22350" data-name="Path 22350" d="M395.088,383.218h-.623v-.748h.623a.353.353,0,0,1,.312.311c0,.21-.11.436-.312.436m-1.869,1.931h1.246v-.935c.462,0,.424.172.935.935h1.371c-.225-.426-.686-.953-.748-1.184.924-.247,1.208-2.555-1.122-2.555h-1.682Z" transform="translate(-351.079 -340.537)" fill="#fff" fill-rule="evenodd"></path>
  <path id="Path_22351" data-name="Path 22351" d="M612.318,383.634c-.507,0-.935-.163-.935-.872a.8.8,0,0,1,.872-.872C613.2,381.889,613.217,383.634,612.318,383.634Zm-2.243-.81a1.987,1.987,0,0,0,1.807,1.869,2.2,2.2,0,0,0,1.856-.574,1.948,1.948,0,0,0-1.669-3.289,2.294,2.294,0,0,0-1.42.574A1.969,1.969,0,0,0,610.075,382.824Z" transform="translate(-544.696 -340.018)" fill="#fff" fill-rule="evenodd"></path>
  <path id="Path_22352" data-name="Path 22352" d="M432.317,382.885c0-1.451,1.558-1.131,1.558-.312,0,.7-.053,1.059-.872,1.059a.647.647,0,0,1-.473-.212,1.172,1.172,0,0,1-.213-.535m-1.308-.125a1.96,1.96,0,0,0,1.807,1.931,2.163,2.163,0,0,0,1.755-.488,2.035,2.035,0,1,0-3.562-1.444Z" transform="translate(-384.82 -340.017)" fill="#fff" fill-rule="evenodd"></path>
  <path id="Path_22353" data-name="Path 22353" d="M476.357,383.087a1.953,1.953,0,0,0,.387,1.357c.554.593.9.574,1.669.574,1.932,0,1.62-2.275,1.62-3.614,0-.307-.491-.187-1.308-.187v2.118c0,.9-1.059.79-1.059.062v-2.181h-1.308Z" transform="translate(-425.308 -340.343)" fill="#fff" fill-rule="evenodd"></path>
  <path id="Path_22354" data-name="Path 22354" d="M221.13,385.149h3.053v-1h-1.807v-.436h1.558v-.935h-1.558v-.374h1.744v-1H221.13Z" transform="translate(-197.433 -340.537)" fill="#37b771" fill-rule="evenodd"></path>
  <path id="Path_22355" data-name="Path 22355" d="M351.359,382.48a1.831,1.831,0,0,0,.543,1.638c1.1,1.06,3.133.334,3.133-.018v-1.5h-1.121c0,1.142.124,1-.561,1a.883.883,0,0,1,.249-1.745,1.414,1.414,0,0,1,.748.374c.255-.171.521-.492.81-.685a2.334,2.334,0,0,0-3.18-.252A1.759,1.759,0,0,0,351.359,382.48Z" transform="translate(-313.705 -339.986)" fill="#fff" fill-rule="evenodd"></path>
  <path id="Path_22356" data-name="Path 22356" d="M520.085,383.027h-.561v-.748a2.151,2.151,0,0,1,.81.062c.051.218.151.685-.249.685m-1.869,1.931c1.557,0,1.308.214,1.308-.872,1.007,0,2.181-.21,2.181-1.433,0-1.753-2.3-1.433-3.489-1.433Z" transform="translate(-462.681 -340.346)" fill="#fff" fill-rule="evenodd"></path>
  <path id="Path_22357" data-name="Path 22357" d="M137.557,383.279l-.985,1.383a4.345,4.345,0,0,0-.324.486h1.5c.09-.387.408-.547.5-.935h.125a4.343,4.343,0,0,0,.561.935h1.433c-.064-.239-1.072-1.485-1.308-1.931l.925-1.318a1.619,1.619,0,0,0,.321-.489h-1.371a7.6,7.6,0,0,0-.561.935.559.559,0,0,1-.085-.1l-.538-.833h-1.433a1.43,1.43,0,0,0,.275.472Z" transform="translate(-121.648 -340.536)" fill="#fff" fill-rule="evenodd"></path>
  <path id="Path_22358" data-name="Path 22358" d="M315.692,381.907c0,1.4,1.234,1.153,1.822,1.418.215.1.152.02.172.264-.476.267-1.622-.235-1.682-.249-.2.865-.735.884.194,1.177.964.3,2.8.218,2.8-1.115,0-1.314-1.7-.944-2.056-1.433.338-.461,1.23.035,1.558.062.032-.388.28-.553.312-.935a2.877,2.877,0,0,0-2.577-.022A1.14,1.14,0,0,0,315.692,381.907Z" transform="translate(-281.839 -339.973)" fill="#37b771" fill-rule="evenodd"></path>
  <path id="Path_22359" data-name="Path 22359" d="M571.7,382.532a1.944,1.944,0,0,0,.577,1.6,2.415,2.415,0,0,0,2.559.288,5.148,5.148,0,0,0,.6-.458,3.576,3.576,0,0,0-.81-.748c-.424.284-.242.374-.935.374-.925,0-.974-1.744.125-1.744.423,0,.561.207.81.374.388-.205.422-.418.81-.623a2.16,2.16,0,0,0-3.1-.3A1.679,1.679,0,0,0,571.7,382.532Z" transform="translate(-510.436 -339.976)" fill="#fff" fill-rule="evenodd"></path>
  <path id="Path_22360" data-name="Path 22360" d="M105.436,385.149h1.308v-1.184h1.5v-1h-1.5v-.561h1.745v-1h-3.053Z" transform="translate(-94.136 -340.537)" fill="#fff" fill-rule="evenodd"></path>
  <path id="Path_22361" data-name="Path 22361" d="M554.262,404.366a.72.72,0,1,0,1.433-.062c0-.8-1.433-.825-1.433.062" transform="translate(-494.864 -360.439)" fill="#fff" fill-rule="evenodd"></path>
</svg>
