<?xml version="1.0" encoding="UTF-8"?>
<svg xmlns="http://www.w3.org/2000/svg" viewBox="0 0 50 50">
  <g id="Group_17719" data-name="Group 17719" transform="translate(1125 -1772)">
    <rect id="Rectangle_20234" data-name="Rectangle 20234" width="50" height="50" transform="translate(-1125 1772)" fill="#24282d" opacity="0"></rect>
    <g id="icon-product-gold-commodities-blue" transform="translate(-1124.643 1776)">
      <g id="Group_69" data-name="Group 69">
        <path id="Path_102" data-name="Path 102" d="M279.089,299.919l-4.249-8.408a1.155,1.155,0,0,0-.581-.543l-9.124-3.85-.881.881,9.556,4.032.069.137-11.2,4.364-4.487-2.476-.578.578,4.644,2.562v9.57l-9.932-6.845-.829.83,10.342,7.127a1.155,1.155,0,0,0,1.1.115L278.5,301.5a1.153,1.153,0,0,0,.586-1.585ZM263.047,306.7v-9.466l11.188-4.361,3.824,7.567Z" transform="translate(-229.927 -266.259)" fill="#24282d"></path>
        <path id="Path_103" data-name="Path 103" d="M240.2,277.773l.578-.576,6-5.983.881-.878,6.414-6.391a1.147,1.147,0,0,0,0-1.626l-12.346-12.3a1.156,1.156,0,0,0-1.632,0l-26.592,26.5a1.146,1.146,0,0,0,0,1.626l12.346,12.3a1.156,1.156,0,0,0,1.632,0l6.646-6.623.829-.826Zm-6.206,4.558-.83.827-6.1,6.082v-3.863l3.808-3.8.83-.826,4.951-4.934.578-.576,5.68-5.66.881-.878,5.2-5.184h3.877l-6.353,6.33-.881.878-5.908,5.887-.578.576Zm18.874-19.591h-3.877l-7.684-7.658V251.22ZM235.93,275.428l-4.893,4.876-.83.827-3.544,3.531-7.359-7.334L240.91,255.8l7.359,7.333L243,268.38l-.881.878-5.614,5.595Zm4.98-24.6Zm-.393,2.932v1.322l-21.929,21.853h-3.877l25.806-25.716Zm-26.2,23.567Zm2.942.391h1.327l7.684,7.658v3.863l-11.561-11.52Z" transform="translate(-213.164 -249.679)" fill="#24282d"></path>
      </g>
    </g>
  </g>
</svg>
