<?xml version="1.0" encoding="UTF-8"?>
<svg xmlns="http://www.w3.org/2000/svg" id="b" viewBox="0 0 968 300.04">
  <g id="c">
    <path d="M375.8,299.84c-7.3,0-12.7-6.5-12.7-12.3V44.34c0-12.2-9.4-17.9-16.3-17.9h-62.8c-6,0-11.9-6.5-11.9-13.1s5.8-12.7,11.9-12.7h182c7,0,12.3,5.5,12.3,12.7,0,6.4-4.3,13.1-12.3,13.1h-78.3v261.2c0,5.5-5.3,12.2-11.9,12.2" fill="#fff" stroke-width="0"></path>
    <path d="M541.5,299.84c-6.8,0-12.3-5.5-12.3-12.3V13.24c0-6.6,5.8-12.3,12.3-12.3h156.2c6.6,0,12.3,5.8,12.3,12.3,0,7-5.8,13.1-12.3,13.1h-124.7c-8.6,0-18.9,5.3-18.9,20.2v73.8h128.3c7.9,0,12.7,6.8,12.7,13.1s-5.2,12.7-12.7,12.7h-128.2v141.4c0,6.7-5.8,12.3-12.7,12.3" fill="#fff" stroke-width="0"></path>
    <path d="M966,279.54l-71.7-110.5c-2.5-3.9-4.6-10.7-4.6-19.2,0-11.4,4.8-20.2,6.5-22.7l70-107.8c2.2-2.8,3.5-12-3-16.8-5.4-3.9-13.6-3.9-18.7,4.2l-77.7,119.8L789,6.74c-2.5-4.3-9.2-9.8-18.2-4.5-5.2,3-7.1,11.8-3.5,17.3l84.5,130-84.4,130.1c-3,4.8-3.3,13.3,3.1,17.9,4.3,3,13.1,2.7,17.6-4.1l78.6-120.9,78.6,120.9c3.7,5.7,12.4,7.6,17.6,4.1,6.5-4.5,5.9-13,3.1-18" fill="#fff" stroke-width="0"></path>
    <path d="M245.9,300.04c-5.4,0-9.5-3.9-11-7.5l-91.9-218c-3-4.9-7.2-7.6-11.7-7.6-5.3,0-10.3,3.9-13.5,10.3L27.6,292.74s-4.1,9.8-16.4,6.1c-7.4-2.2-8.6-11.1-6.9-15.7L120.1,8.64c.7-1.5,3-7.7,11.4-7.9,4.2-.1,9.5,3,11.7,8.6l114.5,273.7c.7,1.6,1.8,5.1,0,9.5-1.1,2.7-3.5,5-6.2,6.2s-5,1.3-5.6,1.3" fill="#fff" stroke-width="0"></path>
    <path d="M13.8,205.44c-7.6,0-13.8-6.2-13.8-13.8s6.2-13.8,13.8-13.8h172.7l11.7,27.6H13.8Z" fill="#f2672a" stroke-width="0"></path>
  </g>
</svg>
