<svg xmlns="http://www.w3.org/2000/svg" xmlns:xlink="http://www.w3.org/1999/xlink" viewBox="0 0 109.069 42.003"><defs><clipPath id="clip-path"><path id="Path_4291" data-name="Path 4291" d="M53.237,26.526H51.392a1.123,1.123,0,0,0-.9.455l-9.64,10.054c-.709.749-1.243.334-.575-.495.227-.267,4.88-5.923,7.741-9.519.12-.147.254-.575-.134-.575H45.135a.735.735,0,0,0-.669.321l-9.84,10.282c-.709.735-1.337.308-.6-.521.227-.281,5.348-6.538,8.156-10.108a.842.842,0,0,0,.214-.9l-2.126-9.453c-.067-.321-.308-.374-.508-.12l-6.377,7.741a.8.8,0,0,1-.923.2l-9.038-4.4c-.294-.147-.481,0-.414.321l2.126,9.827a.8.8,0,0,1-.414.856l-9.092,4.292c-.294.147-.308.388,0,.521l9.011,4.466a.8.8,0,0,1,.4.856l-2.273,9.8c-.067.4.12.508.414.4l9.065-4.292a.8.8,0,0,1,.923.214l6.244,7.888c.2.267.441.214.521-.12l2.34-9.773a.8.8,0,0,1,.775-.6H53.1c.334,0,.441-.214.227-.468l-6.19-7.928a.8.8,0,0,1,0-.949l6.3-7.835C53.638,26.767,53.638,26.539,53.237,26.526Z" transform="translate(-15.401 -15.79)" fill="none"></path></clipPath><clipPath id="clip-path-2"><rect id="Rectangle_7463" data-name="Rectangle 7463" width="38.305" height="39.081" fill="none"></rect></clipPath><clipPath id="clip-path-3"><rect id="Rectangle_7462" data-name="Rectangle 7462" width="38.292" height="39.094" fill="none"></rect></clipPath><radialGradient id="radial-gradient" cx="0.619" cy="0.848" r="0.885" gradientTransform="matrix(1.021, 0, 0, -1, -0.252, 5.06)" gradientUnits="objectBoundingBox"><stop offset="0" stop-color="#c40804"></stop><stop offset="0.48" stop-color="#c40804"></stop><stop offset="1" stop-color="#d3532a"></stop></radialGradient></defs><g id="Group_5427" data-name="Group 5427" transform="translate(-992.193 -2921.713)"><path id="Path_4287" data-name="Path 4287" d="M56.057,26.125,55.7,24.146l-5.776.321v2.995l1.631.2V43.279H56.9V30.47c1.578-1.671,2.54-2.38,4.212-2.38s2.674,1.337,2.674,4.145V43.279h5.348V31.246c0-5.014-2.393-7.674-6.926-7.674a8.022,8.022,0,0,0-6.15,2.554Z" transform="translate(990.04 2909.984)" fill="#070606"></path><path id="Path_4288" data-name="Path 4288" d="M92.128,29.875c2.126,0,3.209,1.832,3.209,5.428,0,2.674-.775,5.789-4.506,5.789a8.329,8.329,0,0,1-3.048-.615v-8.1A5.762,5.762,0,0,1,92.128,29.875ZM80.71,18.737v2.982l1.939.241V44.154A28.157,28.157,0,0,0,90.51,45.4c6.565,0,10.335-3.877,10.335-10.7,0-5.749-2.968-9.359-7.741-9.359a7.888,7.888,0,0,0-5.348,1.992V18.47Z" transform="translate(1000.416 2908.266)" fill="#070606"></path><path id="Path_4289" data-name="Path 4289" d="M67.841,24.813l-.294.107.963,4.011.374-.147a15.055,15.055,0,0,1,5.348-1.056c2.941,0,3.5,1.07,3.5,3.062v.628H75.783c-6.364,0-9.573,2.126-9.573,6.351,0,3.744,2.487,5.976,6.685,5.976a8.463,8.463,0,0,0,5.589-1.992c.107.521.294,1.484.294,1.484l5.869-.174V40.069l-1.792-.174V30.389c0-4.559-2.674-6.779-8.022-6.779a21.539,21.539,0,0,0-6.993,1.2ZM71.5,37.5c0-1.043.441-2.42,4.212-2.42h1.952V38.05a5.468,5.468,0,0,1-3.717,1.685A2.112,2.112,0,0,1,71.5,37.5Z" transform="translate(995.53 2909.998)" fill="#070606"></path><path id="Path_4290" data-name="Path 4290" d="M40.127,14.936l-6.993,8.61-9.974-4.84a.535.535,0,0,0-.829.655l2.3,10.8-9.987,4.8a.535.535,0,0,0,0,1.056l9.987,4.893-2.46,10.83a.535.535,0,0,0,.816.669l9.974-4.72,6.952,8.691a.535.535,0,0,0,1.029-.227l2.514-10.763H54.593a.535.535,0,0,0,.468-.949L48.2,35.74l6.966-8.691a.535.535,0,0,0-.455-.949H51.866a.722.722,0,0,0-.521.227l-10.429,11.1c-.094.107-.187.147-.241.107s0-.12,0-.241l8.958-10.83a.241.241,0,0,0,0-.254.281.281,0,0,0-.241-.147h-3.65a1.136,1.136,0,0,0-.762.388c-1.7,1.8-10.134,10.79-10.308,10.99s-.187.147-.241.107,0-.12,0-.241l8.757-10.7a.8.8,0,0,0,.294-.642c0-.12-2.367-10.7-2.393-10.8a.535.535,0,0,0-.963-.227Z" transform="translate(978 2907)" fill="#c40905"></path><g id="Group_5426" data-name="Group 5426" transform="translate(993.808 2923.153)" clip-path="url(#clip-path)"><g id="Group_5425" data-name="Group 5425" transform="translate(-0.082 -0.054)" clip-path="url(#clip-path-2)"><g id="Group_5424" data-name="Group 5424" transform="translate(-0.174 0.16)" clip-path="url(#clip-path-3)"><rect id="Rectangle_7461" data-name="Rectangle 7461" width="38.292" height="39.094" fill="url(#radial-gradient)"></rect></g></g></g></g></svg>