<svg xmlns="http://www.w3.org/2000/svg" viewBox="0 0 67.142 41.999"><g id="UnionPay_logo" transform="translate(0 -0.001)"><path id="Path_4283" data-name="Path 4283" d="M13.149,0H29.907a3.266,3.266,0,0,1,3.249,4.254l-7.8,33.5A5.7,5.7,0,0,1,20.12,42H3.363A3.264,3.264,0,0,1,.115,37.752L7.92,4.255A5.68,5.68,0,0,1,13.149,0" transform="translate(0 0)" fill="#e21836"></path><path id="Path_4284" data-name="Path 4284" d="M71.624,0H90.9c2.339,0,1.284,1.907.734,4.254l-7.8,33.5C83.281,40.091,83.452,42,81.108,42H61.836a3.257,3.257,0,0,1-3.244-4.247l7.8-33.5A5.691,5.691,0,0,1,71.624,0" transform="translate(-43.111 0)" fill="#00447c"></path><path id="Path_4285" data-name="Path 4285" d="M142.061,0h16.758a3.262,3.262,0,0,1,3.247,4.254l-7.8,33.5A5.7,5.7,0,0,1,149.029,42H132.278a3.26,3.26,0,0,1-3.248-4.247l7.8-33.5A5.678,5.678,0,0,1,142.061,0" transform="translate(-95.04 0)" fill="#007b84"></path><path id="Path_4286" data-name="Path 4286" d="M38.692,40.69a18.008,18.008,0,0,1-2.395-.038c-.062.3-1.225,5.661-1.229,5.666a3.928,3.928,0,0,1-1.051,2.359,1.873,1.873,0,0,1-1.237.431,1.143,1.143,0,0,1-1.284-1.1l-.014-.247s.233-1.454.233-1.462,1.221-4.889,1.439-5.535a.47.47,0,0,0,.018-.074,17.941,17.941,0,0,1-2.826-.038c-.016.053-.075.356-.075.356l-1.246,5.51-.107.467-.207,1.528a2.249,2.249,0,0,0,.266,1.136c.568.992,2.187,1.141,3.1,1.141a6.023,6.023,0,0,0,3.036-.709,4.5,4.5,0,0,0,1.942-3.033L37.2,46.5s1.257-5.077,1.471-5.738A.232.232,0,0,1,38.692,40.69Zm4.278,4.1a3.321,3.321,0,0,0-1.354.317c-.181.093-.351.2-.531.306l.163-.587-.089-.1c-1.055.214-1.291.242-2.266.379l-.082.054a28.829,28.829,0,0,1-.633,3.488c-.16.68-.326,1.366-.492,2.044l.045.086c1-.053,1.3-.053,2.17-.038l.07-.076c.11-.565.125-.7.369-1.841.115-.542.354-1.734.472-2.159a1.618,1.618,0,0,1,.635-.2c.486,0,.427.424.408.594-.021.284-.2,1.211-.38,2.007l-.121.514c-.085.379-.177.748-.262,1.125l.037.075c.984-.053,1.285-.053,2.125-.038l.1-.076c.152-.882.2-1.118.466-2.4l.136-.59c.263-1.155.4-1.741.2-2.218A1.146,1.146,0,0,0,42.969,44.786ZM47.748,46c-.523.1-.857.167-1.189.211s-.649.1-1.155.171l-.04.036-.037.029c-.053.377-.089.7-.159,1.085s-.15.846-.3,1.492a5.863,5.863,0,0,1-.239.841,7.274,7.274,0,0,0-.263.83l.03.045.025.041c.473-.022.782-.038,1.1-.041s.646,0,1.155,0l.045-.036.048-.04c.074-.439.085-.557.129-.771.045-.23.121-.547.31-1.4.089-.4.188-.8.281-1.2s.2-.8.292-1.2l-.014-.048Zm.011-1.631a1.917,1.917,0,0,0-1.872.2c-.56.38-.624.919-.15,1.2a1.912,1.912,0,0,0,1.862-.2C48.158,45.177,48.228,44.643,47.759,44.365Zm2.875,6.5a3.574,3.574,0,0,0,2.69-1.052,4.769,4.769,0,0,0,.924-1.978,2.517,2.517,0,0,0-.224-2.269,2.476,2.476,0,0,0-2.018-.742,3.706,3.706,0,0,0-2.535.877,4.155,4.155,0,0,0-1.125,2.189c-.182.793-.391,2.221.922,2.753A3.845,3.845,0,0,0,50.635,50.864Zm-.075-2.915c.222-.981.484-1.8,1.152-1.8.524,0,.562.613.329,1.6a4.4,4.4,0,0,1-.492,1.377.811.811,0,0,1-.63.41c-.07,0-.488,0-.495-.62A4.241,4.241,0,0,1,50.56,47.949Zm6.094,2.789.075-.076c.107-.565.124-.7.36-1.841.118-.542.362-1.734.477-2.159a1.6,1.6,0,0,1,.639-.2c.483,0,.424.424.405.594a19.324,19.324,0,0,1-.38,2.007l-.115.514c-.088.38-.183.748-.268,1.125l.037.075c.988-.053,1.276-.053,2.122-.038l.1-.076c.148-.883.188-1.119.466-2.4l.132-.591c.265-1.155.4-1.74.2-2.218a1.16,1.16,0,0,0-1.184-.664,3.3,3.3,0,0,0-1.355.317c-.177.093-.354.2-.528.306l.152-.587-.081-.1c-1.055.214-1.3.243-2.269.38l-.075.054a29.856,29.856,0,0,1-.634,3.488c-.16.68-.326,1.366-.491,2.044l.044.086C55.488,50.723,55.787,50.723,56.653,50.738Zm7.257.038c.062-.3.431-2.1.434-2.1s.314-1.318.333-1.366a.78.78,0,0,1,.2-.192h.145a6.753,6.753,0,0,0,4.136-.893A4.408,4.408,0,0,0,70.8,43.608a3.951,3.951,0,0,0,.114-.911,1.914,1.914,0,0,0-.329-1.163c-.619-.866-1.852-.882-3.276-.889l-.7.007c-1.822.022-2.553.016-2.853-.021-.025.133-.073.369-.073.369s-.653,3.025-.653,3.03l-1.636,6.735C62.983,50.746,63.635,50.746,63.91,50.776ZM65.12,45.4s.694-3.019.691-3.008l.023-.155.01-.118.277.029,1.465.126a1.193,1.193,0,0,1,.635,1.517,2.207,2.207,0,0,1-1.144,1.51,3.615,3.615,0,0,1-1.608.25h-.377ZM69.44,48c-.183.782-.394,2.21.913,2.719a2.551,2.551,0,0,0,1.17.211,1.93,1.93,0,0,0,1.116-.512l-.093.357.059.076c.94-.04,1.232-.04,2.25-.032l.092-.07c.148-.874.289-1.723.675-3.4.188-.8.376-1.594.569-2.392l-.03-.088c-1.051.195-1.332.237-2.344.38l-.077.062c-.01.081-.021.159-.031.237a1.445,1.445,0,0,0-.737-.606,2.815,2.815,0,0,0-2.414.878A4.1,4.1,0,0,0,69.44,48Zm2.208.048c.225-.964.484-1.779,1.154-1.779.424,0,.647.391.6,1.058-.036.166-.075.341-.121.54-.067.286-.14.57-.21.855a2.083,2.083,0,0,1-.248.5,1.158,1.158,0,0,1-.819.4c-.067,0-.48,0-.495-.609A4.177,4.177,0,0,1,71.649,48.052ZM83.18,44.871l-.081-.093c-1.041.211-1.229.244-2.185.373l-.07.07c0,.011-.006.029-.011.045l0-.016c-.712,1.642-.691,1.287-1.27,2.58,0-.059,0-.1-.007-.158l-.145-2.8-.091-.093c-1.09.211-1.116.244-2.122.373l-.079.07a.766.766,0,0,0-.018.11l.007.014a14.1,14.1,0,0,1,.222,1.514c.059.5.137,1,.2,1.49.1.823.155,1.228.276,2.484-.679,1.122-.841,1.546-1.495,2.53l0,.01-.461.729a.348.348,0,0,1-.167.152.7.7,0,0,1-.3.043h-.255l-.379,1.262,1.3.022a1.6,1.6,0,0,0,1.5-.841l.819-1.4h-.013l.086-.1C78.992,52.056,83.18,44.871,83.18,44.871ZM69.44,61.448h-.552l2.044-6.761h.678l.215-.7.021.774c-.025.479.351.9,1.341.833h1.144l.394-1.3h-.43c-.248,0-.362-.062-.348-.2l-.021-.788H71.807v0a29.7,29.7,0,0,0-3.145.176A3.7,3.7,0,0,0,67.633,54l.207-.7H65.858l-.413,1.383-2.071,6.864h-.4l-.394,1.293h3.947l-.132.431h1.945l.129-.431h.545Zm-1.62-5.387a8.841,8.841,0,0,0-.908.354l.525-1.728h1.574l-.38,1.259A5.118,5.118,0,0,0,67.821,56.061Zm.03,2.468s-.495.062-.82.136a8.012,8.012,0,0,0-.922.4l.543-1.8h1.583Zm-.882,2.934H65.389l.458-1.517h1.574Zm3.8-4.193h2.277l-.327,1.06H70.415l-.346,1.158h2.019L70.559,61.64a.628.628,0,0,1-.31.259.906.906,0,0,1-.41.118h-.56l-.385,1.269h1.465a1.781,1.781,0,0,0,1.543-.8l1.048-1.435.225,1.457a.685.685,0,0,0,.377.495,1.358,1.358,0,0,0,.512.219c.229.01.4.018.506.018h.72l.432-1.42h-.284a1.189,1.189,0,0,1-.491-.078.768.768,0,0,1-.073-.3l-.228-1.46H73.71l.41-.488h2.3l.354-1.158H74.645l.332-1.06H77.1l.394-1.307H71.16Zm-19.23,4.488.531-1.768h2.184l.4-1.315H52.471l.334-1.088h2.136l.4-1.273H49.991L49.6,57.588h1.214l-.324,1.088H49.277l-.4,1.337h1.214l-.708,2.339a.559.559,0,0,0,.134.571.585.585,0,0,0,.391.285,2.354,2.354,0,0,0,.56.076h2.462l.439-1.457-1.092.15C52.063,61.979,51.479,61.953,51.543,61.758Zm.25-8.463-.553,1a1.162,1.162,0,0,1-.321.417,1.063,1.063,0,0,1-.495.075h-.289l-.386,1.28h.959a2.174,2.174,0,0,0,.985-.254c.182-.1.23-.042.37-.177l.324-.281h2.995l.4-1.332H53.587l.383-.727Zm4.421,8.489c-.051-.074-.014-.2.064-.473L57.1,58.6h2.912c.424-.006.731-.011.93-.025a1.906,1.906,0,0,0,.7-.236,1.308,1.308,0,0,0,.509-.469,3.994,3.994,0,0,0,.5-1.139L63.68,53.3l-3.022.018a9.577,9.577,0,0,0-1.34.289,5.48,5.48,0,0,0-1,.641l.273-.94H56.72l-2.613,8.667a5.362,5.362,0,0,0-.169.728c0,.158.2.315.332.433a1.191,1.191,0,0,0,.609.118c.233.018.565.029,1.023.029h1.434l.44-1.487-1.284.121A.338.338,0,0,1,56.214,61.784Zm1.41-5.012h3.059l-.194.609a2.191,2.191,0,0,0-.4.007H57.437Zm.613-2.044h3.085l-.222.734s-1.454-.014-1.686.029a3.442,3.442,0,0,0-1.623.725Zm2.32,4.694a.326.326,0,0,1-.121.188.607.607,0,0,1-.313.054h-.436l.026-.742H57.9l-.074,3.628c0,.262.022.413.214.535a3.641,3.641,0,0,0,1.576.171h1.136l.41-1.358-.989.054-.329.019a.375.375,0,0,1-.136-.084c-.042-.041-.112-.016-.1-.278l.008-.93,1.037-.043a1.344,1.344,0,0,0,1-.356,1.114,1.114,0,0,0,.332-.616l.174-.823H60.739Z" transform="translate(-21.166 -29.954)" fill="#fefefe"></path></g></svg>