<?xml version="1.0" encoding="UTF-8"?>
<svg xmlns="http://www.w3.org/2000/svg" viewBox="0 0 81.466 20" width="81" height="20">
  <g id="Group_9137" data-name="Group 9137" transform="translate(-2185 211)">
    <path id="Path_18180" data-name="Path 18180" d="M178.114,300.7h8.242v1.534H183.11v8.649h-1.779v-8.649H178.1ZM186,303.511h1.521v1.426h.027a1.792,1.792,0,0,1,.285-.584,2.255,2.255,0,0,1,.5-.516,2.221,2.221,0,0,1,.652-.38,1.9,1.9,0,0,1,.72-.149c.19,0,.326.014.394.014a1.188,1.188,0,0,0,.217.027v1.561a2.73,2.73,0,0,0-.353-.054,3.075,3.075,0,0,0-.353-.027,1.885,1.885,0,0,0-.774.163,1.965,1.965,0,0,0-.638.475,2.576,2.576,0,0,0-.434.788,3.323,3.323,0,0,0-.163,1.086v3.5h-1.629Zm11.785,7.373h-1.6v-1.032h-.027a2.276,2.276,0,0,1-.9.9,2.366,2.366,0,0,1-1.208.339,2.688,2.688,0,0,1-2.1-.72,3.148,3.148,0,0,1-.652-2.172v-4.684h1.629v4.521a1.927,1.927,0,0,0,.38,1.371,1.341,1.341,0,0,0,1.046.407,2,2,0,0,0,.855-.163,1.476,1.476,0,0,0,.557-.421,1.653,1.653,0,0,0,.312-.638,3.017,3.017,0,0,0,.1-.8v-4.277H197.8v7.373Zm2.77-2.362a1.281,1.281,0,0,0,.543,1,2.138,2.138,0,0,0,1.127.285,3.741,3.741,0,0,0,.516-.041,2.277,2.277,0,0,0,.543-.136.955.955,0,0,0,.421-.3.7.7,0,0,0,.149-.5.731.731,0,0,0-.231-.516,1.922,1.922,0,0,0-.543-.326,4.7,4.7,0,0,0-.76-.2c-.285-.054-.57-.122-.869-.19s-.6-.149-.883-.244a2.533,2.533,0,0,1-.76-.394,1.694,1.694,0,0,1-.53-.625,1.951,1.951,0,0,1-.2-.937,1.606,1.606,0,0,1,.3-1,2.166,2.166,0,0,1,.747-.652,3.391,3.391,0,0,1,1-.353,5.752,5.752,0,0,1,1.046-.1,4.676,4.676,0,0,1,1.086.122,2.747,2.747,0,0,1,.937.394,2.15,2.15,0,0,1,.692.706,2.444,2.444,0,0,1,.353,1.046h-1.7a1.045,1.045,0,0,0-.529-.788,2.187,2.187,0,0,0-.964-.2c-.109,0-.258.014-.407.027a2.4,2.4,0,0,0-.448.109,1.061,1.061,0,0,0-.353.231.543.543,0,0,0-.149.394.6.6,0,0,0,.2.475,1.847,1.847,0,0,0,.543.312,4.715,4.715,0,0,0,.76.2c.285.054.584.122.883.19s.584.149.869.244a2.38,2.38,0,0,1,.76.394,1.959,1.959,0,0,1,.543.611,1.877,1.877,0,0,1,.2.91,1.979,1.979,0,0,1-.3,1.113,2.537,2.537,0,0,1-.774.747,3.835,3.835,0,0,1-1.059.421,5.681,5.681,0,0,1-1.154.136,4.861,4.861,0,0,1-1.29-.163,3.285,3.285,0,0,1-1.032-.475,2.278,2.278,0,0,1-.679-.8,2.615,2.615,0,0,1-.272-1.141h1.643v.014Zm5.363-5.01h1.236v-2.227h1.629V303.5h1.466v1.208h-1.466v3.938a4.16,4.16,0,0,0,.027.448.941.941,0,0,0,.1.312.53.53,0,0,0,.231.19,1.21,1.21,0,0,0,.434.068,2.825,2.825,0,0,0,.34-.014,2.935,2.935,0,0,0,.339-.054v1.263c-.176.027-.353.041-.53.054a3.365,3.365,0,0,1-.53.027,3.512,3.512,0,0,1-1.032-.122,1.482,1.482,0,0,1-.611-.353,1.263,1.263,0,0,1-.3-.584,4.637,4.637,0,0,1-.1-.815v-4.345h-1.236v-1.208Zm5.472,0h1.534v1h.027a2.017,2.017,0,0,1,.951-.923,3.078,3.078,0,0,1,1.331-.285,3.345,3.345,0,0,1,1.521.312,2.854,2.854,0,0,1,1.073.842,3.512,3.512,0,0,1,.638,1.249,5.483,5.483,0,0,1,.027,2.96,3.994,3.994,0,0,1-.584,1.236,2.889,2.889,0,0,1-.991.855,2.931,2.931,0,0,1-1.412.326,4.139,4.139,0,0,1-.706-.068,3.009,3.009,0,0,1-.679-.2,2.433,2.433,0,0,1-.6-.367,2.068,2.068,0,0,1-.462-.516h-.027v3.68h-1.629v-10.1Zm5.689,3.693a3.307,3.307,0,0,0-.136-.964,2.459,2.459,0,0,0-.394-.828,2.173,2.173,0,0,0-.638-.584,1.737,1.737,0,0,0-.883-.217,1.8,1.8,0,0,0-1.548.706,3.216,3.216,0,0,0-.516,1.9,3.516,3.516,0,0,0,.136,1.032,2.3,2.3,0,0,0,.407.815,1.942,1.942,0,0,0,.652.543,1.842,1.842,0,0,0,.883.2,1.805,1.805,0,0,0,.937-.231,2.186,2.186,0,0,0,.638-.584,2.388,2.388,0,0,0,.353-.828A4.662,4.662,0,0,0,217.081,307.2Zm2.865-6.5h1.629v1.534h-1.629Zm0,2.811h1.629v7.373h-1.629Zm3.082-2.811h1.629v10.183h-1.629Zm6.6,10.387a3.879,3.879,0,0,1-1.575-.3,3.573,3.573,0,0,1-1.168-.8,3.488,3.488,0,0,1-.72-1.236,4.828,4.828,0,0,1-.258-1.561,4.411,4.411,0,0,1,.258-1.548,3.612,3.612,0,0,1,.72-1.236,3.256,3.256,0,0,1,1.168-.8,4.119,4.119,0,0,1,1.575-.3,3.879,3.879,0,0,1,1.575.3,3.378,3.378,0,0,1,1.168.8,3.488,3.488,0,0,1,.72,1.236,4.745,4.745,0,0,1,.258,1.548,4.435,4.435,0,0,1-.258,1.561,3.843,3.843,0,0,1-.72,1.236,3.256,3.256,0,0,1-1.168.8A4.07,4.07,0,0,1,229.627,311.087Zm0-1.29a1.878,1.878,0,0,0,.937-.231,1.966,1.966,0,0,0,.652-.6,2.561,2.561,0,0,0,.38-.828,3.705,3.705,0,0,0,0-1.887,2.434,2.434,0,0,0-.38-.828,2.062,2.062,0,0,0-.652-.584,1.916,1.916,0,0,0-.937-.231,1.879,1.879,0,0,0-.937.231,2.078,2.078,0,0,0-.652.584,2.434,2.434,0,0,0-.38.828,3.705,3.705,0,0,0,0,1.887,2.436,2.436,0,0,0,.38.828,2.106,2.106,0,0,0,.652.6A1.778,1.778,0,0,0,229.627,309.8Zm4.209-6.286h1.236v-2.227H236.7V303.5h1.466v1.208H236.7v3.938a4.176,4.176,0,0,0,.027.448.942.942,0,0,0,.1.312.531.531,0,0,0,.231.19,1.212,1.212,0,0,0,.434.068,2.825,2.825,0,0,0,.339-.014,2.943,2.943,0,0,0,.339-.054v1.263c-.176.027-.353.041-.53.054a3.365,3.365,0,0,1-.529.027,3.512,3.512,0,0,1-1.032-.122,1.481,1.481,0,0,1-.611-.353,1.262,1.262,0,0,1-.3-.584,4.641,4.641,0,0,1-.1-.815v-4.345h-1.236v-1.208Z" transform="translate(2028.298 -504.612)" fill="#fff"></path>
    <path id="Path_18181" data-name="Path 18181" d="M40.011,255.588H32.557L30.262,248.5l-2.308,7.088-7.454-.014,6.028,4.385-2.308,7.088,6.028-4.386,6.028,4.386-2.295-7.088Z" transform="translate(2164.5 -459.5)" fill="#00b67a"></path>
    <path id="Path_18182" data-name="Path 18182" d="M96.636,334.5l-.516-1.6-3.72,2.7Z" transform="translate(2102.362 -532.44)" fill="#005128"></path>
  </g>
</svg>
