<?xml version="1.0" encoding="UTF-8"?>
<svg xmlns="http://www.w3.org/2000/svg" xmlns:xlink="http://www.w3.org/1999/xlink" viewBox="0 0 371.227 345.468">
  <defs>
    <clipPath id="clip-path">
      <rect id="Rectangle_2458" data-name="Rectangle 2458" width="27.629" height="20.137" fill="none"></rect>
    </clipPath>
    <clipPath id="clip-path-2">
      <rect id="Rectangle_2459" data-name="Rectangle 2459" width="27.708" height="29.635" fill="none"></rect>
    </clipPath>
    <clipPath id="clip-path-3">
      <rect id="Rectangle_2460" data-name="Rectangle 2460" width="25.408" height="44.322" fill="none"></rect>
    </clipPath>
    <clipPath id="clip-path-4">
      <rect id="Rectangle_2461" data-name="Rectangle 2461" width="138.367" height="107.013" fill="none"></rect>
    </clipPath>
  </defs>
  <g id="Group_3313" data-name="Group 3313" transform="translate(-1173.774 -29.622)">
    <path id="Path_2249" data-name="Path 2249" d="M28.048,134.968C25.376,96.914,86.5,28.315,170.378,104.72c37.6,34.253,124.414,17.7,165.916,54.877,58.641,52.525,38.111,182.336-22.006,193.638S24.1,345.319,3.587,270.144C-13,209.361,33.63,214.436,28.048,134.968" transform="translate(1173.774 -19.471)" fill="#dae6fe"></path>
    <path id="Path_2250" data-name="Path 2250" d="M478.3,99.919c15.825,12.556,19.5,26.79,19.864,36.332,3.939-11.581,8.276-22.417,12.595-32.2C480.163,81.7,496,58.613,496,58.613,511.1,71.058,514.778,84.866,515.163,94.4l.061-.131c6.157-13.048,12.435-24.7,18.03-34.377-27.7-28.491-7.1-48.771-7.1-48.771,13.6,16.494,13.507,31.985,11.529,41.272,6.088-10.1,10.921-17.233,13.18-20.48C562.554.831,589.137,0,589.137,0c-7.289,30.161-25.144,33.729-33.812,33.58C553.549,36.1,548.314,43.68,541.5,55c24.148-12.354,42.811-.181,42.811-.181-23.7,20.982-40.589,12.975-47.355,7.894-5.473,9.5-11.59,20.876-17.594,33.608-.623,1.321-1.251,2.676-1.88,4.047,22.022-18.862,43.947-9.958,43.947-9.958-20.834,27.175-40.318,19.529-46.628,15.92-4.523,10.277-9.059,21.725-13.119,33.96,21.3-17.986,42.622-9.78,42.622-9.78-19.128,25.921-37.627,21.006-45.059,17.424-8.132,26.561-13.661,56.321-11.856,85.746a2.308,2.308,0,1,1-4.608.282c-1.858-30.309,3.881-60.9,12.271-88.094-32.526-22-16.749-45.949-16.749-45.949" transform="translate(841.689 29.62)" fill="#dbdbdb"></path>
    <path id="Path_2251" data-name="Path 2251" d="M590.982,216.635c11.3,16.744,10.517,31.424,7.986,40.63,7.248-9.855,14.65-18.878,21.718-26.905-22.434-30.533-.377-47.772-.377-47.772,10.651,16.42,9.992,30.694,7.486,39.9l.1-.107c9.8-10.585,19.3-19.8,27.556-27.341-17.822-35.517,7.934-48.642,7.934-48.642,8,19.828,3.235,34.569-1.451,42.827,8.849-7.79,15.609-13.139,18.741-15.553,20.518-26.107,46.114-18.881,46.114-18.881-16.044,26.56-34.144,24.579-42.363,21.823-2.452,1.864-9.729,7.514-19.642,16.251,26.749-4.5,40.874,12.736,40.874,12.736-28.925,12.86-42.612.133-47.532-6.751-8.081,7.4-17.345,16.41-26.908,26.739-.992,1.072-2,2.175-3.012,3.292,26.685-11.344,44.9,3.755,44.9,3.755-28.058,19.629-44.33,6.464-49.258,1.121-7.411,8.435-15.187,17.983-22.747,28.425,25.733-10.726,43.588,3.526,43.588,3.526-26.054,18.947-42.209,8.683-48.216,3.028C580.71,291.6,576.9,288.9,593.1,265.5c-24.378-30.787-2.116-48.861-2.116-48.861" transform="translate(766.652 -72.839)" fill="#c4c4c4"></path>
    <path id="Path_2252" data-name="Path 2252" d="M543.507,358.167l-178.23-36.773a7.533,7.533,0,0,0-6.366,1.762l-6.594,4.685,3.523,5.014-6.931,127.679a6.26,6.26,0,0,0,4.982,6.648l176.721,40.6s5.574-3.943,7.224-5.087a8.051,8.051,0,0,0,3.5-6.112l7.154-131.77a6.259,6.259,0,0,0-4.982-6.648" transform="translate(929.58 -195.223)" fill="#bbb"></path>
    <path id="Path_2253" data-name="Path 2253" d="M508.64,520.511,330.41,483.738a6.26,6.26,0,0,1-4.982-6.648l7.154-131.769c.252-4.652,4.792-8.283,9.215-7.37l178.23,36.773a6.26,6.26,0,0,1,4.982,6.647l-7.154,131.77c-.252,4.652-4.792,8.283-9.215,7.37" transform="translate(946.014 -206.811)" fill="#fff"></path>
    <path id="Path_2254" data-name="Path 2254" d="M539.379,396.854l.841-15.483a6.26,6.26,0,0,0-4.982-6.648L357.007,337.95c-4.423-.912-8.962,2.718-9.215,7.37l-.642,11.828Z" transform="translate(930.803 -206.811)" fill="#dbdbdb"></path>
    <circle id="Ellipse_38" data-name="Ellipse 38" cx="5.394" cy="5.394" r="5.394" transform="translate(1191.225 235.289) rotate(-76.717)" fill="none" stroke="#272b47" stroke-linecap="round" stroke-linejoin="round" stroke-width="4"></circle>
    <circle id="Ellipse_39" data-name="Ellipse 39" cx="5.394" cy="5.394" r="5.394" transform="matrix(0.788, -0.615, 0.615, 0.788, 1264.92, 59.998)" fill="none" stroke="#272b47" stroke-linecap="round" stroke-linejoin="round" stroke-width="4"></circle>
    <path id="Path_2255" data-name="Path 2255" d="M1084.636,884.577l-13.427,4.307,3.025-15.659Z" transform="translate(424.034 -581.549)" fill="none" stroke="#272b47" stroke-linecap="round" stroke-linejoin="round" stroke-width="4"></path>
    <path id="Path_2256" data-name="Path 2256" d="M427.252,1006.852c-9.3-4.763-26.579-4.87-38.586-.24s-14.2,12.246-4.893,17.009,26.579,4.87,38.585.239,14.2-12.246,4.893-17.009" transform="translate(909.206 -672.524)" fill="#e4e6f2"></path>
    <path id="Path_2257" data-name="Path 2257" d="M396.129,991.131c.233.858-.014,7.333-.426,8.269-.747,2.975-3.529,5.844-8.293,8.016-10.453,4.765-26.453,4.373-35.736-.875-4.327-2.446-6.705-4.976-6.836-8.2-.179-1.739-.354-6.6-.354-6.6.311-1.07,1.7.008,2.539-1a16.927,16.927,0,0,1,7.041-5.345c10.453-4.765,26.452-4.373,35.736.875,3.91,2.211,5.995,2.1,6.329,4.859" transform="translate(932.669 -657.726)" fill="#cf9161"></path>
    <path id="Path_2258" data-name="Path 2258" d="M390.056,974.42c-9.233-5.425-25.537-5.858-36.416-.967s-12.215,13.253-2.982,18.678,25.537,5.858,36.416.967,12.215-13.253,2.982-18.678" transform="translate(932.645 -649.317)" fill="#fff"></path>
    <path id="Path_2259" data-name="Path 2259" d="M390,972.02c-9.233-5.425-25.537-5.858-36.416-.967s-12.215,13.253-2.982,18.677,25.537,5.858,36.416.967S399.231,977.445,390,972.02" transform="translate(932.685 -647.638)" fill="#f0b68b"></path>
    <path id="Path_2260" data-name="Path 2260" d="M402.113,982.811c-6.455-3.792-17.852-4.095-25.458-.676s-8.539,9.265-2.084,13.057,17.852,4.1,25.458.676,8.539-9.265,2.085-13.057" transform="translate(914.615 -656.11)" fill="#fff"></path>
    <path id="Path_2261" data-name="Path 2261" d="M376.685,983.267c7.606-3.419,19-3.116,25.458.676,2.573,1.512,3.971,3.35,4.241,5.23.215-2.264-1.18-4.548-4.268-6.362-6.455-3.792-17.853-4.095-25.458-.676-4.574,2.056-6.733,4.99-6.325,7.827.235-2.468,2.385-4.912,6.353-6.695" transform="translate(914.612 -656.11)" fill="#cf9161"></path>
    <path id="Path_2262" data-name="Path 2262" d="M398.91,1002.671a4.417,4.417,0,0,1-2.038-2.936l3.559-.268a3.364,3.364,0,0,0,1.739,2.346,3.294,3.294,0,0,0,3.252.255c2.292-1.086-3.347-4.268.658-6.166a9.449,9.449,0,0,1,7.337-.107l2.292-1.086,2.055,1.177-2.247,1.065a2.811,2.811,0,0,1,1.333,2.672l-3.437-.012a2.008,2.008,0,0,0-1.2-1.849,3.046,3.046,0,0,0-2.992-.223c-2.114,1,3.659,4.12-.591,6.134a9.752,9.752,0,0,1-7.578.132l-2.314,1.1-2.055-1.177Z" transform="translate(896.134 -666.576)" fill="#ffd4b3"></path>
    <line id="Line_1" data-name="Line 1" x2="0.2" y2="5.615" transform="translate(1303.699 347.401)" fill="none" stroke="#ffd4b3" stroke-linecap="round" stroke-linejoin="round" stroke-width="2.447"></line>
    <line id="Line_2" data-name="Line 2" x2="0.155" y2="5.463" transform="translate(1310.336 346.841)" fill="none" stroke="#ffd4b3" stroke-linecap="round" stroke-linejoin="round" stroke-width="2.447"></line>
    <line id="Line_3" data-name="Line 3" x2="0.155" y2="5.463" transform="translate(1316.619 345.325)" fill="none" stroke="#ffd4b3" stroke-linecap="round" stroke-linejoin="round" stroke-width="2.447"></line>
    <line id="Line_4" data-name="Line 4" x2="0.143" y2="5.038" transform="translate(1322.229 342.871)" fill="none" stroke="#ffd4b3" stroke-linecap="round" stroke-linejoin="round" stroke-width="2.447"></line>
    <line id="Line_5" data-name="Line 5" x1="0.007" y2="5.123" transform="translate(1326.775 339.233)" fill="none" stroke="#ffd4b3" stroke-linecap="round" stroke-linejoin="round" stroke-width="2.447"></line>
    <line id="Line_6" data-name="Line 6" x2="0.107" y2="5.465" transform="translate(1296.734 347.132)" fill="none" stroke="#ffd4b3" stroke-linecap="round" stroke-linejoin="round" stroke-width="2.447"></line>
    <line id="Line_7" data-name="Line 7" x2="0.107" y2="5.465" transform="translate(1290.385 345.886)" fill="none" stroke="#ffd4b3" stroke-linecap="round" stroke-linejoin="round" stroke-width="2.447"></line>
    <line id="Line_8" data-name="Line 8" x2="0.098" y2="5.039" transform="translate(1284.663 343.675)" fill="none" stroke="#ffd4b3" stroke-linecap="round" stroke-linejoin="round" stroke-width="2.447"></line>
    <line id="Line_9" data-name="Line 9" x2="0.252" y2="5.117" transform="translate(1279.94 340.237)" fill="none" stroke="#ffd4b3" stroke-linecap="round" stroke-linejoin="round" stroke-width="2.447"></line>
    <g id="Group_3284" data-name="Group 3284" transform="translate(1301.357 332.891)" opacity="0.29" style="mix-blend-mode: multiply;isolation: isolate">
      <g id="Group_3283" data-name="Group 3283">
        <g id="Group_3282" data-name="Group 3282" clip-path="url(#clip-path)">
          <path id="Path_2263" data-name="Path 2263" d="M425.136,1030.668s10.343-3.737,12.542-7.941c0,0,14.939-3.383,14.989-12.163,0,0,.356.682-.291,7.649,0,0-.149,4.526-6.3,8.006,0,0-7.73,4.919-20.943,4.449" transform="translate(-425.136 -1010.563)" fill="#bf865a"></path>
        </g>
      </g>
    </g>
    <path id="Path_2264" data-name="Path 2264" d="M605.925,1037.953c-9.3-4.763-26.579-4.87-38.586-.239s-14.2,12.246-4.893,17.009,26.579,4.87,38.585.24,14.2-12.246,4.893-17.009" transform="translate(784.152 -694.292)" fill="#e4e6f2"></path>
    <path id="Path_2265" data-name="Path 2265" d="M574.8,1022.231c.233.858-.014,7.333-.426,8.269-.747,2.976-3.529,5.844-8.293,8.016-10.453,4.765-26.453,4.373-35.736-.875-4.327-2.447-6.705-4.976-6.836-8.2-.179-1.74-.354-6.6-.354-6.6.311-1.07,1.7.008,2.539-1a16.926,16.926,0,0,1,7.041-5.345c10.453-4.765,26.452-4.373,35.736.875,3.91,2.211,5.995,2.1,6.329,4.859" transform="translate(807.615 -679.493)" fill="#cf9161"></path>
    <path id="Path_2266" data-name="Path 2266" d="M568.728,1005.521c-9.233-5.425-25.537-5.858-36.417-.967s-12.215,13.253-2.982,18.677,25.537,5.858,36.416.967,12.215-13.253,2.982-18.677" transform="translate(807.592 -671.085)" fill="#fff"></path>
    <path id="Path_2267" data-name="Path 2267" d="M568.671,1003.121c-9.233-5.425-25.537-5.858-36.416-.967s-12.215,13.253-2.982,18.678,25.537,5.858,36.416.967,12.215-13.253,2.982-18.678" transform="translate(807.632 -669.405)" fill="#f0b68b"></path>
    <path id="Path_2268" data-name="Path 2268" d="M580.785,1013.911c-6.455-3.792-17.852-4.1-25.458-.676s-8.539,9.265-2.085,13.057,17.852,4.1,25.458.676,8.539-9.265,2.084-13.057" transform="translate(789.563 -677.877)" fill="#fff"></path>
    <path id="Path_2269" data-name="Path 2269" d="M555.357,1014.367c7.606-3.419,19-3.116,25.458.676,2.573,1.512,3.971,3.35,4.241,5.23.215-2.264-1.18-4.548-4.268-6.362-6.455-3.792-17.853-4.095-25.458-.676-4.574,2.056-6.733,4.99-6.325,7.827.235-2.468,2.385-4.912,6.352-6.695" transform="translate(789.56 -677.877)" fill="#f2c97b"></path>
    <path id="Path_2270" data-name="Path 2270" d="M577.583,1033.771a4.418,4.418,0,0,1-2.038-2.936l3.559-.267a3.364,3.364,0,0,0,1.739,2.346,3.3,3.3,0,0,0,3.252.255c2.292-1.086-3.347-4.268.658-6.166a9.449,9.449,0,0,1,7.337-.107l2.292-1.086,2.055,1.177-2.247,1.065a2.812,2.812,0,0,1,1.333,2.672l-3.437-.012a2.008,2.008,0,0,0-1.2-1.849,3.046,3.046,0,0,0-2.992-.223c-2.114,1,3.658,4.12-.592,6.134a9.751,9.751,0,0,1-7.578.132l-2.314,1.1-2.055-1.177Z" transform="translate(771.081 -688.343)" fill="#ffd4b3"></path>
    <line id="Line_10" data-name="Line 10" x2="0.2" y2="5.615" transform="translate(1357.319 356.734)" fill="none" stroke="#ffd4b3" stroke-linecap="round" stroke-linejoin="round" stroke-width="2.447"></line>
    <line id="Line_11" data-name="Line 11" x2="0.155" y2="5.463" transform="translate(1363.956 356.174)" fill="none" stroke="#ffd4b3" stroke-linecap="round" stroke-linejoin="round" stroke-width="2.447"></line>
    <line id="Line_12" data-name="Line 12" x2="0.155" y2="5.463" transform="translate(1370.239 354.658)" fill="none" stroke="#ffd4b3" stroke-linecap="round" stroke-linejoin="round" stroke-width="2.447"></line>
    <line id="Line_13" data-name="Line 13" x2="0.143" y2="5.038" transform="translate(1375.848 352.204)" fill="none" stroke="#ffd4b3" stroke-linecap="round" stroke-linejoin="round" stroke-width="2.447"></line>
    <line id="Line_14" data-name="Line 14" x1="0.007" y2="5.123" transform="translate(1380.394 348.566)" fill="none" stroke="#ffd4b3" stroke-linecap="round" stroke-linejoin="round" stroke-width="2.447"></line>
    <line id="Line_15" data-name="Line 15" x2="0.107" y2="5.465" transform="translate(1350.354 356.465)" fill="none" stroke="#ffd4b3" stroke-linecap="round" stroke-linejoin="round" stroke-width="2.447"></line>
    <line id="Line_16" data-name="Line 16" x2="0.107" y2="5.465" transform="translate(1344.004 355.22)" fill="none" stroke="#ffd4b3" stroke-linecap="round" stroke-linejoin="round" stroke-width="2.447"></line>
    <line id="Line_17" data-name="Line 17" x2="0.098" y2="5.039" transform="translate(1338.283 353.008)" fill="none" stroke="#ffd4b3" stroke-linecap="round" stroke-linejoin="round" stroke-width="2.447"></line>
    <line id="Line_18" data-name="Line 18" x2="0.253" y2="5.117" transform="translate(1333.56 349.57)" fill="none" stroke="#ffd4b3" stroke-linecap="round" stroke-linejoin="round" stroke-width="2.447"></line>
    <path id="Path_2271" data-name="Path 2271" d="M575.584,988.488c.233.858-.014,7.333-.426,8.269-.747,2.976-3.529,5.844-8.293,8.016-10.453,4.765-26.453,4.373-35.736-.875-4.327-2.446-6.705-4.976-6.836-8.2-.179-1.739-.354-6.6-.354-6.6.311-1.07,1.7.008,2.539-1a16.927,16.927,0,0,1,7.041-5.345c10.453-4.765,26.452-4.373,35.736.875,3.91,2.211,5.995,2.1,6.329,4.859" transform="translate(807.068 -655.876)" fill="#cf9161"></path>
    <path id="Path_2272" data-name="Path 2272" d="M569.511,971.778c-9.233-5.425-25.537-5.858-36.416-.967s-12.215,13.253-2.982,18.678,25.537,5.858,36.416.967,12.215-13.253,2.982-18.678" transform="translate(807.044 -647.468)" fill="#fff"></path>
    <path id="Path_2273" data-name="Path 2273" d="M569.453,969.377c-9.233-5.425-25.537-5.858-36.416-.967s-12.215,13.253-2.982,18.678,25.537,5.858,36.416.967,12.215-13.253,2.982-18.678" transform="translate(807.084 -645.788)" fill="#ffd4b3"></path>
    <path id="Path_2274" data-name="Path 2274" d="M581.567,980.168c-6.455-3.792-17.852-4.1-25.458-.676s-8.539,9.265-2.084,13.057,17.852,4.1,25.458.676,8.539-9.265,2.085-13.057" transform="translate(789.015 -654.26)" fill="#fff"></path>
    <path id="Path_2275" data-name="Path 2275" d="M556.139,980.624c7.606-3.419,19-3.116,25.458.676,2.573,1.512,3.971,3.35,4.241,5.23.215-2.264-1.18-4.548-4.268-6.362-6.455-3.792-17.853-4.095-25.458-.676-4.574,2.056-6.733,4.99-6.325,7.827.235-2.468,2.385-4.912,6.352-6.695" transform="translate(789.012 -654.26)" fill="#cf9161"></path>
    <path id="Path_2276" data-name="Path 2276" d="M578.365,1000.028a4.417,4.417,0,0,1-2.038-2.937l3.559-.268a3.365,3.365,0,0,0,1.739,2.347,3.3,3.3,0,0,0,3.252.255c2.292-1.086-3.347-4.268.658-6.166a9.449,9.449,0,0,1,7.337-.107l2.292-1.086,2.055,1.177-2.247,1.065a2.812,2.812,0,0,1,1.333,2.672l-3.437-.012a2.008,2.008,0,0,0-1.2-1.849,3.046,3.046,0,0,0-2.992-.223c-2.114,1,3.659,4.12-.592,6.134a9.752,9.752,0,0,1-7.578.132l-2.314,1.1-2.055-1.177Z" transform="translate(770.533 -664.726)" fill="#ffd4b3"></path>
    <line id="Line_19" data-name="Line 19" x2="0.2" y2="5.615" transform="translate(1357.553 346.608)" fill="none" stroke="#ffd4b3" stroke-linecap="round" stroke-linejoin="round" stroke-width="2.447"></line>
    <line id="Line_20" data-name="Line 20" x2="0.155" y2="5.463" transform="translate(1364.19 346.048)" fill="none" stroke="#ffd4b3" stroke-linecap="round" stroke-linejoin="round" stroke-width="2.447"></line>
    <line id="Line_21" data-name="Line 21" x2="0.155" y2="5.463" transform="translate(1370.473 344.531)" fill="none" stroke="#ffd4b3" stroke-linecap="round" stroke-linejoin="round" stroke-width="2.447"></line>
    <line id="Line_22" data-name="Line 22" x2="0.143" y2="5.038" transform="translate(1376.083 342.077)" fill="none" stroke="#ffd4b3" stroke-linecap="round" stroke-linejoin="round" stroke-width="2.447"></line>
    <line id="Line_23" data-name="Line 23" x1="0.007" y2="5.123" transform="translate(1380.629 338.44)" fill="none" stroke="#ffd4b3" stroke-linecap="round" stroke-linejoin="round" stroke-width="2.447"></line>
    <line id="Line_24" data-name="Line 24" x2="0.107" y2="5.465" transform="translate(1350.588 346.339)" fill="none" stroke="#ffd4b3" stroke-linecap="round" stroke-linejoin="round" stroke-width="2.447"></line>
    <line id="Line_25" data-name="Line 25" x2="0.107" y2="5.465" transform="translate(1344.239 345.093)" fill="none" stroke="#ffd4b3" stroke-linecap="round" stroke-linejoin="round" stroke-width="2.447"></line>
    <line id="Line_26" data-name="Line 26" x2="0.098" y2="5.039" transform="translate(1338.518 342.882)" fill="none" stroke="#ffd4b3" stroke-linecap="round" stroke-linejoin="round" stroke-width="2.447"></line>
    <line id="Line_27" data-name="Line 27" x2="0.253" y2="5.117" transform="translate(1333.795 339.443)" fill="none" stroke="#ffd4b3" stroke-linecap="round" stroke-linejoin="round" stroke-width="2.447"></line>
    <g id="Group_3287" data-name="Group 3287" transform="translate(1354.977 332.726)" opacity="0.29" style="mix-blend-mode: multiply;isolation: isolate">
      <g id="Group_3286" data-name="Group 3286">
        <g id="Group_3285" data-name="Group 3285" clip-path="url(#clip-path-2)">
          <path id="Path_2277" data-name="Path 2277" d="M603.808,1039.616s11.836-4.131,12.777-17.342c0,0,14.872-3.481,14.922-12.261,0,0,.106,6.56-.392,7.988,0,0,.58,2.193-.067,9.161,0,0-.149,4.526-6.3,8.006,0,0-7.73,4.919-20.943,4.449" transform="translate(-603.808 -1010.013)" fill="#bf865a"></path>
        </g>
      </g>
    </g>
    <path id="Path_2278" data-name="Path 2278" d="M770.178,1075.036c-9.256-4.855-26.53-5.134-38.581-.623s-14.318,12.1-5.061,16.96,26.53,5.134,38.581.623,14.318-12.1,5.062-16.959" transform="translate(669.258 -720.115)" fill="#e4e6f2"></path>
    <path id="Path_2279" data-name="Path 2279" d="M756.9,1064.714a33.6,33.6,0,0,1-.307,7.6c-.645,2.738-3.126,5.386-7.4,7.4-9.376,4.426-23.8,4.139-32.213-.642-3.922-2.229-6.089-4.542-6.237-7.5-.178-1.6-.38-6.064-.38-6.064.27-.985,1.531,0,2.278-.932a15.189,15.189,0,0,1,6.3-4.943c9.376-4.426,23.8-4.139,32.213.642,3.544,2.013,5.422,1.9,5.749,4.436" transform="translate(676.591 -709.82)" fill="#cf9161"></path>
    <path id="Path_2280" data-name="Path 2280" d="M751.353,1049.387c-8.371-4.943-23.068-5.267-32.827-.723s-10.885,12.233-2.514,17.176,23.068,5.267,32.827.723,10.885-12.233,2.514-17.176" transform="translate(676.563 -702.094)" fill="#fff"></path>
    <path id="Path_2281" data-name="Path 2281" d="M751.279,1047.182c-8.371-4.943-23.068-5.267-32.827-.723s-10.885,12.233-2.514,17.176,23.068,5.267,32.827.723,10.885-12.233,2.514-17.176" transform="translate(676.615 -700.551)" fill="#f0b68b"></path>
    <path id="Path_2282" data-name="Path 2282" d="M762.208,1057.127c-5.852-3.455-16.126-3.682-22.949-.506s-7.61,8.552-1.758,12.008,16.126,3.682,22.949.506,7.609-8.552,1.757-12.007" transform="translate(660.341 -708.339)" fill="#fff"></path>
    <path id="Path_2283" data-name="Path 2283" d="M739.3,1057.662c6.822-3.176,17.1-2.95,22.949.506,2.333,1.377,3.609,3.06,3.87,4.787.173-2.081-1.106-4.174-3.906-5.827-5.852-3.456-16.126-3.682-22.949-.506-4.1,1.91-6.021,4.616-5.628,7.221.189-2.269,2.1-4.524,5.663-6.18" transform="translate(660.339 -708.34)" fill="#f2c97b"></path>
    <path id="Path_2284" data-name="Path 2284" d="M759.5,1075.388a4.089,4.089,0,0,1-1.864-2.689l3.205-.262a3.108,3.108,0,0,0,1.589,2.148,2.923,2.923,0,0,0,2.933.22c2.055-1.009-3.056-3.906.536-5.669a8.361,8.361,0,0,1,6.611-.132l2.055-1.008,1.863,1.072-2.015.989a2.616,2.616,0,0,1,1.226,2.449l-3.1,0a1.86,1.86,0,0,0-1.1-1.694,2.7,2.7,0,0,0-2.7-.191c-1.9.93,3.335,3.769-.476,5.64a8.63,8.63,0,0,1-6.828.156l-2.075,1.018-1.863-1.072Z" transform="translate(643.599 -717.869)" fill="#ffd4b3"></path>
    <line id="Line_28" data-name="Line 28" x2="0.233" y2="5.158" transform="translate(1411 367.868)" fill="none" stroke="#ffd4b3" stroke-linecap="round" stroke-linejoin="round" stroke-width="2.447"></line>
    <line id="Line_29" data-name="Line 29" x2="0.191" y2="5.019" transform="translate(1416.976 367.323)" fill="none" stroke="#ffd4b3" stroke-linecap="round" stroke-linejoin="round" stroke-width="2.447"></line>
    <line id="Line_30" data-name="Line 30" x2="0.191" y2="5.019" transform="translate(1422.624 365.902)" fill="none" stroke="#ffd4b3" stroke-linecap="round" stroke-linejoin="round" stroke-width="2.447"></line>
    <line id="Line_31" data-name="Line 31" x2="0.176" y2="4.628" transform="translate(1427.656 363.621)" fill="none" stroke="#ffd4b3" stroke-linecap="round" stroke-linejoin="round" stroke-width="2.447"></line>
    <line id="Line_32" data-name="Line 32" x2="0.041" y2="4.707" transform="translate(1431.726 360.258)" fill="none" stroke="#ffd4b3" stroke-linecap="round" stroke-linejoin="round" stroke-width="2.447"></line>
    <line id="Line_33" data-name="Line 33" x2="0.147" y2="5.021" transform="translate(1404.72 367.653)" fill="none" stroke="#ffd4b3" stroke-linecap="round" stroke-linejoin="round" stroke-width="2.447"></line>
    <line id="Line_34" data-name="Line 34" x2="0.147" y2="5.021" transform="translate(1398.987 366.537)" fill="none" stroke="#ffd4b3" stroke-linecap="round" stroke-linejoin="round" stroke-width="2.447"></line>
    <line id="Line_35" data-name="Line 35" x2="0.136" y2="4.63" transform="translate(1393.81 364.531)" fill="none" stroke="#ffd4b3" stroke-linecap="round" stroke-linejoin="round" stroke-width="2.447"></line>
    <line id="Line_36" data-name="Line 36" x2="0.275" y2="4.701" transform="translate(1389.522 361.393)" fill="none" stroke="#ffd4b3" stroke-linecap="round" stroke-linejoin="round" stroke-width="2.447"></line>
    <path id="Path_2285" data-name="Path 2285" d="M754.79,1033.73a33.608,33.608,0,0,1-.307,7.6c-.645,2.738-3.126,5.386-7.4,7.4-9.376,4.426-23.8,4.139-32.213-.642-3.922-2.229-6.089-4.542-6.237-7.5-.178-1.6-.38-6.064-.38-6.064.27-.985,1.531,0,2.278-.932a15.19,15.19,0,0,1,6.3-4.944c9.376-4.426,23.8-4.139,32.213.642,3.544,2.013,5.422,1.9,5.749,4.436" transform="translate(678.067 -688.134)" fill="#cf9161"></path>
    <path id="Path_2286" data-name="Path 2286" d="M749.245,1018.4c-8.371-4.943-23.068-5.267-32.827-.723s-10.885,12.233-2.514,17.176,23.068,5.267,32.827.723,10.885-12.233,2.514-17.176" transform="translate(678.039 -680.409)" fill="#fff"></path>
    <path id="Path_2287" data-name="Path 2287" d="M749.171,1016.2c-8.371-4.943-23.068-5.267-32.827-.723s-10.885,12.233-2.514,17.176,23.068,5.267,32.827.723,10.884-12.233,2.514-17.176" transform="translate(678.091 -678.865)" fill="#f0b68b"></path>
    <path id="Path_2288" data-name="Path 2288" d="M760.1,1026.143c-5.852-3.455-16.126-3.682-22.949-.506s-7.609,8.552-1.757,12.008,16.126,3.682,22.949.506,7.609-8.552,1.757-12.008" transform="translate(661.816 -686.654)" fill="#fff"></path>
    <path id="Path_2289" data-name="Path 2289" d="M737.189,1026.677c6.823-3.176,17.1-2.95,22.949.506,2.333,1.377,3.609,3.06,3.87,4.787.173-2.081-1.106-4.174-3.905-5.827-5.852-3.456-16.126-3.682-22.949-.506-4.1,1.91-6.022,4.616-5.628,7.221.189-2.269,2.1-4.524,5.663-6.181" transform="translate(661.813 -686.653)" fill="#cf9161"></path>
    <path id="Path_2290" data-name="Path 2290" d="M757.388,1044.4a4.089,4.089,0,0,1-1.864-2.689l3.205-.262a3.108,3.108,0,0,0,1.589,2.148,2.923,2.923,0,0,0,2.933.22c2.055-1.009-3.056-3.906.536-5.669a8.361,8.361,0,0,1,6.611-.132l2.055-1.008,1.863,1.072-2.016.989a2.616,2.616,0,0,1,1.226,2.449l-3.1,0a1.859,1.859,0,0,0-1.1-1.694,2.7,2.7,0,0,0-2.7-.191c-1.9.93,3.335,3.769-.476,5.64a8.63,8.63,0,0,1-6.828.156l-2.075,1.018-1.863-1.072Z" transform="translate(645.074 -696.183)" fill="#ffd4b3"></path>
    <line id="Line_37" data-name="Line 37" x2="0.233" y2="5.158" transform="translate(1410.367 358.57)" fill="none" stroke="#ffd4b3" stroke-linecap="round" stroke-linejoin="round" stroke-width="2.447"></line>
    <line id="Line_38" data-name="Line 38" x2="0.191" y2="5.019" transform="translate(1416.343 358.025)" fill="none" stroke="#ffd4b3" stroke-linecap="round" stroke-linejoin="round" stroke-width="2.447"></line>
    <line id="Line_39" data-name="Line 39" x2="0.191" y2="5.019" transform="translate(1421.991 356.603)" fill="none" stroke="#ffd4b3" stroke-linecap="round" stroke-linejoin="round" stroke-width="2.447"></line>
    <line id="Line_40" data-name="Line 40" x2="0.176" y2="4.628" transform="translate(1427.024 354.323)" fill="none" stroke="#ffd4b3" stroke-linecap="round" stroke-linejoin="round" stroke-width="2.447"></line>
    <line id="Line_41" data-name="Line 41" x2="0.041" y2="4.707" transform="translate(1431.093 350.96)" fill="none" stroke="#ffd4b3" stroke-linecap="round" stroke-linejoin="round" stroke-width="2.447"></line>
    <line id="Line_42" data-name="Line 42" x2="0.147" y2="5.021" transform="translate(1404.088 358.354)" fill="none" stroke="#ffd4b3" stroke-linecap="round" stroke-linejoin="round" stroke-width="2.447"></line>
    <line id="Line_43" data-name="Line 43" x2="0.147" y2="5.021" transform="translate(1398.354 357.239)" fill="none" stroke="#ffd4b3" stroke-linecap="round" stroke-linejoin="round" stroke-width="2.447"></line>
    <line id="Line_44" data-name="Line 44" x2="0.136" y2="4.63" transform="translate(1393.178 355.233)" fill="none" stroke="#ffd4b3" stroke-linecap="round" stroke-linejoin="round" stroke-width="2.447"></line>
    <line id="Line_45" data-name="Line 45" x2="0.275" y2="4.701" transform="translate(1388.89 352.094)" fill="none" stroke="#ffd4b3" stroke-linecap="round" stroke-linejoin="round" stroke-width="2.447"></line>
    <path id="Path_2291" data-name="Path 2291" d="M754.5,1005.176a33.612,33.612,0,0,1-.307,7.6c-.645,2.738-3.126,5.386-7.4,7.4-9.376,4.426-23.8,4.139-32.213-.642-3.922-2.229-6.089-4.542-6.237-7.5-.178-1.6-.38-6.064-.38-6.064.27-.985,1.531,0,2.278-.932a15.19,15.19,0,0,1,6.3-4.943c9.376-4.426,23.8-4.139,32.213.642,3.544,2.013,5.422,1.9,5.749,4.436" transform="translate(678.268 -668.149)" fill="#cf9161"></path>
    <path id="Path_2292" data-name="Path 2292" d="M748.957,989.849c-8.371-4.943-23.068-5.267-32.827-.723s-10.885,12.233-2.514,17.176,23.068,5.267,32.827.723,10.885-12.233,2.514-17.176" transform="translate(678.24 -660.424)" fill="#fff"></path>
    <path id="Path_2293" data-name="Path 2293" d="M748.883,987.643c-8.371-4.943-23.068-5.267-32.827-.723s-10.885,12.233-2.514,17.176,23.068,5.267,32.827.723,10.885-12.233,2.514-17.176" transform="translate(678.292 -658.88)" fill="#f0b68b"></path>
    <path id="Path_2294" data-name="Path 2294" d="M759.812,997.589c-5.852-3.455-16.126-3.682-22.949-.506s-7.609,8.552-1.757,12.008,16.126,3.682,22.949.506,7.609-8.552,1.757-12.008" transform="translate(662.018 -666.669)" fill="#fff"></path>
    <path id="Path_2295" data-name="Path 2295" d="M736.9,998.123c6.822-3.176,17.1-2.95,22.949.506,2.333,1.377,3.609,3.06,3.87,4.787.173-2.081-1.106-4.174-3.905-5.827-5.852-3.456-16.127-3.682-22.949-.506-4.1,1.91-6.021,4.616-5.628,7.221.189-2.269,2.1-4.524,5.663-6.181" transform="translate(662.016 -666.668)" fill="#cf9161"></path>
    <path id="Path_2296" data-name="Path 2296" d="M757.1,1015.849a4.09,4.09,0,0,1-1.864-2.689l3.205-.262a3.108,3.108,0,0,0,1.589,2.148,2.923,2.923,0,0,0,2.933.22c2.055-1.009-3.056-3.906.536-5.669a8.36,8.36,0,0,1,6.611-.132l2.055-1.008,1.863,1.072-2.015.989a2.616,2.616,0,0,1,1.226,2.449l-3.1,0a1.86,1.86,0,0,0-1.1-1.694,2.7,2.7,0,0,0-2.7-.191c-1.9.93,3.335,3.769-.476,5.639a8.629,8.629,0,0,1-6.828.156l-2.075,1.018-1.863-1.072Z" transform="translate(645.276 -676.198)" fill="#ffd4b3"></path>
    <line id="Line_46" data-name="Line 46" x2="0.233" y2="5.158" transform="translate(1410.281 350.001)" fill="none" stroke="#ffd4b3" stroke-linecap="round" stroke-linejoin="round" stroke-width="2.447"></line>
    <line id="Line_47" data-name="Line 47" x2="0.191" y2="5.019" transform="translate(1416.257 349.456)" fill="none" stroke="#ffd4b3" stroke-linecap="round" stroke-linejoin="round" stroke-width="2.447"></line>
    <line id="Line_48" data-name="Line 48" x2="0.191" y2="5.019" transform="translate(1421.905 348.034)" fill="none" stroke="#ffd4b3" stroke-linecap="round" stroke-linejoin="round" stroke-width="2.447"></line>
    <line id="Line_49" data-name="Line 49" x2="0.176" y2="4.628" transform="translate(1426.937 345.754)" fill="none" stroke="#ffd4b3" stroke-linecap="round" stroke-linejoin="round" stroke-width="2.447"></line>
    <line id="Line_50" data-name="Line 50" x2="0.041" y2="4.707" transform="translate(1431.007 342.391)" fill="none" stroke="#ffd4b3" stroke-linecap="round" stroke-linejoin="round" stroke-width="2.447"></line>
    <line id="Line_51" data-name="Line 51" x2="0.147" y2="5.021" transform="translate(1404.001 349.785)" fill="none" stroke="#ffd4b3" stroke-linecap="round" stroke-linejoin="round" stroke-width="2.447"></line>
    <line id="Line_52" data-name="Line 52" x2="0.147" y2="5.021" transform="translate(1398.268 348.67)" fill="none" stroke="#ffd4b3" stroke-linecap="round" stroke-linejoin="round" stroke-width="2.447"></line>
    <line id="Line_53" data-name="Line 53" x2="0.136" y2="4.63" transform="translate(1393.091 346.664)" fill="none" stroke="#ffd4b3" stroke-linecap="round" stroke-linejoin="round" stroke-width="2.447"></line>
    <line id="Line_54" data-name="Line 54" x2="0.275" y2="4.701" transform="translate(1388.803 343.525)" fill="none" stroke="#ffd4b3" stroke-linecap="round" stroke-linejoin="round" stroke-width="2.447"></line>
    <path id="Path_2297" data-name="Path 2297" d="M754.21,976.271a33.6,33.6,0,0,1-.307,7.6c-.645,2.738-3.126,5.386-7.4,7.4-9.376,4.426-23.8,4.139-32.213-.642-3.922-2.229-6.089-4.542-6.237-7.5-.178-1.6-.38-6.064-.38-6.064.27-.984,1.531,0,2.278-.932a15.189,15.189,0,0,1,6.3-4.943c9.376-4.426,23.8-4.139,32.213.642,3.544,2.013,5.422,1.9,5.749,4.436" transform="translate(678.473 -647.918)" fill="#cf9161"></path>
    <path id="Path_2298" data-name="Path 2298" d="M748.665,960.944c-8.371-4.943-23.068-5.267-32.827-.723s-10.885,12.233-2.514,17.176,23.068,5.267,32.827.723,10.884-12.233,2.514-17.176" transform="translate(678.445 -640.193)" fill="#fff"></path>
    <path id="Path_2299" data-name="Path 2299" d="M748.591,958.739c-8.371-4.943-23.068-5.267-32.827-.723s-10.885,12.233-2.514,17.176,23.068,5.267,32.827.723,10.885-12.233,2.514-17.176" transform="translate(678.497 -638.65)" fill="#ffd4b3"></path>
    <path id="Path_2300" data-name="Path 2300" d="M759.52,968.684c-5.852-3.455-16.126-3.682-22.949-.506s-7.609,8.552-1.757,12.008,16.126,3.682,22.949.506,7.609-8.552,1.757-12.008" transform="translate(662.222 -646.438)" fill="#fff"></path>
    <path id="Path_2301" data-name="Path 2301" d="M736.608,969.219c6.822-3.176,17.1-2.95,22.949.506,2.333,1.377,3.609,3.06,3.87,4.787.173-2.081-1.106-4.174-3.906-5.827-5.852-3.456-16.126-3.682-22.949-.506-4.1,1.91-6.021,4.616-5.628,7.221.189-2.269,2.1-4.524,5.663-6.181" transform="translate(662.22 -646.438)" fill="#d1905e"></path>
    <path id="Path_2302" data-name="Path 2302" d="M756.808,986.944a4.09,4.09,0,0,1-1.864-2.689l3.205-.262a3.108,3.108,0,0,0,1.589,2.148,2.923,2.923,0,0,0,2.933.22c2.055-1.009-3.056-3.906.536-5.669a8.361,8.361,0,0,1,6.611-.132l2.055-1.008,1.863,1.072-2.015.989a2.616,2.616,0,0,1,1.226,2.449l-3.1,0a1.86,1.86,0,0,0-1.1-1.694,2.7,2.7,0,0,0-2.7-.191c-1.9.93,3.335,3.769-.476,5.64a8.629,8.629,0,0,1-6.828.156L756.676,989l-1.863-1.072Z" transform="translate(645.48 -655.967)" fill="#f5ba8c"></path>
    <line id="Line_55" data-name="Line 55" x2="0.233" y2="5.158" transform="translate(1410.193 341.327)" fill="none" stroke="#ffd4b3" stroke-linecap="round" stroke-linejoin="round" stroke-width="2.447"></line>
    <line id="Line_56" data-name="Line 56" x2="0.191" y2="5.019" transform="translate(1416.169 340.782)" fill="none" stroke="#ffd4b3" stroke-linecap="round" stroke-linejoin="round" stroke-width="2.447"></line>
    <line id="Line_57" data-name="Line 57" x2="0.191" y2="5.019" transform="translate(1421.817 339.36)" fill="none" stroke="#ffd4b3" stroke-linecap="round" stroke-linejoin="round" stroke-width="2.447"></line>
    <line id="Line_58" data-name="Line 58" x2="0.176" y2="4.629" transform="translate(1426.85 337.08)" fill="none" stroke="#ffd4b3" stroke-linecap="round" stroke-linejoin="round" stroke-width="2.447"></line>
    <line id="Line_59" data-name="Line 59" x2="0.041" y2="4.707" transform="translate(1430.919 333.717)" fill="none" stroke="#ffd4b3" stroke-linecap="round" stroke-linejoin="round" stroke-width="2.447"></line>
    <line id="Line_60" data-name="Line 60" x2="0.147" y2="5.021" transform="translate(1403.914 341.111)" fill="none" stroke="#ffd4b3" stroke-linecap="round" stroke-linejoin="round" stroke-width="2.447"></line>
    <line id="Line_61" data-name="Line 61" x2="0.147" y2="5.021" transform="translate(1398.18 339.995)" fill="none" stroke="#ffd4b3" stroke-linecap="round" stroke-linejoin="round" stroke-width="2.447"></line>
    <line id="Line_62" data-name="Line 62" x2="0.136" y2="4.63" transform="translate(1393.003 337.989)" fill="none" stroke="#ffd4b3" stroke-linecap="round" stroke-linejoin="round" stroke-width="2.447"></line>
    <line id="Line_63" data-name="Line 63" x2="0.275" y2="4.701" transform="translate(1388.715 334.851)" fill="none" stroke="#ffd4b3" stroke-linecap="round" stroke-linejoin="round" stroke-width="2.447"></line>
    <g id="Group_3290" data-name="Group 3290" transform="translate(1408.184 328.701)" opacity="0.29" style="mix-blend-mode: multiply;isolation: isolate">
      <g id="Group_3289" data-name="Group 3289">
        <g id="Group_3288" data-name="Group 3288" clip-path="url(#clip-path-3)">
          <path id="Path_2303" data-name="Path 2303" d="M781.106,1040.923s10.3-11.869,10.732-33.115c0,0,13.078-2.829,13.818-11.206a55.775,55.775,0,0,1-.167,6.207s.652,1.741.1,8.6c0,0,.585,2.235.141,7.975,0,0,1.358.909.509,10.437,0,0-.24,4.474-7.161,7.832,0,0-6.3,3.328-17.969,3.268" transform="translate(-781.106 -996.602)" fill="#bf865a"></path>
        </g>
      </g>
    </g>
    <path id="Path_2304" data-name="Path 2304" d="M323.4,877.663h0a1.482,1.482,0,0,0-.67,1.979l.87,1.762a1.482,1.482,0,0,0,1.979.67h0a1.482,1.482,0,0,0,.671-1.979l-.87-1.762a1.482,1.482,0,0,0-1.979-.671" transform="translate(948.003 -584.549)" fill="#e5aba0"></path>
    <path id="Path_2305" data-name="Path 2305" d="M173.223,890.378h0a1.479,1.479,0,0,0-1.891.878l-.681,1.861a1.475,1.475,0,0,0,2.77,1.014l.681-1.861a1.479,1.479,0,0,0-.879-1.892" transform="translate(1054.399 -593.492)" fill="#e5aba0"></path>
    <path id="Path_2306" data-name="Path 2306" d="M159.6,1084.108c5.311-2.317,14.47-2.846,20.455-1.183a13.6,13.6,0,0,1,2.583.977,25.911,25.911,0,0,1,12.428-.162c4.206,1.169,4.59,3.436.857,5.064-3.586,1.564-9.664,1.965-13.865.957-.246.126-.5.25-.783.371-5.311,2.317-14.47,2.846-20.455,1.183s-6.532-4.89-1.22-7.207" transform="translate(1064.626 -727.64)" fill="#e4e6f2"></path>
    <path id="Path_2307" data-name="Path 2307" d="M228.035,905.707l12.572,1.6-.6-13.025-12.572-1.6Z" transform="translate(1014.594 -595.167)" fill="#614232"></path>
    <path id="Path_2308" data-name="Path 2308" d="M254.4,1088.882l2.55.312c1.865-.342,3.049-.879,3.657-.26l.157.3c.227.44-.358,1.215-1.043,1.515l-5.064,2.278c-.99.283-2.032-.013-2.041-.906,0,0-.006-2.5.446-2.618.907-.241.546-.394,1.338-.62" transform="translate(996.966 -732.325)" fill="#061a17"></path>
    <path id="Path_2309" data-name="Path 2309" d="M174.062,1073.4l1.074,2.347c1.255,1.4,2.365,2.473,2.174,3.333l-.141.125c-.244.436-1.263.182-1.867-.235l-4.518-3.062c-.75-.688-1.049-1.74-.319-2.241,0,0,2.053-1.384,2.388-1.065.672.641.609.249,1.209.8" transform="translate(1054.759 -721.059)" fill="#061a17"></path>
    <path id="Path_2310" data-name="Path 2310" d="M256.782,1084.064c-.008,1.048-2.535,1.135-2.527.087l.025-3.4,2.527-.087Z" transform="translate(995.821 -726.732)" fill="#e5aba0"></path>
    <path id="Path_2311" data-name="Path 2311" d="M245,935.635c-1.525,2.151-5.308,2.293-6.123.922-.473-8.293-3.254-17.018-.075-28.6l-3.686-34.507,15.368,2.381-1.824,35.757Z" transform="translate(1009.218 -581.707)" fill="#22374b"></path>
    <path id="Path_2312" data-name="Path 2312" d="M179.7,1066.047c-.519,1.022-3.375-.357-2.856-1.378l1.687-3.321,2.856,1.378Z" transform="translate(1050.043 -713.217)" fill="#e5aba0"></path>
    <path id="Path_2313" data-name="Path 2313" d="M184.074,938.827c-2.017,1.41-4.758-1.173-5.192-2.652,1.89-7.506,2.483-16.537,8.413-28.309l-.082-15.8c-.526-3.037.107-5.059.919-9.575l13.675,3.646-7,30.416a19.813,19.813,0,0,1-1.13,2.5Z" transform="translate(1048.574 -588.032)" fill="#22374b"></path>
    <path id="Path_2314" data-name="Path 2314" d="M242.4,736.8c.309,2.443-1.046,3.749-3.026,2.917s-2.853-3.78-3.3-6.2c-.212-1.162.2-3.477,2.176-2.645a8.031,8.031,0,0,1,4.145,5.93" transform="translate(1008.578 -481.794)" fill="#de5840"></path>
    <path id="Path_2315" data-name="Path 2315" d="M255.821,728.656c1.079,3.34-3.036,5.738-5.715,4.255s-4.9-5.528-4.967-9.038a3.985,3.985,0,0,1,5.942-3.807c2.679,1.482,3.964,6.188,4.739,8.59" transform="translate(1002.201 -473.986)" fill="#e5aba0"></path>
    <path id="Path_2316" data-name="Path 2316" d="M247.4,760.228l-.363-.076a2.127,2.127,0,0,1-1.629-2.666l1.854-6.818a2.451,2.451,0,0,1,2.825-1.731l.363.076a2.127,2.127,0,0,1,1.629,2.666l-.806,6.756c-.329,1.209-2.648,2.05-3.872,1.793" transform="translate(1002.068 -494.526)" fill="#e5aba0"></path>
    <path id="Path_2317" data-name="Path 2317" d="M236.284,730.45s-.085,1.94,4.2,1.257c3.231-.515,1.49-5.587,4.4-7.1,3.934-2.052,2.166-5.914.329-7.117s-4.061-.356-6.8.7c-2.9,1.121-6.8,3.583-2.125,12.261" transform="translate(1009.918 -472.135)" fill="#283e67"></path>
    <path id="Path_2318" data-name="Path 2318" d="M266.264,743.808a1.545,1.545,0,1,1-1.573-1.517,1.546,1.546,0,0,1,1.573,1.517" transform="translate(989.579 -489.908)" fill="#e5aba0"></path>
    <path id="Path_2319" data-name="Path 2319" d="M179.273,868.042l-1.862,6.015-2.181-.179.529-8.669Z" transform="translate(1051.13 -575.938)" fill="#e5aba0"></path>
    <path id="Path_2320" data-name="Path 2320" d="M205.118,798.13c1.761-6.173,3.45-8.623,3.683-11.418.138-1.651-.813-5.844-1.079-8.427-.464-13.332-.559-12.942,3.752-14.041l2.907-.461a13.4,13.4,0,0,1,4.134-.112c3.821.75,7.108,3.19,9.89,4.535,2.477,1.2.49,3.146.619,6.076a114.467,114.467,0,0,0-.18,25.8c-1.094,6.133-21.236,2.051-23.725-1.952" transform="translate(1030.212 -504.794)" fill="#fff"></path>
    <path id="Path_2321" data-name="Path 2321" d="M272.924,802.475l-2.106,2.494c-2.117,10.624-.446,20.629-4.507,25.307,2.611-.128,4.441.172,6.15-1.212.1.008.7-.416.757-1.731l-1-13.5c-.121-4.463,2.616-8.115.7-11.354" transform="translate(987.382 -532.031)" fill="#fff"></path>
    <path id="Path_2322" data-name="Path 2322" d="M272.511,811.011l-2.183,2.223a86.693,86.693,0,0,1-11.8-11.545,77.292,77.292,0,0,1-10.5-17.466l1.8.083,9.807-.938s1.9,5.4,2.8,7.929a41.921,41.921,0,0,0,2.954,8.367,104.379,104.379,0,0,0,7.117,11.348" transform="translate(1000.178 -518.657)" fill="#fff"></path>
    <path id="Path_2323" data-name="Path 2323" d="M186.833,772.063s-8.977,12.7-11.044,16.27c-1.3,2.249-.843,19.229-.843,19.229l2.816,1.285,5.295-17.893,9-10.264Z" transform="translate(1051.385 -510.746)" fill="#fff"></path>
    <path id="Path_2324" data-name="Path 2324" d="M198.458,733.571s-.685,6.4-4.31,8.141-7.781,7.056-7.23,13.626-5.015,8.114-3.969,12.434,3.614,2.511,8.745,4.905,11.436-.724,10.374-7.2-.877-6.9,2.219-11.036,2.79-6.142,2.607-14.224l-2.906-3.033Z" transform="translate(1045.82 -483.805)" fill="#283e67"></path>
    <path id="Path_2325" data-name="Path 2325" d="M263.472,1089.991l-2.856.927.019-1.312.6-.05,1.312.16,1.351-.27s.472.315-.43.546" transform="translate(991.369 -732.882)" fill="#e5aba0"></path>
    <path id="Path_2326" data-name="Path 2326" d="M177.409,1074.91s1.165,2.588,2.007,3.02a5.342,5.342,0,0,0,1.855.493l-.981-1.061-.1-2.4Z" transform="translate(1049.605 -722.709)" fill="#e5aba0"></path>
    <path id="Path_2327" data-name="Path 2327" d="M528.879,582.821,385.106,552.963a7.4,7.4,0,0,1-5.551-7.564l5.218-84.22a5.24,5.24,0,0,1,6.335-5.1L534.882,485.94a7.406,7.406,0,0,1,5.551,7.564l-5.219,84.22a5.239,5.239,0,0,1-6.335,5.1" transform="translate(908.132 -289.508)" fill="#f2f2f2"></path>
    <g id="Group_3293" data-name="Group 3293" transform="translate(1300.435 176.437)" opacity="0.4">
      <g id="Group_3292" data-name="Group 3292">
        <g id="Group_3291" data-name="Group 3291" clip-path="url(#clip-path-4)">
          <path id="Path_2328" data-name="Path 2328" d="M562.959,713.472,428.51,682.955l.384-7.7,134.449,30.517Z" transform="translate(-426.576 -619.427)" fill="#bbb"></path>
          <path id="Path_2329" data-name="Path 2329" d="M568.288,606.767,433.839,576.25l.384-7.7,134.449,30.517Z" transform="translate(-430.305 -544.744)" fill="#bbb"></path>
          <path id="Path_2330" data-name="Path 2330" d="M430.232,493.223l-4.169,75.655,133.246,28.958" transform="translate(-424.863 -492.023)" fill="none" stroke="#bbb" stroke-linecap="round" stroke-linejoin="round" stroke-width="8"></path>
        </g>
      </g>
    </g>
    <path id="Path_2331" data-name="Path 2331" d="M1058.184,588.9l-34.15-6.44a3.591,3.591,0,0,1-2.794-3.7l2.034-29.743a2.7,2.7,0,0,1,3.223-2.57l34.15,6.44a3.591,3.591,0,0,1,2.794,3.7l-2.034,29.744a2.7,2.7,0,0,1-3.223,2.57" transform="translate(459.013 -352.8)" fill="#f2f2f2"></path>
    <path id="Path_2332" data-name="Path 2332" d="M1071.87,594.142h0c-.794-1.028-.157-2.4,1.01-2.178a2.058,2.058,0,0,0,2.481-2.06l.026-.716a2.985,2.985,0,0,0-2.3-2.978h0a1.533,1.533,0,0,1-.842-2.533,2.6,2.6,0,0,0,.127-3.563l-.462-.6a2.391,2.391,0,0,0-3.382-.649c-.856.711-2.245-.176-2.2-1.4a2.986,2.986,0,0,0-2.3-2.978l-.68-.13a2.058,2.058,0,0,0-2.481,2.06c-.044,1.229-1.477,1.574-2.271.547a2.39,2.39,0,0,0-3.382-.649l-.5.414a2.6,2.6,0,0,0-.128,3.563c.794,1.027.157,2.4-1.01,2.177a2.059,2.059,0,0,0-2.482,2.06l-.026.716a2.986,2.986,0,0,0,2.3,2.978,1.533,1.533,0,0,1,.842,2.533,2.6,2.6,0,0,0-.128,3.563l.463.6a2.39,2.39,0,0,0,3.381.649c.856-.711,2.245.176,2.2,1.4a2.985,2.985,0,0,0,2.3,2.978l.68.131a2.059,2.059,0,0,0,2.481-2.06c.044-1.229,1.477-1.574,2.271-.547a2.39,2.39,0,0,0,3.382.649l.5-.414a2.6,2.6,0,0,0,.127-3.562m-13-3.311c-2.23-2.886-2.089-6.845.316-8.842s6.163-1.276,8.393,1.611,2.089,6.845-.316,8.841-6.163,1.276-8.393-1.61" transform="translate(438.132 -372.34)" fill="#283e67"></path>
    <path id="Path_2333" data-name="Path 2333" d="M251.031,458.639l-60.445-13.525c-2.44-.546-4.285-3.328-4.1-6.182l3.121-48.121c.185-2.854,2.333-4.743,4.773-4.2l60.445,13.525c2.44.546,4.285,3.328,4.1,6.182L255.8,454.443c-.185,2.854-2.333,4.742-4.773,4.2" transform="translate(1043.261 -240.904)" fill="#fff"></path>
    <path id="Path_2334" data-name="Path 2334" d="M224.259,491.518l-2.208-.483,1.446-22.112,2.208.483Z" transform="translate(1018.36 -298.578)" fill="#344e7b"></path>
    <path id="Path_2335" data-name="Path 2335" d="M237.562,510.793l-2.208-.483.987-15.095,2.208.483Z" transform="translate(1009.05 -316.98)" fill="#e55f1b"></path>
    <path id="Path_2336" data-name="Path 2336" d="M257.148,541.759l-2.208-.483.239-3.654,2.208.483Z" transform="translate(995.342 -346.66)" fill="#344e7b"></path>
    <path id="Path_2337" data-name="Path 2337" d="M270.383,514.01l-2.208-.483,1.127-17.241,2.208.483Z" transform="translate(986.079 -317.73)" fill="#344e7b"></path>
    <path id="Path_2338" data-name="Path 2338" d="M296.157,507.245l-2.208-.483L295.4,484.65l2.208.483Z" transform="translate(968.039 -309.585)" fill="#344e7b"></path>
    <path id="Path_2339" data-name="Path 2339" d="M309.46,525.241l-2.208-.483,1.023-15.643,2.208.483Z" transform="translate(958.729 -326.708)" fill="#344e7b"></path>
    <path id="Path_2340" data-name="Path 2340" d="M332.22,549.657l-2.208-.483.478-7.309,2.208.483Z" transform="translate(942.799 -349.631)" fill="#e55f1b"></path>
    <path id="Path_2341" data-name="Path 2341" d="M345.522,508.88l-2.208-.483,1.7-26.041,2.208.483Z" transform="translate(933.488 -307.98)" fill="#344e7b"></path>
    <path id="Path_2342" data-name="Path 2342" d="M368.826,557.665l-2.208-.483.478-7.309,2.208.483Z" transform="translate(917.178 -355.235)" fill="#e55f1b"></path>
    <path id="Path_2343" data-name="Path 2343" d="M382.128,524l-2.208-.483,1.5-22.99,2.208.483Z" transform="translate(907.868 -320.699)" fill="#344e7b"></path>
    <path id="Path_2344" data-name="Path 2344" d="M226.131,555.982a.6.6,0,0,1-.126-.014l-3.992-.874a.587.587,0,0,1,.251-1.147l3.992.873a.587.587,0,0,1-.125,1.161" transform="translate(1018.71 -358.078)" fill="#bbb"></path>
    <path id="Path_2345" data-name="Path 2345" d="M262.773,564a.609.609,0,0,1-.126-.013l-3.992-.874a.587.587,0,0,1,.251-1.147l3.992.873a.587.587,0,0,1-.125,1.161" transform="translate(993.064 -363.687)" fill="#bbb"></path>
    <path id="Path_2346" data-name="Path 2346" d="M299.415,572.013a.6.6,0,0,1-.126-.014l-3.992-.873a.587.587,0,0,1,.251-1.147l3.992.873a.587.587,0,0,1-.125,1.161" transform="translate(967.419 -369.297)" fill="#bbb"></path>
    <path id="Path_2347" data-name="Path 2347" d="M336.057,580.027a.608.608,0,0,1-.126-.013l-3.992-.874a.587.587,0,0,1,.251-1.147l3.992.873a.587.587,0,0,1-.125,1.161" transform="translate(941.773 -374.907)" fill="#bbb"></path>
    <path id="Path_2348" data-name="Path 2348" d="M372.7,588.043a.6.6,0,0,1-.126-.014l-3.992-.874a.587.587,0,0,1,.251-1.147l3.992.873a.587.587,0,0,1-.125,1.161" transform="translate(916.127 -380.517)" fill="#bbb"></path>
    <path id="Path_2349" data-name="Path 2349" d="M266.051,552.523a.588.588,0,0,1-.126-.013L209.1,540.079a.587.587,0,1,1,.251-1.147l56.827,12.43a.587.587,0,0,1-.125,1.161" transform="translate(1027.75 -347.567)" fill="#bbb"></path>
    <path id="Path_2350" data-name="Path 2350" d="M494.529,695.312a1.051,1.051,0,0,1-.575-.171l-29.1-18.965L431.747,685.7a1.053,1.053,0,1,1-.582-2.023l33.575-9.655a1.054,1.054,0,0,1,.866.13l28.814,18.782L511.816,677a1.052,1.052,0,0,1,.777-.275l20.956,1.314,11.467-11.473a1.045,1.045,0,0,1,.347-.23l13.968-5.7a1.053,1.053,0,0,1,.8,1.95L546.354,668.2,534.7,679.861a1.068,1.068,0,0,1-.811.306l-20.983-1.316L495.24,695.035a1.051,1.051,0,0,1-.711.277" transform="translate(872.535 -432.703)" fill="#e55f1b"></path>
    <path id="Path_2351" data-name="Path 2351" d="M852.472,661.018a1.053,1.053,0,0,1-.874-1.638l2.254-3.372-3.623-.751a1.053,1.053,0,0,1,.427-2.062l5.153,1.069a1.053,1.053,0,0,1,.661,1.616l-3.122,4.67a1.051,1.051,0,0,1-.876.468" transform="translate(579.286 -427.535)" fill="#e55f1b"></path>
    <path id="Path_2352" data-name="Path 2352" d="M429.253,612.9a1.053,1.053,0,0,1-.733-1.809l29.018-28.1a1.052,1.052,0,0,1,1.11-.227l33.264,12.78,10.2-18.316a1.055,1.055,0,0,1,1.238-.492l23.74,7.511,11.857-10.618a1.053,1.053,0,1,1,1.4,1.568l-12.3,11.019a1.052,1.052,0,0,1-1.02.22L503.531,579l-10.223,18.363a1.054,1.054,0,0,1-1.3.471l-33.49-12.867L429.986,612.6a1.049,1.049,0,0,1-.732.3" transform="translate(874.076 -371.673)" fill="#344e7b"></path>
    <path id="Path_2353" data-name="Path 2353" d="M791.851,574.3c-.029,0-.057,0-.086,0a1.053,1.053,0,0,1-.964-1.134l.3-3.759-3.58.28a1.053,1.053,0,0,1-.164-2.1l4.811-.376a1.053,1.053,0,0,1,1.131,1.135l-.4,4.99a1.053,1.053,0,0,1-1.048.968" transform="translate(623.378 -367.363)" fill="#344e7b"></path>
    <rect id="Rectangle_2462" data-name="Rectangle 2462" width="371.227" height="345.467" transform="translate(1173.774 29.623)" fill="none"></rect>
    <rect id="Rectangle_2463" data-name="Rectangle 2463" width="371.226" height="345.468" transform="translate(1173.774 29.622)" fill="none"></rect>
  </g>
</svg>
