<?xml version="1.0" encoding="UTF-8"?>
<svg xmlns="http://www.w3.org/2000/svg" xmlns:xlink="http://www.w3.org/1999/xlink" viewBox="0 0 342.217 339.295">
  <defs>
    <clipPath id="clip-path">
      <rect id="Rectangle_2469" data-name="Rectangle 2469" width="13.784" height="13.436" fill="none"></rect>
    </clipPath>
  </defs>
  <g id="Group_3312" data-name="Group 3312" transform="translate(-4620.622 -1636.395)">
    <path id="Path_2490" data-name="Path 2490" d="M843.42,301.146c37.345-84.44-45.289-190.273-138.23-184.331-28.017,1.791-54.4,13.825-71.093,45.55-51.353,97.614-117.97,65.9-123.333,122.982S557.21,405.5,665.516,324.206c54.325-40.777,135.2,73.495,177.9-23.06" transform="translate(4110.235 1526.298)" fill="#dae6fe"></path>
    <path id="Path_2491" data-name="Path 2491" d="M1148.511,165.032c11.744,13.116,12.807,25.883,11.713,34.132,5.089-9.368,10.41-18.037,15.56-25.8-22.99-23.7-5.991-41.2-5.991-41.2,11.143,12.913,12.267,25.315,11.195,33.558l.072-.1c7.21-10.3,14.317-19.383,20.548-26.874-19.6-28.551,1.081-42.937,1.081-42.937,9.255,16.171,6.893,29.462,3.826,37.148,6.716-7.775,11.918-13.195,14.336-15.651,14.619-24.973,37.574-21.77,37.574-21.77-10.7,24.834-26.564,25.27-33.987,23.865-1.9,1.9-7.509,7.641-15.031,16.36,22.561-7.056,36.8,6.148,36.8,6.148-23.448,14.533-36.774,5.168-41.838-.192-6.1,7.351-13.029,16.225-20.061,26.276-.73,1.043-1.468,2.114-2.21,3.2,21.693-12.959,39.214-2.083,39.214-2.083-21.9,20.274-37.506,10.838-42.4,6.809-5.4,8.162-10.979,17.327-16.268,27.239,20.946-12.312,38.051-2.125,38.051-2.125-20.247,19.448-35.413,12.5-41.269,8.332-10.9,21.617-20.026,46.366-22.809,71.906a2.012,2.012,0,1,1-4-.436c2.867-26.308,12.3-51.736,23.511-73.861-24.7-23.69-7.621-41.934-7.621-41.934" transform="translate(3678.349 1541)" fill="#dbdbdb"></path>
    <path id="Path_2492" data-name="Path 2492" d="M1273.2,362.239c9.374,10.469,10.222,20.66,9.349,27.244,4.062-7.477,8.309-14.4,12.42-20.6-18.35-18.918-4.782-32.886-4.782-32.886,8.894,10.307,9.792,20.206,8.935,26.785l.057-.083c5.755-8.223,11.428-15.471,16.4-21.45-15.644-22.789.863-34.272.863-34.272,7.388,12.907,5.5,23.516,3.054,29.651,5.361-6.205,9.513-10.532,11.443-12.492,11.669-19.933,29.991-17.377,29.991-17.377-8.542,19.822-21.2,20.17-27.128,19.049-1.513,1.517-5.993,6.1-12,13.058,18.008-5.632,29.373,4.908,29.373,4.908-18.716,11.6-29.353,4.125-33.395-.153-4.868,5.867-10.4,12.951-16.013,20.974-.582.833-1.172,1.688-1.764,2.554,17.315-10.344,31.3-1.663,31.3-1.663-17.478,16.183-29.938,8.651-33.84,5.435-4.309,6.515-8.764,13.83-12.985,21.742,16.719-9.828,30.372-1.7,30.372-1.7-16.161,15.523-28.266,9.98-32.941,6.651-8.7,17.254-15.985,37.008-18.206,57.4a1.606,1.606,0,1,1-3.192-.348c2.288-21,9.818-41.295,18.767-58.956-19.714-18.909-6.083-33.472-6.083-33.472" transform="translate(3589.574 1394.363)" fill="#c4c4c4"></path>
    <path id="Path_2493" data-name="Path 2493" d="M961.339,909.292,774.68,871.52c-7.639-1.546-9.79-5.943-4.8-9.821l31.886-24.8c4.986-3.878,15.221-5.768,22.86-4.222l186.658,37.771c7.639,1.546,9.79,5.943,4.8,9.82l-31.886,24.8c-4.986,3.878-15.221,5.768-22.86,4.222" transform="translate(3931.988 1029.623)" fill="#e4e6f2"></path>
    <path id="Path_2494" data-name="Path 2494" d="M957.643,346.7l-212.8-44.244-.019,0-.42-.088h0c-.32-.066-.7-.145-.745-.153-.1-.018-.193-.034-.289-.048s-.2-.027-.292-.038-.194-.02-.29-.027-.2-.013-.3-.017-.2-.006-.3-.006-.211,0-.315.006h-.021l-.028,0c-.091,0-.181.009-.27.017l-.136.015-.111.012-.086.009c-.109.015-.217.032-.324.052l-.027,0h0q-.19.036-.375.082l-.042.012c-.057.015-.112.032-.167.048s-.133.036-.2.057l-.055.02c-.09.03-.177.064-.264.1-.047.018-.1.034-.143.053l-.03.015a5.454,5.454,0,0,0-.5.243c-.011.006-.024.011-.035.017s-.033.023-.051.033a5.08,5.08,0,0,0-.591.392l-7.124,5.546a5.092,5.092,0,0,1,.58-.384c.078-.045.159-.086.24-.128.1-.05.194-.1.3-.143q.179-.078.367-.146c.047-.017.093-.036.141-.052q.261-.087.536-.151l.1-.023c.187-.041.376-.076.571-.1l.042,0c.206-.025.415-.043.629-.05h.051q.314-.009.639.009l.064,0c.229.014.46.037.7.072.1.014.191.03.288.047.074.013.149.028.224.044l1.563.327,218.837,45.747c.324.068,1.184-7.029.489-7.175M742.31,303.476Z" transform="translate(3956.906 1397.543)" fill="#bbb"></path>
    <path id="Path_2495" data-name="Path 2495" d="M1453.863,452.548c0-.007,0-.015,0-.022q-.019-.119-.042-.238c-.016-.079-.033-.158-.052-.237l-.009-.033c0-.011-.005-.022-.008-.032-.014-.055-.028-.11-.043-.164-.022-.076-.045-.152-.07-.228-.012-.036-.025-.071-.038-.107-.005-.016-.01-.031-.016-.047s-.016-.049-.025-.073c-.027-.075-.057-.15-.088-.225s-.06-.14-.092-.21l0-.008,0-.006c-.034-.074-.069-.148-.106-.222s-.075-.145-.114-.217l-.033-.057-.024-.041c-.021-.039-.042-.077-.065-.115q-.06-.1-.125-.2c-.032-.051-.065-.1-.1-.152l-.014-.021-.016-.023q-.064-.1-.131-.188t-.133-.179l-.059-.075-.025-.032c-.018-.023-.036-.047-.055-.069-.049-.061-.1-.121-.15-.181s-.1-.119-.157-.177l-.015-.017-.025-.026c-.057-.062-.115-.124-.174-.184s-.114-.111-.171-.166c-.038-.037-.075-.074-.114-.111-.019-.017-.036-.035-.054-.052-.1-.088-.2-.173-.3-.257-.033-.028-.064-.057-.1-.084l-.015-.013q-.194-.158-.4-.307l-.059-.042-.053-.038c-.048-.034-.095-.068-.143-.1q-.12-.082-.244-.16l-.094-.058-.049-.03-.09-.055q-.12-.071-.243-.139c-.062-.035-.125-.068-.188-.1l-.034-.018-.031-.017q-.131-.067-.264-.131c-.092-.044-.184-.086-.278-.127l-.005,0-.007,0c-.089-.039-.18-.077-.271-.113s-.192-.075-.29-.11l-.036-.012-.041-.014c-.07-.025-.14-.05-.212-.073-.1-.031-.193-.061-.29-.088l-.081-.022-.027-.008h-.008c-.058-.016-.115-.032-.172-.046q-.144-.036-.29-.068l-1.566-.325-7.417,5.482s2.052.433,2.148.457.193.05.288.078.194.057.29.089.194.064.289.1l.12.045c.153.057.3.118.453.183h0c.151.066.3.136.445.21l.056.028q.209.106.411.223l.061.035c.131.076.26.156.387.239l.068.044c.125.083.248.169.368.257.062.046.121.094.182.14s.147.113.219.172.162.139.242.21c.052.046.106.091.157.138s.087.084.13.126c.077.074.154.148.228.225l.058.062q.151.159.292.323l.022.028q.147.174.282.353l.027.037c.087.117.171.236.25.356l.03.046q.117.178.221.36c.011.018.021.037.031.055q.1.182.193.367l.028.057q.089.187.166.377l.022.055c.05.128.1.256.137.386.006.017.011.035.016.052.041.131.077.263.108.395.016.066.031.133.044.2s.029.158.042.238.024.167.032.251.016.169.021.253.009.184.009.275c0,.072,0,.143,0,.214,0,0-.005.143-.014.388l-6.493,164.01,5.336-5.47a6.61,6.61,0,0,0,2.025-4.225l6.207-158.515.064-1.734c0-.072,0-.143,0-.214s0-.121-.006-.181c0,0,0-.007,0-.011s0-.016,0-.024,0-.04,0-.06c-.005-.084-.012-.169-.021-.253-.007-.067-.016-.133-.026-.2,0-.009,0-.019,0-.029" transform="translate(3466.222 1297.75)" fill="#bbb"></path>
    <path id="Path_2496" data-name="Path 2496" d="M1150.482,919.937s-1.127.908-1.2,1.027c-.035.055-.4.58-.565.787-.126.155-.553.624-.632.7-.23.235-49.994,43.208-49.994,43.208l1.375,7.8,49.037-42.618a1.874,1.874,0,0,0,.957-.589c.079-.08.142-.161.216-.241.143-.155.29-.309.416-.464l0,0c.168-.207.316-.412.454-.617.038-.056.073-.111.108-.166s.086-.127.123-.189.053-.112.084-.168q.133-.24.238-.477c.024-.054.06-.11.082-.164s.025-.085.041-.128c.052-.138.093-.275.131-.411.018-.066.048-.133.063-.2.008-.033.007-.064.014-.1.026-.129.04-.255.054-.381.007-.071.026-.145.03-.215,0-.025,0-.048,0-.073a3.584,3.584,0,0,0-.018-.392c-.006-.069,0-.142-.01-.21,0-.033-.01-.067-.016-.1Z" transform="translate(3702.31 968.683)" fill="#a0a0a0"></path>
    <path id="Path_2497" data-name="Path 2497" d="M941.507,1054.511c-.331.277-.683.545-1.05.8-.113.08-.226.158-.341.236-.407.274-.828.54-1.27.79l-.071.043q-.555.312-1.14.6c-.056.027-.116.051-.173.079-.336.161-.676.318-1.024.466-.043.018-.088.034-.131.052-.448.187-.905.361-1.368.525-.17.06-.341.118-.513.175q-.4.134-.814.257c-.192.057-.385.113-.579.167-.236.065-.474.126-.711.184-.205.051-.41.1-.616.146-.221.049-.442.094-.664.138s-.423.082-.634.118-.44.071-.66.1-.417.06-.625.084c-.236.029-.471.051-.706.072-.2.018-.392.035-.586.048-.286.019-.569.028-.852.036-.158,0-.318.012-.474.012-.507,0-1.005-.015-1.491-.052-.242-.019-.478-.046-.714-.074-.121-.014-.245-.024-.364-.041-.361-.052-.714-.114-1.056-.191l-45.786-10.254c-2.83-.634-4,.367-4.3-1.328l.949,5.429c.3,1.695,1.9,3.063,4.726,3.7l45.785,10.254c.342.076.7.139,1.056.191.12.017.244.027.365.042.206.024.409.053.62.07.03,0,.063,0,.094,0q.729.055,1.491.052c.033,0,.064,0,.1,0,.124,0,.252-.012.377-.016.282-.007.565-.017.851-.035.064,0,.127,0,.192-.008.13-.01.263-.028.394-.04.235-.021.469-.043.7-.072.08-.009.159-.014.239-.024.129-.016.259-.042.389-.061.219-.032.437-.065.657-.1.085-.015.17-.024.256-.04.127-.023.254-.054.381-.079.221-.043.44-.088.66-.136.088-.02.176-.035.264-.055.119-.027.236-.063.354-.092.237-.059.473-.119.71-.184.095-.026.191-.047.285-.074s.2-.064.294-.093q.409-.122.812-.256c.108-.036.219-.066.327-.1.064-.022.125-.049.188-.072.463-.164.919-.337,1.367-.524.036-.015.073-.027.109-.042l.023-.01c.348-.147.688-.3,1.024-.466.057-.027.116-.051.172-.079q.585-.286,1.141-.6l.015-.008c.019-.011.035-.023.054-.034.443-.251.864-.517,1.272-.791.116-.078.229-.156.341-.236.367-.26.719-.526,1.05-.8.04-.033.087-.063.127-.1l.079-.068-1.375-7.8c-.065.056-.139.109-.205.165" transform="translate(3858.687 880.001)" fill="#a0a0a0"></path>
    <path id="Path_2498" data-name="Path 2498" d="M989.174,886.2c5.5,1.232,6.37,5.265,1.963,9.1L942.1,937.915c-4.59,3.988-13.106,6.22-18.832,4.938L877.482,932.6c-5.726-1.282-6.4-5.573-1.5-9.49l52.464-41.85c4.716-3.762,12.855-5.777,18.354-4.546Z" transform="translate(3858.749 998.936)" fill="#bbb"></path>
    <path id="Path_2499" data-name="Path 2499" d="M941.76,953.951l66.091,13.9,13.7-11.952-63.673-14.474Z" transform="translate(3810.818 953.769)" fill="#adadad"></path>
    <path id="Path_2500" data-name="Path 2500" d="M1157.814,994.947l.909,5.053,17.242-14.691-.871-4.848Z" transform="translate(3660.854 926.673)" fill="#a0a0a0"></path>
    <path id="Path_2501" data-name="Path 2501" d="M941.246,563.73c-.155,5.059-6.659,9.688-12.035,8.564L720.753,528.717c-3.866-.808-6.9-4.1-6.781-7.362l5.42-147.841c.12-3.26,3.347-5.245,7.212-4.437L945.8,414.9Z" transform="translate(3968.928 1351.162)" fill="#dbdbdb"></path>
    <path id="Path_2502" data-name="Path 2502" d="M942.72,501.875c-.283,7.684-9.877,14.557-17.977,12.878L721.718,472.67c-3.866-.808-6.9-4.1-6.781-7.362l5.42-147.841c.12-3.26,3.347-5.245,7.212-4.437L938.62,357.149a11.322,11.322,0,0,1,9,11.5Z" transform="translate(3968.259 1390.064)" fill="#dbdbdb"></path>
    <path id="Path_2503" data-name="Path 2503" d="M950.251,528.784c-.216,5.033-6.315,9.485-11.54,8.422l-194-39.463c-3.67-.751-6.553-3.622-6.441-6.416l5.07-126.737c.113-2.794,3.175-4.449,6.845-3.7l196.881,39.758a10.376,10.376,0,0,1,8.224,10.638Z" transform="translate(3952.062 1356.844)" fill="#f2f2f2"></path>
    <path id="Path_2504" data-name="Path 2504" d="M1091.376,402.695a1.7,1.7,0,0,1-2.012,1.752,2.5,2.5,0,0,1-1.862-2.514,1.7,1.7,0,0,1,2.012-1.752,2.5,2.5,0,0,1,1.862,2.514" transform="translate(3709.659 1329.471)" fill="#fff"></path>
    <circle id="Ellipse_40" data-name="Ellipse 40" cx="3.482" cy="3.482" r="3.482" transform="matrix(0.23, -0.973, 0.973, 0.23, 4645.492, 1824.762)" fill="none" stroke="#2d4e73" stroke-linecap="round" stroke-miterlimit="10" stroke-width="3.899"></circle>
    <circle id="Ellipse_41" data-name="Ellipse 41" cx="3.482" cy="3.482" r="3.482" transform="matrix(0.924, -0.383, 0.383, 0.924, 4786.201, 1688.559)" fill="none" stroke="#2d4e73" stroke-linecap="round" stroke-miterlimit="10" stroke-width="3.899"></circle>
    <circle id="Ellipse_42" data-name="Ellipse 42" cx="3.482" cy="3.482" r="3.482" transform="matrix(0.995, -0.099, 0.099, 0.995, 4936.438, 1850.558)" fill="none" stroke="#2d4e73" stroke-linecap="round" stroke-miterlimit="10" stroke-width="3.899"></circle>
    <path id="Path_2505" data-name="Path 2505" d="M824.134,541.568a5.17,5.17,0,0,1,2.035-4.023l7.729-5.819a5.545,5.545,0,0,1,4.541-.868l59.5,12.846a7.789,7.789,0,0,1,4.387,2.8,7.359,7.359,0,0,1,1.663,4.822l-1.094,25.97a5.176,5.176,0,0,1-2.035,4.023l-7.729,5.819a5.551,5.551,0,0,1-4.541.868l-59.5-12.846a7.79,7.79,0,0,1-4.387-2.8,7.349,7.349,0,0,1-1.662-4.822Z" transform="translate(3893.225 1238.847)" fill="#e55f1b"></path>
    <path id="Path_2506" data-name="Path 2506" d="M1054.22,629.879l1.094-25.97,7.728-5.818-1.094,25.97a5.176,5.176,0,0,1-2.035,4.023l-7.728,5.819a5.18,5.18,0,0,0,2.035-4.024" transform="translate(3734.172 1192.078)" fill="#7c2a05"></path>
    <path id="Path_2507" data-name="Path 2507" d="M841.009,531.725a5.546,5.546,0,0,1,4.541-.868l59.5,12.846-7.728,5.818-59.5-12.846a5.55,5.55,0,0,0-4.542.868Z" transform="translate(3886.114 1238.847)" fill="#f7753c"></path>
    <g id="Group_3303" data-name="Group 3303" transform="translate(4783.437 1782.55)" opacity="0.5">
      <g id="Group_3302" data-name="Group 3302" transform="translate(0 0)">
        <g id="Group_3301" data-name="Group 3301" clip-path="url(#clip-path)">
          <path id="Path_2508" data-name="Path 2508" d="M1050.364,573.187a7.791,7.791,0,0,1,4.387,2.8,7.361,7.361,0,0,1,1.663,4.823l-7.728,5.818a7.361,7.361,0,0,0-1.663-4.822,7.792,7.792,0,0,0-4.387-2.8Z" transform="translate(-1042.637 -573.187)" fill="#d34f31"></path>
        </g>
      </g>
    </g>
    <path id="Path_2509" data-name="Path 2509" d="M972.751,605.1l4.7.861-1.159,23-2.952-.54.819-16.265-3.341,15.8-3.2-.585-1.507-16.922-.831,16.495-3.2-.585,1.159-23,4.7.861,1.484,16.753Z" transform="translate(3796.706 1188.42)" fill="#fff"></path>
    <path id="Path_2510" data-name="Path 2510" d="M922.863,597.4l4.951.905,2.286,23.631-3.106-.568-.374-4.28-4.151-.759-.795,4.066-3.413-.624Zm2.44,4.558-2.216,11.334,3.26.6Z" transform="translate(3827.128 1192.556)" fill="#fff"></path>
    <path id="Path_2511" data-name="Path 2511" d="M877.448,587.663l4.7.861-1.159,23-2.952-.54.819-16.265-3.341,15.8-3.2-.585-1.507-16.922-.831,16.495-3.2-.585,1.159-23,4.7.861,1.484,16.753Z" transform="translate(3862.856 1200.522)" fill="#fff"></path>
    <path id="Path_2512" data-name="Path 2512" d="M1109.021,607.734a5.168,5.168,0,0,1,2.036-4.023l7.728-5.819a5.548,5.548,0,0,1,4.542-.868l59.5,12.846a7.786,7.786,0,0,1,4.387,2.8,7.36,7.36,0,0,1,1.663,4.822l-1.093,25.97a5.175,5.175,0,0,1-2.035,4.024l-7.728,5.819a5.552,5.552,0,0,1-4.541.868l-59.5-12.846a7.787,7.787,0,0,1-4.387-2.8,7.346,7.346,0,0,1-1.663-4.822Z" transform="translate(3695.485 1192.921)" fill="#e55f1b"></path>
    <path id="Path_2513" data-name="Path 2513" d="M1339.106,696.046l1.094-25.97,7.728-5.818-1.093,25.969a5.175,5.175,0,0,1-2.036,4.024l-7.728,5.819a5.181,5.181,0,0,0,2.035-4.024" transform="translate(3536.432 1146.151)" fill="#7c2a05"></path>
    <path id="Path_2514" data-name="Path 2514" d="M1125.9,597.891a5.548,5.548,0,0,1,4.542-.868l59.5,12.846-7.728,5.818-59.5-12.846a5.546,5.546,0,0,0-4.541.868Z" transform="translate(3688.372 1192.921)" fill="#f7753c"></path>
    <g id="Group_3306" data-name="Group 3306" transform="translate(4870.581 1802.791)" opacity="0.5">
      <g id="Group_3305" data-name="Group 3305" transform="translate(0)">
        <g id="Group_3304" data-name="Group 3304" clip-path="url(#clip-path)">
          <path id="Path_2515" data-name="Path 2515" d="M1335.25,639.354a7.785,7.785,0,0,1,4.387,2.8,7.359,7.359,0,0,1,1.662,4.822l-7.728,5.818a7.355,7.355,0,0,0-1.663-4.822,7.794,7.794,0,0,0-4.387-2.8Z" transform="translate(-1327.521 -639.354)" fill="#d34f31"></path>
        </g>
      </g>
    </g>
    <path id="Path_2516" data-name="Path 2516" d="M1144.74,655.183l-.067,2.67c-.083,3.286-1.823,4.678-5.277,3.869l-1.633-.383-.194,7.716-3.453-.81.516-20.537,5.086,1.192c3.454.81,5.1,3,5.022,6.283m-6.728-3.732-.175,6.954,1.633.383c1.1.258,1.707-.072,1.744-1.539l.078-3.08c.037-1.467-.548-2.076-1.647-2.334Z" transform="translate(3677.303 1157.639)" fill="#fff"></path>
    <path id="Path_2517" data-name="Path 2517" d="M1181.106,681.133l-3.485-.817-.5-3.866-4.238-.994-.69,3.586-3.172-.744,4.033-19.713,5.055,1.185Zm-7.717-8.361,3.328.78-1.4-10.776Z" transform="translate(3653.078 1150.088)" fill="#fff"></path>
    <path id="Path_2518" data-name="Path 2518" d="M1221.168,682.665l2.722-14.03,4.8,1.127-.517,20.537-3.265-.766.37-14.728-2.757,14.169-3.266-.766-2.209-15.127-.365,14.523-3.014-.707.517-20.537,4.8,1.126Z" transform="translate(3622.083 1144.691)" fill="#fff"></path>
    <path id="Path_2519" data-name="Path 2519" d="M1276.7,695.686l2.722-14.03,4.8,1.127-.517,20.537-3.265-.766.37-14.728L1278.059,702l-3.265-.766-2.209-15.127-.365,14.523-3.014-.707.517-20.537,4.8,1.126Z" transform="translate(3583.537 1135.653)" fill="#fff"></path>
    <path id="Path_2520" data-name="Path 2520" d="M641.944,1157.288c8-3.236,21.653-3.657,30.5-.94a20.233,20.233,0,0,1,3.806,1.557,38.586,38.586,0,0,1,18.506.258c6.214,1.909,6.694,5.3,1.073,7.573-5.4,2.185-14.464,2.537-20.678.868-.371.178-.761.352-1.18.522-8,3.235-21.653,3.656-30.5.94s-9.527-7.542-1.527-10.777" transform="translate(4022.793 805.833)" fill="#e4e6f2"></path>
    <path id="Path_2521" data-name="Path 2521" d="M791.137,1166.018l3.969.716c2.908-.424,4.365-.977,5.308.1l.267.3a2,2,0,0,1-1.269,2.4l-7.9,3.4c-1.544.394-3.165-.179-3.174-1.666,0,0,.009-4.156.713-4.321,1.415-.331.854-.613,2.089-.928" transform="translate(3917.311 797.878)" fill="#061a17"></path>
    <path id="Path_2522" data-name="Path 2522" d="M791.7,1151.058c.059,1.986-3.878,1.935-3.937-.051l-1.5-8.564,6.629-.644Z" transform="translate(3918.749 814.689)" fill="#e5aba0"></path>
    <path id="Path_2523" data-name="Path 2523" d="M967.516,721.407h0a2.207,2.207,0,0,0,2.778,1.4l2.779-.917a2.206,2.206,0,0,0,1.4-2.779h0a2.207,2.207,0,0,0-2.779-1.4l-2.779.917a2.206,2.206,0,0,0-1.4,2.779" transform="translate(3793.017 1109.125)" fill="#e5aba0"></path>
    <path id="Path_2524" data-name="Path 2524" d="M749.329,898.348l18.65,2.885L767.6,881.82l-18.65-2.885Z" transform="translate(3944.644 997.143)" fill="#2d54a6"></path>
    <path id="Path_2525" data-name="Path 2525" d="M783.353,943.255c-2.31,3.115-7.929,3.172-9.109,1.114-.525-12.261-6.022-24.106-1.055-41.072l-3.181-52.229,22.762,4.132-5.851,54.137Z" transform="translate(3930.031 1016.485)" fill="#22374b"></path>
    <path id="Path_2526" data-name="Path 2526" d="M671.733,1125.876c-.933,1.428-4.938-1.074-4-2.5l2.485-6.7,4.553,4.559Z" transform="translate(4001.121 832.128)" fill="#e5aba0"></path>
    <path id="Path_2527" data-name="Path 2527" d="M677.494,947.055c-3.059,2.018-7.717-3.382-8.3-5.6,3.114-11.1,4.593-27.066,14.191-33.544l.66-30.342c-.661-4.542.362-7.526,1.752-14.217l20.155,8.513-12.16,43.061c-.211.812-1.928,4.633-2.313,5.368Z" transform="translate(4000.009 1007.96)" fill="#22374b"></path>
    <path id="Path_2528" data-name="Path 2528" d="M666.942,1139.6l.351,4.36c1.16,3,3.551,3.839,2.772,5.056a5.639,5.639,0,0,1-4.5.076l-4.695-6.551a4.2,4.2,0,0,1,.636-4.625s1.457-1.671,1.5-1.439c.805,4.107,3.316,1.875,3.938,3.125" transform="translate(4006.079 818.401)" fill="#061a17"></path>
    <path id="Path_2529" data-name="Path 2529" d="M677.772,899.84h0a2.2,2.2,0,0,0-2.683,1.563l-.753,2.853a2.2,2.2,0,1,0,4.247,1.121l.753-2.852a2.2,2.2,0,0,0-1.564-2.685" transform="translate(3996.488 982.683)" fill="#e5aba0"></path>
    <path id="Path_2530" data-name="Path 2530" d="M683.593,866.044l-1.93,9.175-3.259.035-.412-12.927Z" transform="translate(3993.9 1008.67)" fill="#e5aba0"></path>
    <path id="Path_2531" data-name="Path 2531" d="M787.129,646.678c2.891,1.09,5.121-6.753-1.506-7.471-5.762-.624-4.491,5.69-4.344,5.8s5.85,1.674,5.85,1.674" transform="translate(3922.361 1163.568)" fill="#6b332a" fill-rule="evenodd"></path>
    <path id="Path_2532" data-name="Path 2532" d="M776.878,656.977c.625,3.377-1.008,5.3-3.647,4.293s-4.041-5.042-4.837-8.381c-.382-1.6-.067-4.855,2.573-3.849s5.286,4.559,5.911,7.936" transform="translate(3931.244 1156.844)" fill="#de5840"></path>
    <path id="Path_2533" data-name="Path 2533" d="M784.548,635.075c.216,2.6-.147,4.622-1.685,5.739a5.351,5.351,0,0,1-5.128.451c-3.506-1.807-6.668-7.12-7.063-11.867a5.389,5.389,0,0,1,7.88-5.334c3.506,1.807,5.6,6.264,6,11.011" transform="translate(3929.587 1174.468)" fill="#e5aba0"></path>
    <path id="Path_2534" data-name="Path 2534" d="M771.87,677.206l-.44-.164c-1.486-.553-3.513-2.557-2.98-4.162l2.605-9.576c.533-1.6,3.83-1.7,5.317-1.149l.44.164a3.421,3.421,0,0,1,2.165,3.97l-1.559,9.15c-.533,1.605-4.061,2.321-5.547,1.768" transform="translate(3931.174 1147.823)" fill="#e5aba0"></path>
    <path id="Path_2535" data-name="Path 2535" d="M762.586,638.953c.716.682,3.714,1.038,4.455.382a5.371,5.371,0,0,0,1.58-3.238c.61-2.476.759-3.546,2.776-4.846,4.769-3.072,2.8-10.721.1-11.63-3.775-1.274-5.145-.179-8.5,1.461-3.377,1.651-8.406,10.263-.417,17.871" transform="translate(3938.152 1177.519)" fill="#283e67"></path>
    <path id="Path_2536" data-name="Path 2536" d="M766.653,619.21s-8.589.046-10.6,6.087a19.818,19.818,0,0,0,.271,9.006s11.09,1.777,14.626-9.8c1.363-4.463-4.292-5.29-4.292-5.29" transform="translate(3939.986 1177.419)" fill="#283e67" fill-rule="evenodd"></path>
    <path id="Path_2537" data-name="Path 2537" d="M794.723,657.6a2.017,2.017,0,0,1-1.769,2.244,2.1,2.1,0,1,1,1.769-2.244" transform="translate(3915.579 1152.118)" fill="#e5aba0"></path>
    <path id="Path_2538" data-name="Path 2538" d="M692.375,703.626s-4.552,5.964-4.553,5.966c-.311.5-11.721,19.911-14.451,25.219-.7,1.358-.031,25.682-.031,25.682l6.6.337,5.591-21.268,10.906-18.328Z" transform="translate(3997.329 1118.825)" fill="#344e7b"></path>
    <path id="Path_2539" data-name="Path 2539" d="M953.756,725.451l5.769-1.56a18.506,18.506,0,0,1,1.125,2.975c-.181.036-5.878,3.81-5.878,3.81Z" transform="translate(3802.491 1104.759)" fill="#e5aba0"></path>
    <path id="Path_2540" data-name="Path 2540" d="M861.387,722.89,842.3,714.741l-3.33,16.211,18.736,4.788a6.144,6.144,0,0,0,5-.89l15-11.215-2.488-5.5Z" transform="translate(3882.167 1111.11)" fill="#344e7b"></path>
    <path id="Path_2541" data-name="Path 2541" d="M716.916,745.4c.308-12.912,2.609-14.848,1.765-25.989-.167-21.319,2.913-25.435,9.847-27.006l4.665-.611c1.465.25,2.831.9,4.281,1.221,6.073,1.362,16.518,3.914,20.9,6.181,3.906,2.019-2.325,5.313-2.244,10,1.309,13.718,1.984,34.393,2.309,41.171-2.011,9.75-37.721,1.534-41.527-4.967" transform="translate(3966.883 1127.036)" fill="#344e7b"></path>
    <path id="Path_2542" data-name="Path 2542" d="M823.971,766.255l-3.628-1.3c-3.84,16.88-1.519,33.426-8.208,40.724,4.176-.092,8.011.223,10.8-1.914a4.255,4.255,0,0,0,1.585-3.269Z" transform="translate(3900.791 1076.256)" fill="#344e7b"></path>
    <path id="Path_2543" data-name="Path 2543" d="M767.172,690.571s-1.071,3.112,2.591,4.191S779.4,693.7,779.4,693.7s-4.084-4.118-12.226-3.13" transform="translate(3932.101 1127.993)" fill="#fff"></path>
  </g>
</svg>
