<?xml version="1.0" encoding="UTF-8"?>
<svg xmlns="http://www.w3.org/2000/svg" xmlns:xlink="http://www.w3.org/1999/xlink" viewBox="0 0 368.625 360.304">
  <defs>
    <clipPath id="clip-path">
      <rect id="Rectangle_2465" data-name="Rectangle 2465" width="53.695" height="66.655" fill="none"></rect>
    </clipPath>
  </defs>
  <g id="Group_3311" data-name="Group 3311" transform="translate(-1877.837 -1617.506)">
    <path id="Path_2359" data-name="Path 2359" d="M668,402.967s-73.653-13.149-56.841-67.131,41.747-72.906,29.052-111.44c-14.029-42.584,24.384-99.317,117.992-97.126s145.994,7.9,185.833,101.419c44.17,103.684,46.67,172.543-55.641,184.986S668,402.967,668,402.967" transform="translate(1273.459 1491.202)" fill="#dae6fe"></path>
    <path id="Path_2360" data-name="Path 2360" d="M900.029,172.364c3.652,14.175-3.625,23.051,14.139,49.209,6.762,9.957,9.351,26.269,9.968,42.657l-27.9,39.645c-17.714-20.366-34.3-56.743-29.068-71.448,5.261-14.78,1.491-27.119-7.691-43.293-16.7-29.421,7.6-64.627,7.6-64.627s27.005,24.759,32.956,47.858" transform="translate(1110.531 1493)" fill="#e8e8e8"></path>
    <path id="Path_2361" data-name="Path 2361" d="M920.227,225.707a.848.848,0,0,1,1.067.545C935,268.643,946.711,307.1,954.36,350.973l-1.383,1.965c-7.626-44.481-19.44-83.307-33.3-126.164a.847.847,0,0,1,.545-1.067" transform="translate(1066.613 1425.714)" fill="#fff"></path>
    <path id="Path_2362" data-name="Path 2362" d="M752.962,433.018c4.753,8.368,9.426,22.632,13.315,36.975l-23.729,33.714c-30.227-24.189-46.149-85.379-46.149-85.379-39.738,8.254-48.3-25.283-48.3-25.283,79.689-20.961,104.867,39.973,104.867,39.973" transform="translate(1247.231 1317.3)" fill="#c4c4c4"></path>
    <path id="Path_2363" data-name="Path 2363" d="M766.785,422.577A155.367,155.367,0,0,1,809.552,454c11.669,12.283,20.087,25.726,25.023,39.955q1.519,4.379,2.594,8.86l-1.374,1.951c-4.78-21.293-16.338-37.87-27.435-49.56a153.585,153.585,0,0,0-42.276-31.088.847.847,0,0,1,.7-1.543" transform="translate(1169.081 1294.788)" fill="#fff"></path>
    <path id="Path_2364" data-name="Path 2364" d="M1233.671,959.616l27.26-3.6,85.776-67.8a5.2,5.2,0,0,0-1.7-9.057l-39.654-12.185Z" transform="translate(857.736 999.151)" fill="#e4e6f2"></path>
    <path id="Path_2365" data-name="Path 2365" d="M1530.677,488.533c0-.014,0-.028,0-.043,0-.06,0-.12,0-.18s0-.1-.008-.143c0-.007,0-.014,0-.021s0-.01,0-.016q-.006-.085-.016-.17c-.007-.056-.015-.113-.024-.169l0-.024,0-.023c-.007-.039-.014-.078-.021-.117-.011-.055-.023-.109-.037-.163-.006-.025-.014-.051-.02-.076l-.009-.033-.014-.052c-.015-.054-.032-.107-.049-.161s-.034-.1-.052-.15l0-.006v0c-.02-.053-.041-.106-.062-.159s-.044-.1-.067-.155c-.006-.014-.013-.027-.019-.041l-.014-.029-.039-.083c-.025-.049-.05-.1-.075-.145l-.061-.109-.009-.015-.009-.016c-.026-.045-.053-.09-.081-.135s-.054-.086-.082-.128l-.037-.054-.016-.023-.034-.05q-.046-.065-.094-.13c-.032-.043-.065-.085-.1-.127l-.01-.012-.016-.019c-.036-.045-.072-.089-.11-.132s-.072-.08-.108-.119l-.073-.079-.034-.038c-.062-.063-.126-.124-.191-.185l-.062-.06-.01-.009q-.125-.114-.258-.221l-.038-.03-.035-.027c-.03-.024-.061-.049-.093-.072q-.078-.059-.16-.116l-.062-.042-.032-.022-.059-.04c-.052-.034-.105-.068-.16-.1l-.124-.073-.022-.013-.02-.012q-.087-.049-.175-.095c-.061-.031-.122-.062-.185-.092l0,0,0,0c-.06-.028-.12-.056-.181-.082s-.128-.054-.193-.08l-.024-.009-.028-.01-.142-.053c-.064-.023-.13-.044-.2-.065l-.055-.016-.018-.006h-.005l-.116-.034c-.065-.017-.13-.034-.2-.05l-4.67-1.061-5.284,4.1s4.9.906,4.967.923.131.037.195.057.131.042.195.064.13.047.193.072l.08.033c.1.042.2.085.3.133h0c.1.048.2.1.3.152l.037.02q.139.077.271.161l.041.025c.086.055.171.113.254.172l.044.032q.122.089.24.185c.04.032.079.067.118.1s.1.081.142.124.1.1.156.151c.033.033.068.065.1.1s.055.06.083.09c.049.053.1.106.145.161l.037.045c.063.076.125.153.183.231l.014.02q.092.124.176.253l.017.026q.081.126.154.255l.018.033c.047.085.092.171.133.258.006.013.013.026.019.04.041.087.079.174.114.263l.016.041c.034.089.066.178.094.269l.012.04c.028.091.053.183.075.276l.008.037q.032.14.054.282c.007.047.014.095.02.142s.012.113.017.17.008.119.01.179,0,.12,0,.18,0,.131-.008.2-.008.1-.013.153c0,0-.011.1-.03.277l-1.56,14.584c-.294-.066-3.659,4.461-3.562,4.514.013.007-8.351,108.79-8.351,108.79-.053.493-2,4.043-1.526,3.683l4.974-5a6.13,6.13,0,0,0,1.84-3.59l13.266-125.939c.053-.494.132-1.235.132-1.235q.008-.076.013-.153c0-.043,0-.086.005-.129,0,0,0-.005,0-.007s0-.012,0-.017" transform="translate(673.689 1254.874)" fill="#bbb"></path>
    <path id="Path_2366" data-name="Path 2366" d="M1156.345,398.2l-191.13-43.431-.013,0-.284-.065h0l-.5-.113c-.066-.013-.131-.025-.2-.035s-.133-.02-.2-.028-.133-.015-.2-.021-.137-.01-.205-.014-.137-.005-.2-.006-.145,0-.217,0h-.035c-.062,0-.125.006-.186.011l-.094.01-.077.008-.06.006c-.076.01-.151.022-.225.035l-.019,0h0c-.09.016-.177.035-.263.057l-.029.008c-.04.01-.078.022-.117.033s-.093.025-.139.04l-.039.014c-.063.021-.125.045-.187.068-.033.013-.068.023-.1.037l-.021.01c-.122.051-.241.109-.356.17l-.025.012c-.013.007-.024.016-.036.024a3.836,3.836,0,0,0-.427.276l-5.182,3.917a3.824,3.824,0,0,1,.419-.271c.056-.032.114-.061.172-.09s.138-.07.21-.1.171-.071.26-.1c.033-.012.066-.025.1-.036q.184-.06.376-.105l.072-.016c.13-.028.263-.052.4-.069l.03,0c.143-.017.287-.028.435-.032h.036q.216,0,.439.009l.044,0c.156.011.314.029.474.055.065.011.13.022.2.035l.152.032,1.058.24,191.427,43.5ZM963.422,355.478Z" transform="translate(1042.714 1340.034)" fill="#bbb"></path>
    <path id="Path_2367" data-name="Path 2367" d="M1121.78,409.633l-192.84-43.82c-2.617-.595-4.937.8-5.186,3.126L912.487,474.257c-.012.117-.016.233-.017.35l-2.626,23.909c-.249,2.322,1.978,4.623,4.6,5.218l192.838,43.819c2.617.595,4.94-.8,5.186-3.126l12.346-117.532a3.865,3.865,0,0,0,.02-.417l1.238-11.566c.249-2.322-1.671-4.684-4.288-5.279" transform="translate(1073.142 1332.585)" fill="#dbdbdb"></path>
    <path id="Path_2368" data-name="Path 2368" d="M912.754,824.737l-6.85,5.17-1.826-2.723L712.561,780.853c-2.307-.558-6.705.646-9.167,2.529l-76.692,58.4-.087-1.089-11.721,7.96-1.751-.176.613,4.722c.27,1,1.112-.2,1.894-.008l198.982,49.973c2.307.558,6.221-.4,8.682-2.284l86.25-65.9c1.344-1.028,2.35-2.824,2.286-3.668Z" transform="translate(1270.48 1056.522)" fill="#bbb"></path>
    <path id="Path_2369" data-name="Path 2369" d="M712.418,780.852c-2.307-.558-6.7.646-9.166,2.529l-76.692,58.4-.087-1.089-11.721,7.96-1.823-1.646.27,5.783c0,.954.773,1.314,1.554,1.5l199.737,48.87a8.508,8.508,0,0,0,3.449-.04l-4.864-48.186c1.344-1.028-100.656-74.084-100.656-74.084" transform="translate(1270.623 1056.523)" fill="#bbb"></path>
    <path id="Path_2370" data-name="Path 2370" d="M813.878,884.6l-199.3-48.213c-2.307-.558-2.18-2.555.281-4.438l89.872-67.412a12.5,12.5,0,0,1,9-2.023l197.34,47.74c2.307.558,2.18,2.555-.281,4.438l-88.25,67.5c-2.461,1.883-6.362,2.966-8.669,2.408" transform="translate(1270.621 1068.754)" fill="#dbdbdb"></path>
    <path id="Path_2371" data-name="Path 2371" d="M923.054,802.047a1.794,1.794,0,0,1-1.283.186l-11.853-2.8c-.428-.1-.547-.349-.267-.553l7.761-5.636a1.791,1.791,0,0,1,1.284-.186l11.853,2.8c.427.1.547.348.266.552Z" transform="translate(1073.358 1048.34)" fill="#9fb2e6"></path>
    <path id="Path_2372" data-name="Path 2372" d="M964.494,842.547a1.785,1.785,0,0,1-1.287.188l-11.852-2.8c-.427-.1-.543-.347-.26-.553l7.764-5.638a1.785,1.785,0,0,1,1.275-.185l11.852,2.8c.433.1.547.35.272.55Z" transform="translate(1045.794 1021.4)" fill="#f2f2f2"></path>
    <path id="Path_2373" data-name="Path 2373" d="M944.109,868.461a1.785,1.785,0,0,1-1.28.185l-11.855-2.8c-.421-.1-.55-.346-.269-.55l7.765-5.64a1.809,1.809,0,0,1,1.278-.183l11.855,2.8c.426.1.545.349.271.549Z" transform="translate(1059.353 1004.163)" fill="#f2f2f2"></path>
    <path id="Path_2374" data-name="Path 2374" d="M888.329,886.013a1.794,1.794,0,0,1-1.278.186L875.2,883.4c-.423-.1-.542-.349-.265-.55l7.763-5.638a1.8,1.8,0,0,1,1.281-.187l11.854,2.8c.424.1.54.35.262.552Z" transform="translate(1096.45 992.489)" fill="#f2f2f2"></path>
    <path id="Path_2375" data-name="Path 2375" d="M791.318,895.772a1.79,1.79,0,0,1-1.282.186l-11.853-2.8c-.428-.1-.548-.348-.268-.552l9.115-6.62a1.81,1.81,0,0,1,1.282-.185l11.853,2.8c.427.1.541.352.267.551Z" transform="translate(1160.983 986.651)" fill="#f2f2f2"></path>
    <path id="Path_2376" data-name="Path 2376" d="M844.157,908.281a2.21,2.21,0,0,1-1.525.128l-15.53-3.665c-.556-.131-.787-.4-.507-.608l9.115-6.62a2.234,2.234,0,0,1,1.521-.129l15.53,3.665c.563.133.785.41.511.608Z" transform="translate(1128.581 978.964)" fill="#f2f2f2"></path>
    <path id="Path_2377" data-name="Path 2377" d="M1157.125,990.687a1.71,1.71,0,0,1-1.2.124l-11.844-2.8c-.432-.1-.594-.322-.361-.491l3.37-2.447a1.732,1.732,0,0,1,1.205-.122l11.844,2.8c.427.1.583.322.353.49Z" transform="translate(917.636 920.706)" fill="#f2f2f2"></path>
    <path id="Path_2378" data-name="Path 2378" d="M1204.429,1002.434a1.711,1.711,0,0,1-1.2.124l-11.844-2.8c-.432-.1-.594-.322-.361-.491l3.37-2.447a1.732,1.732,0,0,1,1.205-.122l11.844,2.8c.427.1.583.322.353.49Z" transform="translate(886.172 912.893)" fill="#f2f2f2"></path>
    <path id="Path_2379" data-name="Path 2379" d="M1254.575,1013.924a1.7,1.7,0,0,1-1.183.112l-11.848-2.8c-.425-.1-.6-.316-.373-.479l3.246-2.358a1.727,1.727,0,0,1,1.186-.111l11.848,2.8c.427.1.592.317.37.479Z" transform="translate(852.813 905.184)" fill="#f2f2f2"></path>
    <path id="Path_2380" data-name="Path 2380" d="M1223.524,989.068a1.7,1.7,0,0,1-1.183.112l-11.848-2.8c-.425-.1-.6-.316-.373-.479l3.246-2.358a1.727,1.727,0,0,1,1.186-.111l11.849,2.8c.427.1.592.317.37.479Z" transform="translate(873.466 921.717)" fill="#f2f2f2"></path>
    <path id="Path_2381" data-name="Path 2381" d="M966.168,937.02a1.8,1.8,0,0,1-1.288.184L887.747,919c-.421-.1-.549-.348-.269-.551l9.115-6.62a1.827,1.827,0,0,1,1.283-.185l77.133,18.2c.429.1.548.354.274.552Z" transform="translate(1088.105 969.463)" fill="#f2f2f2"></path>
    <path id="Path_2382" data-name="Path 2382" d="M936.842,897.444a1.8,1.8,0,0,1-1.283.185l-11.852-2.8c-.421-.1-.547-.35-.27-.551l7.764-5.638a1.817,1.817,0,0,1,1.286-.187l11.852,2.8c.43.1.546.351.267.553Z" transform="translate(1064.185 984.887)" fill="#f2f2f2"></path>
    <path id="Path_2383" data-name="Path 2383" d="M985.587,908.948a1.8,1.8,0,0,1-1.278.186l-11.851-2.8c-.425-.1-.548-.35-.271-.551l7.763-5.638a1.813,1.813,0,0,1,1.286-.187l11.851,2.8c.421.1.54.35.262.552Z" transform="translate(1031.76 977.234)" fill="#f2f2f2"></path>
    <path id="Path_2384" data-name="Path 2384" d="M1034.333,920.451a1.8,1.8,0,0,1-1.278.186l-11.854-2.8c-.423-.1-.542-.349-.264-.55l7.764-5.638a1.8,1.8,0,0,1,1.28-.188l11.854,2.8c.423.1.541.35.262.552Z" transform="translate(999.335 969.583)" fill="#9fb2e6"></path>
    <path id="Path_2385" data-name="Path 2385" d="M1083.065,931.953a1.793,1.793,0,0,1-1.279.186l-11.854-2.8c-.429-.1-.547-.35-.27-.551l7.764-5.638a1.8,1.8,0,0,1,1.285-.187l11.854,2.8c.426.1.541.349.263.552Z" transform="translate(966.925 961.933)" fill="#f2f2f2"></path>
    <path id="Path_2386" data-name="Path 2386" d="M1131.813,943.457a1.811,1.811,0,0,1-1.287.184l-11.85-2.8c-.423-.1-.542-.349-.264-.55l7.764-5.639a1.8,1.8,0,0,1,1.28-.187l11.85,2.8c.429.1.55.352.272.554Z" transform="translate(934.5 954.281)" fill="#f2f2f2"></path>
    <path id="Path_2387" data-name="Path 2387" d="M1180.561,954.944a1.8,1.8,0,0,1-1.282.185l-11.85-2.8c-.427-.1-.547-.35-.27-.551l7.763-5.639a1.808,1.808,0,0,1,1.286-.186l11.85,2.8c.425.1.544.35.266.552Z" transform="translate(902.075 946.641)" fill="#f2f2f2"></path>
    <path id="Path_2388" data-name="Path 2388" d="M1249.741,971.271a1.8,1.8,0,0,1-1.281.185l-32.293-7.621c-.427-.1-.545-.35-.268-.551l7.764-5.638a1.8,1.8,0,0,1,1.284-.187l32.293,7.621c.427.1.544.35.265.552Z" transform="translate(869.656 938.99)" fill="#f2f2f2"></path>
    <path id="Path_2389" data-name="Path 2389" d="M992.625,879.891a1.764,1.764,0,0,1-1.275.185l-11.855-2.8c-.426-.1-.548-.345-.266-.55l7.766-5.64a1.791,1.791,0,0,1,1.276-.183l11.855,2.8c.429.1.54.348.265.547Z" transform="translate(1027.079 996.56)" fill="#f2f2f2"></path>
    <path id="Path_2390" data-name="Path 2390" d="M1041.372,891.4a1.786,1.786,0,0,1-1.277.185l-11.858-2.8c-.422-.1-.544-.344-.263-.548l7.765-5.64a1.79,1.79,0,0,1,1.272-.185l11.858,2.8c.422.1.543.349.268.548Z" transform="translate(994.656 988.909)" fill="#9fb2e6"></path>
    <path id="Path_2391" data-name="Path 2391" d="M1090.109,902.9a1.791,1.791,0,0,1-1.28.185l-11.852-2.8c-.42-.1-.553-.346-.272-.55l7.766-5.64a1.818,1.818,0,0,1,1.281-.182l11.852,2.8c.423.1.545.349.271.549Z" transform="translate(962.24 981.256)" fill="#f2f2f2"></path>
    <path id="Path_2392" data-name="Path 2392" d="M1138.85,914.4a1.783,1.783,0,0,1-1.279.185l-11.85-2.8c-.427-.1-.551-.346-.269-.55l7.765-5.64a1.8,1.8,0,0,1,1.278-.183l11.851,2.8c.425.1.544.349.269.548Z" transform="translate(929.818 973.606)" fill="#f2f2f2"></path>
    <path id="Path_2393" data-name="Path 2393" d="M1187.6,925.887a1.786,1.786,0,0,1-1.279.185l-11.857-2.8c-.427-.1-.547-.345-.266-.549l7.766-5.64a1.787,1.787,0,0,1,1.275-.184l11.857,2.8c.423.1.544.349.269.548Z" transform="translate(897.393 965.967)" fill="#f2f2f2"></path>
    <path id="Path_2394" data-name="Path 2394" d="M1236.338,937.391a1.777,1.777,0,0,1-1.276.185l-11.849-2.8c-.431-.1-.554-.347-.273-.551l7.765-5.64a1.8,1.8,0,0,1,1.282-.182l11.849,2.8c.425.1.542.348.267.548Z" transform="translate(864.974 958.314)" fill="#f2f2f2"></path>
    <path id="Path_2395" data-name="Path 2395" d="M1285.08,948.892a1.78,1.78,0,0,1-1.276.185l-11.858-2.8c-.423-.1-.543-.344-.262-.548l7.766-5.64a1.785,1.785,0,0,1,1.271-.185l11.857,2.8c.424.1.542.348.267.548Z" transform="translate(832.552 950.665)" fill="#f2f2f2"></path>
    <path id="Path_2396" data-name="Path 2396" d="M1013.018,853.979a1.789,1.789,0,0,1-1.285.188l-11.853-2.8c-.422-.1-.54-.347-.257-.552l7.764-5.639a1.79,1.79,0,0,1,1.273-.185l11.853,2.8c.428.1.546.349.27.549Z" transform="translate(1013.516 1013.795)" fill="#f2f2f2"></path>
    <path id="Path_2397" data-name="Path 2397" d="M1061.747,865.481a1.791,1.791,0,0,1-1.281.189l-11.853-2.8c-.426-.1-.547-.348-.263-.554l7.764-5.639a1.8,1.8,0,0,1,1.279-.183l11.853,2.8c.422.1.542.348.266.548Z" transform="translate(981.104 1006.145)" fill="#9fb2e6"></path>
    <path id="Path_2398" data-name="Path 2398" d="M1110.491,876.984a1.791,1.791,0,0,1-1.287.188l-11.851-2.8c-.423-.1-.542-.347-.259-.553l7.764-5.639a1.79,1.79,0,0,1,1.274-.184l11.851,2.8c.43.1.547.35.272.55Z" transform="translate(948.682 998.494)" fill="#f2f2f2"></path>
    <path id="Path_2399" data-name="Path 2399" d="M1159.222,888.486a1.778,1.778,0,0,1-1.281.189l-11.854-2.8c-.427-.1-.547-.348-.264-.554l7.764-5.639a1.8,1.8,0,0,1,1.279-.184l11.854,2.8c.428.1.542.348.266.548Z" transform="translate(916.27 990.843)" fill="#f2f2f2"></path>
    <path id="Path_2400" data-name="Path 2400" d="M1207.983,899.974a1.787,1.787,0,0,1-1.278.19l-11.854-2.8c-.429-.1-.545-.348-.262-.553l7.764-5.639a1.789,1.789,0,0,1,1.277-.184l11.854,2.8c.42.1.539.347.263.548Z" transform="translate(883.834 983.202)" fill="#f2f2f2"></path>
    <path id="Path_2401" data-name="Path 2401" d="M1256.724,911.478a1.8,1.8,0,0,1-1.289.188l-11.852-2.8c-.42-.1-.543-.347-.26-.553l7.764-5.639a1.8,1.8,0,0,1,1.276-.184l11.852,2.8c.431.1.55.35.274.55Z" transform="translate(851.417 975.55)" fill="#f2f2f2"></path>
    <path id="Path_2402" data-name="Path 2402" d="M1305.459,922.979a1.791,1.791,0,0,1-1.282.189l-11.854-2.8c-.427-.1-.545-.348-.262-.554l7.764-5.638a1.791,1.791,0,0,1,1.277-.184l11.854,2.8c.423.1.542.348.267.548Z" transform="translate(819 967.9)" fill="#f2f2f2"></path>
    <path id="Path_2403" data-name="Path 2403" d="M899.372,827.179a1.793,1.793,0,0,1-1.286.188l-20.1-4.743c-.428-.1-.548-.349-.265-.554l7.764-5.638a1.8,1.8,0,0,1,1.28-.184l20.1,4.743c.428.1.547.349.271.549Z" transform="translate(1094.596 1032.916)" fill="#f2f2f2"></path>
    <path id="Path_2404" data-name="Path 2404" d="M1369.748,907.43a1.793,1.793,0,0,1-1.283.186l-20.1-4.743c-.42-.1-.544-.348-.264-.552l7.761-5.637a1.8,1.8,0,0,1,1.281-.187l20.1,4.743c.427.1.547.348.266.552Z" transform="translate(781.721 979.537)" fill="#f2f2f2"></path>
    <path id="Path_2405" data-name="Path 2405" d="M871.307,851.279a1.774,1.774,0,0,1-1.28.185l-23.959-5.655c-.428-.1-.551-.346-.27-.55l7.765-5.639a1.8,1.8,0,0,1,1.279-.183l23.96,5.654c.431.1.545.349.271.549Z" transform="translate(1115.83 1017.492)" fill="#f2f2f2"></path>
    <path id="Path_2406" data-name="Path 2406" d="M831.4,872.577a1.8,1.8,0,0,1-1.282.185l-15.975-3.77c-.428-.1-.546-.35-.269-.551l7.764-5.638a1.8,1.8,0,0,1,1.284-.186l15.975,3.77c.427.1.545.351.266.553Z" transform="translate(1137.063 1002.074)" fill="#f2f2f2"></path>
    <path id="Path_2407" data-name="Path 2407" d="M971.8,813.55a1.789,1.789,0,0,1-1.286.186l-11.845-2.8c-.427-.1-.547-.349-.267-.552l7.761-5.637a1.794,1.794,0,0,1,1.284-.186l11.845,2.8c.432.1.55.349.269.553Z" transform="translate(1040.934 1040.687)" fill="#9fb2e6"></path>
    <path id="Path_2408" data-name="Path 2408" d="M1020.311,824.981a1.8,1.8,0,0,1-1.285.186l-11.853-2.8c-.424-.1-.547-.349-.266-.552l7.761-5.637a1.8,1.8,0,0,1,1.283-.187l11.853,2.8c.427.1.549.348.268.553Z" transform="translate(1008.668 1033.085)" fill="#f2f2f2"></path>
    <path id="Path_2409" data-name="Path 2409" d="M1069.047,836.482a1.778,1.778,0,0,1-1.278.188l-11.853-2.8c-.424-.1-.543-.348-.263-.552l7.761-5.637a1.79,1.79,0,0,1,1.281-.187l11.853,2.8c.429.1.543.347.262.551Z" transform="translate(976.246 1025.434)" fill="#f2f2f2"></path>
    <path id="Path_2410" data-name="Path 2410" d="M1117.8,847.988a1.8,1.8,0,0,1-1.284.186l-11.846-2.8c-.43-.1-.548-.349-.268-.552l7.761-5.637a1.79,1.79,0,0,1,1.285-.186l11.846,2.8c.426.1.549.348.267.552Z" transform="translate(943.82 1017.781)" fill="#f2f2f2"></path>
    <path id="Path_2411" data-name="Path 2411" d="M1166.526,859.488a1.774,1.774,0,0,1-1.278.188l-11.85-2.8c-.43-.1-.548-.349-.268-.552l7.761-5.637a1.79,1.79,0,0,1,1.285-.186l11.85,2.8c.43.1.542.347.261.551Z" transform="translate(911.409 1010.131)" fill="#f2f2f2"></path>
    <path id="Path_2412" data-name="Path 2412" d="M1215.288,870.976a1.794,1.794,0,0,1-1.279.188l-11.857-2.8c-.424-.1-.541-.347-.261-.551l7.761-5.637a1.786,1.786,0,0,1,1.278-.188l11.858,2.8c.421.1.544.347.262.551Z" transform="translate(878.976 1002.491)" fill="#f2f2f2"></path>
    <path id="Path_2413" data-name="Path 2413" d="M1264.018,882.479a1.794,1.794,0,0,1-1.283.187l-11.852-2.8c-.429-.1-.55-.35-.27-.553l7.761-5.637a1.8,1.8,0,0,1,1.286-.186l11.852,2.8c.427.1.547.348.266.552Z" transform="translate(846.567 994.84)" fill="#f2f2f2"></path>
    <path id="Path_2414" data-name="Path 2414" d="M1312.758,893.979a1.782,1.782,0,0,1-1.276.188l-11.861-2.8c-.421-.1-.539-.347-.259-.55l7.761-5.637a1.784,1.784,0,0,1,1.276-.188l11.861,2.8c.423.1.54.346.259.551Z" transform="translate(814.142 987.19)" fill="#f2f2f2"></path>
    <path id="Path_2415" data-name="Path 2415" d="M1336.285,925.495a1.878,1.878,0,0,0-.693-.02,1.318,1.318,0,0,0-.579.206l-7.764,5.639c-.13.094-.189.207-.138.315a.584.584,0,0,0,.395.237l3.094.73L1320.419,940c-.132.1-.183.209-.13.314a.573.573,0,0,0,.4.236l7.985,1.884a1.908,1.908,0,0,0,.7.023,1.332,1.332,0,0,0,.587-.207l18.456-13.4c.131-.095.182-.2.127-.312a.566.566,0,0,0-.4-.237Z" transform="translate(800.135 960.251)" fill="#f2f2f2"></path>
    <path id="Path_2416" data-name="Path 2416" d="M916.583,993.125l-43.446-9.987c-.5-.116-.5-.51.01-.876l18.238-13.137a2.649,2.649,0,0,1,1.839-.456l43.446,9.987c.5.116.5.51-.01.876l-18.238,13.136a2.649,2.649,0,0,1-1.839.456" transform="translate(1097.794 931.526)" fill="#f2f2f2"></path>
    <path id="Path_2417" data-name="Path 2417" d="M1129.979,440.984,947.267,399.045c-2.48-.569-4.679.551-4.916,2.5l-1.506,12.43a2.688,2.688,0,0,0-.1.464L930.9,503.565c-.237,1.953,2.54,5.644,5.019,6.213l180.737,43.584c2.48.569,4.682-.551,4.916-2.5L1123.2,534.6a2.708,2.708,0,0,0,.1-.465l10.735-88.585c.237-1.953-1.58-4-4.06-4.565" transform="translate(1059.135 1310.489)" fill="#fff"></path>
    <path id="Path_2418" data-name="Path 2418" d="M1297.635,1070.328a.665.665,0,0,1-.407-1.191l8.062-6.238a.666.666,0,1,1,.814,1.053l-8.062,6.238a.665.665,0,0,1-.406.139" transform="translate(815.633 868.92)" fill="#dbdbdb"></path>
    <path id="Path_2419" data-name="Path 2419" d="M1267.55,1094.046a.665.665,0,0,1-.408-1.191l8.062-6.237a.665.665,0,0,1,.814,1.052l-8.062,6.238a.666.666,0,0,1-.406.139" transform="translate(835.644 853.144)" fill="#dbdbdb"></path>
    <path id="Path_2420" data-name="Path 2420" d="M613.624,739.26a5.894,5.894,0,1,1-5.893-5.893A5.893,5.893,0,0,1,613.624,739.26Z" transform="translate(1278 1088.016)" fill="none" stroke="#272b47" stroke-linecap="round" stroke-linejoin="round" stroke-width="4"></path>
    <path id="Path_2421" data-name="Path 2421" d="M1667.191,558.528a5.893,5.893,0,1,1-5.893-5.893A5.894,5.894,0,0,1,1667.191,558.528Z" transform="translate(577.22 1208.23)" fill="none" stroke="#272b47" stroke-linecap="round" stroke-linejoin="round" stroke-width="4"></path>
    <path id="Path_2422" data-name="Path 2422" d="M1209.862,289.793l-12.517,8.985-2.11-17.3Z" transform="translate(883.301 1388.589)" fill="none" stroke="#272b47" stroke-linecap="round" stroke-linejoin="round" stroke-width="4"></path>
    <path id="Path_2423" data-name="Path 2423" d="M1448.215,1004.663l26.9-15.583,52.166-44.846c2.328-2,1.591-5.884-1.232-6.5l-24.764-5.377-30.887,30.047Z" transform="translate(715.032 955.656)" fill="#e4e6f2"></path>
    <path id="Path_2424" data-name="Path 2424" d="M1546.589,740.062,1561,729.684l-20.295-4.474-14.27,10.08Z" transform="translate(663.004 1093.442)" fill="#f8c1af"></path>
    <path id="Path_2425" data-name="Path 2425" d="M1601,738.571l-14.427,10.382.412,82.879,13.856-10.875Z" transform="translate(623.003 1084.555)" fill="#d8501d"></path>
    <path id="Path_2426" data-name="Path 2426" d="M1546.646,760.071l-20.211-4.76.413,82.875,20.211,4.764Z" transform="translate(663.003 1073.42)" fill="#e55f1b"></path>
    <path id="Path_2427" data-name="Path 2427" d="M1474.082,843.18l14.41-10.378-20.3-4.474-14.27,10.08Z" transform="translate(711.232 1024.853)" fill="#bacae4"></path>
    <path id="Path_2428" data-name="Path 2428" d="M1528.493,841.689l-14.427,10.382.413,69.837,13.857-10.875Z" transform="translate(671.231 1015.966)" fill="#304668"></path>
    <path id="Path_2429" data-name="Path 2429" d="M1474.139,863.189l-20.211-4.76.208,23.393.2,46.44,20.212,4.764Z" transform="translate(711.232 1004.831)" fill="#344e7b"></path>
    <path id="Path_2430" data-name="Path 2430" d="M1407,979.924l14.41-10.378-20.295-4.474-14.27,10.08Z" transform="translate(755.852 933.898)" fill="#f2f2f2"></path>
    <path id="Path_2431" data-name="Path 2431" d="M1447.4,1035.308l13.857-10.875.158-46-14.427,10.382Z" transform="translate(715.851 925.01)" fill="#bbb"></path>
    <path id="Path_2432" data-name="Path 2432" d="M1407.469,1046.426l-20.212-4.764-.412-46.489,20.212,4.76Z" transform="translate(755.852 913.876)" fill="#c4c4c4"></path>
    <path id="Path_2433" data-name="Path 2433" d="M1131.047,567.469,974.991,530.853c-4.193-.984-7.141-5.674-6.585-10.476l7.329-63.3c.556-4.8,4.405-7.9,8.6-6.914l156.056,36.617c4.192.984,7.141,5.674,6.584,10.476l-7.328,63.3c-.556,4.8-4.405,7.9-8.6,6.914" transform="translate(1034.221 1276.51)" fill="#fff"></path>
    <path id="Path_2434" data-name="Path 2434" d="M1144.742,621.073c-3.45-10.844-19.8-.93-19.8-.93-24.516,13.76-37.619-3.393-55.026-10.823s-28.88,9.391-44.67,7.591-17.355-14.06-30.532-15.852-21.623,12.3-21.623,12.3l-.8,6.877a4.424,4.424,0,0,0,3.048,4.85l159.913,37.522c2.515.59,4.825-1.267,5.158-4.148Z" transform="translate(1031.612 1176.125)" fill="#dbdbdb"></path>
    <line id="Line_64" data-name="Line 64" x2="8.372" y2="1.964" transform="translate(2015.188 1799.102)" fill="none" stroke="#fff" stroke-linecap="round" stroke-linejoin="round" stroke-width="3.277"></line>
    <line id="Line_65" data-name="Line 65" x2="8.372" y2="1.964" transform="translate(2048.2 1806.848)" fill="none" stroke="#fff" stroke-linecap="round" stroke-linejoin="round" stroke-width="3.277"></line>
    <line id="Line_66" data-name="Line 66" x2="8.372" y2="1.964" transform="translate(2085.567 1815.615)" fill="none" stroke="#fff" stroke-linecap="round" stroke-linejoin="round" stroke-width="3.277"></line>
    <line id="Line_67" data-name="Line 67" x2="8.372" y2="1.964" transform="translate(2120.79 1823.88)" fill="none" stroke="#fff" stroke-linecap="round" stroke-linejoin="round" stroke-width="3.277"></line>
    <line id="Line_68" data-name="Line 68" x2="8.371" y2="1.964" transform="translate(2155.539 1832.033)" fill="none" stroke="#fff" stroke-linecap="round" stroke-linejoin="round" stroke-width="3.277"></line>
    <path id="Path_2435" data-name="Path 2435" d="M1208.071,520.852a.487.487,0,0,1-.109-.013l-8.371-1.964a.475.475,0,1,1,.217-.925l8.372,1.964a.475.475,0,0,1-.108.937" transform="translate(880.648 1231.309)" fill="#bbb"></path>
    <path id="Path_2436" data-name="Path 2436" d="M1169.956,530.776a.489.489,0,0,1-.109-.013l-155.582-36.506a.475.475,0,0,1,.217-.924l155.583,36.506a.475.475,0,0,1-.108.937" transform="translate(1003.918 1247.683)" fill="#bbb"></path>
    <path id="Path_2437" data-name="Path 2437" d="M1065.972,571.4a.446.446,0,0,1-.055,0,.475.475,0,0,1-.417-.526l5.656-48.848a.475.475,0,0,1,.943.109l-5.655,48.848a.475.475,0,0,1-.471.42" transform="translate(969.597 1228.873)" fill="#bbb"></path>
    <path id="Path_2438" data-name="Path 2438" d="M1172.107,596.3a.442.442,0,0,1-.056,0,.474.474,0,0,1-.417-.526l5.655-48.848a.475.475,0,0,1,.943.109l-5.655,48.848a.474.474,0,0,1-.47.42" transform="translate(899.001 1212.309)" fill="#bbb"></path>
    <path id="Path_2439" data-name="Path 2439" d="M1278.241,621.2a.435.435,0,0,1-.055,0,.474.474,0,0,1-.417-.526l5.655-48.848a.475.475,0,0,1,.943.109l-5.656,48.848a.475.475,0,0,1-.471.42" transform="translate(828.406 1195.744)" fill="#bbb"></path>
    <path id="Path_2440" data-name="Path 2440" d="M1384.375,646.106a.432.432,0,0,1-.055,0,.474.474,0,0,1-.417-.526l5.655-48.848a.475.475,0,0,1,.943.109l-5.655,48.848a.475.475,0,0,1-.471.42" transform="translate(757.811 1179.181)" fill="#bbb"></path>
    <path id="Path_2441" data-name="Path 2441" d="M1416.57,569.772a.482.482,0,0,1-.109-.013l-8.371-1.964a.475.475,0,1,1,.217-.924l8.372,1.964a.475.475,0,0,1-.108.937" transform="translate(741.965 1198.769)" fill="#bbb"></path>
    <path id="Path_2442" data-name="Path 2442" d="M1314.308,545.779a.487.487,0,0,1-.109-.013l-8.372-1.964a.475.475,0,0,1,.217-.924l8.371,1.964a.475.475,0,0,1-.108.937" transform="translate(809.984 1214.728)" fill="#bbb"></path>
    <path id="Path_2443" data-name="Path 2443" d="M1108.835,497.567a.49.49,0,0,1-.109-.013l-8.371-1.964a.475.475,0,0,1,.217-.924l8.371,1.964a.475.475,0,0,1-.108.937" transform="translate(946.655 1246.797)" fill="#bbb"></path>
    <path id="Path_2444" data-name="Path 2444" d="M1031.18,479.347a.485.485,0,0,1-.109-.013l-8.371-1.964a.475.475,0,1,1,.217-.924l8.372,1.964a.475.475,0,0,1-.108.937" transform="translate(998.307 1258.916)" fill="#bbb"></path>
    <path id="Path_2445" data-name="Path 2445" d="M1109.979,603.3c-10.039.22-18.184-4.674-26.155-9.461a101.727,101.727,0,0,0-12.185-6.585c-9.494-4.052-17.014-.668-24.975,2.914-6.067,2.73-12.341,5.552-19.447,4.742-8.583-.978-13.037-4.9-17.345-8.686-3.715-3.268-7.225-6.355-13.207-7.168-12.366-1.683-20.5,11.645-20.582,11.78a1.038,1.038,0,0,1-1.318.437.866.866,0,0,1-.306-1.251c.088-.147,8.977-14.685,22.665-12.823,6.5.884,10.37,4.284,14.109,7.572,4.114,3.619,8.369,7.361,16.4,8.277,6.573.749,12.31-1.835,18.388-4.569,8.007-3.6,16.286-7.328,26.53-2.956a102.981,102.981,0,0,1,12.392,6.69c12.234,7.348,23.79,14.289,41.769,4.2.364-.221,9.734-5.834,16.124-3.859a7.437,7.437,0,0,1,5,5.226,1.032,1.032,0,0,1-.642,1.228.872.872,0,0,1-1.191-.5,5.812,5.812,0,0,0-3.912-4.158c-5.566-1.723-14.446,3.594-14.535,3.648-6.542,3.672-12.323,5.191-17.581,5.306" transform="translate(1030.247 1191.999)" fill="#e55f1b"></path>
    <path id="Path_2446" data-name="Path 2446" d="M1308.82,680.881l-18.638-4.373.969-8.369,18.585,4.837Z" transform="translate(820.148 1131.402)" fill="#344e7b"></path>
    <path id="Path_2447" data-name="Path 2447" d="M1417.513,733.37,1398.874,729l.969-8.369L1418.482,725Z" transform="translate(747.851 1096.49)" fill="#344e7b"></path>
    <path id="Path_2448" data-name="Path 2448" d="M1057.925,1163.579c0,4.1-7.877,7.429-17.593,7.429s-17.593-3.326-17.593-7.429,7.877-7.429,17.593-7.429,17.593,3.326,17.593,7.429" transform="translate(998.037 806.802)" fill="#e4e6f2"></path>
    <path id="Path_2449" data-name="Path 2449" d="M1136.452,874.984l-19.364-4.163,9.192-31.412,19.341,4.244Z" transform="translate(935.281 1017.482)" fill="#fff"></path>
    <path id="Path_2450" data-name="Path 2450" d="M1050.641,1165.969l2.652.478c1.943-.283,2.916-.653,3.546.066l.179.2a1.339,1.339,0,0,1-.848,1.6l-5.28,2.269c-1.032.264-2.115-.12-2.12-1.113,0,0,.006-2.777.476-2.886.946-.221.571-.409,1.4-.62" transform="translate(980.723 800.271)" fill="#061a17"></path>
    <path id="Path_2451" data-name="Path 2451" d="M1053.25,1162.445c-.013,1.164-2.643,1.13-2.63-.034l.042-3.782,2.63.034Z" transform="translate(979.492 805.153)" fill="#e5aba0"></path>
    <path id="Path_2452" data-name="Path 2452" d="M1046.146,1025.473c-1.588,2.312-5.526,2.274-6.374.707-.493-9.24-3.389-19.079-.079-31.783l-2.012-33.185,14.173-1.91-3.552,40.682Z" transform="translate(988.098 937.735)" fill="#22374b"></path>
    <path id="Path_2453" data-name="Path 2453" d="M1017.674,931.773s-7.8-7.65-8.77-10.628,2.947-7.605,2.947-7.605l6.014,2.933-2.031,4.324,4.762,9.591Z" transform="translate(1007.342 968.175)" fill="#e5aba0"></path>
    <path id="Path_2454" data-name="Path 2454" d="M1053.581,989.4l13.006,2.442,1.418-11.8L1055,977.6Z" transform="translate(977.522 925.568)" fill="#22374b"></path>
    <path id="Path_2455" data-name="Path 2455" d="M1090.028,1175.652l2.652.478c1.943-.283,2.916-.653,3.546.066l.179.2a1.339,1.339,0,0,1-.849,1.6l-5.28,2.269c-1.032.264-2.115-.12-2.12-1.113,0,0,.005-2.777.476-2.886.945-.221.571-.41,1.4-.62" transform="translate(954.525 793.83)" fill="#061a17"></path>
    <path id="Path_2456" data-name="Path 2456" d="M1092.636,1172.129c-.013,1.164-2.643,1.13-2.631-.034l.043-3.782,2.63.034Z" transform="translate(953.294 798.712)" fill="#e5aba0"></path>
    <path id="Path_2457" data-name="Path 2457" d="M1081.9,1028.321c-1.588,2.312-5.526,2.274-6.375.707-.493-9.24-3.389-19.079-.079-31.783l-3.838-38.536,16,3.442-3.552,40.682Z" transform="translate(965.528 938.131)" fill="#22374b"></path>
    <path id="Path_2458" data-name="Path 2458" d="M1071.39,826.376c-.029,2.76-1.614,4.023-3.54,2.822s-2.407-4.6-2.519-7.357c-.054-1.322.7-3.839,2.624-2.638s3.464,4.413,3.435,7.172" transform="translate(969.709 1031.132)" fill="#de5840"></path>
    <path id="Path_2459" data-name="Path 2459" d="M1080.273,809.911c-.445,4.016-4.057,6.115-6.68,4.04s-4.388-7.013-3.943-11.029,2.933-5.588,5.556-3.513,5.513,6.486,5.067,10.5" transform="translate(966.88 1044.697)" fill="#e5aba0"></path>
    <path id="Path_2460" data-name="Path 2460" d="M1067.7,841.693l-.373-.139a2.65,2.65,0,0,1-1.47-3.328l2.548-7.676a2.431,2.431,0,0,1,3.114-1.622l.373.139a2.65,2.65,0,0,1,1.471,3.328l-1.444,7.75c-.452,1.362-2.957,2.018-4.217,1.549" transform="translate(969.451 1024.548)" fill="#e5aba0"></path>
    <path id="Path_2461" data-name="Path 2461" d="M1059.752,811.087s.467,2.772,5.1,2.605c3.5-.126,1.557-6.734,4.864-8.049,4.47-1.779,3.162-6.441,1.39-8.078s-4.253-.988-7.311-.17c-3.235.865-7.731,3.117-4.047,13.693" transform="translate(974.336 1045.989)" fill="#283e67"></path>
    <path id="Path_2462" data-name="Path 2462" d="M1088.4,825.125a1.71,1.71,0,0,1-1.838,1.579,1.783,1.783,0,1,1,1.838-1.579" transform="translate(956.555 1028.291)" fill="#e5aba0"></path>
    <path id="Path_2463" data-name="Path 2463" d="M1033.5,893.021c-.06-9.724,1.509-11.222.681-19.592-.571-16.043,1.5-19.2,6.312-20.5l3.25-.544c1.03.162,2,.624,3.02.843,4.276.917,11.636,2.652,14.752,4.281,2.775,1.45-1.513,4.04-1.357,7.567,1.208,10.3,2.119,25.851,2.491,30.947-1.2,7.374-26.35,1.825-29.149-3" transform="translate(990.881 1008.852)" fill="#344e7b"></path>
    <path id="Path_2464" data-name="Path 2464" d="M1102.23,893.728l-2.345,2.992c-2.326,12.774-.418,24.819-4.941,30.431,2.919-.143,5.608.025,7.514-1.632a3.262,3.262,0,0,0,1.039-2.489Z" transform="translate(950.01 981.352)" fill="#344e7b"></path>
    <path id="Path_2465" data-name="Path 2465" d="M1062.239,851.5a2.486,2.486,0,0,0,1.9,3.108c2.584.747,6.716-.97,6.716-.97s-2.944-3.027-8.618-2.139" transform="translate(971.818 1009.549)" fill="#fff"></path>
    <path id="Path_2466" data-name="Path 2466" d="M1084.863,832.142h0a.384.384,0,0,1-.392-.383l-.448-2.626c-.009-.222.513-.047.72-.059s.809-.162.818.06l-.337,2.581a.4.4,0,0,1-.361.427" transform="translate(957.274 1024.397)" fill="#283e67"></path>
    <path id="Path_2467" data-name="Path 2467" d="M1148.708,896.009s-5.946,9.539-8.664,11.1c-.886.508-1.489.01-2.258-.437-2.122-1.234-9.966-6.943-9.966-6.943l2.185-8.71,8.277,9.515,8.474-7.1Z" transform="translate(928.142 983.155)" fill="#e5aba0"></path>
    <path id="Path_2468" data-name="Path 2468" d="M1104.672,879.688l8.737,7.623c3.061,3.164,8.4-5.277,8.382-8.261,0-.33-13.205-11.364-13.205-11.364s-5.895,6.261-3.913,12" transform="translate(943.81 998.673)" fill="#344e7b"></path>
    <path id="Path_2469" data-name="Path 2469" d="M1183.766,897h0a1.489,1.489,0,0,0,2.054.762l1.846-.966a1.728,1.728,0,0,0,.722-2.215h0a1.49,1.49,0,0,0-2.054-.762l-1.846.966a1.728,1.728,0,0,0-.722,2.215" transform="translate(891.03 981.405)" fill="#e5aba0"></path>
    <path id="Path_2470" data-name="Path 2470" d="M1022.122,864.1l-9.343,17.717s6.461,5.9,10.188,4.247,2.222-20.651,2.222-20.651Z" transform="translate(1004.662 1001.056)" fill="#344e7b"></path>
    <g id="Group_3296" data-name="Group 3296" transform="translate(1985.099 1776.016)" opacity="0.3">
      <g id="Group_3295" data-name="Group 3295" transform="translate(0 0)">
        <g id="Group_3294" data-name="Group 3294" clip-path="url(#clip-path)">
          <path id="Path_2471" data-name="Path 2471" d="M963.792,608.5l-43.77-10.616s-3.255,29.544-3.827,34.525l5.971,21.766,40.927,10.364a12.7,12.7,0,0,0,2.005-5.618l4.7-40.494c.585-5.085-1.705-8.869-6.008-9.927" transform="translate(-916.194 -597.882)" fill="#dbdbdb"></path>
        </g>
      </g>
    </g>
    <path id="Path_2472" data-name="Path 2472" d="M840.018,616.118l-75.475-17.733c-4.133-.971-8.045,2.643-8.693,8.032l-5.812,48.3c-.614,5.1,1.791,8.9,6.309,9.958L828.4,681.134c6.328,1.487,12.24-3.327,13.1-10.471l5.325-43.806c.662-5.5-1.931-9.595-6.8-10.739" transform="translate(1179.488 1177.905)" fill="#fff"></path>
    <path id="Path_2473" data-name="Path 2473" d="M919.69,722.54l-8.871-2.11,3.7-32.811,8.871,2.11Z" transform="translate(1072.48 1118.445)" fill="#dbdbdb"></path>
    <path id="Path_2474" data-name="Path 2474" d="M879.73,713.037l-8.871-2.109,3.7-32.811,8.871,2.109Z" transform="translate(1099.06 1124.766)" fill="#dbdbdb"></path>
    <path id="Path_2475" data-name="Path 2475" d="M839.769,703.534l-8.871-2.109,3.7-32.811,8.871,2.11Z" transform="translate(1125.64 1131.087)" fill="#dbdbdb"></path>
    <path id="Path_2476" data-name="Path 2476" d="M799.809,694.031l-8.871-2.11,3.7-32.811,8.871,2.109Z" transform="translate(1152.22 1137.408)" fill="#dbdbdb"></path>
    <path id="Path_2477" data-name="Path 2477" d="M976.857,665.095a.532.532,0,0,1-.438-.832l2.365-3.45-4.024-1.328a.531.531,0,0,1,.334-1.009l4.7,1.55a.532.532,0,0,1,.272.805l-2.766,4.033a.531.531,0,0,1-.439.231" transform="translate(1030.193 1137.848)" fill="#bbb"></path>
    <path id="Path_2478" data-name="Path 2478" d="M833.081,668.906a.532.532,0,0,1-.448-.245l-8.826-13.77L804.3,661.353a.532.532,0,1,1-.334-1.009l19.9-6.592a.531.531,0,0,1,.615.218l8.823,13.765L865.281,656.7a.531.531,0,0,1,.347,1l-32.374,11.172a.537.537,0,0,1-.173.029" transform="translate(1143.798 1140.99)" fill="#bbb"></path>
    <path id="Path_2479" data-name="Path 2479" d="M799.809,748.888l-8.871-2.11.586-5.2,8.871,2.11Z" transform="translate(1152.22 1082.551)" fill="#e55f1b"></path>
    <path id="Path_2480" data-name="Path 2480" d="M839.769,743.782l-8.871-2.11,1.415-12.55,8.872,2.11Z" transform="translate(1125.64 1090.839)" fill="#e55f1b"></path>
    <path id="Path_2481" data-name="Path 2481" d="M879.73,736.574l-8.871-2.109,2.364-20.963,8.871,2.109Z" transform="translate(1099.06 1101.23)" fill="#e55f1b"></path>
    <path id="Path_2482" data-name="Path 2482" d="M919.69,774.438l-8.871-2.11.754-6.685,8.871,2.11Z" transform="translate(1072.48 1066.547)" fill="#e55f1b"></path>
    <path id="Path_2483" data-name="Path 2483" d="M959.651,732.043l-8.871-2.11,3.7-32.811,8.871,2.11Z" transform="translate(1045.901 1112.124)" fill="#e55f1b"></path>
    <path id="Path_2484" data-name="Path 2484" d="M846.888,777.417a.522.522,0,0,1-.124-.015l-75.635-17.986a.531.531,0,1,1,.246-1.034l75.635,17.987a.532.532,0,0,1-.122,1.049" transform="translate(1165.667 1071.387)" fill="#bbb"></path>
  </g>
</svg>
