<svg xmlns="http://www.w3.org/2000/svg" id="icon_commodities" viewBox="0 0 63.549 54"><defs><style>      .cls-1 {        fill: #0f2c52;      }    </style></defs><g id="Group_69" data-name="Group 69"><path id="Path_102" data-name="Path 102" class="cls-1" d="M287.121,303.645l-5.487-10.856a1.492,1.492,0,0,0-.75-.7l-11.78-4.971-1.137,1.137,12.339,5.206.089.177-14.456,5.634-5.794-3.2-.746.747,6,3.308v12.357l-12.824-8.837-1.071,1.071,13.353,9.2a1.491,1.491,0,0,0,1.418.148l20.094-8.38a1.489,1.489,0,0,0,.756-2.047ZM266.409,312.4V300.178l14.446-5.63,4.938,9.77Z" transform="translate(-223.733 -260.186)"></path><path id="Path_103" data-name="Path 103" class="cls-1" d="M248.066,285.953l.747-.744,7.752-7.725,1.137-1.133,8.281-8.252a1.481,1.481,0,0,0,0-2.1l-15.941-15.885a1.493,1.493,0,0,0-2.107,0L213.6,284.328a1.48,1.48,0,0,0,0,2.1l15.941,15.885a1.493,1.493,0,0,0,2.107,0l8.581-8.551L241.3,292.7Zm-8.012,5.885-1.071,1.068-7.88,7.852v-4.988l4.917-4.9,1.071-1.067,6.393-6.37.746-.744,7.334-7.307,1.137-1.133,6.717-6.694h5.006l-8.2,8.173-1.137,1.133-7.628,7.6-.746.744Zm24.369-25.295h-5.006l-9.921-9.887v-4.988Zm-21.863,16.382-6.317,6.3-1.071,1.068-4.575,4.559-9.5-9.469,27.9-27.8,9.5,9.468-6.8,6.775-1.137,1.133-7.249,7.224Zm6.43-31.761Zm-.508,3.786v1.707l-28.314,28.216h-5.006l33.32-33.2Zm-33.827,30.429Zm3.8.505h1.714l9.921,9.887v4.988l-14.927-14.875Z" transform="translate(-213.164 -249.679)"></path></g></svg>