<svg xmlns="http://www.w3.org/2000/svg" id="icon_forex" viewBox="0 0 51.877 54"><defs><style>      .cls-1 {        fill: #0f2c52;      }    </style></defs><path id="Path_97" data-name="Path 97" class="cls-1" d="M115.032,269.535h1.4a9.476,9.476,0,0,0,.5,1.68q1.452,3.436,5.581,3.435a5.924,5.924,0,0,0,2.522-.53v-1.881a3.76,3.76,0,0,1-2.668.895,4.342,4.342,0,0,1-2.274-.629,4.106,4.106,0,0,1-1.846-2.969h5.435l.256-1.224h-5.883c-.006-.091-.009-.372-.009-.841,0-.116,0-.237.009-.366h6.13l.247-1.223H118.2a3.949,3.949,0,0,1,.6-1.581,4.228,4.228,0,0,1,1.124-1.243,4.334,4.334,0,0,1,2.576-.74,3.858,3.858,0,0,1,2.53.923l.365-1.7a5.211,5.211,0,0,0-2.859-.74,6.647,6.647,0,0,0-3.243.8,5.8,5.8,0,0,0-2.951,4.275h-1.059l-.256,1.223h1.2c-.006.128-.009.253-.009.375q0,.448.027.831h-.959Z" transform="translate(-82.79 -254.127)"></path><path id="Path_98" data-name="Path 98" class="cls-1" d="M86.243,288.85a16.444,16.444,0,0,0,15.872-12.1,13.38,13.38,0,1,0-6.148-17.444,16.386,16.386,0,1,0-9.724,29.539Zm0-31.007a14.775,14.775,0,0,1,9.537,3.49l.95.8.413-1.171a11.708,11.708,0,1,1,4.852,13.765l-1.059-.661-.237,1.221a14.718,14.718,0,1,1-14.456-17.447Z" transform="translate(-69.807 -251.439)"></path><path id="Path_99" data-name="Path 99" class="cls-1" d="M87.653,282.379a5.585,5.585,0,0,1-.907-2.61l-2.218.416a6.156,6.156,0,0,0,.876,2.9,4.685,4.685,0,0,0,1.789,1.722,8.154,8.154,0,0,0,2.689.741v2.205h1.3v-2.23a5.293,5.293,0,0,0,5.231-5.464,5.272,5.272,0,0,0-.349-1.936,4.438,4.438,0,0,0-1-1.543,5.452,5.452,0,0,0-1.678-1.1,17.68,17.68,0,0,0-2.206-.649v-6.359a3.006,3.006,0,0,1,1.7.914,3.773,3.773,0,0,1,.815,1.99l2.279-.343a5.01,5.01,0,0,0-1.74-3.3,5.441,5.441,0,0,0-3.051-1.127v-1.054h-1.3v1.054a5.8,5.8,0,0,0-3.308,1.2,5.189,5.189,0,0,0-1.1,6.175,4.075,4.075,0,0,0,1.623,1.629,9.219,9.219,0,0,0,2.781,1.054v7.021A3.215,3.215,0,0,1,87.653,282.379Zm3.528-5.4a5.131,5.131,0,0,1,2.37,1.3,2.959,2.959,0,0,1,.595,1.93,3.458,3.458,0,0,1-.839,2.365,3.273,3.273,0,0,1-2.126,1.115Zm-3.437-3.639a3.061,3.061,0,0,1,.11-3.859,3.268,3.268,0,0,1,2.028-1.03v6.1A4.345,4.345,0,0,1,87.744,273.337Z" transform="translate(-74.033 -255.551)"></path><path id="Path_100" data-name="Path 100" class="cls-1" d="M109.217,292.233l-20.94,14.78h-.9l-9.2-6.155a1.248,1.248,0,0,0-1.388,2.074L87,309.766v7.57h1.71V309.76l19.544-13.8v8.193h1.71v-7.836l9.814,9.057a1.248,1.248,0,0,0,1.692-1.834Z" transform="translate(-71.653 -263.336)"></path></svg>