<svg xmlns="http://www.w3.org/2000/svg" viewBox="0 0 56 56"><g id="trading-platforms-metatrader4-icon-question-mark" transform="translate(1915 -1782)"><rect id="&#x41F;&#x440;&#x44F;&#x43C;&#x43E;&#x443;&#x433;&#x43E;&#x43B;&#x44C;&#x43D;&#x438;&#x43A;_20115" data-name="&#x41F;&#x440;&#x44F;&#x43C;&#x43E;&#x443;&#x433;&#x43E;&#x43B;&#x44C;&#x43D;&#x438;&#x43A; 20115" width="56" height="56" transform="translate(-1915 1782)" fill="#fff" opacity="0"></rect><g id="&#x421;&#x43B;&#x43E;&#x439;_2" data-name="&#x421;&#x43B;&#x43E;&#x439; 2" transform="translate(-1915 1782)"><g id="&#x421;&#x43B;&#x43E;&#x439;_1" data-name="&#x421;&#x43B;&#x43E;&#x439; 1" transform="translate(0 0)"><path id="&#x41A;&#x43E;&#x43D;&#x442;&#x443;&#x440;_5084" data-name="&#x41A;&#x43E;&#x43D;&#x442;&#x443;&#x440; 5084" d="M27.685,0A27.67,27.67,0,0,1,49.85,44.269l1.8,10.275a.887.887,0,0,1-1.12,1.007l-11.44-2.639A27.686,27.686,0,1,1,27.685,0Z" transform="translate(0 0)" fill="#4c4c4c"></path><path id="&#x41A;&#x43E;&#x43D;&#x442;&#x443;&#x440;_5260" data-name="&#x41A;&#x43E;&#x43D;&#x442;&#x443;&#x440; 5260" d="M27.957,9.228A21.624,21.624,0,1,1,6.345,30.861,21.624,21.624,0,0,1,27.957,9.228Z" transform="translate(-0.52 -2.943)" fill="#fff" fill-rule="evenodd"></path><path id="&#x41A;&#x43E;&#x43D;&#x442;&#x443;&#x440;_5261" data-name="&#x41A;&#x43E;&#x43D;&#x442;&#x443;&#x440; 5261" d="M26.231,9.228A19.9,19.9,0,1,1,6.345,29.133,19.9,19.9,0,0,1,26.231,9.228Z" transform="translate(1.206 -1.216)" fill="#ff8055" fill-rule="evenodd"></path><path id="&#x41A;&#x43E;&#x43D;&#x442;&#x443;&#x440;_5085" data-name="&#x41A;&#x43E;&#x43D;&#x442;&#x443;&#x440; 5085" d="M13.006,24.524a.887.887,0,1,1-1.771.091l-.015-.437a8.491,8.491,0,0,1,1.067-4.088,6.614,6.614,0,0,1,2.832-2.764l.027-.013a7.488,7.488,0,0,0,2.948-2.463,5.831,5.831,0,0,0,.89-3.28,6.21,6.21,0,1,0-12.42,0l.013.446a.886.886,0,0,1-1.771.091l-.02-.536a7.988,7.988,0,0,1,15.975,0,7.552,7.552,0,0,1-1.182,4.25,9.2,9.2,0,0,1-3.625,3.066l-.067.036a4.857,4.857,0,0,0-2.055,2.037A6.692,6.692,0,0,0,13,24.178l.008.346Z" transform="translate(14.91 11.155)" fill="#fff"></path><path id="&#x41A;&#x43E;&#x43D;&#x442;&#x443;&#x440;_5086" data-name="&#x41A;&#x43E;&#x43D;&#x442;&#x443;&#x440; 5086" d="M7.34,9.228a1,1,0,1,1-1,1,1,1,0,0,1,1-1Z" transform="translate(19.764 29.743)" fill="#fff" fill-rule="evenodd"></path></g></g></g></svg>