<svg xmlns="http://www.w3.org/2000/svg" viewBox="0 0 56 56"><g id="&#x421;&#x433;&#x440;&#x443;&#x43F;&#x43F;&#x438;&#x440;&#x43E;&#x432;&#x430;&#x442;&#x44C;_5358" data-name="&#x421;&#x433;&#x440;&#x443;&#x43F;&#x43F;&#x438;&#x440;&#x43E;&#x432;&#x430;&#x442;&#x44C; 5358" transform="translate(8.696 0.29)"><path id="&#x41A;&#x43E;&#x43D;&#x442;&#x443;&#x440;_4744" data-name="&#x41A;&#x43E;&#x43D;&#x442;&#x443;&#x440; 4744" d="M15121.492,32355.463v-.322a1.873,1.873,0,0,1,.525-1.295,1.791,1.791,0,0,1,1.292-.525h3.231a5.128,5.128,0,0,1,1.536-2.865,5.217,5.217,0,0,1,7.229,0,5.126,5.126,0,0,1,1.535,2.865h3.231a1.791,1.791,0,0,1,1.292.525,1.874,1.874,0,0,1,.526,1.295v.322h6.584a2.894,2.894,0,0,1,2.908,2.908v42.129a2.9,2.9,0,0,1-2.908,2.912h-33.568a2.9,2.9,0,0,1-2.908-2.912v-42.129a2.9,2.9,0,0,1,2.908-2.908Z" transform="translate(-15112.695 -32348.023)" fill="#4c4c4c"></path><path id="&#x41A;&#x43E;&#x43D;&#x442;&#x443;&#x440;_4745" data-name="&#x41A;&#x43E;&#x43D;&#x442;&#x443;&#x440; 4745" d="M15295.485,33188.965a.482.482,0,1,1,0-.965h23.389a.482.482,0,1,1,0,.965Z" transform="translate(-15287.838 -33153.133)" fill="#fff"></path><path id="&#x41A;&#x43E;&#x43D;&#x442;&#x443;&#x440;_4746" data-name="&#x41A;&#x43E;&#x43D;&#x442;&#x443;&#x440; 4746" d="M15295.485,33328.965a.485.485,0,0,1-.485-.48.465.465,0,0,1,.485-.484h23.389a.488.488,0,0,1,.483.484.513.513,0,0,1-.483.48Z" transform="translate(-15287.838 -33287.48)" fill="#fff"></path><path id="&#x41A;&#x43E;&#x43D;&#x442;&#x443;&#x440;_4747" data-name="&#x41A;&#x43E;&#x43D;&#x442;&#x443;&#x440; 4747" d="M15295.485,33468.012a.5.5,0,0,1-.485-.527.491.491,0,0,1,.485-.484h23.389a.52.52,0,0,1,.483.484.528.528,0,0,1-.483.527Z" transform="translate(-15287.838 -33420.863)" fill="#fff"></path><g id="&#x41A;&#x43E;&#x43D;&#x442;&#x443;&#x440;_4748" data-name="&#x41A;&#x43E;&#x43D;&#x442;&#x443;&#x440; 4748" transform="translate(-15444.156 -32775.035)" fill="#ff8055"><path d="M 15460.7060546875 32804.34375 C 15460.400390625 32804.34375 15460.1044921875 32804.21875 15459.873046875 32803.99609375 L 15459.87109375 32803.9921875 L 15459.869140625 32803.98828125 L 15455.107421875 32799.21484375 C 15454.8740234375 32798.984375 15454.74609375 32798.6875 15454.748046875 32798.375 C 15454.75 32798.06640625 15454.87890625 32797.7734375 15455.1103515625 32797.55078125 C 15455.341796875 32797.3203125 15455.6376953125 32797.19140625 15455.943359375 32797.19140625 C 15456.2509765625 32797.19140625 15456.5478515625 32797.3203125 15456.779296875 32797.5546875 L 15460.732421875 32801.50390625 L 15470.076171875 32792.10546875 C 15470.3076171875 32791.87109375 15470.6044921875 32791.7421875 15470.9130859375 32791.7421875 C 15471.220703125 32791.7421875 15471.517578125 32791.87109375 15471.75 32792.10546875 C 15471.986328125 32792.34375 15472.11328125 32792.6484375 15472.1083984375 32792.9609375 C 15472.1044921875 32793.265625 15471.9755859375 32793.5546875 15471.74609375 32793.77734375 L 15461.5419921875 32803.98828125 C 15461.30859375 32804.21875 15461.0126953125 32804.34375 15460.7060546875 32804.34375 Z" stroke="none"></path><path d="M 15460.7060546875 32803.84375 C 15460.876953125 32803.84375 15461.0478515625 32803.7734375 15461.1884765625 32803.63671875 L 15471.3955078125 32793.421875 C 15471.6796875 32793.1484375 15471.6796875 32792.74609375 15471.3955078125 32792.45703125 C 15471.2529296875 32792.31640625 15471.0830078125 32792.2421875 15470.9130859375 32792.2421875 C 15470.7421875 32792.2421875 15470.572265625 32792.31640625 15470.4306640625 32792.45703125 L 15460.7333984375 32802.2109375 L 15456.423828125 32797.90625 C 15456.2822265625 32797.765625 15456.11328125 32797.69140625 15455.943359375 32797.69140625 C 15455.7734375 32797.69140625 15455.6025390625 32797.765625 15455.4609375 32797.90625 C 15455.1767578125 32798.1796875 15455.1767578125 32798.58203125 15455.4609375 32798.86328125 L 15460.22265625 32803.63671875 C 15460.3642578125 32803.7734375 15460.53515625 32803.84375 15460.7060546875 32803.84375 M 15460.7060546875 32804.84375 C 15460.26953125 32804.84375 15459.849609375 32804.66796875 15459.5244140625 32804.3515625 L 15459.51953125 32804.34765625 L 15459.5146484375 32804.34375 L 15454.7529296875 32799.5703125 C 15454.423828125 32799.2421875 15454.2451171875 32798.81640625 15454.248046875 32798.37109375 C 15454.2509765625 32797.9296875 15454.4326171875 32797.51171875 15454.759765625 32797.19140625 C 15455.0849609375 32796.87109375 15455.5048828125 32796.69140625 15455.943359375 32796.69140625 C 15456.384765625 32796.69140625 15456.806640625 32796.87109375 15457.1318359375 32797.19921875 L 15460.73046875 32800.796875 L 15469.7216796875 32791.75390625 C 15470.046875 32791.42578125 15470.470703125 32791.2421875 15470.9130859375 32791.2421875 C 15471.3544921875 32791.2421875 15471.77734375 32791.421875 15472.103515625 32791.75 L 15472.1064453125 32791.75390625 L 15472.1083984375 32791.7578125 C 15472.4375 32792.08984375 15472.6142578125 32792.51953125 15472.6083984375 32792.96875 C 15472.6025390625 32793.40625 15472.4208984375 32793.8203125 15472.09765625 32794.1328125 L 15461.8955078125 32804.34375 L 15461.892578125 32804.34765625 L 15461.8896484375 32804.3515625 C 15461.564453125 32804.66796875 15461.14453125 32804.84375 15460.7060546875 32804.84375 Z" stroke="none" fill="#fff"></path></g><rect id="&#x41F;&#x440;&#x44F;&#x43C;&#x43E;&#x443;&#x433;&#x43E;&#x43B;&#x44C;&#x43D;&#x438;&#x43A;_20175" data-name="&#x41F;&#x440;&#x44F;&#x43C;&#x43E;&#x443;&#x433;&#x43E;&#x43B;&#x44C;&#x43D;&#x438;&#x43A; 20175" width="21" height="7" rx="2" transform="translate(8.304 4.71)" fill="#ff8055"></rect><circle id="&#x42D;&#x43B;&#x43B;&#x438;&#x43F;&#x441;_192" data-name="&#x42D;&#x43B;&#x43B;&#x438;&#x43F;&#x441; 192" cx="6" cy="6" r="6" transform="translate(13.304 -0.29)" fill="#ff8055"></circle><rect id="icon_mask" width="56" height="56" transform="translate(-8.696 -0.29)" fill="none"></rect></g></svg>