<svg xmlns="http://www.w3.org/2000/svg" viewBox="0 0 109.352 33.947"><defs><style>.a{fill:#fff;}.b{fill:#f2672a;}</style></defs><path class="a" d="M76.017,33.963a1.463,1.463,0,0,1-1.435-1.387V5.126a1.89,1.89,0,0,0-1.817-2.009H65.639A1.5,1.5,0,0,1,64.3,1.635,1.494,1.494,0,0,1,65.639.2H86.2A1.37,1.37,0,0,1,87.59,1.635,1.406,1.406,0,0,1,86.2,3.117H77.356V32.624a1.479,1.479,0,0,1-1.339,1.339" transform="translate(-33.55 -0.064)"></path><path class="a" d="M126.387,33.963A1.388,1.388,0,0,1,125,32.576V1.587A1.42,1.42,0,0,1,126.387.2h17.647a1.42,1.42,0,0,1,1.387,1.387,1.474,1.474,0,0,1-1.387,1.483h-14.06a2.115,2.115,0,0,0-2.152,2.3v8.321h14.491a1.446,1.446,0,0,1,1.435,1.483,1.469,1.469,0,0,1-1.435,1.435H127.822V32.576a1.43,1.43,0,0,1-1.435,1.387" transform="translate(-65.221 -0.064)"></path><path class="a" d="M203.473,31.52l-8.082-12.482a4.041,4.041,0,0,1-.526-2.152,5.034,5.034,0,0,1,.717-2.582l7.891-12.195A1.538,1.538,0,0,0,203.138.2a1.42,1.42,0,0,0-2.1.478l-8.8,13.534L183.483.721A1.459,1.459,0,0,0,181.427.2a1.472,1.472,0,0,0-.383,1.961l9.565,14.682L181.044,31.52a1.4,1.4,0,1,0,2.343,1.53l8.9-13.678,8.9,13.678a1.583,1.583,0,0,0,2.009.478,1.609,1.609,0,0,0,.287-2.009" transform="translate(-94.34 0.084)"></path><path class="a" d="M28.225,33.959a1.382,1.382,0,0,1-1.243-.861L16.6,8.469a1.545,1.545,0,0,0-1.339-.861,1.882,1.882,0,0,0-1.53,1.148L3.548,33.1a1.441,1.441,0,0,1-1.865.67,1.335,1.335,0,0,1-.765-1.722l13.1-31.037A1.373,1.373,0,0,1,15.312.1a1.514,1.514,0,0,1,1.339.956L29.612,31.95a1.29,1.29,0,0,1,0,1.052,1.493,1.493,0,0,1-.717.717,1.783,1.783,0,0,1-.67.239" transform="translate(-0.439 -0.012)"></path><path class="b" d="M1.578,45.109a1.554,1.554,0,1,1,0-3.109H21.09l1.339,3.109Z" transform="translate(0 -21.874)"></path></svg>