<svg xmlns="http://www.w3.org/2000/svg" xmlns:xlink="http://www.w3.org/1999/xlink" id="Background" viewBox="0 0 709.91 179.15"><defs><style> .cls-1 { fill: none; } .cls-2 { clip-path: url(#clippath-1); } .cls-3 { fill: #fff; } .cls-4 { clip-path: url(#clippath); } </style><clipPath id="clippath"><path class="cls-1" d="M39.48,167.93c1.37.11,3.22.2,5.26.23.95,1.15,4.44,5.12,9.26,7.82-6.61-1.87-11.92-5.81-14.51-8.05M46.96,168.17c2.89-.04,6.01-.25,8.71-.81,5.51-1.14,15.39,2.28,19.66,3.89-3.37.56-9.77,1.32-14.33,0-.26-.08-.54.08-.62.35-.08.26.08.55.34.62,4.59,1.33,10.77.69,14.33.12-.34.23-.66.49-1,.7-3.35,2.19-6.7,3.31-9.92,3.74-.41.04-.81.06-1.21.06-7.1,0-13.44-5.94-15.96-8.67M65.91,151.43c-.4-3.24-1.45-6.88-2.52-10.03,8.31,2.82,13.68,14.2,14.26,15.48.62,3.63.33,7.38-.85,11.29-.61-3.55-1.97-9.58-4.66-13.5-.17-.22-.5-.27-.71-.12-.24.16-.31.49-.13.72,2.7,3.89,4.03,10.2,4.57,13.56-2.91-3.5-9.31-11.8-9.96-17.39M62.71,139.47c-.52-1.38-1.02-2.62-1.41-3.58,2.39,1.4,6.43,4.13,9.91,8.08,1.07,1.2,1.96,2.44,2.77,3.7-2.77-3.56-6.6-7.07-11.27-8.19M32.48,150.61c-5.82-2.63-12-12.42-14.61-16.94,2.97,1.29,6.27,2.5,9.29,3.14,6.15,1.36,14.78,9.44,18.37,13.03-3.67-.94-10.62-3.09-14.75-6.56-.21-.19-.54-.17-.7.07-.2.21-.16.54.06.71,4.12,3.48,10.76,5.62,14.62,6.65-2.09.42-4.12.63-6.1.63-2.12,0-4.18-.24-6.17-.73M18.29,141.93c-4.03-4.3-6.6-9.09-7.92-11.88,1.28.68,3.01,1.55,4.95,2.47,1.05,1.94,5.79,10.49,11.36,15.87-2.97-1.55-5.78-3.66-8.4-6.46M43.01,136.01c.1-1.28.93-8.62,6.69-12.83.53,2.86,1.26,5.89,2.26,8.48,2.06,5.23.34,15.56-.57,20.04-1.1-3.24-2.93-9.42-2.37-14.12.02-.28-.17-.53-.46-.56-.28-.05-.53.16-.56.45-.53,4.72,1.1,10.67,2.27,14.08-4.46-4.47-6.89-9.67-7.26-15.53M43.75,127.58c1.21-5.12,3.48-9.42,4.93-11.79.14,1.45.37,3.38.7,5.53,0,0-.02,0-.03.03-2.66,1.72-4.42,4.07-5.6,6.34,0-.04,0-.07,0-.11M12.19,113.17s0-.04,0-.04c-4.62-6.15-5.14-15.33-5.11-19.41,2.48,2.53,5.36,5.19,8.2,7.11,5.23,3.52,10.27,14.23,12.27,18.88-3.05-2.25-8.75-6.82-11.27-11.54-.13-.26-.44-.35-.69-.2-.28.12-.33.44-.2.69,2.52,4.72,7.89,9.16,11.12,11.53-5.73-.99-10.51-3.35-14.3-7.03M31.84,94.63c.46-.36,5.13-4.1,9.38-5.09-.77,2.99-1.43,6.32-1.6,9.29-.29,5.62-6.1,14.32-8.75,18.02.31-3.42,1.2-9.78,3.63-13.86.15-.23.06-.54-.19-.7-.23-.13-.53-.05-.69.18-2.45,4.1-3.37,10.21-3.7,13.78-3.29-8.7-1.49-16,1.92-21.63M5.14,102.32c-2.16-5.48-2.8-10.87-2.99-13.98.84,1,1.99,2.31,3.29,3.69-.11,1.8-.25,8.16,1.7,14.49-.74-1.32-1.41-2.71-2-4.21M43.16,83.02c-.41,1.23-.94,2.88-1.47,4.75-2.39.38-4.9,1.57-6.94,2.81,2.96-3.53,6.28-6.11,8.41-7.56M9.56,78.34c-1.17-8.07-1.5-15.74-1.58-21.39,2.21,1.83,6.32,5.39,7.63,9.16.25,1.3.41,2.62.38,3.89-.32,9.72,3.22,20.84,6.03,26.94-.2-.13-.4-.32-.6-.45-6.62-7.66-7.53-24.69-7.55-24.87-.01-.27-.26-.48-.54-.47-.28,0-.5.26-.48.55.03.67.76,13.89,5.66,22.39-3.77-3.43-7.95-8.72-8.96-15.74M8.7,55.4c-.31-.27-.56-.46-.74-.63,0-1.83.04-3.41.07-4.59,1.55,2.15,3.92,5.81,5.68,9.91-1.8-2.01-3.79-3.68-5.01-4.69M28.63,58.75c1.91-2.35,9.92-11.32,20.39-11.3-1.02,2.35-2.58,5.27-5.13,8.82-3.11,4.29-8.4,8.94-13.06,13.02-3.01,2.64-5.6,4.91-7.29,6.78.06-.7.15-1.57.28-2.47,3.37-9.38,15.85-18.83,15.99-18.93.23-.16.28-.49.09-.7-.16-.23-.5-.24-.7-.11-.51.39-10.03,7.59-14.7,15.83.74-3.27,2.03-7.1,4.13-10.94M40.94,45.04c4.45-2.87,8.15-3.49,9.78-3.62-.06.83-.33,2.32-1.04,4.38-6.38-.23-11.86,2.57-15.84,5.61,2.23-2.58,4.59-4.72,7.1-6.36M34.66,20.1c4.28-4.84,8.57-8.84,12.11-11.89,1.31,8.7-8.73,22.72-10.66,25.3-4.77,4.36-8.42,7.87-10.67,10.66,3.24-10.01,14.35-22.18,14.48-22.32.19-.2.17-.54-.03-.72-.21-.18-.53-.19-.73.04-.44.5-8.85,9.69-13.16,18.81,1.13-5.97,3.54-14.08,8.65-19.86M48.21,6.99c2.15-1.78,3.95-3.15,5.11-4-.38,4.66-1.9,16.67-7.75,21.95l-3.13,2.83c-.37.33-.72.65-1.07.97,3.78-6.07,8.43-15.27,6.84-21.76M54.36.19c-.18,0-.35.05-.5.15h0c-.11.07-10.51,7.1-20.59,18.54-9.3,10.55-10.06,27.73-10.12,28.9-.16.94-3.56,21.55-.4,46.13-2.39-5.83-5.19-15.13-4.92-23.85.35-10.59-9.48-22.56-9.9-23.07-.23-.29-.63-.42-1-.28-.37.11-.62.43-.63.81-.03.15-.93,14.85,1.43,31.09,1.91,13.26,13.85,20.45,15.97,21.63.75,4.38,1.74,8.85,2.99,13.28-2.6-5.17-6.38-11.49-10.4-14.19-6.84-4.61-14.33-14.12-14.4-14.21-.25-.29-.64-.43-1.03-.29-.3.08-.54.33-.61.64v2.17c.12,3.01.69,9.03,3.13,15.32,3.19,8.09,10.25,18.09,25.84,19.57.15.02.27-.05.38-.1,2.53,6.76,5.78,13.35,9.96,19.51-3.84-3.11-8.26-6.09-12.02-6.92-8.05-1.76-18.53-7.82-18.64-7.88-.33-.19-.76-.15-1.04.1-.29.23-.41.66-.29,1.02.12.33,2.93,8.05,9.31,14.9,5.89,6.28,15.95,12.86,30.71,8.79,5.57,5.91,11.98,10.86,19.22,14.83-4.03-1.02-8.35-1.7-11.49-1.06-7.22,1.51-17.99.38-18.1.37-.35-.03-.69.15-.84.46-.15.33-.1.69.15.93.2.2,4.78,4.96,11.81,8.25,3.68,1.71,7.32,2.67,10.88,2.89h3.18c.67-.04,1.34-.11,2.01-.21.34-.04.69-.04,1.03-.11.02,0,0,0,.02,0,3.3-.61,6.49-1.9,9.5-3.87,1.11-.71,2.22-1.54,3.29-2.44,6.44,2.38,13.37,4.14,20.83,5.27.24.03.47,0,.65-.14.21-.14.36-.36.4-.63.08-.5-.27-.99-.77-1.05-7.68-1.16-14.79-3.01-21.36-5.52,1.72-4.99,1.97-9.49,1.25-13.48-.02-.02,0-.05,0-.07,0,0-.03-.05-.03-.05-2.79-15.07-19.06-22.94-19.29-23.04-.31-.16-.69-.08-.93.17-.25.24-.31.61-.17.93.05.1,4.55,9.95,5.42,17.26.62,5.07,5.31,11.87,8.62,16.1-7.64-3.5-14.41-8.01-20.32-13.47.19-.82,3.76-16.01.96-23.21-2.69-6.86-3.38-17.67-3.37-17.78-.01-.35-.25-.65-.59-.74-.32-.11-.69,0-.89.29-.13.16-7.92,10.83-7.28,23.04-.02.13-.03.32-.04.35,0,.08.06.12.07.17.17,2.37.65,4.76,1.56,7.15-.2-.28-.4-.52-.6-.79-5.13-7.12-8.93-14.92-11.75-22.88.1-.05.16-.11.2-.2.42-.51,10.06-13.01,10.44-20.77.37-7.37,4.21-17.5,4.24-17.59.13-.33.04-.69-.22-.93-.26-.2-.64-.26-.95-.09,0,0-.51.29-1.36.85-4.27,2.79-15.37,11.2-16.44,24.05-1.95-9.04-2.84-17.88-3.14-25.81.87-1.85,4.63-5.18,8.65-8.69,4.74-4.16,10.12-8.88,13.34-13.34,7.87-10.88,7.21-16.75,7.19-17-.06-.45-.42-.78-.86-.81-.21,0-5.25-.28-11.79,3.96-3.89,2.54-7.53,6.19-10.74,10.83-2.93,4.23-4.73,8.53-5.83,12.38.33-10.45,1.45-17.58,1.61-18.54,1.73-3.71,8.5-9.81,18.72-19.02l3.14-2.82c7.88-7.13,8.46-24.47,8.49-25.2,0-.35-.16-.65-.48-.83-.13-.07-.28-.11-.43-.11h-.03Z"></path></clipPath><clipPath id="clippath-1"><path class="cls-1" d="M670.43,167.79c-2.6,2.24-7.9,6.18-14.51,8.05,4.82-2.7,8.3-6.67,9.26-7.82,2.04-.04,3.88-.12,5.26-.23M662.95,168.03c-2.52,2.73-8.86,8.67-15.96,8.67-.4,0-.8-.02-1.21-.06-3.22-.43-6.57-1.55-9.92-3.74-.34-.21-.66-.47-1-.7,3.55.57,9.74,1.21,14.33-.12.27-.07.43-.36.34-.62-.08-.27-.36-.43-.62-.35-4.56,1.32-10.96.56-14.33,0,4.27-1.61,14.15-5.04,19.66-3.89,2.7.56,5.82.78,8.71.81M644,151.29c-.66,5.59-7.06,13.89-9.96,17.39.54-3.36,1.87-9.67,4.57-13.56.17-.24.11-.56-.13-.72-.21-.15-.54-.09-.71.12-2.69,3.92-4.04,9.95-4.66,13.5-1.18-3.91-1.47-7.66-.85-11.29.58-1.28,5.95-12.66,14.26-15.48-1.07,3.15-2.11,6.79-2.52,10.03M647.2,139.33c-4.67,1.13-8.5,4.63-11.27,8.19.81-1.26,1.71-2.49,2.77-3.7,3.48-3.95,7.52-6.68,9.91-8.08-.39.96-.89,2.2-1.41,3.58M677.43,150.47c-1.99.48-4.05.73-6.17.73-1.98,0-4.02-.21-6.1-.63,3.86-1.02,10.5-3.17,14.62-6.65.22-.17.25-.5.06-.71-.16-.24-.49-.25-.7-.07-4.12,3.47-11.08,5.62-14.75,6.56,3.59-3.59,12.22-11.67,18.37-13.03,3.02-.65,6.31-1.86,9.29-3.14-2.61,4.52-8.8,14.31-14.61,16.94M691.63,141.79c-2.62,2.8-5.43,4.91-8.4,6.46,5.57-5.38,10.32-13.92,11.36-15.87,1.94-.93,3.67-1.79,4.95-2.47-1.32,2.79-3.89,7.57-7.92,11.88M666.9,135.87c-.37,5.86-2.8,11.06-7.26,15.53,1.17-3.41,2.8-9.36,2.27-14.08-.04-.29-.28-.49-.56-.45-.28.03-.48.28-.46.56.55,4.7-1.27,10.88-2.37,14.12-.9-4.48-2.63-14.81-.57-20.04,1-2.59,1.72-5.62,2.26-8.48,5.76,4.2,6.59,11.55,6.69,12.83M666.16,127.44s0,.07,0,.11c-1.18-2.28-2.94-4.62-5.6-6.34-.01-.02-.03-.03-.03-.03.33-2.15.56-4.08.7-5.53,1.45,2.38,3.72,6.68,4.93,11.79M697.72,113.03c-3.79,3.68-8.57,6.04-14.3,7.03,3.23-2.36,8.6-6.81,11.12-11.53.14-.25.08-.57-.2-.69-.25-.15-.56-.06-.69.2-2.52,4.72-8.22,9.29-11.27,11.54,1.99-4.65,7.03-15.36,12.27-18.88,2.84-1.92,5.72-4.58,8.2-7.11.03,4.08-.49,13.26-5.11,19.41,0,0-.01.03,0,.04M678.08,94.49c3.41,5.62,5.21,12.92,1.92,21.63-.33-3.57-1.25-9.68-3.7-13.78-.16-.23-.46-.31-.69-.18-.25.15-.34.47-.19.7,2.43,4.08,3.32,10.44,3.63,13.86-2.65-3.7-8.46-12.4-8.75-18.02-.17-2.97-.83-6.3-1.6-9.29,4.25.99,8.92,4.74,9.38,5.09M704.77,102.18c-.59,1.5-1.27,2.89-2,4.21,1.95-6.34,1.81-12.69,1.7-14.49,1.3-1.39,2.45-2.69,3.29-3.69-.19,3.1-.83,8.5-2.99,13.98M666.75,82.88c2.13,1.46,5.45,4.03,8.41,7.56-2.04-1.24-4.55-2.43-6.94-2.81-.53-1.87-1.06-3.53-1.47-4.75M700.36,78.21c-1.01,7.02-5.19,12.31-8.96,15.74,4.91-8.5,5.63-21.72,5.66-22.39.02-.29-.2-.55-.48-.55-.28,0-.53.2-.54.47-.02.19-.93,17.21-7.55,24.87-.2.13-.4.32-.6.45,2.81-6.1,6.35-17.22,6.03-26.94-.03-1.28.13-2.59.38-3.89,1.31-3.77,5.42-7.33,7.63-9.16-.07,5.65-.41,13.32-1.58,21.39M701.22,55.26c-1.22,1.01-3.21,2.68-5.01,4.69,1.76-4.1,4.14-7.76,5.68-9.91.03,1.17.07,2.76.07,4.59-.18.17-.43.36-.74.63M681.28,58.61c2.1,3.85,3.39,7.67,4.13,10.94-4.67-8.24-14.18-15.44-14.7-15.83-.2-.13-.55-.12-.7.11-.18.22-.14.54.09.7.14.1,12.63,9.54,15.99,18.93.13.9.22,1.78.28,2.47-1.69-1.88-4.28-4.15-7.29-6.78-4.66-4.08-9.95-8.74-13.06-13.02-2.55-3.55-4.12-6.47-5.13-8.82,10.47-.03,18.48,8.94,20.39,11.3M668.97,44.9c2.5,1.65,4.87,3.78,7.1,6.36-3.98-3.04-9.46-5.84-15.84-5.61-.71-2.05-.98-3.54-1.04-4.38,1.62.13,5.33.75,9.78,3.62M675.26,19.96c5.11,5.78,7.52,13.9,8.65,19.86-4.31-9.11-12.71-18.31-13.16-18.81-.2-.22-.52-.22-.73-.04-.2.19-.22.53-.03.72.13.14,11.24,12.31,14.48,22.32-2.25-2.79-5.91-6.3-10.67-10.66-1.93-2.58-11.96-16.59-10.66-25.3,3.54,3.05,7.83,7.05,12.11,11.89M661.7,6.85c-1.59,6.49,3.06,15.69,6.84,21.76-.35-.32-.71-.65-1.07-.97l-3.13-2.83c-5.85-5.28-7.37-17.29-7.75-21.95,1.16.84,2.96,2.21,5.11,4M655.52.05c-.15,0-.3.04-.43.11-.31.18-.48.48-.48.83.02.73.6,18.07,8.49,25.2l3.14,2.82c10.22,9.21,16.98,15.31,18.72,19.02.16.96,1.27,8.09,1.61,18.54-1.11-3.84-2.9-8.15-5.83-12.38-3.2-4.64-6.84-8.29-10.74-10.83-6.54-4.25-11.57-3.96-11.79-3.96-.44.04-.81.37-.86.81-.02.24-.69,6.11,7.19,17,3.23,4.47,8.61,9.18,13.34,13.34,4.01,3.52,7.77,6.85,8.65,8.69-.3,7.93-1.19,16.77-3.14,25.81-1.07-12.85-12.17-21.26-16.44-24.05-.85-.56-1.36-.85-1.36-.85-.31-.17-.69-.11-.95.09-.27.24-.36.6-.22.93.04.1,3.87,10.23,4.24,17.59.39,7.76,10.02,20.26,10.44,20.77.03.09.1.14.2.2-2.82,7.95-6.62,15.75-11.75,22.88-.2.26-.39.51-.6.79.92-2.39,1.4-4.78,1.56-7.15.01-.05.08-.09.07-.17,0-.03-.02-.21-.04-.35.64-12.22-7.14-22.89-7.28-23.04-.2-.28-.57-.4-.89-.29-.34.09-.58.38-.59.74,0,.11-.68,10.92-3.37,17.78-2.8,7.2.77,22.39.96,23.21-5.91,5.47-12.68,9.97-20.32,13.47,3.31-4.24,8.01-11.03,8.62-16.1.87-7.32,5.37-17.17,5.42-17.26.14-.32.07-.69-.17-.93-.24-.25-.62-.33-.93-.17-.22.1-16.5,7.97-19.29,23.04,0,0-.03.04-.03.05-.01.02.01.05,0,.07-.72,3.99-.48,8.49,1.25,13.48-6.57,2.51-13.68,4.37-21.36,5.52-.5.06-.86.55-.77,1.05.05.27.19.5.4.63.18.13.41.17.65.14,7.46-1.13,14.39-2.89,20.83-5.27,1.07.9,2.18,1.72,3.29,2.44,3.01,1.96,6.2,3.25,9.5,3.87,0,0,0,0,.02,0,.34.07.69.07,1.03.11.66.1,1.33.16,2.01.21h3.18c3.56-.22,7.2-1.17,10.88-2.89,7.03-3.29,11.61-8.04,11.81-8.25.25-.24.3-.6.15-.93-.16-.3-.49-.49-.84-.46-.11,0-10.87,1.14-18.1-.37-3.14-.64-7.46.04-11.49,1.06,7.25-3.98,13.66-8.93,19.22-14.83,14.76,4.06,24.82-2.51,30.71-8.79,6.38-6.85,9.19-14.58,9.31-14.9.12-.37,0-.79-.29-1.02-.28-.25-.71-.28-1.04-.1-.11.06-10.59,6.12-18.64,7.88-3.76.82-8.18,3.8-12.02,6.92,4.17-6.16,7.43-12.75,9.96-19.51.11.06.24.12.38.1,15.59-1.48,22.65-11.47,25.84-19.57,2.45-6.29,3.01-12.31,3.13-15.32v-2.17c-.07-.31-.31-.56-.61-.64-.39-.13-.78,0-1.03.29-.07.09-7.56,9.6-14.4,14.21-4.02,2.7-7.79,9.02-10.4,14.19,1.25-4.43,2.25-8.9,2.99-13.28,2.11-1.18,14.06-8.36,15.97-21.63,2.37-16.24,1.46-30.94,1.43-31.09,0-.38-.26-.7-.63-.81-.38-.14-.77,0-1,.28-.42.51-10.25,12.49-9.9,23.07.26,8.72-2.54,18.02-4.92,23.85,3.16-24.58-.25-45.2-.4-46.13-.06-1.16-.82-18.35-10.12-28.9-10.08-11.44-20.48-18.47-20.59-18.53h0c-.15-.1-.33-.15-.5-.16h-.03Z"></path></clipPath></defs><g class="cls-4"><rect class="cls-3" y=".14" width="100.22" height="179.01"></rect></g><g class="cls-2"><rect class="cls-3" x="609.69" y="0" width="100.22" height="179.01"></rect></g><g><path class="cls-3" d="M227.62,4.4h5.96l7.44,22.4,7.51-22.4h5.95l5.39,32.11h-5.91l-3.44-20.28-6.82,20.28h-5.39l-6.76-20.28-3.53,20.28h-5.96l5.56-32.11Z"></path><path class="cls-3" d="M275.24,12.15c2.24,0,4.35.56,6.32,1.68,1.97,1.12,3.51,2.64,4.62,4.56,1.11,1.92,1.66,4,1.66,6.22s-.56,4.34-1.67,6.29-2.63,3.47-4.55,4.57c-1.92,1.1-4.04,1.65-6.35,1.65-3.41,0-6.31-1.21-8.72-3.63-2.41-2.42-3.61-5.37-3.61-8.83,0-3.71,1.36-6.8,4.08-9.28,2.39-2.15,5.13-3.23,8.23-3.23ZM275.34,17.76c-1.85,0-3.39.64-4.62,1.93-1.23,1.29-1.85,2.94-1.85,4.94s.61,3.74,1.83,5.02,2.76,1.92,4.62,1.92,3.42-.65,4.66-1.94c1.24-1.3,1.86-2.96,1.86-5s-.61-3.69-1.83-4.97c-1.22-1.27-2.77-1.91-4.67-1.91Z"></path><path class="cls-3" d="M307.25,16.08l-3.69,3.69c-1.5-1.49-2.86-2.23-4.08-2.23-.67,0-1.19.14-1.57.43-.38.28-.57.64-.57,1.06,0,.32.12.62.36.88.24.27.83.64,1.78,1.1l2.18,1.09c2.3,1.14,3.88,2.29,4.74,3.47.86,1.18,1.29,2.56,1.29,4.15,0,2.11-.78,3.87-2.33,5.28-1.55,1.41-3.63,2.12-6.23,2.12-3.46,0-6.23-1.35-8.3-4.06l3.67-4c.7.82,1.52,1.47,2.46,1.98.94.5,1.77.75,2.5.75.79,0,1.42-.19,1.9-.57.48-.38.72-.82.72-1.31,0-.92-.87-1.81-2.6-2.69l-2.01-1c-3.84-1.94-5.76-4.36-5.76-7.27,0-1.88.72-3.48,2.17-4.81s3.3-2,5.56-2c1.54,0,2.99.34,4.36,1.01,1.36.68,2.51,1.65,3.46,2.92Z"></path><path class="cls-3" d="M313.1,4h5.96v8.75h3.54v5.13h-3.54v18.62h-5.96v-18.62h-3.06v-5.13h3.06V4Z"></path><path class="cls-3" d="M335.78,4.4h17.75v6.03h-5.85v26.09h-6.2V10.42h-5.7v-6.03Z"></path><path class="cls-3" d="M355.67,12.76h5.11v2.99c.55-1.18,1.29-2.07,2.21-2.69s1.92-.92,3.01-.92c.77,0,1.58.2,2.42.61l-1.86,5.13c-.7-.35-1.27-.52-1.72-.52-.92,0-1.69.57-2.33,1.7-.63,1.13-.95,3.36-.95,6.68l.02,1.16v9.61h-5.92V12.76Z"></path><path class="cls-3" d="M371.34,12.76h6.02v11.44c0,2.23.15,3.77.46,4.64.31.87.8,1.54,1.48,2.02.68.48,1.51.72,2.5.72s1.83-.24,2.53-.71c.69-.47,1.21-1.17,1.54-2.08.25-.68.37-2.15.37-4.39v-11.63h5.96v10.06c0,4.15-.33,6.99-.98,8.51-.8,1.86-1.98,3.29-3.54,4.29-1.56,1-3.54,1.5-5.94,1.5-2.61,0-4.71-.58-6.32-1.75s-2.74-2.79-3.39-4.87c-.47-1.44-.7-4.06-.7-7.86v-9.89Z"></path><path class="cls-3" d="M412.73,16.08l-3.69,3.69c-1.5-1.49-2.86-2.23-4.08-2.23-.67,0-1.19.14-1.57.43-.38.28-.57.64-.57,1.06,0,.32.12.62.36.88.24.27.83.64,1.78,1.1l2.18,1.09c2.3,1.14,3.88,2.29,4.74,3.47.86,1.18,1.29,2.56,1.29,4.15,0,2.11-.78,3.87-2.33,5.28-1.55,1.41-3.63,2.12-6.23,2.12-3.46,0-6.23-1.35-8.3-4.06l3.67-4c.7.82,1.52,1.47,2.46,1.98.94.5,1.77.75,2.5.75.79,0,1.42-.19,1.9-.57.48-.38.72-.82.72-1.31,0-.92-.87-1.81-2.6-2.69l-2.01-1c-3.84-1.94-5.76-4.36-5.76-7.27,0-1.88.72-3.48,2.17-4.81s3.3-2,5.56-2c1.54,0,2.99.34,4.36,1.01,1.36.68,2.51,1.65,3.46,2.92Z"></path><path class="cls-3" d="M418.58,4h5.96v8.75h3.54v5.13h-3.54v18.62h-5.96v-18.62h-3.06v-5.13h3.06V4Z"></path><path class="cls-3" d="M455.06,26.36h-19.15c.28,1.69,1.02,3.03,2.22,4.03,1.2,1,2.73,1.5,4.6,1.5,2.23,0,4.14-.78,5.74-2.34l5.02,2.36c-1.25,1.78-2.75,3.09-4.5,3.94-1.75.85-3.82,1.28-6.22,1.28-3.73,0-6.76-1.17-9.1-3.53-2.34-2.35-3.51-5.29-3.51-8.83s1.17-6.63,3.5-9.03,5.26-3.59,8.79-3.59c3.74,0,6.78,1.2,9.12,3.59,2.34,2.39,3.51,5.56,3.51,9.49l-.02,1.13ZM449.1,21.66c-.39-1.32-1.17-2.4-2.33-3.23-1.16-.83-2.5-1.24-4.03-1.24-1.66,0-3.12.46-4.37,1.4-.79.58-1.52,1.61-2.19,3.08h12.92Z"></path><path class="cls-3" d="M477.41,3.59h5.96v32.92h-5.96v-2.51c-1.16,1.11-2.33,1.9-3.5,2.39-1.17.49-2.44.73-3.81.73-3.07,0-5.72-1.19-7.96-3.57-2.24-2.38-3.36-5.34-3.36-8.87s1.08-6.67,3.25-9.02c2.17-2.34,4.8-3.51,7.89-3.51,1.42,0,2.76.27,4.01.81,1.25.54,2.41,1.35,3.47,2.42V3.59ZM471.15,17.65c-1.84,0-3.37.65-4.59,1.95s-1.83,2.97-1.83,5.01.62,3.74,1.86,5.06,2.77,1.99,4.58,1.99,3.42-.65,4.66-1.95,1.85-3.01,1.85-5.12-.62-3.74-1.85-5.02c-1.23-1.28-2.79-1.92-4.68-1.92Z"></path><path class="cls-3" d="M161.47,89.26v-32.11h5.05c2.93,0,5.07.19,6.43.57,1.92.51,3.45,1.46,4.59,2.84s1.71,3.01,1.71,4.89c0,1.22-.26,2.33-.78,3.33-.52,1-1.36,1.93-2.52,2.8,1.95.92,3.38,2.06,4.28,3.44.9,1.38,1.35,3,1.35,4.88s-.47,3.45-1.4,4.93-2.13,2.59-3.61,3.33c-1.47.74-3.5,1.1-6.1,1.1h-9ZM167.59,62.98v6.77h1.34c1.49,0,2.6-.31,3.32-.94.72-.63,1.08-1.48,1.08-2.55,0-1-.34-1.8-1.03-2.39s-1.73-.88-3.13-.88h-1.58ZM167.59,75.21v8.23h1.53c2.54,0,4.25-.32,5.13-.96s1.32-1.57,1.32-2.79c0-1.38-.52-2.47-1.55-3.27s-2.76-1.2-5.17-1.2h-1.27Z"></path><path class="cls-3" d="M185.36,65.51h5.11v2.99c.55-1.18,1.29-2.07,2.21-2.68s1.92-.92,3.01-.92c.77,0,1.58.2,2.42.61l-1.86,5.13c-.7-.35-1.27-.52-1.72-.52-.92,0-1.69.57-2.33,1.7-.63,1.14-.95,3.36-.95,6.68l.02,1.16v9.61h-5.92v-23.75Z"></path><path class="cls-3" d="M212.21,64.9c2.24,0,4.35.56,6.32,1.68,1.97,1.12,3.51,2.64,4.62,4.56,1.11,1.92,1.66,3.99,1.66,6.22s-.56,4.34-1.67,6.29c-1.11,1.95-2.63,3.47-4.55,4.57-1.92,1.1-4.04,1.65-6.35,1.65-3.41,0-6.31-1.21-8.72-3.63-2.41-2.42-3.61-5.37-3.61-8.83,0-3.71,1.36-6.8,4.08-9.28,2.39-2.15,5.13-3.23,8.23-3.23ZM212.31,70.51c-1.85,0-3.39.64-4.62,1.93-1.23,1.29-1.85,2.94-1.85,4.94s.61,3.74,1.83,5.02c1.22,1.28,2.76,1.92,4.62,1.92s3.42-.65,4.66-1.94c1.24-1.29,1.86-2.96,1.86-5s-.61-3.69-1.83-4.97c-1.22-1.27-2.77-1.91-4.67-1.91Z"></path><path class="cls-3" d="M229.72,56.34h5.96v18.96l8.78-9.79h7.48l-10.23,11.38,11.46,12.37h-7.4l-10.09-10.95v10.95h-5.96v-32.92Z"></path><path class="cls-3" d="M279.4,79.11h-19.15c.28,1.69,1.02,3.03,2.22,4.03,1.2,1,2.73,1.5,4.6,1.5,2.23,0,4.14-.78,5.74-2.34l5.02,2.36c-1.25,1.78-2.75,3.09-4.5,3.94-1.75.85-3.82,1.28-6.22,1.28-3.73,0-6.76-1.18-9.1-3.53-2.34-2.35-3.51-5.29-3.51-8.83s1.17-6.63,3.5-9.03c2.34-2.39,5.26-3.59,8.79-3.59,3.74,0,6.78,1.2,9.12,3.59,2.34,2.39,3.51,5.55,3.51,9.48l-.02,1.14ZM273.44,74.42c-.39-1.32-1.17-2.4-2.33-3.23-1.16-.83-2.5-1.24-4.03-1.24-1.66,0-3.12.47-4.37,1.4-.79.58-1.52,1.61-2.19,3.08h12.92Z"></path><path class="cls-3" d="M282.83,65.51h5.11v2.99c.55-1.18,1.29-2.07,2.21-2.68s1.92-.92,3.01-.92c.77,0,1.58.2,2.42.61l-1.86,5.13c-.7-.35-1.27-.52-1.72-.52-.92,0-1.69.57-2.33,1.7-.63,1.14-.95,3.36-.95,6.68l.02,1.16v9.61h-5.92v-23.75Z"></path><path class="cls-3" d="M321.49,57.15h6.2l12.35,32.11h-6.35l-2.51-6.62h-13.1l-2.61,6.62h-6.35l12.38-32.11ZM324.62,65.67l-4.31,11.03h8.59l-4.28-11.03Z"></path><path class="cls-3" d="M341.27,65.51h2.12c.01-3.11.07-4.96.15-5.52.16-1.31.71-2.35,1.65-3.11.94-.76,2.27-1.15,3.98-1.15,1.24,0,2.63.28,4.19.85v4.54c-.86-.25-1.56-.37-2.12-.37-.7,0-1.21.15-1.53.44-.23.22-.35.67-.35,1.35l-.02,2.97h3.78v5.04h-3.78v18.71h-5.96v-18.71h-2.12v-5.04Z"></path><path class="cls-3" d="M355.22,65.51h5.11v2.99c.55-1.18,1.29-2.07,2.21-2.68s1.92-.92,3.01-.92c.77,0,1.58.2,2.42.61l-1.86,5.13c-.7-.35-1.27-.52-1.72-.52-.92,0-1.69.57-2.33,1.7-.63,1.14-.95,3.36-.95,6.68l.02,1.16v9.61h-5.92v-23.75Z"></path><path class="cls-3" d="M373.24,55.73c1.04,0,1.94.38,2.69,1.13.75.76,1.12,1.67,1.12,2.75s-.37,1.97-1.11,2.72c-.74.75-1.63,1.12-2.66,1.12s-1.96-.38-2.71-1.15-1.12-1.69-1.12-2.78.37-1.94,1.11-2.68,1.63-1.11,2.68-1.11ZM370.26,65.51h5.96v23.75h-5.96v-23.75Z"></path><path class="cls-3" d="M404.88,70.32l-4.96,2.73c-.93-.97-1.85-1.65-2.76-2.03-.91-.38-1.98-.57-3.2-.57-2.23,0-4.03.67-5.41,1.99-1.38,1.33-2.06,3.03-2.06,5.11s.66,3.67,1.99,4.95,3.07,1.92,5.22,1.92c2.67,0,4.74-.91,6.23-2.73l4.7,3.22c-2.55,3.31-6.14,4.97-10.78,4.97-4.18,0-7.45-1.24-9.81-3.71-2.37-2.47-3.55-5.37-3.55-8.69,0-2.3.58-4.42,1.72-6.35,1.15-1.94,2.75-3.46,4.81-4.56s4.36-1.66,6.91-1.66c2.36,0,4.48.47,6.35,1.41,1.88.94,3.41,2.27,4.61,4.01Z"></path><path class="cls-3" d="M427.78,65.51h5.96v23.75h-5.96v-2.51c-1.16,1.11-2.33,1.9-3.5,2.39-1.17.49-2.44.73-3.81.73-3.07,0-5.72-1.19-7.96-3.57-2.24-2.38-3.36-5.34-3.36-8.87s1.08-6.67,3.25-9.02,4.8-3.51,7.89-3.51c1.42,0,2.76.27,4.01.81s2.41,1.35,3.47,2.42v-2.62ZM421.52,70.4c-1.84,0-3.37.65-4.59,1.95s-1.83,2.97-1.83,5.01.62,3.74,1.86,5.06c1.24,1.33,2.77,1.99,4.58,1.99s3.42-.65,4.66-1.95,1.85-3.01,1.85-5.12-.62-3.74-1.85-5.02c-1.23-1.28-2.79-1.92-4.68-1.92Z"></path><path class="cls-3" d="M457.06,67.5h-5.96c.16-3.46,1.25-6.19,3.26-8.18,2.02-1.99,4.6-2.98,7.76-2.98,1.95,0,3.67.41,5.16,1.23,1.49.82,2.69,2.01,3.58,3.56.89,1.55,1.34,3.12,1.34,4.73,0,1.91-.54,3.96-1.63,6.16s-3.07,4.79-5.95,7.79l-3.6,3.8h11.45v5.65h-22.25v-2.93l9.93-10.13c2.4-2.43,4-4.38,4.79-5.86.79-1.48,1.19-2.81,1.19-4.01s-.41-2.26-1.23-3.07c-.82-.81-1.88-1.21-3.18-1.21s-2.4.49-3.27,1.46-1.34,2.3-1.4,3.97Z"></path><path class="cls-3" d="M486.73,56.34c2.34,0,4.36.58,6.06,1.72s3,2.91,3.93,5.27c.92,2.37,1.39,5.66,1.39,9.88s-.47,7.58-1.41,9.95c-.94,2.37-2.2,4.12-3.79,5.23-1.59,1.11-3.59,1.67-6,1.67s-4.45-.56-6.09-1.68c-1.65-1.12-2.93-2.82-3.86-5.11-.93-2.28-1.4-5.54-1.4-9.76,0-5.89.91-10.17,2.73-12.81,2.02-2.91,4.84-4.37,8.45-4.37ZM486.87,62.15c-1.03,0-1.95.33-2.75.99-.8.66-1.41,1.8-1.83,3.42s-.63,3.98-.63,7.09c0,4.06.48,6.87,1.45,8.42.97,1.55,2.22,2.32,3.76,2.32s2.66-.73,3.53-2.21c1.06-1.78,1.59-4.74,1.59-8.91s-.48-7.13-1.43-8.73c-.95-1.6-2.18-2.4-3.69-2.4Z"></path><path class="cls-3" d="M507.14,67.5h-5.96c.16-3.46,1.25-6.19,3.26-8.18,2.02-1.99,4.6-2.98,7.76-2.98,1.95,0,3.67.41,5.16,1.23,1.49.82,2.69,2.01,3.58,3.56.89,1.55,1.34,3.12,1.34,4.73,0,1.91-.54,3.96-1.63,6.16s-3.07,4.79-5.95,7.79l-3.6,3.8h11.45v5.65h-22.25v-2.93l9.93-10.13c2.4-2.43,4-4.38,4.79-5.86.79-1.48,1.19-2.81,1.19-4.01s-.41-2.26-1.23-3.07c-.82-.81-1.88-1.21-3.18-1.21s-2.4.49-3.27,1.46-1.34,2.3-1.4,3.97Z"></path><path class="cls-3" d="M531.85,57.15h15.04v5.65h-10.48l-1.31,5.83c.36-.1.72-.18,1.07-.23.35-.05.68-.08,1-.08,2.91,0,5.33.99,7.26,2.98,1.93,1.99,2.89,4.53,2.89,7.63s-1.07,5.77-3.2,7.91c-2.13,2.15-4.73,3.22-7.78,3.22-2.74,0-5.09-.78-7.05-2.34-1.96-1.56-3.25-3.69-3.86-6.4h6.42c.5,1,1.15,1.76,1.95,2.28s1.7.77,2.67.77c1.35,0,2.5-.49,3.45-1.46s1.42-2.23,1.42-3.75-.44-2.7-1.32-3.66c-.88-.95-1.95-1.43-3.2-1.43-.67,0-1.33.17-1.98.5-.65.33-1.29.84-1.91,1.51l-4.98-1.11,3.89-17.84Z"></path></g><g><path class="cls-3" d="M198.17,112.46h2.18v21.84h-2.18v-21.84Z"></path><path class="cls-3" d="M205.01,118.15h2.08v2.89c.83-1.11,1.75-1.94,2.76-2.49,1.01-.55,2.11-.82,3.29-.82s2.28.31,3.21.92c.94.61,1.63,1.44,2.07,2.48.45,1.04.67,2.66.67,4.85v8.31h-2.08v-7.71c0-1.86-.08-3.1-.23-3.72-.24-1.07-.7-1.87-1.39-2.41-.68-.54-1.57-.81-2.67-.81-1.26,0-2.38.42-3.38,1.25-1,.83-1.65,1.86-1.97,3.09-.2.8-.3,2.27-.3,4.39v5.92h-2.08v-16.15Z"></path><path class="cls-3" d="M225.37,112.15h2.08v6h3.3v1.79h-3.3v14.36h-2.08v-14.36h-2.84v-1.79h2.84v-6Z"></path><path class="cls-3" d="M247.45,128.94l1.75.92c-.57,1.13-1.24,2.04-1.99,2.73s-1.6,1.22-2.54,1.58c-.94.36-2.01.54-3.2.54-2.63,0-4.7-.86-6.18-2.59-1.49-1.73-2.23-3.68-2.23-5.86,0-2.05.63-3.87,1.89-5.48,1.59-2.04,3.73-3.06,6.4-3.06s4.95,1.04,6.6,3.13c1.17,1.48,1.76,3.32,1.78,5.52h-14.53c.04,1.88.64,3.41,1.8,4.61s2.59,1.8,4.3,1.8c.82,0,1.62-.14,2.4-.43.78-.29,1.44-.67,1.98-1.14.54-.47,1.13-1.24,1.77-2.29ZM247.45,124.59c-.28-1.11-.68-1.99-1.21-2.66-.53-.66-1.23-1.2-2.1-1.6s-1.79-.61-2.75-.61c-1.59,0-2.95.51-4.09,1.53-.83.74-1.46,1.86-1.89,3.34h12.04Z"></path><path class="cls-3" d="M252.83,118.15h2.12v2.36c.63-.93,1.3-1.62,2-2.09.7-.46,1.43-.69,2.2-.69.57,0,1.19.18,1.84.55l-1.08,1.75c-.44-.19-.8-.28-1.1-.28-.69,0-1.36.28-2,.85-.64.57-1.13,1.45-1.47,2.65-.26.92-.39,2.78-.39,5.58v5.46h-2.12v-16.15Z"></path><path class="cls-3" d="M262.76,118.15h2.08v2.89c.83-1.11,1.75-1.94,2.76-2.49,1.01-.55,2.11-.82,3.29-.82s2.28.31,3.21.92c.94.61,1.63,1.44,2.07,2.48.45,1.04.67,2.66.67,4.85v8.31h-2.08v-7.71c0-1.86-.08-3.1-.23-3.72-.24-1.07-.7-1.87-1.39-2.41-.68-.54-1.57-.81-2.67-.81-1.26,0-2.38.42-3.38,1.25-1,.83-1.65,1.86-1.97,3.09-.2.8-.3,2.27-.3,4.39v5.92h-2.08v-16.15Z"></path><path class="cls-3" d="M297.39,118.15v16.15h-2.05v-2.78c-.87,1.06-1.85,1.86-2.93,2.39-1.08.53-2.27.8-3.55.8-2.29,0-4.24-.83-5.86-2.49-1.62-1.66-2.43-3.67-2.43-6.05s.82-4.31,2.45-5.97c1.63-1.65,3.6-2.48,5.89-2.48,1.33,0,2.53.28,3.6.85,1.07.56,2.02,1.41,2.83,2.54v-2.97h2.05ZM289.09,119.74c-1.16,0-2.22.28-3.2.85-.98.57-1.76,1.37-2.34,2.4-.58,1.03-.87,2.12-.87,3.26s.29,2.22.88,3.26c.58,1.04,1.37,1.85,2.35,2.42.98.58,2.04.87,3.17.87s2.21-.29,3.23-.86c1.02-.57,1.8-1.35,2.35-2.33.55-.98.82-2.08.82-3.31,0-1.87-.62-3.43-1.85-4.69-1.23-1.25-2.75-1.88-4.54-1.88Z"></path><path class="cls-3" d="M303.88,112.15h2.08v6h3.3v1.79h-3.3v14.36h-2.08v-14.36h-2.84v-1.79h2.84v-6Z"></path><path class="cls-3" d="M313.09,111.5c.47,0,.88.17,1.21.5.33.34.5.74.5,1.22s-.17.87-.5,1.2-.74.5-1.21.5-.86-.17-1.2-.5-.5-.74-.5-1.2.17-.88.5-1.22c.33-.34.73-.5,1.2-.5ZM312.06,118.15h2.08v16.15h-2.08v-16.15Z"></path><path class="cls-3" d="M326.1,117.73c2.49,0,4.55.9,6.19,2.7,1.49,1.64,2.23,3.59,2.23,5.83s-.79,4.23-2.36,5.92-3.59,2.53-6.06,2.53-4.5-.84-6.08-2.53-2.36-3.66-2.36-5.92.74-4.18,2.23-5.82c1.64-1.81,3.7-2.72,6.2-2.72ZM326.09,119.77c-1.73,0-3.21.64-4.45,1.92s-1.86,2.82-1.86,4.63c0,1.17.28,2.26.85,3.27.57,1.01,1.33,1.79,2.29,2.34.96.55,2.02.82,3.17.82s2.21-.28,3.17-.82c.96-.55,1.73-1.33,2.29-2.34.57-1.01.85-2.1.85-3.27,0-1.81-.62-3.36-1.87-4.63-1.25-1.28-2.73-1.92-4.45-1.92Z"></path><path class="cls-3" d="M338.36,118.15h2.08v2.89c.83-1.11,1.75-1.94,2.76-2.49,1.01-.55,2.11-.82,3.29-.82s2.28.31,3.21.92c.94.61,1.63,1.44,2.07,2.48.45,1.04.67,2.66.67,4.85v8.31h-2.08v-7.71c0-1.86-.08-3.1-.23-3.72-.24-1.07-.7-1.87-1.39-2.41-.68-.54-1.57-.81-2.67-.81-1.26,0-2.38.42-3.38,1.25-1,.83-1.65,1.86-1.97,3.09-.2.8-.3,2.27-.3,4.39v5.92h-2.08v-16.15Z"></path><path class="cls-3" d="M373,118.15v16.15h-2.05v-2.78c-.87,1.06-1.85,1.86-2.93,2.39-1.08.53-2.27.8-3.55.8-2.29,0-4.24-.83-5.86-2.49-1.62-1.66-2.43-3.67-2.43-6.05s.82-4.31,2.45-5.97c1.63-1.65,3.6-2.48,5.89-2.48,1.33,0,2.53.28,3.6.85,1.07.56,2.02,1.41,2.83,2.54v-2.97h2.05ZM364.69,119.74c-1.16,0-2.22.28-3.2.85-.98.57-1.76,1.37-2.34,2.4-.58,1.03-.87,2.12-.87,3.26s.29,2.22.88,3.26c.58,1.04,1.37,1.85,2.35,2.42.98.58,2.04.87,3.17.87s2.21-.29,3.23-.86c1.02-.57,1.8-1.35,2.35-2.33.55-.98.82-2.08.82-3.31,0-1.87-.62-3.43-1.85-4.69-1.23-1.25-2.75-1.88-4.54-1.88Z"></path><path class="cls-3" d="M377.36,111.91h2.08v22.39h-2.08v-22.39Z"></path><path class="cls-3" d="M392.21,112.46h2.18v21.84h-2.18v-21.84Z"></path><path class="cls-3" d="M399.05,118.15h2.08v2.89c.83-1.11,1.75-1.94,2.76-2.49,1.01-.55,2.11-.82,3.29-.82s2.28.31,3.21.92c.94.61,1.63,1.44,2.07,2.48.45,1.04.67,2.66.67,4.85v8.31h-2.08v-7.71c0-1.86-.08-3.1-.23-3.72-.24-1.07-.7-1.87-1.39-2.41-.68-.54-1.57-.81-2.67-.81-1.26,0-2.38.42-3.38,1.25-1,.83-1.65,1.86-1.97,3.09-.2.8-.3,2.27-.3,4.39v5.92h-2.08v-16.15Z"></path><path class="cls-3" d="M416.06,118.15h2.21l5.42,11.77,5.36-11.77h2.23l-7.39,16.15h-.39l-7.44-16.15Z"></path><path class="cls-3" d="M448.04,128.94l1.75.92c-.57,1.13-1.24,2.04-1.99,2.73s-1.6,1.22-2.54,1.58c-.94.36-2.01.54-3.2.54-2.63,0-4.7-.86-6.18-2.59-1.49-1.73-2.23-3.68-2.23-5.86,0-2.05.63-3.87,1.89-5.48,1.59-2.04,3.73-3.06,6.4-3.06s4.95,1.04,6.6,3.13c1.17,1.48,1.76,3.32,1.78,5.52h-14.53c.04,1.88.64,3.41,1.8,4.61s2.59,1.8,4.3,1.8c.82,0,1.62-.14,2.4-.43.78-.29,1.44-.67,1.98-1.14.54-.47,1.13-1.24,1.77-2.29ZM448.04,124.59c-.28-1.11-.68-1.99-1.21-2.66-.53-.66-1.23-1.2-2.1-1.6s-1.79-.61-2.75-.61c-1.59,0-2.95.51-4.09,1.53-.83.74-1.46,1.86-1.89,3.34h12.04Z"></path><path class="cls-3" d="M462.32,119.92l-1.34,1.38c-1.11-1.08-2.2-1.62-3.26-1.62-.68,0-1.25.22-1.73.67s-.72.96-.72,1.56c0,.52.2,1.02.59,1.5.4.49,1.23,1.05,2.5,1.71,1.55.8,2.6,1.57,3.15,2.32.54.75.82,1.6.82,2.54,0,1.33-.47,2.45-1.4,3.37s-2.1,1.38-3.49,1.38c-.93,0-1.82-.2-2.67-.61-.85-.41-1.55-.96-2.1-1.68l1.31-1.48c1.06,1.2,2.19,1.8,3.38,1.8.83,0,1.54-.27,2.13-.8.58-.53.88-1.16.88-1.89,0-.59-.19-1.12-.58-1.59-.39-.46-1.26-1.03-2.62-1.72-1.46-.75-2.45-1.49-2.98-2.23-.53-.73-.79-1.57-.79-2.51,0-1.23.42-2.25,1.26-3.06.84-.81,1.9-1.22,3.17-1.22,1.49,0,2.98.73,4.49,2.18Z"></path><path class="cls-3" d="M467.81,112.15h2.08v6h3.3v1.79h-3.3v14.36h-2.08v-14.36h-2.84v-1.79h2.84v-6Z"></path><path class="cls-3" d="M483.95,117.73c2.49,0,4.55.9,6.19,2.7,1.49,1.64,2.23,3.59,2.23,5.83s-.79,4.23-2.36,5.92-3.59,2.53-6.06,2.53-4.5-.84-6.08-2.53-2.36-3.66-2.36-5.92.74-4.18,2.23-5.82c1.64-1.81,3.7-2.72,6.2-2.72ZM483.94,119.77c-1.73,0-3.21.64-4.45,1.92s-1.86,2.82-1.86,4.63c0,1.17.28,2.26.85,3.27.57,1.01,1.33,1.79,2.29,2.34.96.55,2.02.82,3.17.82s2.21-.28,3.17-.82c.96-.55,1.73-1.33,2.29-2.34.57-1.01.85-2.1.85-3.27,0-1.81-.62-3.36-1.87-4.63-1.25-1.28-2.73-1.92-4.45-1.92Z"></path><path class="cls-3" d="M495.42,118.15h2.12v2.36c.63-.93,1.3-1.62,2-2.09.7-.46,1.43-.69,2.2-.69.57,0,1.19.18,1.84.55l-1.08,1.75c-.44-.19-.8-.28-1.1-.28-.69,0-1.36.28-2,.85-.64.57-1.13,1.45-1.47,2.65-.26.92-.39,2.78-.39,5.58v5.46h-2.12v-16.15Z"></path><path class="cls-3" d="M272.16,152.7l10.18,21.84h-2.36l-3.43-7.19h-9.41l-3.4,7.19h-2.43l10.32-21.84h.54ZM271.89,157.34l-3.74,7.9h7.47l-3.72-7.9Z"></path><path class="cls-3" d="M283.21,158.39h2.14l4.95,11.73,5.15-11.73h.38l5.19,11.73,5.05-11.73h2.16l-7.02,16.15h-.39l-5.16-11.56-5.16,11.56h-.39l-6.9-16.15Z"></path><path class="cls-3" d="M326.75,158.39v16.15h-2.05v-2.78c-.87,1.06-1.85,1.86-2.93,2.39-1.08.54-2.27.8-3.55.8-2.29,0-4.24-.83-5.86-2.49s-2.43-3.67-2.43-6.05.82-4.31,2.45-5.97,3.6-2.48,5.89-2.48c1.33,0,2.53.28,3.6.85,1.07.56,2.02,1.41,2.83,2.54v-2.97h2.05ZM318.44,159.98c-1.16,0-2.22.28-3.2.85-.98.57-1.76,1.37-2.34,2.4s-.87,2.12-.87,3.26.29,2.22.88,3.26c.58,1.04,1.37,1.85,2.35,2.42s2.04.87,3.17.87,2.21-.29,3.23-.86c1.02-.57,1.8-1.35,2.35-2.33.55-.98.82-2.08.82-3.31,0-1.87-.62-3.43-1.85-4.69s-2.75-1.88-4.54-1.88Z"></path><path class="cls-3" d="M330.64,158.39h2.12v2.36c.63-.93,1.3-1.62,2-2.09.7-.46,1.43-.69,2.2-.69.57,0,1.19.18,1.84.55l-1.08,1.75c-.44-.19-.8-.28-1.1-.28-.69,0-1.36.29-2,.85-.64.57-1.13,1.45-1.47,2.65-.26.92-.39,2.78-.39,5.58v5.46h-2.12v-16.15Z"></path><path class="cls-3" d="M356.69,152.15v22.39h-2.05v-2.78c-.87,1.06-1.85,1.86-2.93,2.39-1.08.54-2.27.8-3.56.8-2.29,0-4.24-.83-5.86-2.49s-2.43-3.67-2.43-6.05.82-4.31,2.45-5.97,3.6-2.48,5.89-2.48c1.33,0,2.53.28,3.6.85,1.07.56,2.02,1.41,2.83,2.54v-9.2h2.05ZM348.38,159.98c-1.16,0-2.22.28-3.2.85s-1.76,1.37-2.34,2.4c-.58,1.03-.87,2.12-.87,3.26s.29,2.22.88,3.26c.58,1.04,1.37,1.85,2.35,2.42s2.04.87,3.17.87,2.21-.29,3.23-.86c1.02-.57,1.8-1.35,2.35-2.33s.82-2.08.82-3.31c0-1.87-.62-3.43-1.85-4.69s-2.75-1.88-4.54-1.88Z"></path><path class="cls-3" d="M369.52,160.15l-1.34,1.38c-1.11-1.08-2.2-1.62-3.26-1.62-.68,0-1.25.22-1.73.67s-.72.96-.72,1.56c0,.53.2,1.03.59,1.5.4.48,1.23,1.05,2.5,1.71,1.55.8,2.6,1.57,3.15,2.32.54.75.82,1.6.82,2.54,0,1.33-.47,2.45-1.4,3.37-.93.92-2.1,1.38-3.49,1.38-.93,0-1.82-.2-2.67-.61s-1.55-.96-2.1-1.68l1.31-1.48c1.06,1.2,2.19,1.8,3.38,1.8.83,0,1.54-.27,2.13-.8.58-.53.88-1.16.88-1.88,0-.59-.19-1.12-.58-1.59-.39-.46-1.26-1.03-2.62-1.72-1.46-.75-2.45-1.49-2.98-2.23s-.79-1.57-.79-2.51c0-1.23.42-2.25,1.26-3.06s1.9-1.22,3.17-1.22c1.49,0,2.98.73,4.49,2.18Z"></path><path class="cls-3" d="M382.82,159.53h-2.09c.06-2.15.78-3.92,2.16-5.3s3.08-2.07,5.11-2.07,3.63.65,4.88,1.95c1.24,1.3,1.86,2.83,1.86,4.59,0,1.24-.3,2.4-.89,3.48-.59,1.08-1.74,2.55-3.45,4.4l-5.44,5.86h10.07v2.11h-14.83l8.34-9.02c1.69-1.81,2.79-3.16,3.3-4.03.51-.88.76-1.8.76-2.77,0-1.23-.46-2.29-1.37-3.17-.92-.89-2.04-1.33-3.36-1.33-1.4,0-2.56.46-3.48,1.39-.93.93-1.45,2.24-1.58,3.92Z"></path><path class="cls-3" d="M397.11,163.63c0-2.88.31-5.11.93-6.68.62-1.57,1.49-2.77,2.62-3.58s2.39-1.22,3.79-1.22,2.7.41,3.84,1.22c1.15.82,2.06,2.04,2.72,3.67.67,1.63,1,3.83,1,6.58s-.33,4.92-.99,6.55-1.57,2.85-2.72,3.67c-1.16.83-2.45,1.24-3.86,1.24s-2.65-.4-3.77-1.2c-1.12-.8-1.99-2-2.62-3.58-.63-1.59-.94-3.81-.94-6.67ZM399.18,163.66c0,2.47.22,4.33.66,5.59.44,1.26,1.09,2.22,1.95,2.88.86.65,1.77.98,2.73.98s1.88-.32,2.72-.96,1.48-1.6,1.92-2.87c.54-1.56.82-3.43.82-5.62s-.24-4-.73-5.4c-.48-1.4-1.16-2.43-2.01-3.08-.86-.65-1.76-.97-2.71-.97s-1.88.32-2.73.97c-.85.65-1.5,1.6-1.94,2.87s-.67,3.13-.67,5.61Z"></path><path class="cls-3" d="M416.51,159.53h-2.09c.06-2.15.78-3.92,2.16-5.3s3.08-2.07,5.11-2.07,3.63.65,4.88,1.95c1.24,1.3,1.86,2.83,1.86,4.59,0,1.24-.3,2.4-.89,3.48-.59,1.08-1.74,2.55-3.45,4.4l-5.44,5.86h10.07v2.11h-14.83l8.34-9.02c1.69-1.81,2.79-3.16,3.3-4.03.51-.88.76-1.8.76-2.77,0-1.23-.46-2.29-1.37-3.17-.92-.89-2.04-1.33-3.36-1.33-1.4,0-2.56.46-3.48,1.39-.93.93-1.45,2.24-1.58,3.92Z"></path><path class="cls-3" d="M444.79,152.7v2.08h-7.76l-1.09,5.95c.95-.28,1.8-.42,2.56-.42,1.99,0,3.63.67,4.92,2,1.29,1.33,1.94,3.04,1.94,5.11,0,1.44-.33,2.75-1,3.95s-1.56,2.12-2.69,2.75c-1.13.64-2.44.96-3.93.96-1.77,0-3.27-.54-4.48-1.62-1.22-1.08-1.94-2.49-2.18-4.21h2.24c.17.84.45,1.52.85,2.05.4.52.94.95,1.6,1.27.67.32,1.37.48,2.1.48,1.43,0,2.67-.54,3.7-1.63,1.03-1.09,1.54-2.45,1.54-4.08,0-1.47-.47-2.67-1.4-3.59-.93-.92-2.17-1.38-3.73-1.38-1.29,0-2.84.39-4.68,1.17l2.02-10.85h9.46Z"></path></g></svg>