<svg xmlns="http://www.w3.org/2000/svg" id="content" viewBox="0 0 1621.83 369.25"><defs><style> .cls-1 { fill: #e1703d; } .cls-2 { fill: #fff; } </style></defs><g><path class="cls-2" d="M382.46,341.75c-7.41,0-12.95-6.64-12.95-12.54V81.68c0-12.46-9.53-18.27-16.58-18.27h-63.94c-6.11,0-12.12-6.63-12.12-13.38s5.89-12.94,12.12-12.94h185.28c7.14,0,12.53,5.56,12.53,12.94,0,6.48-4.39,13.38-12.53,13.38h-79.69v265.8c0,5.67-5.4,12.54-12.12,12.54"></path><path class="cls-2" d="M551.07,341.75c-6.92,0-12.54-5.64-12.54-12.54V50.03c0-6.68,5.86-12.54,12.54-12.54h158.99c6.68,0,12.54,5.86,12.54,12.54,0,7.13-5.86,13.38-12.54,13.38h-126.86c-8.73,0-19.18,5.42-19.18,20.51,0,1.25,0,75.06,0,75.06h130.59c8,0,12.94,6.93,12.94,13.36s-5.31,12.94-12.94,12.94h-130.59v143.92c0,6.8-5.94,12.54-12.95,12.54"></path><path class="cls-2" d="M983.15,321.1l-73-112.55c-2.53-3.93-4.7-10.9-4.7-19.5,0-11.65,4.9-20.55,6.64-23.13l71.22-109.69c2.25-2.9,3.6-12.23-3.09-17.05-5.52-3.97-13.88-3.96-19.02,4.23l-79.09,121.91-79.1-121.91c-2.5-4.33-9.32-9.94-18.51-4.56-5.27,3.09-7.26,12.01-3.53,17.59l85.96,132.29-85.87,132.36c-3.02,4.85-3.38,13.58,3.15,18.19,4.33,3.05,13.34,2.77,17.94-4.13l79.96-123.07,79.95,123.07c3.72,5.77,12.59,7.75,17.93,4.13,6.64-4.49,5.95-13.17,3.16-18.19"></path><path class="cls-2" d="M250.28,341.93c-5.47,0-9.67-3.97-11.24-7.63l-93.56-221.81c-3.1-4.98-7.3-7.72-11.86-7.72-5.36,0-10.5,3.93-13.77,10.51L28.13,334.46s-4.15,10.01-16.72,6.23c-7.57-2.29-8.78-11.29-6.99-15.94L122.18,45.4c.72-1.53,3.02-7.81,11.63-8,4.32-.08,9.7,3.06,11.95,8.72l116.56,278.47c.76,1.63,1.84,5.24,0,9.67-1.15,2.7-3.56,5.13-6.34,6.36-2.75,1.21-5.07,1.31-5.7,1.31"></path><path class="cls-1" d="M14.02,245.65c-7.73,0-14.02-6.29-14.02-14.01s6.29-14.05,14.02-14.05h175.79l11.86,28.06H14.02Z"></path></g><g><g><path class="cls-2" d="M1138.3,53.63h13.17v83.82h-13.17V53.63Z"></path><path class="cls-2" d="M1193.27,76.74h-.24v60.71h-11.85V53.63h16.53l13.29,50.17h.24v-50.17h11.73v83.82h-13.53l-16.17-60.71Z"></path><path class="cls-2" d="M1272.42,122.01h.24l9.94-68.38h12.09l-12.93,83.82h-19.64l-12.93-83.82h13.29l9.94,68.38Z"></path><path class="cls-2" d="M1334.2,88.96h18.08v11.98h-18.08v24.55h22.75v11.98h-35.93V53.63h35.93v11.98h-22.75v23.35Z"></path><path class="cls-2" d="M1403.05,52.67c12.81,0,19.4,7.66,19.4,21.08v2.63h-12.45v-3.47c0-5.99-2.39-8.26-6.58-8.26s-6.58,2.28-6.58,8.26,2.63,10.66,11.26,18.2c11.02,9.7,14.49,16.65,14.49,26.22,0,13.41-6.71,21.08-19.64,21.08s-19.64-7.66-19.64-21.08v-5.15h12.45v5.99c0,5.99,2.63,8.14,6.83,8.14s6.83-2.16,6.83-8.14-2.63-10.66-11.26-18.2c-11.02-9.7-14.49-16.65-14.49-26.22,0-13.41,6.58-21.08,19.4-21.08Z"></path><path class="cls-2" d="M1446.52,53.63h40.71v11.98h-13.77v71.85h-13.17v-71.85h-13.77v-11.98Z"></path><path class="cls-2" d="M1512.14,73.75c0-13.41,7.06-21.08,20-21.08s20,7.66,20,21.08v43.59c0,13.41-7.07,21.08-20,21.08s-20-7.66-20-21.08v-43.59ZM1525.31,118.18c0,5.99,2.63,8.26,6.83,8.26s6.83-2.28,6.83-8.26v-45.26c0-5.99-2.63-8.26-6.83-8.26s-6.83,2.28-6.83,8.26v45.26Z"></path><path class="cls-2" d="M1608.42,137.46c-.72-2.16-1.2-3.47-1.2-10.3v-13.17c0-7.78-2.63-10.66-8.62-10.66h-4.55v34.13h-13.17V53.63h19.88c13.65,0,19.52,6.35,19.52,19.28v6.58c0,8.62-2.76,14.13-8.62,16.88v.24c6.58,2.75,8.74,8.98,8.74,17.72v12.93c0,4.07.12,7.06,1.44,10.18h-13.41ZM1594.05,65.61v25.74h5.15c4.91,0,7.9-2.16,7.9-8.86v-8.26c0-5.99-2.03-8.62-6.71-8.62h-6.34Z"></path></g><g><path class="cls-2" d="M1180.94,266.53h-13.29l-2.28-15.21h-16.17l-2.27,15.21h-12.1l13.41-83.82h19.28l13.41,83.82ZM1150.88,239.95h12.7l-6.23-42.39h-.24l-6.23,42.39Z"></path><path class="cls-2" d="M1234.82,221.87h-.24l-4.67,44.67h-18.08l-9.34-83.82h12.81l6.95,66.1h.24l6.23-66.1h12.69l6.47,66.58h.24l6.71-66.58h11.5l-9.34,83.82h-17.48l-4.67-44.67Z"></path><path class="cls-2" d="M1333.97,266.53h-13.29l-2.27-15.21h-16.17l-2.28,15.21h-12.09l13.41-83.82h19.28l13.41,83.82ZM1303.91,239.95h12.69l-6.23-42.39h-.24l-6.23,42.39Z"></path><path class="cls-2" d="M1387.85,266.53c-.72-2.16-1.2-3.47-1.2-10.3v-13.17c0-7.78-2.63-10.66-8.62-10.66h-4.55v34.13h-13.17v-83.82h19.88c13.65,0,19.52,6.35,19.52,19.28v6.58c0,8.62-2.75,14.13-8.62,16.88v.24c6.58,2.75,8.74,8.98,8.74,17.72v12.93c0,4.07.12,7.06,1.44,10.18h-13.41ZM1373.48,194.69v25.74h5.15c4.91,0,7.9-2.16,7.9-8.86v-8.26c0-5.99-2.04-8.62-6.71-8.62h-6.35Z"></path><path class="cls-2" d="M1428.68,182.71h20.83c13.17,0,19.64,7.31,19.64,20.72v42.39c0,13.41-6.46,20.72-19.64,20.72h-20.83v-83.82ZM1441.85,194.69v59.87h7.43c4.19,0,6.71-2.16,6.71-8.14v-43.59c0-5.99-2.51-8.14-6.71-8.14h-7.43Z"></path><path class="cls-2" d="M1515.49,181.75c12.81,0,19.4,7.66,19.4,21.08v2.63h-12.45v-3.47c0-5.99-2.39-8.26-6.58-8.26s-6.59,2.28-6.59,8.26,2.63,10.66,11.26,18.2c11.02,9.7,14.49,16.65,14.49,26.22,0,13.41-6.71,21.08-19.64,21.08s-19.64-7.66-19.64-21.08v-5.15h12.46v5.99c0,5.99,2.63,8.14,6.83,8.14s6.82-2.16,6.82-8.14-2.63-10.66-11.26-18.2c-11.02-9.7-14.49-16.65-14.49-26.22,0-13.41,6.58-21.08,19.4-21.08Z"></path></g><g><path class="cls-2" d="M1157.58,295.49c-4.19,0-6.83,2.28-6.83,8.26v8.98h-12.45v-8.14c0-13.41,6.71-21.08,19.64-21.08s19.64,7.66,19.64,21.08c0,11.13-4.07,20.12-16.29,33.17-7.78,8.38-9.94,12.33-9.94,16.76,0,.6,0,1.2.12,1.8h24.91v11.98h-38.08v-10.3c0-9.34,3.35-16.4,13.17-26.7,10.06-10.66,12.93-17.25,12.93-26.22,0-7.55-2.63-9.58-6.83-9.58Z"></path><path class="cls-2" d="M1204.88,304.59c0-13.41,7.07-21.08,20-21.08s20,7.66,20,21.08v43.59c0,13.41-7.06,21.08-20,21.08s-20-7.66-20-21.08v-43.59ZM1218.06,349.02c0,5.99,2.63,8.26,6.83,8.26s6.83-2.28,6.83-8.26v-45.26c0-5.99-2.63-8.26-6.83-8.26s-6.83,2.28-6.83,8.26v45.26Z"></path><path class="cls-2" d="M1292.89,295.49c-4.19,0-6.83,2.28-6.83,8.26v8.98h-12.45v-8.14c0-13.41,6.71-21.08,19.64-21.08s19.64,7.66,19.64,21.08c0,11.13-4.07,20.12-16.28,33.17-7.78,8.38-9.94,12.33-9.94,16.76,0,.6,0,1.2.12,1.8h24.91v11.98h-38.08v-10.3c0-9.34,3.35-16.4,13.17-26.7,10.06-10.66,12.93-17.25,12.93-26.22,0-7.55-2.63-9.58-6.83-9.58Z"></path><path class="cls-2" d="M1353.12,341.23v7.78c0,5.99,2.63,8.14,6.83,8.14s6.83-2.16,6.83-8.14v-18.44c0-5.99-2.63-8.26-6.83-8.26s-6.83,2.28-6.83,8.26v2.51h-12.45l2.39-48.62h34.73v11.98h-22.99l-1.08,20h.24c2.4-3.95,6.11-6.11,11.38-6.11,9.7,0,14.61,6.83,14.61,19.16v18.68c0,13.41-6.71,21.08-19.64,21.08s-19.64-7.66-19.64-21.08v-6.94h12.45Z"></path></g><g><g><path class="cls-2" d="M1142.29.95v32.4h-2.13V.95h2.13Z"></path><path class="cls-2" d="M1142.96,34.02h-3.47V.28h3.47v33.74ZM1140.83,32.68h.79V1.62h-.79v31.06Z"></path></g><g><path class="cls-2" d="M1170.84,33.35h-1.94V.95h2.78l9.72,27.36V.95h1.94v32.4h-2.36l-10.14-28.88v28.88Z"></path><path class="cls-2" d="M1184.01,34.02h-3.5l-.16-.45-8.83-25.17v25.62h-3.28V.28h3.92l8.58,24.14V.28h3.28v33.74ZM1181.45,32.68h1.22V1.62h-.6v30.57l-10.86-30.57h-.65l10.9,31.06ZM1169.57,32.68h.6V1.62h-.6v31.06Z"></path></g><g><path class="cls-2" d="M1215.51,33.35V2.89h-6.62V.95h15.32v1.94h-6.57v30.46h-2.13Z"></path><path class="cls-2" d="M1218.31,34.02h-3.47V3.56h-6.62V.28h16.66v3.28h-6.57v30.46ZM1216.18,32.68h.79V2.22h6.57v-.6h-13.98v.6h6.62v30.46Z"></path></g><g><path class="cls-2" d="M1260.87,15.94v1.95h-8.84v13.52h10.64v1.94h-12.78V.95h12.78v1.94h-10.64v13.05h8.84Z"></path><path class="cls-2" d="M1263.35,34.02h-14.12V.28h14.12v3.28h-10.64v11.71h8.84v3.29h-8.84v12.17h10.64v3.28ZM1250.57,32.68h11.44v-.6h-10.64v-14.86h8.84v-.61h-8.84V2.22h10.64v-.6h-11.44v31.06Z"></path></g><g><path class="cls-2" d="M1295.82.95c4.96,0,6.95,2.73,6.95,7.31v2.82c0,3.8-1.48,5.97-4.68,6.71,3.33.74,4.68,3.1,4.68,6.62v5.05c0,1.34.09,2.82.79,3.89h-2.22c-.56-.97-.7-2.13-.7-3.89v-5.09c0-4.31-2.36-5.51-6.06-5.51h-3.38v14.49h-2.13V.95h6.76ZM1294.61,16.92c3.8,0,6.02-1.06,6.02-5.41v-3.05c0-3.47-1.34-5.56-4.86-5.56h-4.58v14.02h3.42Z"></path><path class="cls-2" d="M1304.79,34.02h-3.85l-.19-.34c-.65-1.14-.79-2.46-.79-4.22v-5.09c0-3.48-1.51-4.84-5.39-4.84h-2.71v14.49h-3.47V.28h7.43c5.06,0,7.62,2.69,7.62,7.98v2.82c0,3.34-1.1,5.55-3.36,6.71,2.23,1.15,3.36,3.37,3.36,6.62v5.05c0,1.23.08,2.61.68,3.52l.68,1.04ZM1301.74,32.68h.75c-.34-1-.4-2.12-.4-3.22v-5.05c0-3.44-1.32-5.33-4.15-5.96l-2.88-.64,1.41-.33c-.61.08-1.23.1-1.85.1h-4.09V2.22h5.25c3.67,0,5.53,2.09,5.53,6.23v3.05c0,3.38-1.35,4.92-3.17,5.59,2.74-.71,3.96-2.57,3.96-6.01v-2.82c0-4.53-1.99-6.64-6.28-6.64h-6.09v31.06h.79v-14.49h4.05c2.89,0,6.73.64,6.73,6.18v5.09c0,1.56.12,2.49.44,3.22ZM1291.86,16.24h2.75c3.95,0,5.35-1.24,5.35-4.74v-3.05c0-3.38-1.29-4.88-4.19-4.88h-3.91v12.68Z"></path></g><g><path class="cls-2" d="M1331.78,33.35h-1.94V.95h2.78l9.72,27.36V.95h1.94v32.4h-2.36l-10.14-28.88v28.88Z"></path><path class="cls-2" d="M1344.95,34.02h-3.5l-.16-.45-8.83-25.17v25.62h-3.28V.28h3.92l8.58,24.14V.28h3.28v33.74ZM1342.39,32.68h1.22V1.62h-.6v30.57l-10.86-30.57h-.65l10.9,31.06ZM1330.51,32.68h.6V1.62h-.6v31.06Z"></path></g><g><path class="cls-2" d="M1373.95,26.17l-1.62,7.17h-1.95l7.08-32.45h3.1l7.22,32.45h-2.13l-1.62-7.17h-10.09ZM1374.27,24.32h9.44l-4.77-20.97-4.67,20.97Z"></path><path class="cls-2" d="M1388.63,34.02h-3.5l-1.62-7.17h-9.02l-1.62,7.17h-3.32l7.38-33.79h4.18l7.52,33.79ZM1386.2,32.68h.76l-6.92-31.11h-.8l5.32,23.42h-11.12l5.22-23.42h-.65l-6.79,31.11h.58l1.62-7.17h11.16l1.62,7.17ZM1375.11,23.65h7.76l-3.92-17.24-3.84,17.24Z"></path></g><g><path class="cls-2" d="M1419.54,33.35V2.89h-6.62V.95h15.32v1.94h-6.57v30.46h-2.13Z"></path><path class="cls-2" d="M1422.34,34.02h-3.47V3.56h-6.62V.28h16.66v3.28h-6.57v30.46ZM1420.21,32.68h.79V2.22h6.57v-.6h-13.98v.6h6.62v30.46Z"></path></g><g><path class="cls-2" d="M1456.06.95v32.4h-2.13V.95h2.13Z"></path><path class="cls-2" d="M1456.73,34.02h-3.47V.28h3.47v33.74ZM1454.6,32.68h.79V1.62h-.79v31.06Z"></path></g><g><path class="cls-2" d="M1482.54,8.86c0-4.72,2.17-8.19,7.08-8.19s7.17,3.47,7.17,8.19v16.57c0,4.72-2.17,8.19-7.17,8.19s-7.08-3.47-7.08-8.19V8.86ZM1484.67,25.57c0,3.52,1.39,6.11,4.95,6.11s5.05-2.59,5.05-6.11V8.72c0-3.52-1.44-6.11-5.05-6.11s-4.95,2.59-4.95,6.11v16.85Z"></path><path class="cls-2" d="M1489.62,34.3c-4.85,0-7.75-3.31-7.75-8.86V8.86c0-5.55,2.9-8.86,7.75-8.86s7.84,3.23,7.84,8.86v16.57c0,5.63-2.86,8.86-7.84,8.86ZM1489.62,1.34c-5.58,0-6.41,4.71-6.41,7.52v16.57c0,2.81.83,7.52,6.41,7.52s6.5-4.71,6.5-7.52V8.86c0-2.81-.85-7.52-6.5-7.52ZM1489.62,32.35c-3.57,0-5.62-2.47-5.62-6.78V8.72c0-4.37,2-6.78,5.62-6.78s5.72,2.47,5.72,6.78v16.85c0,4.31-2.08,6.78-5.72,6.78ZM1489.62,3.28c-2.84,0-4.28,1.83-4.28,5.44v16.85c0,3.61,1.44,5.44,4.28,5.44s4.38-1.83,4.38-5.44V8.72c0-3.61-1.47-5.44-4.38-5.44Z"></path></g><g><path class="cls-2" d="M1525.17,33.35h-1.94V.95h2.78l9.72,27.36V.95h1.94v32.4h-2.36l-10.14-28.88v28.88Z"></path><path class="cls-2" d="M1538.33,34.02h-3.5l-.16-.45-8.83-25.17v25.62h-3.28V.28h3.92l8.58,24.14V.28h3.28v33.74ZM1535.78,32.68h1.22V1.62h-.6v30.57l-10.86-30.57h-.65l10.9,31.06ZM1523.89,32.68h.6V1.62h-.6v31.06Z"></path></g><g><path class="cls-2" d="M1567.34,26.17l-1.62,7.17h-1.95l7.08-32.45h3.1l7.22,32.45h-2.13l-1.62-7.17h-10.09ZM1567.66,24.32h9.44l-4.77-20.97-4.67,20.97Z"></path><path class="cls-2" d="M1582.01,34.02h-3.5l-1.62-7.17h-9.02l-1.62,7.17h-3.32l7.38-33.79h4.18l7.52,33.79ZM1579.58,32.68h.76l-6.92-31.11h-.8l5.32,23.42h-11.12l5.22-23.42h-.65l-6.79,31.11h.58l1.62-7.17h11.16l1.62,7.17ZM1568.5,23.65h7.76l-3.92-17.24-3.84,17.24Z"></path></g><g><path class="cls-2" d="M1607.33,33.35V.95h2.13v30.46h10.18v1.94h-12.31Z"></path><path class="cls-2" d="M1620.31,34.02h-13.65V.28h3.47v30.46h10.18v3.28ZM1608,32.68h10.97v-.6h-10.18V1.62h-.79v31.06Z"></path></g></g><rect class="cls-2" x="1093.31" y="157.38" width="449.74" height="1.78"></rect></g></svg>