<svg xmlns="http://www.w3.org/2000/svg" id="icon-monitor-phone-blue" viewBox="0 0 56 56"><rect id="icon_mask" width="56" height="56" fill="none"></rect><g id="icons" transform="translate(-1404 -261)"><g id="Group_2213" data-name="Group 2213" transform="translate(1405 267)"><path id="Path_1480" data-name="Path 1480" d="M165.431,395.3H130.877a1.781,1.781,0,0,1-1.777-1.8v-1.3a1.781,1.781,0,0,1,1.777-1.8h.691V360.5a2.778,2.778,0,0,1,2.764-2.8h40.379a2.777,2.777,0,0,1,2.764,2.8v10.9c0,.4-.3,0-.8,0h-9.273c-.691,0-1.608,1.2-1.608,1.9v20.9C165.7,394.5,165.826,395.3,165.431,395.3Zm-34.653-3.4a.317.317,0,0,0-.3.3v1.3a.317.317,0,0,0,.3.3h33.863v-1.9H130.778Zm2.172-1.5h31.691V373.3a2.778,2.778,0,0,1,2.764-2.8h8.7V360.4c0-.7-.905-1.3-1.6-1.3H134.135a1.315,1.315,0,0,0-1.283,1.3v30Z" transform="translate(-129.1 -357.7)" fill="#0f2c52"></path></g><g id="Group_2214" data-name="Group 2214" transform="translate(1410.7 270.5)"><path id="Path_1481" data-name="Path 1481" d="M166,388.3H135.3a.472.472,0,0,1-.5-.5V361.7a.472.472,0,0,1,.5-.5h39.1a.472.472,0,0,1,.5.5v9.5c0,.3-.6,0-.9,0h-5.591c-.8,0-2.909.149-2.909.949V387.8C165.6,388.1,166.2,388.3,166,388.3Zm-30.2-1h29.7V373.1a2.456,2.456,0,0,1,2.5-2.4h6v-8.5H135.9v25.1Z" transform="translate(-134.8 -361.2)" fill="#0f2c52"></path></g><g id="Group_2215" data-name="Group 2215" transform="translate(1440.376 279.3)"><path id="Path_1482" data-name="Path 1482" d="M181.8,402.2H167.9a2.8,2.8,0,0,1-2.8-2.8V373.3a2.8,2.8,0,0,1,2.8-2.8h13.9a2.8,2.8,0,0,1,2.8,2.8v26.1A2.86,2.86,0,0,1,181.8,402.2Zm-13.9-30.1a1.324,1.324,0,0,0-1.3,1.3v26.1a1.324,1.324,0,0,0,1.3,1.3h13.9a1.324,1.324,0,0,0,1.3-1.3V373.4a1.324,1.324,0,0,0-1.3-1.3Z" transform="translate(-165.1 -370.5)" fill="#0f2c52"></path></g><g id="Group_2218" data-name="Group 2218" transform="translate(1447.4 282.717)"><path id="Path_1485" data-name="Path 1485" d="M178.2,374.6h-4.4a.5.5,0,0,1,0-1h4.4a.5.5,0,0,1,0,1Z" transform="translate(-173.3 -373.6)" fill="#0f2c52"></path></g><path id="Path_1492" data-name="Path 1492" d="M416.3,389.4h0a.664.664,0,0,1-.5-.4l-2.9-15.2-3.8,11.1c-.1.2-.2.3-.4.3a.55.55,0,0,1-.5-.3l-1.8-3.5h-6.8a.5.5,0,1,1,0-1h7.1c.2,0,.4.1.4.3l1.4,2.8,4-11.7a.55.55,0,0,1,.5-.3.664.664,0,0,1,.5.4l2.8,14.7,2.7-11.8a.43.43,0,0,1,.4-.4.55.55,0,0,1,.5.3l2.4,5.8h3.5a.5.5,0,0,1,0,1H422a.55.55,0,0,1-.5-.3l-1.9-4.7-2.9,12.6C416.8,389.2,416.6,389.4,416.3,389.4Z" transform="translate(1014.702 -95.865)" fill="#0f2c52"></path><path id="Path_1530" data-name="Path 1530" d="M405.776,557.115a1.276,1.276,0,0,1,0-2.552,1.06,1.06,0,0,1,.729.243l.3-6.44a1.283,1.283,0,0,1,1.276-1.276A1.191,1.191,0,0,1,409.3,548l2.187,4.556a1.3,1.3,0,0,1,1.033-.486,1.061,1.061,0,0,1,.729.243l.3-6.44a1.276,1.276,0,1,1,1.276,1.276,1.06,1.06,0,0,1-.729-.243l-.3,6.44a1.246,1.246,0,0,1-1.276,1.276,1.315,1.315,0,0,1-1.276-1.215l-2.126-4.313a1.276,1.276,0,0,1-1.094.608,1.06,1.06,0,0,1-.729-.243l-.3,6.44A1.218,1.218,0,0,1,405.776,557.115Zm0-2a.668.668,0,1,0,.668.668h0A.674.674,0,0,0,405.776,555.11Zm6.075-1.823a.668.668,0,0,0,1.337,0h0a.668.668,0,0,0-1.337,0Zm-3.722-4.173a.607.607,0,0,0,.668-.668.635.635,0,0,0-.668-.668.668.668,0,1,0,0,1.336Zm6.762-2.512a.668.668,0,1,0,0-1.337.668.668,0,0,0,0,1.337Z" transform="translate(1040.276 -254.974)" fill="#0f2c52"></path></g></svg>