<svg xmlns="http://www.w3.org/2000/svg" viewBox="0 0 54 54"><g id="icon-withdrawals-step3-1-blue" transform="translate(-24 -4510)"><rect id="Rectangle_20253" data-name="Rectangle 20253" width="54" height="54" transform="translate(24 4510)" fill="#940000" opacity="0"></rect><g id="Group_5476" data-name="Group 5476" transform="translate(24 4510)"><path id="Path_4750" data-name="Path 4750" d="M16948.961,32469.914h45.061v-31.949h-45.061Zm45.543.965H16948V32437.6a.549.549,0,0,1,.6-.6h45.781a.615.615,0,0,1,.441.156.622.622,0,0,1,.162.443v33.275Z" transform="translate(-16944.553 -32433.635)" fill="#0f2c52"></path><path id="Path_4751" data-name="Path 4751" d="M17369,33558h12.869v.957H17369Z" transform="translate(-17348.674 -33509.695)" fill="#0f2c52"></path><path id="Path_4752" data-name="Path 4752" d="M17417,33445h9.381v.965H17417Z" transform="translate(-17394.75 -33401.223)" fill="#0f2c52"></path><path id="Path_4753" data-name="Path 4753" d="M17270.678,33447.609l-1.566,3.211h18.883l-1.684-3.211h-1.562a.517.517,0,0,1-.484-.4l-1.162-4.246h-9.219l-1.162,4.289a.563.563,0,0,1-.482.359Zm-2.809,3.488,2.084-4.207a.454.454,0,0,1,.441-.242h1.482l1.162-4.25a.51.51,0,0,1,.482-.4h9.943a.484.484,0,0,1,.48.355l1.16,4.293h1.523a.549.549,0,0,1,.443.242l2.125,4.207a.31.31,0,0,1,.08.2.491.491,0,0,1-.48.488l-20.447.035a.485.485,0,0,1-.24-.082A.48.48,0,0,1,17267.869,33451.1Z" transform="translate(-17251.553 -33398.34)" fill="#0f2c52"></path><path id="Path_4754" data-name="Path 4754" d="M17682.975,32962.777h0a.213.213,0,0,1-.158-.082l-2.924-2.93a4.412,4.412,0,0,0-.8,1.324.22.22,0,0,1-.24.164.264.264,0,0,1-.2-.2l-1.043-4.73a.255.255,0,0,1,.041-.242.631.631,0,0,1,.24-.078l4.73,1.039a.263.263,0,0,1,.2.242.246.246,0,0,1-.16.238,11.943,11.943,0,0,0-1.322.766l2.926,2.926a.223.223,0,0,1,0,.359l-1.084,1.086C17683.1,32962.734,17683.057,32962.777,17682.975,32962.777Z" transform="translate(-17644.889 -32931.824)" fill="#0f2c52" fill-rule="evenodd"></path><path id="Path_4755" data-name="Path 4755" d="M17210.6,32786h24.775a.6.6,0,0,1,.441.156.876.876,0,0,1,.16.441v4.934a.876.876,0,0,1-.16.438.6.6,0,0,1-.441.16H17210.6a.606.606,0,0,1-.443-.16.62.62,0,0,1-.158-.437v-4.934a.623.623,0,0,1,.158-.441A.866.866,0,0,1,17210.6,32786Zm24.412.965h-24.053v4.207h24.053Z" transform="translate(-17196.049 -32768.645)" fill="#0f2c52"></path><path id="Path_4756" data-name="Path 4756" d="M16863.443,32353h51.115a1.5,1.5,0,0,1,1,.4,1.453,1.453,0,0,1,.439,1.043v41.973a1.506,1.506,0,0,1-1.441,1.484h-51.115a1.51,1.51,0,0,1-1.443-1.484v-41.973a1.371,1.371,0,0,1,1.443-1.443Zm51.074,1.443h-51.074v41.973h51.074Z" transform="translate(-16862 -32353)" fill="#0f2c52"></path></g></g></svg>