<svg xmlns="http://www.w3.org/2000/svg" viewBox="0 0 54 54"><g id="icon-safe-and-secure-funds-blue" transform="translate(907 -4517)"><rect id="Rectangle_20244" data-name="Rectangle 20244" width="54" height="54" transform="translate(-907 4517)" fill="#940000" opacity="0"></rect><g id="Group_5445" data-name="Group 5445" transform="translate(-901 4517)"><path id="Path_4709" data-name="Path 4709" d="M5073,23551h39.529v.963H5073Z" transform="translate(-5072.078 -23504.736)" fill="#0f2c52"></path><path id="Path_4710" data-name="Path 4710" d="M5284.974,22491.166H5261v-8.98a12.219,12.219,0,0,1,20.846-8.619,12.089,12.089,0,0,1,3.608,8.619v8.98Zm-23.011-1h22.531v-7.979a11.266,11.266,0,0,0-22.531,0Z" transform="translate(-5252.542 -22467.074)" fill="#0f2c52"></path><path id="Path_4711" data-name="Path 4711" d="M5051.483,22449.52h38.407v-28.064H5084.4v-9.342a13.681,13.681,0,0,0-13.71-13.668,13.682,13.682,0,0,0-13.67,13.668v9.342h-5.533Zm38.607,1.48h-38.808a1.378,1.378,0,0,1-1.282-1.281v-28.463a1.144,1.144,0,0,1,.4-.883,1.289,1.289,0,0,1,.882-.4h4.25v-7.859a15.154,15.154,0,0,1,30.307,0v7.859h4.25a1.377,1.377,0,0,1,1.283,1.283v28.463a1.28,1.28,0,0,1-.4.881A1.217,1.217,0,0,1,5090.09,22451Z" transform="translate(-5050 -22397)" fill="#0f2c52"></path><path id="Path_4712" data-name="Path 4712" d="M5480.568,23109a3.419,3.419,0,0,1,2.526,1.082,3.544,3.544,0,0,1,1.042,2.525,3.691,3.691,0,0,1-.4,1.645,4.142,4.142,0,0,1-.922,1.121c.281,2.047.682,4.211.883,6.256a.638.638,0,0,1-.2.439.561.561,0,0,1-.4.2,35.744,35.744,0,0,1-5.052,0,.5.5,0,0,1-.4-.2.637.637,0,0,1-.2-.439c.16-2,.561-4.25.881-6.256a3.523,3.523,0,0,1-.922-1.121,3.7,3.7,0,0,1-.4-1.645,3.542,3.542,0,0,1,1.042-2.525A3.417,3.417,0,0,1,5480.568,23109Zm1.844,1.764a2.613,2.613,0,0,0-3.688,0,2.508,2.508,0,0,0-.762,1.844,2.453,2.453,0,0,0,.32,1.2,2.569,2.569,0,0,0,.8.924l.28.16-.921,6.414h4.249l-.921-6.375.24-.2a2.677,2.677,0,0,0,.842-.924,2.453,2.453,0,0,0,.32-1.2A2.507,2.507,0,0,0,5482.412,23110.766Z" transform="translate(-5459.882 -23080.459)" fill="#0f2c52"></path></g></g></svg>