<svg xmlns="http://www.w3.org/2000/svg" xmlns:xlink="http://www.w3.org/1999/xlink" id="Group_6925" data-name="Group 6925" width="423.285" height="310.229" viewBox="0 0 423.285 310.229"><defs><clipPath id="clip-path"><rect id="Rectangle_27255" data-name="Rectangle 27255" width="423.285" height="310.229" fill="none"></rect></clipPath><clipPath id="clip-path-3"><rect id="Rectangle_27189" data-name="Rectangle 27189" width="423.285" height="11.717" fill="none"></rect></clipPath><clipPath id="clip-path-5"><rect id="Rectangle_27192" data-name="Rectangle 27192" width="152.827" height="94.051" fill="none"></rect></clipPath><clipPath id="clip-path-6"><rect id="Rectangle_27193" data-name="Rectangle 27193" width="88.864" height="49.089" fill="none"></rect></clipPath><clipPath id="clip-path-7"><rect id="Rectangle_27194" data-name="Rectangle 27194" width="75.483" height="28.242" fill="none"></rect></clipPath><clipPath id="clip-path-8"><rect id="Rectangle_27195" data-name="Rectangle 27195" width="2.054" height="2.054" fill="none"></rect></clipPath><clipPath id="clip-path-12"><rect id="Rectangle_27201" data-name="Rectangle 27201" width="0.129" height="36.968" fill="none"></rect></clipPath><clipPath id="clip-path-13"><rect id="Rectangle_27204" data-name="Rectangle 27204" width="75.65" height="0.128" fill="none"></rect></clipPath><clipPath id="clip-path-15"><rect id="Rectangle_27210" data-name="Rectangle 27210" width="75.65" height="0.129" fill="none"></rect></clipPath><clipPath id="clip-path-17"><rect id="Rectangle_27216" data-name="Rectangle 27216" width="0.128" height="36.968" fill="none"></rect></clipPath><clipPath id="clip-path-20"><rect id="Rectangle_27223" data-name="Rectangle 27223" width="30.759" height="30.759" fill="none"></rect></clipPath><clipPath id="clip-path-21"><rect id="Rectangle_27224" data-name="Rectangle 27224" width="15.38" height="15.38" fill="none"></rect></clipPath><clipPath id="clip-path-22"><rect id="Rectangle_27225" data-name="Rectangle 27225" width="9.118" height="7.777" fill="none"></rect></clipPath><clipPath id="clip-path-23"><rect id="Rectangle_27226" data-name="Rectangle 27226" width="10.198" height="3.893" fill="none"></rect></clipPath><clipPath id="clip-path-24"><rect id="Rectangle_27228" data-name="Rectangle 27228" width="4.776" height="7.306" fill="none"></rect></clipPath><clipPath id="clip-path-25"><rect id="Rectangle_27230" data-name="Rectangle 27230" width="4.776" height="10.116" fill="none"></rect></clipPath><clipPath id="clip-path-26"><rect id="Rectangle_27232" data-name="Rectangle 27232" width="4.776" height="8.149" fill="none"></rect></clipPath><clipPath id="clip-path-27"><rect id="Rectangle_27234" data-name="Rectangle 27234" width="4.776" height="11.802" fill="none"></rect></clipPath><clipPath id="clip-path-28"><rect id="Rectangle_27236" data-name="Rectangle 27236" width="4.777" height="14.804" fill="none"></rect></clipPath><clipPath id="clip-path-29"><rect id="Rectangle_27238" data-name="Rectangle 27238" width="4.777" height="13.769" fill="none"></rect></clipPath><clipPath id="clip-path-30"><rect id="Rectangle_27240" data-name="Rectangle 27240" width="4.777" height="7.306" fill="none"></rect></clipPath><clipPath id="clip-path-31"><rect id="Rectangle_27242" data-name="Rectangle 27242" width="4.777" height="10.116" fill="none"></rect></clipPath><clipPath id="clip-path-32"><rect id="Rectangle_27244" data-name="Rectangle 27244" width="4.777" height="8.149" fill="none"></rect></clipPath><clipPath id="clip-path-33"><rect id="Rectangle_27246" data-name="Rectangle 27246" width="4.776" height="13.769" fill="none"></rect></clipPath><clipPath id="clip-path-37"><rect id="Rectangle_27253" data-name="Rectangle 27253" width="101.346" height="11.157" fill="none"></rect></clipPath></defs><g id="Group_6924" data-name="Group 6924" clip-path="url(#clip-path)"><g id="Group_6822" data-name="Group 6822"><g id="Group_6821" data-name="Group 6821" clip-path="url(#clip-path)"><g id="Group_6820" data-name="Group 6820" transform="translate(0 298.512)" opacity="0.63"><g id="Group_6819" data-name="Group 6819"><g id="Group_6818" data-name="Group 6818" clip-path="url(#clip-path-3)"><path id="Path_4925" data-name="Path 4925" d="M0,481.392c0-3.235,94.756-5.859,211.643-5.859s211.643,2.623,211.643,5.859-94.755,5.859-211.643,5.859S0,484.627,0,481.392" transform="translate(0 -475.534)" fill="#c7d1e2"></path></g></g></g></g></g><path id="Path_4926" data-name="Path 4926" d="M381.24,447.727l.577,10.68-10.427,1.827-3.356-2.81,1.876-11.5Z" transform="translate(-137.004 -165.998)" fill="#efc3b2"></path><g id="Group_6923" data-name="Group 6923"><g id="Group_6922" data-name="Group 6922" clip-path="url(#clip-path)"><path id="Path_4927" data-name="Path 4927" d="M368.268,460.467a31.608,31.608,0,0,1,.956,6.451v4.608h-30.6c-5.738,0-7.651-.922-6.695-6.451s.957-3.686,10.52-7.372c9.142-3.524,13.388-5.529,13.388-5.529s-.956,3.686,1.913,5.529,9.564,2.765,10.52,2.765" transform="translate(-123.475 -168.325)" fill="#0b1917"></path><path id="Path_4928" data-name="Path 4928" d="M350.091,400.126h22.078L361.834,317.7l-30.141,1.471Z" transform="translate(-123.475 -118.268)" fill="#273749"></path><path id="Path_4929" data-name="Path 4929" d="M61.841,391.007h0c-.949-.195-1.476-1.682-1.173-3.307L83.823,231.946c.3-1.625,7.078-1.616,8.026-1.422s7.226,2.861,6.922,4.485l-34.653,153.4c-.3,1.625-1.329,2.795-2.277,2.6" transform="translate(-22.552 -85.782)" fill="#354665"></path><path id="Path_4930" data-name="Path 4930" d="M163.174,391.007h0c.949-.195,1.476-1.682,1.173-3.307L141.192,231.946c-.3-1.625-7.078-1.616-8.026-1.422s-7.226,2.861-6.922,4.485l34.654,153.4c.3,1.625,1.328,2.795,2.277,2.6" transform="translate(-46.991 -85.782)" fill="#354665"></path><path id="Path_4931" data-name="Path 4931" d="M483.988,391.007h0c-.948-.195-1.476-1.682-3.056-3.307l23.155-155.753c2.187-1.625,8.961-1.616,9.91-1.422s7.226,2.861,6.922,4.485l-34.653,153.4c-.3,1.625-1.329,2.795-2.277,2.6" transform="translate(-179.031 -85.782)" fill="#354665"></path><path id="Path_4932" data-name="Path 4932" d="M583.387,391.007h0c.949-.195,1.477-1.682,1.173-3.307L561.405,231.946c-.3-1.625-7.078-1.616-8.026-1.422s-7.226,2.861-6.922,4.485l34.653,153.4c.3,1.625,1.329,2.795,2.277,2.6" transform="translate(-203.419 -85.782)" fill="#354665"></path><path id="Path_4933" data-name="Path 4933" d="M389.1,230.593H47.064a3.778,3.778,0,0,1-3.766-3.766v-3.967a3.778,3.778,0,0,1,3.766-3.766H389.1a3.778,3.778,0,0,1,3.766,3.766v3.967a3.778,3.778,0,0,1-3.766,3.766" transform="translate(-16.118 -81.559)" fill="#3a4e78"></path><path id="Path_4934" data-name="Path 4934" d="M364.048,325.275,367.882,426.8h2.875V325.275Z" transform="translate(-135.52 -121.086)" fill="#c7592f"></path><path id="Path_4935" data-name="Path 4935" d="M375.069,18.783s0,21.342,2.208,27.229,9.567,7.36,9.567,11.775c0,1.471,15.454,1.471,17.662.736s2.944,0,2.944,0l1.471-11.775S396.411,12.9,395.675,12.9s-20.606,5.888-20.606,5.888" transform="translate(-139.623 -4.8)" fill="#dcada2"></path><rect id="Rectangle_27191" data-name="Rectangle 27191" width="43.248" height="33.884" transform="translate(118.671 103.733)" fill="#bbb"></rect><path id="Path_4936" data-name="Path 4936" d="M249.955,0H99.249a4.78,4.78,0,0,0-4.766,4.766v106.28a4.78,4.78,0,0,0,4.766,4.766H249.955a4.78,4.78,0,0,0,4.766-4.766V4.766A4.78,4.78,0,0,0,249.955,0" transform="translate(-35.172)" fill="#bbb"></path><path id="Path_4937" data-name="Path 4937" d="M99.88,28.034v93.448a4.78,4.78,0,0,0,4.766,4.766H255.352a4.78,4.78,0,0,0,4.765-4.766V28.034Z" transform="translate(-37.181 -10.436)" fill="#dbdbdb"></path><path id="Path_4938" data-name="Path 4938" d="M260.117,97.287V4.766A4.78,4.78,0,0,0,255.351,0H104.645A4.779,4.779,0,0,0,99.88,4.766V97.287Z" transform="translate(-37.181)" fill="#fff"></path><g id="Group_6825" data-name="Group 6825" transform="translate(66.404 3.705)" opacity="0.07"><g id="Group_6824" data-name="Group 6824"><g id="Group_6823" data-name="Group 6823" clip-path="url(#clip-path-5)"><path id="Path_4939" data-name="Path 4939" d="M258.609,99.952V8.918A3.026,3.026,0,0,0,255.592,5.9H108.8a3.025,3.025,0,0,0-3.016,3.017V99.952Z" transform="translate(-105.782 -5.902)" fill="#dce6fc"></path></g></g></g><path id="Path_4940" data-name="Path 4940" d="M286.281,447.727l.578,10.68-10.427,1.827-3.356-2.81,1.876-11.5Z" transform="translate(-101.655 -165.998)" fill="#efc3b2"></path><path id="Path_4941" data-name="Path 4941" d="M273.309,460.467a31.607,31.607,0,0,1,.956,6.451v4.608h-30.6c-5.738,0-7.651-.922-6.695-6.451s.957-3.686,10.52-7.372c9.142-3.524,13.389-5.529,13.389-5.529s-.956,3.686,1.913,5.529,9.564,2.765,10.52,2.765" transform="translate(-88.126 -168.325)" fill="#0b1917"></path><path id="Path_4942" data-name="Path 4942" d="M423.259,153.453c.25-2.163-.424-4.527-.727-6.648-.893-6.25.6-11.987,1.2-18.184a127.81,127.81,0,0,0-.595-28.115c-.144-.361-.279-.725-.427-1.085a4.5,4.5,0,0,1-.168-.493L397.674,89.1l-19.87.736s-19.87,8.095-25.021,10.3,1.471,8.1,0,21.342,0,84.631,0,83.9,68.441-22.813,68.441-22.813V147.236l1.266,9.948a29.507,29.507,0,0,0,.768-3.731" transform="translate(-130.584 -33.167)" fill="#3a4e78"></path><path id="Path_4943" data-name="Path 4943" d="M379.1,265.572s3.419,27.5-19.87,27.5-66.969,4.147-75.064,3.411c-3.278-.3,1.471,80.952,1.471,80.952H263.559s-10.932-87.977-3.679-98.614c11.039-16.19,75.8-22.078,75.8-22.078Z" transform="translate(-95.817 -95.574)" fill="#354665"></path><path id="Path_4944" data-name="Path 4944" d="M460.945,153.141l-.876,27.6s15.426-5.845,18.4-10.3c4.416-6.623-6.463-58.224-8.1-61.082-2.943-5.151-12.51-7.359-12.51-7.359-2.618,2.594,2.413,36.67,3.084,51.148" transform="translate(-170.164 -37.968)" fill="#354665"></path><path id="Path_4945" data-name="Path 4945" d="M335.741,176.31c3.485-20,1.472-60.345-4.729-72.37-1.718.714-3.159,1.317-4.1,1.721-5.151,2.208-8.1,3.68-9.567,16.926s-5.152,37.532-5.888,38.268-27.229,4.416-27.229,4.416l-2.944,11.039s54.445.009,54.458,0" transform="translate(-104.71 -38.693)" fill="#354665"></path><path id="Path_4946" data-name="Path 4946" d="M249.629,212.713h22.078l1.025-10.984s-12.951.02-15.744,1.417c-2.943,1.471-6.623,5.151-7.359,9.567" transform="translate(-92.926 -75.095)" fill="#efc3b2"></path><path id="Path_4947" data-name="Path 4947" d="M413.44,88.387H393.074a1.592,1.592,0,0,1-1.592-1.592V84.827a1.591,1.591,0,0,1,1.592-1.591H413.44a1.592,1.592,0,0,1,1.592,1.591V86.8a1.592,1.592,0,0,1-1.592,1.592" transform="translate(-145.732 -30.985)" fill="#fff"></path><path id="Path_4948" data-name="Path 4948" d="M376.328,37.736s3.68,13.287,19.134,12.587S410.18,35.639,410.18,25.149s-2.944-18.181-10.3-19.58-25.8-.679-28.449-.679c-2.208,0-5.65,1.883-4.667,7.672,1.057,6.233,5.887,2.8,6.623,9.092s2.943,16.083,2.943,16.083" transform="translate(-136.466 -1.752)" fill="#2d3e64"></path><path id="Path_4949" data-name="Path 4949" d="M442.181,325.275l15.556,100.267h-2.875L432.6,325.275Z" transform="translate(-161.038 -121.086)" fill="#c7592f"></path><path id="Path_4950" data-name="Path 4950" d="M312.319,325.275l-23,101.306H287.4l16.292-101.306Z" transform="translate(-106.988 -121.086)" fill="#d46732"></path><path id="Path_4951" data-name="Path 4951" d="M410.581,162.268a2.476,2.476,0,0,1,2.451,2.475v82.6s.959,18.209-12.459,18.209H297.782a2.44,2.44,0,0,1-2.473-2.339v-.057a5.324,5.324,0,0,1,.075-.9,2.435,2.435,0,0,1,2.424-1.97H320.5s9.807,1.512,13.417-14.375c4.178-18.383,8.031-64.3,9.686-79.538a3.982,3.982,0,0,1,3.9-3.556c10.112-.171,54.457-.638,63.083-.539" transform="translate(-109.931 -60.4)" fill="#d46732"></path><g id="Group_6828" data-name="Group 6828" transform="translate(125.735 11.925)" opacity="0.68"><g id="Group_6827" data-name="Group 6827"><g id="Group_6826" data-name="Group 6826" clip-path="url(#clip-path-6)"><path id="Path_4952" data-name="Path 4952" d="M287.646,68.086H201.816a1.522,1.522,0,0,1-1.517-1.517V20.514A1.522,1.522,0,0,1,201.816,19h85.829a1.522,1.522,0,0,1,1.517,1.518V66.569a1.522,1.522,0,0,1-1.517,1.517" transform="translate(-200.298 -18.997)" fill="#f2f2f2"></path></g></g></g><g id="Group_6831" data-name="Group 6831" transform="translate(133.204 26.999)" opacity="0.3"><g id="Group_6830" data-name="Group 6830"><g id="Group_6829" data-name="Group 6829" clip-path="url(#clip-path-7)"><path id="Path_4953" data-name="Path 4953" d="M212.2,56.874c1.027-.513,14.891-5.648,14.891-5.648s14.377,5.135,14.891,5.135S257.9,46.6,257.9,46.6l13.864,4.621,15.918-8.216V71.252H212.2Z" transform="translate(-212.196 -43.01)" fill="#f1662b"></path></g></g></g><path id="Path_4954" data-name="Path 4954" d="M287.6,66.2H211.992V29.1h.257V65.947H287.6Z" transform="translate(-78.916 -10.834)" fill="#f1662b"></path><g id="Group_6834" data-name="Group 6834" transform="translate(147.069 34.188)" opacity="0.93"><g id="Group_6833" data-name="Group 6833"><g id="Group_6832" data-name="Group 6832" clip-path="url(#clip-path-8)"><path id="Path_4955" data-name="Path 4955" d="M234.282,55.489a1.027,1.027,0,1,1,1.027,1.027,1.027,1.027,0,0,1-1.027-1.027" transform="translate(-234.282 -54.462)" fill="#f1662b"></path></g></g></g><g id="Group_6837" data-name="Group 6837" transform="translate(161.96 39.323)" opacity="0.93"><g id="Group_6836" data-name="Group 6836"><g id="Group_6835" data-name="Group 6835" clip-path="url(#clip-path-8)"><path id="Path_4956" data-name="Path 4956" d="M258,63.669a1.027,1.027,0,1,1,1.027,1.027A1.027,1.027,0,0,1,258,63.669" transform="translate(-258.004 -62.642)" fill="#f1662b"></path></g></g></g><g id="Group_6840" data-name="Group 6840" transform="translate(177.878 29.567)" opacity="0.93"><g id="Group_6839" data-name="Group 6839"><g id="Group_6838" data-name="Group 6838" clip-path="url(#clip-path-8)"><path id="Path_4957" data-name="Path 4957" d="M283.362,48.127a1.027,1.027,0,1,1,1.027,1.027,1.027,1.027,0,0,1-1.027-1.027" transform="translate(-283.362 -47.1)" fill="#f1662b"></path></g></g></g><g id="Group_6843" data-name="Group 6843" transform="translate(191.742 34.188)" opacity="0.93"><g id="Group_6842" data-name="Group 6842"><g id="Group_6841" data-name="Group 6841" clip-path="url(#clip-path-8)"><path id="Path_4958" data-name="Path 4958" d="M305.447,55.489a1.027,1.027,0,1,1,1.027,1.027,1.027,1.027,0,0,1-1.027-1.027" transform="translate(-305.447 -54.462)" fill="#f1662b"></path></g></g></g><g id="Group_6846" data-name="Group 6846" transform="translate(143.241 18.27)" opacity="0.52"><g id="Group_6845" data-name="Group 6845"><g id="Group_6844" data-name="Group 6844" clip-path="url(#clip-path-12)"><rect id="Rectangle_27199" data-name="Rectangle 27199" width="0.128" height="0.257" transform="translate(0.001 36.711)" fill="#f1662b"></rect><path id="Path_4959" data-name="Path 4959" d="M228.313,65.758h-.128v-.513h.128Zm0-1.027h-.128v-.513h.128Zm0-1.027h-.128v-.513h.128Zm0-1.026h-.128v-.513h.128Zm0-1.027h-.128v-.513h.128Zm0-1.027h-.128V60.11h.128Zm0-1.027h-.128v-.513h.128Zm0-1.027h-.128v-.513h.128Zm0-1.026h-.128V57.03h.128Zm0-1.027h-.128V56h.128Zm0-1.027h-.128v-.513h.128Zm0-1.027h-.128v-.513h.128Zm0-1.027h-.128v-.513h.128Zm0-1.026h-.128V51.9h.128Zm0-1.027h-.128v-.513h.128Zm0-1.027h-.128v-.513h.128Zm0-1.027h-.128v-.513h.128Zm0-1.027h-.128v-.513h.128Zm0-1.026h-.128v-.513h.128Zm0-1.027h-.128v-.513h.128Zm0-1.027h-.128v-.513h.128Zm0-1.027h-.128v-.513h.128Zm0-1.027h-.128v-.513h.128Zm0-1.026h-.128v-.513h.128Zm0-1.027h-.128V40.6h.128Zm0-1.027h-.128v-.513h.128Zm0-1.027h-.128v-.513h.128Zm0-1.027h-.128V37.52h.128Zm0-1.027h-.128v-.513h.128Zm0-1.027h-.128v-.513h.128Zm0-1.027h-.128v-.513h.128Zm0-1.027h-.128v-.513h.128Zm0-1.027h-.128v-.513h.128Zm0-1.026h-.128v-.513h.128Zm0-1.027h-.128v-.513h.128Z" transform="translate(-228.184 -29.561)" fill="#f1662b"></path><rect id="Rectangle_27200" data-name="Rectangle 27200" width="0.128" height="0.257" transform="translate(0.001)" fill="#f1662b"></rect></g></g></g><g id="Group_6849" data-name="Group 6849" transform="translate(133.037 18.205)" opacity="0.52"><g id="Group_6848" data-name="Group 6848"><g id="Group_6847" data-name="Group 6847" clip-path="url(#clip-path-13)"><rect id="Rectangle_27202" data-name="Rectangle 27202" width="0.257" height="0.128" transform="translate(0)" fill="#f1662b"></rect><path id="Path_4960" data-name="Path 4960" d="M287.267,29.128h-.511V29h.511Zm-1.023,0h-.511V29h.511Zm-1.022,0h-.512V29h.512Zm-1.022,0h-.511V29h.511Zm-1.022,0h-.512V29h.512Zm-1.023,0h-.511V29h.511Zm-1.023,0h-.511V29h.511Zm-1.022,0H279.6V29h.512Zm-1.023,0h-.511V29h.511Zm-1.023,0h-.511V29h.511Zm-1.022,0h-.511V29h.511Zm-1.022,0h-.511V29h.511Zm-1.022,0h-.512V29H275Zm-1.023,0h-.511V29h.511Zm-1.023,0h-.511V29h.511Zm-1.022,0h-.511V29h.511Zm-1.023,0H270.4V29h.511Zm-1.022,0h-.512V29h.512Zm-1.023,0h-.511V29h.511Zm-1.022,0h-.511V29h.511Zm-1.022,0h-.512V29h.512Zm-1.023,0h-.511V29h.511Zm-1.022,0h-.512V29h.512Zm-1.023,0h-.511V29h.511Zm-1.023,0h-.511V29h.511Zm-1.022,0H261.2V29h.512Zm-1.022,0h-.511V29h.511Zm-1.023,0h-.511V29h.511Zm-1.022,0h-.511V29h.511Zm-1.023,0h-.511V29h.511Zm-1.022,0h-.512V29h.512Zm-1.023,0h-.511V29h.511Zm-1.023,0h-.511V29h.511Zm-1.022,0h-.511V29h.511Zm-1.022,0H252V29h.511Zm-1.022,0h-.512V29h.512Zm-1.023,0h-.511V29h.511Zm-1.023,0h-.511V29h.511Zm-1.022,0h-.511V29h.511Zm-1.023,0h-.511V29h.511Zm-1.022,0h-.512V29h.512Zm-1.023,0h-.511V29h.511Zm-1.022,0h-.511V29h.511Zm-1.022,0H242.8V29h.511Zm-1.023,0h-.511V29h.511Zm-1.022,0h-.512V29h.512Zm-1.023,0h-.511V29h.511Zm-1.023,0h-.511V29h.511Zm-1.022,0h-.512V29h.512Zm-1.023,0h-.511V29h.511Zm-1.022,0h-.512V29h.512Zm-1.022,0h-.511V29h.511Zm-1.023,0H233.6V29h.511Zm-1.022,0h-.512V29h.512Zm-1.023,0h-.511V29h.511Zm-1.022,0h-.512V29h.512Zm-1.023,0h-.511V29h.511Zm-1.022,0h-.511V29H229Zm-1.022,0h-.512V29h.512Zm-1.023,0h-.511V29h.511Zm-1.022,0h-.512V29h.512Zm-1.023,0H224.4V29h.511Zm-1.023,0h-.511V29h.511Zm-1.022,0h-.512V29h.512Zm-1.023,0h-.511V29h.511Zm-1.022,0h-.512V29h.512Zm-1.022,0h-.511V29h.511Zm-1.023,0h-.511V29h.511Zm-1.022,0h-.512V29h.512Zm-1.023,0h-.511V29h.511Zm-1.022,0H215.2V29h.512Zm-1.023,0h-.511V29h.511Zm-1.023,0h-.511V29h.511Z" transform="translate(-212.385 -29)" fill="#f1662b"></path><rect id="Rectangle_27203" data-name="Rectangle 27203" width="0.257" height="0.128" transform="translate(75.393)" fill="#f1662b"></rect></g></g></g><g id="Group_6852" data-name="Group 6852" transform="translate(133.037 28.474)" opacity="0.52"><g id="Group_6851" data-name="Group 6851"><g id="Group_6850" data-name="Group 6850" clip-path="url(#clip-path-13)"><rect id="Rectangle_27205" data-name="Rectangle 27205" width="0.257" height="0.128" transform="translate(0 0)" fill="#f1662b"></rect><path id="Path_4961" data-name="Path 4961" d="M287.267,45.488h-.511V45.36h.511Zm-1.023,0h-.511V45.36h.511Zm-1.022,0h-.512V45.36h.512Zm-1.022,0h-.511V45.36h.511Zm-1.022,0h-.512V45.36h.512Zm-1.023,0h-.511V45.36h.511Zm-1.023,0h-.511V45.36h.511Zm-1.022,0H279.6V45.36h.512Zm-1.023,0h-.511V45.36h.511Zm-1.023,0h-.511V45.36h.511Zm-1.022,0h-.511V45.36h.511Zm-1.022,0h-.511V45.36h.511Zm-1.022,0h-.512V45.36H275Zm-1.023,0h-.511V45.36h.511Zm-1.023,0h-.511V45.36h.511Zm-1.022,0h-.511V45.36h.511Zm-1.023,0H270.4V45.36h.511Zm-1.022,0h-.512V45.36h.512Zm-1.023,0h-.511V45.36h.511Zm-1.022,0h-.511V45.36h.511Zm-1.022,0h-.512V45.36h.512Zm-1.023,0h-.511V45.36h.511Zm-1.022,0h-.512V45.36h.512Zm-1.023,0h-.511V45.36h.511Zm-1.023,0h-.511V45.36h.511Zm-1.022,0H261.2V45.36h.512Zm-1.022,0h-.511V45.36h.511Zm-1.023,0h-.511V45.36h.511Zm-1.022,0h-.511V45.36h.511Zm-1.023,0h-.511V45.36h.511Zm-1.022,0h-.512V45.36h.512Zm-1.023,0h-.511V45.36h.511Zm-1.023,0h-.511V45.36h.511Zm-1.022,0h-.511V45.36h.511Zm-1.022,0H252V45.36h.511Zm-1.022,0h-.512V45.36h.512Zm-1.023,0h-.511V45.36h.511Zm-1.023,0h-.511V45.36h.511Zm-1.022,0h-.511V45.36h.511Zm-1.023,0h-.511V45.36h.511Zm-1.022,0h-.512V45.36h.512Zm-1.023,0h-.511V45.36h.511Zm-1.022,0h-.511V45.36h.511Zm-1.022,0H242.8V45.36h.511Zm-1.023,0h-.511V45.36h.511Zm-1.022,0h-.512V45.36h.512Zm-1.023,0h-.511V45.36h.511Zm-1.023,0h-.511V45.36h.511Zm-1.022,0h-.512V45.36h.512Zm-1.023,0h-.511V45.36h.511Zm-1.022,0h-.512V45.36h.512Zm-1.022,0h-.511V45.36h.511Zm-1.023,0H233.6V45.36h.511Zm-1.022,0h-.512V45.36h.512Zm-1.023,0h-.511V45.36h.511Zm-1.022,0h-.512V45.36h.512Zm-1.023,0h-.511V45.36h.511Zm-1.022,0h-.511V45.36H229Zm-1.022,0h-.512V45.36h.512Zm-1.023,0h-.511V45.36h.511Zm-1.022,0h-.512V45.36h.512Zm-1.023,0H224.4V45.36h.511Zm-1.023,0h-.511V45.36h.511Zm-1.022,0h-.512V45.36h.512Zm-1.023,0h-.511V45.36h.511Zm-1.022,0h-.512V45.36h.512Zm-1.022,0h-.511V45.36h.511Zm-1.023,0h-.511V45.36h.511Zm-1.022,0h-.512V45.36h.512Zm-1.023,0h-.511V45.36h.511Zm-1.022,0H215.2V45.36h.512Zm-1.023,0h-.511V45.36h.511Zm-1.023,0h-.511V45.36h.511Z" transform="translate(-212.385 -45.36)" fill="#f1662b"></path><rect id="Rectangle_27206" data-name="Rectangle 27206" width="0.257" height="0.128" transform="translate(75.393 0)" fill="#f1662b"></rect></g></g></g><g id="Group_6855" data-name="Group 6855" transform="translate(133.037 38.744)" opacity="0.52"><g id="Group_6854" data-name="Group 6854"><g id="Group_6853" data-name="Group 6853" clip-path="url(#clip-path-15)"><rect id="Rectangle_27208" data-name="Rectangle 27208" width="0.257" height="0.128" transform="translate(0 0.001)" fill="#f1662b"></rect><path id="Path_4962" data-name="Path 4962" d="M287.267,61.848h-.511V61.72h.511Zm-1.023,0h-.511V61.72h.511Zm-1.022,0h-.512V61.72h.512Zm-1.022,0h-.511V61.72h.511Zm-1.022,0h-.512V61.72h.512Zm-1.023,0h-.511V61.72h.511Zm-1.023,0h-.511V61.72h.511Zm-1.022,0H279.6V61.72h.512Zm-1.023,0h-.511V61.72h.511Zm-1.023,0h-.511V61.72h.511Zm-1.022,0h-.511V61.72h.511Zm-1.022,0h-.511V61.72h.511Zm-1.022,0h-.512V61.72H275Zm-1.023,0h-.511V61.72h.511Zm-1.023,0h-.511V61.72h.511Zm-1.022,0h-.511V61.72h.511Zm-1.023,0H270.4V61.72h.511Zm-1.022,0h-.512V61.72h.512Zm-1.023,0h-.511V61.72h.511Zm-1.022,0h-.511V61.72h.511Zm-1.022,0h-.512V61.72h.512Zm-1.023,0h-.511V61.72h.511Zm-1.022,0h-.512V61.72h.512Zm-1.023,0h-.511V61.72h.511Zm-1.023,0h-.511V61.72h.511Zm-1.022,0H261.2V61.72h.512Zm-1.022,0h-.511V61.72h.511Zm-1.023,0h-.511V61.72h.511Zm-1.022,0h-.511V61.72h.511Zm-1.023,0h-.511V61.72h.511Zm-1.022,0h-.512V61.72h.512Zm-1.023,0h-.511V61.72h.511Zm-1.023,0h-.511V61.72h.511Zm-1.022,0h-.511V61.72h.511Zm-1.022,0H252V61.72h.511Zm-1.022,0h-.512V61.72h.512Zm-1.023,0h-.511V61.72h.511Zm-1.023,0h-.511V61.72h.511Zm-1.022,0h-.511V61.72h.511Zm-1.023,0h-.511V61.72h.511Zm-1.022,0h-.512V61.72h.512Zm-1.023,0h-.511V61.72h.511Zm-1.022,0h-.511V61.72h.511Zm-1.022,0H242.8V61.72h.511Zm-1.023,0h-.511V61.72h.511Zm-1.022,0h-.512V61.72h.512Zm-1.023,0h-.511V61.72h.511Zm-1.023,0h-.511V61.72h.511Zm-1.022,0h-.512V61.72h.512Zm-1.023,0h-.511V61.72h.511Zm-1.022,0h-.512V61.72h.512Zm-1.022,0h-.511V61.72h.511Zm-1.023,0H233.6V61.72h.511Zm-1.022,0h-.512V61.72h.512Zm-1.023,0h-.511V61.72h.511Zm-1.022,0h-.512V61.72h.512Zm-1.023,0h-.511V61.72h.511Zm-1.022,0h-.511V61.72H229Zm-1.022,0h-.512V61.72h.512Zm-1.023,0h-.511V61.72h.511Zm-1.022,0h-.512V61.72h.512Zm-1.023,0H224.4V61.72h.511Zm-1.023,0h-.511V61.72h.511Zm-1.022,0h-.512V61.72h.512Zm-1.023,0h-.511V61.72h.511Zm-1.022,0h-.512V61.72h.512Zm-1.022,0h-.511V61.72h.511Zm-1.023,0h-.511V61.72h.511Zm-1.022,0h-.512V61.72h.512Zm-1.023,0h-.511V61.72h.511Zm-1.022,0H215.2V61.72h.512Zm-1.023,0h-.511V61.72h.511Zm-1.023,0h-.511V61.72h.511Z" transform="translate(-212.385 -61.719)" fill="#f1662b"></path><rect id="Rectangle_27209" data-name="Rectangle 27209" width="0.257" height="0.128" transform="translate(75.393 0.001)" fill="#f1662b"></rect></g></g></g><g id="Group_6858" data-name="Group 6858" transform="translate(133.037 49.013)" opacity="0.52"><g id="Group_6857" data-name="Group 6857"><g id="Group_6856" data-name="Group 6856" clip-path="url(#clip-path-15)"><rect id="Rectangle_27211" data-name="Rectangle 27211" width="0.257" height="0.128" transform="translate(0 0.001)" fill="#f1662b"></rect><path id="Path_4963" data-name="Path 4963" d="M287.267,78.208h-.511V78.08h.511Zm-1.023,0h-.511V78.08h.511Zm-1.022,0h-.512V78.08h.512Zm-1.022,0h-.511V78.08h.511Zm-1.022,0h-.512V78.08h.512Zm-1.023,0h-.511V78.08h.511Zm-1.023,0h-.511V78.08h.511Zm-1.022,0H279.6V78.08h.512Zm-1.023,0h-.511V78.08h.511Zm-1.023,0h-.511V78.08h.511Zm-1.022,0h-.511V78.08h.511Zm-1.022,0h-.511V78.08h.511Zm-1.022,0h-.512V78.08H275Zm-1.023,0h-.511V78.08h.511Zm-1.023,0h-.511V78.08h.511Zm-1.022,0h-.511V78.08h.511Zm-1.023,0H270.4V78.08h.511Zm-1.022,0h-.512V78.08h.512Zm-1.023,0h-.511V78.08h.511Zm-1.022,0h-.511V78.08h.511Zm-1.022,0h-.512V78.08h.512Zm-1.023,0h-.511V78.08h.511Zm-1.022,0h-.512V78.08h.512Zm-1.023,0h-.511V78.08h.511Zm-1.023,0h-.511V78.08h.511Zm-1.022,0H261.2V78.08h.512Zm-1.022,0h-.511V78.08h.511Zm-1.023,0h-.511V78.08h.511Zm-1.022,0h-.511V78.08h.511Zm-1.023,0h-.511V78.08h.511Zm-1.022,0h-.512V78.08h.512Zm-1.023,0h-.511V78.08h.511Zm-1.023,0h-.511V78.08h.511Zm-1.022,0h-.511V78.08h.511Zm-1.022,0H252V78.08h.511Zm-1.022,0h-.512V78.08h.512Zm-1.023,0h-.511V78.08h.511Zm-1.023,0h-.511V78.08h.511Zm-1.022,0h-.511V78.08h.511Zm-1.023,0h-.511V78.08h.511Zm-1.022,0h-.512V78.08h.512Zm-1.023,0h-.511V78.08h.511Zm-1.022,0h-.511V78.08h.511Zm-1.022,0H242.8V78.08h.511Zm-1.023,0h-.511V78.08h.511Zm-1.022,0h-.512V78.08h.512Zm-1.023,0h-.511V78.08h.511Zm-1.023,0h-.511V78.08h.511Zm-1.022,0h-.512V78.08h.512Zm-1.023,0h-.511V78.08h.511Zm-1.022,0h-.512V78.08h.512Zm-1.022,0h-.511V78.08h.511Zm-1.023,0H233.6V78.08h.511Zm-1.022,0h-.512V78.08h.512Zm-1.023,0h-.511V78.08h.511Zm-1.022,0h-.512V78.08h.512Zm-1.023,0h-.511V78.08h.511Zm-1.022,0h-.511V78.08H229Zm-1.022,0h-.512V78.08h.512Zm-1.023,0h-.511V78.08h.511Zm-1.022,0h-.512V78.08h.512Zm-1.023,0H224.4V78.08h.511Zm-1.023,0h-.511V78.08h.511Zm-1.022,0h-.512V78.08h.512Zm-1.023,0h-.511V78.08h.511Zm-1.022,0h-.512V78.08h.512Zm-1.022,0h-.511V78.08h.511Zm-1.023,0h-.511V78.08h.511Zm-1.022,0h-.512V78.08h.512Zm-1.023,0h-.511V78.08h.511Zm-1.022,0H215.2V78.08h.512Zm-1.023,0h-.511V78.08h.511Zm-1.023,0h-.511V78.08h.511Z" transform="translate(-212.385 -78.079)" fill="#f1662b"></path><rect id="Rectangle_27212" data-name="Rectangle 27212" width="0.257" height="0.128" transform="translate(75.393 0.001)" fill="#f1662b"></rect></g></g></g><g id="Group_6861" data-name="Group 6861" transform="translate(163.78 18.27)" opacity="0.52"><g id="Group_6860" data-name="Group 6860"><g id="Group_6859" data-name="Group 6859" clip-path="url(#clip-path-17)"><rect id="Rectangle_27214" data-name="Rectangle 27214" width="0.128" height="0.257" transform="translate(0 36.711)" fill="#f1662b"></rect><path id="Path_4964" data-name="Path 4964" d="M261.032,65.758H260.9v-.513h.128Zm0-1.027H260.9v-.513h.128Zm0-1.027H260.9v-.513h.128Zm0-1.026H260.9v-.513h.128Zm0-1.027H260.9v-.513h.128Zm0-1.027H260.9V60.11h.128Zm0-1.027H260.9v-.513h.128Zm0-1.027H260.9v-.513h.128Zm0-1.026H260.9V57.03h.128Zm0-1.027H260.9V56h.128Zm0-1.027H260.9v-.513h.128Zm0-1.027H260.9v-.513h.128Zm0-1.027H260.9v-.513h.128Zm0-1.026H260.9V51.9h.128Zm0-1.027H260.9v-.513h.128Zm0-1.027H260.9v-.513h.128Zm0-1.027H260.9v-.513h.128Zm0-1.027H260.9v-.513h.128Zm0-1.026H260.9v-.513h.128Zm0-1.027H260.9v-.513h.128Zm0-1.027H260.9v-.513h.128Zm0-1.027H260.9v-.513h.128Zm0-1.027H260.9v-.513h.128Zm0-1.026H260.9v-.513h.128Zm0-1.027H260.9V40.6h.128Zm0-1.027H260.9v-.513h.128Zm0-1.027H260.9v-.513h.128Zm0-1.027H260.9V37.52h.128Zm0-1.027H260.9v-.513h.128Zm0-1.027H260.9v-.513h.128Zm0-1.027H260.9v-.513h.128Zm0-1.027H260.9v-.513h.128Zm0-1.027H260.9v-.513h.128Zm0-1.026H260.9v-.513h.128Zm0-1.027H260.9v-.513h.128Z" transform="translate(-260.904 -29.561)" fill="#f1662b"></path><rect id="Rectangle_27215" data-name="Rectangle 27215" width="0.128" height="0.257" fill="#f1662b"></rect></g></g></g><g id="Group_6864" data-name="Group 6864" transform="translate(184.319 18.27)" opacity="0.52"><g id="Group_6863" data-name="Group 6863"><g id="Group_6862" data-name="Group 6862" clip-path="url(#clip-path-12)"><rect id="Rectangle_27217" data-name="Rectangle 27217" width="0.128" height="0.257" transform="translate(0.001 36.711)" fill="#f1662b"></rect><path id="Path_4965" data-name="Path 4965" d="M293.752,65.758h-.128v-.513h.128Zm0-1.027h-.128v-.513h.128Zm0-1.027h-.128v-.513h.128Zm0-1.026h-.128v-.513h.128Zm0-1.027h-.128v-.513h.128Zm0-1.027h-.128V60.11h.128Zm0-1.027h-.128v-.513h.128Zm0-1.027h-.128v-.513h.128Zm0-1.026h-.128V57.03h.128Zm0-1.027h-.128V56h.128Zm0-1.027h-.128v-.513h.128Zm0-1.027h-.128v-.513h.128Zm0-1.027h-.128v-.513h.128Zm0-1.026h-.128V51.9h.128Zm0-1.027h-.128v-.513h.128Zm0-1.027h-.128v-.513h.128Zm0-1.027h-.128v-.513h.128Zm0-1.027h-.128v-.513h.128Zm0-1.026h-.128v-.513h.128Zm0-1.027h-.128v-.513h.128Zm0-1.027h-.128v-.513h.128Zm0-1.027h-.128v-.513h.128Zm0-1.027h-.128v-.513h.128Zm0-1.026h-.128v-.513h.128Zm0-1.027h-.128V40.6h.128Zm0-1.027h-.128v-.513h.128Zm0-1.027h-.128v-.513h.128Zm0-1.027h-.128V37.52h.128Zm0-1.027h-.128v-.513h.128Zm0-1.027h-.128v-.513h.128Zm0-1.027h-.128v-.513h.128Zm0-1.027h-.128v-.513h.128Zm0-1.027h-.128v-.513h.128Zm0-1.026h-.128v-.513h.128Zm0-1.027h-.128v-.513h.128Z" transform="translate(-293.623 -29.561)" fill="#f1662b"></path><rect id="Rectangle_27218" data-name="Rectangle 27218" width="0.128" height="0.257" transform="translate(0.001)" fill="#f1662b"></rect></g></g></g><g id="Group_6867" data-name="Group 6867" transform="translate(204.859 18.27)" opacity="0.52"><g id="Group_6866" data-name="Group 6866"><g id="Group_6865" data-name="Group 6865" clip-path="url(#clip-path-17)"><rect id="Rectangle_27220" data-name="Rectangle 27220" width="0.128" height="0.257" transform="translate(0 36.711)" fill="#f1662b"></rect><path id="Path_4966" data-name="Path 4966" d="M326.471,65.758h-.128v-.513h.128Zm0-1.027h-.128v-.513h.128Zm0-1.027h-.128v-.513h.128Zm0-1.026h-.128v-.513h.128Zm0-1.027h-.128v-.513h.128Zm0-1.027h-.128V60.11h.128Zm0-1.027h-.128v-.513h.128Zm0-1.027h-.128v-.513h.128Zm0-1.026h-.128V57.03h.128Zm0-1.027h-.128V56h.128Zm0-1.027h-.128v-.513h.128Zm0-1.027h-.128v-.513h.128Zm0-1.027h-.128v-.513h.128Zm0-1.026h-.128V51.9h.128Zm0-1.027h-.128v-.513h.128Zm0-1.027h-.128v-.513h.128Zm0-1.027h-.128v-.513h.128Zm0-1.027h-.128v-.513h.128Zm0-1.026h-.128v-.513h.128Zm0-1.027h-.128v-.513h.128Zm0-1.027h-.128v-.513h.128Zm0-1.027h-.128v-.513h.128Zm0-1.027h-.128v-.513h.128Zm0-1.026h-.128v-.513h.128Zm0-1.027h-.128V40.6h.128Zm0-1.027h-.128v-.513h.128Zm0-1.027h-.128v-.513h.128Zm0-1.027h-.128V37.52h.128Zm0-1.027h-.128v-.513h.128Zm0-1.027h-.128v-.513h.128Zm0-1.027h-.128v-.513h.128Zm0-1.027h-.128v-.513h.128Zm0-1.027h-.128v-.513h.128Zm0-1.026h-.128v-.513h.128Zm0-1.027h-.128v-.513h.128Z" transform="translate(-326.343 -29.561)" fill="#f1662b"></path><rect id="Rectangle_27221" data-name="Rectangle 27221" width="0.128" height="0.257" fill="#f1662b"></rect></g></g></g><g id="Group_6870" data-name="Group 6870" transform="translate(81.166 30.132)" opacity="0.3"><g id="Group_6869" data-name="Group 6869"><g id="Group_6868" data-name="Group 6868" clip-path="url(#clip-path-20)"><path id="Path_4967" data-name="Path 4967" d="M144.678,48a15.38,15.38,0,1,0,15.38,15.38A15.38,15.38,0,0,0,144.678,48m0,24.758a9.378,9.378,0,1,1,9.378-9.378,9.378,9.378,0,0,1-9.378,9.378" transform="translate(-129.298 -48)" fill="#0e2c51"></path></g></g></g><g id="Group_6873" data-name="Group 6873" transform="translate(96.545 30.132)" opacity="0.3"><g id="Group_6872" data-name="Group 6872"><g id="Group_6871" data-name="Group 6871" clip-path="url(#clip-path-21)"><path id="Path_4968" data-name="Path 4968" d="M153.8,48v6a9.377,9.377,0,0,1,9.378,9.378h6A15.38,15.38,0,0,0,153.8,48" transform="translate(-153.798 -48)" fill="#bbb"></path></g></g></g><g id="Group_6876" data-name="Group 6876" transform="translate(96.545 30.132)" opacity="0.93"><g id="Group_6875" data-name="Group 6875"><g id="Group_6874" data-name="Group 6874" clip-path="url(#clip-path-22)"><path id="Path_4969" data-name="Path 4969" d="M159.286,55.777,162.916,51a15.306,15.306,0,0,0-9.118-3v6a9.334,9.334,0,0,1,5.488,1.775" transform="translate(-153.798 -48)" fill="#0e2c51"></path></g></g></g><g id="Group_6879" data-name="Group 6879" transform="translate(91.531 43.634)" opacity="0.93"><g id="Group_6878" data-name="Group 6878"><g id="Group_6877" data-name="Group 6877" clip-path="url(#clip-path-23)"><path id="Path_4970" data-name="Path 4970" d="M145.81,70.687V70.18a3.27,3.27,0,0,0,.493-.046.7.7,0,0,0,.365-.2.659.659,0,0,0,.147-.272.631.631,0,0,0,.028-.153h.623V73.3H146.7V70.687Z" transform="translate(-145.81 -69.51)" fill="#0e2c51"></path><path id="Path_4971" data-name="Path 4971" d="M150.932,72.317a.723.723,0,0,0,.17.376.482.482,0,0,0,.365.132.491.491,0,0,0,.421-.2.8.8,0,0,0,.146-.49.849.849,0,0,0-.136-.49.474.474,0,0,0-.422-.2.734.734,0,0,0-.235.034.467.467,0,0,0-.263.233l-.669-.031.267-2.1h2.087v.633h-1.549l-.136.829a1.563,1.563,0,0,1,.269-.149,1.156,1.156,0,0,1,.395-.06,1.144,1.144,0,0,1,1.17,1.237,1.444,1.444,0,0,1-.337.939,1.224,1.224,0,0,1-1.008.413,1.339,1.339,0,0,1-.889-.29,1.128,1.128,0,0,1-.387-.824Z" transform="translate(-147.44 -69.539)" fill="#0e2c51"></path><path id="Path_4972" data-name="Path 4972" d="M156.569,71.189a.974.974,0,1,1,.284-.687.936.936,0,0,1-.284.687m-.395-.394a.415.415,0,1,0-.294.122.4.4,0,0,0,.294-.122m1.832-1.286h.4L156.29,73.4h-.406Zm1.1,3.584a.973.973,0,1,1,.285-.688.938.938,0,0,1-.285.688m-.394-.982a.416.416,0,1,0,.122.294.4.4,0,0,0-.122-.294" transform="translate(-149.196 -69.51)" fill="#0e2c51"></path></g></g></g><g id="Group_6882" data-name="Group 6882" transform="translate(91.007 82.775)" opacity="0.3"><g id="Group_6881" data-name="Group 6881"><g id="Group_6880" data-name="Group 6880" clip-path="url(#clip-path-24)"><rect id="Rectangle_27227" data-name="Rectangle 27227" width="4.777" height="7.306" transform="translate(-0.001 0.001)" fill="#0e2c51"></rect></g></g></g><g id="Group_6885" data-name="Group 6885" transform="translate(98.594 79.965)" opacity="0.3"><g id="Group_6884" data-name="Group 6884"><g id="Group_6883" data-name="Group 6883" clip-path="url(#clip-path-25)"><rect id="Rectangle_27229" data-name="Rectangle 27229" width="4.777" height="10.116" transform="translate(-0.001)" fill="#0e2c51"></rect></g></g></g><g id="Group_6888" data-name="Group 6888" transform="translate(114.33 81.932)" opacity="0.3"><g id="Group_6887" data-name="Group 6887"><g id="Group_6886" data-name="Group 6886" clip-path="url(#clip-path-26)"><rect id="Rectangle_27231" data-name="Rectangle 27231" width="4.777" height="8.149" transform="translate(-0.001)" fill="#0e2c51"></rect></g></g></g><g id="Group_6891" data-name="Group 6891" transform="translate(121.917 78.279)" opacity="0.3"><g id="Group_6890" data-name="Group 6890"><g id="Group_6889" data-name="Group 6889" clip-path="url(#clip-path-27)"><rect id="Rectangle_27233" data-name="Rectangle 27233" width="4.777" height="11.802" transform="translate(-0.001 0.001)" fill="#0e2c51"></rect></g></g></g><g id="Group_6894" data-name="Group 6894" transform="translate(129.503 75.277)" opacity="0.3"><g id="Group_6893" data-name="Group 6893"><g id="Group_6892" data-name="Group 6892" clip-path="url(#clip-path-28)"><rect id="Rectangle_27235" data-name="Rectangle 27235" width="4.777" height="14.803" transform="translate(0 0.001)" fill="#0e2c51"></rect></g></g></g><g id="Group_6897" data-name="Group 6897" transform="translate(106.462 76.312)" opacity="0.3"><g id="Group_6896" data-name="Group 6896"><g id="Group_6895" data-name="Group 6895" clip-path="url(#clip-path-29)"><rect id="Rectangle_27237" data-name="Rectangle 27237" width="4.777" height="13.769" fill="#0e2c51"></rect></g></g></g><g id="Group_6900" data-name="Group 6900" transform="translate(137.611 82.775)" opacity="0.3"><g id="Group_6899" data-name="Group 6899"><g id="Group_6898" data-name="Group 6898" clip-path="url(#clip-path-30)"><rect id="Rectangle_27239" data-name="Rectangle 27239" width="4.777" height="7.306" transform="translate(0 0.001)" fill="#0e2c51"></rect></g></g></g><g id="Group_6903" data-name="Group 6903" transform="translate(145.198 79.965)" opacity="0.3"><g id="Group_6902" data-name="Group 6902"><g id="Group_6901" data-name="Group 6901" clip-path="url(#clip-path-31)"><rect id="Rectangle_27241" data-name="Rectangle 27241" width="4.777" height="10.116" fill="#0e2c51"></rect></g></g></g><g id="Group_6906" data-name="Group 6906" transform="translate(160.934 81.932)" opacity="0.3"><g id="Group_6905" data-name="Group 6905"><g id="Group_6904" data-name="Group 6904" clip-path="url(#clip-path-32)"><rect id="Rectangle_27243" data-name="Rectangle 27243" width="4.777" height="8.149" transform="translate(0)" fill="#0e2c51"></rect></g></g></g><g id="Group_6909" data-name="Group 6909" transform="translate(153.066 76.312)" opacity="0.3"><g id="Group_6908" data-name="Group 6908"><g id="Group_6907" data-name="Group 6907" clip-path="url(#clip-path-33)"><rect id="Rectangle_27245" data-name="Rectangle 27245" width="4.777" height="13.769" transform="translate(-0.001)" fill="#0e2c51"></rect></g></g></g><g id="Group_6912" data-name="Group 6912" transform="translate(168.315 82.775)" opacity="0.3"><g id="Group_6911" data-name="Group 6911"><g id="Group_6910" data-name="Group 6910" clip-path="url(#clip-path-30)"><rect id="Rectangle_27247" data-name="Rectangle 27247" width="4.777" height="7.306" transform="translate(0 0.001)" fill="#0e2c51"></rect></g></g></g><g id="Group_6915" data-name="Group 6915" transform="translate(175.901 79.965)" opacity="0.3"><g id="Group_6914" data-name="Group 6914"><g id="Group_6913" data-name="Group 6913" clip-path="url(#clip-path-31)"><rect id="Rectangle_27249" data-name="Rectangle 27249" width="4.777" height="10.116" fill="#0e2c51"></rect></g></g></g><g id="Group_6918" data-name="Group 6918" transform="translate(183.77 76.312)" opacity="0.3"><g id="Group_6917" data-name="Group 6917"><g id="Group_6916" data-name="Group 6916" clip-path="url(#clip-path-29)"><rect id="Rectangle_27251" data-name="Rectangle 27251" width="4.777" height="13.769" fill="#0e2c51"></rect></g></g></g><g id="Group_6921" data-name="Group 6921" transform="translate(90.905 67.577)" opacity="0.36"><g id="Group_6920" data-name="Group 6920"><g id="Group_6919" data-name="Group 6919" clip-path="url(#clip-path-37)"><path id="Path_4973" data-name="Path 4973" d="M145.017,118.808l-.2-.424,15.23-7.333,14.36,1.126,13.617-2.917.089.077,8.112,7.03,12.59-5.473.107.068,10.864,7.061,26.2-10.372.173.438-26.43,10.462-10.962-7.125-12.63,5.492-8.248-7.147-13.454,2.881-.034,0-14.267-1.119Z" transform="translate(-144.813 -107.651)" fill="#0e2c51"></path></g></g></g><path id="Path_4974" data-name="Path 4974" d="M129.4,25.91a.3.3,0,0,1-.293-.283V20.034a.39.39,0,0,0-.375-.413h-1.445a.309.309,0,0,1-.274-.3.3.3,0,0,1,.274-.292h4.187a.281.281,0,0,1,.283.292.288.288,0,0,1-.283.3h-1.8v6.007a.3.3,0,0,1-.274.283" transform="translate(-47.282 -7.083)" fill="#233152"></path><path id="Path_4975" data-name="Path 4975" d="M136.716,25.916a.284.284,0,0,1-.283-.283V19.323a.29.29,0,0,1,.283-.283h3.593a.291.291,0,0,1,.284.283.3.3,0,0,1-.284.3h-2.866a.423.423,0,0,0-.434.464v1.7h2.951a.3.3,0,0,1,0,.594h-2.951v3.252a.292.292,0,0,1-.293.283" transform="translate(-50.788 -7.088)" fill="#233152"></path><path id="Path_4976" data-name="Path 4976" d="M149.7,25.438l-1.65-2.544a.848.848,0,0,1-.106-.44.994.994,0,0,1,.15-.523l1.609-2.478a.3.3,0,0,0-.07-.385.288.288,0,0,0-.429.1l-1.787,2.755-1.788-2.755a.29.29,0,0,0-.418-.1.3.3,0,0,0-.08.4l1.942,2.989-1.94,2.991a.311.311,0,0,0,.071.411.3.3,0,0,0,.406-.094l1.807-2.781,1.807,2.781a.308.308,0,0,0,.4.094.314.314,0,0,0,.072-.411" transform="translate(-54.01 -7.076)" fill="#233152"></path><path id="Path_4977" data-name="Path 4977" d="M122.751,25.919a.288.288,0,0,1-.254-.173l-2.114-5.013a.322.322,0,0,0-.268-.175.372.372,0,0,0-.311.238l-2.073,4.953a.291.291,0,0,1-.378.141.279.279,0,0,1-.158-.36l2.662-6.313a.272.272,0,0,1,.262-.181.3.3,0,0,1,.27.2l2.634,6.293a.266.266,0,0,1,0,.218.285.285,0,0,1-.143.144.342.342,0,0,1-.129.03" transform="translate(-43.621 -7.087)" fill="#233152"></path><path id="Path_4978" data-name="Path 4978" d="M117.363,26.158a.317.317,0,0,1,0-.634h3.972l.268.634Z" transform="translate(-43.571 -9.502)" fill="#d56833"></path></g></g></g></svg>