<svg xmlns="http://www.w3.org/2000/svg" xmlns:xlink="http://www.w3.org/1999/xlink" width="372.064" height="310.442" viewBox="0 0 372.064 310.442"><defs><clipPath id="clip-path"><rect id="Rectangle_26708" data-name="Rectangle 26708" width="348.093" height="310.442" fill="none"></rect></clipPath><clipPath id="clip-path-3"><rect id="Rectangle_26703" data-name="Rectangle 26703" width="348.093" height="14.626" fill="none"></rect></clipPath><clipPath id="clip-path-4"><rect id="Rectangle_26704" data-name="Rectangle 26704" width="209.204" height="53.043" fill="none"></rect></clipPath><clipPath id="clip-path-5"><rect id="Rectangle_26705" data-name="Rectangle 26705" width="172.71" height="43.364" fill="none"></rect></clipPath><clipPath id="clip-path-6"><rect id="Rectangle_26706" data-name="Rectangle 26706" width="209.204" height="53.044" fill="none"></rect></clipPath></defs><g id="Group_6970" data-name="Group 6970" transform="translate(-195.936 -1945.68)"><g id="Group_6969" data-name="Group 6969"><g id="Group_5387" data-name="Group 5387" transform="translate(195.936 1994.595)"><g id="Group_5386" data-name="Group 5386"><g id="Group_5385" data-name="Group 5385"><path id="Path_4177" data-name="Path 4177" d="M2656.249,2263.1h-254.5c-13.32,0-24.118-12.262-24.118-27.388l26.556-206.75c0-15.126,10.8-27.389,24.118-27.389h254.5c13.32,0,24.118,12.262,24.118,27.389l-26.557,206.75C2680.367,2250.838,2669.569,2263.1,2656.249,2263.1Z" transform="translate(-2377.63 -2022.573)" fill="#efefef"></path></g></g></g><g id="Group_6772" data-name="Group 6772" transform="translate(219.907 1945.68)"><g id="Group_6771" data-name="Group 6771" clip-path="url(#clip-path)"><g id="Group_6770" data-name="Group 6770"><g id="Group_6769" data-name="Group 6769" clip-path="url(#clip-path)"><g id="Group_6759" data-name="Group 6759" transform="translate(0 295.816)" opacity="0.63"><g id="Group_6758" data-name="Group 6758"><g id="Group_6757" data-name="Group 6757" clip-path="url(#clip-path-3)"><path id="Path_4661" data-name="Path 4661" d="M0,609.549c0-4.039,77.923-7.313,174.046-7.313s174.046,3.274,174.046,7.313-77.923,7.313-174.046,7.313S0,613.588,0,609.549" transform="translate(0 -602.236)" fill="#c7d1e2"></path></g></g></g><g id="Group_6762" data-name="Group 6762" transform="translate(40.864 247.469)" opacity="0.3"><g id="Group_6761" data-name="Group 6761"><g id="Group_6760" data-name="Group 6760" clip-path="url(#clip-path-4)"><path id="Path_4662" data-name="Path 4662" d="M292.4,556.852H83.193s5.517-13.41,5.517-26.3c0-13.845-5.517-26.745-5.517-26.745H292.4Z" transform="translate(-83.193 -503.808)" fill="#bbb"></path></g></g></g><path id="Path_4663" data-name="Path 4663" d="M531.562,616.1h.424c-.049,0-.1-.011-.146-.014-.092.009-.184.014-.278.014" transform="translate(-270.461 -313.468)" fill="#354665"></path><path id="Path_4664" data-name="Path 4664" d="M559.285,498.417a2.95,2.95,0,0,0-1.852-.655H530.7a2.952,2.952,0,0,1,1.853.655c3.979,1.77,7.058,13.906,7.058,28.625,0,15.937-3.61,28.856-8.062,28.856h26.309c.094,0,.187-.005.278-.014.049,0,.1.014.146.014,4.453,0,8.063-12.919,8.063-28.856,0-14.719-3.08-26.855-7.059-28.625" transform="translate(-270.021 -253.263)" fill="#354665"></path><path id="Path_4665" data-name="Path 4665" d="M276.15,521.042H77.555a1.273,1.273,0,1,1,0-2.546h198.6a1.273,1.273,0,0,1,0,2.546" transform="translate(-38.812 -263.813)" fill="#fff"></path><path id="Path_4666" data-name="Path 4666" d="M279.606,535.728H81.01a1.273,1.273,0,1,1,0-2.546h198.6a1.273,1.273,0,1,1,0,2.546" transform="translate(-40.571 -271.285)" fill="#fff"></path><path id="Path_4667" data-name="Path 4667" d="M281.334,551.278H82.738a1.273,1.273,0,1,1,0-2.546h198.6a1.273,1.273,0,1,1,0,2.546" transform="translate(-41.45 -279.197)" fill="#fff"></path><path id="Path_4668" data-name="Path 4668" d="M281.334,565.965H82.738a1.273,1.273,0,1,1,0-2.546h198.6a1.273,1.273,0,1,1,0,2.546" transform="translate(-41.45 -286.67)" fill="#fff"></path><path id="Path_4669" data-name="Path 4669" d="M279.606,580.651H81.01a1.273,1.273,0,1,1,0-2.546h198.6a1.273,1.273,0,1,1,0,2.546" transform="translate(-40.571 -294.142)" fill="#fff"></path><path id="Path_4670" data-name="Path 4670" d="M276.15,595.338H77.555a1.273,1.273,0,1,1,0-2.546h198.6a1.273,1.273,0,0,1,0,2.546" transform="translate(-38.812 -301.615)" fill="#fff"></path><path id="Path_4671" data-name="Path 4671" d="M351.232,498.417a2.95,2.95,0,0,0-1.852-.655H68.885a2.97,2.97,0,1,0,0,5.941H265c2.015,5.244,3.326,13.741,3.326,23.339,0,9.345-1.243,17.643-3.167,22.915H69.31a2.97,2.97,0,1,0,0,5.941H349.8c.094,0,.187-.005.278-.014.049,0,.1.014.146.014,4.453,0,8.063-12.919,8.063-28.856,0-14.719-3.08-26.855-7.059-28.625" transform="translate(-33.538 -253.263)" fill="#3a4e78"></path><path id="Path_4672" data-name="Path 4672" d="M530.7,616.1h.424c-.049,0-.1-.011-.146-.014-.092.009-.184.014-.278.014" transform="translate(-270.021 -313.468)" fill="#354665"></path><path id="Path_4673" data-name="Path 4673" d="M558.421,498.417a2.95,2.95,0,0,0-1.852-.655H529.834a2.952,2.952,0,0,1,1.853.655c3.979,1.77,7.058,13.906,7.058,28.625,0,15.937-3.61,28.856-8.062,28.856h26.309c.094,0,.187-.005.278-.014.049,0,.1.014.146.014,4.453,0,8.063-12.919,8.063-28.856,0-14.719-3.08-26.855-7.059-28.625" transform="translate(-269.582 -253.263)" fill="#354665"></path><g id="Group_6765" data-name="Group 6765" transform="translate(60.809 141.263)" opacity="0.3"><g id="Group_6764" data-name="Group 6764"><g id="Group_6763" data-name="Group 6763" clip-path="url(#clip-path-5)"><path id="Path_4674" data-name="Path 4674" d="M296.507,330.955H123.8a56.254,56.254,0,0,0,4.243-21.649c0-13.366-4.243-21.716-4.243-21.716h172.71Z" transform="translate(-123.797 -287.591)" fill="#bbb"></path></g></g></g><path id="Path_4675" data-name="Path 4675" d="M497.87,379.394h.424c-.049,0-.1-.009-.146-.011-.092.007-.184.011-.278.011" transform="translate(-253.318 -193.032)" fill="#354665"></path><path id="Path_4676" data-name="Path 4676" d="M525.593,283.183a3.381,3.381,0,0,0-1.852-.535H497.006a3.384,3.384,0,0,1,1.853.535c3.979,1.447,7.059,11.369,7.059,23.4,0,13.028-3.61,23.59-8.062,23.59h26.309c.094,0,.187,0,.278-.012.049,0,.1.012.146.012,4.453,0,8.063-10.562,8.063-23.59,0-12.033-3.08-21.954-7.059-23.4" transform="translate(-252.879 -143.813)" fill="#354665"></path><path id="Path_4677" data-name="Path 4677" d="M280.492,301.679H117.926a1.041,1.041,0,0,1,0-2.082H280.492a1.041,1.041,0,1,1,0,2.082" transform="translate(-59.472 -152.436)" fill="#fff"></path><path id="Path_4678" data-name="Path 4678" d="M283.949,313.686H121.382a1.043,1.043,0,0,1-1.04-1.041c0-.572.468-1.041,1.465-1.041H284.373a1.176,1.176,0,0,1,.616,1.041,1.044,1.044,0,0,1-1.041,1.041" transform="translate(-61.231 -158.545)" fill="#fff"></path><path id="Path_4679" data-name="Path 4679" d="M285.676,326.4H123.109a1.041,1.041,0,0,1,0-2.082H285.676a1.041,1.041,0,0,1,0,2.082" transform="translate(-62.109 -165.014)" fill="#fff"></path><path id="Path_4680" data-name="Path 4680" d="M285.676,338.4H123.109a1.041,1.041,0,0,1,0-2.082H285.676a1.041,1.041,0,1,1,0,2.082" transform="translate(-62.109 -171.123)" fill="#fff"></path><path id="Path_4681" data-name="Path 4681" d="M284.813,350.412H122.246a1.041,1.041,0,0,1,0-2.082H284.813a1.041,1.041,0,0,1,0,2.082" transform="translate(-61.67 -177.232)" fill="#fff"></path><path id="Path_4682" data-name="Path 4682" d="M280.492,362.418H117.926a1.041,1.041,0,0,1,0-2.082H280.492a1.041,1.041,0,1,1,0,2.082" transform="translate(-59.472 -183.34)" fill="#fff"></path><path id="Path_4683" data-name="Path 4683" d="M355.343,283.183a3.381,3.381,0,0,0-1.852-.535h-244a2.478,2.478,0,1,0,0,4.857H269.114c2.015,4.287,3.326,11.233,3.326,19.08,0,7.64-1.243,14.423-3.167,18.733H109.914a2.478,2.478,0,1,0,0,4.857h244c.094,0,.187,0,.278-.012.049,0,.1.012.146.012,4.453,0,8.063-10.562,8.063-23.59,0-12.033-3.08-21.954-7.059-23.4" transform="translate(-54.197 -143.813)" fill="#3a4e78"></path><path id="Path_4684" data-name="Path 4684" d="M497.006,379.394h.424c-.049,0-.1-.009-.146-.011-.092.007-.184.011-.278.011" transform="translate(-252.879 -193.032)" fill="#354665"></path><path id="Path_4685" data-name="Path 4685" d="M524.729,283.183a3.382,3.382,0,0,0-1.852-.535H496.142a3.384,3.384,0,0,1,1.853.535c3.979,1.447,7.058,11.369,7.058,23.4,0,13.028-3.61,23.59-8.062,23.59H523.3c.094,0,.187,0,.278-.012.049,0,.1.012.146.012,4.453,0,8.063-10.562,8.063-23.59,0-12.033-3.08-21.954-7.059-23.4" transform="translate(-252.439 -143.813)" fill="#354665"></path><g id="Group_6768" data-name="Group 6768" transform="translate(115.125 188.484)" opacity="0.3"><g id="Group_6767" data-name="Group 6767"><g id="Group_6766" data-name="Group 6766" clip-path="url(#clip-path-6)"><path id="Path_4686" data-name="Path 4686" d="M234.377,383.725h209.2a105.27,105.27,0,0,0,0,53.044h-209.2Z" transform="translate(-234.377 -383.725)" fill="#bbb"></path></g></g></g><path id="Path_4687" data-name="Path 4687" d="M280.589,379.406h-.425c.049,0,.1.011.146.014.092-.009.184-.014.279-.014" transform="translate(-142.549 -193.043)" fill="#354665"></path><path id="Path_4688" data-name="Path 4688" d="M216.383,436.887a2.95,2.95,0,0,0,1.852.655H244.97a2.952,2.952,0,0,1-1.853-.655c-3.979-1.77-7.058-13.906-7.058-28.625,0-15.937,3.61-28.856,8.063-28.856H217.811c-.094,0-.187.005-.278.014-.049,0-.1-.014-.146-.014-4.453,0-8.063,12.919-8.063,28.856,0,14.719,3.08,26.855,7.059,28.625" transform="translate(-106.505 -193.043)" fill="#354665"></path><path id="Path_4689" data-name="Path 4689" d="M258.976,471.844h198.6a1.273,1.273,0,1,1,0,2.546h-198.6a1.273,1.273,0,1,1,0-2.546" transform="translate(-131.12 -240.076)" fill="#fff"></path><path id="Path_4690" data-name="Path 4690" d="M256.384,457.157h198.6a1.273,1.273,0,1,1,0,2.546h-198.6a1.273,1.273,0,1,1,0-2.546" transform="translate(-129.802 -232.603)" fill="#fff"></path><path id="Path_4691" data-name="Path 4691" d="M254.656,441.607h198.6a1.273,1.273,0,1,1,0,2.546h-198.6a1.273,1.273,0,1,1,0-2.546" transform="translate(-128.922 -224.692)" fill="#fff"></path><path id="Path_4692" data-name="Path 4692" d="M254.656,426.921h198.6a1.273,1.273,0,1,1,0,2.546h-198.6a1.273,1.273,0,1,1,0-2.546" transform="translate(-128.922 -217.219)" fill="#fff"></path><path id="Path_4693" data-name="Path 4693" d="M256.384,412.234h198.6a1.273,1.273,0,1,1,0,2.546h-198.6a1.273,1.273,0,1,1,0-2.546" transform="translate(-129.802 -209.746)" fill="#fff"></path><path id="Path_4694" data-name="Path 4694" d="M258.976,397.548h198.6a1.273,1.273,0,1,1,0,2.546h-198.6a1.273,1.273,0,1,1,0-2.546" transform="translate(-131.12 -202.274)" fill="#fff"></path><path id="Path_4695" data-name="Path 4695" d="M158.5,436.887a2.95,2.95,0,0,0,1.852.655H408.6a2.97,2.97,0,1,0,0-5.941H291.833c-2.015-5.244-3.326-13.741-3.326-23.339,0-9.345,1.243-17.643,3.167-22.915h116.5a2.97,2.97,0,1,0,0-5.941H159.929c-.094,0-.187.005-.278.014-.049,0-.1-.014-.146-.014-4.453,0-8.063,12.919-8.063,28.856,0,14.719,3.08,26.855,7.059,28.625" transform="translate(-77.054 -193.043)" fill="#d46732"></path><path id="Path_4696" data-name="Path 4696" d="M281.452,379.406h-.424c.049,0,.1.011.146.014.092-.009.184-.014.278-.014" transform="translate(-142.988 -193.043)" fill="#354665"></path><path id="Path_4697" data-name="Path 4697" d="M217.247,436.887a2.947,2.947,0,0,0,1.852.655h26.735a2.953,2.953,0,0,1-1.853-.655c-3.979-1.77-7.058-13.906-7.058-28.625,0-15.937,3.61-28.856,8.062-28.856h-26.31c-.094,0-.186.005-.278.014-.049,0-.1-.014-.146-.014-4.453,0-8.062,12.919-8.062,28.856,0,14.719,3.08,26.855,7.059,28.625" transform="translate(-106.945 -193.043)" fill="#c7592f"></path><path id="Path_4698" data-name="Path 4698" d="M227.772,437.447s3.446,4.382,1.811,5.168-1.112,1.875-.305,2.159,10.575-1.724,10.575-1.724l-4.449-9.267Z" transform="translate(-115.891 -220.711)" fill="#efc3b2"></path><path id="Path_4699" data-name="Path 4699" d="M228.494,448.973a18.832,18.832,0,0,1,2.46,3.514l1.309,2.726-20.11,9.655c-3.771,1.811-5.289,1.868-6.231-1.7s-.419-2.482,4.819-7.68c5.007-4.968,7.228-7.495,7.228-7.495a3.243,3.243,0,0,0,2.827,2.667c2.409.185,7.07-1.382,7.7-1.684" transform="translate(-104.58 -227.939)" fill="#0b1917"></path><path id="Path_4700" data-name="Path 4700" d="M179.393,429.671s3.446,4.382,1.811,5.168-1.112,1.875-.305,2.159,10.575-1.724,10.575-1.724l-4.449-9.267Z" transform="translate(-91.276 -216.754)" fill="#efc3b2"></path><path id="Path_4701" data-name="Path 4701" d="M180.116,441.2a18.832,18.832,0,0,1,2.46,3.514l1.309,2.726-20.11,9.655c-3.771,1.811-5.289,1.869-6.231-1.7s-.419-2.482,4.819-7.68c5.007-4.968,7.228-7.495,7.228-7.495a3.243,3.243,0,0,0,2.827,2.667c2.409.185,7.07-1.382,7.7-1.684" transform="translate(-79.965 -223.983)" fill="#0b1917"></path><path id="Path_4702" data-name="Path 4702" d="M122.631,253.575s-15.254,4.135-15.254,13.471,33.1,72.563,33.1,72.563l13.155-4.243L133.262,274.26l16.55-3.395,13.155-10.184,22.915-15.7Z" transform="translate(-54.634 -124.647)" fill="#273749"></path><path id="Path_4703" data-name="Path 4703" d="M252.361,230.294s12.306,22.915-8.911,26.309-47.1,10.184-47.1,10.184l13.579,64.926-14,4.243s-8.487-33.524-17.4-54.741-13.579-30.553,10.608-36.069,45.406-11.458,45.406-11.458Z" transform="translate(-87.165 -117.175)" fill="#354665"></path><path id="Path_4704" data-name="Path 4704" d="M222.2,159.453l-4.243,19.1s3.819,11.458,4.243,11.033,8.487-19.945,8.487-19.945l-4.243-9.336Z" transform="translate(-110.897 -81.13)" fill="#efc3b2"></path><path id="Path_4705" data-name="Path 4705" d="M237.748,88.251s-6.429,2.759-6.853,5.3,6.365,69.169,6.365,69.169l46.254-5.516s-3.395-63.653-9.336-69.594c-3.669-3.669-10.089-4.748-14.463-5.037a39.44,39.44,0,0,0-4.632-.055Z" transform="translate(-117.471 -41.966)" fill="#fff"></path><path id="Path_4706" data-name="Path 4706" d="M246.246,66.908A45.887,45.887,0,0,0,245,59.833a6.4,6.4,0,0,0-3.969-4.278l8.731-20.444,4.1,5.24a41.525,41.525,0,0,0,2.981,12.007c2.44,5.321,3.249,6.218,3.249,6.218l-6.661,7.24-3.635,1.819Z" transform="translate(-122.637 -17.865)" fill="#dcada2"></path><path id="Path_4707" data-name="Path 4707" d="M205.665,29.478s8.179,14.777,12.492,18.689,5.932,5.707,10.509-.047a16.063,16.063,0,0,0,3.012-12.594s-.234-5.177.087-6.252-1.985-6.684-4.646-5.464a8.823,8.823,0,0,1-4.157,1.054l-6.383-1.149Z" transform="translate(-104.643 -12.027)" fill="#efc3b2"></path><path id="Path_4708" data-name="Path 4708" d="M207.853,3.991C210.023,1.512,215.124-.281,218,.037A10.715,10.715,0,0,1,220.779.7a6.244,6.244,0,0,1,3.929-.2c2.729.52,7.3,5,8.478,9.757.355,1.434,1.84,12.535,1.84,12.535-1.674-1.3-4.432-3.06-4.432-3.06s.353-8.476-3.768-7.474c-2.011.489-3.192,2.373-2.438,3.769a23.589,23.589,0,0,0,1.631,2.609c.252.371-1.761.781-2.717-1.012-1.425-2.677-2.755-3.925-4.471-4.335-2.2-.528-3.609.113-7.143,2.173a18.212,18.212,0,0,1-4.28,2.212c-1.26.339-2.465.388-2.653-.091-2.963-6.183,1.805-12.114,3.1-13.594" transform="translate(-103.694 0)" fill="#2d3e64"></path><path id="Path_4709" data-name="Path 4709" d="M252.269,104.823l1.864-1.957-.746-3.542-2.945-.2-2.068,4.9.783,1.286Z" transform="translate(-126.373 -50.432)" fill="#c7592f"></path><path id="Path_4710" data-name="Path 4710" d="M250.754,110.017a2.506,2.506,0,0,0-1.388-.675c-.913-.149-1.744.937-1.744.937s-2.533,15.528-2.2,22.257.476,6.89.476,6.89l3.412,5.8,2.743-5.881s-1.926-11.141-1.7-19.268.4-10.057.4-10.057" transform="translate(-124.858 -55.626)" fill="#d46732"></path><path id="Path_4711" data-name="Path 4711" d="M257.9,87.187c.242.2,1.287,7.326,1.287,7.326l11.891-11.354-.877-5.107-2.962-.186,1.172,1.884.034.3Z" transform="translate(-131.219 -39.619)" fill="#fff"></path><path id="Path_4712" data-name="Path 4712" d="M248.355,90.617l-2.982,7.456-2.2-7.475,2.292-4.921.6-.521L247,88.411Z" transform="translate(-123.727 -43.328)" fill="#fff"></path><path id="Path_4713" data-name="Path 4713" d="M277.011,136.1l1.273,17.823L254.1,181.926s-8.091-.773-10.184-.424a7.224,7.224,0,0,0-5.517,4.243c-.849,2.122.424,3.82.849,4.668.268.536,5.517-.849,6.365-.849s14.428-2.546,14.428-2.546,25.885-25.885,26.734-27.158.849-25.461.849-25.461Z" transform="translate(-121.151 -68.383)" fill="#efc3b2"></path><path id="Path_4714" data-name="Path 4714" d="M229.411,99.843s-4.243.849-5.092,11.458a186.881,186.881,0,0,0-.424,20.368l6.307-.515s-2.488-26.643-.791-31.311" transform="translate(-113.864 -50.801)" fill="#fff"></path><path id="Path_4715" data-name="Path 4715" d="M307.245,117.392l13.579-2.546a177.3,177.3,0,0,0-5.517-20.369c-3.493-10.044-14.852-10.184-14.428-10.184.6,0,5.941,22.915,6.365,33.1" transform="translate(-153.083 -42.889)" fill="#fff"></path><path id="Path_4716" data-name="Path 4716" d="M91.826,252.374s1.273,2.97,3.395,2.546,95.054-14,95.054-14a2.482,2.482,0,0,0,1.91-1.485c.424-1.273.512-1.6.512-1.6l-98.961,13.91Z" transform="translate(-46.721 -121.008)" fill="#c7592f"></path><path id="Path_4717" data-name="Path 4717" d="M138.693,196.819,73.987,205.3a5.107,5.107,0,0,1-5.744-4.345l-13-41.411a5.107,5.107,0,0,1,4.345-5.744l64.706-9.325a5.107,5.107,0,0,1,5.744,4.345l13,42.26a5.107,5.107,0,0,1-4.345,5.744" transform="translate(-28.082 -73.483)" fill="#d46732"></path></g></g></g></g></g></g></svg>