<svg xmlns="http://www.w3.org/2000/svg" width="420" height="310.155" viewBox="0 0 420 310.155"><g id="Group_5623" data-name="Group 5623" transform="translate(-2125 -1906.772)"><ellipse id="Ellipse_89" data-name="Ellipse 89" cx="62.892" cy="6.142" rx="62.892" ry="6.142" transform="translate(2360.275 2204.642)" fill="#c7d1e2"></ellipse><g id="Group_5387" data-name="Group 5387" transform="translate(2227.207 1945.125)"><g id="Group_5386" data-name="Group 5386"><g id="Group_5385" data-name="Group 5385"><path id="Path_4177" data-name="Path 4177" d="M2643.6,2221.413H2400.653a23.023,23.023,0,0,1-23.023-23.023l25.351-173.794A23.023,23.023,0,0,1,2426,2001.573h242.949a23.023,23.023,0,0,1,23.023,23.023l-25.351,173.794A23.023,23.023,0,0,1,2643.6,2221.413Z" transform="translate(-2377.63 -2001.573)" fill="#efefef"></path></g></g></g><g id="Group_3413" data-name="Group 3413" transform="translate(2310.484 1970.352)"><g id="Path_2467" data-name="Path 2467" transform="translate(68.148 233.105)"><g id="Group_5389" data-name="Group 5389"><g id="Group_5388" data-name="Group 5388"><path id="Path_4178" data-name="Path 4178" d="M2785.627,2644.675h-33.708l.761-1.546a5.2,5.2,0,0,1,2.595-2.6,5.686,5.686,0,0,1,2.13-.419h28.419a5.686,5.686,0,0,1,2.131.419,5.2,5.2,0,0,1,2.594,2.6l.761,1.546Z" transform="translate(-2751.919 -2640.108)" fill="#2a2c31"></path></g></g></g><g id="Path_2468" data-name="Path 2468" transform="translate(0 97.909)"><g id="Group_5391" data-name="Group 5391"><g id="Group_5390" data-name="Group 5390"><path id="Path_4179" data-name="Path 4179" d="M2593.248,2312.632h158.516v-6.7H2583.473l1.356,2.267a8.647,8.647,0,0,0,4.625,3.815A12.043,12.043,0,0,0,2593.248,2312.632Z" transform="translate(-2583.473 -2305.934)" fill="#2a2c31"></path></g></g></g><g id="Path_2469" data-name="Path 2469" transform="translate(136.856 47.222)"><g id="Group_5393" data-name="Group 5393"><g id="Group_5392" data-name="Group 5392"><path id="Path_4180" data-name="Path 4180" d="M2968.743,2184.005s6.712.9,8.949,6.712,11.187,59.528,11.187,59.528h-43.188l-6.267-20.814s-8.949-2.238-8.949-8.5,2.685-9.4,2.237-12.533-10.965-11.409-10.965-11.409l4.475-5.819,4.028-5.819s1.119-4.7,3.8-4.7S2968.743,2184.005,2968.743,2184.005Z" transform="translate(-2921.748 -2180.648)" fill="#fff"></path></g></g></g><g id="Path_2470" data-name="Path 2470" transform="translate(137.578 8.365)"><g id="Group_5395" data-name="Group 5395"><g id="Group_5394" data-name="Group 5394"><path id="Path_4181" data-name="Path 4181" d="M2958.616,2129.054c0,.4-1.6,1.69-3.38,3a6.46,6.46,0,0,1-8.5-.746l-3.225-3.386a6.459,6.459,0,0,1-1.775-4.746l.056-1.227a6.454,6.454,0,0,0-5.477-6.677,28.443,28.443,0,0,1-5-.982c-.348-.347-5.032-9.639-7.094-13.745a6.443,6.443,0,0,1-.58-4.055c.552-3.016,1.54-8.161,1.855-8.161.347,0,9.578-2.423,13.705-3.51a6.442,6.442,0,0,1,3.877.185c4.949,1.827,17.777,6.631,17.777,7.354,0,.9,1.791,8.5,1.791,10.295v17.456C2962.644,2120.55,2958.616,2129.054,2958.616,2129.054Z" transform="translate(-2923.533 -2084.603)" fill="#efc3b2"></path></g></g></g><g id="Path_2471" data-name="Path 2471" transform="translate(88.514 94.442)"><g id="Group_5397" data-name="Group 5397"><g id="Group_5396" data-name="Group 5396"><path id="Path_4182" data-name="Path 4182" d="M2832.172,2300.723h-29.914l7.609-2.909s12.085-.448,13.425-.448S2832.172,2300.723,2832.172,2300.723Z" transform="translate(-2802.258 -2297.366)" fill="#a7a7a7"></path></g></g></g><g id="Path_2472" data-name="Path 2472" transform="translate(91.648 116.258)"><g id="Group_5399" data-name="Group 5399"><g id="Group_5398" data-name="Group 5398"><path id="Path_4183" data-name="Path 4183" d="M2903.341,2351.288h-78.567s-14.77.567-14.77,13.548,44.376,95.784,44.376,95.784h9.4l-34.753-77.209s7.609-10.295,10.294-11.187S2903.341,2351.288,2903.341,2351.288Z" transform="translate(-2810.004 -2351.288)" fill="#dcada2"></path></g></g></g><g id="Path_2473" data-name="Path 2473" transform="translate(91.648 116.258)"><g id="Group_5401" data-name="Group 5401"><g id="Group_5400" data-name="Group 5400"><path id="Path_4184" data-name="Path 4184" d="M2829.025,2383.409l27.282,60.609a9.89,9.89,0,0,0-5.82,2.746c-.037.034-.067.076-.105.11a9.055,9.055,0,0,0-2.613,1.221c-12.367-23.659-37.765-73.44-37.765-83.259,0-12.979,14.77-13.548,14.77-13.548h78.567s-61.335,20.039-64.021,20.933S2829.025,2383.409,2829.025,2383.409Z" transform="translate(-2810.004 -2351.288)" fill="#203052"></path></g></g></g><g id="Path_2474" data-name="Path 2474" transform="translate(95.008 63.312)"><g id="Group_5403" data-name="Group 5403"><g id="Group_5402" data-name="Group 5402"><path id="Path_4185" data-name="Path 4185" d="M2911.182,2231.409s-.448-6.266-4.028-8.5a13.056,13.056,0,0,0-6.267-2.237l-21.483,24.169s-1.343,2.237-8.5,2.686-25.512,2.237-25.512,2.237l25.512-17.9s.672-5.595-3.357-8.728-7.162-2.686-7.162-2.686l-26.408,24.617a11.6,11.6,0,0,0-8.949.448c-4.924,2.237-6.712,1.791-6.712,2.237s1.044,4.178,1.044,4.178l13.278-.149a58.306,58.306,0,0,0,5.372,2.686,7.056,7.056,0,0,0,1.791.447h42.969a5.544,5.544,0,0,0,3.581-1.791C2888.13,2251.326,2911.182,2231.409,2911.182,2231.409Z" transform="translate(-2818.311 -2220.42)" fill="#efc3b2"></path></g></g></g><g id="Path_2475" data-name="Path 2475" transform="translate(110.89 63.313)"><g id="Group_5405" data-name="Group 5405"><g id="Group_5404" data-name="Group 5404"><path id="Path_4186" data-name="Path 4186" d="M2869.319,2249.368a17.2,17.2,0,0,1-4.808-1.32,33.109,33.109,0,0,1-6.408-2.887,4.694,4.694,0,0,0-.537-.305l26.188-24.412s3.134-.448,7.162,2.686,3.356,8.728,3.356,8.728Z" transform="translate(-2857.566 -2220.421)" fill="#dcada2"></path></g></g></g><g id="Rectangle_2516" data-name="Rectangle 2516" transform="translate(86.03 102.5)"><g id="Group_5407" data-name="Group 5407"><g id="Group_5406" data-name="Group 5406"><rect id="Rectangle_19985" data-name="Rectangle 19985" width="4.808" height="135.173" fill="#2a2c31"></rect></g></g></g><g id="Path_2476" data-name="Path 2476" transform="translate(63.448 207.552)"><g id="Group_5409" data-name="Group 5409"><g id="Group_5408" data-name="Group 5408"><path id="Path_4187" data-name="Path 4187" d="M2753.033,2579.906a17.122,17.122,0,0,0,4.89,1.588l-9.114,13.486H2740.3l9.1-18.034A11.7,11.7,0,0,0,2753.033,2579.906Z" transform="translate(-2740.302 -2576.946)" fill="#efc3b2"></path></g></g></g><g id="Path_2477" data-name="Path 2477" transform="translate(71.325 115.394)"><g id="Group_5411" data-name="Group 5411"><g id="Group_5410" data-name="Group 5410"><path id="Path_4188" data-name="Path 4188" d="M2759.772,2443.747,2798,2368.039s3.133-10.295,12.98-11.638,59.828-6.266,59.828-6.266l21.395-.98s2.477,14.856-1.1,20.227-4.923,10.742-38.94,9.847-37.6,0-37.6,0l-46.185,68.326A72.9,72.9,0,0,0,2759.772,2443.747Z" transform="translate(-2759.772 -2349.154)" fill="#3a4e78"></path></g></g></g><g id="Path_2478" data-name="Path 2478" transform="translate(112.973 224.754)"><g id="Group_5413" data-name="Group 5413"><g id="Group_5412" data-name="Group 5412"><path id="Path_4189" data-name="Path 4189" d="M2895.1,2619.466l2.64,7.1s.512,5.819-3.962,5.819h-30.392s-2.686-2.237,2.686-4.474,20.142-7.61,20.142-7.61Z" transform="translate(-2862.715 -2619.466)" fill="#d46732"></path></g></g></g><g id="Path_2479" data-name="Path 2479" transform="translate(40.445 225.585)"><g id="Group_5415" data-name="Group 5415"><g id="Group_5414" data-name="Group 5414"><path id="Path_4190" data-name="Path 4190" d="M2714.952,2621.522l2.113,6.712s.448,5.371-3.58,5.371h-28.969s-2.686-2.686.447-4.029,21.485-8.057,21.485-8.057Z" transform="translate(-2683.444 -2621.52)" fill="#d46732"></path></g></g></g><g id="Path_2481" data-name="Path 2481" transform="translate(126.251)"><g id="Group_5417" data-name="Group 5417"><g id="Group_5416" data-name="Group 5416"><path id="Path_4191" data-name="Path 4191" d="M2932.994,2082.729s-4.029-7.161-8.949-6.712-8.057,3.581-11.187,3.133a3.289,3.289,0,0,1-1.343-.447s-2.462,5.148-.224,10.071,1.791,8.5,4.475,10.743,7.609,4.028,9.847,3.133l2.237-.895-.223,14.1s-14.658,2.492-23.637-1.2a17.958,17.958,0,0,1-8.454-6.873c5.371-7.161,8.141-18.561,7.693-23.933a8.924,8.924,0,0,1,4.028-8.057s-4.923-2.238-3.133-6.267,5.139-5.594,19.022-5.594c27.751,0,38.932,33.816,43.686,40.153,0,0-7.626,4.26-14.787,7.393s-12.675,2.113-12.675,2.113c-1.71-7.534-5.7-16.761-2.124-22.133s3.58-6.712,1.79-8.5S2933.665,2081.607,2932.994,2082.729Z" transform="translate(-2895.536 -2063.927)" fill="#2d3e64"></path></g></g></g><g id="Path_2482" data-name="Path 2482" transform="translate(69.549 205.729)"><g id="Group_5419" data-name="Group 5419"><g id="Group_5418" data-name="Group 5418"><path id="Path_4192" data-name="Path 4192" d="M2768.955,2578.425s-1.538,3.725-4.111,2.533l-7.719-3.577a2.356,2.356,0,0,1-1.613-3c.693-2.305.578-1.92.578-1.92Z" transform="translate(-2755.382 -2572.44)" fill="#203052"></path></g></g></g><g id="Path_2483" data-name="Path 2483" transform="translate(125.773 206.032)"><g id="Group_5421" data-name="Group 5421"><g id="Group_5420" data-name="Group 5420"><path id="Path_4193" data-name="Path 4193" d="M2907.288,2573.189s1.806,3.6-.781,4.765l-7.76,3.489a2.358,2.358,0,0,1-3.322-.746l-1.072-1.695Z" transform="translate(-2894.353 -2573.189)" fill="#344b75"></path></g></g></g><g id="Path_2484" data-name="Path 2484" transform="translate(76.154 115.906)" opacity="0.44" style="isolation: isolate"><g id="Group_5423" data-name="Group 5423"><g id="Group_5422" data-name="Group 5422"><path id="Path_4194" data-name="Path 4194" d="M2772.071,2444.716l-.363-.2c1.554-2.79,38.149-68.4,46.533-75.214,6.579-5.344,19.9-4.711,35.331-3.98,4.065.193,8.268.392,12.6.5,7.153.18,12.475-1.529,15.832-5.078a14.673,14.673,0,0,0,3.76-10.292l.414-.034a15.119,15.119,0,0,1-3.868,10.606c-3.441,3.642-8.886,5.392-16.148,5.212-4.338-.109-8.543-.309-12.61-.5-15.343-.728-28.594-1.355-35.049,3.888C2810.18,2376.385,2772.451,2444.034,2772.071,2444.716Z" transform="translate(-2771.708 -2350.418)" fill="#203052"></path></g></g></g><g id="Path_2485" data-name="Path 2485" transform="translate(185.415 232.995)"><g id="Group_5425" data-name="Group 5425"><g id="Group_5424" data-name="Group 5424"><path id="Path_4195" data-name="Path 4195" d="M3075.479,2644.4h-33.705l.761-1.546a5.2,5.2,0,0,1,2.594-2.6,5.658,5.658,0,0,1,2.131-.42h28.419a5.656,5.656,0,0,1,2.13.42,5.205,5.205,0,0,1,2.595,2.6l.76,1.546Z" transform="translate(-3041.774 -2639.835)" fill="#2a2c31"></path></g></g></g><g id="Path_2486" data-name="Path 2486" transform="translate(185.081 146.453)"><g id="Group_5427" data-name="Group 5427"><g id="Group_5426" data-name="Group 5426"><path id="Path_4196" data-name="Path 4196" d="M3042.854,2426.222a9.283,9.283,0,0,0,2.3-.3l18.293,88.578h-4.225l-18.277-88.495A8.737,8.737,0,0,0,3042.854,2426.222Z" transform="translate(-3040.949 -2425.924)" fill="#2a2c31"></path></g></g></g><g id="Path_2487" data-name="Path 2487" transform="translate(162.163 70.786)"><g id="Group_5429" data-name="Group 5429"><g id="Group_5428" data-name="Group 5428"><path id="Path_4197" data-name="Path 4197" d="M3028.136,2316l-43.834,3.169v-4.753l39.61-3.169,27.462-72.354h5.281Z" transform="translate(-2984.302 -2238.892)" fill="#2a2c31"></path></g></g></g><g id="Line_394" data-name="Line 394" transform="translate(130.291 227.545)"><g id="Group_5431" data-name="Group 5431" transform="translate(0 0)"><g id="Group_5430" data-name="Group 5430"><rect id="Rectangle_19986" data-name="Rectangle 19986" width="0.415" height="4.724" transform="translate(0 0.186) rotate(-26.563)" fill="#fff"></rect></g></g></g><g id="Line_395" data-name="Line 395" transform="translate(127.122 228.073)"><g id="Group_5433" data-name="Group 5433" transform="translate(0 0)"><g id="Group_5432" data-name="Group 5432"><rect id="Rectangle_19987" data-name="Rectangle 19987" width="0.415" height="4.724" transform="matrix(0.894, -0.447, 0.447, 0.894, 0, 0.186)" fill="#fff"></rect></g></g></g><g id="Line_396" data-name="Line 396" transform="translate(55.297 227.545)"><g id="Group_5435" data-name="Group 5435" transform="translate(0 0)"><g id="Group_5434" data-name="Group 5434" transform="translate(0)"><rect id="Rectangle_19988" data-name="Rectangle 19988" width="0.415" height="4.724" transform="translate(0 0.186) rotate(-26.567)" fill="#fff"></rect></g></g></g><g id="Line_397" data-name="Line 397" transform="translate(52.129 228.073)"><g id="Group_5437" data-name="Group 5437" transform="translate(0 0)"><g id="Group_5436" data-name="Group 5436" transform="translate(0)"><rect id="Rectangle_19989" data-name="Rectangle 19989" width="0.415" height="4.724" transform="matrix(0.894, -0.447, 0.447, 0.894, 0, 0.186)" fill="#fff"></rect></g></g></g><g id="Path_2488" data-name="Path 2488" transform="translate(24.164 52.79)"><g id="Group_5439" data-name="Group 5439"><g id="Group_5438" data-name="Group 5438"><path id="Path_4198" data-name="Path 4198" d="M2655.3,2239.34h59.168a4.263,4.263,0,0,0,4.416-4.091l-7.833-36.748a5.645,5.645,0,0,0-5.471-4.091h-58.112c-.136,0-.271.006-.4.017a4.346,4.346,0,0,0-3.837,4.8,4.271,4.271,0,0,0,.082.482l7.575,35.537C2651.279,2237.756,2652.862,2239.34,2655.3,2239.34Z" transform="translate(-2643.201 -2194.41)" fill="#a7a7a7"></path></g></g></g></g><g id="Group_3392" data-name="Group 3392" transform="translate(2185.513 1933.115)" opacity="0.17"><g id="Rectangle_2502" data-name="Rectangle 2502"><g id="Group_5441" data-name="Group 5441"><g id="Group_5440" data-name="Group 5440"><rect id="Rectangle_19990" data-name="Rectangle 19990" width="82.138" height="95.011" rx="15.523" fill="#bdcae2"></rect></g></g></g><g id="Group_3391" data-name="Group 3391" transform="translate(9.14 10.194)"><g id="Group_3390" data-name="Group 3390"><g id="Rectangle_2503" data-name="Rectangle 2503" transform="translate(0 26.097)"><g id="Group_5443" data-name="Group 5443"><g id="Group_5442" data-name="Group 5442"><rect id="Rectangle_19991" data-name="Rectangle 19991" width="66.875" height="1.631" fill="#bdcae2"></rect></g></g></g><g id="Rectangle_2504" data-name="Rectangle 2504" transform="translate(23.572 19.573)"><g id="Group_5445" data-name="Group 5445"><g id="Group_5444" data-name="Group 5444"><rect id="Rectangle_19992" data-name="Rectangle 19992" width="43.36" height="1.631" fill="#bdcae2"></rect></g></g></g><g id="Rectangle_2505" data-name="Rectangle 2505" transform="translate(23.572 13.049)"><g id="Group_5447" data-name="Group 5447"><g id="Group_5446" data-name="Group 5446"><rect id="Rectangle_19993" data-name="Rectangle 19993" width="43.36" height="1.631" fill="#bdcae2"></rect></g></g></g><g id="Rectangle_2506" data-name="Rectangle 2506" transform="translate(23.572 6.524)"><g id="Group_5449" data-name="Group 5449"><g id="Group_5448" data-name="Group 5448"><rect id="Rectangle_19994" data-name="Rectangle 19994" width="43.36" height="1.631" fill="#bdcae2"></rect></g></g></g><g id="Rectangle_2507" data-name="Rectangle 2507" transform="translate(23.572)"><g id="Group_5451" data-name="Group 5451"><g id="Group_5450" data-name="Group 5450"><rect id="Rectangle_19995" data-name="Rectangle 19995" width="43.36" height="1.631" fill="#bdcae2"></rect></g></g></g><g id="Rectangle_2508" data-name="Rectangle 2508" transform="translate(0.059 31.806)"><g id="Group_5453" data-name="Group 5453"><g id="Group_5452" data-name="Group 5452"><rect id="Rectangle_19996" data-name="Rectangle 19996" width="66.875" height="1.631" fill="#bdcae2"></rect></g></g></g><g id="Rectangle_2509" data-name="Rectangle 2509" transform="translate(0 38.331)"><g id="Group_5455" data-name="Group 5455"><g id="Group_5454" data-name="Group 5454"><rect id="Rectangle_19997" data-name="Rectangle 19997" width="66.875" height="1.631" fill="#bdcae2"></rect></g></g></g><g id="Rectangle_2510" data-name="Rectangle 2510" transform="translate(0.059 44.039)"><g id="Group_5457" data-name="Group 5457"><g id="Group_5456" data-name="Group 5456"><rect id="Rectangle_19998" data-name="Rectangle 19998" width="66.875" height="1.631" fill="#bdcae2"></rect></g></g></g><g id="Rectangle_2511" data-name="Rectangle 2511" transform="translate(0 50.563)"><g id="Group_5459" data-name="Group 5459"><g id="Group_5458" data-name="Group 5458"><rect id="Rectangle_19999" data-name="Rectangle 19999" width="66.875" height="1.631" fill="#bdcae2"></rect></g></g></g><g id="Rectangle_2512" data-name="Rectangle 2512" transform="translate(0.059 56.272)"><g id="Group_5461" data-name="Group 5461"><g id="Group_5460" data-name="Group 5460"><rect id="Rectangle_20000" data-name="Rectangle 20000" width="66.875" height="1.631" fill="#bdcae2"></rect></g></g></g><g id="Rectangle_2513" data-name="Rectangle 2513" transform="translate(0 62.797)"><g id="Group_5463" data-name="Group 5463"><g id="Group_5462" data-name="Group 5462"><rect id="Rectangle_20001" data-name="Rectangle 20001" width="66.875" height="1.631" fill="#bdcae2"></rect></g></g></g><g id="Rectangle_2514" data-name="Rectangle 2514" transform="translate(0.059 68.506)"><g id="Group_5465" data-name="Group 5465"><g id="Group_5464" data-name="Group 5464"><rect id="Rectangle_20002" data-name="Rectangle 20002" width="66.875" height="1.631" fill="#bdcae2"></rect></g></g></g><g id="Rectangle_2515" data-name="Rectangle 2515" transform="translate(0 74.623)"><g id="Group_5467" data-name="Group 5467"><g id="Group_5466" data-name="Group 5466"><rect id="Rectangle_20003" data-name="Rectangle 20003" width="66.875" height="1.631" fill="#bdcae2"></rect></g></g></g></g></g></g><g id="Rectangle_2535" data-name="Rectangle 2535" transform="translate(2182.17 1929.772)"><g id="Group_5469" data-name="Group 5469" transform="translate(0)"><g id="Group_5468" data-name="Group 5468"><rect id="Rectangle_20004" data-name="Rectangle 20004" width="82.138" height="95.011" rx="12.936" fill="#efefef"></rect></g></g></g><g id="Group_3398" data-name="Group 3398" transform="translate(2189.801 1939.966)"><g id="Rectangle_2536" data-name="Rectangle 2536" transform="translate(0 26.097)"><g id="Group_5471" data-name="Group 5471"><g id="Group_5470" data-name="Group 5470"><rect id="Rectangle_20005" data-name="Rectangle 20005" width="66.875" height="1.631" fill="#3a4e78"></rect></g></g></g><g id="Rectangle_2537" data-name="Rectangle 2537" transform="translate(23.573 19.573)"><g id="Group_5473" data-name="Group 5473"><g id="Group_5472" data-name="Group 5472"><rect id="Rectangle_20006" data-name="Rectangle 20006" width="43.36" height="1.631" fill="#3a4e78"></rect></g></g></g><g id="Rectangle_2538" data-name="Rectangle 2538" transform="translate(23.573 13.049)"><g id="Group_5475" data-name="Group 5475"><g id="Group_5474" data-name="Group 5474"><rect id="Rectangle_20007" data-name="Rectangle 20007" width="43.36" height="1.631" fill="#3a4e78"></rect></g></g></g><g id="Rectangle_2539" data-name="Rectangle 2539" transform="translate(23.573 6.524)"><g id="Group_5477" data-name="Group 5477"><g id="Group_5476" data-name="Group 5476"><rect id="Rectangle_20008" data-name="Rectangle 20008" width="43.36" height="1.631" fill="#3a4e78"></rect></g></g></g><g id="Rectangle_2540" data-name="Rectangle 2540" transform="translate(23.573)"><g id="Group_5479" data-name="Group 5479"><g id="Group_5478" data-name="Group 5478"><rect id="Rectangle_20009" data-name="Rectangle 20009" width="43.36" height="1.631" fill="#3a4e78"></rect></g></g></g><g id="Rectangle_2541" data-name="Rectangle 2541" transform="translate(0.059 31.806)"><g id="Group_5481" data-name="Group 5481"><g id="Group_5480" data-name="Group 5480"><rect id="Rectangle_20010" data-name="Rectangle 20010" width="66.875" height="1.631" fill="#3a4e78"></rect></g></g></g><g id="Rectangle_2542" data-name="Rectangle 2542" transform="translate(0 38.331)"><g id="Group_5483" data-name="Group 5483"><g id="Group_5482" data-name="Group 5482"><rect id="Rectangle_20011" data-name="Rectangle 20011" width="66.875" height="1.631" fill="#3a4e78"></rect></g></g></g><g id="Rectangle_2543" data-name="Rectangle 2543" transform="translate(0.059 44.039)"><g id="Group_5485" data-name="Group 5485"><g id="Group_5484" data-name="Group 5484"><rect id="Rectangle_20012" data-name="Rectangle 20012" width="66.875" height="1.631" fill="#3a4e78"></rect></g></g></g><g id="Rectangle_2544" data-name="Rectangle 2544" transform="translate(0 50.563)"><g id="Group_5487" data-name="Group 5487"><g id="Group_5486" data-name="Group 5486"><rect id="Rectangle_20013" data-name="Rectangle 20013" width="66.875" height="1.631" fill="#3a4e78"></rect></g></g></g><g id="Rectangle_2545" data-name="Rectangle 2545" transform="translate(0.059 56.272)"><g id="Group_5489" data-name="Group 5489"><g id="Group_5488" data-name="Group 5488"><rect id="Rectangle_20014" data-name="Rectangle 20014" width="66.875" height="1.631" fill="#3a4e78"></rect></g></g></g><g id="Rectangle_2546" data-name="Rectangle 2546" transform="translate(0 62.797)"><g id="Group_5491" data-name="Group 5491"><g id="Group_5490" data-name="Group 5490"><rect id="Rectangle_20015" data-name="Rectangle 20015" width="66.875" height="1.631" fill="#3a4e78"></rect></g></g></g><g id="Rectangle_2547" data-name="Rectangle 2547" transform="translate(0.059 68.506)"><g id="Group_5493" data-name="Group 5493"><g id="Group_5492" data-name="Group 5492"><rect id="Rectangle_20016" data-name="Rectangle 20016" width="66.875" height="1.631" fill="#3a4e78"></rect></g></g></g><g id="Rectangle_2548" data-name="Rectangle 2548" transform="translate(0 74.623)"><g id="Group_5495" data-name="Group 5495"><g id="Group_5494" data-name="Group 5494"><rect id="Rectangle_20017" data-name="Rectangle 20017" width="66.875" height="1.631" fill="#3a4e78"></rect></g></g></g></g><g id="Rectangle_2549" data-name="Rectangle 2549" transform="translate(2285.148 1908.931)" opacity="0.17" style="isolation: isolate"><g id="Group_5497" data-name="Group 5497"><g id="Group_5496" data-name="Group 5496"><rect id="Rectangle_20018" data-name="Rectangle 20018" width="100.232" height="102.986" rx="15.441" fill="#bdcae2"></rect></g></g></g><g id="Rectangle_2550" data-name="Rectangle 2550" transform="translate(2282.989 1906.772)"><g id="Group_5499" data-name="Group 5499"><g id="Group_5498" data-name="Group 5498"><rect id="Rectangle_20019" data-name="Rectangle 20019" width="100.232" height="102.986" rx="12.868" fill="#efefef"></rect></g></g></g><g id="Rectangle_2560" data-name="Rectangle 2560" transform="translate(2319.829 1985.897)"><g id="Group_5501" data-name="Group 5501" transform="translate(0)"><g id="Group_5500" data-name="Group 5500"><path id="Path_4199" data-name="Path 4199" d="M2610.133,2102.35h19.427a3.562,3.562,0,0,1,3.562,3.562h0a3.562,3.562,0,0,1-3.562,3.562h-19.427a3.562,3.562,0,0,1-3.562-3.562h0A3.562,3.562,0,0,1,2610.133,2102.35Z" transform="translate(-2606.571 -2102.35)" fill="#dce6fc"></path></g></g></g><g id="Ellipse_154" data-name="Ellipse 154" transform="translate(2296.475 1916.138)"><g id="Group_5503" data-name="Group 5503"><g id="Group_5502" data-name="Group 5502"><circle id="Ellipse_90" data-name="Ellipse 90" cx="9.114" cy="9.114" r="9.114" fill="#fff"></circle></g></g></g><g id="Path_2495" data-name="Path 2495" transform="translate(2300.303 1921.911)"><g id="Group_5505" data-name="Group 5505"><g id="Group_5504" data-name="Group 5504"><path id="Path_4200" data-name="Path 4200" d="M2558.308,1954.967a8.249,8.249,0,0,0,10.569,0,5.749,5.749,0,0,0-3.461-2.731,4.228,4.228,0,1,0-3.644,0A5.746,5.746,0,0,0,2558.308,1954.967Z" transform="translate(-2558.308 -1944.192)" fill="#3a4e78"></path></g></g></g><g id="Rectangle_2558" data-name="Rectangle 2558" transform="translate(2293.467 1948.429)"><g id="Group_5507" data-name="Group 5507" transform="translate(0)"><g id="Group_5506" data-name="Group 5506"><path id="Path_4201" data-name="Path 4201" d="M2545.729,2009.74h70.83a4.319,4.319,0,0,1,4.319,4.319h0a4.319,4.319,0,0,1-4.319,4.319h-70.83a4.319,4.319,0,0,1-4.319-4.319h0A4.319,4.319,0,0,1,2545.729,2009.74Z" transform="translate(-2541.411 -2009.74)" fill="#dce6fc"></path></g></g></g><g id="Rectangle_2559" data-name="Rectangle 2559" transform="translate(2293.275 1967)"><g id="Group_5509" data-name="Group 5509" transform="translate(0)"><g id="Group_5508" data-name="Group 5508"><path id="Path_4202" data-name="Path 4202" d="M2545.254,2055.643h70.83a4.319,4.319,0,0,1,4.319,4.319h0a4.319,4.319,0,0,1-4.319,4.319h-70.83a4.319,4.319,0,0,1-4.319-4.319h0A4.319,4.319,0,0,1,2545.254,2055.643Z" transform="translate(-2540.935 -2055.643)" fill="#dce6fc"></path></g></g></g><g id="Group_3402" data-name="Group 3402" transform="translate(2298.173 1951.601)" opacity="0.21"><g id="Ellipse_155" data-name="Ellipse 155" transform="translate(0)"><g id="Group_5511" data-name="Group 5511"><g id="Group_5510" data-name="Group 5510"><circle id="Ellipse_91" data-name="Ellipse 91" cx="1.308" cy="1.308" r="1.308" fill="#3a4e78"></circle></g></g></g><g id="Ellipse_156" data-name="Ellipse 156" transform="translate(5.295)"><g id="Group_5513" data-name="Group 5513"><g id="Group_5512" data-name="Group 5512"><circle id="Ellipse_92" data-name="Ellipse 92" cx="1.308" cy="1.308" r="1.308" fill="#3a4e78"></circle></g></g></g><g id="Ellipse_157" data-name="Ellipse 157" transform="translate(10.591)"><g id="Group_5515" data-name="Group 5515"><g id="Group_5514" data-name="Group 5514"><circle id="Ellipse_93" data-name="Ellipse 93" cx="1.308" cy="1.308" r="1.308" fill="#3a4e78"></circle></g></g></g><g id="Ellipse_158" data-name="Ellipse 158" transform="translate(15.885)"><g id="Group_5517" data-name="Group 5517"><g id="Group_5516" data-name="Group 5516"><circle id="Ellipse_94" data-name="Ellipse 94" cx="1.308" cy="1.308" r="1.308" fill="#3a4e78"></circle></g></g></g><g id="Ellipse_159" data-name="Ellipse 159" transform="translate(21.181)"><g id="Group_5519" data-name="Group 5519"><g id="Group_5518" data-name="Group 5518"><circle id="Ellipse_95" data-name="Ellipse 95" cx="1.308" cy="1.308" r="1.308" fill="#3a4e78"></circle></g></g></g><g id="Ellipse_160" data-name="Ellipse 160" transform="translate(26.476)"><g id="Group_5521" data-name="Group 5521"><g id="Group_5520" data-name="Group 5520"><circle id="Ellipse_96" data-name="Ellipse 96" cx="1.308" cy="1.308" r="1.308" fill="#3a4e78"></circle></g></g></g></g><g id="Group_3403" data-name="Group 3403" transform="translate(2298.173 1970.172)" opacity="0.21"><g id="Ellipse_161" data-name="Ellipse 161" transform="translate(0)"><g id="Group_5523" data-name="Group 5523"><g id="Group_5522" data-name="Group 5522"><circle id="Ellipse_97" data-name="Ellipse 97" cx="1.308" cy="1.308" r="1.308" fill="#3a4e78"></circle></g></g></g><g id="Ellipse_162" data-name="Ellipse 162" transform="translate(5.253)"><g id="Group_5525" data-name="Group 5525"><g id="Group_5524" data-name="Group 5524"><circle id="Ellipse_98" data-name="Ellipse 98" cx="1.308" cy="1.308" r="1.308" fill="#3a4e78"></circle></g></g></g><g id="Ellipse_163" data-name="Ellipse 163" transform="translate(10.506)"><g id="Group_5527" data-name="Group 5527"><g id="Group_5526" data-name="Group 5526"><circle id="Ellipse_99" data-name="Ellipse 99" cx="1.308" cy="1.308" r="1.308" fill="#3a4e78"></circle></g></g></g><g id="Ellipse_164" data-name="Ellipse 164" transform="translate(15.759)"><g id="Group_5529" data-name="Group 5529"><g id="Group_5528" data-name="Group 5528"><circle id="Ellipse_100" data-name="Ellipse 100" cx="1.308" cy="1.308" r="1.308" fill="#3a4e78"></circle></g></g></g><g id="Ellipse_165" data-name="Ellipse 165" transform="translate(21.012)"><g id="Group_5531" data-name="Group 5531"><g id="Group_5530" data-name="Group 5530"><circle id="Ellipse_101" data-name="Ellipse 101" cx="1.308" cy="1.308" r="1.308" fill="#3a4e78"></circle></g></g></g><g id="Ellipse_166" data-name="Ellipse 166" transform="translate(26.265)"><g id="Group_5533" data-name="Group 5533"><g id="Group_5532" data-name="Group 5532"><circle id="Ellipse_102" data-name="Ellipse 102" cx="1.308" cy="1.308" r="1.308" fill="#3a4e78"></circle></g></g></g><g id="Ellipse_167" data-name="Ellipse 167" transform="translate(31.518)"><g id="Group_5535" data-name="Group 5535"><g id="Group_5534" data-name="Group 5534"><circle id="Ellipse_103" data-name="Ellipse 103" cx="1.308" cy="1.308" r="1.308" fill="#3a4e78"></circle></g></g></g><g id="Ellipse_168" data-name="Ellipse 168" transform="translate(36.772)"><g id="Group_5537" data-name="Group 5537"><g id="Group_5536" data-name="Group 5536"><circle id="Ellipse_104" data-name="Ellipse 104" cx="1.308" cy="1.308" r="1.308" fill="#3a4e78"></circle></g></g></g><g id="Ellipse_169" data-name="Ellipse 169" transform="translate(42.024)"><g id="Group_5539" data-name="Group 5539"><g id="Group_5538" data-name="Group 5538"><circle id="Ellipse_105" data-name="Ellipse 105" cx="1.308" cy="1.308" r="1.308" fill="#3a4e78"></circle></g></g></g></g><g id="Group_3414" data-name="Group 3414" transform="translate(2232.471 1985.095)"><g id="Rectangle_2552" data-name="Rectangle 2552" transform="translate(2.005 1.662)" opacity="0.21" style="isolation: isolate"><g id="Group_5541" data-name="Group 5541"><g id="Group_5540" data-name="Group 5540"><rect id="Rectangle_20020" data-name="Rectangle 20020" width="97.245" height="88.99" rx="12.281" fill="#263379"></rect></g></g></g><g id="Rectangle_2553" data-name="Rectangle 2553" transform="translate(0)"><g id="Group_5543" data-name="Group 5543"><g id="Group_5542" data-name="Group 5542"><rect id="Rectangle_20021" data-name="Rectangle 20021" width="97.245" height="88.99" rx="14.737" fill="#3a4e78"></rect></g></g></g><g id="Group_3406" data-name="Group 3406" transform="translate(39.064 24.158)"><g id="Path_2489" data-name="Path 2489" transform="translate(0 1.818)"><g id="Group_5545" data-name="Group 5545"><g id="Group_5544" data-name="Group 5544"><path id="Path_4203" data-name="Path 4203" d="M2505.435,2174.4l-16.789-9.694a.965.965,0,0,0-1.447.836v19.386a.964.964,0,0,0,1.447.835l16.789-9.693a.965.965,0,0,0,0-1.67Z" transform="translate(-2487.199 -2164.576)" fill="#2d3e64"></path></g></g></g><g id="Path_2490" data-name="Path 2490"><g id="Group_5547" data-name="Group 5547"><g id="Group_5546" data-name="Group 5546"><path id="Path_4204" data-name="Path 4204" d="M2505.435,2169.9l-16.789-9.692a.964.964,0,0,0-1.447.836v19.385a.964.964,0,0,0,1.447.836l16.789-9.693a.966.966,0,0,0,0-1.671Z" transform="translate(-2487.199 -2160.082)" fill="#fff"></path></g></g></g></g><g id="Path_2491" data-name="Path 2491" transform="translate(12.381 74.42)"><g id="Group_5549" data-name="Group 5549"><g id="Group_5548" data-name="Group 5548"><path id="Path_4205" data-name="Path 4205" d="M2462.871,2284.318h-40.7a.921.921,0,0,0,0,1.842h40.317A15.857,15.857,0,0,1,2462.871,2284.318Z" transform="translate(-2421.246 -2284.318)" fill="#d46732"></path></g></g></g><g id="Path_2492" data-name="Path 2492" transform="translate(42.06 74.408)"><g id="Group_5551" data-name="Group 5551"><g id="Group_5550" data-name="Group 5550"><path id="Path_4206" data-name="Path 4206" d="M2543.46,2284.3h-47.774a.933.933,0,1,0,0,1.842H2543A14.11,14.11,0,0,1,2543.46,2284.3Z" transform="translate(-2494.604 -2284.288)" fill="#fff"></path></g></g></g><g id="Ellipse_153" data-name="Ellipse 153" transform="translate(39.297 72.578)"><g id="Group_5553" data-name="Group 5553"><g id="Group_5552" data-name="Group 5552"><circle id="Ellipse_106" data-name="Ellipse 106" cx="2.764" cy="2.764" r="2.764" fill="#d46732"></circle></g></g></g></g><g id="Path_2493" data-name="Path 2493" transform="translate(2305.807 2057.945)" opacity="0.17" style="isolation: isolate"><g id="Group_5555" data-name="Group 5555" transform="translate(0 0)"><g id="Group_5554" data-name="Group 5554"><path id="Path_4207" data-name="Path 4207" d="M2614.665,2280.436h-39.2a3.563,3.563,0,0,0-3.552,3.552v26.051a3.564,3.564,0,0,0,3.552,3.553h25.984v6l5.647-6h7.569a3.564,3.564,0,0,0,3.553-3.553v-26.051A3.564,3.564,0,0,0,2614.665,2280.436Z" transform="translate(-2571.912 -2280.436)" fill="#bdcae2"></path></g></g></g><g id="Path_2494" data-name="Path 2494" transform="translate(2303.776 2056.57)"><g id="Group_5557" data-name="Group 5557" transform="translate(0 0)"><g id="Group_5556" data-name="Group 5556"><path id="Path_4208" data-name="Path 4208" d="M2609.645,2277.038h-39.2a3.564,3.564,0,0,0-3.553,3.553v26.051a3.564,3.564,0,0,0,3.553,3.553h25.984v6l5.647-6h7.568a3.563,3.563,0,0,0,3.553-3.553v-26.051A3.563,3.563,0,0,0,2609.645,2277.038Z" transform="translate(-2566.891 -2277.038)" fill="#efefef"></path></g></g></g><g id="Group_3401" data-name="Group 3401" transform="translate(2312.075 2064.688)"><g id="Rectangle_2554" data-name="Rectangle 2554"><g id="Group_5559" data-name="Group 5559"><g id="Group_5558" data-name="Group 5558"><path id="Path_4209" data-name="Path 4209" d="M2588.12,2297.1h29.659a.714.714,0,0,1,.714.714h0a.714.714,0,0,1-.714.714H2588.12a.714.714,0,0,1-.714-.714h0A.714.714,0,0,1,2588.12,2297.1Z" transform="translate(-2587.406 -2297.102)" fill="#3a4e78"></path></g></g></g><g id="Rectangle_2555" data-name="Rectangle 2555" transform="translate(0 5.352)"><g id="Group_5561" data-name="Group 5561"><g id="Group_5560" data-name="Group 5560"><path id="Path_4210" data-name="Path 4210" d="M2588.12,2310.33h29.659a.714.714,0,0,1,.714.714h0a.714.714,0,0,1-.714.714H2588.12a.713.713,0,0,1-.714-.714h0A.714.714,0,0,1,2588.12,2310.33Z" transform="translate(-2587.406 -2310.33)" fill="#3a4e78"></path></g></g></g><g id="Rectangle_2556" data-name="Rectangle 2556" transform="translate(0 10.704)"><g id="Group_5563" data-name="Group 5563"><g id="Group_5562" data-name="Group 5562"><path id="Path_4211" data-name="Path 4211" d="M2588.12,2323.559h29.659a.714.714,0,0,1,.714.714h0a.714.714,0,0,1-.714.714H2588.12a.714.714,0,0,1-.714-.714h0A.713.713,0,0,1,2588.12,2323.559Z" transform="translate(-2587.406 -2323.559)" fill="#3a4e78"></path></g></g></g><g id="Rectangle_2557" data-name="Rectangle 2557" transform="translate(0 16.055)"><g id="Group_5565" data-name="Group 5565"><g id="Group_5564" data-name="Group 5564"><path id="Path_4212" data-name="Path 4212" d="M2588.12,2336.787h29.659a.714.714,0,0,1,.714.714h0a.714.714,0,0,1-.714.714H2588.12a.713.713,0,0,1-.714-.714h0A.713.713,0,0,1,2588.12,2336.787Z" transform="translate(-2587.406 -2336.787)" fill="#3a4e78"></path></g></g></g></g><g id="Group_5582" data-name="Group 5582" transform="translate(2190.8 1939.75)"><g id="Group_5581" data-name="Group 5581" transform="translate(0)"><g id="Group_5568" data-name="Group 5568" transform="translate(8.927)"><g id="Group_5567" data-name="Group 5567"><g id="Group_5566" data-name="Group 5566"><path id="Path_4213" data-name="Path 4213" d="M2313.113,1998.108a.428.428,0,0,1-.418-.4v-7.981a.557.557,0,0,0-.535-.589H2310.1a.441.441,0,0,1-.391-.432.426.426,0,0,1,.391-.417h5.974a.4.4,0,0,1,.4.417.411.411,0,0,1-.4.432h-2.57v8.57a.426.426,0,0,1-.39.4" transform="translate(-2309.708 -1988.285)" fill="#233152"></path></g></g></g><g id="Group_5571" data-name="Group 5571" transform="translate(0.119 11.602)"><g id="Group_5570" data-name="Group 5570"><g id="Group_5569" data-name="Group 5569"><path id="Path_4214" data-name="Path 4214" d="M2288.342,2026.773a.4.4,0,0,1-.4-.4v-9a.415.415,0,0,1,.4-.4h5.126a.415.415,0,0,1,.4.4.429.429,0,0,1-.4.432h-4.091a.6.6,0,0,0-.618.662v2.42h4.211a.424.424,0,0,1,0,.848h-4.211v4.641a.416.416,0,0,1-.417.4" transform="translate(-2287.938 -2016.963)" fill="#233152"></path></g></g></g><g id="Group_5574" data-name="Group 5574" transform="translate(8.927 11.574)"><g id="Group_5573" data-name="Group 5573"><g id="Group_5572" data-name="Group 5572"><path id="Path_4215" data-name="Path 4215" d="M2316.291,2026.065l-2.354-3.629a1.207,1.207,0,0,1-.152-.628,1.419,1.419,0,0,1,.214-.746l2.3-3.536a.426.426,0,0,0-.1-.55.411.411,0,0,0-.613.136l-2.55,3.931-2.55-3.931a.415.415,0,0,0-.6-.147.428.428,0,0,0-.114.567l2.771,4.266-2.769,4.268a.443.443,0,0,0,.1.586.433.433,0,0,0,.578-.134l2.578-3.968,2.578,3.968a.439.439,0,0,0,.577.134.447.447,0,0,0,.1-.586" transform="translate(-2309.708 -2016.893)" fill="#233152"></path></g></g></g><g id="Group_5577" data-name="Group 5577" transform="translate(0.119 0.01)"><g id="Group_5576" data-name="Group 5576"><g id="Group_5575" data-name="Group 5575"><path id="Path_4216" data-name="Path 4216" d="M2295.888,1998.13a.411.411,0,0,1-.363-.246l-3.017-7.152a.46.46,0,0,0-.382-.249.531.531,0,0,0-.444.339l-2.957,7.067a.416.416,0,0,1-.539.2.4.4,0,0,1-.226-.515l3.8-9.007a.388.388,0,0,1,.375-.258.432.432,0,0,1,.385.281l3.758,8.979a.385.385,0,0,1,0,.312.405.405,0,0,1-.2.206.479.479,0,0,1-.184.042" transform="translate(-2287.938 -1988.311)" fill="#233152"></path></g></g></g><g id="Group_5580" data-name="Group 5580" transform="translate(0 5.82)"><g id="Group_5579" data-name="Group 5579"><g id="Group_5578" data-name="Group 5578"><path id="Path_4217" data-name="Path 4217" d="M2288.1,2003.576a.452.452,0,0,1,0-.9h5.668l.382.9Z" transform="translate(-2287.643 -2002.671)" fill="#d56833"></path></g></g></g></g></g><g id="Group_5614" data-name="Group 5614" transform="translate(2125 2048.167)"><g id="Group_3392-2" data-name="Group 3392" transform="translate(2.672 0)" opacity="0.17"><g id="Rectangle_2502-2" data-name="Rectangle 2502" transform="translate(0 4.668)"><g id="Group_5584" data-name="Group 5584"><g id="Group_5583" data-name="Group 5583"><path id="Path_4218" data-name="Path 4218" d="M2136.625,2267.806h67.7a4.81,4.81,0,0,1,5.02,4.567v47.878a4.81,4.81,0,0,1-5.02,4.567h-67.7a4.81,4.81,0,0,1-5.02-4.567v-47.878A4.81,4.81,0,0,1,2136.625,2267.806Z" transform="translate(-2131.605 -2267.806)" fill="#bdcae2"></path></g></g></g><g id="Group_3391-2" data-name="Group 3391" transform="translate(7.306)"><g id="Group_3390-2" data-name="Group 3390"><g id="Rectangle_2503-2" data-name="Rectangle 2503" transform="translate(0 18.978)"><g id="Group_5586" data-name="Group 5586"><g id="Group_5585" data-name="Group 5585"><rect id="Rectangle_20022" data-name="Rectangle 20022" width="65.537" height="1.186" fill="#bdcae2"></rect></g></g></g><g id="Rectangle_2504-2" data-name="Rectangle 2504" transform="translate(30.924 14.234)"><g id="Group_5588" data-name="Group 5588"><g id="Group_5587" data-name="Group 5587"><rect id="Rectangle_20023" data-name="Rectangle 20023" width="34.659" height="1.186" fill="#bdcae2"></rect></g></g></g><g id="Rectangle_2505-2" data-name="Rectangle 2505" transform="translate(30.924 9.49)"><g id="Group_5590" data-name="Group 5590"><g id="Group_5589" data-name="Group 5589"><rect id="Rectangle_20024" data-name="Rectangle 20024" width="34.659" height="1.186" fill="#bdcae2"></rect></g></g></g><g id="Rectangle_2506-2" data-name="Rectangle 2506" transform="translate(30.924 4.744)"><g id="Group_5592" data-name="Group 5592"><g id="Group_5591" data-name="Group 5591"><rect id="Rectangle_20025" data-name="Rectangle 20025" width="34.659" height="1.186" fill="#bdcae2"></rect></g></g></g><g id="Rectangle_2507-2" data-name="Rectangle 2507" transform="translate(30.924)"><g id="Group_5594" data-name="Group 5594"><g id="Group_5593" data-name="Group 5593"><rect id="Rectangle_20026" data-name="Rectangle 20026" width="34.659" height="1.186" fill="#bdcae2"></rect></g></g></g><g id="Rectangle_2508-2" data-name="Rectangle 2508" transform="translate(0.047 23.13)"><g id="Group_5596" data-name="Group 5596"><g id="Group_5595" data-name="Group 5595"><rect id="Rectangle_20027" data-name="Rectangle 20027" width="65.537" height="1.186" fill="#bdcae2"></rect></g></g></g><g id="Rectangle_2509-2" data-name="Rectangle 2509" transform="translate(0 27.875)"><g id="Group_5598" data-name="Group 5598"><g id="Group_5597" data-name="Group 5597"><rect id="Rectangle_20028" data-name="Rectangle 20028" width="65.537" height="1.186" fill="#bdcae2"></rect></g></g></g><g id="Rectangle_2510-2" data-name="Rectangle 2510" transform="translate(0.047 32.026)"><g id="Group_5600" data-name="Group 5600"><g id="Group_5599" data-name="Group 5599"><rect id="Rectangle_20029" data-name="Rectangle 20029" width="65.537" height="1.186" fill="#bdcae2"></rect></g></g></g><g id="Rectangle_2511-2" data-name="Rectangle 2511" transform="translate(0 36.771)"><g id="Group_5602" data-name="Group 5602"><g id="Group_5601" data-name="Group 5601"><rect id="Rectangle_20030" data-name="Rectangle 20030" width="65.537" height="1.186" fill="#bdcae2"></rect></g></g></g><g id="Rectangle_2512-2" data-name="Rectangle 2512" transform="translate(0.047 40.922)"><g id="Group_5604" data-name="Group 5604"><g id="Group_5603" data-name="Group 5603"><rect id="Rectangle_20031" data-name="Rectangle 20031" width="65.537" height="1.186" fill="#bdcae2"></rect></g></g></g><g id="Rectangle_2513-2" data-name="Rectangle 2513" transform="translate(0 45.667)"><g id="Group_5606" data-name="Group 5606"><g id="Group_5605" data-name="Group 5605"><rect id="Rectangle_20032" data-name="Rectangle 20032" width="65.537" height="1.186" fill="#bdcae2"></rect></g></g></g><g id="Rectangle_2514-2" data-name="Rectangle 2514" transform="translate(0.047 49.818)"><g id="Group_5608" data-name="Group 5608"><g id="Group_5607" data-name="Group 5607"><rect id="Rectangle_20033" data-name="Rectangle 20033" width="65.537" height="1.186" fill="#bdcae2"></rect></g></g></g><g id="Rectangle_2515-2" data-name="Rectangle 2515" transform="translate(0 54.267)"><g id="Group_5610" data-name="Group 5610"><g id="Group_5609" data-name="Group 5609"><rect id="Rectangle_20034" data-name="Rectangle 20034" width="65.537" height="1.186" fill="#bdcae2"></rect></g></g></g></g></g></g><g id="Rectangle_2535-2" data-name="Rectangle 2535" transform="translate(0 2.237)"><g id="Group_5612" data-name="Group 5612"><g id="Group_5611" data-name="Group 5611"><path id="Path_4219" data-name="Path 4219" d="M2129.183,2261.8h69.37a4.008,4.008,0,0,1,4.183,3.806V2315a4.008,4.008,0,0,1-4.183,3.806h-69.37A4.007,4.007,0,0,1,2125,2315v-49.4A4.008,4.008,0,0,1,2129.183,2261.8Z" transform="translate(-2125 -2261.797)" fill="#3a4e78"></path></g></g></g><g id="Group_5613" data-name="Group 5613" transform="translate(22.193 12.331)"><path id="Path_4220" data-name="Path 4220" d="M2242.018,2314.126l-.961-.961a1.132,1.132,0,0,0-.793-.337,1.09,1.09,0,0,0-.793.337l-9.951,9.9a1.008,1.008,0,0,0-.288.6l-.433,2.4c-.048.168.1.288.265.288h.048l2.4-.433a1.747,1.747,0,0,0,.6-.289l9.9-9.951A1.1,1.1,0,0,0,2242.018,2314.126Z" transform="translate(-2208.992 -2302.276)" fill="#fff"></path><path id="Path_4221" data-name="Path 4221" d="M2206.652,2320.135h-25.134v-31.51h25.11v11.443l1.663-1.641v-8.845a2.842,2.842,0,0,0-2.837-2.836h-22.763a2.841,2.841,0,0,0-2.836,2.836v31.152a2.841,2.841,0,0,0,2.836,2.836H2205.5a2.841,2.841,0,0,0,2.836-2.836v-14.807l-1.687,1.641Zm-12.567,2.332a.615.615,0,1,1,.615-.615A.615.615,0,0,1,2194.085,2322.467Z" transform="translate(-2179.855 -2286.746)" fill="#fff"></path><path id="Path_4222" data-name="Path 4222" d="M2198.891,2346.1a1.431,1.431,0,0,0,1.442-1.442v-1.779a.524.524,0,0,1,.505-.5h3.7a.625.625,0,1,0,0-1.25h-3.677a1.79,1.79,0,0,0-1.779,1.779v1.778a.168.168,0,1,1-.337,0v-3.966a1.682,1.682,0,1,0-3.365,0v1.394a.431.431,0,0,1-.433.433h-3.774a.625.625,0,1,0,0,1.25h3.8a1.688,1.688,0,0,0,1.683-1.682v-1.394a.43.43,0,0,1,.432-.433.4.4,0,0,1,.433.433v3.966A1.324,1.324,0,0,0,2198.891,2346.1Z" transform="translate(-2186.223 -2317.877)" fill="#d46732"></path></g></g><g id="Group_5622" data-name="Group 5622" transform="translate(2205.843 2112.609)"><g id="Rectangle_2502-3" data-name="Rectangle 2502" transform="translate(2.82 2.607)" opacity="0.2"><g id="Group_5616" data-name="Group 5616"><g id="Group_5615" data-name="Group 5615"><rect id="Rectangle_20035" data-name="Rectangle 20035" width="65.305" height="65.934" rx="12.342" fill="#bdcae2"></rect></g></g></g><g id="Group_5618" data-name="Group 5618"><g id="Group_5617" data-name="Group 5617"><rect id="Rectangle_20036" data-name="Rectangle 20036" width="65.305" height="65.934" rx="10.285" fill="#efefef"></rect></g></g><g id="Group_5621" data-name="Group 5621" transform="translate(15 15.314)"><g id="Group_5619" data-name="Group 5619" transform="translate(9.132 8.207)"><circle id="Ellipse_107" data-name="Ellipse 107" cx="5.992" cy="5.992" r="5.992" transform="translate(2.711)" fill="#3a4e78"></circle><path id="Path_4223" data-name="Path 4223" d="M2384.471,2510.062a8.7,8.7,0,1,1,17.407,0Z" transform="translate(-2384.471 -2490.166)" fill="#3a4e78"></path></g><g id="Group_5620" data-name="Group 5620"><path id="Path_4224" data-name="Path 4224" d="M2369.083,2453.406h-6.129a1.055,1.055,0,0,0-1.054,1.055v6.128" transform="translate(-2361.9 -2453.406)" fill="none" stroke="#3a4e78" stroke-miterlimit="10" stroke-width="1"></path><path id="Path_4225" data-name="Path 4225" d="M2438.6,2460.589v-6.128a1.055,1.055,0,0,0-1.054-1.055h-6.129" transform="translate(-2403.289 -2453.406)" fill="none" stroke="#3a4e78" stroke-miterlimit="10" stroke-width="1"></path><path id="Path_4226" data-name="Path 4226" d="M2431.412,2530.1h6.129a1.054,1.054,0,0,0,1.054-1.054v-6.129" transform="translate(-2403.289 -2494.795)" fill="none" stroke="#3a4e78" stroke-miterlimit="10" stroke-width="1"></path><path id="Path_4227" data-name="Path 4227" d="M2361.9,2522.918v6.129a1.054,1.054,0,0,0,1.054,1.054h6.129" transform="translate(-2361.9 -2494.795)" fill="none" stroke="#3a4e78" stroke-miterlimit="10" stroke-width="1"></path></g></g></g></g></svg>