<?xml version="1.0" encoding="UTF-8"?>
<svg xmlns="http://www.w3.org/2000/svg" xmlns:xlink="http://www.w3.org/1999/xlink" id="Group_21590" data-name="Group 21590" viewBox="0 0 16 14.195">
  <defs>
    <clipPath id="clip-path">
      <rect id="Rectangle_37257" data-name="Rectangle 37257" width="16" height="14.195" fill="#24282d"></rect>
    </clipPath>
  </defs>
  <g id="Group_21479" data-name="Group 21479" clip-path="url(#clip-path)">
    <path id="Path_42954" data-name="Path 42954" d="M227.646,9.258c-.382-1.326-.98-1.577-2.031-2.043-.786-.349-1.573-.75-1.919-.931a2.662,2.662,0,0,0,.657-1.171c.837-.838.706-1.981.405-2V2.339c.006-.067.009-.134.009-.2A2.175,2.175,0,0,0,222.428,0a2.221,2.221,0,0,0-2.284,1.644l.036.03a2.782,2.782,0,0,1,.94,2.122c0,.078,0,.158-.01.246v.575a.982.982,0,0,1,.16.284,2.619,2.619,0,0,1-.668,2.479,3.644,3.644,0,0,1-.393.856c.423.213.986.487,1.543.734l.041.018a3.536,3.536,0,0,1,2.454,2.4,20.142,20.142,0,0,0,3.172-.46c.585-.2.609-.346.227-1.673" transform="translate(-211.901)" fill="#24282d"></path>
    <path id="Path_42955" data-name="Path 42955" d="M11.9,48.164c-.426-1.476-1.09-1.755-2.261-2.274-.875-.388-1.75-.835-2.136-1.036a2.962,2.962,0,0,0,.731-1.3c.931-.933.786-2.205.451-2.228v-.861c.006-.075.01-.149.01-.224a2.421,2.421,0,0,0-2.6-2.378,2.421,2.421,0,0,0-2.6,2.378c0,.072,0,.144.009.216v.871c-.32.063-.446,1.29.446,2.2a2.968,2.968,0,0,0,.737,1.324c-.386.2-1.261.648-2.136,1.036-1.17.519-1.835.8-2.261,2.274s-.4,1.636.253,1.862a28.572,28.572,0,0,0,5.554.612,28.572,28.572,0,0,0,5.554-.612c.652-.226.678-.386.253-1.862" transform="translate(0 -36.442)" fill="#24282d"></path>
  </g>
</svg>
