<?xml version="1.0" encoding="UTF-8"?>
<svg xmlns="http://www.w3.org/2000/svg" xmlns:xlink="http://www.w3.org/1999/xlink" id="Group_21487" data-name="Group 21487" viewBox="0 0 19 14.814">
  <defs>
    <clipPath id="clip-path">
      <rect id="Rectangle_37262" data-name="Rectangle 37262" width="19" height="14.814" fill="#e2e2e2"></rect>
    </clipPath>
  </defs>
  <g id="Group_21481" data-name="Group 21481" clip-path="url(#clip-path)">
    <path id="Path_42958" data-name="Path 42958" d="M39.463,184.086a.954.954,0,0,0-.279-.466l-.214-.214a.821.821,0,0,0-1-.032l-.836,1.029c-.005.011-.016.016-.021.027a.375.375,0,0,0,0,.525l.525.525a.464.464,0,0,0,.316.091.608.608,0,0,0,.407-.129l.171-.171.857-.857a.344.344,0,0,0,.07-.327" transform="translate(-35.026 -173.404)" fill="#e2e2e2"></path>
    <path id="Path_42959" data-name="Path 42959" d="M73.983,209.281a.525.525,0,0,0-.145-.359l-.375-.375a.555.555,0,0,0-.4-.166.546.546,0,0,0-.4.166l-.134.134-.846.846-.005.005a.453.453,0,0,0,.005.632l.536.53a.416.416,0,0,0,.129.086.36.36,0,0,0,.15.032.407.407,0,0,0,.279-.113l.155-.155a1.131,1.131,0,0,1,.1-.123l.873-.873a.569.569,0,0,0,.07-.268" transform="translate(-67.725 -197.217)" fill="#e2e2e2"></path>
    <path id="Path_42960" data-name="Path 42960" d="M107.689,233.067l-.214-.214a.595.595,0,0,0-.836,0l-.1.1a.877.877,0,0,1-.113.134l-.863.863a.374.374,0,0,0,.059.445l.525.525a.372.372,0,0,0,.525,0L107.8,233.8l.005-.005a.357.357,0,0,0,.118-.316.774.774,0,0,0-.23-.407" transform="translate(-99.862 -220.215)" fill="#e2e2e2"></path>
    <path id="Path_42961" data-name="Path 42961" d="M13.421,14.461c-.761-.52-2.523-1.768-3.091-2.17a2.365,2.365,0,0,1-1.859.343c-.605,1-1.238,1.516-1.88,1.543a1.422,1.422,0,0,1-1.163-.605.333.333,0,0,1-.038-.284l1.066-3.048a9.539,9.539,0,0,1-2.534-.616.712.712,0,0,0-.857.279L.113,14.525a.709.709,0,0,0,.059.846l2.582,3.011a1.468,1.468,0,0,1,1.623.225l.214.214a1.671,1.671,0,0,1,.45.782c0,.005.005.011.005.016a1.2,1.2,0,0,1,.279-.032,1.187,1.187,0,0,1,.846.348l.375.375a1.124,1.124,0,0,1,.316.611,1.258,1.258,0,0,1,.321-.043,1.2,1.2,0,0,1,.863.359l.214.214a1.377,1.377,0,0,1,.413.766,1.011,1.011,0,0,1-.064.5l2.073,1.034a.974.974,0,0,0,.766-.054,1.374,1.374,0,0,0,.541-.975L9.864,21.265a.316.316,0,0,1,.359-.52L12.494,22.3c.407.188.938.354,1.227.129.327-.252.316-.959.273-1.313h-.005l-2.866-2.079a.318.318,0,0,1,.375-.514l2.872,2.1a.562.562,0,0,0,.3.113.4.4,0,0,0,.316-.118c.134-.134.359-.5.375-1.495l-3.316-2.314a.316.316,0,1,1,.359-.52l3.375,2.357a.812.812,0,0,0,.729-.252c.236-.343.032-1.034-.08-1.318a34.15,34.15,0,0,0-3.006-2.62" transform="translate(0 -9.061)" fill="#e2e2e2"></path>
    <path id="Path_42962" data-name="Path 42962" d="M125.856,5.174,123.028.352A.7.7,0,0,0,122.3.009a26.323,26.323,0,0,1-5.02.129A1.215,1.215,0,0,0,116.84.2l-2.738.943-1.093,3.118a.723.723,0,0,0,.52.22c.445-.021.97-.536,1.484-1.452a.32.32,0,0,1,.418-.129,1.677,1.677,0,0,0,1.677-.316.322.322,0,0,1,.37-.005c.021.016,2.363,1.677,3.263,2.288a32.4,32.4,0,0,1,2.909,2.513,5.837,5.837,0,0,0,1.136-.514h.005c.011-.005.016-.011.027-.016h.005a3.342,3.342,0,0,0,1.013-.911.73.73,0,0,0,.021-.766" transform="translate(-106.954 0)" fill="#e2e2e2"></path>
  </g>
</svg>
