<svg xmlns="http://www.w3.org/2000/svg" id="Layer_1" data-name="Layer 1" viewBox="0 0 450 138"><defs><style> .cls-1 { fill: #0f2c52; } .cls-2 { fill: #f2672a; } .cls-3 { fill: #808486; } </style></defs><path class="cls-1" d="M248.23,47.18h-1.71v65.03h1.71V47.18Z"></path><path class="cls-1" d="M81.98,112.33c-1.59,0-2.78-1.41-2.78-2.68v-52.86c0-2.66-2.04-3.9-3.56-3.9h-13.7c-1.31,0-2.6-1.41-2.6-2.86s1.26-2.77,2.6-2.77h39.72c1.53,0,2.68,1.19,2.68,2.77,0,1.39-.94,2.86-2.68,2.86h-17.08v56.75c0,1.21-1.16,2.68-2.6,2.68"></path><path class="cls-1" d="M118.11,112.33c-1.48,0-2.69-1.21-2.69-2.68v-59.61c0-1.43,1.25-2.68,2.69-2.68h34.08c1.44,0,2.69,1.25,2.69,2.68,0,1.53-1.25,2.86-2.69,2.86h-27.19c-1.87,0-4.11,1.15-4.11,4.38v16.03h27.99c1.71,0,2.78,1.48,2.78,2.85s-1.14,2.77-2.78,2.77h-27.99v30.73c0,1.45-1.27,2.68-2.78,2.68"></path><path class="cls-1" d="M210.72,107.92l-15.65-24.03c-.54-.84-1.01-2.33-1.01-4.16,0-2.49,1.05-4.39,1.42-4.94l15.27-23.43c.49-.62.77-2.61-.67-3.64-1.18-.84-2.98-.84-4.07.9l-16.95,26.03-16.96-26.03c-.54-.92-2-2.12-3.97-.97-1.13.66-1.56,2.56-.75,3.76l18.43,28.24-18.4,28.26c-.65,1.04-.73,2.9.67,3.89.93.65,2.86.6,3.84-.88l17.14-26.28,17.14,26.28c.8,1.23,2.7,1.65,3.84.88,1.42-.96,1.28-2.81.68-3.89"></path><path class="cls-1" d="M53.64,112.37c-1.18,0-2.08-.85-2.4-1.63l-20.05-47.37c-.67-1.06-1.57-1.65-2.54-1.65-1.15,0-2.25.84-2.95,2.24L6.04,110.77s-.89,2.14-3.58,1.33c-1.63-.49-1.88-2.41-1.5-3.4l25.23-59.63c.16-.33.65-1.67,2.49-1.71.93-.02,2.08.66,2.56,1.86l24.98,59.46c.16.35.4,1.12,0,2.07-.24.58-.76,1.09-1.36,1.36-.59.26-1.09.29-1.22.29"></path><path class="cls-2" d="M3,91.81c-1.66,0-3-1.34-3-2.99s1.35-3,3-3h37.67l2.54,5.99H3Z"></path><path class="cls-3" d="M355.66,29.48c1.18.84.12,2.75,1.55,3.32,5.4,1.53,12.14,1.29,17.66.2,2.27-.24.41-2.51,1.95-3.4-.29-1.7,1.18-2.71,1.67-4.09.49-.85-1.18-1.09-1.58-1.26l-.2,1.74c-.49,0-.86-.69-1.26-.57l-.56,1.54c.53-.04,1.01.03,1.46.28.04.16-.12.2-.2.28-.86.57-2.23.73-3.12.21-.32-.33-1.1-.6-.89-1.25.16-.24.41-.69.81-.57.45,0,.54.57.77.77.36-.16.69-.57.69-.97-.08-.77-.93-.93-1.58-.97l.29-1.38c-.24-.28-.17-.97-.77-.85-.85.36-.74,1.34-.85,2.1l-1.38-.09c-.57.21-.57.97-.41,1.46.32.2.61-.33.97-.28.32.12.57.44.48.77-.65,1.05-2.11.81-3.09.57-.61-.21-1.1-.85-.97-1.53.48-.61,1.3-.04,1.83-.21l-.08-2.3c-.53.04-1.1.41-1.58.28.04-.65.53-1.25.41-1.74-.98-.32-1.91.12-2.92,0l.57,1.62c-.48.36-1.13-.24-1.62-.16v2.42l1.14-.2c.44,0,.8.28.68.77-.57,1.13-1.82,1.41-3.12,1.25-.53-.08-1.3-.72-.86-1.34.45-.61.86.36,1.34,0,.2-.45.12-1.05-.29-1.29-.44-.41-1.05,0-1.54,0l-.12-1.34c-.09-.45-.57-.85-1.05-.77-.57.61-.36,1.66-.29,2.31h-.61c-.45.16-.93.6-.78,1.17.17.28.45.65.78.69v-.28c.29-.21.41-.65.77-.48.37.16.69.53.69.97-.56,1.09-1.82,1.05-2.92,1.13-.45-.24-1.18-.16-1.26-.84l1.46-.28c-.21-.53-.44-1.05-.69-1.58l-1.18.69c-.04-.48-.24-1.17-.16-1.86-.57.36-1.34.45-1.78.97.69,1.46,1.91,2.63,1.78,4.37M375.07,28.92c.41-.16,1.26-.93,1.46-.08-.12.44-.12,1.38-.69,1.13-.28-.32-.85-.57-.77-1.05ZM374.46,32.52c-.33.32-.77.45-1.26.41-.41-1.78-2.72-1.05-4.18-1.38-3.12-.16-6.37-.16-9.3.41-.41.16-.16.6-.36.85-.53.28-1.18,0-1.46-.49.21-1.01,1.42-.77,2.15-1.17,4.63-.65,9.9-.53,14.21.69.33.12.16.44.21.69ZM370.65,27.54c.81-.04,1.51.04,1.96.69.08.53-.37.89-.86.89-.56-.08-1.21-.16-1.46-.77-.03-.36.04-.69.37-.81M365.97,27.17c.61-.12.98.36,1.46.57-.08.6-.73.6-1.05.97-.61.04-.89-.48-1.38-.77.09-.45.69-.41.98-.77M361.1,27.46c.53-.04,1.01-.04,1.38.41.21.69-.65.97-1.1,1.13-.49.04-.98.04-1.26-.36-.12-.65.45-1.01.98-1.17ZM358.59,30.37c4.78-1.25,11-1.5,15.67.2l.29.28v.28c-4.87-.89-10.76-1.22-15.8-.08-.29.03-.57.36-.85.08-.08-.36.36-.72.69-.77ZM356.15,28.43c.53-.04.97.16,1.34.48-.12.4-.45.84-.86,1.05-.44.09-.48-.53-.61-.84l.12-.69Z"></path><path class="cls-3" d="M379.24,39.1c1.42-1.37,3.17-2.02,5.16-2.15-2.43-.69-5.04-.12-6.89,1.38-1.79-.77-3.9-1.38-5.97-.89,1.66.53,3.45.84,4.79,1.94-2.76,3.19-4.46,6.75-6.25,10.31-1.7-.93-2.6-2.75-3.82-4.08-.89,1.45-2.03,2.83-3.41,4.08h-.29c-1.87-3.56-3.45-7.23-6.25-10.39,1.42-1.01,3.17-1.34,4.79-1.86-1.75-.28-4.26.08-6.13.81-1.75-1.5-4.43-1.94-6.66-1.29,1.99.12,3.94.72,5.08,2.34-1.3.97-2.55,2.34-3.41,3.68-1.3,2.27-2.11,5.5-.77,7.96,1.25,2.22,3.65,3.84,6.33,3.68,2.11.21,3.78-1.09,5.56-1.33.77,2.03,1.75,3.96,2.92,5.82,1.58,1.09-.33,2.26-.86,3.19-2.85,3.6-7.22,5.95-11.61,4.49.73.53,1.46,1.09,2.31,1.33,5.11,1.3,9.14-2.34,12.5-5.62,2.4,2.71,5.23,5.06,8.56,5.83,2.23.41,4.63-.12,5.97-1.53l-2.27.36c-4.63.24-8.64-3.15-10.72-7.08,1.46-2.22,2.68-4.53,3.69-6.91,2.2.93,4.59,1.94,7.15,1.37,2.19-.36,3.94-2.1,4.87-4.09,1.54-4.45-1.1-8.49-4.39-11.36M352.9,51.24c-1.75-1.38-2.32-3.65-1.75-5.82.49-1.98,1.7-3.6,3.41-4.94,2.72,3.15,4.14,7.03,5.64,10.76-1.99,1.33-5.28,1.33-7.3,0ZM366.38,57.37c-1.42-1.65-1.95-3.84-2.92-5.74.45-1.05,1.58-1.7,2.32-2.71l.49-.77,2.92,3.28c-.61,2.1-1.75,4-2.8,5.94ZM381.08,49.78c-1.13,1.98-3.2,2.51-5.36,2.55-1.18-.16-2.27-.45-3.29-.97,1.39-3.8,2.84-7.56,5.56-10.8,1.1.41,1.87,1.62,2.52,2.55,1.06,1.86,1.71,4.61.57,6.67"></path><path class="cls-3" d="M356.87,101.15c4.04,0,4.71-.11,6.31-3.03.39-.39,1.66-.39,1.88.33-.5,3.42-1.77,7.22-2.71,8.54-2.21-.11-4.21-.16-7.74-.16h-8.8c-2.88,0-5.26.05-6.19.16-.5-.11-.67-.72-.55-1.22,2.1-1.93,5.26-4.85,8.57-8.49,3.82-4.19,7.25-8.82,7.25-14.72,0-3.8-2.33-6.72-6.03-6.72-3.16,0-5.36,2.04-7.14,5.07-.67.44-1.71.11-1.83-.78,2.27-5.57,7.36-8.6,12.73-8.6,6.47,0,10.46,4.19,10.46,9.37,0,4.3-1.71,7.39-8.36,13.62l-2.66,2.48c-2.43,2.26-2.93,3.03-2.93,3.47,0,.33.28.66,1.05.66h6.7v.02Z"></path><path class="cls-3" d="M390.51,70.77c.44,0,.61.28.61.66-.5,2.09-1.66,4.35-3.05,5.68l-12.5,1.38c-.78.11-1.05.66-1.27,1.59l-.33,1.27c-.33,1.27.39,1.49,1.5,1.59,2.93.33,8.08,1.1,11.29,2.7,3.1,1.54,5.86,4.63,5.86,9.2,0,5.73-3.37,9.43-7.97,11.91-4.59,2.48-10.35,3.52-14.99,3.64-.83-.39-1.06-2.09-.33-2.59,3.99-.16,8.47-.94,11.06-2.48,3.26-1.93,5.15-4.47,5.15-7.44,0-7.89-8.3-8.71-13.83-9.15-1.77-.11-1.99-.6-1.66-1.87l3.32-12.68c.39-1.43.72-1.43,2.49-1.65l14.66-1.77h-.02Z"></path><path class="cls-3" d="M414.12,126.36c-3.18-1.15-6.39-2.18-9.62-3.09.34-1.49.68-2.98,1.02-4.46-25.79-7.31-52.82-7.31-78.61,0,.34,1.49.68,2.98,1.02,4.46-3.23.91-6.44,1.95-9.62,3.09,2.44,1.27,4.82,2.6,7.15,3.98-1.32,2.54-2.57,5.09-3.74,7.66,5.12-1.85,10.31-3.37,15.55-4.57-.28-1.51-.55-3.01-.83-4.52,19.65-4.48,39.92-4.48,59.58,0-.28,1.51-.55,3.01-.83,4.52,5.23,1.2,10.43,2.71,15.55,4.57-1.17-2.57-2.42-5.13-3.74-7.66,2.32-1.39,4.71-2.72,7.14-3.98h-.02ZM348.55,116.14l-.35.12c-.24.08-.54.22-.66.44-.16.29-.42.83-.89,2.12l-.62,1.68c-.26.7-.3,1.05-.18,1.83l.15.96c.2,1.27.3,1.36.93,1.35l.55-.02c.11.07.15.38.08.47-.89.11-1.57.2-2.22.3-.66.1-1.34.22-2.14.37-.12-.06-.17-.38-.08-.47l.45-.14c.6-.19.67-.3.47-1.56l-.1-.68c-.1-.68-.16-.9-.62-1.56l-2.14-3.09c-.36-.52-.52-.72-1-.72h-.48c-.14-.1-.17-.43-.02-.5.62-.07,1.12-.13,1.93-.26.83-.13,1.53-.25,1.99-.34.13.03.21.34.1.47l-.45.18c-.23.09-.31.15-.31.17.02.11.12.3.5.9l.87,1.36c.28.41.68.99.9,1.31.29-.72.58-1.68.83-2.43.35-1.04.44-1.47.42-1.64,0-.08-.24-.13-.58-.13l-.27-.02c-.12-.05-.19-.39-.06-.48.55-.06,1.05-.12,1.54-.2.52-.08.94-.15,1.33-.24.17.03.23.35.13.47l.02-.02ZM359.3,123.99c-.73.03-2.06.11-3.18.19l-1.79.13c-.66.05-1.33.11-2.37.22-.11-.08-.14-.41-.03-.48l.64-.15c.61-.14.69-.23.6-1.49l-.38-5.12c-.1-1.25-.18-1.33-.81-1.4l-.35-.04c-.13-.08-.14-.39,0-.48.65-.02,1.32-.06,1.99-.1l2.92-.22c.88-.07,1.67-.14,1.84-.18.03.22.2,1.2.34,2.11-.04.15-.36.21-.5.1-.19-.46-.42-.87-.61-1.04-.29-.24-.71-.38-1.38-.33l-1.1.08c-.46.04-.45.06-.42.57l.18,2.4c.03.39.04.41.42.39l.95-.07c.72-.05.87-.16.96-.83l.04-.34c.09-.12.43-.14.51-.03,0,.44.03.94.07,1.46.03.53.09,1.02.15,1.46-.06.13-.41.16-.51.05l-.1-.34c-.19-.65-.36-.75-1.07-.7l-.95.07c-.37.03-.39.04-.36.46l.12,1.64c.04.63.14,1.07.32,1.28.2.23.47.33,1.47.25,1.2-.09,1.66-.16,2.31-1.78.1-.15.45-.13.52.04,0,.71-.25,1.85-.42,2.24h-.03ZM371.46,123.93c-.67-.03-1.41-.05-2.13-.06-.69,0-1.23,0-1.87.03-.15-.09-.17-.37-.03-.48l.44-.07c.32-.05.37-.15.37-.23,0-.09-.1-.43-.25-.94l-.36-1.19c-.07-.22-.18-.25-.66-.25l-1.64-.02c-.33,0-.37,0-.46.27l-.55,1.6c-.09.28-.1.39-.1.49,0,.09.18.16.56.24l.42.07c.08.09.1.41-.04.48-.48-.03-.98-.03-1.56-.05-.47,0-.79.03-1.43.03-.15-.09-.14-.37-.04-.48l.37-.03c.33-.03.61-.15.85-.68.24-.55.51-1.21.89-2.2l1.29-3.34c.33-.86.56-1.34.53-1.74.67-.15,1.19-.82,1.21-.82.18,0,.26.07.31.28.1.4.27.91.61,1.9l1.83,5.41c.28.83.41,1.15.92,1.23l.53.09c.09.07.1.4-.02.48h0ZM383.2,124.87c-.23.08-.67.06-1.1.02-1.26-.12-2.02-.65-2.53-1.69-.37-.77-.62-1.47-.87-2.22-.13-.39-.34-.52-.68-.55-.48-.04-.51-.02-.54.25l-.16,1.69c-.12,1.26-.04,1.36.56,1.53l.36.1c.09.08.06.4-.04.48-.73-.1-1.36-.17-2.01-.23-.69-.07-1.3-.11-2.02-.15-.1-.1-.07-.42.04-.48l.38-.03c.63-.05.72-.14.84-1.4l.47-4.85c.13-1.37.12-1.53-.45-1.66l-.36-.09c-.13-.08-.1-.42.08-.47,1.04.03,2.12.08,3.43.2,1.17.11,2.15.39,2.65.75.75.54,1.1,1.27,1.01,2.15-.12,1.22-.99,1.66-1.65,1.91-.15.05-.16.14-.1.29.74,1.92,1.19,3.01,1.81,3.63.33.32.68.44.88.47.12.08.1.28.02.36h0ZM392.74,119.45c-.1.15-.44.1-.54-.05-.11-.73-.52-1.83-1.5-2-.9-.15-1.5.34-1.61,1.02-.11.62.35,1.29.96,1.77l.81.63c.76.59,1.7,1.57,1.44,3.07-.29,1.67-1.86,2.51-3.92,2.15-1.26-.22-1.96-.71-2.22-.92-.21-.35-.21-1.35-.04-2.28.13-.16.44-.12.53.05.11.93.8,2.34,1.96,2.54,1,.18,1.59-.43,1.71-1.11.2-1.1-.73-1.93-1.47-2.48-.89-.66-1.83-1.66-1.58-3.01.26-1.53,1.64-2.38,3.62-2.03.45.08.99.23,1.51.49.16.09.28.14.44.19.05.32.06,1.08-.1,1.98Z"></path><path class="cls-3" d="M378.53,115.94c-.56-.05-.6-.02-.66.65l-.26,2.67c-.04.48,0,.53.8.6.49.04.8-.05,1.08-.28.26-.21.56-.62.64-1.43.12-1.23-.54-2.09-1.61-2.2h0Z"></path><path class="cls-3" d="M366.85,118.5c-.19-.59-.43-1.34-.55-1.63-.11.32-.4,1.06-.61,1.69l-.35,1.03c-.13.37-.06.41.29.41h1.3c.32.02.39-.03.28-.39l-.35-1.12Z"></path><path class="cls-3" d="M293.13,84.27c.02,1.16-.24,1.34-1.18,1.39l-7.07.34-.03-.74c-.08-1.52.16-1.91,1.66-2.28l-.02-.33-2.34.2.38,7.77,2.35-.03-.02-.33c-1.52-.23-1.81-.59-1.88-2.1l-.03-.74,6.92-.34c1.02-.05,1.34-.03,1.46,1.23h.26l-.2-4.04h-.26Z"></path><path class="cls-3" d="M292.6,71.81l-6.12-.59c-.98-.09-1.14-.28-1.12-1.33l-.26-.03-.37,3.82.26.03c.18-1.01.34-1.19,1.36-1.09l2.67.26-.41,4.16-2.67-.26c-.98-.09-1.14-.28-1.12-1.33l-.26-.03-.37,3.82.26.03c.18-1.01.34-1.19,1.36-1.09l5.97.59c1.04.1,1.33.19,1.27,1.34l.26.03.37-3.82-.26-.03c-.17,1.07-.45,1.17-1.36,1.09l-2.84-.28.41-4.16,2.69.26c1.04.1,1.33.19,1.27,1.34l.26.03.37-3.82-.26-.03c-.17,1.07-.45,1.18-1.36,1.09h0Z"></path><path class="cls-3" d="M294.24,60.66c1.21.93,1.45,1.7,1.02,3.37-.5,1.99-.52,1.99-1.06,1.85l-3.33-.84.54-2.05c.29-1.11.53-1.26,1.64-1.15l.08-.31-3.11-.78-.08.31c.92.39,1.2.6.91,1.79l-.52,2.06-2.98-.74c-.46-.11-.42-.28-.35-.55l.46-1.81c.37-1.48.67-1.78,1.92-1.68l.09-.34-1.93-.44-1.79,7.11.26.06c.28-.83.44-1.13,1.5-.86l5.97,1.49c1.04.26,1.08.59.92,1.47l.26.06,1.82-7.23-2.12-1.17-.1.37h-.02Z"></path><path class="cls-3" d="M299.12,43.78c-2.78-1.39-5.11-.09-6.6,2.86l-1.68,3.34.23.12c.55-.91.74-.98,1.66-.53l5.5,2.75c.86.43.99.68.57,1.65l.23.12,1.76-3.51c1.9-3.77-.03-5.96-1.69-6.78v-.02ZM300.13,50.76c-.29.59-.46.7-.88.48l-6.29-3.14c-.25-.12-.48-.24-.19-.82.78-1.55,1.46-2.08,2.29-2.4,1.19-.47,2.35-.27,3.39.26,3.61,1.8,2.08,4.83,1.68,5.63h0Z"></path><path class="cls-3" d="M306.38,35.03l-2.93-2.1c-1.19-.84-1.21-1.15-.68-2.09l-.22-.16-1.88,2.6.22.16c.61-.75.99-.89,2.2-.03l3.04,2.17c.91.65,1.2,1.03,1.34,1.35.29.71.19,1.6-.44,2.47-1.41,1.95-2.97.83-3.69.32l-3.6-2.58c-.8-.57-.85-.81-.28-1.74l-.22-.16-2.29,3.17.22.16c.67-.81.91-.88,1.74-.28l3.51,2.52c.68.48,2.87,2.05,4.87-.72,2.09-2.9-.02-4.42-.92-5.06h.02Z"></path><path class="cls-3" d="M315.49,27.77l-4.73-.15v-3.69c0-1.38.18-1.61.72-2.25l-.19-.18-2.55,2.57.19.18c.49-.47.7-.63.97-.36.34.33.32.88.11,5.07l-2.01-1.99c-.73-.72-.7-.97,0-1.78l-.19-.18-2.77,2.78.19.18c.71-.62.99-.77,1.77,0l4.26,4.21c.8.79.84,1.06.12,1.86l.19.18,2.75-2.77-.19-.18c-.8.72-1.07.69-1.77,0l-1.84-1.82.04-.46,2.07-.02c.67,0,2.61.05,2.92.35.22.22.06.39-.43.93l.19.18,2.98-2.99-.19-.18c-.54.58-1.26.55-2.6.49h0Z"></path><path class="cls-3" d="M324.46,19.85c.35,1.48.04,2.22-1.34,3.26-1.65,1.23-1.66,1.22-2,.77l-2.06-2.74,1.72-1.25c.93-.67,1.21-.65,2.01.14l.25-.19-1.93-2.56-.25.19c.47.88.55,1.22-.43,1.96l-1.71,1.28-1.84-2.45c-.29-.38-.15-.47.09-.65l1.5-1.12c1.23-.92,1.65-.96,2.56-.09l.28-.21-1.22-1.55-5.88,4.4.16.21c.74-.47,1.05-.59,1.71.28l3.68,4.9c.64.85.46,1.14-.22,1.72l.15.21,5.99-4.47-.91-2.24-.31.23Z"></path><path class="cls-3" d="M336.8,15.95c2.28-1.03,3.37-3.51,2.16-6.19-1.32-2.89-4.03-3.42-6.11-2.49-2.07.93-3.46,3.32-2.15,6.21,1.22,2.68,3.81,3.49,6.09,2.46ZM332.13,12.82c-1.31-2.87-.36-4.52.92-5.1,1.29-.58,3.15-.2,4.45,2.67,1.26,2.77.48,4.46-.92,5.1-1.4.63-3.2.09-4.46-2.67Z"></path><path class="cls-3" d="M342.05,5.51l1.67,5.74c.32,1.09.22,1.34-.77,1.67l.07.25,3.73-1.08-.08-.25c-.96.23-1.27.15-1.56-.84l-.85-2.9,1.94-.53c1-.28,1.36-.23,1.83.84l.3-.09-.89-3.08-.3.09c.15,1.03,0,1.37-1.1,1.68l-1.93.56-.86-2.95c-.11-.4-.03-.47.3-.57l1.81-.53c1.48-.42,1.89-.31,2.43.81l.33-.09-.59-1.89-7.07,2.04.07.25c.86-.17,1.2-.19,1.51.86h.02Z"></path><path class="cls-3" d="M357.7,2.12l.48,6.11c.09,1.06-.23,1.21-1.1,1.34l.02.26,7.46-.59.44-2.37-.39.03c-.49,1.44-1.15,1.9-2.88,2.04-2.06.16-2.06.15-2.1-.41l-.27-3.41,2.13-.14c1.15-.08,1.37.1,1.63,1.19l.32-.03-.25-3.19-.32.03c-.08.99-.18,1.33-1.42,1.43l-2.13.16-.24-3.05c-.03-.47.13-.48.42-.5l1.86-.15c1.53-.12,1.91.07,2.21,1.28l.35-.03-.2-1.97-7.34.58.02.26c.87,0,1.21.06,1.3,1.15v-.03Z"></path><path class="cls-3" d="M376.84,5.2c.21-3.09-1.89-4.73-5.21-4.96l-3.73-.25-.02.26c1.06.16,1.2.3,1.13,1.32l-.41,6.11c-.06.97-.24,1.17-1.3,1.15l-.02.26,3.93.26c4.23.28,5.5-2.34,5.62-4.18v.03ZM369.99,8.21l.47-7c.02-.28.04-.53.68-.49,1.74.11,2.49.54,3.11,1.17.9.91,1.15,2.05,1.07,3.21-.27,4.01-3.67,3.78-4.55,3.72-.67-.04-.82-.16-.79-.62Z"></path><path class="cls-3" d="M383.02,10.7c-1-.22-1.31-.41-1.1-1.47l1.15-6.02c.21-1.09.56-1.11,1.57-.97l.05-.26-4.04-.77-.05.26c1.12.27,1.28.47,1.09,1.47l-1.15,6.02c-.18.97-.39,1.16-1.56.97l-.05.26,4.04.77.05-.26h0Z"></path><path class="cls-3" d="M388.21,12.04c-.95-.34-1.13-.72-.7-2.08l1.65-5.13h.03l3.49,9.07.23.07,2.22-6.91c.49-1.53.93-1.46,1.8-1.28l.08-.25-3.1-.99-.08.25c.87.35,1.21.58.73,2.09l-1.41,4.39h-.03l-3.02-7.95-2.26-.72-.08.25c.53.17.72.3,1.05,1.13l-1.87,5.79c-.46,1.42-.8,1.53-1.82,1.28l-.08.25,3.1.99.08-.25v.02Z"></path><path class="cls-3" d="M403.72,8.62l-3.47-1.73-.12.23c.99.56,1.09.79.63,1.71l-2.76,5.48c-.44.88-.69,1.01-1.75.52l-.12.23,4.13,2.07c2.75,1.37,3.85-.21,4.09-.67.65-1.29-.04-2.38-1-3.15v-.03c.64.15,1.87.41,2.55-.96.96-1.91-1.12-3.17-2.2-3.71h0ZM402.97,15.69c-.83,1.65-2.39,1.02-3.2.61-.72-.36-.92-.52-.68-.97l1.54-3.06c1.18.59,1.56.85,1.91,1.19.55.52.94,1.23.44,2.24h0ZM404.62,11.77c-.74,1.47-2.22.76-2.57.59l-1.18-.58,1.43-2.84c.1-.19.21-.34.45-.22.12.06.3.14.56.27.88.44,2.05,1.32,1.32,2.78Z"></path><path class="cls-3" d="M418.65,18.23l.16-.22-2.62-1.85-.16.22c.76.6.89.98.03,2.19l-2.16,3.04c-.65.91-1.03,1.21-1.35,1.34-.7.3-1.61.21-2.48-.42-1.96-1.39-.86-2.96-.35-3.67l2.56-3.6c.57-.8.8-.85,1.75-.28l.15-.22-3.2-2.26-.16.22c.82.66.89.9.29,1.73l-2.5,3.52c-.48.67-2.04,2.87.76,4.85,2.92,2.07,4.43-.05,5.07-.96l2.09-2.94c.84-1.18,1.15-1.22,2.08-.69h.02Z"></path><path class="cls-3" d="M421.69,27.05c.61.39,2.13,1.4,3.42.07,1.48-1.53.04-3.32-.85-4.17l-2.75-2.65-.18.19c.63.74.69.97-.02,1.71l-4.17,4.29c-.73.74-.97.91-1.82.19l-.18.19,2.76,2.65.18-.19c-.76-.81-.68-1.09-.03-1.76l1.89-1.96.58.52-.6,5.34,1.6,1.54.18-.19c-.39-.41-.46-.82-.42-1.3l.39-4.49h0ZM420.32,25.26l2.37-2.44c.28-.28.43-.27.97.24.41.4,1.69,1.68.41,3-1.38,1.42-2.89,0-3.74-.79h0Z"></path><path class="cls-3" d="M432.4,39.31l.2-.15-2.14-2.8-.2.15c.51.79.67,1.02-.24,1.71l-1.79,1.35c-.4.3-1.23-.27-1.8-1.02-1.3-1.71-.93-3.79,1.07-5.3,2.79-2.11,4.71-1.03,5.51.02,1.18,1.53.52,2.94-.05,3.84l.19.25,2.26-1.85-.18-.24c-.36.16-.69-.16-.76-.24-.27-.35-.29-1.13-1.13-2.24-1.77-2.33-4.71-2.36-6.56-.96-1.45,1.09-1.84,1.91-2.04,2.98-.25,1.42.35,2.9,1.18,3.98.93,1.21,2.67,2.19,2.83,2.07l2.21-1.68c.79-.59,1.02-.33,1.44.13h0Z"></path><path class="cls-3" d="M435.06,50.43l5.42-2.9c.86-.47,1.11-.41,1.68.48l.23-.12-1.82-3.38-.23.12c.41.94.38,1.17-.52,1.65l-2.37,1.27-1.98-3.69,2.37-1.27c.86-.47,1.11-.4,1.68.48l.23-.12-1.82-3.38-.23.12c.42.94.38,1.17-.52,1.65l-5.29,2.82c-.92.49-1.21.59-1.81-.41l-.23.12,1.82,3.38.23-.12c-.45-.98-.29-1.22.52-1.65l2.52-1.34,1.98,3.69-2.38,1.27c-.92.49-1.21.59-1.81-.41l-.23.12,1.82,3.38.23-.12c-.45-.98-.29-1.22.53-1.65l-.03.02Z"></path><path class="cls-3" d="M440.92,66.47c-.51-.3-1.73-1-2.18-2.64-.46-1.68.27-3.58,3.1-4.35,1.92-.53,2.94-.17,3.59.21.7.41,1.18,1.11,1.37,1.78.45,1.64-.36,2.89-1.67,3.6l.09.31,2.98-.94-.08-.28c-.47.02-.59-.42-.61-.49-.08-.29.12-1.28-.21-2.46-.63-2.29-2.86-4.09-5.86-3.27-3.33.9-3.98,3.56-3.38,5.71.67,2.45,2.66,3.14,2.69,3.15l.17-.3v-.02Z"></path><path class="cls-3" d="M444.17,77.27l3.59-.41c1.45-.16,1.68.04,1.91,1.09l.26-.03-.36-3.18-.26.03c.05.97-.14,1.32-1.62,1.49l-3.72.42c-1.12.13-1.58.04-1.91-.1-.69-.33-1.22-1.05-1.34-2.13-.28-2.39,1.64-2.6,2.52-2.71l4.4-.5c.98-.11,1.18.03,1.38,1.1l.26-.03-.44-3.88-.26.03c.05,1.05-.08,1.26-1.1,1.38l-4.29.49c-.82.09-3.51.4-3.12,3.8.41,3.55,2.99,3.26,4.09,3.13h0Z"></path><path class="cls-3" d="M449.74,81.33c-.13,1.01-.29,1.15-1.28,1.12l-5.99-.17c-.99-.03-1.32-.03-1.37-1.2h-.26l-.11,3.85h.26c.06-1.05.27-1.28,1.28-1.25l2.52.07c-.04.33-.06.59-.07.92-.04,1.45.18,2.34.74,2.95.22.24.76.86,1.84.9,1.76.05,2.54-1.64,2.6-3.54l.1-3.65h-.26,0ZM447.32,87.02c-2.1-.06-2.05-1.9-2.04-2.42,0-.29.03-.57.07-.83l3.6.1c.46,0,.47.16.45.58-.02.6-.1,2.62-2.08,2.57h0Z"></path><path class="cls-3" d="M309.11,95.03c1.18,0,1.38-.03,1.84-.89.11-.11.48-.11.55.09-.15,1-.52,2.1-.79,2.49-.65-.03-1.23-.05-2.26-.05h-2.57c-.84,0-1.53.02-1.81.05-.15-.03-.19-.21-.16-.35.61-.56,1.53-1.41,2.5-2.47,1.12-1.22,2.11-2.58,2.11-4.29,0-1.11-.67-1.97-1.76-1.97-.92,0-1.57.59-2.08,1.48-.19.13-.5.03-.54-.22.66-1.62,2.14-2.51,3.71-2.51,1.89,0,3.05,1.22,3.05,2.73,0,1.25-.5,2.15-2.44,3.97l-.78.72c-.71.65-.86.89-.86,1.02,0,.09.08.19.3.19h1.97Z"></path><path class="cls-3" d="M319.92,91.65c0,2.59-1.12,5.26-3.73,5.26s-3.73-2.67-3.73-5.26,1.12-5.26,3.73-5.26,3.73,2.77,3.73,5.26ZM316.19,96.17c1.23,0,1.38-3.09,1.38-4.52s-.15-4.52-1.38-4.52-1.38,3.09-1.38,4.52.15,4.52,1.38,4.52Z"></path><path class="cls-3" d="M328.31,91.65c0,2.59-1.12,5.26-3.73,5.26s-3.73-2.67-3.73-5.26,1.12-5.26,3.73-5.26,3.73,2.77,3.73,5.26ZM324.58,96.17c1.23,0,1.38-3.09,1.38-4.52s-.15-4.52-1.38-4.52-1.38,3.09-1.38,4.52.15,4.52,1.38,4.52Z"></path><path class="cls-3" d="M336.71,91.65c0,2.59-1.12,5.26-3.73,5.26s-3.73-2.67-3.73-5.26,1.12-5.26,3.73-5.26,3.73,2.77,3.73,5.26ZM332.98,96.17c1.23,0,1.38-3.09,1.38-4.52s-.15-4.52-1.38-4.52-1.38,3.09-1.38,4.52.15,4.52,1.38,4.52Z"></path><path class="cls-3" d="M402.61,95.03c1.18,0,1.38-.03,1.84-.89.11-.11.48-.11.54.09-.15,1-.52,2.1-.79,2.49-.65-.03-1.23-.05-2.26-.05h-2.57c-.84,0-1.53.02-1.81.05-.15-.03-.19-.21-.16-.35.61-.56,1.53-1.41,2.5-2.47,1.12-1.22,2.11-2.58,2.11-4.29,0-1.11-.67-1.97-1.76-1.97-.92,0-1.57.59-2.08,1.48-.19.13-.5.03-.54-.22.66-1.62,2.15-2.51,3.71-2.51,1.89,0,3.05,1.22,3.05,2.73,0,1.25-.5,2.15-2.44,3.97l-.78.72c-.71.65-.86.89-.86,1.02,0,.09.08.19.3.19h1.97Z"></path><path class="cls-3" d="M413.42,91.65c0,2.59-1.12,5.26-3.73,5.26s-3.73-2.67-3.73-5.26,1.12-5.26,3.73-5.26,3.73,2.77,3.73,5.26ZM409.69,96.17c1.23,0,1.38-3.09,1.38-4.52s-.15-4.52-1.38-4.52-1.38,3.09-1.38,4.52.15,4.52,1.38,4.52Z"></path><path class="cls-3" d="M419.4,95.03c1.18,0,1.38-.03,1.84-.89.11-.11.48-.11.55.09-.15,1-.52,2.1-.79,2.49-.65-.03-1.23-.05-2.26-.05h-2.57c-.84,0-1.53.02-1.81.05-.15-.03-.19-.21-.16-.35.61-.56,1.53-1.41,2.5-2.47,1.12-1.22,2.11-2.58,2.11-4.29,0-1.11-.67-1.97-1.76-1.97-.92,0-1.57.59-2.09,1.48-.19.13-.5.03-.54-.22.66-1.62,2.15-2.51,3.71-2.51,1.88,0,3.05,1.22,3.05,2.73,0,1.25-.5,2.15-2.44,3.97l-.78.72c-.71.65-.86.89-.86,1.02,0,.09.08.19.3.19h1.97Z"></path><path class="cls-3" d="M429.22,86.17c.13,0,.18.08.18.19-.15.61-.48,1.27-.89,1.65l-3.65.4c-.23.03-.31.19-.37.47l-.1.37c-.1.37.11.43.43.47.86.09,2.35.32,3.3.78.91.45,1.71,1.35,1.71,2.69,0,1.67-.99,2.75-2.33,3.47-1.34.72-3.02,1.03-4.38,1.06-.24-.11-.3-.61-.1-.76,1.16-.05,2.47-.28,3.23-.72.95-.56,1.51-1.3,1.51-2.17,0-2.3-2.42-2.54-4.03-2.67-.52-.03-.58-.17-.48-.54l.97-3.7c.11-.42.21-.42.73-.48l4.27-.52h0Z"></path></svg>