<svg xmlns="http://www.w3.org/2000/svg" width="80" height="80" viewBox="0 0 80 80" fill="none"><g clip-path="url(#clip0_577_586)"><path d="M11.52 68.64H69.0182V70.0363H11.52V68.64Z" fill="#F2672A"></path><path d="M57.3528 36.3927H22.4873V23.3308C22.5164 13.5127 30.4873 5.58539 40.3055 5.59993C44.9891 5.59993 49.4837 7.4763 52.8 10.7927C56.16 14.0945 58.0509 18.6181 58.0509 23.3308V36.3927H57.3528ZM23.8837 34.9381H56.6546V23.3308C56.5528 14.2836 49.1491 7.02539 40.1018 7.11266C31.1855 7.19993 23.9855 14.4145 23.8837 23.3308V34.9381Z" fill="#F2672A"></path><path d="M12.3346 77.7456H68.2036V36.931H60.2182V23.3456C60.2182 12.3492 51.2873 3.44741 40.3055 3.46195H40.2764C29.2946 3.46195 20.4073 12.3638 20.3927 23.3456V36.931H12.3491V77.7456H12.3346ZM68.4946 79.8983H12.0436C11.04 79.8256 10.24 79.0401 10.1818 78.0365V36.6401C10.1818 36.1456 10.3855 35.6801 10.7636 35.3601C11.0982 35.011 11.5636 34.7929 12.0436 34.7783H18.2255V23.3456C18.3273 11.1565 28.2618 1.36741 40.4364 1.45468C52.48 1.54195 62.2255 11.2874 62.3127 23.331V34.7638H68.4946C69.4982 34.822 70.2982 35.622 70.3564 36.6256V78.022C70.3418 78.502 70.1236 78.9674 69.7746 79.302C69.44 79.6656 68.9891 79.8692 68.4946 79.8838V79.8983Z" fill="#F2672A"></path><path d="M40.2764 42.8654C41.6728 42.8654 42.9964 43.4181 43.9564 44.4363C44.9309 45.4108 45.4837 46.7345 45.4691 48.1163C45.4691 48.9454 45.2655 49.7599 44.8873 50.5018C44.5382 51.1272 44.0873 51.6654 43.5491 52.1308C43.9564 55.1127 44.5382 58.2545 44.8291 61.2363C44.8291 61.4836 44.7128 61.7018 44.5382 61.8763C44.3928 62.0508 44.1891 62.1527 43.9564 62.1672C41.5128 62.3418 39.0546 62.3418 36.6109 62.1672C36.3782 62.1672 36.16 62.0654 36.0291 61.8763C35.8546 61.7018 35.7528 61.4836 35.7382 61.2363C35.9709 58.3272 36.5528 55.0545 37.0182 52.1308C36.4655 51.6945 36 51.1272 35.68 50.5018C35.3018 49.7599 35.0982 48.9454 35.0982 48.1163C35.0982 46.7345 35.6364 45.4108 36.6109 44.4363C37.5564 43.4181 38.8946 42.8508 40.2764 42.8654ZM42.9528 45.4254C41.4691 43.9417 39.0691 43.9417 37.5855 45.4254C36.8582 46.1236 36.4655 47.0981 36.48 48.1017C36.48 48.7127 36.64 49.309 36.9455 49.8472C37.2218 50.3854 37.6146 50.8508 38.1091 51.1854L38.5164 51.4181L37.1782 60.7417H43.36L42.0218 51.4618L42.3709 51.1708C42.88 50.8218 43.3018 50.3708 43.5928 49.8327C43.8982 49.2945 44.0582 48.6981 44.0582 48.0872C44.0728 47.0836 43.68 46.109 42.9528 45.4108V45.4254Z" fill="#F2672A"></path></g><defs><clipPath id="clip0_577_586"><rect width="60.1745" height="78.4436" fill="white" transform="translate(10.1818 1.45453)"></rect></clipPath></defs></svg>