<svg xmlns="http://www.w3.org/2000/svg" width="80" height="80" viewBox="0 0 80 80" fill="none"><path d="M55.5585 47.4536C52.4194 47.4536 49.8647 44.8777 49.8647 41.7126C49.8647 38.5475 52.4194 35.9716 55.5585 35.9716C58.6976 35.9716 61.2523 38.5475 61.2523 41.7126C61.2523 44.8777 58.6976 47.4536 55.5585 47.4536ZM55.5585 38.0269C53.5473 38.0269 51.9031 39.6848 51.9031 41.7126C51.9031 43.7404 53.5473 45.3983 55.5585 45.3983C57.5697 45.3983 59.214 43.7404 59.214 41.7126C59.214 39.6848 57.5697 38.0269 55.5585 38.0269ZM26.7362 45.3024C23.5971 45.3024 21.0424 42.7265 21.0424 39.5615C21.0424 36.3964 23.5971 33.8205 26.7362 33.8205C29.8752 33.8205 32.43 36.3964 32.43 39.5615C32.43 42.7265 29.8752 45.3024 26.7362 45.3024ZM26.7362 35.8894C24.725 35.8894 23.0807 37.5336 23.0807 39.5752C23.0807 41.6167 24.725 43.2609 26.7362 43.2609C28.7473 43.2609 30.3916 41.603 30.3916 39.5752C30.3916 37.5473 28.7473 35.8894 26.7362 35.8894ZM66.919 26.682C63.7799 26.682 61.2251 24.1061 61.2251 20.941C61.2251 17.7759 63.7799 15.2 66.919 15.2C70.058 15.2 72.6128 17.7759 72.6128 20.941C72.6128 24.1061 70.058 26.682 66.919 26.682ZM66.919 17.269C64.9078 17.269 63.2635 18.9268 63.2635 20.9547C63.2635 22.9825 64.9078 24.6404 66.919 24.6404C68.9301 24.6404 70.5744 22.9825 70.5744 20.9547C70.5744 18.9268 68.9301 17.269 66.919 17.269Z" fill="#F2672A"></path><path d="M6.95053 57.5791C4.88499 57.5791 3.19995 55.8801 3.19995 53.7975C3.19995 51.7148 4.88499 50.0158 6.95053 50.0158C9.01606 50.0158 10.7011 51.7148 10.7011 53.7975C10.7011 55.8801 9.01606 57.5791 6.95053 57.5791ZM6.95053 52.0848C6.01288 52.0848 5.23831 52.852 5.23831 53.8112C5.23831 54.7703 5.99929 55.5376 6.95053 55.5376C7.90176 55.5376 8.66274 54.7703 8.66274 53.8112C8.66274 52.852 7.90176 52.0848 6.95053 52.0848Z" fill="#F2672A"></path><path fill-rule="evenodd" clip-rule="evenodd" d="M27.6467 59.292C29.1551 59.292 30.3781 60.5251 30.3781 62.046C30.3781 63.5669 29.1551 64.8 27.6467 64.8C26.1383 64.8 24.9153 63.5669 24.9153 62.046C24.9153 60.5251 26.1383 59.292 27.6467 59.292Z" fill="#F2672A"></path><path fill-rule="evenodd" clip-rule="evenodd" d="M42.7169 25.0518C44.2253 25.0518 45.4483 26.2849 45.4483 27.8058C45.4483 29.3267 44.2253 30.5598 42.7169 30.5598C41.2085 30.5598 39.9855 29.3267 39.9855 27.8058C39.9855 26.2849 41.2085 25.0518 42.7169 25.0518Z" fill="#F2672A"></path><path fill-rule="evenodd" clip-rule="evenodd" d="M74.8686 32.9709C76.377 32.9709 77.6 34.204 77.6 35.7249C77.6 37.2458 76.377 38.4789 74.8686 38.4789C73.3602 38.4789 72.1372 37.2458 72.1372 35.7249C72.1372 34.204 73.3602 32.9709 74.8686 32.9709Z" fill="#F2672A"></path><path d="M9.01605 52.7014C8.79863 52.7014 8.59479 52.6055 8.4589 52.4137C8.24148 52.0985 8.32301 51.6738 8.62197 51.4545L22.51 41.699C22.8225 41.4798 23.2438 41.562 23.4612 41.8634C23.6786 42.1786 23.5971 42.6033 23.2981 42.8225L9.41013 52.5781C9.28783 52.6603 9.15194 52.7014 9.01605 52.7014ZM41.3308 51.6053C41.1541 51.6053 40.9911 51.5368 40.8552 51.4134L30.7449 41.3976C30.4731 41.1372 30.4731 40.6988 30.7449 40.4248C31.0031 40.1507 31.438 40.1507 31.7097 40.4248L41.4395 50.057L51.278 43.6857C51.5905 43.4802 52.0118 43.5761 52.2156 43.8913C52.4194 44.2064 52.3243 44.6312 52.0118 44.8367L41.7249 51.4957C41.6162 51.5642 41.4803 51.6053 41.358 51.6053H41.3308ZM58.154 38.4791C58.0453 38.4791 57.9366 38.4517 57.8415 38.3969C57.5153 38.2188 57.3794 37.8078 57.5561 37.4652L64.1604 24.7912C64.337 24.4487 64.7447 24.3254 65.0708 24.5035C65.397 24.6816 65.5329 25.0927 65.3562 25.4352L58.7519 38.1092C58.6296 38.3421 58.3986 38.4791 58.154 38.4791Z" fill="#F2672A"></path></svg>