<svg xmlns="http://www.w3.org/2000/svg" width="80" height="80" viewBox="0 0 80 80" fill="none"><g clip-path="url(#clip0_577_593)"><path d="M52.8438 61.9636H2.58923C1.14923 61.9636 0.000136581 60.8 0.000136581 59.3745C0.000136581 59.3745 0.000136581 59.36 0.000136581 59.3454V57.4545C-0.0144089 56.0291 1.13468 54.8509 2.56014 54.8363C2.56014 54.8363 2.57468 54.8363 2.58923 54.8363H3.59286V11.3454C3.57832 9.11998 5.36741 7.28725 7.59286 7.27271H66.3274C68.5529 7.27271 70.3565 9.10543 70.342 11.3309C70.342 11.3309 70.342 11.3309 70.342 11.3454V27.2C70.342 27.7818 69.9056 27.2 69.1783 27.2H55.6947C54.6911 27.2 53.3529 28.9454 53.3529 29.9636V60.3636C53.222 60.8 53.3965 61.9636 52.8292 61.9636H52.8438ZM2.44377 57.0182C2.21105 57.0182 2.02195 57.2218 2.00741 57.4545V59.3454C2.00741 59.5782 2.21105 59.7672 2.44377 59.7818H51.6947V57.0182H2.44377ZM5.60014 54.8363H51.6947V29.9636C51.6801 27.7382 53.4692 25.9054 55.7092 25.8909H68.3638V11.2C68.3638 10.1818 67.0547 9.30907 66.0365 9.30907H7.33105C6.29832 9.33816 5.46923 10.1673 5.46923 11.2V54.8363H5.61468H5.60014Z" fill="#F2672A"></path><path d="M53.6727 51.7818H9.01819C8.64001 51.8109 8.32001 51.52 8.29092 51.1418C8.29092 51.1127 8.29092 51.0836 8.29092 51.0545V13.0909C8.26182 12.7127 8.55273 12.3927 8.93092 12.3636C8.96001 12.3636 8.9891 12.3636 9.01819 12.3636H65.8909C66.2691 12.3345 66.5891 12.6255 66.6182 13.0036C66.6182 13.0327 66.6182 13.0618 66.6182 13.0909V26.9091C66.6182 27.3455 65.7455 26.9091 65.3091 26.9091H57.1782C56.0145 26.9091 52.9455 27.1273 52.9455 28.2909V51.0545C53.0909 51.4909 53.9636 51.7818 53.6727 51.7818ZM9.74546 50.3273H52.9455V29.6727C52.9891 27.7091 54.6182 26.1527 56.5818 26.1818H65.3091V13.8182H9.89092V50.3273H9.74546Z" fill="#F2672A"></path><path d="M75.7527 71.2727H55.5345C53.28 71.2727 51.4618 69.4545 51.4618 67.2V29.2364C51.4618 26.9818 53.28 25.1636 55.5345 25.1636H75.7527C78.0073 25.1636 79.8255 26.9818 79.8255 29.2364V67.2C79.7818 69.4255 77.9782 71.2291 75.7527 71.2727ZM55.5345 27.4909C54.5018 27.5055 53.6582 28.3491 53.6436 29.3818V67.3455C53.6582 68.3782 54.5018 69.2218 55.5345 69.2364H75.7527C76.7855 69.2218 77.6291 68.3782 77.6436 67.3455V29.3818C77.6291 28.3491 76.7855 27.5055 75.7527 27.4909H55.5345Z" fill="#F2672A"></path><path d="M68.8 31.5927H62.4C61.9927 31.5927 61.6727 31.2727 61.6727 30.8655C61.6727 30.4582 61.9927 30.1382 62.4 30.1382H68.8C69.2073 30.1382 69.5273 30.4582 69.5273 30.8655C69.5273 31.2727 69.2073 31.5927 68.8 31.5927Z" fill="#F2672A"></path><path d="M37.8182 45.8618C37.4982 45.8036 37.2218 45.5854 37.0909 45.28L32.8727 23.1709L27.3454 39.3163C27.2 39.6073 27.0545 39.7527 26.7636 39.7527C26.4582 39.7527 26.1818 39.5927 26.0363 39.3163L23.4182 34.2254H13.5273C13.12 34.2254 12.8 33.9054 12.8 33.4982C12.8 33.0909 13.12 32.7709 13.5273 32.7709H23.8545C24.1454 32.7709 24.4363 32.9163 24.4363 33.2073L26.4727 37.28L32.2909 20.2618C32.4364 19.9854 32.7127 19.8254 33.0182 19.8254C33.3382 19.8836 33.6145 20.1018 33.7454 20.4073L37.8182 41.7891L41.7454 24.6254C41.76 24.32 42.0218 24.0582 42.3273 24.0436C42.6327 24.0436 42.9091 24.2036 43.0545 24.48L46.5454 32.9163H51.6364C52.0436 32.9163 52.3636 33.2363 52.3636 33.6436C52.3636 34.0509 52.0436 34.3709 51.6364 34.3709H46.1091C45.8036 34.3709 45.5273 34.2109 45.3818 33.9345L42.6182 27.0982L38.4 45.4254C38.5454 45.5709 38.2545 45.8618 37.8182 45.8618Z" fill="#F2672A"></path><path d="M59.7091 58.3854C58.6909 58.3854 57.8473 57.5564 57.8473 56.5236C57.8473 55.4909 58.6763 54.6618 59.7091 54.6618C60.0873 54.6473 60.4654 54.7636 60.7709 55.0109L61.2073 45.6436C61.2073 44.6254 62.0364 43.7964 63.0691 43.7818C63.8982 43.7382 64.64 44.2909 64.8436 45.1054L68.0291 51.7382C68.3927 51.2873 68.9454 51.0254 69.5273 51.0254C69.9054 51.0109 70.2836 51.1273 70.5891 51.3745L71.0254 42.0073C71.0254 40.9891 71.8545 40.1454 72.8873 40.1454C73.92 40.1454 74.7491 40.9745 74.7491 42.0073C74.7491 43.04 73.92 43.8691 72.8873 43.8691C72.5091 43.8836 72.1309 43.7673 71.8254 43.52L71.3891 52.8873C71.4182 53.8909 70.6182 54.72 69.6145 54.7491C69.5854 54.7491 69.5563 54.7491 69.5273 54.7491C68.5527 54.72 67.7382 53.9636 67.6654 52.9745L64.5673 46.7054C64.2327 47.2582 63.6218 47.5927 62.9818 47.5927C62.6036 47.6073 62.2254 47.4909 61.92 47.2436L61.4836 56.6109C61.4836 57.5854 60.6836 58.3854 59.7091 58.3854ZM59.7091 55.4764C59.1709 55.4764 58.7345 55.9127 58.7345 56.4509C58.7345 56.9891 59.1709 57.4254 59.7091 57.4254C60.2473 57.4254 60.6836 56.9891 60.6836 56.4509C60.6836 55.9127 60.2473 55.4764 59.7091 55.4764ZM68.5527 52.8291C68.5527 53.3673 68.9891 53.8036 69.5273 53.8036C70.0654 53.8036 70.5018 53.3673 70.5018 52.8291C70.5018 52.2909 70.0654 51.8545 69.5273 51.8545C68.9891 51.8545 68.5527 52.2909 68.5527 52.8291ZM63.1418 46.7491C63.6218 46.8073 64.0582 46.4436 64.1164 45.9636C64.1164 45.9054 64.1164 45.8327 64.1164 45.7745C64.1454 45.2654 63.7527 44.8291 63.2436 44.8C63.2145 44.8 63.1709 44.8 63.1418 44.8C62.6036 44.8 62.1673 45.2364 62.1673 45.7745C62.1673 46.3127 62.6036 46.7491 63.1418 46.7491ZM72.9745 43.0982C73.5127 43.0982 73.9491 42.6618 73.9491 42.1236C73.9491 41.5854 73.5127 41.1491 72.9745 41.1491C72.4363 41.1491 72 41.5854 72 42.1236C72 42.6618 72.4363 43.0982 72.9745 43.0982Z" fill="#F2672A"></path></g><defs><clipPath id="clip0_577_593"><rect width="79.8255" height="64" fill="white" transform="translate(0 7.27271)"></rect></clipPath></defs></svg>