<svg xmlns="http://www.w3.org/2000/svg" width="80" height="80" viewBox="0 0 80 80" fill="none"><g clip-path="url(#clip0_577_566)"><path d="M36.1892 73.9783C16.9601 73.9346 1.41105 58.3274 1.45468 39.0983C1.49832 19.8692 17.1056 4.3201 36.3347 4.36374C55.5056 4.40738 71.0256 19.9274 71.0692 39.0983C71.0692 39.6656 70.7929 39.5201 70.2256 39.5201C69.6583 39.5201 68.9456 39.5201 68.9456 38.9528C68.8292 20.9019 54.0947 6.37101 36.0438 6.48738C17.9929 6.61828 3.46195 21.3383 3.57832 39.3892C3.69468 57.3819 18.342 71.8983 36.3347 71.8546C40.3492 71.8546 44.3347 71.1419 48.102 69.731C48.6692 69.4546 47.8256 70.1528 47.9565 70.7201C48.0874 71.2874 49.3674 71.5637 48.8001 71.7092C44.771 73.2365 40.4947 74.0074 36.1892 73.9783Z" fill="#F2672A"></path><path d="M60.0146 75.2582C49.0473 75.2582 40.16 66.3709 40.16 55.4036C40.16 44.4363 49.0473 35.5491 60.0146 35.5491C70.9818 35.5491 79.8691 44.4363 79.8691 55.4036C79.84 66.3563 70.9673 75.2145 60.0146 75.2582ZM60.0146 36.9745C49.8328 36.9745 41.5855 45.2218 41.5855 55.4036C41.5855 65.5854 49.8328 73.8327 60.0146 73.8327C70.1964 73.8327 78.4437 65.5854 78.4437 55.4036C78.4146 45.2363 70.1818 37.0036 60.0146 36.9745Z" fill="#F2672A"></path><path d="M37.1783 36.9746C36.9746 36.9891 36.771 36.9455 36.611 36.8291C36.3346 36.5673 36.3201 36.1309 36.5819 35.8546C36.5819 35.8546 36.5964 35.84 36.611 35.8255L50.5019 21.9346C50.7783 21.6582 51.2146 21.6582 51.491 21.9346C51.7673 22.2109 51.7673 22.6473 51.491 22.9237L37.6001 36.8146C37.4837 36.9164 37.3237 36.9746 37.1783 36.9455V36.9746Z" fill="#F2672A"></path><path d="M36.1892 36.1164H36.0437C35.6655 36.0146 35.4328 35.6509 35.4764 35.2728L36.3201 32.16C36.4364 31.7818 36.8437 31.5637 37.2364 31.68C37.5564 31.7818 37.7746 32.1018 37.7455 32.4364L36.9019 35.5491C36.7855 35.84 36.5092 36.0582 36.1892 36.1164Z" fill="#F2672A"></path><path d="M37.3236 43.36C36.9891 43.36 36.6691 43.2146 36.48 42.9382L22.0218 28.48C21.6 27.9855 21.6 27.2728 22.0218 26.7782L24.4364 24.3637C24.9309 23.9418 25.6436 23.9418 26.1382 24.3637L40.5964 38.8218C41.0182 39.3164 41.0182 40.0291 40.5964 40.5237L38.1818 42.9382C38.0073 43.2437 37.6727 43.4037 37.3236 43.36ZM23.1418 27.6218L37.4691 41.9346L39.5927 39.8109L25.28 25.3528L23.1564 27.6218H23.1418Z" fill="#F2672A"></path><path d="M59.3019 62.4873V64.1891H47.6801V62.6327L54.0656 55.5491C54.7492 54.7491 55.3746 53.9055 55.9128 52.9891C56.3056 52.2909 56.4946 51.52 56.4801 50.72C56.5528 49.8764 56.2474 49.0327 55.6365 48.4509C54.9819 47.8546 54.1092 47.5491 53.2219 47.6073C51.3165 47.68 49.5128 48.4364 48.1165 49.7309L47.2728 48.1746C48.0292 47.4182 48.9601 46.8364 49.9637 46.4727C51.011 46.08 52.1165 45.8909 53.2219 45.9055C54.6619 45.8182 56.0728 46.2837 57.1928 47.1855C58.1965 48.0873 58.7201 49.3964 58.6037 50.7346C58.5746 51.7673 58.3274 52.7709 57.891 53.7164C57.2656 54.8946 56.4946 55.9855 55.6219 56.9746L50.371 62.6473H59.3019V62.5018V62.4873Z" fill="#F2672A"></path><path d="M73.7601 58.5309V60.2328H71.0692V64.2037H68.9455V60.2328H60.5819V58.6764L69.3674 46.0655H71.0692V58.5455H73.7601V58.5309ZM62.7055 58.5309H68.9455V49.6L62.7055 58.5309Z" fill="#F2672A"></path><path d="M29.6728 60.3636H29.5273C29.1492 60.2618 28.9164 59.8982 28.9601 59.52L34.211 40.1018C34.2401 39.6945 34.6037 39.4036 34.9964 39.4473C35.4037 39.4764 35.6946 39.84 35.651 40.2327C35.651 40.2909 35.6364 40.3345 35.6219 40.3782L30.371 59.7964C30.2982 60.1309 30.0073 60.3636 29.6582 60.3636H29.6728Z" fill="#F2672A"></path><path d="M31.0837 43.0691C30.88 43.0837 30.6764 43.04 30.5164 42.9237C30.24 42.6618 30.2255 42.2255 30.4873 41.9491C30.4873 41.9491 30.5018 41.9346 30.5164 41.92L33.3527 39.0982C33.6291 38.8218 34.0655 38.8218 34.3418 39.0982C34.6182 39.3746 34.6182 39.8109 34.3418 40.0873L31.5055 42.9237C31.3746 42.9964 31.2291 43.04 31.0837 43.0546V43.0691Z" fill="#F2672A"></path></g><defs><clipPath id="clip0_577_566"><rect width="78.4" height="70.8945" fill="white" transform="translate(1.45459 4.36365)"></rect></clipPath></defs></svg>