<svg xmlns="http://www.w3.org/2000/svg" width="50" height="50" viewBox="0 0 50 50" fill="none"><g clip-path="url(#clip0_577_918)"><path d="M25 50C38.8071 50 50 38.8071 50 25C50 11.1929 38.8071 0 25 0C11.1929 0 0 11.1929 0 25C0 38.8071 11.1929 50 25 50Z" fill="#F2672A"></path><path opacity="0.15" d="M15.7059 28.4706C15.5882 34.2353 19.4118 37.5882 25 37.5882C27.0581 37.6023 29.0777 37.0311 30.8235 35.9411C30.8235 35.9411 33.7059 34.1764 33.7647 34.1764C34.866 33.4704 35.7684 32.4944 36.3862 31.3413C37.004 30.1882 37.3165 28.8962 37.2941 27.5882C37.3427 26.2954 36.9412 25.0257 36.1581 23.9959C35.375 22.9661 34.2588 22.2398 33 21.9411L34 21.3529C34.7514 20.8528 35.3622 20.1685 35.7741 19.3653C36.186 18.5621 36.3853 17.6668 36.3529 16.7647C36.3529 12.2941 31.9412 9.8235 27.9412 9.8235C26.1928 9.81027 24.4775 10.3003 23 11.2353L20.0588 12.9411C17.8235 14.4117 16.4706 17 16.3529 20.2353H21.1765L24.1177 18.4706C24.0726 17.5255 24.297 16.5871 24.7647 15.7647H25.0588C26.9412 15.7647 28.5882 17 28.5882 19.1176C28.5952 19.5663 28.4943 20.0101 28.2941 20.4117C27.5934 20.5187 26.8821 20.5384 26.1765 20.4706L23.2353 22.2353V25.8235C25.7059 25.8235 29 25.7647 29 29.5294C29.0022 30.2759 28.7987 31.0086 28.4118 31.647C28.2353 31.647 28.0588 31.7059 27.8824 31.7059C24.9412 31.7059 23.5882 29.4706 23.4706 26.7647H18.6471C18.6471 26.7059 15.7059 28.4706 15.7059 28.4706Z" fill="black"></path><path d="M23.2353 22.1765C25.4118 22.3529 28.5882 21.9412 28.5882 19.0588C28.5889 18.6033 28.4967 18.1523 28.3172 17.7336C28.1378 17.3149 27.8749 16.9371 27.5446 16.6233C27.2144 16.3095 26.8236 16.0664 26.3962 15.9086C25.9688 15.7509 25.5138 15.6819 25.0588 15.7059C22.5294 15.7059 21.1765 17.5882 21.1765 20.1765H16.3529C16.5294 15.0588 19.8824 11.5294 25 11.5294C29 11.5294 33.4118 14 33.4118 18.4706C33.4118 20.8235 32.2353 22.9412 29.8824 23.5882V23.6471C32.6471 24.2353 34.2941 26.5294 34.2941 29.3529C34.2941 34.5882 29.8824 37.5882 25 37.5882C19.4118 37.5882 15.5882 34.2353 15.7059 28.4706H20.5294C20.6471 31.1765 22 33.4118 24.9412 33.4118C25.4714 33.4388 26.0014 33.3563 26.4983 33.1693C26.9952 32.9824 27.4482 32.695 27.829 32.3252C28.2099 31.9554 28.5104 31.5111 28.7119 31.0199C28.9134 30.5287 29.0114 30.0013 29 29.4706C29 25.7059 25.6471 25.7647 23.2353 25.7647V22.1765Z" fill="white"></path></g><defs><clipPath id="clip0_577_918"><rect width="50" height="50" fill="white"></rect></clipPath></defs></svg>