<svg xmlns="http://www.w3.org/2000/svg" width="50" height="50" viewBox="0 0 50 50" fill="none"><g clip-path="url(#clip0_577_929)"><path d="M25 50C38.8071 50 50 38.8071 50 25C50 11.1929 38.8071 0 25 0C11.1929 0 0 11.1929 0 25C0 38.8071 11.1929 50 25 50Z" fill="#F2672A"></path><path opacity="0.15" d="M30.3529 35.4705C28.7832 36.5562 26.9079 37.1127 25 37.0588C20.1176 37.0588 15.7647 34.3529 15.7059 29.1176L18.647 27.3529H23.7059C23.772 28.3911 24.2379 29.3634 25.0057 30.0654C25.7735 30.7673 26.7835 31.1445 27.8235 31.1176H28.2941C28.9108 30.217 29.239 29.1502 29.2353 28.0588C29.2353 25.4705 27.647 23.3529 24.8823 23.3529C24.6455 23.3407 24.408 23.3604 24.1765 23.4117L24 23.5882L21.0588 25.3529H16.4706L18.9412 11.5294L21.8823 9.76465H35.8823V13.9411L32.9412 15.7058H25.2353L24.5882 19.4705H24.647C25.7791 18.7256 27.1166 18.3552 28.4706 18.4117C33.4118 18.4117 36.1765 22.2352 36.1765 26.9411C36.1827 28.6031 35.723 30.2336 34.8497 31.6476C33.9763 33.0616 32.7242 34.2026 31.2353 34.9411C32.2941 34.3529 30.3529 35.4705 30.3529 35.4705Z" fill="black"></path><path d="M32.9412 15.7647H22.5882L21.5882 21.4706L21.647 21.5294C22.2734 20.8738 23.0338 20.361 23.8763 20.026C24.7189 19.691 25.6238 19.5417 26.5294 19.5883C31.4706 19.5883 34.2353 23.4118 34.2353 28.1177C34.237 29.325 33.9955 30.5204 33.5253 31.6324C33.0551 32.7445 32.3658 33.7504 31.4984 34.5903C30.6311 35.4302 29.6035 36.0869 28.4769 36.5211C27.3503 36.9553 26.1478 37.1582 24.9412 37.1177C20.0588 37.1177 15.7059 34.4118 15.647 29.1765H20.7059C20.772 30.2147 21.2379 31.187 22.0057 31.889C22.7735 32.591 23.7835 32.9681 24.8235 32.9412C27.4706 32.9412 29.1764 30.5883 29.1764 28.1177C29.1764 25.5294 27.5882 23.4118 24.8235 23.4118C24.0652 23.3705 23.3099 23.5345 22.637 23.8865C21.9641 24.2385 21.3985 24.7654 21 25.4118H16.4706L18.9412 11.5883H32.9412V15.7647Z" fill="white"></path></g><defs><clipPath id="clip0_577_929"><rect width="50" height="50" fill="white"></rect></clipPath></defs></svg>