<svg xmlns="http://www.w3.org/2000/svg" width="50" height="50" viewBox="0 0 50 50" fill="none"><g clip-path="url(#clip0_577_924)"><path d="M25 50C38.8071 50 50 38.8071 50 25C50 11.1929 38.8071 0 25 0C11.1929 0 0 11.1929 0 25C0 38.8071 11.1929 50 25 50Z" fill="#F2672A"></path><path opacity="0.15" d="M31.0588 36.5882L34 34.8235V30.8235H34.4117L37.3529 29.0588V24.8823H34V9.76465H29.4706L26.5294 11.5294L15.647 26.1764V30.8235H26.2353V36.5882M26.2353 24.8235H22.5882L26.2353 19.9411V24.8235Z" fill="black"></path><path d="M26.2353 30.8236H15.647V26.1765L26.5294 11.5883H31.0588V26.6471H34.4117V30.8236H31.0588V36.5883H26.2353V30.8236ZM26.2353 17.9412H26.1176L19.647 26.6471H26.2353V17.9412Z" fill="white"></path></g><defs><clipPath id="clip0_577_924"><rect width="50" height="50" fill="white"></rect></clipPath></defs></svg>