<svg xmlns="http://www.w3.org/2000/svg" width="50" height="50" viewBox="0 0 50 50" fill="none"><g clip-path="url(#clip0_577_878)"><path d="M25 50C38.8071 50 50 38.8071 50 25C50 11.1929 38.8071 0 25 0C11.1929 0 0 11.1929 0 25C0 38.8071 11.1929 50 25 50Z" fill="#F2672A"></path><path opacity="0.15" d="M28.9412 36.5882H23.8824V20.3529H17.5294V16.5294L20.4706 14.7647C21.5408 14.7994 22.6105 14.6805 23.6471 14.4117C24.3343 13.6167 24.7649 12.6324 24.8824 11.5882L27.8235 9.82349H31.8824V34.8823L28.9412 36.5882Z" fill="black"></path><path d="M28.9412 36.5882H23.8824V20.3529H17.5294V16.5294C21.0588 16.5882 24.3529 15.4118 24.8824 11.5294H28.9412V36.5882Z" fill="white"></path></g><defs><clipPath id="clip0_577_878"><rect width="50" height="50" fill="white"></rect></clipPath></defs></svg>