<svg xmlns="http://www.w3.org/2000/svg" width="50" height="50" viewBox="0 0 50 50" fill="none"><g clip-path="url(#clip0_577_912)"><path d="M25 50C38.8071 50 50 38.8071 50 25C50 11.1929 38.8071 0 25 0C11.1929 0 0 11.1929 0 25C0 38.8071 11.1929 50 25 50Z" fill="#F2672A"></path><path opacity="0.15" d="M37.1176 35.353V31H25.2941C27.1176 28.4118 30.0588 27 32.5294 25.2353C35 23.4706 37 21.4118 37 17.6471C37 12.7647 33 9.82356 28.4117 9.82356C26.7192 9.76848 25.0459 10.197 23.5882 11.0589C23.5882 11.0589 20.7059 12.8236 20.647 12.8236C17.7647 14.5294 16.2353 17.8236 16.3529 21.7647H21.2353L24.1764 20C24.1237 18.6062 24.4489 17.2241 25.1176 16H25.2353C25.7445 15.9825 26.2517 16.0719 26.7242 16.2624C27.1968 16.4529 27.6242 16.7403 27.9789 17.1061C28.3336 17.4718 28.6077 17.9079 28.7835 18.386C28.9594 18.8642 29.0331 19.374 29 19.8824C28.9411 22.9412 25.9411 24.4706 23.7647 26C19.4117 28.9412 15.8823 31.4118 15.8823 37.1765H34.2353L37.1176 35.353Z" fill="black"></path><path d="M16.353 21.7059C16.1765 16 19.4118 11.5883 25.4118 11.5883C30 11.5883 34 14.5294 34 19.4118C34 23.1765 32 25.2353 29.5294 27C27.0588 28.7647 24.1177 30.1765 22.2941 32.7647H34.1177V37.1177H15.8235C15.8824 31.353 19.4118 28.8824 23.7059 25.9412C25.9412 24.4118 28.9412 22.8824 28.9412 19.8236C28.9744 19.3151 28.9006 18.8054 28.7248 18.3272C28.5489 17.849 28.2748 17.413 27.9201 17.0472C27.5654 16.6814 27.138 16.394 26.6655 16.2035C26.1929 16.0131 25.6857 15.9237 25.1765 15.9412C22.1765 15.9412 21.2353 19.0588 21.2353 21.7059H16.353Z" fill="white"></path></g><defs><clipPath id="clip0_577_912"><rect width="50" height="50" fill="white"></rect></clipPath></defs></svg>