<svg xmlns="http://www.w3.org/2000/svg" viewBox="0 0 62 61"><g id="Group_22992" data-name="Group 22992" transform="translate(-12087 -2955)"><rect id="Rectangle_28690" data-name="Rectangle 28690" width="62" height="61" transform="translate(12087 2955)" fill="#fff" opacity="0"></rect><g id="Group_15593" data-name="Group 15593" transform="translate(12091.588 2955)"><path id="Path_26004" data-name="Path 26004" d="M47.532,18.095a12.058,12.058,0,0,0-5.649-7.38h-.008A12.051,12.051,0,0,0,35.817,9.09a12.158,12.158,0,1,0,11.715,9m-2.678,8.376a10.445,10.445,0,1,1-3.821-14.287,10.5,10.5,0,0,1,3.821,14.287" transform="translate(-4.342 -1.669)" fill="#eb5e1d"></path><path id="Path_26005" data-name="Path 26005" d="M27.282,38.419V43.97a.854.854,0,0,1-.849.849.865.865,0,0,1-.849-.849V38.419a.849.849,0,0,1,1.7,0" transform="translate(-4.698 -7.459)" fill="#eb5e1d"></path><path id="Path_26006" data-name="Path 26006" d="M44.725,25.573a3.25,3.25,0,0,0-2.025-.955H42.66c-.033,0-.073-.008-.106-.008v.008h-.122a3.261,3.261,0,0,0-3.257,3.249,3.236,3.236,0,0,0,.955,2.3,3.253,3.253,0,0,0,5.551-2.294v-.033a3.169,3.169,0,0,0-.955-2.27m-1.192,3.4a1.579,1.579,0,0,1-1.1.457,1.575,1.575,0,0,1-1.559-1.559,1.55,1.55,0,0,1,.457-1.1,1.579,1.579,0,0,1,1.1-.457,1.606,1.606,0,0,1,1.1.457,1.577,1.577,0,0,1,0,2.2" transform="translate(-7.193 -4.881)" fill="#eb5e1d"></path><path id="Path_26007" data-name="Path 26007" d="M22.223,10.749,19.553,9.2l.882-1.535a.859.859,0,0,0,.09-.645.849.849,0,0,0-1.559-.2l-.882,1.543-.776-.449A3.048,3.048,0,0,0,15,7.614a3,3,0,0,0-1.861,1.42A3.064,3.064,0,0,0,14.263,13.2l.759.449-1.355,2.335L11,14.439a.847.847,0,0,0-1.159.31.85.85,0,0,0,.31,1.159l2.678,1.551L11.928,19a.845.845,0,0,0,.318,1.151.871.871,0,0,0,1.159-.31l.882-1.535.767.433a3,3,0,0,0,1.518.408,2.91,2.91,0,0,0,.8-.106,3.009,3.009,0,0,0,1.853-1.42,3.054,3.054,0,0,0-1.118-4.164l-.767-.449L18.7,10.675l2.661,1.543a.851.851,0,0,0,.857-1.469m-7.609-.865a1.326,1.326,0,0,1,.816-.637,1.374,1.374,0,0,1,1.029.139l.776.433-1.363,2.351-.767-.441a1.351,1.351,0,0,1-.49-1.845m3.143,6.89a1.348,1.348,0,0,1-.825.637,1.253,1.253,0,0,1-.351.041,1.33,1.33,0,0,1-.669-.18l-.767-.433L16.5,14.48l.767.449a1.363,1.363,0,0,1,.49,1.845" transform="translate(-1.785 -1.173)" fill="#eb5e1d"></path><path id="Path_26008" data-name="Path 26008" d="M35.465,16.313a3.194,3.194,0,0,0-2.245-.963h-.049a3.249,3.249,0,0,0-2.3.963,3.17,3.17,0,0,0-.955,2.294,3.253,3.253,0,0,0,6.507,0,3.2,3.2,0,0,0-.955-2.294m-1.192,3.4a1.579,1.579,0,0,1-1.1.457h-.008a1.531,1.531,0,0,1-1.094-.457c0-.008,0-.008-.008-.016a1.538,1.538,0,0,1,.016-2.188,1.567,1.567,0,0,1,1.086-.457,1.6,1.6,0,0,1,1.11.457,1.577,1.577,0,0,1,0,2.2" transform="translate(-5.493 -3.044)" fill="#eb5e1d"></path><path id="Path_26009" data-name="Path 26009" d="M43.044,17.687a.822.822,0,0,1-.253.6l-9.943,9.943a.832.832,0,0,1-.6.253.883.883,0,0,1-.6-.237.859.859,0,0,1-.253-.612.822.822,0,0,1,.253-.6L41.6,17.083a.822.822,0,0,1,.6-.253.833.833,0,0,1,.6.245.859.859,0,0,1,.253.612" transform="translate(-5.765 -3.363)" fill="#eb5e1d"></path><path id="Path_26010" data-name="Path 26010" d="M10.752,42.4v.727a.849.849,0,0,1-1.7,0V42.4a.849.849,0,1,1,1.7,0" transform="translate(-1.662 -8.199)" fill="#eb5e1d"></path><path id="Path_26011" data-name="Path 26011" d="M10.752,30.309v6.743a.849.849,0,0,1-1.7,0V30.309a.849.849,0,1,1,1.7,0" transform="translate(-1.662 -5.859)" fill="#eb5e1d"></path><path id="Path_26012" data-name="Path 26012" d="M19.582,32.319v4.466a.849.849,0,1,1-1.7,0V32.319a.849.849,0,1,1,1.7,0" transform="translate(-3.284 -6.239)" fill="#eb5e1d"></path><path id="Path_26013" data-name="Path 26013" d="M25.368,7.8a.884.884,0,0,1-.645.049.894.894,0,0,1-.5-.433,10.46,10.46,0,0,0-18.377-.5A10.482,10.482,0,0,0,9.686,21.209a10.316,10.316,0,0,0,8.123.988.809.809,0,0,1,.645.073.83.83,0,0,1,.416.506.87.87,0,0,1-.588,1.053A12.153,12.153,0,1,1,11.759.416,12.366,12.366,0,0,1,14.927,0,12.183,12.183,0,0,1,25.752,6.662.857.857,0,0,1,25.368,7.8" transform="translate(-0.506)" fill="#eb5e1d"></path><path id="Path_26014" data-name="Path 26014" d="M52.962,44.734a.865.865,0,0,1-.253.612L36.038,62.009A8.146,8.146,0,0,1,30.9,64.45l-18.328.294H12.42l-2.751,4.3a.9.9,0,0,1-1.208.269.851.851,0,0,1-.376-.555.827.827,0,0,1,.122-.645l3-4.694a.825.825,0,0,1,.718-.4l18.458-.261.343-.041a6.4,6.4,0,0,0,4.09-1.935l16.05-16.05L48.9,42.775a2.179,2.179,0,0,0-1.518-.506,4.8,4.8,0,0,0-3.11,1.225l-11,11a4.515,4.515,0,0,1-3.347,1.5H21.817a.869.869,0,0,1,0-1.739h8.115a2.775,2.775,0,0,0,2.1-.971l.155-.2a2.7,2.7,0,0,0,.514-1.592,2.77,2.77,0,0,0-2.768-2.768H12.42c-3.061,0-4.033,1.551-5.486,3.9-.147.22-.286.441-.425.669L1.6,60.98A.864.864,0,0,1,.4,61.258.881.881,0,0,1,.134,60.05l4.833-7.584c.163-.253.335-.506.49-.759,1.5-2.433,2.923-4.727,6.964-4.727H29.932a4.507,4.507,0,0,1,4.376,3.412l.122.49,8.621-8.613a6.408,6.408,0,0,1,4.335-1.739,3.788,3.788,0,0,1,2.751,1.02l2.572,2.563a.9.9,0,0,1,.253.62" transform="translate(0 -8.442)" fill="#eb5e1d"></path></g></g></svg>