<svg xmlns="http://www.w3.org/2000/svg" xmlns:xlink="http://www.w3.org/1999/xlink" viewBox="0 0 670 221.57"><defs><clipPath id="clip-path"><rect id="Rectangle_27820" data-name="Rectangle 27820" width="669.999" height="221.57" fill="none"></rect></clipPath><clipPath id="clip-path-2"><path id="Path_25969" data-name="Path 25969" d="M502.386,15.756A102.792,102.792,0,0,0,455.9,42.611l73.327,73.318,73.305-73.369a103.822,103.822,0,0,0-46.5-26.778A101.934,101.934,0,0,0,529.236,12.2a103.621,103.621,0,0,0-26.85,3.558" transform="translate(-455.9 -12.198)" fill="none"></path></clipPath><radialGradient id="radial-gradient" cx="0.51" cy="0.058" r="0.817" gradientTransform="matrix(0.707, 0, 0, -1, -0.523, 4.137)" gradientUnits="objectBoundingBox"><stop offset="0" stop-color="#fff"></stop><stop offset="1" stop-color="#e6e6e6"></stop></radialGradient><clipPath id="clip-path-3"><path id="Path_25970" data-name="Path 25970" d="M455.9,265.792a103.53,103.53,0,0,0,100.13,26.83,103.811,103.811,0,0,0,46.5-26.778l-73.305-73.369Z" transform="translate(-455.9 -192.475)" fill="none"></path></clipPath><radialGradient id="radial-gradient-2" cx="0.51" cy="0.93" r="0.807" gradientTransform="translate(-0.507) scale(0.717 1)" xlink:href="#radial-gradient"></radialGradient><linearGradient id="linear-gradient" x1="0.5" x2="0.5" y2="1" gradientUnits="objectBoundingBox"><stop offset="0" stop-color="#e67e22"></stop><stop offset="1" stop-color="#344e7b"></stop></linearGradient><clipPath id="clip-path-4"><path id="Path_25978" data-name="Path 25978" d="M418.052,122.3a95.07,95.07,0,1,0,95.071-95.071A95.071,95.071,0,0,0,418.052,122.3" transform="translate(-418.052 -27.229)" fill="none"></path></clipPath><linearGradient id="linear-gradient-3" x1="-1.264" y1="1.083" x2="-1.261" y2="1.083" gradientUnits="objectBoundingBox"><stop offset="0" stop-color="#e6e6e6"></stop><stop offset="1" stop-color="#fff"></stop></linearGradient><clipPath id="clip-path-5"><path id="Path_25979" data-name="Path 25979" d="M418.065,122.262a95.02,95.02,0,1,1,95.021,95.021,95.127,95.127,0,0,1-95.021-95.021m58-87.646a95.43,95.43,0,1,0,37.026-7.475,94.814,94.814,0,0,0-37.026,7.475" transform="translate(-417.965 -27.141)" fill="none"></path></clipPath><linearGradient id="linear-gradient-4" x1="-1.263" y1="1.083" x2="-1.26" y2="1.083" gradientUnits="objectBoundingBox"><stop offset="0" stop-color="#fff"></stop><stop offset="1" stop-color="#d1d1d1"></stop></linearGradient><clipPath id="clip-path-6"><path id="Path_25980" data-name="Path 25980" d="M310.983,43.776A24.816,24.816,0,1,0,335.8,18.96a24.816,24.816,0,0,0-24.817,24.816" transform="translate(-310.983 -18.96)" fill="none"></path></clipPath><linearGradient id="linear-gradient-5" x1="-3.603" y1="4.245" x2="-3.591" y2="4.245" xlink:href="#linear-gradient-3"></linearGradient><clipPath id="clip-path-7"><path id="Path_25981" data-name="Path 25981" d="M310.991,43.754a24.787,24.787,0,1,1,24.787,24.787h0a24.815,24.815,0,0,1-24.787-24.787m7.219-17.568a24.844,24.844,0,1,0,17.568-7.277,24.68,24.68,0,0,0-17.568,7.277" transform="translate(-310.933 -18.909)" fill="none"></path></clipPath><linearGradient id="linear-gradient-6" x1="-3.598" y1="4.24" x2="-3.586" y2="4.24" xlink:href="#linear-gradient-4"></linearGradient><clipPath id="clip-path-8"><path id="Path_25982" data-name="Path 25982" d="M301.283,151.069a24.816,24.816,0,0,0,0,49.632h0a24.816,24.816,0,0,0,0-49.632Z" transform="translate(-276.467 -151.069)" fill="none"></path></clipPath><linearGradient id="linear-gradient-7" x1="-3.203" y1="2.714" x2="-3.191" y2="2.714" xlink:href="#linear-gradient-3"></linearGradient><clipPath id="clip-path-9"><path id="Path_25983" data-name="Path 25983" d="M276.475,175.863a24.787,24.787,0,1,1,24.787,24.787h0a24.815,24.815,0,0,1-24.787-24.787m7.219-17.568a24.844,24.844,0,1,0,17.568-7.277,24.683,24.683,0,0,0-17.568,7.277" transform="translate(-276.417 -151.018)" fill="none"></path></clipPath><linearGradient id="linear-gradient-8" x1="-3.198" y1="2.712" x2="-3.187" y2="2.712" xlink:href="#linear-gradient-4"></linearGradient><clipPath id="clip-path-10"><path id="Path_25984" data-name="Path 25984" d="M312.63,307.553a24.816,24.816,0,1,0,24.816-24.816,24.815,24.815,0,0,0-24.816,24.816" transform="translate(-312.63 -282.737)" fill="none"></path></clipPath><linearGradient id="linear-gradient-9" x1="-3.622" y1="1.189" x2="-3.61" y2="1.189" xlink:href="#linear-gradient-3"></linearGradient><clipPath id="clip-path-11"><path id="Path_25985" data-name="Path 25985" d="M312.638,307.532a24.787,24.787,0,1,1,24.787,24.787,24.624,24.624,0,0,1-24.787-24.787m24.787-24.845a24.844,24.844,0,1,0,17.568,7.277A24.682,24.682,0,0,0,337.425,282.687Z" transform="translate(-312.58 -282.687)" fill="none"></path></clipPath><linearGradient id="linear-gradient-10" x1="-3.617" y1="1.188" x2="-3.605" y2="1.188" xlink:href="#linear-gradient-4"></linearGradient><clipPath id="clip-path-12"><path id="Path_25986" data-name="Path 25986" d="M769.506,304.7a24.816,24.816,0,0,0,49.633,0h0a24.816,24.816,0,0,0-49.633,0" transform="translate(-769.506 -279.885)" fill="none"></path></clipPath><linearGradient id="linear-gradient-11" x1="-8.914" y1="1.222" x2="-8.902" y2="1.222" xlink:href="#linear-gradient-3"></linearGradient><clipPath id="clip-path-13"><path id="Path_25987" data-name="Path 25987" d="M769.514,304.679A24.787,24.787,0,1,1,794.3,329.466h0a24.814,24.814,0,0,1-24.787-24.787m7.219-17.568A24.845,24.845,0,0,0,794.3,329.524h0a24.845,24.845,0,1,0-17.568-42.413" transform="translate(-769.456 -279.835)" fill="none"></path></clipPath><linearGradient id="linear-gradient-12" x1="-8.903" y1="1.221" x2="-8.892" y2="1.221" xlink:href="#linear-gradient-4"></linearGradient><clipPath id="clip-path-14"><path id="Path_25988" data-name="Path 25988" d="M804.022,172.591a24.816,24.816,0,1,0,24.816-24.816,24.816,24.816,0,0,0-24.816,24.816" transform="translate(-804.022 -147.775)" fill="none"></path></clipPath><linearGradient id="linear-gradient-13" x1="-9.314" y1="2.752" x2="-9.302" y2="2.752" xlink:href="#linear-gradient-3"></linearGradient><clipPath id="clip-path-15"><path id="Path_25989" data-name="Path 25989" d="M804.03,172.569a24.787,24.787,0,1,1,24.787,24.787,24.815,24.815,0,0,1-24.787-24.787M811.249,155a24.845,24.845,0,1,0,17.568-7.277A24.681,24.681,0,0,0,811.249,155" transform="translate(-803.972 -147.724)" fill="none"></path></clipPath><linearGradient id="linear-gradient-14" x1="-9.303" y1="2.75" x2="-9.291" y2="2.75" xlink:href="#linear-gradient-4"></linearGradient><clipPath id="clip-path-16"><path id="Path_25990" data-name="Path 25990" d="M767.859,40.923a24.816,24.816,0,1,0,24.816-24.816,24.816,24.816,0,0,0-24.816,24.816" transform="translate(-767.859 -16.107)" fill="none"></path></clipPath><linearGradient id="linear-gradient-15" x1="-8.895" y1="4.278" x2="-8.883" y2="4.278" xlink:href="#linear-gradient-3"></linearGradient><clipPath id="clip-path-17"><path id="Path_25991" data-name="Path 25991" d="M767.867,40.9a24.787,24.787,0,1,1,24.787,24.787A24.62,24.62,0,0,1,767.867,40.9m24.787-24.845a24.844,24.844,0,1,0,17.568,7.277A24.683,24.683,0,0,0,792.654,16.057Z" transform="translate(-767.809 -16.057)" fill="none"></path></clipPath><linearGradient id="linear-gradient-16" x1="-8.884" y1="4.273" x2="-8.873" y2="4.273" xlink:href="#linear-gradient-4"></linearGradient></defs><g id="Group_15589" data-name="Group 15589" transform="translate(-8114 -3536)"><g id="Group_13036" data-name="Group 13036" transform="translate(8114 3536)"><g id="Group_13035" data-name="Group 13035" clip-path="url(#clip-path)"><path id="Path_25968" data-name="Path 25968" d="M223.761,338.156H72a22.964,22.964,0,1,1,0-45.929H223.761a22.964,22.964,0,1,1,0,45.929ZM72,293.952a21.239,21.239,0,1,0,0,42.479H223.761a21.239,21.239,0,1,0,0-42.479Z" transform="translate(-20.843 -124.211)" fill="#283e67"></path></g></g><g id="Group_13038" data-name="Group 13038" transform="translate(8376.119 3543.013)"><g id="Group_13037" data-name="Group 13037" transform="translate(0 0)" clip-path="url(#clip-path-2)"><rect id="Rectangle_27821" data-name="Rectangle 27821" width="146.633" height="103.731" transform="translate(0 0)" fill="url(#radial-gradient)"></rect></g></g><g id="Group_13040" data-name="Group 13040" transform="translate(8376.119 3646.663)"><g id="Group_13039" data-name="Group 13039" transform="translate(0 0)" clip-path="url(#clip-path-3)"><rect id="Rectangle_27822" data-name="Rectangle 27822" width="146.633" height="105.066" transform="translate(0)" fill="url(#radial-gradient-2)"></rect></g></g><path id="Path_25971" data-name="Path 25971" d="M962.753,63.5H822.024a22.964,22.964,0,1,1,0-45.929H962.753a22.964,22.964,0,1,1,0,45.929Zm-140.729-44.2a21.239,21.239,0,0,0,0,42.479H962.753a21.239,21.239,0,1,0,0-42.479Z" transform="translate(7774.359 3528.532)" fill="#283e67"></path><path id="Path_25972" data-name="Path 25972" d="M1004.363,198.14H863.635a22.964,22.964,0,1,1,0-45.929h140.728a22.964,22.964,0,1,1,0,45.929Zm-140.728-44.2a21.239,21.239,0,1,0,0,42.479h140.728a21.239,21.239,0,1,0,0-42.479Z" transform="translate(7756.673 3471.302)" fill="#283e67"></path><path id="Path_25973" data-name="Path 25973" d="M962.753,332.816H822.024a22.964,22.964,0,1,1,0-45.929H962.753a22.964,22.964,0,1,1,0,45.929Zm-140.729-44.2a21.239,21.239,0,0,0,0,42.479H962.753a21.239,21.239,0,1,0,0-42.479Z" transform="translate(7774.359 3414.058)" fill="#283e67"></path><path id="Path_25974" data-name="Path 25974" d="M174.725,198.14H22.965a22.964,22.964,0,1,1,0-45.929H174.725a22.964,22.964,0,1,1,0,45.929Zm-151.761-44.2a21.239,21.239,0,1,0,0,42.479H174.725a21.239,21.239,0,1,0,0-42.479Z" transform="translate(8114 3471.302)" fill="#283e67"></path><path id="Path_25975" data-name="Path 25975" d="M221.522,64.091H69.762a22.964,22.964,0,1,1,0-45.929H221.522a22.964,22.964,0,1,1,0,45.929ZM69.762,19.887a21.239,21.239,0,1,0,0,42.479H221.522a21.239,21.239,0,1,0,0-42.479Z" transform="translate(8094.109 3528.28)" fill="#283e67"></path><path id="Path_25976" data-name="Path 25976" d="M598.191,194.325l-10.854-.689a103.177,103.177,0,0,1-14.37,18.025l-73.274-73.286,100.158,26.845a103.015,103.015,0,0,1-7.678,19.955Zm14.779-56.746-9.728-4.885a104,104,0,0,0-3.377-21.161L499.693,138.374l100.158,26.845a102.492,102.492,0,0,0,3.438-22.841ZM591.418,90.035l5.978-8.988-10.871.634A102.452,102.452,0,0,0,573,65l-73.305,73.369,100.172-26.841a104.061,104.061,0,0,0-8.447-21.5m-91.725,48.339L426.365,65.057A102.912,102.912,0,0,0,412.007,83.11l-10.814-.686,6.006,9.13a103.777,103.777,0,0,0-7.665,19.975Zm0,0L399.535,111.529a101.822,101.822,0,0,0-3.447,22.845l-9.673,4.8,9.721,4.881a104.192,104.192,0,0,0,3.384,21.164Zm0,0L399.52,165.215a103.6,103.6,0,0,0,8.455,21.487l-5.986,9,10.9-.635a102.624,102.624,0,0,0,13.48,16.593Z" transform="translate(7949.754 3508.37)" fill="url(#linear-gradient)"></path><path id="Path_25977" data-name="Path 25977" d="M314.209,153.234a34.178,34.178,0,1,1-32.965,35.35,34.179,34.179,0,0,1,32.965-35.35M293.251,77.622a34.072,34.072,0,1,0,35.24,32.862,34.072,34.072,0,0,0-35.24-32.862m268.666,138.2a34.072,34.072,0,1,0-14.088-46.079,34.072,34.072,0,0,0,14.088,46.079m37.03-71.989a34.072,34.072,0,1,0-35.24-32.862,34.072,34.072,0,0,0,35.24,32.862M595.02,62.972a34.072,34.072,0,1,0-46.95-10.839,34.072,34.072,0,0,0,46.95,10.839M330.28,5.634a34.072,34.072,0,1,0,14.088,46.079A34.072,34.072,0,0,0,330.28,5.634" transform="translate(8003.331 3536)" fill="url(#linear-gradient)"></path><rect id="Rectangle_27823" data-name="Rectangle 27823" width="669.999" height="221.57" transform="translate(8114 3536)" fill="none"></rect><g id="Group_13044" data-name="Group 13044" transform="translate(8354.358 3551.655)"><g id="Group_13043" data-name="Group 13043" transform="translate(0 0)" clip-path="url(#clip-path-4)"><rect id="Rectangle_27824" data-name="Rectangle 27824" width="190.141" height="190.141" transform="translate(0 0)" fill="url(#linear-gradient-3)"></rect></g></g><g id="Group_13046" data-name="Group 13046" transform="translate(8354.309 3551.605)"><g id="Group_13045" data-name="Group 13045" transform="translate(0 0)" clip-path="url(#clip-path-5)"><rect id="Rectangle_27825" data-name="Rectangle 27825" width="190.241" height="190.243" transform="translate(0 0)" fill="url(#linear-gradient-4)"></rect></g></g><g id="Group_13048" data-name="Group 13048" transform="translate(8292.8 3546.901)"><g id="Group_13047" data-name="Group 13047" transform="translate(0 0)" clip-path="url(#clip-path-6)"><rect id="Rectangle_27826" data-name="Rectangle 27826" width="49.632" height="49.632" transform="translate(0 0)" fill="url(#linear-gradient-5)"></rect></g></g><g id="Group_13050" data-name="Group 13050" transform="translate(8292.771 3546.872)"><g id="Group_13049" data-name="Group 13049" transform="translate(0 0)" clip-path="url(#clip-path-7)"><rect id="Rectangle_27827" data-name="Rectangle 27827" width="49.689" height="49.69" transform="translate(0 0)" fill="url(#linear-gradient-6)"></rect></g></g><g id="Group_13052" data-name="Group 13052" transform="translate(8272.954 3622.857)"><g id="Group_13051" data-name="Group 13051" transform="translate(0 0)" clip-path="url(#clip-path-8)"><rect id="Rectangle_27828" data-name="Rectangle 27828" width="49.632" height="49.632" fill="url(#linear-gradient-7)"></rect></g></g><g id="Group_13054" data-name="Group 13054" transform="translate(8272.926 3622.828)"><g id="Group_13053" data-name="Group 13053" transform="translate(0 0)" clip-path="url(#clip-path-9)"><rect id="Rectangle_27829" data-name="Rectangle 27829" width="49.689" height="49.691" transform="translate(0 0)" fill="url(#linear-gradient-8)"></rect></g></g><g id="Group_13056" data-name="Group 13056" transform="translate(8293.746 3698.559)"><g id="Group_13055" data-name="Group 13055" transform="translate(0 0)" clip-path="url(#clip-path-10)"><rect id="Rectangle_27830" data-name="Rectangle 27830" width="49.632" height="49.632" fill="url(#linear-gradient-9)"></rect></g></g><g id="Group_13058" data-name="Group 13058" transform="translate(8293.718 3698.531)"><g id="Group_13057" data-name="Group 13057" transform="translate(0 0)" clip-path="url(#clip-path-11)"><rect id="Rectangle_27831" data-name="Rectangle 27831" width="49.689" height="49.69" transform="translate(0 0)" fill="url(#linear-gradient-10)"></rect></g></g><g id="Group_13060" data-name="Group 13060" transform="translate(8556.427 3696.92)"><g id="Group_13059" data-name="Group 13059" transform="translate(0 0)" clip-path="url(#clip-path-12)"><rect id="Rectangle_27832" data-name="Rectangle 27832" width="49.633" height="49.631" transform="translate(0 0)" fill="url(#linear-gradient-11)"></rect></g></g><g id="Group_13062" data-name="Group 13062" transform="translate(8556.398 3696.891)"><g id="Group_13061" data-name="Group 13061" transform="translate(0 0)" clip-path="url(#clip-path-13)"><rect id="Rectangle_27833" data-name="Rectangle 27833" width="49.689" height="49.689" transform="translate(0)" fill="url(#linear-gradient-12)"></rect></g></g><g id="Group_13064" data-name="Group 13064" transform="translate(8576.271 3620.963)"><g id="Group_13063" data-name="Group 13063" transform="translate(0 0)" clip-path="url(#clip-path-14)"><rect id="Rectangle_27834" data-name="Rectangle 27834" width="49.633" height="49.632" transform="translate(0)" fill="url(#linear-gradient-13)"></rect></g></g><g id="Group_13066" data-name="Group 13066" transform="translate(8576.243 3620.934)"><g id="Group_13065" data-name="Group 13065" transform="translate(0 0)" clip-path="url(#clip-path-15)"><rect id="Rectangle_27835" data-name="Rectangle 27835" width="49.69" height="49.691" transform="translate(0 0)" fill="url(#linear-gradient-14)"></rect></g></g><g id="Group_13068" data-name="Group 13068" transform="translate(8555.479 3545.261)"><g id="Group_13067" data-name="Group 13067" transform="translate(0 0)" clip-path="url(#clip-path-16)"><rect id="Rectangle_27836" data-name="Rectangle 27836" width="49.632" height="49.632" transform="translate(0 0)" fill="url(#linear-gradient-15)"></rect></g></g><g id="Group_13070" data-name="Group 13070" transform="translate(8555.451 3545.232)"><g id="Group_13069" data-name="Group 13069" transform="translate(0 0)" clip-path="url(#clip-path-17)"><rect id="Rectangle_27837" data-name="Rectangle 27837" width="49.689" height="49.689" transform="translate(0 0)" fill="url(#linear-gradient-16)"></rect></g></g><g id="Group_13072" data-name="Group 13072" transform="translate(8114 3536)"><g id="Group_13071" data-name="Group 13071" clip-path="url(#clip-path)"><path id="Path_25992" data-name="Path 25992" d="M336.162,57.18c0-4.843,2.683-7.589,6.286-7.589,3.625,0,6.286,2.747,6.286,7.589s-2.661,7.585-6.286,7.585c-3.6,0-6.286-2.747-6.286-7.585m9.155,0c0-3.332-1.172-4.716-2.87-4.716-1.677,0-2.852,1.384-2.852,4.716s1.176,4.716,2.852,4.716c1.7,0,2.87-1.384,2.87-4.716" transform="translate(-142.886 -21.079)" fill="#4d4d4f"></path><path id="Path_25993" data-name="Path 25993" d="M365.841,50.034V64.7h-3.4V52.76h-2.933V50.034Z" transform="translate(-152.811 -21.267)" fill="#4d4d4f"></path><path id="Path_25994" data-name="Path 25994" d="M298.046,189.29c0-4.843,2.683-7.589,6.286-7.589,3.625,0,6.286,2.747,6.286,7.589s-2.661,7.585-6.286,7.585c-3.6,0-6.286-2.747-6.286-7.585m9.155,0c0-3.332-1.172-4.716-2.87-4.716-1.677,0-2.852,1.384-2.852,4.716s1.176,4.716,2.852,4.716c1.7,0,2.87-1.384,2.87-4.716" transform="translate(-126.685 -77.232)" fill="#4d4d4f"></path><path id="Path_25995" data-name="Path 25995" d="M332.933,193.858v2.767H321.846v-2.2l5.658-5.348c1.3-1.235,1.528-1.99,1.528-2.7,0-1.155-.793-1.825-2.343-1.825a3.581,3.581,0,0,0-3.039,1.468l-2.475-1.6A6.816,6.816,0,0,1,327,181.7c3.268,0,5.445,1.681,5.445,4.342,0,1.422-.394,2.721-2.449,4.631l-3.374,3.184Z" transform="translate(-136.516 -77.233)" fill="#4d4d4f"></path><path id="Path_25996" data-name="Path 25996" d="M334.242,320.957c0-4.843,2.683-7.589,6.286-7.589,3.625,0,6.287,2.747,6.287,7.589s-2.661,7.585-6.287,7.585c-3.6,0-6.286-2.747-6.286-7.585m9.155,0c0-3.332-1.172-4.716-2.87-4.716-1.677,0-2.852,1.384-2.852,4.716s1.176,4.716,2.852,4.716c1.7,0,2.87-1.384,2.87-4.716" transform="translate(-142.07 -133.197)" fill="#4d4d4f"></path><path id="Path_25997" data-name="Path 25997" d="M368.831,323.994c0,2.475-1.906,4.737-6.079,4.737a10.09,10.09,0,0,1-5.594-1.571l1.32-2.6a7.141,7.141,0,0,0,4.194,1.32c1.7,0,2.742-.692,2.742-1.889,0-1.108-.815-1.8-2.742-1.8h-1.553v-2.246l3.017-3.412h-6.244v-2.725H368.16v2.2l-3.311,3.773c2.64.42,3.982,2.054,3.982,4.21" transform="translate(-151.81 -133.386)" fill="#4d4d4f"></path><path id="Path_25998" data-name="Path 25998" d="M786.5,53.553c0-4.938,2.735-7.738,6.41-7.738,3.7,0,6.409,2.8,6.409,7.738s-2.713,7.734-6.409,7.734c-3.674,0-6.41-2.8-6.41-7.734m9.335,0c0-3.4-1.194-4.808-2.925-4.808-1.71,0-2.908,1.411-2.908,4.808s1.2,4.808,2.908,4.808c1.731,0,2.925-1.411,2.925-4.808" transform="translate(-334.303 -19.474)" fill="#4d4d4f"></path><path id="Path_25999" data-name="Path 25999" d="M825.29,58.081h-2.432v3.142h-3.375V58.081h-8.058V55.752l7.05-9.486h3.635l-6.539,8.993h4.016v-2.8h3.272v2.8h2.432Z" transform="translate(-344.896 -19.665)" fill="#4d4d4f"></path><path id="Path_26000" data-name="Path 26000" d="M824.742,185.221c0-4.938,2.735-7.738,6.41-7.738,3.7,0,6.409,2.8,6.409,7.738s-2.713,7.734-6.409,7.734c-3.674,0-6.41-2.8-6.41-7.734m9.335,0c0-3.4-1.194-4.808-2.925-4.808-1.71,0-2.909,1.411-2.909,4.808s1.2,4.808,2.909,4.808c1.731,0,2.925-1.411,2.925-4.808" transform="translate(-350.557 -75.439)" fill="#4d4d4f"></path><path id="Path_26001" data-name="Path 26001" d="M860.808,188.191c0,2.649-1.947,4.955-6.219,4.955a10.352,10.352,0,0,1-5.709-1.6l1.368-2.649a7.216,7.216,0,0,0,4.254,1.346c1.731,0,2.8-.727,2.8-1.947,0-1.173-.77-1.943-3.484-1.943h-3.826l.77-8.417h9.123v2.778h-6.241l-.234,2.839h1.221c4.423,0,6.175,1.99,6.175,4.639" transform="translate(-360.818 -75.631)" fill="#4d4d4f"></path><path id="Path_26002" data-name="Path 26002" d="M789.319,317.33c0-4.938,2.735-7.738,6.41-7.738,3.7,0,6.409,2.8,6.409,7.738s-2.713,7.734-6.409,7.734c-3.675,0-6.41-2.8-6.41-7.734m9.335,0c0-3.4-1.194-4.808-2.925-4.808-1.71,0-2.909,1.411-2.909,4.808s1.2,4.808,2.909,4.808c1.731,0,2.925-1.411,2.925-4.808" transform="translate(-335.501 -131.592)" fill="#4d4d4f"></path><path id="Path_26003" data-name="Path 26003" d="M826.89,320.087c0,3.056-2.5,4.977-5.661,4.977-4.124,0-6.686-2.584-6.686-7.413,0-5.172,3.116-8.059,7.625-8.059a8.03,8.03,0,0,1,4.168,1.03l-1.281,2.54a4.95,4.95,0,0,0-2.8-.749c-2.5,0-4.1,1.476-4.211,4.341a5.05,5.05,0,0,1,3.7-1.329c2.882,0,5.146,1.839,5.146,4.661m-3.354.169a2.253,2.253,0,0,0-2.54-2.242,2.34,2.34,0,0,0-2.588,2.242c0,1.286.961,2.224,2.632,2.224a2.237,2.237,0,0,0,2.5-2.224" transform="translate(-346.222 -131.592)" fill="#4d4d4f"></path></g></g><path id="Path_26992" data-name="Path 26992" d="M1.353-16.3c0,2.64,1.391,4.149,3.937,4.149S9.226-13.658,9.226-16.3v-3.017c0-2.428-.966-3.772-2.876-3.772a2.468,2.468,0,0,0-2.4,1.462v-3.017c0-1.579.519-2.027,1.438-2.027.825,0,1.344.448,1.344,1.627v.589H9.179v-.424c0-2.64-1.32-4.149-3.866-4.149-2.687,0-3.96,1.509-3.96,4.29ZM5.29-20.73c.825,0,1.344.448,1.344,1.627v2.97c0,1.179-.519,1.6-1.344,1.6s-1.344-.424-1.344-1.6V-19.1C3.946-20.282,4.465-20.73,5.29-20.73Zm8.463-5.752h2.711v14.144h2.593V-26.482h2.711v-2.357H13.752ZM22.9-12.338h2.593v-16.5H22.9Zm8.3-16.5H27.378v16.5h2.593v-6.2H31.2c2.593,0,3.866-1.438,3.866-4.078v-2.145C35.062-27.4,33.789-28.839,31.2-28.839Zm0,2.357c.825,0,1.273.377,1.273,1.556v2.475c0,1.179-.448,1.556-1.273,1.556H29.971v-5.587Zm4.738,1.6c0,4.715,5.068,5.351,5.068,8.746,0,1.179-.519,1.6-1.344,1.6s-1.344-.424-1.344-1.6v-1.179H35.864V-16.3c0,2.64,1.32,4.149,3.866,4.149S43.6-13.658,43.6-16.3c0-4.715-5.068-5.351-5.068-8.746,0-1.179.471-1.627,1.3-1.627s1.3.448,1.3,1.627v.684h2.452v-.519c0-2.64-1.3-4.149-3.819-4.149S35.934-27.519,35.934-24.879Z" transform="translate(8425.267 3624.57)" fill="#283e67"></path><path id="Path_26991" data-name="Path 26991" d="M.328-26.482H3.039v14.144H5.632V-26.482H8.343v-2.357H.328Zm11.527,1.438c0-1.179.519-1.627,1.344-1.627s1.344.448,1.344,1.627v8.911c0,1.179-.519,1.627-1.344,1.627s-1.344-.448-1.344-1.627ZM9.262-16.3c0,2.64,1.391,4.149,3.937,4.149s3.937-1.509,3.937-4.149v-8.581c0-2.64-1.391-4.149-3.937-4.149s-3.937,1.509-3.937,4.149ZM26.376-28.839H22.463v16.5h4.078c2.593,0,3.937-1.367,3.937-3.913V-17.6c0-1.744-.542-2.994-1.933-3.536,1.155-.542,1.674-1.627,1.674-3.324v-.589C30.218-27.59,29.063-28.839,26.376-28.839Zm-.165,9.076c1.179,0,1.674.471,1.674,2v1.438c0,1.226-.471,1.627-1.344,1.627H25.056v-5.068Zm.094-6.718c.919,0,1.32.519,1.32,1.7v.919c0,1.32-.589,1.744-1.556,1.744H25.056v-4.361Zm5.61-2.357v12.564c0,2.64,1.32,4.149,3.866,4.149s3.866-1.509,3.866-4.149V-28.839H37.2V-16.11c0,1.179-.519,1.6-1.344,1.6s-1.344-.424-1.344-1.6V-28.839Zm9.5,16.5h2.593v-16.5H41.416Zm4.479,0h6.86V-14.7H48.487V-28.839H45.894Zm7.991,0h4.1c2.593,0,3.866-1.438,3.866-4.078v-8.345c0-2.64-1.273-4.078-3.866-4.078h-4.1ZM57.94-26.482c.825,0,1.32.424,1.32,1.6V-16.3c0,1.179-.5,1.6-1.32,1.6H56.479V-26.482ZM69.585-12.338h2.593v-5.469l3.277-11.032H72.98L71-21.32l-1.98-7.52H66.309l3.277,11.032Zm8.6-12.706c0-1.179.519-1.627,1.344-1.627s1.344.448,1.344,1.627v8.911c0,1.179-.519,1.627-1.344,1.627s-1.344-.448-1.344-1.627ZM75.6-16.3c0,2.64,1.391,4.149,3.937,4.149S83.47-13.658,83.47-16.3v-8.581c0-2.64-1.391-4.149-3.937-4.149S75.6-27.519,75.6-24.879Zm9.429-12.541v12.564c0,2.64,1.32,4.149,3.866,4.149s3.866-1.509,3.866-4.149V-28.839H90.306V-16.11c0,1.179-.519,1.6-1.344,1.6s-1.344-.424-1.344-1.6V-28.839Zm17.562,16.5a4.859,4.859,0,0,1-.283-2v-2.546c0-1.721-.424-2.97-1.721-3.512,1.155-.542,1.7-1.65,1.7-3.347v-1.3c0-2.546-1.155-3.8-3.842-3.8H94.525v16.5h2.593v-6.718h.9c1.179,0,1.7.566,1.7,2.1v2.593a5.075,5.075,0,0,0,.236,2.027Zm-4.22-14.144c.919,0,1.32.519,1.32,1.7v1.627c0,1.32-.589,1.744-1.556,1.744H97.118v-5.068Z" transform="translate(8395.858 3651.585)" fill="#283e67"></path><path id="Path_26993" data-name="Path 26993" d="M5.553-28.839H1.64v16.5H5.718c2.593,0,3.937-1.367,3.937-3.913V-17.6c0-1.744-.542-2.994-1.933-3.536C8.877-21.673,9.4-22.758,9.4-24.455v-.589C9.4-27.59,8.24-28.839,5.553-28.839Zm-.165,9.076c1.179,0,1.674.471,1.674,2v1.438c0,1.226-.471,1.627-1.344,1.627H4.233v-5.068Zm.094-6.718c.919,0,1.32.519,1.32,1.7v.919c0,1.32-.589,1.744-1.556,1.744H4.233v-4.361Zm5.61-2.357v12.564c0,2.64,1.32,4.149,3.866,4.149s3.866-1.509,3.866-4.149V-28.839H16.373V-16.11c0,1.179-.519,1.6-1.344,1.6s-1.344-.424-1.344-1.6V-28.839Zm9.17,3.96c0,4.715,5.068,5.351,5.068,8.746,0,1.179-.519,1.6-1.344,1.6s-1.344-.424-1.344-1.6v-1.179H20.192V-16.3c0,2.64,1.32,4.149,3.866,4.149s3.866-1.509,3.866-4.149c0-4.715-5.068-5.351-5.068-8.746,0-1.179.471-1.627,1.3-1.627s1.3.448,1.3,1.627v.684H27.9v-.519c0-2.64-1.3-4.149-3.819-4.149S20.263-27.519,20.263-24.879Zm9.146,12.541H32v-16.5H29.409Zm10.018,0h2.664v-16.5h-2.31v9.877l-2.664-9.877H33.864v16.5H36.2V-24.29Zm7.119-14.144h4.479v-2.357H43.953v16.5h7.072V-14.7H46.546v-4.832h3.56v-2.357h-3.56Zm5.752,1.6c0,4.715,5.068,5.351,5.068,8.746,0,1.179-.519,1.6-1.344,1.6s-1.344-.424-1.344-1.6v-1.179H52.227V-16.3c0,2.64,1.32,4.149,3.866,4.149s3.866-1.509,3.866-4.149c0-4.715-5.068-5.351-5.068-8.746,0-1.179.471-1.627,1.3-1.627s1.3.448,1.3,1.627v.684h2.452v-.519c0-2.64-1.3-4.149-3.819-4.149S52.3-27.519,52.3-24.879Zm8.816,0c0,4.715,5.068,5.351,5.068,8.746,0,1.179-.519,1.6-1.344,1.6s-1.344-.424-1.344-1.6v-1.179H61.044V-16.3c0,2.64,1.32,4.149,3.866,4.149s3.866-1.509,3.866-4.149c0-4.715-5.068-5.351-5.068-8.746,0-1.179.471-1.627,1.3-1.627s1.3.448,1.3,1.627v.684h2.452v-.519c0-2.64-1.3-4.149-3.819-4.149S61.114-27.519,61.114-24.879ZM73.938-17.6v1.674c0,2.428.966,3.772,2.876,3.772a2.453,2.453,0,0,0,2.4-1.485,3.933,3.933,0,0,0,.236,1.3h2.64a4.86,4.86,0,0,1-.283-2v-5.422H82.5v-2.357h-.684V-23.96H79.218v1.839H78.087c-.966,0-1.556-.424-1.556-1.744v-1.014c0-1.179.5-1.6,1.32-1.6h2.923v-2.357H77.8c-2.593,0-3.866,1.438-3.866,4.078v.306c0,1.768.566,2.876,1.792,3.395C74.457-20.495,73.938-19.269,73.938-17.6Zm2.593,1.462v-1.532c0-1.532.519-2.1,1.7-2.1h.99v3.819c-.047,1.037-.566,1.438-1.344,1.438C77.05-14.507,76.531-14.955,76.531-16.134ZM89.921-26.482H94.4v-2.357H87.328v16.5H94.4V-14.7H89.921v-4.832h3.56v-2.357h-3.56Zm11.834-2.357h-3.8l-2.64,16.5H97.7l.448-2.994h3.182l.448,2.994h2.617Zm-2.027,2.923,1.249,8.345h-2.5Zm13.932,13.578a4.86,4.86,0,0,1-.283-2v-2.546c0-1.721-.424-2.97-1.721-3.512,1.155-.542,1.7-1.65,1.7-3.347v-1.3c0-2.546-1.155-3.8-3.842-3.8H105.6v16.5h2.593v-6.718h.9c1.179,0,1.7.566,1.7,2.1v2.593a5.075,5.075,0,0,0,.236,2.027Zm-4.22-14.144c.919,0,1.32.519,1.32,1.7v1.627c0,1.32-.589,1.744-1.556,1.744H108.19v-5.068Zm11.174,14.144h2.664v-16.5h-2.31v9.877L118.3-28.839h-3.253v16.5h2.334V-24.29Z" transform="translate(8385.188 3678.599)" fill="#283e67"></path><path id="Path_26994" data-name="Path 26994" d="M5.206-28.839H1.6v16.5H3.862V-24.007L5.795-12.338H8.247l1.792-11.834v11.834H12.49v-16.5H8.883L7.115-17.124Zm11.551,3.8c0-1.179.519-1.627,1.344-1.627s1.344.448,1.344,1.627v8.911c0,1.179-.519,1.627-1.344,1.627s-1.344-.448-1.344-1.627ZM14.163-16.3c0,2.64,1.391,4.149,3.937,4.149s3.937-1.509,3.937-4.149v-8.581c0-2.64-1.391-4.149-3.937-4.149s-3.937,1.509-3.937,4.149Zm15.087,3.96h2.664v-16.5H29.6v9.877L26.94-28.839H23.687v16.5h2.334V-24.29Zm7.119-14.144h4.479v-2.357H33.776v16.5h7.072V-14.7H36.369v-4.832h3.56v-2.357h-3.56Zm8.51,14.144h2.593v-5.469l3.277-11.032H48.273l-1.98,7.52-1.98-7.52H41.6l3.277,11.032Zm16.312-16.5H57.4l-2.64,16.5h2.381l.448-2.994h3.182l.448,2.994h2.617Zm-2.027,2.923,1.249,8.345h-2.5Zm5.54,1.037c0,4.715,5.068,5.351,5.068,8.746,0,1.179-.519,1.6-1.344,1.6s-1.344-.424-1.344-1.6v-1.179H64.633V-16.3c0,2.64,1.32,4.149,3.866,4.149s3.866-1.509,3.866-4.149c0-4.715-5.068-5.351-5.068-8.746,0-1.179.471-1.627,1.3-1.627s1.3.448,1.3,1.627v.684h2.452v-.519c0-2.64-1.3-4.149-3.819-4.149S64.7-27.519,64.7-24.879ZM77.5-12.338H80.1v-16.5H77.5Zm8.392-16.5H81.983v16.5h4.078c2.593,0,3.937-1.367,3.937-3.913V-17.6c0-1.744-.542-2.994-1.933-3.536,1.155-.542,1.674-1.627,1.674-3.324v-.589C89.738-27.59,88.583-28.839,85.9-28.839Zm-.165,9.076c1.179,0,1.674.471,1.674,2v1.438c0,1.226-.471,1.627-1.344,1.627H84.576v-5.068Zm.094-6.718c.919,0,1.32.519,1.32,1.7v.919c0,1.32-.589,1.744-1.556,1.744H84.576v-4.361Z" transform="translate(8401.99 3705.614)" fill="#283e67"></path><path id="Path_27001" data-name="Path 27001" d="M1.764-15.367h4.3v1.609H3.4v1.574H6.067V-10.6H3.4v3.9H1.764Zm8.607,2.093a3.4,3.4,0,0,1,1.707.454,3.279,3.279,0,0,1,1.247,1.232,3.311,3.311,0,0,1,.448,1.68,3.369,3.369,0,0,1-.451,1.7,3.254,3.254,0,0,1-1.229,1.235,3.394,3.394,0,0,1-1.716.445,3.2,3.2,0,0,1-2.355-.982A3.256,3.256,0,0,1,7.046-9.9a3.245,3.245,0,0,1,1.1-2.506A3.22,3.22,0,0,1,10.371-13.274Zm.027,1.515a1.657,1.657,0,0,0-1.249.522A1.853,1.853,0,0,0,8.65-9.9a1.887,1.887,0,0,0,.493,1.356,1.649,1.649,0,0,0,1.249.519,1.668,1.668,0,0,0,1.258-.525,1.873,1.873,0,0,0,.5-1.35,1.861,1.861,0,0,0-.493-1.341A1.668,1.668,0,0,0,10.4-11.759Zm10.969-.053-1.34.737a2.272,2.272,0,0,0-.747-.548,2.243,2.243,0,0,0-.865-.153,2.015,2.015,0,0,0-1.461.539,1.835,1.835,0,0,0-.558,1.38,1.774,1.774,0,0,0,.537,1.336A1.947,1.947,0,0,0,18.344-8a2.051,2.051,0,0,0,1.682-.737l1.269.869a3.46,3.46,0,0,1-2.912,1.342,3.492,3.492,0,0,1-2.65-1,3.287,3.287,0,0,1-.958-2.346,3.3,3.3,0,0,1,.466-1.716,3.287,3.287,0,0,1,1.3-1.232,3.88,3.88,0,0,1,1.866-.448,3.783,3.783,0,0,1,1.716.38A3.256,3.256,0,0,1,21.366-11.812Zm1.444-1.3h1.627v3.089a4.277,4.277,0,0,0,.124,1.253,1.093,1.093,0,0,0,.4.545,1.141,1.141,0,0,0,.677.195,1.182,1.182,0,0,0,.683-.192,1.124,1.124,0,0,0,.417-.563,4.317,4.317,0,0,0,.1-1.185v-3.142h1.609v2.718a6.667,6.667,0,0,1-.265,2.3,2.508,2.508,0,0,1-.955,1.158,2.923,2.923,0,0,1-1.6.4A2.844,2.844,0,0,1,23.916-7,2.492,2.492,0,0,1,23-8.316a7.968,7.968,0,0,1-.189-2.122Zm11.178.9-1,1a1.685,1.685,0,0,0-1.1-.6.694.694,0,0,0-.424.115.346.346,0,0,0-.153.286.351.351,0,0,0,.1.239,1.815,1.815,0,0,0,.48.3l.59.295a3.474,3.474,0,0,1,1.279.937,1.851,1.851,0,0,1,.348,1.12A1.85,1.85,0,0,1,33.478-7.1a2.4,2.4,0,0,1-1.683.572,2.676,2.676,0,0,1-2.24-1.1l.99-1.079a2.288,2.288,0,0,0,.663.534,1.468,1.468,0,0,0,.675.2.805.805,0,0,0,.513-.153.444.444,0,0,0,.195-.354q0-.371-.7-.725l-.542-.271q-1.556-.784-1.556-1.963a1.7,1.7,0,0,1,.587-1.3,2.13,2.13,0,0,1,1.5-.539A2.606,2.606,0,0,1,33.054-13,2.6,2.6,0,0,1,33.988-12.213Zm7.776-1.061a3.4,3.4,0,0,1,1.707.454,3.279,3.279,0,0,1,1.247,1.232,3.311,3.311,0,0,1,.448,1.68,3.369,3.369,0,0,1-.451,1.7,3.254,3.254,0,0,1-1.229,1.235,3.394,3.394,0,0,1-1.716.445,3.2,3.2,0,0,1-2.355-.982A3.256,3.256,0,0,1,38.439-9.9a3.245,3.245,0,0,1,1.1-2.506A3.22,3.22,0,0,1,41.764-13.274Zm.027,1.515a1.657,1.657,0,0,0-1.249.522,1.853,1.853,0,0,0-.5,1.335,1.887,1.887,0,0,0,.493,1.356,1.649,1.649,0,0,0,1.249.519,1.668,1.668,0,0,0,1.258-.525,1.873,1.873,0,0,0,.5-1.35,1.861,1.861,0,0,0-.493-1.341A1.668,1.668,0,0,0,41.791-11.759Zm4.69-1.35H48.09v.657a3.861,3.861,0,0,1,.992-.642,2.4,2.4,0,0,1,.91-.18,2.2,2.2,0,0,1,1.619.666,2.288,2.288,0,0,1,.559,1.674v4.239H50.578V-9.5a7.106,7.106,0,0,0-.1-1.525,1.045,1.045,0,0,0-.359-.574,1,1,0,0,0-.632-.2,1.185,1.185,0,0,0-.838.327,1.745,1.745,0,0,0-.485.9,7.291,7.291,0,0,0-.071,1.3v2.573H46.481Zm10.806-2.258h1.583L62.581-9.66v-5.707h1.651v8.672H62.644l-3.706-5.689v5.689H57.287Zm9.377-.383a.984.984,0,0,1,.726.307,1.018,1.018,0,0,1,.3.743,1.006,1.006,0,0,1-.3.734.972.972,0,0,1-.717.3.986.986,0,0,1-.732-.31,1.035,1.035,0,0,1-.3-.752.99.99,0,0,1,.3-.725A.984.984,0,0,1,66.664-15.75Zm-.8,2.641h1.609v6.414H65.859Zm9.35,1.3-1.34.737a2.272,2.272,0,0,0-.747-.548,2.243,2.243,0,0,0-.865-.153,2.015,2.015,0,0,0-1.461.539,1.835,1.835,0,0,0-.558,1.38,1.774,1.774,0,0,0,.537,1.336A1.947,1.947,0,0,0,72.187-8,2.051,2.051,0,0,0,73.87-8.74l1.269.869a3.46,3.46,0,0,1-2.912,1.342,3.492,3.492,0,0,1-2.65-1,3.287,3.287,0,0,1-.958-2.346,3.3,3.3,0,0,1,.466-1.716,3.287,3.287,0,0,1,1.3-1.232,3.88,3.88,0,0,1,1.866-.448,3.783,3.783,0,0,1,1.716.38A3.256,3.256,0,0,1,75.21-11.812Zm1.456-3.773h1.6v3.125a3.667,3.667,0,0,1,.949-.61,2.447,2.447,0,0,1,.967-.2,2.178,2.178,0,0,1,1.609.66,2.307,2.307,0,0,1,.56,1.68v4.239H80.763V-9.507a6.941,6.941,0,0,0-.106-1.509,1.053,1.053,0,0,0-.363-.59,1.018,1.018,0,0,0-.634-.195,1.2,1.2,0,0,0-.84.324,1.719,1.719,0,0,0-.486.884,7.321,7.321,0,0,0-.071,1.321v2.576h-1.6ZM90.331-9.436h-5.17a1.721,1.721,0,0,0,.6,1.088,1.878,1.878,0,0,0,1.241.4,2.146,2.146,0,0,0,1.551-.631l1.356.637a3.2,3.2,0,0,1-1.214,1.064,3.8,3.8,0,0,1-1.68.345,3.321,3.321,0,0,1-2.458-.952A3.24,3.24,0,0,1,83.6-9.866a3.35,3.35,0,0,1,.946-2.438,3.178,3.178,0,0,1,2.373-.97,3.3,3.3,0,0,1,2.464.97,3.5,3.5,0,0,1,.949,2.562ZM88.722-10.7a1.615,1.615,0,0,0-.629-.873A1.824,1.824,0,0,0,87-11.912a1.927,1.927,0,0,0-1.181.377,2.1,2.1,0,0,0-.591.831Z" transform="translate(8173.391 3573.32)" fill="#283e67"></path><path id="Path_27002" data-name="Path 27002" d="M2.076-15.245H3.684L5.694-9.2l2.029-6.049H9.33l1.455,8.672h-1.6l-.93-5.477L6.417-6.573H4.962L3.136-12.049,2.184-6.573H.574Zm14.581,2.258h1.609v6.414H16.657V-7.25a3.155,3.155,0,0,1-.945.646,2.645,2.645,0,0,1-1.028.2,2.855,2.855,0,0,1-2.149-.964,3.363,3.363,0,0,1-.907-2.4,3.446,3.446,0,0,1,.877-2.435,2.8,2.8,0,0,1,2.132-.949,2.709,2.709,0,0,1,1.083.218,2.957,2.957,0,0,1,.936.654Zm-1.692,1.321a1.626,1.626,0,0,0-1.24.528,1.9,1.9,0,0,0-.494,1.353,1.922,1.922,0,0,0,.5,1.368,1.628,1.628,0,0,0,1.237.536,1.658,1.658,0,0,0,1.257-.528,1.929,1.929,0,0,0,.5-1.382,1.873,1.873,0,0,0-.5-1.356A1.679,1.679,0,0,0,14.965-11.666Zm4.551-1.321H20.9v.808a1.723,1.723,0,0,1,.6-.725,1.437,1.437,0,0,1,.814-.248,1.505,1.505,0,0,1,.654.165l-.5,1.385a1.107,1.107,0,0,0-.466-.141.737.737,0,0,0-.628.46,4.207,4.207,0,0,0-.256,1.8l.006.312v2.594h-1.6Zm4.251-2.476h1.609v5.121l2.37-2.644h2.021L27-9.913,30.1-6.573h-2L25.376-9.529v2.956H23.767ZM37.185-9.314h-5.17a1.721,1.721,0,0,0,.6,1.088,1.878,1.878,0,0,0,1.241.4A2.146,2.146,0,0,0,35.4-8.453l1.356.637a3.2,3.2,0,0,1-1.214,1.064,3.8,3.8,0,0,1-1.68.345,3.321,3.321,0,0,1-2.458-.952,3.24,3.24,0,0,1-.949-2.385,3.35,3.35,0,0,1,.946-2.438,3.178,3.178,0,0,1,2.373-.97,3.3,3.3,0,0,1,2.464.97,3.5,3.5,0,0,1,.949,2.562Zm-1.609-1.268a1.615,1.615,0,0,0-.629-.873,1.824,1.824,0,0,0-1.09-.336,1.927,1.927,0,0,0-1.181.377,2.1,2.1,0,0,0-.591.831Zm3.107-4.769h1.609v2.364h.955V-11.6h-.955v5.029H38.683V-11.6h-.825v-1.385h.825Zm7.352,3.26-1,1a1.685,1.685,0,0,0-1.1-.6.694.694,0,0,0-.424.115.346.346,0,0,0-.153.286.351.351,0,0,0,.1.239,1.815,1.815,0,0,0,.48.3l.59.295a3.474,3.474,0,0,1,1.279.937,1.851,1.851,0,0,1,.348,1.12,1.85,1.85,0,0,1-.628,1.427,2.4,2.4,0,0,1-1.683.572A2.676,2.676,0,0,1,41.6-7.5l.99-1.079a2.288,2.288,0,0,0,.663.534,1.468,1.468,0,0,0,.675.2A.805.805,0,0,0,44.442-8a.444.444,0,0,0,.195-.354q0-.371-.7-.725l-.542-.271q-1.556-.784-1.556-1.963a1.7,1.7,0,0,1,.587-1.3,2.13,2.13,0,0,1,1.5-.539,2.606,2.606,0,0,1,1.176.274A2.6,2.6,0,0,1,46.034-12.091Z" transform="translate(8195.75 3587.565)" fill="#283e67"></path><path id="Path_27003" data-name="Path 27003" d="M1.733-15.245H6.467v1.615h-3.1v1.568h3.1v1.586h-3.1v2.282h3.1v1.621H1.733Zm5.518,2.258H9.12l1.268,1.748,1.261-1.748h1.837L11.309-9.968l2.463,3.4H11.9l-1.526-2.1-1.518,2.1H7.021L9.456-9.947Zm8.938,0v.707a3.027,3.027,0,0,1,.943-.654,2.715,2.715,0,0,1,1.085-.218,2.8,2.8,0,0,1,2.134.949,3.443,3.443,0,0,1,.878,2.435,3.36,3.36,0,0,1-.908,2.4,2.859,2.859,0,0,1-2.152.964,2.673,2.673,0,0,1-1.032-.2,3.145,3.145,0,0,1-.949-.646v3.024h-1.6v-8.761Zm1.692,1.321a1.68,1.68,0,0,0-1.262.519,1.87,1.87,0,0,0-.5,1.356,1.925,1.925,0,0,0,.5,1.382,1.666,1.666,0,0,0,1.262.528,1.636,1.636,0,0,0,1.241-.536,1.918,1.918,0,0,0,.5-1.368,1.9,1.9,0,0,0-.5-1.353A1.641,1.641,0,0,0,17.881-11.666ZM27.3-12.987h1.609v6.414H27.3V-7.25a3.155,3.155,0,0,1-.945.646,2.645,2.645,0,0,1-1.028.2,2.855,2.855,0,0,1-2.149-.964,3.363,3.363,0,0,1-.907-2.4,3.446,3.446,0,0,1,.877-2.435,2.8,2.8,0,0,1,2.132-.949,2.709,2.709,0,0,1,1.083.218,2.957,2.957,0,0,1,.936.654ZM25.6-11.666a1.626,1.626,0,0,0-1.24.528,1.9,1.9,0,0,0-.494,1.353,1.922,1.922,0,0,0,.5,1.368,1.628,1.628,0,0,0,1.237.536,1.658,1.658,0,0,0,1.257-.528,1.929,1.929,0,0,0,.5-1.382,1.873,1.873,0,0,0-.5-1.356A1.679,1.679,0,0,0,25.6-11.666Zm4.929-1.321h1.609v.657a3.861,3.861,0,0,1,.992-.642,2.4,2.4,0,0,1,.91-.18,2.2,2.2,0,0,1,1.619.666,2.288,2.288,0,0,1,.559,1.674v4.239H34.63V-9.381a7.106,7.106,0,0,0-.1-1.525,1.045,1.045,0,0,0-.359-.574,1,1,0,0,0-.632-.2,1.185,1.185,0,0,0-.838.327,1.745,1.745,0,0,0-.485.9,7.291,7.291,0,0,0-.071,1.3v2.573H30.532Zm11.98-2.476h1.609v8.89H42.512V-7.25a3.155,3.155,0,0,1-.945.646,2.645,2.645,0,0,1-1.028.2,2.855,2.855,0,0,1-2.149-.964,3.363,3.363,0,0,1-.907-2.4A3.446,3.446,0,0,1,38.36-12.2a2.8,2.8,0,0,1,2.132-.949,2.709,2.709,0,0,1,1.083.218,2.957,2.957,0,0,1,.936.654Zm-1.692,3.8a1.626,1.626,0,0,0-1.24.528,1.9,1.9,0,0,0-.494,1.353,1.922,1.922,0,0,0,.5,1.368,1.628,1.628,0,0,0,1.237.536,1.658,1.658,0,0,0,1.257-.528,1.929,1.929,0,0,0,.5-1.382,1.873,1.873,0,0,0-.5-1.356A1.679,1.679,0,0,0,40.82-11.666Zm7.595-1.321H50.06l1.666,4.025,1.838-4.025h1.649L51.2-4.226H49.534l1.319-2.825Zm10.728-.165a3.4,3.4,0,0,1,1.707.454A3.279,3.279,0,0,1,62.1-11.466a3.311,3.311,0,0,1,.448,1.68,3.369,3.369,0,0,1-.451,1.7,3.254,3.254,0,0,1-1.229,1.235,3.394,3.394,0,0,1-1.716.445,3.2,3.2,0,0,1-2.355-.982,3.256,3.256,0,0,1-.976-2.385,3.245,3.245,0,0,1,1.1-2.506A3.22,3.22,0,0,1,59.143-13.152Zm.027,1.515a1.657,1.657,0,0,0-1.249.522,1.853,1.853,0,0,0-.5,1.335,1.887,1.887,0,0,0,.493,1.356,1.649,1.649,0,0,0,1.249.519,1.668,1.668,0,0,0,1.258-.525,1.873,1.873,0,0,0,.5-1.35,1.861,1.861,0,0,0-.493-1.341A1.668,1.668,0,0,0,59.17-11.637Zm4.684-1.35h1.627V-9.9A4.277,4.277,0,0,0,65.6-8.645,1.093,1.093,0,0,0,66-8.1a1.141,1.141,0,0,0,.677.195,1.182,1.182,0,0,0,.683-.192,1.124,1.124,0,0,0,.417-.563,4.317,4.317,0,0,0,.1-1.185v-3.142H69.49v2.718a6.667,6.667,0,0,1-.265,2.3,2.508,2.508,0,0,1-.955,1.158,2.923,2.923,0,0,1-1.6.4,2.844,2.844,0,0,1-1.707-.472,2.492,2.492,0,0,1-.917-1.315,7.968,7.968,0,0,1-.189-2.122Zm6.874,0h1.38v.808a1.724,1.724,0,0,1,.6-.725,1.437,1.437,0,0,1,.814-.248,1.505,1.505,0,0,1,.654.165l-.5,1.385a1.107,1.107,0,0,0-.466-.141.737.737,0,0,0-.628.46,4.207,4.207,0,0,0-.256,1.8l.006.312v2.594h-1.6Z" transform="translate(8155.414 3649.927)" fill="#283e67"></path><path id="Path_27004" data-name="Path 27004" d="M1.733-15.367H3.316L7.027-9.66v-5.707H8.678v8.672H7.09L3.384-12.384v5.689H1.733ZM16.908-9.436h-5.17a1.721,1.721,0,0,0,.6,1.088,1.878,1.878,0,0,0,1.241.4,2.146,2.146,0,0,0,1.551-.631l1.356.637a3.2,3.2,0,0,1-1.214,1.064,3.8,3.8,0,0,1-1.68.345,3.321,3.321,0,0,1-2.458-.952,3.24,3.24,0,0,1-.949-2.385,3.35,3.35,0,0,1,.946-2.438,3.178,3.178,0,0,1,2.373-.97,3.3,3.3,0,0,1,2.464.97,3.5,3.5,0,0,1,.949,2.562ZM15.3-10.7a1.615,1.615,0,0,0-.629-.873,1.824,1.824,0,0,0-1.09-.336,1.927,1.927,0,0,0-1.181.377,2.1,2.1,0,0,0-.591.831Zm3.107-4.769h1.609v2.364h.955v1.385h-.955v5.029H18.405v-5.029H17.58v-1.385h.825Zm2.715,2.364H22.7l1.29,3.649,1.388-3.649h.964L27.7-9.5l1.291-3.608h1.586L28.236-6.695h-1.02L25.848-10.35,24.439-6.695H23.431Zm13.38-.165a3.4,3.4,0,0,1,1.707.454,3.279,3.279,0,0,1,1.247,1.232,3.311,3.311,0,0,1,.448,1.68,3.369,3.369,0,0,1-.451,1.7,3.254,3.254,0,0,1-1.229,1.235,3.394,3.394,0,0,1-1.716.445,3.2,3.2,0,0,1-2.355-.982A3.256,3.256,0,0,1,31.175-9.9a3.245,3.245,0,0,1,1.1-2.506A3.22,3.22,0,0,1,34.5-13.274Zm.027,1.515a1.657,1.657,0,0,0-1.249.522,1.853,1.853,0,0,0-.5,1.335,1.887,1.887,0,0,0,.493,1.356,1.649,1.649,0,0,0,1.249.519,1.668,1.668,0,0,0,1.258-.525,1.873,1.873,0,0,0,.5-1.35,1.861,1.861,0,0,0-.493-1.341A1.668,1.668,0,0,0,34.526-11.759Zm4.313-1.35h1.38v.808a1.723,1.723,0,0,1,.6-.725,1.437,1.437,0,0,1,.814-.248,1.505,1.505,0,0,1,.654.165l-.5,1.385a1.107,1.107,0,0,0-.466-.141.737.737,0,0,0-.628.46,4.207,4.207,0,0,0-.256,1.8l.006.312v2.594h-1.6Zm4.251-2.476H44.7v5.121l2.37-2.644H49.09l-2.763,3.074,3.094,3.34h-2L44.7-9.651v2.956H43.09Zm13.383,2.311a3.4,3.4,0,0,1,1.707.454,3.279,3.279,0,0,1,1.247,1.232,3.311,3.311,0,0,1,.448,1.68,3.369,3.369,0,0,1-.451,1.7,3.254,3.254,0,0,1-1.229,1.235,3.394,3.394,0,0,1-1.716.445,3.2,3.2,0,0,1-2.355-.982A3.256,3.256,0,0,1,53.147-9.9a3.245,3.245,0,0,1,1.1-2.506A3.22,3.22,0,0,1,56.472-13.274Zm.027,1.515a1.657,1.657,0,0,0-1.249.522,1.853,1.853,0,0,0-.5,1.335,1.887,1.887,0,0,0,.493,1.356,1.649,1.649,0,0,0,1.249.519,1.668,1.668,0,0,0,1.258-.525,1.873,1.873,0,0,0,.5-1.35,1.861,1.861,0,0,0-.493-1.341A1.668,1.668,0,0,0,56.5-11.759Zm3.923-1.35h.572Q61-14.37,61.035-14.6a1.23,1.23,0,0,1,.445-.84,1.663,1.663,0,0,1,1.076-.31,3.35,3.35,0,0,1,1.132.23v1.226a2.158,2.158,0,0,0-.572-.1.6.6,0,0,0-.413.118.511.511,0,0,0-.094.366l-.006.8h1.02v1.362H62.6v5.052H60.994v-5.052h-.572Zm12.251-1.079-1.223,1.079a1.734,1.734,0,0,0-1.311-.9.8.8,0,0,0-.532.174.506.506,0,0,0-.207.392.671.671,0,0,0,.148.413,11.215,11.215,0,0,0,1.211,1.114q.945.79,1.146,1a3.454,3.454,0,0,1,.712.97,2.421,2.421,0,0,1,.21,1.011,2.318,2.318,0,0,1-.738,1.763,2.69,2.69,0,0,1-1.924.7,2.862,2.862,0,0,1-1.614-.454,3.586,3.586,0,0,1-1.177-1.427l1.388-.837q.626,1.15,1.441,1.15a1.061,1.061,0,0,0,.714-.248.737.737,0,0,0,.289-.572.987.987,0,0,0-.218-.59,6.3,6.3,0,0,0-.963-.9,9.71,9.71,0,0,1-1.831-1.783,2.266,2.266,0,0,1-.413-1.253,2.049,2.049,0,0,1,.688-1.548,2.385,2.385,0,0,1,1.7-.646,2.678,2.678,0,0,1,1.237.3A4.5,4.5,0,0,1,72.673-14.188Zm1.545,1.079h1.627v3.089a4.277,4.277,0,0,0,.124,1.253,1.093,1.093,0,0,0,.4.545,1.141,1.141,0,0,0,.677.195,1.182,1.182,0,0,0,.683-.192,1.124,1.124,0,0,0,.417-.563,4.317,4.317,0,0,0,.1-1.185v-3.142h1.609v2.718a6.667,6.667,0,0,1-.265,2.3,2.508,2.508,0,0,1-.955,1.158,2.923,2.923,0,0,1-1.6.4A2.844,2.844,0,0,1,75.323-7a2.492,2.492,0,0,1-.917-1.315,7.968,7.968,0,0,1-.189-2.122Zm8.849-2.476V-12.4a3.026,3.026,0,0,1,.943-.654,2.715,2.715,0,0,1,1.085-.218,2.8,2.8,0,0,1,2.134.949,3.443,3.443,0,0,1,.878,2.435,3.36,3.36,0,0,1-.908,2.4,2.859,2.859,0,0,1-2.152.964,2.673,2.673,0,0,1-1.032-.2,3.145,3.145,0,0,1-.949-.646v.678h-1.6v-8.89Zm1.692,3.8a1.68,1.68,0,0,0-1.262.519A1.87,1.87,0,0,0,83-9.913a1.925,1.925,0,0,0,.5,1.382A1.666,1.666,0,0,0,84.759-8,1.636,1.636,0,0,0,86-8.54a1.918,1.918,0,0,0,.5-1.368,1.9,1.9,0,0,0-.5-1.353A1.641,1.641,0,0,0,84.759-11.788Zm4.905,1.15h2.995v1.5H89.664Zm4.905-4.728h1.639v8.672H94.569Zm3.5,8.672v-8.672h1.364a7.065,7.065,0,0,1,1.735.153,2.323,2.323,0,0,1,1.24.766,2.015,2.015,0,0,1,.46,1.321,1.924,1.924,0,0,1-.209.9,2.288,2.288,0,0,1-.681.758,2.713,2.713,0,0,1,1.156.929,2.347,2.347,0,0,1,.366,1.318,2.454,2.454,0,0,1-.378,1.332,2.412,2.412,0,0,1-.974.9,3.741,3.741,0,0,1-1.647.3Zm1.651-7.1v1.828h.361a1.344,1.344,0,0,0,.9-.254.865.865,0,0,0,.293-.69.807.807,0,0,0-.278-.646,1.274,1.274,0,0,0-.846-.239Zm0,3.3v2.223h.414a2.557,2.557,0,0,0,1.386-.259.874.874,0,0,0,.358-.755,1.057,1.057,0,0,0-.42-.884,2.319,2.319,0,0,0-1.4-.324Zm9.1-1.721-1,1a1.685,1.685,0,0,0-1.1-.6.694.694,0,0,0-.424.115.346.346,0,0,0-.153.286.351.351,0,0,0,.1.239,1.815,1.815,0,0,0,.48.3l.59.295a3.474,3.474,0,0,1,1.279.937,1.851,1.851,0,0,1,.348,1.12,1.85,1.85,0,0,1-.628,1.427,2.4,2.4,0,0,1-1.683.572,2.676,2.676,0,0,1-2.24-1.1l.99-1.079a2.288,2.288,0,0,0,.663.534,1.468,1.468,0,0,0,.675.2.805.805,0,0,0,.513-.153.444.444,0,0,0,.195-.354q0-.371-.7-.725l-.542-.271q-1.556-.784-1.556-1.963a1.7,1.7,0,0,1,.587-1.3,2.13,2.13,0,0,1,1.5-.539,2.606,2.606,0,0,1,1.176.274A2.6,2.6,0,0,1,108.818-12.213Z" transform="translate(8137.798 3664.417)" fill="#283e67"></path><path id="Path_27005" data-name="Path 27005" d="M1.723-15.083H3.373v7.1H5.779v1.574H1.723ZM13.284-9.153H8.113a1.721,1.721,0,0,0,.6,1.088,1.878,1.878,0,0,0,1.241.4A2.146,2.146,0,0,0,11.5-8.292l1.356.637a3.2,3.2,0,0,1-1.214,1.064,3.8,3.8,0,0,1-1.68.345A3.321,3.321,0,0,1,7.506-7.2a3.24,3.24,0,0,1-.949-2.385A3.35,3.35,0,0,1,7.5-12.021a3.178,3.178,0,0,1,2.373-.97,3.3,3.3,0,0,1,2.464.97,3.5,3.5,0,0,1,.949,2.562ZM11.674-10.42a1.615,1.615,0,0,0-.629-.873,1.824,1.824,0,0,0-1.09-.336,1.927,1.927,0,0,0-1.181.377,2.1,2.1,0,0,0-.591.831ZM13.9-12.826h1.64l1.62,3.785,1.617-3.785h1.631l-2.73,6.414H16.635ZM27.775-9.153H22.6a1.721,1.721,0,0,0,.6,1.088,1.878,1.878,0,0,0,1.241.4,2.146,2.146,0,0,0,1.551-.631l1.356.637a3.2,3.2,0,0,1-1.214,1.064,3.8,3.8,0,0,1-1.68.345A3.321,3.321,0,0,1,22-7.2a3.24,3.24,0,0,1-.949-2.385,3.35,3.35,0,0,1,.946-2.438,3.178,3.178,0,0,1,2.373-.97,3.3,3.3,0,0,1,2.464.97,3.5,3.5,0,0,1,.949,2.562ZM26.165-10.42a1.615,1.615,0,0,0-.629-.873,1.824,1.824,0,0,0-1.09-.336,1.927,1.927,0,0,0-1.181.377,2.1,2.1,0,0,0-.591.831ZM28.7-12.826h1.38v.808a1.723,1.723,0,0,1,.6-.725,1.437,1.437,0,0,1,.814-.248,1.505,1.505,0,0,1,.654.165l-.5,1.385a1.107,1.107,0,0,0-.466-.141.737.737,0,0,0-.628.46,4.207,4.207,0,0,0-.256,1.8l.006.312v2.594H28.7Zm8.973,0h1.609v6.414H37.673v-.678a3.155,3.155,0,0,1-.945.646,2.645,2.645,0,0,1-1.028.2,2.855,2.855,0,0,1-2.149-.964,3.363,3.363,0,0,1-.907-2.4,3.446,3.446,0,0,1,.877-2.435,2.8,2.8,0,0,1,2.132-.949,2.709,2.709,0,0,1,1.083.218,2.957,2.957,0,0,1,.936.654ZM35.981-11.5a1.626,1.626,0,0,0-1.24.528,1.9,1.9,0,0,0-.494,1.353,1.922,1.922,0,0,0,.5,1.368,1.628,1.628,0,0,0,1.237.536,1.658,1.658,0,0,0,1.257-.528,1.929,1.929,0,0,0,.5-1.382,1.873,1.873,0,0,0-.5-1.356A1.679,1.679,0,0,0,35.981-11.5Zm9.668-1.321h1.6v5.495A3.635,3.635,0,0,1,46.6-4.937,3.275,3.275,0,0,1,43.952-3.9a4.636,4.636,0,0,1-1.586-.236,2.851,2.851,0,0,1-1.085-.693,2.824,2.824,0,0,1-.654-1.111H42.4a1.466,1.466,0,0,0,.607.41,2.513,2.513,0,0,0,.878.139,2.316,2.316,0,0,0,1.043-.2,1.21,1.21,0,0,0,.557-.519,2.627,2.627,0,0,0,.162-1.1,2.666,2.666,0,0,1-.89.61,2.83,2.83,0,0,1-1.055.186,2.9,2.9,0,0,1-2.181-.931,3.276,3.276,0,0,1-.89-2.358,3.281,3.281,0,0,1,.943-2.453,2.814,2.814,0,0,1,2.04-.837,2.713,2.713,0,0,1,1.046.2,3.315,3.315,0,0,1,.987.669Zm-1.668,1.338a1.676,1.676,0,0,0-1.256.51,1.766,1.766,0,0,0-.5,1.282,1.791,1.791,0,0,0,.507,1.315,1.717,1.717,0,0,0,1.273.513,1.648,1.648,0,0,0,1.235-.5,1.808,1.808,0,0,0,.486-1.315,1.786,1.786,0,0,0-.489-1.3A1.686,1.686,0,0,0,43.981-11.487ZM55.307-9.153h-5.17a1.721,1.721,0,0,0,.6,1.088,1.878,1.878,0,0,0,1.241.4,2.146,2.146,0,0,0,1.551-.631l1.356.637a3.2,3.2,0,0,1-1.214,1.064,3.8,3.8,0,0,1-1.68.345A3.321,3.321,0,0,1,49.529-7.2a3.24,3.24,0,0,1-.949-2.385,3.35,3.35,0,0,1,.946-2.438,3.178,3.178,0,0,1,2.373-.97,3.3,3.3,0,0,1,2.464.97,3.5,3.5,0,0,1,.949,2.562ZM53.7-10.42a1.615,1.615,0,0,0-.629-.873,1.824,1.824,0,0,0-1.09-.336,1.927,1.927,0,0,0-1.181.377,2.1,2.1,0,0,0-.591.831Z" transform="translate(8191.266 3729.863)" fill="#283e67"></path><path id="Path_27006" data-name="Path 27006" d="M.236-15.245H5.029v1.627H3.449v7.045H1.775v-7.045H.236ZM12.41-9.314H7.24a1.721,1.721,0,0,0,.6,1.088,1.878,1.878,0,0,0,1.241.4,2.146,2.146,0,0,0,1.551-.631l1.356.637a3.2,3.2,0,0,1-1.214,1.064,3.8,3.8,0,0,1-1.68.345A3.321,3.321,0,0,1,6.632-7.36a3.24,3.24,0,0,1-.949-2.385,3.35,3.35,0,0,1,.946-2.438A3.178,3.178,0,0,1,9-13.152a3.3,3.3,0,0,1,2.464.97,3.5,3.5,0,0,1,.949,2.562ZM10.8-10.581a1.615,1.615,0,0,0-.629-.873,1.824,1.824,0,0,0-1.09-.336,1.927,1.927,0,0,0-1.181.377,2.1,2.1,0,0,0-.591.831Zm9.191-1.108-1.34.737a2.272,2.272,0,0,0-.747-.548,2.243,2.243,0,0,0-.865-.153,2.015,2.015,0,0,0-1.461.539,1.835,1.835,0,0,0-.558,1.38A1.774,1.774,0,0,0,15.559-8.4a1.947,1.947,0,0,0,1.411.518,2.051,2.051,0,0,0,1.682-.737l1.269.869a3.46,3.46,0,0,1-2.912,1.342,3.492,3.492,0,0,1-2.65-1A3.287,3.287,0,0,1,13.4-9.756a3.3,3.3,0,0,1,.466-1.716,3.287,3.287,0,0,1,1.3-1.232,3.88,3.88,0,0,1,1.866-.448,3.783,3.783,0,0,1,1.716.38A3.256,3.256,0,0,1,19.992-11.69Zm1.456-3.773h1.6v3.125a3.667,3.667,0,0,1,.949-.61,2.447,2.447,0,0,1,.967-.2,2.178,2.178,0,0,1,1.609.66,2.307,2.307,0,0,1,.56,1.68v4.239H25.545V-9.385a6.941,6.941,0,0,0-.106-1.509,1.053,1.053,0,0,0-.363-.59,1.018,1.018,0,0,0-.634-.195,1.2,1.2,0,0,0-.84.324,1.719,1.719,0,0,0-.486.884,7.322,7.322,0,0,0-.071,1.321v2.576h-1.6Zm7.24,2.476H30.3v.657a3.861,3.861,0,0,1,.992-.642,2.4,2.4,0,0,1,.91-.18,2.2,2.2,0,0,1,1.619.666,2.288,2.288,0,0,1,.559,1.674v4.239H32.785V-9.381a7.106,7.106,0,0,0-.1-1.525,1.045,1.045,0,0,0-.359-.574,1,1,0,0,0-.632-.2,1.185,1.185,0,0,0-.838.327,1.745,1.745,0,0,0-.485.9,7.292,7.292,0,0,0-.071,1.3v2.573H28.687Zm10.258-.165a3.4,3.4,0,0,1,1.707.454A3.279,3.279,0,0,1,41.9-11.466a3.311,3.311,0,0,1,.448,1.68,3.369,3.369,0,0,1-.451,1.7,3.254,3.254,0,0,1-1.229,1.235,3.394,3.394,0,0,1-1.716.445A3.2,3.2,0,0,1,36.6-7.389a3.256,3.256,0,0,1-.976-2.385,3.245,3.245,0,0,1,1.1-2.506A3.22,3.22,0,0,1,38.946-13.152Zm.027,1.515a1.657,1.657,0,0,0-1.249.522,1.853,1.853,0,0,0-.5,1.335,1.887,1.887,0,0,0,.493,1.356,1.649,1.649,0,0,0,1.249.519,1.668,1.668,0,0,0,1.258-.525,1.873,1.873,0,0,0,.5-1.35,1.861,1.861,0,0,0-.493-1.341A1.668,1.668,0,0,0,38.972-11.637Zm4.513-3.826h1.609v8.89H43.485Zm6.084,2.311a3.4,3.4,0,0,1,1.707.454,3.279,3.279,0,0,1,1.247,1.232,3.311,3.311,0,0,1,.448,1.68,3.369,3.369,0,0,1-.451,1.7,3.254,3.254,0,0,1-1.229,1.235,3.394,3.394,0,0,1-1.716.445,3.2,3.2,0,0,1-2.355-.982,3.256,3.256,0,0,1-.976-2.385,3.245,3.245,0,0,1,1.1-2.506A3.22,3.22,0,0,1,49.569-13.152Zm.027,1.515a1.657,1.657,0,0,0-1.249.522,1.853,1.853,0,0,0-.5,1.335,1.887,1.887,0,0,0,.493,1.356A1.649,1.649,0,0,0,49.59-7.9a1.668,1.668,0,0,0,1.258-.525,1.873,1.873,0,0,0,.5-1.35,1.861,1.861,0,0,0-.493-1.341A1.668,1.668,0,0,0,49.6-11.637Zm9.43-1.35h1.6v5.495A3.635,3.635,0,0,1,59.975-5.1a3.275,3.275,0,0,1-2.647,1.038A4.636,4.636,0,0,1,55.742-4.3a2.851,2.851,0,0,1-1.085-.693A2.824,2.824,0,0,1,54-6.1h1.775a1.466,1.466,0,0,0,.607.41,2.513,2.513,0,0,0,.878.139,2.316,2.316,0,0,0,1.043-.2,1.209,1.209,0,0,0,.557-.519,2.627,2.627,0,0,0,.162-1.1,2.666,2.666,0,0,1-.89.61,2.83,2.83,0,0,1-1.055.186A2.9,2.9,0,0,1,54.9-7.5a3.276,3.276,0,0,1-.89-2.358,3.281,3.281,0,0,1,.943-2.453,2.814,2.814,0,0,1,2.04-.837,2.713,2.713,0,0,1,1.046.2,3.315,3.315,0,0,1,.987.669Zm-1.668,1.338a1.676,1.676,0,0,0-1.256.51,1.766,1.766,0,0,0-.5,1.282,1.791,1.791,0,0,0,.507,1.315,1.717,1.717,0,0,0,1.273.513,1.648,1.648,0,0,0,1.235-.5,1.808,1.808,0,0,0,.486-1.315,1.786,1.786,0,0,0-.489-1.3A1.686,1.686,0,0,0,57.357-11.649Zm4.187-1.338h1.645l1.666,4.025,1.838-4.025h1.649L64.326-4.226H62.664l1.319-2.825Z" transform="translate(8185.257 3744.392)" fill="#283e67"></path><path id="Path_27000" data-name="Path 27000" d="M5.5-15.585a4.307,4.307,0,0,1,3.165,1.332A4.434,4.434,0,0,1,9.988-11,4.384,4.384,0,0,1,8.682-7.791,4.3,4.3,0,0,1,5.511-6.476a4.3,4.3,0,0,1-3.245-1.35A4.481,4.481,0,0,1,.974-11.034a4.5,4.5,0,0,1,.6-2.287,4.453,4.453,0,0,1,1.655-1.654A4.448,4.448,0,0,1,5.5-15.585ZM5.481-13.97a2.722,2.722,0,0,0-2.024.837A2.915,2.915,0,0,0,2.637-11,2.774,2.774,0,0,0,3.669-8.728a2.831,2.831,0,0,0,1.841.654,2.689,2.689,0,0,0,2-.849,2.885,2.885,0,0,0,.826-2.093,2.9,2.9,0,0,0-.832-2.1A2.714,2.714,0,0,0,5.481-13.97Zm5.12.861h.572q.006-1.262.041-1.492a1.23,1.23,0,0,1,.445-.84,1.663,1.663,0,0,1,1.076-.31,3.35,3.35,0,0,1,1.132.23v1.226a2.158,2.158,0,0,0-.572-.1.6.6,0,0,0-.413.118.511.511,0,0,0-.094.366l-.006.8H13.8v1.362h-1.02v5.052H11.173v-5.052H10.6Zm3.378,0h.572q.006-1.262.041-1.492a1.23,1.23,0,0,1,.445-.84,1.663,1.663,0,0,1,1.076-.31,3.35,3.35,0,0,1,1.132.23v1.226a2.158,2.158,0,0,0-.572-.1.6.6,0,0,0-.413.118.511.511,0,0,0-.094.366l-.006.8h1.02v1.362h-1.02v5.052H14.551v-5.052H13.98ZM24.55-9.436H19.38a1.721,1.721,0,0,0,.6,1.088,1.878,1.878,0,0,0,1.241.4,2.146,2.146,0,0,0,1.551-.631l1.356.637a3.2,3.2,0,0,1-1.214,1.064,3.8,3.8,0,0,1-1.68.345,3.321,3.321,0,0,1-2.458-.952,3.24,3.24,0,0,1-.949-2.385A3.35,3.35,0,0,1,18.77-12.3a3.178,3.178,0,0,1,2.373-.97,3.3,3.3,0,0,1,2.464.97,3.5,3.5,0,0,1,.949,2.562ZM22.941-10.7a1.615,1.615,0,0,0-.629-.873,1.824,1.824,0,0,0-1.09-.336,1.927,1.927,0,0,0-1.181.377,2.1,2.1,0,0,0-.591.831Zm2.535-2.405h1.38v.808a1.723,1.723,0,0,1,.6-.725,1.437,1.437,0,0,1,.814-.248,1.505,1.505,0,0,1,.654.165l-.5,1.385a1.107,1.107,0,0,0-.466-.141.737.737,0,0,0-.628.46,4.207,4.207,0,0,0-.256,1.8l.006.312v2.594h-1.6Zm7.8-2.258h4.734v1.615h-3.1v1.568h3.1V-10.6h-3.1v2.282h3.1v1.621H33.275Zm10.83-.218h1.609v8.89H44.105v-.678a3.155,3.155,0,0,1-.945.646,2.645,2.645,0,0,1-1.028.2,2.855,2.855,0,0,1-2.149-.964,3.363,3.363,0,0,1-.907-2.4,3.446,3.446,0,0,1,.877-2.435,2.8,2.8,0,0,1,2.132-.949,2.709,2.709,0,0,1,1.083.218,2.957,2.957,0,0,1,.936.654Zm-1.692,3.8a1.626,1.626,0,0,0-1.24.528,1.9,1.9,0,0,0-.494,1.353,1.922,1.922,0,0,0,.5,1.368A1.628,1.628,0,0,0,42.419-8a1.658,1.658,0,0,0,1.257-.528,1.929,1.929,0,0,0,.5-1.382,1.873,1.873,0,0,0-.5-1.356A1.679,1.679,0,0,0,42.414-11.788Zm4.923-1.321h1.627v3.089a4.277,4.277,0,0,0,.124,1.253,1.093,1.093,0,0,0,.4.545,1.141,1.141,0,0,0,.677.195,1.182,1.182,0,0,0,.683-.192,1.124,1.124,0,0,0,.417-.563,4.317,4.317,0,0,0,.1-1.185v-3.142h1.609v2.718a6.667,6.667,0,0,1-.265,2.3,2.508,2.508,0,0,1-.955,1.158,2.923,2.923,0,0,1-1.6.4A2.844,2.844,0,0,1,48.442-7a2.492,2.492,0,0,1-.917-1.315,7.968,7.968,0,0,1-.189-2.122Zm13.53,1.3-1.34.737a2.272,2.272,0,0,0-.747-.548,2.243,2.243,0,0,0-.865-.153,2.015,2.015,0,0,0-1.461.539,1.835,1.835,0,0,0-.558,1.38,1.774,1.774,0,0,0,.537,1.336A1.947,1.947,0,0,0,57.844-8a2.051,2.051,0,0,0,1.682-.737l1.269.869a3.46,3.46,0,0,1-2.912,1.342,3.492,3.492,0,0,1-2.65-1,3.287,3.287,0,0,1-.958-2.346,3.3,3.3,0,0,1,.466-1.716,3.287,3.287,0,0,1,1.3-1.232,3.88,3.88,0,0,1,1.866-.448,3.783,3.783,0,0,1,1.716.38A3.256,3.256,0,0,1,60.866-11.812Zm6.184-1.3H68.66v6.414H67.051v-.678a3.155,3.155,0,0,1-.945.646,2.645,2.645,0,0,1-1.028.2,2.855,2.855,0,0,1-2.149-.964,3.363,3.363,0,0,1-.907-2.4,3.446,3.446,0,0,1,.877-2.435,2.8,2.8,0,0,1,2.132-.949,2.709,2.709,0,0,1,1.083.218,2.957,2.957,0,0,1,.936.654Zm-1.692,1.321a1.626,1.626,0,0,0-1.24.528,1.9,1.9,0,0,0-.494,1.353,1.922,1.922,0,0,0,.5,1.368A1.628,1.628,0,0,0,65.364-8a1.658,1.658,0,0,0,1.257-.528,1.929,1.929,0,0,0,.5-1.382,1.873,1.873,0,0,0-.5-1.356A1.679,1.679,0,0,0,65.359-11.788Zm5.123-3.685h1.609v2.364h.955v1.385h-.955v5.029H70.482v-5.029h-.825v-1.385h.825Zm4.053-.277a.984.984,0,0,1,.726.307,1.018,1.018,0,0,1,.3.743,1.006,1.006,0,0,1-.3.734.973.973,0,0,1-.717.3.986.986,0,0,1-.732-.31,1.035,1.035,0,0,1-.3-.752.99.99,0,0,1,.3-.725A.984.984,0,0,1,74.535-15.75Zm-.8,2.641H75.34v6.414H73.73Zm6.084-.165a3.4,3.4,0,0,1,1.707.454,3.279,3.279,0,0,1,1.247,1.232,3.311,3.311,0,0,1,.448,1.68,3.369,3.369,0,0,1-.451,1.7,3.254,3.254,0,0,1-1.229,1.235,3.394,3.394,0,0,1-1.716.445,3.2,3.2,0,0,1-2.355-.982A3.256,3.256,0,0,1,76.489-9.9a3.245,3.245,0,0,1,1.1-2.506A3.22,3.22,0,0,1,79.814-13.274Zm.027,1.515a1.657,1.657,0,0,0-1.249.522,1.853,1.853,0,0,0-.5,1.335,1.887,1.887,0,0,0,.493,1.356,1.649,1.649,0,0,0,1.249.519,1.668,1.668,0,0,0,1.258-.525,1.873,1.873,0,0,0,.5-1.35,1.861,1.861,0,0,0-.493-1.341A1.668,1.668,0,0,0,79.841-11.759Zm4.69-1.35H86.14v.657a3.861,3.861,0,0,1,.992-.642,2.4,2.4,0,0,1,.91-.18,2.2,2.2,0,0,1,1.619.666,2.288,2.288,0,0,1,.559,1.674v4.239H88.628V-9.5a7.106,7.106,0,0,0-.1-1.525,1.045,1.045,0,0,0-.359-.574,1,1,0,0,0-.632-.2,1.185,1.185,0,0,0-.838.327,1.745,1.745,0,0,0-.485.9,7.291,7.291,0,0,0-.071,1.3v2.573H84.531Zm11.98,0H98.12v6.414H96.51v-.678a3.155,3.155,0,0,1-.945.646,2.645,2.645,0,0,1-1.028.2,2.855,2.855,0,0,1-2.149-.964,3.363,3.363,0,0,1-.907-2.4,3.446,3.446,0,0,1,.877-2.435,2.8,2.8,0,0,1,2.132-.949,2.709,2.709,0,0,1,1.083.218,2.957,2.957,0,0,1,.936.654Zm-1.692,1.321a1.626,1.626,0,0,0-1.24.528,1.9,1.9,0,0,0-.494,1.353,1.921,1.921,0,0,0,.5,1.368A1.628,1.628,0,0,0,94.824-8a1.658,1.658,0,0,0,1.257-.528,1.929,1.929,0,0,0,.5-1.382,1.873,1.873,0,0,0-.5-1.356A1.679,1.679,0,0,0,94.818-11.788Zm4.752-3.8h1.609v8.89H99.57ZM111.633-10.1l.983,1.126-.447.406-.441.4,1.392,1.475h-2l-.572-.59a5.059,5.059,0,0,1-2.541.808,2.249,2.249,0,0,1-1.613-.584,1.971,1.971,0,0,1-.616-1.5,2.592,2.592,0,0,1,.349-1.3,4.545,4.545,0,0,1,1.2-1.268,3.507,3.507,0,0,1-.837-1.993,1.913,1.913,0,0,1,.554-1.268,1.979,1.979,0,0,1,1.562-.625,1.975,1.975,0,0,1,1.565.619,1.9,1.9,0,0,1,.545,1.25,1.937,1.937,0,0,1-.251.949,7.135,7.135,0,0,1-1.153,1.344q1.056,1.244,1.363,1.551Q110.861-9.442,111.633-10.1Zm-3.137-1.91q.654-.56.654-.99a.484.484,0,0,0-.147-.366.538.538,0,0,0-.389-.141.513.513,0,0,0-.38.159.514.514,0,0,0-.156.371A1.661,1.661,0,0,0,108.5-12.012Zm.982,3.581A18.031,18.031,0,0,1,108.2-9.913q-.873.725-.873,1.268a.619.619,0,0,0,.239.466.874.874,0,0,0,.6.212A2.768,2.768,0,0,0,109.478-8.431Z" transform="translate(8625.123 3572.788)" fill="#283e67"></path><path id="Path_26999" data-name="Path 26999" d="M.236-15.367H5.029v1.627H3.449v7.045H1.775V-13.74H.236Zm5.371,2.258h1.38v.808a1.723,1.723,0,0,1,.6-.725,1.437,1.437,0,0,1,.814-.248,1.505,1.505,0,0,1,.654.165l-.5,1.385a1.107,1.107,0,0,0-.466-.141.737.737,0,0,0-.628.46A4.207,4.207,0,0,0,7.2-9.6l.006.312v2.594h-1.6Zm8.973,0h1.609v6.414H14.58v-.678a3.155,3.155,0,0,1-.945.646,2.645,2.645,0,0,1-1.028.2,2.855,2.855,0,0,1-2.149-.964,3.363,3.363,0,0,1-.907-2.4,3.446,3.446,0,0,1,.877-2.435,2.8,2.8,0,0,1,2.132-.949,2.709,2.709,0,0,1,1.083.218,2.957,2.957,0,0,1,.936.654Zm-1.692,1.321a1.626,1.626,0,0,0-1.24.528,1.9,1.9,0,0,0-.494,1.353,1.921,1.921,0,0,0,.5,1.368A1.628,1.628,0,0,0,12.893-8a1.658,1.658,0,0,0,1.257-.528,1.929,1.929,0,0,0,.5-1.382,1.873,1.873,0,0,0-.5-1.356A1.679,1.679,0,0,0,12.888-11.788Zm5.556-3.962a.984.984,0,0,1,.726.307,1.018,1.018,0,0,1,.3.743,1.006,1.006,0,0,1-.3.734.973.973,0,0,1-.717.3.986.986,0,0,1-.732-.31,1.035,1.035,0,0,1-.3-.752.99.99,0,0,1,.3-.725A.984.984,0,0,1,18.444-15.75Zm-.8,2.641h1.609v6.414H17.639Zm3.072,0H22.32v.657a3.861,3.861,0,0,1,.992-.642,2.4,2.4,0,0,1,.91-.18,2.2,2.2,0,0,1,1.619.666,2.288,2.288,0,0,1,.559,1.674v4.239H24.808V-9.5a7.106,7.106,0,0,0-.1-1.525,1.045,1.045,0,0,0-.359-.574,1,1,0,0,0-.632-.2,1.185,1.185,0,0,0-.838.327,1.745,1.745,0,0,0-.485.9,7.292,7.292,0,0,0-.071,1.3v2.573H20.711Zm7.873-2.641a.984.984,0,0,1,.726.307,1.018,1.018,0,0,1,.3.743,1.006,1.006,0,0,1-.3.734.973.973,0,0,1-.717.3.986.986,0,0,1-.732-.31,1.035,1.035,0,0,1-.3-.752.99.99,0,0,1,.3-.725A.984.984,0,0,1,28.584-15.75Zm-.8,2.641h1.609v6.414H27.78Zm3.072,0h1.609v.657a3.861,3.861,0,0,1,.992-.642,2.4,2.4,0,0,1,.91-.18,2.2,2.2,0,0,1,1.619.666,2.288,2.288,0,0,1,.559,1.674v4.239H34.948V-9.5a7.106,7.106,0,0,0-.1-1.525,1.045,1.045,0,0,0-.359-.574,1,1,0,0,0-.632-.2,1.185,1.185,0,0,0-.838.327,1.745,1.745,0,0,0-.485.9,7.292,7.292,0,0,0-.071,1.3v2.573H30.851Zm11.986,0h1.6v5.495a3.635,3.635,0,0,1-.654,2.394,3.275,3.275,0,0,1-2.647,1.038,4.636,4.636,0,0,1-1.586-.236,2.851,2.851,0,0,1-1.085-.693,2.824,2.824,0,0,1-.654-1.111h1.775a1.466,1.466,0,0,0,.607.41,2.513,2.513,0,0,0,.878.139,2.316,2.316,0,0,0,1.043-.2,1.209,1.209,0,0,0,.557-.519,2.627,2.627,0,0,0,.162-1.1,2.666,2.666,0,0,1-.89.61,2.83,2.83,0,0,1-1.055.186,2.9,2.9,0,0,1-2.181-.931,3.276,3.276,0,0,1-.89-2.358,3.281,3.281,0,0,1,.943-2.453,2.814,2.814,0,0,1,2.04-.837,2.713,2.713,0,0,1,1.046.2,3.315,3.315,0,0,1,.987.669Zm-1.668,1.338a1.676,1.676,0,0,0-1.256.51,1.766,1.766,0,0,0-.5,1.282,1.791,1.791,0,0,0,.507,1.315,1.717,1.717,0,0,0,1.273.513,1.648,1.648,0,0,0,1.235-.5,1.808,1.808,0,0,0,.486-1.315,1.786,1.786,0,0,0-.489-1.3A1.686,1.686,0,0,0,41.168-11.771Zm13.005-2.417-1.223,1.079A1.734,1.734,0,0,0,51.64-14a.8.8,0,0,0-.532.174.506.506,0,0,0-.207.392.671.671,0,0,0,.148.413,11.215,11.215,0,0,0,1.211,1.114q.945.79,1.146,1a3.454,3.454,0,0,1,.712.97,2.421,2.421,0,0,1,.21,1.011,2.318,2.318,0,0,1-.738,1.763,2.69,2.69,0,0,1-1.924.7,2.862,2.862,0,0,1-1.614-.454,3.586,3.586,0,0,1-1.177-1.427l1.388-.837q.626,1.15,1.441,1.15a1.061,1.061,0,0,0,.714-.248.737.737,0,0,0,.289-.572.987.987,0,0,0-.218-.59,6.3,6.3,0,0,0-.963-.9,9.71,9.71,0,0,1-1.831-1.783,2.266,2.266,0,0,1-.413-1.253,2.049,2.049,0,0,1,.688-1.548,2.385,2.385,0,0,1,1.7-.646,2.678,2.678,0,0,1,1.237.3A4.5,4.5,0,0,1,54.174-14.188ZM62.15-9.436H56.98a1.721,1.721,0,0,0,.6,1.088,1.878,1.878,0,0,0,1.241.4,2.146,2.146,0,0,0,1.551-.631l1.356.637a3.2,3.2,0,0,1-1.214,1.064,3.8,3.8,0,0,1-1.68.345,3.321,3.321,0,0,1-2.458-.952,3.24,3.24,0,0,1-.949-2.385A3.35,3.35,0,0,1,56.37-12.3a3.178,3.178,0,0,1,2.373-.97,3.3,3.3,0,0,1,2.464.97,3.5,3.5,0,0,1,.949,2.562ZM60.541-10.7a1.615,1.615,0,0,0-.629-.873,1.824,1.824,0,0,0-1.09-.336,1.927,1.927,0,0,0-1.181.377,2.1,2.1,0,0,0-.591.831Zm6.839-1.509-1,1a1.685,1.685,0,0,0-1.1-.6.694.694,0,0,0-.424.115.346.346,0,0,0-.153.286.351.351,0,0,0,.1.239,1.815,1.815,0,0,0,.48.3l.59.295a3.474,3.474,0,0,1,1.279.937,1.851,1.851,0,0,1,.348,1.12A1.85,1.85,0,0,1,66.869-7.1a2.4,2.4,0,0,1-1.683.572,2.676,2.676,0,0,1-2.24-1.1l.99-1.079a2.288,2.288,0,0,0,.663.534,1.468,1.468,0,0,0,.675.2.805.805,0,0,0,.513-.153.444.444,0,0,0,.195-.354q0-.371-.7-.725l-.542-.271q-1.556-.784-1.556-1.963a1.7,1.7,0,0,1,.587-1.3,2.13,2.13,0,0,1,1.5-.539A2.606,2.606,0,0,1,66.445-13,2.6,2.6,0,0,1,67.379-12.213Zm5.312,0-1,1a1.685,1.685,0,0,0-1.1-.6.694.694,0,0,0-.424.115.346.346,0,0,0-.153.286.351.351,0,0,0,.1.239,1.815,1.815,0,0,0,.48.3l.59.295a3.474,3.474,0,0,1,1.279.937,1.851,1.851,0,0,1,.348,1.12A1.85,1.85,0,0,1,72.181-7.1a2.4,2.4,0,0,1-1.683.572,2.675,2.675,0,0,1-2.24-1.1l.99-1.079a2.288,2.288,0,0,0,.663.534,1.468,1.468,0,0,0,.675.2.805.805,0,0,0,.513-.153.444.444,0,0,0,.195-.354q0-.371-.7-.725l-.542-.271q-1.556-.784-1.556-1.963a1.7,1.7,0,0,1,.587-1.3,2.13,2.13,0,0,1,1.5-.539A2.606,2.606,0,0,1,71.757-13,2.6,2.6,0,0,1,72.691-12.213ZM74.7-15.75a.984.984,0,0,1,.726.307,1.018,1.018,0,0,1,.3.743,1.006,1.006,0,0,1-.3.734.973.973,0,0,1-.717.3.986.986,0,0,1-.732-.31,1.035,1.035,0,0,1-.3-.752.99.99,0,0,1,.3-.725A.984.984,0,0,1,74.7-15.75Zm-.8,2.641h1.609v6.414H73.9Zm6.084-.165a3.4,3.4,0,0,1,1.707.454,3.279,3.279,0,0,1,1.247,1.232,3.311,3.311,0,0,1,.448,1.68,3.369,3.369,0,0,1-.451,1.7,3.254,3.254,0,0,1-1.229,1.235,3.394,3.394,0,0,1-1.716.445,3.2,3.2,0,0,1-2.355-.982A3.256,3.256,0,0,1,76.659-9.9a3.245,3.245,0,0,1,1.1-2.506A3.22,3.22,0,0,1,79.984-13.274Zm.027,1.515a1.657,1.657,0,0,0-1.249.522,1.853,1.853,0,0,0-.5,1.335,1.887,1.887,0,0,0,.493,1.356A1.649,1.649,0,0,0,80-8.027a1.668,1.668,0,0,0,1.258-.525,1.873,1.873,0,0,0,.5-1.35,1.861,1.861,0,0,0-.493-1.341A1.668,1.668,0,0,0,80.01-11.759Zm4.69-1.35H86.31v.657a3.861,3.861,0,0,1,.992-.642,2.4,2.4,0,0,1,.91-.18,2.2,2.2,0,0,1,1.619.666,2.288,2.288,0,0,1,.559,1.674v4.239H88.8V-9.5a7.106,7.106,0,0,0-.1-1.525,1.045,1.045,0,0,0-.359-.574,1,1,0,0,0-.632-.2,1.185,1.185,0,0,0-.838.327,1.745,1.745,0,0,0-.485.9,7.291,7.291,0,0,0-.071,1.3v2.573H84.7Z" transform="translate(8636.424 3587.156)" fill="#283e67"></path><path id="Path_26998" data-name="Path 26998" d="M1.733-15.367H3.689A6.446,6.446,0,0,1,6.5-14.9a3.661,3.661,0,0,1,1.514,1.524,4.934,4.934,0,0,1,.595,2.464,4.959,4.959,0,0,1-.333,1.842,3.823,3.823,0,0,1-.919,1.394,3.245,3.245,0,0,1-1.269.766,9.039,9.039,0,0,1-2.368.212H1.733Zm1.639,1.592V-8.3h.766a3.837,3.837,0,0,0,1.642-.26,1.967,1.967,0,0,0,.834-.873,3.2,3.2,0,0,0,.324-1.511,2.873,2.873,0,0,0-.772-2.142,3.094,3.094,0,0,0-2.234-.685Zm7.26-1.975a.984.984,0,0,1,.726.307,1.018,1.018,0,0,1,.3.743,1.006,1.006,0,0,1-.3.734.973.973,0,0,1-.717.3.986.986,0,0,1-.732-.31,1.035,1.035,0,0,1-.3-.752.99.99,0,0,1,.3-.725A.984.984,0,0,1,10.632-15.75Zm-.8,2.641h1.609v6.414H9.827Zm2.385,0h1.64l1.62,3.785,1.617-3.785h1.631l-2.73,6.414H14.948ZM26.087-9.436h-5.17a1.721,1.721,0,0,0,.6,1.088,1.878,1.878,0,0,0,1.241.4,2.146,2.146,0,0,0,1.551-.631l1.356.637a3.2,3.2,0,0,1-1.214,1.064,3.8,3.8,0,0,1-1.68.345,3.321,3.321,0,0,1-2.458-.952,3.24,3.24,0,0,1-.949-2.385,3.35,3.35,0,0,1,.946-2.438,3.178,3.178,0,0,1,2.373-.97,3.3,3.3,0,0,1,2.464.97,3.5,3.5,0,0,1,.949,2.562ZM24.478-10.7a1.615,1.615,0,0,0-.629-.873,1.824,1.824,0,0,0-1.09-.336,1.927,1.927,0,0,0-1.181.377,2.1,2.1,0,0,0-.591.831Zm2.535-2.405h1.38v.808a1.723,1.723,0,0,1,.6-.725,1.437,1.437,0,0,1,.814-.248,1.505,1.505,0,0,1,.654.165l-.5,1.385a1.107,1.107,0,0,0-.466-.141.737.737,0,0,0-.628.46A4.207,4.207,0,0,0,28.6-9.6l.006.312v2.594h-1.6Zm8.165.9-1,1a1.685,1.685,0,0,0-1.1-.6.694.694,0,0,0-.424.115.346.346,0,0,0-.153.286.351.351,0,0,0,.1.239,1.815,1.815,0,0,0,.48.3l.59.295a3.474,3.474,0,0,1,1.279.937,1.851,1.851,0,0,1,.348,1.12A1.85,1.85,0,0,1,34.668-7.1a2.4,2.4,0,0,1-1.683.572,2.676,2.676,0,0,1-2.24-1.1l.99-1.079a2.288,2.288,0,0,0,.663.534,1.468,1.468,0,0,0,.675.2.805.805,0,0,0,.513-.153.444.444,0,0,0,.195-.354q0-.371-.7-.725l-.542-.271q-1.556-.784-1.556-1.963a1.7,1.7,0,0,1,.587-1.3,2.13,2.13,0,0,1,1.5-.539A2.606,2.606,0,0,1,34.244-13,2.6,2.6,0,0,1,35.178-12.213Zm2.013-3.537a.984.984,0,0,1,.726.307,1.018,1.018,0,0,1,.3.743,1.006,1.006,0,0,1-.3.734.973.973,0,0,1-.717.3.986.986,0,0,1-.732-.31,1.035,1.035,0,0,1-.3-.752.99.99,0,0,1,.3-.725A.984.984,0,0,1,37.191-15.75Zm-.8,2.641H38v6.414H36.387Zm2.305,0h.572q.006-1.262.041-1.492a1.23,1.23,0,0,1,.445-.84,1.663,1.663,0,0,1,1.076-.31,3.35,3.35,0,0,1,1.132.23v1.226a2.158,2.158,0,0,0-.572-.1.6.6,0,0,0-.413.118.511.511,0,0,0-.094.366l-.006.8h1.02v1.362h-1.02v5.052H39.264v-5.052h-.572Zm3.433,0h1.645l1.666,4.025,1.838-4.025h1.649L44.906-4.348H43.244l1.319-2.825Zm11.383-2.258h1.749a5.781,5.781,0,0,1,2.046.256,2.1,2.1,0,0,1,.98.852,2.61,2.61,0,0,1,.371,1.409,2.4,2.4,0,0,1-.41,1.43,2.487,2.487,0,0,1-1.235.87l2.054,3.856h-1.8l-1.95-3.673h-.151v3.673H53.507Zm1.651,3.39h.517a2.02,2.02,0,0,0,1.084-.207.777.777,0,0,0,.3-.686.84.84,0,0,0-.147-.494.815.815,0,0,0-.394-.3,2.986,2.986,0,0,0-.905-.092h-.453Zm11.49,2.541h-5.17a1.721,1.721,0,0,0,.6,1.088,1.878,1.878,0,0,0,1.241.4,2.146,2.146,0,0,0,1.551-.631l1.356.637a3.2,3.2,0,0,1-1.214,1.064,3.8,3.8,0,0,1-1.68.345,3.321,3.321,0,0,1-2.458-.952,3.24,3.24,0,0,1-.949-2.385,3.35,3.35,0,0,1,.946-2.438,3.178,3.178,0,0,1,2.373-.97,3.3,3.3,0,0,1,2.464.97,3.5,3.5,0,0,1,.949,2.562ZM65.039-10.7a1.615,1.615,0,0,0-.629-.873,1.824,1.824,0,0,0-1.09-.336,1.927,1.927,0,0,0-1.181.377,2.1,2.1,0,0,0-.591.831Zm2.226-2.405H68.9l1.62,3.785,1.617-3.785h1.631l-2.73,6.414H70ZM81.139-9.436h-5.17a1.721,1.721,0,0,0,.6,1.088,1.878,1.878,0,0,0,1.241.4,2.146,2.146,0,0,0,1.551-.631l1.356.637A3.2,3.2,0,0,1,79.5-6.874a3.8,3.8,0,0,1-1.68.345,3.321,3.321,0,0,1-2.458-.952,3.24,3.24,0,0,1-.949-2.385,3.35,3.35,0,0,1,.946-2.438,3.178,3.178,0,0,1,2.373-.97,3.3,3.3,0,0,1,2.464.97,3.5,3.5,0,0,1,.949,2.562ZM79.53-10.7a1.615,1.615,0,0,0-.629-.873,1.824,1.824,0,0,0-1.09-.336,1.927,1.927,0,0,0-1.181.377,2.1,2.1,0,0,0-.591.831Zm2.912-2.405h1.609v.657a3.861,3.861,0,0,1,.992-.642,2.4,2.4,0,0,1,.91-.18,2.2,2.2,0,0,1,1.619.666,2.288,2.288,0,0,1,.559,1.674v4.239H86.539V-9.5a7.106,7.106,0,0,0-.1-1.525,1.045,1.045,0,0,0-.359-.574,1,1,0,0,0-.632-.2,1.185,1.185,0,0,0-.838.327,1.745,1.745,0,0,0-.485.9,7.292,7.292,0,0,0-.071,1.3v2.573H82.442Zm7.24,0h1.627v3.089a4.277,4.277,0,0,0,.124,1.253,1.093,1.093,0,0,0,.4.545,1.141,1.141,0,0,0,.677.195,1.182,1.182,0,0,0,.683-.192,1.124,1.124,0,0,0,.417-.563,4.317,4.317,0,0,0,.1-1.185v-3.142h1.609v2.718a6.667,6.667,0,0,1-.265,2.3A2.508,2.508,0,0,1,94.1-6.933a2.923,2.923,0,0,1-1.6.4A2.844,2.844,0,0,1,90.787-7a2.492,2.492,0,0,1-.917-1.315,7.968,7.968,0,0,1-.189-2.122Zm13.677,3.673h-5.17a1.721,1.721,0,0,0,.6,1.088,1.878,1.878,0,0,0,1.241.4,2.146,2.146,0,0,0,1.551-.631l1.356.637a3.2,3.2,0,0,1-1.214,1.064,3.8,3.8,0,0,1-1.68.345,3.321,3.321,0,0,1-2.458-.952,3.24,3.24,0,0,1-.949-2.385,3.35,3.35,0,0,1,.946-2.438,3.178,3.178,0,0,1,2.373-.97,3.3,3.3,0,0,1,2.464.97,3.5,3.5,0,0,1,.949,2.562ZM101.75-10.7a1.615,1.615,0,0,0-.629-.873,1.824,1.824,0,0,0-1.09-.336,1.927,1.927,0,0,0-1.181.377,2.1,2.1,0,0,0-.591.831Z" transform="translate(8648.658 3651.51)" fill="#283e67"></path><path id="Path_26997" data-name="Path 26997" d="M5.72-14.066,4.5-12.987a1.734,1.734,0,0,0-1.311-.9.8.8,0,0,0-.532.174.506.506,0,0,0-.207.392A.671.671,0,0,0,2.6-12.9,11.216,11.216,0,0,0,3.807-11.79q.945.79,1.146,1a3.454,3.454,0,0,1,.712.97,2.421,2.421,0,0,1,.21,1.011A2.318,2.318,0,0,1,5.136-7.05a2.69,2.69,0,0,1-1.924.7A2.862,2.862,0,0,1,1.6-6.808,3.586,3.586,0,0,1,.42-8.235l1.388-.837q.626,1.15,1.441,1.15a1.061,1.061,0,0,0,.714-.248.737.737,0,0,0,.289-.572.987.987,0,0,0-.219-.59,6.3,6.3,0,0,0-.963-.9,9.71,9.71,0,0,1-1.831-1.783A2.266,2.266,0,0,1,.827-13.27a2.049,2.049,0,0,1,.688-1.548,2.385,2.385,0,0,1,1.7-.646,2.678,2.678,0,0,1,1.237.3A4.5,4.5,0,0,1,5.72-14.066Zm1.745-1.285H9.075v2.364h.955V-11.6H9.075v5.029H7.466V-11.6H6.64v-1.385h.825Zm3.048,2.364h1.38v.808a1.723,1.723,0,0,1,.6-.725,1.437,1.437,0,0,1,.814-.248,1.505,1.505,0,0,1,.654.165l-.5,1.385a1.107,1.107,0,0,0-.466-.141.737.737,0,0,0-.628.46,4.207,4.207,0,0,0-.256,1.8l.006.312v2.594h-1.6ZM21.178-9.314h-5.17a1.721,1.721,0,0,0,.6,1.088,1.878,1.878,0,0,0,1.241.4A2.146,2.146,0,0,0,19.4-8.453l1.356.637a3.2,3.2,0,0,1-1.214,1.064,3.8,3.8,0,0,1-1.68.345A3.321,3.321,0,0,1,15.4-7.36a3.24,3.24,0,0,1-.949-2.385,3.35,3.35,0,0,1,.946-2.438,3.178,3.178,0,0,1,2.373-.97,3.3,3.3,0,0,1,2.464.97,3.5,3.5,0,0,1,.949,2.562Zm-1.609-1.268a1.615,1.615,0,0,0-.629-.873,1.824,1.824,0,0,0-1.09-.336,1.927,1.927,0,0,0-1.181.377,2.1,2.1,0,0,0-.591.831Zm7.646-2.405h1.609v6.414H27.215V-7.25a3.155,3.155,0,0,1-.945.646,2.645,2.645,0,0,1-1.028.2,2.855,2.855,0,0,1-2.149-.964,3.363,3.363,0,0,1-.907-2.4,3.446,3.446,0,0,1,.877-2.435,2.8,2.8,0,0,1,2.132-.949,2.709,2.709,0,0,1,1.083.218,2.957,2.957,0,0,1,.936.654Zm-1.692,1.321a1.626,1.626,0,0,0-1.24.528,1.9,1.9,0,0,0-.494,1.353,1.922,1.922,0,0,0,.5,1.368,1.628,1.628,0,0,0,1.237.536,1.658,1.658,0,0,0,1.257-.528,1.929,1.929,0,0,0,.5-1.382,1.873,1.873,0,0,0-.5-1.356A1.679,1.679,0,0,0,25.523-11.666Zm4.917-1.321H32.05v.737a2.747,2.747,0,0,1,.917-.678,2.68,2.68,0,0,1,1.1-.224,2.045,2.045,0,0,1,1.086.295,2.13,2.13,0,0,1,.779.861,2.6,2.6,0,0,1,.941-.861,2.566,2.566,0,0,1,1.218-.295,2.256,2.256,0,0,1,1.2.318,1.839,1.839,0,0,1,.746.831,4.441,4.441,0,0,1,.227,1.668v3.761H38.647V-9.827a2.784,2.784,0,0,0-.271-1.477.928.928,0,0,0-.814-.386,1.234,1.234,0,0,0-.74.236,1.394,1.394,0,0,0-.486.651,4.049,4.049,0,0,0-.159,1.335v2.895H34.555V-9.679a4.374,4.374,0,0,0-.127-1.247,1.128,1.128,0,0,0-.381-.575,1,1,0,0,0-.615-.189,1.211,1.211,0,0,0-.73.239,1.424,1.424,0,0,0-.49.669,4.136,4.136,0,0,0-.162,1.356v2.853H30.44Zm15.287.9-1,1a1.685,1.685,0,0,0-1.1-.6.694.694,0,0,0-.424.115.346.346,0,0,0-.153.286.351.351,0,0,0,.1.239,1.815,1.815,0,0,0,.48.3l.59.295a3.474,3.474,0,0,1,1.279.937,1.851,1.851,0,0,1,.348,1.12,1.85,1.85,0,0,1-.628,1.427,2.4,2.4,0,0,1-1.683.572,2.676,2.676,0,0,1-2.24-1.1l.99-1.079a2.288,2.288,0,0,0,.663.534,1.468,1.468,0,0,0,.675.2A.805.805,0,0,0,44.135-8a.444.444,0,0,0,.195-.354q0-.371-.7-.725l-.542-.271q-1.556-.784-1.556-1.963a1.7,1.7,0,0,1,.587-1.3,2.13,2.13,0,0,1,1.5-.539,2.606,2.606,0,0,1,1.176.274A2.6,2.6,0,0,1,45.727-12.091Z" transform="translate(8677.711 3665.757)" fill="#283e67"></path><path id="Path_26996" data-name="Path 26996" d="M5.72-14.188,4.5-13.109A1.734,1.734,0,0,0,3.187-14a.8.8,0,0,0-.532.174.506.506,0,0,0-.207.392.671.671,0,0,0,.148.413,11.216,11.216,0,0,0,1.211,1.114q.945.79,1.146,1a3.454,3.454,0,0,1,.712.97,2.421,2.421,0,0,1,.21,1.011,2.318,2.318,0,0,1-.738,1.763,2.69,2.69,0,0,1-1.924.7A2.862,2.862,0,0,1,1.6-6.93,3.586,3.586,0,0,1,.42-8.357l1.388-.837q.626,1.15,1.441,1.15a1.061,1.061,0,0,0,.714-.248.737.737,0,0,0,.289-.572.987.987,0,0,0-.219-.59,6.3,6.3,0,0,0-.963-.9,9.71,9.71,0,0,1-1.831-1.783,2.266,2.266,0,0,1-.413-1.253,2.049,2.049,0,0,1,.688-1.548,2.385,2.385,0,0,1,1.7-.646,2.678,2.678,0,0,1,1.237.3A4.5,4.5,0,0,1,5.72-14.188Zm1.745-1.285H9.075v2.364h.955v1.385H9.075v5.029H7.466v-5.029H6.64v-1.385h.825Zm8.159,2.364h1.609v6.414H15.625v-.678a3.155,3.155,0,0,1-.945.646,2.645,2.645,0,0,1-1.028.2A2.855,2.855,0,0,1,11.5-7.493a3.363,3.363,0,0,1-.907-2.4,3.446,3.446,0,0,1,.877-2.435,2.8,2.8,0,0,1,2.132-.949,2.709,2.709,0,0,1,1.083.218,2.957,2.957,0,0,1,.936.654Zm-1.692,1.321a1.626,1.626,0,0,0-1.24.528A1.9,1.9,0,0,0,12.2-9.908a1.921,1.921,0,0,0,.5,1.368A1.628,1.628,0,0,0,13.939-8,1.658,1.658,0,0,0,15.2-8.531a1.929,1.929,0,0,0,.5-1.382,1.873,1.873,0,0,0-.5-1.356A1.679,1.679,0,0,0,13.933-11.788Zm4.217-1.321h1.645l1.666,4.025L23.3-13.109h1.649L20.931-4.348H19.269l1.319-2.825ZM29.3-15.367h1.639v8.672H29.3Zm3.319,2.258h1.609v.657a3.861,3.861,0,0,1,.992-.642,2.4,2.4,0,0,1,.91-.18,2.2,2.2,0,0,1,1.619.666,2.288,2.288,0,0,1,.559,1.674v4.239H36.719V-9.5a7.106,7.106,0,0,0-.1-1.525,1.045,1.045,0,0,0-.359-.574,1,1,0,0,0-.632-.2,1.185,1.185,0,0,0-.838.327,1.745,1.745,0,0,0-.485.9,7.292,7.292,0,0,0-.071,1.3v2.573H32.621Zm6.479,0h.572q.006-1.262.041-1.492a1.23,1.23,0,0,1,.445-.84,1.663,1.663,0,0,1,1.076-.31,3.35,3.35,0,0,1,1.132.23v1.226a2.158,2.158,0,0,0-.572-.1.6.6,0,0,0-.413.118.511.511,0,0,0-.094.366l-.006.8H42.3v1.362h-1.02v5.052H39.672v-5.052H39.1Zm7.157-.165a3.4,3.4,0,0,1,1.707.454,3.279,3.279,0,0,1,1.247,1.232,3.311,3.311,0,0,1,.448,1.68,3.369,3.369,0,0,1-.451,1.7,3.254,3.254,0,0,1-1.229,1.235,3.394,3.394,0,0,1-1.716.445,3.2,3.2,0,0,1-2.355-.982A3.256,3.256,0,0,1,42.933-9.9a3.245,3.245,0,0,1,1.1-2.506A3.22,3.22,0,0,1,46.258-13.274Zm.027,1.515a1.657,1.657,0,0,0-1.249.522,1.853,1.853,0,0,0-.5,1.335,1.887,1.887,0,0,0,.493,1.356,1.649,1.649,0,0,0,1.249.519,1.668,1.668,0,0,0,1.258-.525,1.873,1.873,0,0,0,.5-1.35,1.861,1.861,0,0,0-.493-1.341A1.668,1.668,0,0,0,46.284-11.759Zm4.313-1.35h1.38v.808a1.723,1.723,0,0,1,.6-.725,1.437,1.437,0,0,1,.814-.248,1.505,1.505,0,0,1,.654.165l-.5,1.385a1.107,1.107,0,0,0-.466-.141.737.737,0,0,0-.628.46,4.207,4.207,0,0,0-.256,1.8l.006.312v2.594H50.6Zm4.227,0h1.609v.737a2.747,2.747,0,0,1,.917-.678,2.68,2.68,0,0,1,1.1-.224,2.045,2.045,0,0,1,1.086.295,2.13,2.13,0,0,1,.779.861,2.6,2.6,0,0,1,.941-.861,2.566,2.566,0,0,1,1.218-.295,2.256,2.256,0,0,1,1.2.318,1.84,1.84,0,0,1,.746.831,4.441,4.441,0,0,1,.227,1.668v3.761H63.03V-9.949a2.784,2.784,0,0,0-.271-1.477.928.928,0,0,0-.814-.386,1.234,1.234,0,0,0-.74.236,1.394,1.394,0,0,0-.486.651,4.049,4.049,0,0,0-.159,1.335v2.895H58.939V-9.8a4.374,4.374,0,0,0-.127-1.247,1.128,1.128,0,0,0-.381-.575,1,1,0,0,0-.615-.189,1.211,1.211,0,0,0-.73.239,1.424,1.424,0,0,0-.49.669,4.136,4.136,0,0,0-.162,1.356v2.853H54.824ZM72.611-9.436H67.44a1.721,1.721,0,0,0,.6,1.088,1.878,1.878,0,0,0,1.241.4,2.146,2.146,0,0,0,1.551-.631l1.356.637a3.2,3.2,0,0,1-1.214,1.064,3.8,3.8,0,0,1-1.68.345,3.321,3.321,0,0,1-2.458-.952,3.24,3.24,0,0,1-.949-2.385A3.35,3.35,0,0,1,66.83-12.3a3.178,3.178,0,0,1,2.373-.97,3.3,3.3,0,0,1,2.464.97,3.5,3.5,0,0,1,.949,2.562ZM71-10.7a1.615,1.615,0,0,0-.629-.873,1.824,1.824,0,0,0-1.09-.336,1.927,1.927,0,0,0-1.181.377,2.1,2.1,0,0,0-.591.831Zm7.646-4.881h1.609v8.89H78.647v-.678a3.155,3.155,0,0,1-.945.646,2.645,2.645,0,0,1-1.028.2,2.855,2.855,0,0,1-2.149-.964,3.363,3.363,0,0,1-.907-2.4,3.446,3.446,0,0,1,.877-2.435,2.8,2.8,0,0,1,2.132-.949,2.709,2.709,0,0,1,1.083.218,2.957,2.957,0,0,1,.936.654Zm-1.692,3.8a1.626,1.626,0,0,0-1.24.528,1.9,1.9,0,0,0-.494,1.353,1.921,1.921,0,0,0,.5,1.368A1.628,1.628,0,0,0,76.961-8a1.658,1.658,0,0,0,1.257-.528,1.929,1.929,0,0,0,.5-1.382,1.873,1.873,0,0,0-.5-1.356A1.679,1.679,0,0,0,76.956-11.788ZM90.876-10.1l.983,1.126-.447.406-.441.4,1.392,1.475h-2l-.572-.59a5.059,5.059,0,0,1-2.541.808,2.249,2.249,0,0,1-1.613-.584,1.971,1.971,0,0,1-.616-1.5,2.592,2.592,0,0,1,.349-1.3,4.545,4.545,0,0,1,1.2-1.268,3.507,3.507,0,0,1-.837-1.993,1.913,1.913,0,0,1,.554-1.268,1.979,1.979,0,0,1,1.562-.625,1.975,1.975,0,0,1,1.565.619,1.9,1.9,0,0,1,.545,1.25,1.937,1.937,0,0,1-.251.949,7.135,7.135,0,0,1-1.153,1.344Q89.608-9.607,89.914-9.3,90.1-9.442,90.876-10.1Zm-3.137-1.91q.654-.56.654-.99a.484.484,0,0,0-.147-.366.538.538,0,0,0-.389-.141.513.513,0,0,0-.38.159.514.514,0,0,0-.156.371A1.661,1.661,0,0,0,87.738-12.012Zm.982,3.581a18.032,18.032,0,0,1-1.283-1.482q-.873.725-.873,1.268a.619.619,0,0,0,.239.466.874.874,0,0,0,.6.212A2.768,2.768,0,0,0,88.721-8.431Z" transform="translate(8632.723 3727.675)" fill="#283e67"></path><path id="Path_26995" data-name="Path 26995" d="M9.375-13.843l-1.155,1.1A3.575,3.575,0,0,0,5.57-13.987a2.848,2.848,0,0,0-2.094.85,2.844,2.844,0,0,0-.851,2.1A3.1,3.1,0,0,0,3-9.5,2.7,2.7,0,0,0,4.068-8.446,3.1,3.1,0,0,0,5.6-8.062a3.156,3.156,0,0,0,1.313-.269,4.708,4.708,0,0,0,1.308-.977L9.34-8.14a6.144,6.144,0,0,1-1.816,1.3,4.956,4.956,0,0,1-1.951.363,4.492,4.492,0,0,1-3.31-1.282A4.439,4.439,0,0,1,.974-11.045a4.5,4.5,0,0,1,.587-2.305,4.362,4.362,0,0,1,1.68-1.621A4.738,4.738,0,0,1,5.6-15.585a4.925,4.925,0,0,1,2.066.453A4.941,4.941,0,0,1,9.375-13.843Zm4.28.569a3.4,3.4,0,0,1,1.707.454,3.279,3.279,0,0,1,1.247,1.232,3.311,3.311,0,0,1,.448,1.68,3.369,3.369,0,0,1-.451,1.7,3.254,3.254,0,0,1-1.229,1.235,3.394,3.394,0,0,1-1.716.445,3.2,3.2,0,0,1-2.355-.982A3.256,3.256,0,0,1,10.33-9.9a3.245,3.245,0,0,1,1.1-2.506A3.22,3.22,0,0,1,13.655-13.274Zm.027,1.515a1.657,1.657,0,0,0-1.249.522,1.853,1.853,0,0,0-.5,1.335,1.887,1.887,0,0,0,.493,1.356,1.649,1.649,0,0,0,1.249.519,1.668,1.668,0,0,0,1.258-.525,1.873,1.873,0,0,0,.5-1.35,1.861,1.861,0,0,0-.493-1.341A1.668,1.668,0,0,0,13.682-11.759Zm4.678-1.35h1.609v.737a2.747,2.747,0,0,1,.917-.678,2.68,2.68,0,0,1,1.1-.224,2.045,2.045,0,0,1,1.086.295,2.13,2.13,0,0,1,.779.861,2.6,2.6,0,0,1,.941-.861,2.566,2.566,0,0,1,1.218-.295,2.256,2.256,0,0,1,1.2.318,1.839,1.839,0,0,1,.746.831,4.441,4.441,0,0,1,.227,1.668v3.761H26.566V-9.949a2.784,2.784,0,0,0-.271-1.477.928.928,0,0,0-.814-.386,1.234,1.234,0,0,0-.74.236,1.394,1.394,0,0,0-.486.651A4.049,4.049,0,0,0,24.1-9.589v2.895H22.475V-9.8a4.374,4.374,0,0,0-.127-1.247,1.128,1.128,0,0,0-.381-.575,1,1,0,0,0-.615-.189,1.211,1.211,0,0,0-.73.239,1.424,1.424,0,0,0-.49.669,4.136,4.136,0,0,0-.162,1.356v2.853H18.36Zm12.958,0v.707a3.027,3.027,0,0,1,.943-.654,2.715,2.715,0,0,1,1.085-.218,2.8,2.8,0,0,1,2.134.949,3.443,3.443,0,0,1,.878,2.435,3.36,3.36,0,0,1-.908,2.4,2.859,2.859,0,0,1-2.152.964,2.673,2.673,0,0,1-1.032-.2,3.145,3.145,0,0,1-.949-.646v3.024h-1.6v-8.761Zm1.692,1.321a1.68,1.68,0,0,0-1.262.519,1.87,1.87,0,0,0-.5,1.356,1.925,1.925,0,0,0,.5,1.382A1.666,1.666,0,0,0,33.01-8a1.636,1.636,0,0,0,1.241-.536,1.918,1.918,0,0,0,.5-1.368,1.9,1.9,0,0,0-.5-1.353A1.641,1.641,0,0,0,33.01-11.788Zm4.5-3.8h1.609v8.89H37.514Zm3.7-.165a.984.984,0,0,1,.726.307,1.018,1.018,0,0,1,.3.743,1.006,1.006,0,0,1-.3.734.973.973,0,0,1-.717.3.986.986,0,0,1-.732-.31,1.035,1.035,0,0,1-.3-.752.99.99,0,0,1,.3-.725A.984.984,0,0,1,41.214-15.75Zm-.8,2.641h1.609v6.414H40.409Zm7.806,0h1.609v6.414H48.215v-.678a3.155,3.155,0,0,1-.945.646,2.645,2.645,0,0,1-1.028.2,2.855,2.855,0,0,1-2.149-.964,3.363,3.363,0,0,1-.907-2.4,3.446,3.446,0,0,1,.877-2.435,2.8,2.8,0,0,1,2.132-.949,2.709,2.709,0,0,1,1.083.218,2.957,2.957,0,0,1,.936.654Zm-1.692,1.321a1.626,1.626,0,0,0-1.24.528,1.9,1.9,0,0,0-.494,1.353,1.922,1.922,0,0,0,.5,1.368A1.628,1.628,0,0,0,46.528-8a1.658,1.658,0,0,0,1.257-.528,1.929,1.929,0,0,0,.5-1.382,1.873,1.873,0,0,0-.5-1.356A1.679,1.679,0,0,0,46.523-11.788Zm4.929-1.321h1.609v.657a3.861,3.861,0,0,1,.992-.642,2.4,2.4,0,0,1,.91-.18,2.2,2.2,0,0,1,1.619.666,2.288,2.288,0,0,1,.559,1.674v4.239H55.549V-9.5a7.106,7.106,0,0,0-.1-1.525,1.045,1.045,0,0,0-.359-.574,1,1,0,0,0-.632-.2,1.185,1.185,0,0,0-.838.327,1.745,1.745,0,0,0-.485.9,7.291,7.291,0,0,0-.071,1.3v2.573H51.451Zm7.44-2.364H60.5v2.364h.955v1.385H60.5v5.029H58.891v-5.029h-.825v-1.385h.825Z" transform="translate(8648.184 3742.043)" fill="#283e67"></path></g></svg>