<?xml version="1.0" encoding="UTF-8"?>
<svg xmlns="http://www.w3.org/2000/svg" xmlns:xlink="http://www.w3.org/1999/xlink" viewBox="0 0 35.03 35.04">
  <defs>
    <style>
      .cls-1 {
        fill: #04247b;
      }

      .cls-2 {
        fill: #fff;
      }

      .cls-3 {
        fill: #ce142a;
      }

      .cls-4 {
        fill: url(#linear-gradient);
        mix-blend-mode: screen;
        opacity: .72;
      }

      .cls-5 {
        isolation: isolate;
      }
    </style>
    <linearGradient id="linear-gradient" x1="17.52" y1="1.09" x2="17.52" y2="13.79" gradientUnits="userSpaceOnUse">
      <stop offset="0" stop-color="#fff"/>
      <stop offset="1" stop-color="#000"/>
    </linearGradient>
  </defs>
  <g class="cls-5">
    <g id="Layer_2" data-name="Layer 2">
      <g>
        <g>
          <path class="cls-1" d="m32.77,9.39l-5.66,3.9h7.28s.13,0,.13,0c-.35-1.43-.88-2.78-1.56-4.05l-.2.14Z"/>
          <path class="cls-1" d="m4.31,29.02c2.57,2.95,6.1,5.03,10.12,5.74v-12.72l-10.12,6.98Z"/>
          <path class="cls-1" d="m7.82,13.28l-5.59-3.83-.2-.13c-.66,1.24-1.17,2.56-1.52,3.96h7.3Z"/>
          <path class="cls-1" d="m20.62,12.03l9.27-6.42.28-.2C27.66,2.79,24.34.94,20.61.28v11.75Z"/>
          <path class="cls-1" d="m14.42,11.98V.28c-3.72.66-7.03,2.5-9.54,5.11l.28.2,9.25,6.4Z"/>
          <path class="cls-1" d="m20.64,34.76c4.01-.72,7.54-2.81,10.11-5.76l-10.12-6.94v12.7Z"/>
          <path class="cls-1" d="m.29,20.66c.28,1.55.76,3.02,1.42,4.4l6.38-4.4H.29Z"/>
          <path class="cls-1" d="m33.33,25.06c.66-1.37,1.13-2.85,1.42-4.39h-7.77l6.35,4.39Z"/>
          <path class="cls-2" d="m27.11,13.29l5.86-4.04c-.37-.69-.79-1.35-1.24-1.98l-8.66,5.97h-2.86l10.52-7.22c-.18-.21-.37-.41-.55-.61l-9.55,6.62V.28c-.42-.07-.83-.14-1.25-.18v15.02s15.5,0,15.5,0c-.08-.62-.2-1.22-.34-1.81h-7.41Z"/>
          <path class="cls-2" d="m15.65,15.12V.1c-.41.04-.82.11-1.23.18v11.71L5.17,5.58l-.28-.2c-.57.6-1.11,1.24-1.59,1.91l8.62,5.95h-2.77s-6.7-4.65-6.7-4.65c-.14.24-.27.48-.4.72l.2.13,5.59,3.83H.66s-.13,0-.13,0c-.15.6-.27,1.22-.35,1.85h15.48Z"/>
          <path class="cls-2" d="m19.35,18.84v16.1c.43-.05.86-.11,1.29-.19v-12.7s10.11,6.94,10.11,6.94c.45-.51.86-1.05,1.25-1.61l-9.7-6.71h2.71l7.83,5.36c.18-.32.35-.64.5-.97l-6.35-4.39h7.77c.11-.59.18-1.2.23-1.81h-15.62Z"/>
          <path class="cls-2" d="m15.65,18.84H.05c.05.61.12,1.22.23,1.82h7.8l-6.38,4.4c.28.58.59,1.14.93,1.69l8.84-6.09h2.7l-10.65,7.4c.25.33.51.64.78.95l10.12-6.98v12.72c.4.07.8.13,1.21.18v-16.1Z"/>
          <path class="cls-3" d="m15.67.1v15.02H.17c-.11.79-.17,1.59-.17,2.4,0,.44.02.87.05,1.31h15.6s-.01,16.11-.01,16.11c.62.07,1.24.1,1.88.1s1.22-.03,1.82-.09v-16.1s15.64.01,15.64.01c.03-.44.05-.89.05-1.34,0-.82-.06-1.62-.17-2.4h-15.51V.1c-.6-.06-1.21-.1-1.84-.1s-1.24.03-1.85.1Z"/>
          <path class="cls-3" d="m20.2,13.25h2.86l8.66-5.97c-.31-.43-.65-.85-1-1.26l-10.52,7.22Z"/>
          <path class="cls-3" d="m9.14,13.24h2.77S3.29,7.3,3.29,7.3c-.3.42-.58.85-.85,1.29l6.7,4.65Z"/>
          <path class="cls-3" d="m14.18,20.67h-2.7l-8.84,6.09c.28.45.58.89.9,1.31l10.65-7.4Z"/>
          <path class="cls-3" d="m25,20.67h-2.71l9.7,6.71c.3-.44.58-.89.83-1.36l-7.83-5.36Z"/>
        </g>
        <ellipse class="cls-4" cx="17.52" cy="7.44" rx="11.21" ry="6.35"/>
      </g>
    </g>
  </g>
</svg>