<?xml version="1.0" encoding="UTF-8"?>
<svg xmlns="http://www.w3.org/2000/svg" xmlns:xlink="http://www.w3.org/1999/xlink" viewBox="0 0 35.35 35.35">
  <defs>
    <style>
      .cls-1 {
        fill: #fff;
      }

      .cls-2 {
        fill: #e20b17;
      }

      .cls-3 {
        fill: url(#linear-gradient);
        mix-blend-mode: screen;
        opacity: .72;
      }

      .cls-4 {
        isolation: isolate;
      }
    </style>
    <linearGradient id="linear-gradient" x1="17.69" y1=".81" x2="17.69" y2="13.52" gradientUnits="userSpaceOnUse">
      <stop offset="0" stop-color="#fff"/>
      <stop offset="1" stop-color="#000"/>
    </linearGradient>
  </defs>
  <g class="cls-4">
    <g id="Layer_2" data-name="Layer 2">
      <g>
        <g>
          <path class="cls-2" d="m17.67,0C7.91,0,0,7.91,0,17.67s7.91,17.68,17.67,17.68,17.67-7.91,17.67-17.68S27.44,0,17.67,0Z"/>
          <g>
            <polygon class="cls-1" points="22.47 13.14 22.47 15.83 19.62 16.67 22.41 17.52 22.41 20.26 24.15 18.06 27 18.91 25.25 16.67 27 14.5 24.18 15.37 22.47 13.14"/>
            <path class="cls-1" d="m19.94,20.81c-1.46,2.06-3.98,3.41-6.84,3.41-4.51,0-8.11-3.36-8.11-7.56s3.82-7.51,8.11-7.51c2.91,0,5.47,1.37,6.92,3.48,0,0-3.4-3.65-8.26-1.07-4.74,2.52-3.89,9.64,1.84,11,0,0,3.32,1.05,6.35-1.74Z"/>
          </g>
        </g>
        <path class="cls-3" d="m28.9,7.17c0,3.51-5.02,6.36-11.21,6.36s-11.21-2.85-11.21-6.36S11.5.81,17.69.81s11.21,2.85,11.21,6.35Z"/>
      </g>
    </g>
  </g>
</svg>