<svg xmlns="http://www.w3.org/2000/svg" id="Layer_1" viewBox="0 0 702 93"><defs><style>      .st0, .st1, .st2, .st3 {        fill-rule: evenodd;      }      .st0, .st4 {        fill: #fff;      }      .st1 {        fill: #002f67;      }      .st2 {        fill: #f7941d;      }      .st3 {        fill: #a90f14;      }      .st5 {        fill: #f2672a;      }    </style></defs><g><path class="st4" d="M343.8,54.3v-27.9c0-.9-1.2-2.1-2.8-2.1h-.8s-.2-1.7-.2-1.7h4s4.7,0,4.7,0v31.6c0,10.8,6.5,17.2,15.3,17.2s15.6-6.3,15.6-17.2v-31.6h4.9v31.6c0,15.5-10.9,21.7-20.5,21.7s-20.3-6.2-20.3-21.7h0Z"></path><path class="st4" d="M507.4,61.1c0,9.3-7.9,14.9-16.1,14.9s-8.7-1.4-12.7-3.5l.6-5.2c4.1,2.7,7.2,4.3,12.1,4.3s11.1-4.1,11.1-10.7-3.9-7.2-7.6-9c-6.9-3.5-16.7-6.2-16.7-16s7.2-14,15.8-14,7.8,1,11.5,2.6l-.6,4.9c-3.5-1.8-6.6-3-10.6-3-5.7,0-11.1,3.1-11.1,9.2s4,6.9,7.6,8.7c7.5,3.6,16.7,6.4,16.7,16.9h0Z"></path><path class="st4" d="M438.6,22.7h4.7v52.3c0,0-5.2,0-5.2,0l-32.2-44.4v44.4h-4.9V22.7h5l32.5,45.2V26.5c0-.9-1.2-2.1-2.9-2.1h-.8s-.2-1.7-.2-1.7h4Z"></path><path class="st4" d="M459.7,75.1V26.5c-.1-.9-1.3-2.1-2.9-2.1h-.8s-.2-1.7-.2-1.7h4s4.7,0,4.7,0v5.9c.1,0,0,46.4,0,46.4h-4.9Z"></path><path class="st4" d="M563.1,73.3h.8s.1,1.7.1,1.7h-7.4s-6.7-15.9-6.7-15.9h-25.5l-6.9,15.9h-5.2l22.8-52.3h4.3l21.1,49.4c.5.6,1.5,1.2,2.4,1.2h0ZM537.3,29l-10.9,25.8h21.7l-10.9-25.8h0Z"></path><path class="st1" d="M701.4,28.8c-51.9,13-82.2-53.1-108.2-1.7,27.6-20.9,73.2,18.7,108.2,1.7Z"></path><path class="st3" d="M702,14.1c-45.8,25.5-111-26.5-109.9,18.7,18.6-16.9,88.6,8.4,109.9-18.7Z"></path><path class="st2" d="M677.7,15.3c-75.5-19.2-86-6.2-85.7,17.5,0,0,4.5-36.1,85.7-17.5Z"></path><path class="st0" d="M595.3,75.2c2.3,0,3.6-1.6,3.6-3.6s-1.3-3.6-3.6-3.6-3.6,1.6-3.6,3.6,1.3,3.6,3.6,3.6ZM595.3,74.1c-1.3,0-2.2-1.1-2.2-2.6s.9-2.5,2.2-2.5,2.2,1.1,2.2,2.5-.8,2.6-2.2,2.6Z"></path><path class="st4" d="M600.8,75h1.3v-5.9h1.4v-1h-1.4v-.6c0-1,.2-1.8,1.2-1.8s.6,0,.9.2v-1c-.3-.1-.8-.2-1.2-.2-1.6,0-2.2,1.1-2.2,2.7v.7h-1.2v1h1.2v5.9h0Z"></path><path class="st4" d="M611.1,68c-1.4,0-2.6.7-2.6,2,0,2.2,3.6,1.7,3.6,3.3s-.7,1-1.4,1-1.3-.2-2-.6v1c.6.4,1.3.5,2.2.5,1.2,0,2.5-.7,2.5-2,0-2.4-3.5-2-3.5-3.2s.6-1,1.4-1,1.2.2,1.8.5v-1c-.7-.3-1.3-.4-1.9-.4h0Z"></path><path class="st0" d="M618,75.2c2.3,0,3.6-1.6,3.6-3.6s-1.3-3.6-3.6-3.6-3.6,1.6-3.6,3.6,1.3,3.6,3.6,3.6ZM618,74.1c-1.3,0-2.2-1.1-2.2-2.6s.9-2.5,2.2-2.5,2.2,1.1,2.2,2.5-.8,2.6-2.2,2.6Z"></path><path class="st4" d="M629.2,68.1h-1.3v4.6c-.4.8-.9,1.5-1.9,1.5s-1.5-.8-1.5-2v-4h-1.3v4.4c0,1.6.9,2.6,2.5,2.6s1.8-.5,2.3-1.3v1.2h1.3v-6.9h0Z"></path><path class="st4" d="M631.6,66.8v1.4h-1.2v1h1.2v4c0,1.3.7,2,1.8,2s.9-.1,1.5-.3v-1c-.5.2-.7.3-1.1.3-.7,0-.9-.4-.9-1.2v-3.7h1.6v-1h-1.6v-2.2h-.4l-.9.8h0Z"></path><path class="st4" d="M636.1,75h1.3v-4.6c.4-.8.9-1.5,1.9-1.5s1.5.8,1.5,2v4h1.3v-4.4c0-1.6-.9-2.6-2.5-2.6s-1.8.5-2.3,1.3v-4.5h-1.3v10.2Z"></path><path class="st0" d="M653.7,75c-.1-.3-.2-.8-.2-1.2v-3.6c0-.7-.2-1.4-.6-1.7-.5-.4-1.2-.5-2-.5s-1.5.2-2.3.6v1.2c.9-.6,1.4-.8,2.2-.8s1.4.3,1.4,1.3v.5c-2.2,0-4.3.6-4.3,2.4s.6,1.9,2.2,1.9,1.7-.5,2.2-1.2v1h1.3,0ZM652.2,71.5v1.6c-.4.6-.9,1.1-1.7,1.1s-1.2-.4-1.2-1.1c0-1.2,1.3-1.6,2.9-1.6h0Z"></path><path class="st4" d="M655.8,75h1.3v-5.9h1.4v-1h-1.4v-.6c0-1,.2-1.8,1.2-1.8s.6,0,.9.2v-1c-.3-.1-.8-.2-1.2-.2-1.6,0-2.2,1.1-2.2,2.7v.7h-1.2v1h1.2v5.9h0Z"></path><path class="st4" d="M660.8,69.6v-1.5h-1.2v6.9h1.3v-3.8c.2-1.1.8-2.1,1.8-2.1s.6,0,1,.4l.3-1.2c-.4-.3-.7-.4-1.1-.4-.8,0-1.5.6-2.1,1.6Z"></path><path class="st0" d="M665,64.8v1.5h1.3v-1.5h-1.3ZM666.3,75v-6.9h-1.3v6.9h1.3Z"></path><path class="st4" d="M671.3,75.2c.7,0,1.2,0,1.9-.3v-1c-.7.2-1.1.3-1.7.3-1.5,0-2.3-1-2.3-2.5s.9-2.6,2.3-2.6,1,0,1.6.4v-1.1c-.5-.2-1.1-.3-1.8-.3-2.1,0-3.5,1.5-3.5,3.6s1.3,3.5,3.5,3.5h0Z"></path><path class="st0" d="M680.1,75c0-.3-.2-.8-.2-1.2v-3.6c0-.7-.2-1.4-.6-1.7-.5-.4-1.2-.5-2-.5s-1.5.2-2.3.6v1.2c.9-.6,1.4-.8,2.2-.8s1.4.3,1.4,1.3v.5c-2.2,0-4.3.6-4.3,2.4s.6,1.9,2.2,1.9,1.7-.5,2.2-1.2v1h1.3,0ZM678.6,71.5v1.6c-.4.6-.9,1.1-1.7,1.1s-1.2-.4-1.2-1.1c0-1.2,1.3-1.6,2.9-1.6h0Z"></path><path class="st4" d="M598.1,53.8h-1.3v4.6c-.4.8-.9,1.5-1.9,1.5s-1.5-.8-1.5-2v-4h-1.3v4.4c0,1.6.9,2.6,2.5,2.6s1.8-.5,2.3-1.3v1.2h1.3v-6.9h0Z"></path><path class="st4" d="M600,60.7h1.3v-4.6c.4-.8.9-1.5,1.9-1.5s1.5.8,1.5,2v4h1.3v-4.4c0-1.6-.9-2.6-2.5-2.6s-1.8.5-2.3,1.3v-1.2h-1.3v6.9h0Z"></path><path class="st0" d="M607.9,50.5v1.5h1.3v-1.5h-1.3ZM609.3,60.7v-6.9h-1.3v6.9h1.3Z"></path><path class="st4" d="M610.3,53.8l2.7,6.9h1.4l2.7-6.9h-1.4l-2,5.5-2-5.5h-1.4Z"></path><path class="st0" d="M623.6,59.2c-.8.4-1.5.7-2.3.7-1.4,0-2.3-1.1-2.3-2.5h5v-.5c0-1.9-1.3-3.2-3.1-3.2s-3.3,1.5-3.3,3.5,1.2,3.6,3.5,3.6,1.7-.2,2.6-.6v-1c-.1,0-.1,0-.1,0ZM619,56.6c0-1,.7-1.9,1.9-1.9s1.7.9,1.8,1.9h-3.6Z"></path><path class="st4" d="M626.7,55.3v-1.5h-1.2v6.9h1.3v-3.8c.2-1.1.8-2.1,1.8-2.1s.6,0,1,.4l.3-1.2c-.4-.3-.7-.4-1.1-.4-.8,0-1.5.6-2.1,1.6h0Z"></path><path class="st4" d="M633.1,53.7c-1.4,0-2.6.7-2.6,2,0,2.2,3.6,1.7,3.6,3.3s-.7,1-1.4,1-1.3-.2-2-.6v1c.6.4,1.3.5,2.2.5,1.2,0,2.5-.7,2.5-2,0-2.4-3.5-2-3.5-3.2s.6-1,1.4-1,1.2.2,1.8.5v-1c-.7-.3-1.3-.4-1.9-.4h0Z"></path><path class="st0" d="M636.8,50.5v1.5h1.3v-1.5h-1.3ZM638.1,60.7v-6.9h-1.3v6.9h1.3Z"></path><path class="st4" d="M640.6,52.5v1.4h-1.2v1h1.2v4c0,1.3.7,2,1.8,2s.9-.1,1.5-.3v-1c-.5.2-.7.3-1.1.3-.7,0-.9-.4-.9-1.2v-3.7h1.6v-1h-1.6v-2.2h-.4l-.9.8h0Z"></path><path class="st4" d="M646.9,60.4l-.3.8c-.4.9-.7,1.6-1.3,1.6s-.7,0-1-.1v1c.4.1,1,.2,1.3.2,1.2,0,1.9-1.2,2.4-2.4l3-7.6h-1.4l-2,5.3-2-5.3h-1.4l2.7,6.6h0Z"></path><path class="st4" d="M582.4,6h-2.1v69.1h2.1V6Z"></path></g><g><path class="st4" d="M116.5,92.9c-2.3,0-3.9-2-3.9-3.8V13.7c0-3.8-2.9-5.6-5.1-5.6h-19.5c-1.9,0-3.7-2-3.7-4.1s1.8-3.9,3.7-3.9h56.4c2.2,0,3.8,1.7,3.8,3.9s-1.3,4.1-3.8,4.1h-24.3v81c0,1.7-1.6,3.8-3.7,3.8"></path><path class="st4" d="M167.8,92.9c-2.1,0-3.8-1.7-3.8-3.8V4.1c0-2,1.8-3.8,3.8-3.8h48.4c2,0,3.8,1.8,3.8,3.8s-1.8,4.1-3.8,4.1h-38.6c-2.7,0-5.8,1.7-5.8,6.2v22.9h39.8c2.4,0,3.9,2.1,3.9,4.1s-1.6,3.9-3.9,3.9h-39.8v43.8c0,2.1-1.8,3.8-3.9,3.8"></path><path class="st4" d="M299.4,86.6l-22.2-34.3c-.8-1.2-1.4-3.3-1.4-5.9s1.5-6.3,2-7l21.7-33.4c.7-.9,1.1-3.7-.9-5.2-1.7-1.2-4.2-1.2-5.8,1.3l-24.1,37.1L244.5,2.1c-.8-1.3-2.8-3-5.6-1.4-1.6.9-2.2,3.7-1.1,5.4l26.2,40.3-26.1,40.3c-.9,1.5-1,4.1,1,5.5,1.3.9,4.1.8,5.5-1.3l24.3-37.5,24.3,37.5c1.1,1.8,3.8,2.4,5.5,1.3,2-1.4,1.8-4,1-5.5"></path><path class="st4" d="M76.2,93c-1.7,0-2.9-1.2-3.4-2.3L44.3,23.1c-.9-1.5-2.2-2.3-3.6-2.3s-3.2,1.2-4.2,3.2L8.6,90.7s-1.3,3-5.1,1.9c-2.3-.7-2.7-3.4-2.1-4.9L37.2,2.7c.2-.5.9-2.4,3.5-2.4,1.3,0,3,.9,3.6,2.7l35.5,84.8c.2.5.6,1.6,0,2.9-.4.8-1.1,1.6-1.9,1.9-.8.4-1.5.4-1.7.4"></path><path class="st5" d="M4.3,63.7c-2.4,0-4.3-1.9-4.3-4.3s1.9-4.3,4.3-4.3h53.5l3.6,8.5H4.3Z"></path></g></svg>