<svg xmlns="http://www.w3.org/2000/svg" xmlns:xlink="http://www.w3.org/1999/xlink" viewBox="0 0 65.47 65.468"><defs><clipPath id="clip-path"><rect id="Rectangle_275" data-name="Rectangle 275" width="65.47" height="65.468" fill="none"></rect></clipPath><linearGradient id="linear-gradient" x1="0.5" x2="0.5" y2="1" gradientUnits="objectBoundingBox"><stop offset="0" stop-color="#fff"></stop><stop offset="1"></stop></linearGradient></defs><g id="SA_Flag" data-name="SA Flag" transform="translate(0 0)"><g id="Group_3377" data-name="Group 3377" transform="translate(0 0)" clip-path="url(#clip-path)"><path id="Path_209" data-name="Path 209" d="M11.028,42.1A32.74,32.74,0,0,0,53.4,24.252H36.457Z" transform="translate(9.567 21.038)" fill="#062493"></path><path id="Path_210" data-name="Path 210" d="M55.094,22.335A32.747,32.747,0,0,0,10,3.164L37.555,22.352Z" transform="translate(8.678 0)" fill="#dd3831"></path><path id="Path_211" data-name="Path 211" d="M8.468,41.865a32.642,32.642,0,0,0,4.781,2.374L38.68,26.395H55.626a32.535,32.535,0,0,0,1.522-4.613H37.423Z" transform="translate(7.346 18.895)" fill="#fff"></path><path id="Path_212" data-name="Path 212" d="M38.216,25.277h20.06a32.738,32.738,0,0,0-1.139-4.413L39.6,20.881,12.045,1.7A32.881,32.881,0,0,0,7.651,4.222Z" transform="translate(6.637 1.47)" fill="#fff"></path><path id="Path_213" data-name="Path 213" d="M12.1,3.048A32.906,32.906,0,0,0,2.518,13.181L28.5,31.155,3.493,48.515a32.947,32.947,0,0,0,10.135,9.6L42.583,38.033H62.309a32.688,32.688,0,0,0,.418-13.93H42.667Z" transform="translate(2.184 2.644)" fill="#00794d"></path><path id="Path_214" data-name="Path 214" d="M3.511,8.474a31.989,31.989,0,0,0-2.135,4.179L21.45,26.536,2.162,39.82a32.706,32.706,0,0,0,2.321,3.989L29.5,26.448Z" transform="translate(1.194 7.351)" fill="#feb51d"></path><path id="Path_215" data-name="Path 215" d="M2.57,10.712a32.77,32.77,0,0,0,.786,27.166L22.643,24.595Z" transform="translate(0 9.292)"></path></g><path id="Path_216" data-name="Path 216" d="M77.3,15.105c0,6.495-9.281,11.752-20.731,11.752S35.84,21.6,35.84,15.105,45.121,3.36,56.571,3.36,77.3,8.621,77.3,15.105Z" transform="translate(-23.836 -2.218)" opacity="0.72" fill="url(#linear-gradient)" style="mix-blend-mode: screen;isolation: isolate"></path></g></svg>