<svg xmlns="http://www.w3.org/2000/svg" xmlns:xlink="http://www.w3.org/1999/xlink" viewBox="0 0 124 46.534">
  <defs>
    <linearGradient id="linear-gradient" x1="0.905" y1="8.772" x2="0.22" y2="-1.943" gradientUnits="objectBoundingBox">
      <stop offset="0.37" stop-color="#183d6d"/>
      <stop offset="0.746" stop-color="#f2672a"/>
    </linearGradient>
    <linearGradient id="linear-gradient-2" x1="0.768" y1="2.56" x2="0.127" y2="-1.096" xlink:href="#linear-gradient"/>
    <linearGradient id="linear-gradient-3" x1="0.883" y1="8.44" x2="0.198" y2="-2.276" xlink:href="#linear-gradient"/>
    <linearGradient id="linear-gradient-4" x1="0.735" y1="2.144" x2="0.095" y2="-1.059" xlink:href="#linear-gradient"/>
    <linearGradient id="linear-gradient-5" x1="0.834" y1="7.661" x2="0.149" y2="-3.054" xlink:href="#linear-gradient"/>
    <linearGradient id="linear-gradient-6" x1="0.701" y1="2.181" x2="0.06" y2="-1.475" xlink:href="#linear-gradient"/>
  </defs>
  <g id="Group_9144" data-name="Group 9144" transform="translate(-1907 -3231)">
    <g id="Group_9142" data-name="Group 9142" transform="translate(1907 3231)">
      <circle id="Ellipse_40" data-name="Ellipse 40" cx="4.191" cy="4.191" r="4.191" transform="translate(30.348)" fill="url(#linear-gradient)"/>
      <path id="Path_2399" data-name="Path 2399" d="M1570.456-645.9h-2.8a3.082,3.082,0,0,0-3.082,3.082v12.045a3.082,3.082,0,0,0,3.082,3.082h.965v6.05a.308.308,0,0,0,.308.308h.251a.308.308,0,0,0,.308-.308v-6.05h.965a3.082,3.082,0,0,0,3.082-3.082v-12.045A3.082,3.082,0,0,0,1570.456-645.9Z" transform="translate(-1534.519 656.592)" fill="url(#linear-gradient-2)"/>
      <circle id="Ellipse_41" data-name="Ellipse 41" cx="4.191" cy="4.191" r="4.191" transform="translate(15.318 3.757)" fill="url(#linear-gradient-3)"/>
      <path id="Path_2400" data-name="Path 2400" d="M1500.266-628.351h-2.8a3.082,3.082,0,0,0-3.082,3.082v15.514a3.082,3.082,0,0,0,3.082,3.082h.965v6.05a.308.308,0,0,0,.308.308h.251a.308.308,0,0,0,.308-.308v-6.05h.965a3.081,3.081,0,0,0,3.082-3.082v-15.514A3.082,3.082,0,0,0,1500.266-628.351Z" transform="translate(-1479.358 642.802)" fill="url(#linear-gradient-4)"/>
      <path id="Path_2401" data-name="Path 2401" d="M1429.738-634.817a4.191,4.191,0,0,0,4.191-4.191,4.191,4.191,0,0,0-4.191-4.191,4.191,4.191,0,0,0-4.191,4.191A4.191,4.191,0,0,0,1429.738-634.817Z" transform="translate(-1425.258 654.471)" fill="url(#linear-gradient-5)"/>
      <path id="Path_2402" data-name="Path 2402" d="M1430.075-593.256h-2.8a3.082,3.082,0,0,0-3.082,3.082v12.045a3.082,3.082,0,0,0,3.082,3.082h.965V-569a.308.308,0,0,0,.308.308h.251a.308.308,0,0,0,.308-.308v-6.05h.965a3.082,3.082,0,0,0,3.082-3.082v-12.045A3.082,3.082,0,0,0,1430.075-593.256Z" transform="translate(-1424.197 615.222)" fill="url(#linear-gradient-6)"/>
    </g>
    <path id="_5" data-name=" 5" d="M213.171,21.84a.889.889,0,0,1-.9-.9V3.445a1.214,1.214,0,0,0-1.15-1.293H206.56a1,1,0,0,1-.862-.934.932.932,0,0,1,.862-.9h13.114a.882.882,0,0,1,.9.862v.036a.869.869,0,0,1-.862.934h-5.677v18.79a.962.962,0,0,1-.862.9" transform="translate(1775.204 3230.795)" fill="#fff"/>
    <path id="_4" data-name=" 4" d="M258.1,21.776a.889.889,0,0,1-.9-.9V1.118a.913.913,0,0,1,.9-.9h11.245a.916.916,0,1,1,0,1.832H260.36a1.325,1.325,0,0,0-1.365,1.293v5.5h9.233a.928.928,0,0,1,.79,1.042.914.914,0,0,1-.79.79h-9.233V20.842a.9.9,0,0,1-.9.934" transform="translate(1742.207 3230.859)" fill="#fff"/>
    <path id="_3" data-name=" 3" d="M318.928,20.17l-5.174-7.976a2.332,2.332,0,0,1-.323-1.365,3.375,3.375,0,0,1,.467-1.653l5.03-7.76a.95.95,0,0,0-.216-1.222.908.908,0,0,0-1.257.18c-.036.036-.072.072-.072.108l-5.6,8.623-5.6-8.623a.9.9,0,0,0-1.221-.359.125.125,0,0,0-.072.036.909.909,0,0,0-.216,1.257l6.072,9.341-6.072,9.413a.893.893,0,1,0,1.473,1.006l5.641-8.694,5.641,8.694a.961.961,0,0,0,1.257.287.933.933,0,0,0,.252-1.293" transform="translate(1711.913 3230.992)" fill="#fff"/>
    <path id="_2" data-name=" 2" d="M169.33,21.84a.858.858,0,0,1-.79-.539L161.929,5.6a.948.948,0,0,0-.826-.539,1.122,1.122,0,0,0-.97.754l-6.539,15.521a.9.9,0,0,1-1.186.431.878.878,0,0,1-.5-1.114L160.24.894a.852.852,0,0,1,.826-.575.986.986,0,0,1,.862.611l8.263,19.688a.761.761,0,0,1,0,.683.913.913,0,0,1-.431.467,2.15,2.15,0,0,1-.431.072" transform="translate(1809.704 3230.795)" fill="#fff"/>
    <path id="_1" data-name=" 1" d="M152.33,37.8a1,1,0,0,1-.934-1.042.977.977,0,0,1,.934-.934h12.431l.826,1.976Z" transform="translate(1809.997 3208.049)" fill="#f2672a"/>
    <path id="Path_18650" data-name="Path 18650" d="M149.717,85.683a.779.779,0,0,1-.5-.18.695.695,0,0,1,0-1.006.672.672,0,0,1,.5-.18h8.371a.882.882,0,0,1,.539.18.652.652,0,0,1,.216.5.6.6,0,0,1-.216.5.882.882,0,0,1-.539.18Zm4.168,11.245a.737.737,0,0,1-.754-.754V85.036h1.545V96.173a.731.731,0,0,1-.216.539.759.759,0,0,1-.575.216Z" transform="translate(1811.533 3176.977)" fill="#fff"/>
    <path id="Path_18652" data-name="Path 18652" d="M179.509,102.62a5.109,5.109,0,0,1-2.515-.611,4.243,4.243,0,0,1-1.689-1.689,5.068,5.068,0,0,1-.611-2.479,5.486,5.486,0,0,1,.611-2.659,4.313,4.313,0,0,1,1.617-1.689,4,4,0,0,1,2.12-.575,4.06,4.06,0,0,1,1.617.323,4.292,4.292,0,0,1,1.365.9,4.581,4.581,0,0,1,1.365,3.233.755.755,0,0,1-.251.5.709.709,0,0,1-.5.216h-7.078l-.323-1.257h6.934l-.287.251v-.4a2.151,2.151,0,0,0-.467-1.257,2.957,2.957,0,0,0-1.042-.826,3.1,3.1,0,0,0-1.293-.287A3.763,3.763,0,0,0,178,94.5a2.769,2.769,0,0,0-.97.611,3.257,3.257,0,0,0-.683,1.078,4.245,4.245,0,0,0-.251,1.617,3.832,3.832,0,0,0,.431,1.832,3.324,3.324,0,0,0,1.186,1.257,3.147,3.147,0,0,0,1.76.467,3.444,3.444,0,0,0,1.114-.18,3.24,3.24,0,0,0,.79-.4c.216-.18.4-.323.575-.5a.846.846,0,0,1,.467-.18.613.613,0,0,1,.611.611.682.682,0,0,1-.287.539,5.113,5.113,0,0,1-1.365.97A4.06,4.06,0,0,1,179.509,102.62Z" transform="translate(1795.07 3171.464)" fill="#fff"/>
    <path id="Path_18651" data-name="Path 18651" d="M212.25,92.9a.731.731,0,0,1,.539.216.709.709,0,0,1,.216.5v7.94a.731.731,0,0,1-.216.539.709.709,0,0,1-.5.216.652.652,0,0,1-.5-.216.731.731,0,0,1-.216-.539V99.833l.359-.036a1.873,1.873,0,0,1-.287.862,2.842,2.842,0,0,1-.754.862,3.865,3.865,0,0,1-1.114.683,3.421,3.421,0,0,1-1.365.251,3.834,3.834,0,0,1-2.192-.647,4.479,4.479,0,0,1-1.545-1.725,5.637,5.637,0,0,1-.575-2.515,5.2,5.2,0,0,1,.575-2.515,4.783,4.783,0,0,1,1.545-1.725,4.156,4.156,0,0,1,3.593-.359,4.061,4.061,0,0,1,1.15.683,3.223,3.223,0,0,1,.754.97A2.279,2.279,0,0,1,212,95.666l-.467-.108V93.582a.652.652,0,0,1,.216-.5A.711.711,0,0,1,212.25,92.9Zm-3.736,8.263a2.573,2.573,0,0,0,1.581-.467,3.064,3.064,0,0,0,1.078-1.257,4.28,4.28,0,0,0,0-3.593,2.853,2.853,0,0,0-1.078-1.257,2.909,2.909,0,0,0-3.162,0,2.853,2.853,0,0,0-1.078,1.257,4.288,4.288,0,0,0-.4,1.832,4.011,4.011,0,0,0,.4,1.8,2.853,2.853,0,0,0,1.078,1.257,3.352,3.352,0,0,0,1.581.431Z" transform="translate(1776.232 3171.592)" fill="#fff"/>
    <path id="Path_18653" data-name="Path 18653" d="M241.224,93.05a3.089,3.089,0,0,1,1.976.611,2.986,2.986,0,0,1,1.006,1.76h-.216l.144-.323a2.971,2.971,0,0,1,.754-.97,4.761,4.761,0,0,1,1.222-.79,3.355,3.355,0,0,1,1.437-.323,3.2,3.2,0,0,1,1.868.5,2.671,2.671,0,0,1,.97,1.365,5.431,5.431,0,0,1,.287,1.9v4.922a.731.731,0,0,1-.216.539.709.709,0,0,1-.5.216.737.737,0,0,1-.755-.754V96.823a3.416,3.416,0,0,0-.216-1.257,1.732,1.732,0,0,0-.683-.9,2.174,2.174,0,0,0-1.257-.323,2.941,2.941,0,0,0-1.365.323,2.906,2.906,0,0,0-.97.9,2.229,2.229,0,0,0-.359,1.257v4.886a.737.737,0,0,1-.754.754.652.652,0,0,1-.5-.216.731.731,0,0,1-.216-.539V96.787a4.165,4.165,0,0,0-.18-1.222,2,2,0,0,0-.647-.9,2.1,2.1,0,0,0-1.257-.323,2.8,2.8,0,0,0-1.329.323,2.582,2.582,0,0,0-.97.9,2.115,2.115,0,0,0-.359,1.222v4.922a.731.731,0,0,1-.216.539.709.709,0,0,1-.5.216.652.652,0,0,1-.5-.216.731.731,0,0,1-.216-.539V93.841a.652.652,0,0,1,.216-.5.709.709,0,0,1,.5-.216.731.731,0,0,1,.539.216.709.709,0,0,1,.216.5v1.365l-.4.431a2.511,2.511,0,0,1,.359-.934,4.335,4.335,0,0,1,.755-.862,5.082,5.082,0,0,1,1.042-.647A8.377,8.377,0,0,1,241.224,93.05Z" transform="translate(1755.342 3171.406)" fill="#fff"/>
    <path id="Path_18654" data-name="Path 18654" d="M293.242,84.219a.652.652,0,0,1,.5.216.731.731,0,0,1,.216.539v7.15a4.868,4.868,0,0,1-7.293,4.2,4.954,4.954,0,0,1-1.725-1.725,4.724,4.724,0,0,1-.647-2.479v-7.15a.737.737,0,0,1,.754-.754.709.709,0,0,1,.5.216.731.731,0,0,1,.216.539v7.15a3.229,3.229,0,0,0,.467,1.76,3.278,3.278,0,0,0,2.874,1.653,3.374,3.374,0,0,0,1.689-.431,3.409,3.409,0,0,0,1.257-1.222,3.229,3.229,0,0,0,.467-1.76v-7.15a.882.882,0,0,1,.18-.539A.731.731,0,0,1,293.242,84.219Z" transform="translate(1724.845 3177.039)" fill="#f2672a"/>
    <path id="Path_18655" data-name="Path 18655" d="M324.532,93.116a4.1,4.1,0,0,1,2.192.611,4.4,4.4,0,0,1,1.545,1.689,5.633,5.633,0,0,1,0,4.958,4.784,4.784,0,0,1-1.545,1.725,3.771,3.771,0,0,1-2.156.611,3.7,3.7,0,0,1-1.257-.216,5.038,5.038,0,0,1-1.078-.539,3.172,3.172,0,0,1-.79-.754,3.94,3.94,0,0,1-.467-.826l.4-.251v5.317a.737.737,0,0,1-.754.754.652.652,0,0,1-.5-.216.731.731,0,0,1-.216-.539v-11.5a.652.652,0,0,1,.216-.5.709.709,0,0,1,.5-.216.731.731,0,0,1,.539.216.709.709,0,0,1,.216.5v1.617l-.287-.144a2.428,2.428,0,0,1,.431-.862,3.048,3.048,0,0,1,.79-.719,4.666,4.666,0,0,1,1.042-.5A2.771,2.771,0,0,1,324.532,93.116Zm-.18,1.329a2.573,2.573,0,0,0-1.581.467,2.964,2.964,0,0,0-1.078,1.222,4.012,4.012,0,0,0-.4,1.8,4.245,4.245,0,0,0,.4,1.8,3.064,3.064,0,0,0,1.078,1.257,3.015,3.015,0,0,0,1.581.467,2.646,2.646,0,0,0,1.581-.467,2.853,2.853,0,0,0,1.078-1.257,4.28,4.28,0,0,0,0-3.593,2.964,2.964,0,0,0-1.078-1.222,2.573,2.573,0,0,0-1.581-.467Z" transform="translate(1702.034 3171.34)" fill="#f2672a"/>
  </g>
</svg>
