<svg xmlns="http://www.w3.org/2000/svg" xmlns:xlink="http://www.w3.org/1999/xlink" id="Group_3345" x="0px" y="0px" viewBox="0 0 271.4 216.4" style="enable-background:new 0 0 271.4 216.4;" xml:space="preserve"><style type="text/css">	.st0{fill:#FFFFFF;}	.st1{fill:#FB5D31;}</style><g id="Group_3342">	<g>		<g>			<g id="Group_3341">				<path id="Path_183" class="st0" d="M138.8,167.3c-1-1.3-2.6-2-4.2-2.1c-1.6-0.1-3,1-3.1,2.6v0.1c0,0.9,0.6,1.7,1.4,2      c1,0.5,2.1,0.9,3.2,1.2c4.6,1.6,6.6,3.7,6.6,7.2c0,4.1-3.4,6.9-8.3,6.9c-3.1,0-6.1-1.5-8-4l2.8-3.1c1.2,1.7,3.2,2.8,5.3,2.9      c2.2,0,3.6-1,3.6-2.8c0.1-1-0.5-2-1.4-2.4c-0.9-0.4-1.9-0.8-2.8-1c-5-1.6-7-3.5-7-7c0-3.9,3.4-6.8,7.8-6.8c2.7,0,5.2,1,7.1,2.9      L138.8,167.3L138.8,167.3z M160.5,181.1c-2.1,2.9-4.5,4.1-7.6,4.1c-5.3,0-9.1-4.1-9.1-9.7s3.7-9.8,8.6-9.8s8.6,4.3,8.6,9.7      c0,0.5,0,0.9-0.1,1.4h-12.1c0.1,2.4,2,4.3,4.4,4.2c1.5-0.1,2.8-0.9,3.6-2.1L160.5,181.1 M155.9,173.1c-0.4-2.2-1.7-3.4-3.5-3.4      s-3.2,1.2-3.6,3.4H155.9z M174.3,172.3c-1-1.5-2.1-2.1-3.4-2.1c-2.4,0-4.3,2.4-4.3,5.4s1.9,5.4,4.3,5.4c1.4-0.1,2.7-0.9,3.4-2.1      l3.8,2.2c-1.8,2.8-4.3,4.3-7.2,4.3c-4.8,0-8.7-4.4-8.7-9.7s4-9.7,8.7-9.7c3,0,5.8,1.7,7.2,4.3L174.3,172.3L174.3,172.3      L174.3,172.3z M191.6,183.2c-1.1,1.4-2.7,2.1-4.5,2.1c-4.3,0-7.3-3.4-7.3-8.1v-10.9h4.4v10.9c0,2.3,1.5,4,3.5,4      c2.1-0.1,3.9-1.8,3.9-4v-10.9h4.4v18.6h-3.8L191.6,183.2L191.6,183.2L191.6,183.2z M202.6,167.9c1.4-1.5,3.4-2.3,5.4-2.1v4.1      c-2.1,0.2-3.3,0.8-4.1,2.1c-0.5,0.8-0.8,1.7-0.8,2.7v10.2h-4.4v-18.5h3.5L202.6,167.9L202.6,167.9L202.6,167.9z M210,160h4.4      v4.4H210V160z M210,184.8v-18.5h4.4v18.6L210,184.8L210,184.8L210,184.8z M223.9,162.1v4.1h5v4.1h-5v9.4      c-0.1,0.7,0.4,1.3,1.1,1.4c0.1,0,0.1,0,0.2,0c0.9,0,1.5-0.5,2.1-1.6l3.5,2.1c-1.6,2.8-3.3,3.7-6,3.7c-2.2,0.1-4.2-1.1-5-3.1      c-0.2-0.9-0.3-1.7-0.3-2.6v-9.1h-3.2v-4.1h3.2v-4.1L223.9,162.1L223.9,162.1z M232.2,160h4.4v4.4h-4.4V160z M232.2,184.8v-18.5      h4.4v18.6L232.2,184.8L232.2,184.8L232.2,184.8z M255,181.1c-2.1,2.9-4.5,4.1-7.6,4.1c-5.3,0-9.1-4.1-9.1-9.7s3.7-9.8,8.6-9.8      s8.6,4.3,8.6,9.7c0,0.5,0,0.9-0.1,1.4h-12.1c0.1,2.4,2,4.3,4.4,4.2c1.5-0.1,2.8-0.9,3.6-2.1L255,181.1L255,181.1z M250.5,173.1      c-0.4-2.2-1.7-3.4-3.5-3.4s-3.2,1.2-3.6,3.4H250.5z M267.8,171.8c-0.9-1.1-2.3-1.8-3.7-1.9c-1.2,0-2.1,0.6-2.1,1.6      c0,0.9,0.5,1.4,1.9,1.7c1.6,0.4,3.1,0.9,4.6,1.6c1.8,0.9,2.9,2.7,2.9,4.6c0,3.4-2.9,5.8-7.3,5.8c-3,0.2-5.9-1.2-7.6-3.7l3-2.9      c1,1.5,2.8,2.4,4.6,2.4c1.6,0,2.5-0.6,2.5-1.6c0-0.9-0.7-1.5-3.5-2.4c-1.4-0.4-2.7-1-4-1.7c-1.3-0.9-2.1-2.4-2-4      c0-3.3,2.9-5.7,6.8-5.7c2.5,0,4.9,1,6.6,2.7L267.8,171.8L267.8,171.8z M96.3,188.5h-72l5.8,5.7L96.3,188.5L96.3,188.5z       M31,165.2v0.9c-1.2-0.9-2.7-1.3-4.2-1.3c-5.1,0-8.9,4.6-8.9,10.3s3.9,10.3,8.9,10.3c1.5,0,3-0.5,4.2-1.4v0.9h4.4v-19.6      L31,165.2L31,165.2z M26.8,180.6c-2.5,0-4.3-2.4-4.3-5.5s1.8-5.5,4.3-5.5s4.2,2.4,4.2,5.5S29.3,180.6,26.8,180.6 M66.5,165.2      v11.5c0.2,2-1.3,3.8-3.3,3.9s-3.8-1.3-4-3.3c0-0.2,0-0.4,0-0.7v-11.5h-4.5v11.5c0,4.7,3.2,8.5,7.9,8.5c1.3,0,2.7-0.4,3.8-1.2      v0.7h4.5v-19.5L66.5,165.2L66.5,165.2z M107.8,184.8v-11.5c-0.2-2,1.3-3.8,3.3-3.9s3.8,1.3,3.9,3.3c0,0.2,0,0.4,0,0.7v11.5h4.5      v-11.5c0-4.7-3.2-8.5-7.9-8.5c-1.3,0-2.7,0.4-3.8,1.2v-0.8h-4.5v19.6H107.8L107.8,184.8z"></path>				<path id="Path_184" class="st0" d="M5.2,184.8v-7.6h3.3l5.7,7.6h5.8l-6.9-9.1c3.8-2.7,4.7-8,1.9-11.8c-1.6-2.2-4.1-3.5-6.9-3.5      H0.5v24.4L5.2,184.8L5.2,184.8L5.2,184.8z M5.2,165.1h3c2.1,0,3.8,1.8,3.7,3.9c0,2.1-1.7,3.7-3.7,3.7h-3L5.2,165.1L5.2,165.1      L5.2,165.1z M82.8,180.2c-0.4,0.3-0.9,0.5-1.5,0.5c-1.2-0.1-2.1-1.1-2.1-2.3l0,0c0-0.1,0-0.1,0-0.1V170h3.8v-4.7h-3.8v-4.9h-4.5      v4.9h-2.3v4.6h2.3v8.4c-0.2,3.7,2.7,6.8,6.3,7l0,0c0.1,0,0.2,0,0.3,0c1.5-0.1,3-0.5,4.3-1.2L82.8,180.2L82.8,180.2L82.8,180.2z       M46.4,174.4l7.6-9.2h-6.2l-5.3,6.8v-13.3h-4.6v26h4.6v-8l6.5,8h6.3L46.4,174.4L46.4,174.4z"></path>				<path id="Path_185" class="st0" d="M93.1,164.8c-5.2,0-8.8,4.5-8.8,10.3s4.7,10.3,9.2,10.3c3.2,0,6.2-1.7,7.8-4.4l-3.9-2.2      c-3,4.5-8.1,2.2-8.7-2.2h12.7C102.7,169.4,98.1,164.8,93.1,164.8L93.1,164.8L93.1,164.8z M96.9,172.5h-8      C89.9,167.9,96.1,167.6,96.9,172.5"></path>				<path id="Path_186" class="st0" d="M10.3,211.7H3.7l-1.4,4.4H0l5.9-18.4h2.2l5.9,18.4h-2.3L10.3,211.7      C10.3,211.7,10.3,211.7,10.3,211.7z M9.8,209.7l-2.8-9.1l-2.8,9.1H9.8z M24.1,214.6c-1,1.2-2.5,1.8-4,1.8      c-3.1,0-5.2-2.4-5.2-5.9v-9.2h2.1v9.1c0,2.4,1.4,3.9,3.5,3.9c2.1-0.1,3.8-1.8,3.8-3.9v-9.1h2.1V216h-1.9L24.1,214.6L24.1,214.6      L24.1,214.6z M35.8,204.4c-0.7-0.9-1.8-1.4-2.9-1.5c-1.5,0-2.4,0.8-2.4,2.1c-0.1,0.6,0.2,1.3,0.8,1.6c0.9,0.5,1.8,0.9,2.8,1.3      c2.8,1.3,4,2.5,4,4.5c0,2.4-2,4-5.1,4c-2,0.1-4-0.8-5.2-2.4l1.5-1.3c0.9,1.2,2.2,1.8,3.7,1.8c1.7,0,2.8-0.8,2.8-2.1      c-0.1-0.8-0.5-1.6-1.2-2.1c-0.9-0.6-2-1.1-3-1.5c-2.2-0.9-3.3-2.1-3.3-4c0-2.3,1.9-3.9,4.6-3.9c1.7-0.1,3.3,0.6,4.5,1.8      L35.8,204.4L35.8,204.4L35.8,204.4z M43.1,198.2v3.2h3.7v2h-3.7v9.7c0,0.9,0.5,1.4,1.5,1.4c0.8,0,1.5-0.4,1.8-1.1l1.5,1.1      c-0.7,1.3-2.1,2-3.5,2c-1.6,0-2.7-0.6-3.1-2c-0.2-0.6-0.3-1.3-0.3-1.9v-9.2h-2.5v-2h2.5v-3.2L43.1,198.2L43.1,198.2z       M51.1,202.8c1.1-1.1,2.6-1.7,4.1-1.8v2c-2.3,0.3-4,1.6-4,3.3v9.8h-2.2v-14.7h1.8L51.1,202.8L51.1,202.8z M66,214.4      c-1,1.3-2.5,2-4.1,2c-3.9,0-6.5-3.1-6.5-7.7s2.7-7.7,6.5-7.7c1.6-0.1,3.1,0.6,4.1,1.7l0.3-1.4h1.9v14.7h-1.9L66,214.4L66,214.4z       M57.7,208.8c0,3.4,1.8,5.8,4.3,5.8c2.5,0,4.2-2.4,4.2-5.7s-1.8-5.8-4.3-5.8C59.5,203,57.7,205.4,57.7,208.8L57.7,208.8      L57.7,208.8z M70.5,216.1v-19.6h2.1v19.6H70.5z M74.7,199.5v-2.4h2.4v2.4H74.7z M74.9,216.1v-14.7H77v14.6L74.9,216.1      L74.9,216.1z M89.2,214.4c-1,1.3-2.5,2-4.1,2c-3.9,0-6.5-3.1-6.5-7.7s2.7-7.7,6.5-7.7c1.6-0.1,3.1,0.6,4.1,1.7l0.3-1.4h1.9v14.7      h-2L89.2,214.4z M80.9,208.8c0,3.4,1.8,5.8,4.3,5.8s4.2-2.4,4.2-5.7s-1.8-5.8-4.3-5.8C82.7,203,80.9,205.4,80.9,208.8"></path>			</g>		</g>	</g></g><g>	<g>		<g id="Group_3343">			<path id="Path_187" class="st0" d="M105.4,84.1c-1.9,0-3.5-1.5-3.6-3.4V12.4c0.1-2.6-1.9-4.9-4.5-5l0,0H79.6     c-1.9-0.2-3.3-1.8-3.3-3.7c0-1.9,1.5-3.4,3.3-3.6h51c1.9,0,3.4,1.5,3.4,3.4l0,0v0.1c0.1,1.9-1.4,3.6-3.3,3.7l0,0     c-0.1,0-0.1,0-0.1,0h-21.9v73.2C108.6,82.5,107.2,83.9,105.4,84.1"></path>			<path id="Path_188" class="st0" d="M151.8,84.1c-1.9,0-3.4-1.5-3.4-3.4V3.7c0.1-1.9,1.6-3.4,3.4-3.5h43.8     c1.9,0.1,3.4,1.6,3.4,3.5c0,1.9-1.5,3.6-3.4,3.7h-35c-2.4,0-5.3,1.5-5.3,5.7v20.7h36c2,0,3.6,1.6,3.6,3.6s-1.6,3.6-3.6,3.6h-35.9     v39.6C155.3,82.5,153.7,84.1,151.8,84.1"></path>			<path id="Path_189" class="st0" d="M270.8,78.4l-20.1-31c-0.9-1.6-1.4-3.5-1.3-5.4c0-2.2,0.6-4.5,1.8-6.4l19.6-30.2     c0.9-1.6,0.6-3.6-0.8-4.7c-1.5-1.2-3.8-0.9-4.9,0.7l0,0c-0.1,0.2-0.2,0.3-0.3,0.5L243,35.5L221.2,1.9c-0.9-1.7-3.1-2.4-4.8-1.5     c-0.1,0.1-0.2,0.1-0.3,0.2c-1.5,1.1-2,3.2-1,4.8l23.7,36.5l-23.7,36.5c-1,1.7-0.7,3.8,0.9,5c1.7,1,3.9,0.5,4.9-1.2l22-33.9     l22,33.9c1.1,1.6,3.2,2.1,4.9,1.2C271.8,82.2,271.6,79.8,270.8,78.4"></path>			<path id="Path_190" class="st0" d="M68.9,84.1c-1.3,0-2.6-0.9-3.1-2.1L40.1,20.9c-0.6-1.2-1.9-2-3.3-2.1c-1.5,0-2.9,1.1-3.8,2.9     L7.7,82.1c0,0-1.2,2.8-4.6,1.7c-2.1-0.6-2.4-3.1-1.9-4.4l32.5-77c0.5-1.4,1.8-2.2,3.2-2.2c1.5,0.1,2.8,1,3.3,2.4l32.1,76.7     c0.4,0.8,0.4,1.8,0,2.7c-0.3,0.8-1,1.4-1.7,1.7C70,84,69.5,84.1,68.9,84.1"></path>			<path id="Path_191" class="st1" d="M3.9,57.6c-2.1,0-3.9-1.7-3.9-3.9s1.7-3.9,3.9-3.9h48.4l3.3,7.7H3.9z"></path>			<path id="Path_192" class="st0" d="M24.6,123.7v10.1H23v-1.8c-0.3,0.6-0.8,1.1-1.3,1.4c-0.6,0.4-1.4,0.5-2.1,0.5     c-0.8,0-1.6-0.2-2.4-0.6c-0.7-0.4-1.2-1.1-1.6-1.8c-0.7-1.8-0.7-3.7,0-5.5c0.3-0.8,0.9-1.4,1.6-1.8c0.7-0.4,1.5-0.7,2.3-0.7     c0.7,0,1.4,0.2,2.1,0.5c0.6,0.3,1,0.8,1.3,1.5v-1.7L24.6,123.7L24.6,123.7z M22.2,131.6c1.1-1.8,1.1-4,0-5.7     c-0.6-0.7-1.4-1.1-2.3-1c-0.9,0-1.8,0.3-2.3,1c-0.6,0.8-0.9,1.8-0.8,2.9c-0.1,1,0.2,2,0.8,2.8c0.6,0.7,1.4,1.1,2.3,1     C20.8,132.6,21.6,132.2,22.2,131.6"></path>			<path id="Path_193" class="st0" d="M36.9,127.4v6.3h-1.6v-6.2c0.1-0.7-0.1-1.4-0.6-2.1c-0.5-0.5-1.1-0.7-1.8-0.7     c-0.8,0-1.6,0.3-2.2,0.9c-0.6,0.6-0.9,1.5-0.8,2.3v5.8h-1.6v-7.2c0-0.9,0-1.9-0.2-2.8h1.5l0.2,1.8c0.3-0.6,0.8-1.2,1.4-1.5     c0.6-0.4,1.4-0.5,2.1-0.5C35.7,123.5,36.9,124.8,36.9,127.4"></path>			<path id="Path_194" class="st0" d="M49.2,127.4v6.3h-1.6v-6.2c0.1-0.7-0.1-1.4-0.6-2.1c-0.5-0.5-1.1-0.7-1.8-0.7     c-0.8,0-1.7,0.3-2.2,0.9c-0.6,0.6-0.9,1.5-0.8,2.3v5.8h-1.6v-7.2c0-0.9,0-1.9-0.2-2.8H42l0.2,1.8c0.3-0.6,0.8-1.2,1.4-1.5     c0.6-0.4,1.4-0.5,2.1-0.5C48,123.5,49.2,124.8,49.2,127.4"></path>			<path id="Path_195" class="st0" d="M54.5,133.3c-0.7-0.4-1.3-1.1-1.7-1.8c-0.8-1.8-0.8-3.8,0-5.5c0.4-0.8,1-1.4,1.7-1.8     c1.6-0.8,3.4-0.8,5,0c0.7,0.4,1.3,1.1,1.7,1.8c0.8,1.8,0.8,3.8,0,5.5c-0.4,0.8-1,1.4-1.7,1.8C57.9,134.1,56.1,134.1,54.5,133.3      M59.3,131.6c0.6-0.8,0.9-1.9,0.8-2.9c0.1-1-0.2-2-0.8-2.8c-1.2-1.3-3.1-1.3-4.4-0.2c-0.1,0.1-0.1,0.1-0.2,0.2     c-0.6,0.8-0.9,1.8-0.8,2.8c-0.1,1,0.2,2.1,0.8,2.9c1.2,1.3,3.2,1.3,4.5,0.1C59.2,131.7,59.3,131.6,59.3,131.6"></path>			<path id="Path_196" class="st0" d="M73.3,123.7v10.1h-1.6V132c-0.3,0.6-0.8,1.1-1.3,1.4c-0.6,0.3-1.3,0.5-1.9,0.5     c-1,0.1-2-0.3-2.7-1c-0.7-0.8-1-1.9-0.9-3v-6.2h1.6v6.2c-0.1,0.7,0.1,1.4,0.6,2c0.4,0.5,1.1,0.7,1.7,0.6c0.8,0,1.6-0.3,2.2-0.9     c0.6-0.6,0.9-1.4,0.8-2.3v-5.7C71.7,123.7,73.3,123.7,73.3,123.7z"></path>			<path id="Path_197" class="st0" d="M85.6,127.4v6.3H84v-6.2c0.1-0.7-0.1-1.4-0.6-2.1c-0.5-0.5-1.1-0.7-1.8-0.7     c-0.8,0-1.7,0.3-2.2,0.9c-0.6,0.6-0.9,1.5-0.8,2.3v5.8H77v-7.2c0-0.9-0.1-1.9-0.2-2.8h1.5l0.2,1.8c0.3-0.6,0.8-1.2,1.4-1.5     c0.6-0.4,1.4-0.5,2.1-0.5C84.4,123.5,85.7,124.8,85.6,127.4"></path>			<path id="Path_198" class="st0" d="M90.9,133.3c-0.7-0.4-1.3-1.1-1.7-1.8c-0.8-1.7-0.8-3.7,0-5.5c0.4-0.8,1-1.4,1.7-1.8     c0.8-0.4,1.7-0.7,2.6-0.7c0.7,0,1.3,0.1,2,0.3c0.6,0.2,1.1,0.5,1.6,1l-0.5,1.2c-0.4-0.4-0.9-0.7-1.5-0.9     c-0.5-0.2-0.9-0.3-1.4-0.3c-0.9-0.1-1.8,0.3-2.4,1c-0.6,0.8-0.9,1.8-0.9,2.9c-0.1,1,0.2,2,0.9,2.8c0.6,0.7,1.5,1.1,2.4,1     c0.5,0,1-0.1,1.4-0.3c0.5-0.2,1-0.5,1.5-0.9l0.5,1.2c-0.5,0.4-1,0.8-1.6,0.9c-0.6,0.2-1.3,0.4-2,0.4     C92.6,133.9,91.7,133.7,90.9,133.3"></path>			<path id="Path_199" class="st0" d="M108.2,128.7h-7.4c-0.1,1,0.2,2.1,0.9,2.9c0.7,0.7,1.6,1,2.5,1c1.2,0,2.3-0.4,3.2-1.2l0.5,1.2     c-0.5,0.4-1.1,0.8-1.7,1c-0.7,0.2-1.4,0.4-2.1,0.4c-1.4,0.1-2.7-0.4-3.7-1.4c-0.9-1-1.4-2.4-1.3-3.8c0-0.9,0.2-1.9,0.6-2.7     c0.4-0.8,0.9-1.4,1.7-1.8c0.7-0.4,1.6-0.7,2.5-0.7c1.2-0.1,2.3,0.4,3.1,1.3c0.8,1,1.2,2.3,1.1,3.6V128.7L108.2,128.7z      M101.9,125.5c-0.6,0.6-0.9,1.3-1,2.1h5.9c0-0.8-0.3-1.6-0.8-2.2c-0.5-0.5-1.2-0.8-2-0.7C103.2,124.7,102.4,125,101.9,125.5"></path>			<path id="Path_200" class="st0" d="M110.6,132.6l0.5-1.2c0.5,0.4,1.1,0.7,1.7,0.9c0.6,0.2,1.2,0.3,1.9,0.3c0.6,0,1.2-0.1,1.7-0.4     c0.4-0.2,0.6-0.7,0.6-1.1c0-0.4-0.1-0.7-0.4-1c-0.4-0.3-0.8-0.5-1.3-0.6l-1.7-0.4c-0.7-0.1-1.4-0.5-1.9-1     c-0.4-0.5-0.7-1.1-0.7-1.7c0-0.8,0.4-1.7,1.1-2.2c0.8-0.6,1.8-0.9,2.8-0.8c0.7,0,1.4,0.1,2,0.3c0.6,0.2,1.1,0.5,1.6,1l-0.5,1.2     c-0.8-0.8-1.9-1.2-3-1.2c-0.6,0-1.2,0.1-1.7,0.4c-0.4,0.2-0.6,0.7-0.6,1.2c0,0.4,0.1,0.7,0.4,1c0.3,0.3,0.8,0.5,1.2,0.6l1.7,0.4     c0.8,0.1,1.5,0.5,2.1,1c0.5,0.5,0.7,1.1,0.7,1.8c0,0.8-0.4,1.6-1.1,2.1c-0.8,0.6-1.9,0.8-2.9,0.8     C113.2,134,111.7,133.5,110.6,132.6"></path>			<path id="Path_201" class="st0" d="M136.4,123.7v10.1h-1.6v-1.8c-0.3,0.6-0.8,1.1-1.3,1.4c-0.6,0.4-1.4,0.5-2.1,0.5     c-0.8,0-1.6-0.2-2.4-0.6c-0.7-0.4-1.2-1.1-1.6-1.8c-0.7-1.8-0.7-3.7,0-5.5c0.3-0.8,0.9-1.4,1.6-1.8c0.7-0.4,1.5-0.7,2.3-0.7     c0.7,0,1.4,0.2,2.1,0.5c0.6,0.3,1.1,0.8,1.3,1.5v-1.7L136.4,123.7L136.4,123.7z M134,131.6c1.1-1.8,1.1-4,0-5.7     c-0.6-0.7-1.4-1.1-2.3-1c-0.9,0-1.8,0.3-2.3,1c-0.6,0.8-0.9,1.8-0.8,2.9c-0.1,1,0.2,2,0.8,2.8c0.6,0.7,1.4,1.1,2.3,1     C132.6,132.6,133.4,132.2,134,131.6"></path>			<path id="Path_202" class="st0" d="M141.8,133.3c-0.7-0.4-1.3-1.1-1.7-1.8c-0.8-1.7-0.8-3.7,0-5.5c0.4-0.8,1-1.4,1.7-1.8     c0.8-0.4,1.7-0.7,2.6-0.7c0.7,0,1.3,0.1,2,0.3c0.6,0.2,1.1,0.5,1.6,1l-0.5,1.2c-0.4-0.4-0.9-0.7-1.5-0.9     c-0.5-0.2-0.9-0.3-1.4-0.3c-0.9-0.1-1.8,0.3-2.4,1c-0.6,0.8-0.9,1.8-0.9,2.9c-0.1,1,0.2,2,0.9,2.8c0.6,0.7,1.5,1.1,2.4,1     c0.5,0,1-0.1,1.4-0.3c0.5-0.2,1-0.5,1.5-0.9l0.5,1.2c-0.5,0.4-1,0.8-1.6,0.9c-0.6,0.2-1.3,0.4-2,0.4     C143.4,133.9,142.5,133.7,141.8,133.3"></path>			<path id="Path_203" class="st0" d="M159.6,123.7c-0.1,0.9-0.2,1.9-0.2,2.8v11.6h-1.6V132c-0.3,0.6-0.7,1.1-1.3,1.4     c-0.6,0.3-1.3,0.5-2.1,0.5c-0.8,0-1.6-0.2-2.4-0.6c-0.7-0.4-1.2-1.1-1.6-1.8c-0.7-1.8-0.7-3.7,0-5.5c0.3-0.8,0.9-1.4,1.6-1.8     c0.7-0.4,1.5-0.7,2.3-0.7c0.7,0,1.5,0.2,2.1,0.6c0.6,0.4,1.1,0.9,1.3,1.6l0.2-1.9L159.6,123.7L159.6,123.7z M157,131.6     c1.1-1.8,1.1-4,0-5.7c-0.6-0.7-1.4-1.1-2.3-1c-0.9,0-1.8,0.3-2.3,1c-0.6,0.8-0.9,1.8-0.8,2.9c-0.1,1,0.2,2,0.8,2.8     c0.6,0.7,1.4,1.1,2.3,1C155.6,132.6,156.5,132.2,157,131.6"></path>			<path id="Path_204" class="st0" d="M171.6,123.7v10.1H170V132c-0.3,0.6-0.8,1.1-1.3,1.4c-0.6,0.3-1.3,0.5-1.9,0.5     c-1,0.1-2-0.3-2.7-1c-0.7-0.8-1-1.9-0.9-3v-6.2h1.6v6.2c-0.1,0.7,0.1,1.4,0.6,2c0.4,0.5,1.1,0.7,1.7,0.6c0.8,0,1.6-0.3,2.2-0.9     c0.6-0.6,0.9-1.4,0.8-2.3v-5.7H171.6z"></path>			<path id="Path_205" class="st0" d="M175.1,119.4h2v1.8h-2V119.4z M175.3,123.7h1.6v10.1h-1.6     C175.3,133.8,175.3,123.7,175.3,123.7z"></path>			<path id="Path_206" class="st0" d="M180,132.6l0.5-1.2c0.5,0.4,1.1,0.7,1.7,0.9c0.6,0.2,1.2,0.3,1.9,0.3c0.6,0,1.2-0.1,1.7-0.4     c0.4-0.2,0.6-0.7,0.6-1.1c0-0.4-0.1-0.7-0.4-1c-0.4-0.3-0.8-0.5-1.3-0.6l-1.7-0.4c-0.7-0.1-1.4-0.5-1.9-1     c-0.4-0.5-0.7-1.1-0.7-1.7c0-0.8,0.4-1.7,1.1-2.2c0.8-0.6,1.8-0.9,2.8-0.8c0.7,0,1.4,0.1,2,0.3c0.6,0.2,1.1,0.5,1.6,1l-0.5,1.2     c-0.8-0.8-1.9-1.2-3-1.2c-0.6,0-1.2,0.1-1.7,0.4c-0.4,0.2-0.6,0.7-0.6,1.2c0,0.4,0.1,0.7,0.4,1c0.3,0.3,0.8,0.5,1.2,0.6l1.7,0.4     c0.8,0.1,1.5,0.5,2.1,1c0.5,0.5,0.7,1.1,0.7,1.8c0,0.8-0.4,1.6-1.1,2.1c-0.9,0.6-1.9,0.8-2.9,0.8     C182.6,134,181.1,133.5,180,132.6"></path>			<path id="Path_207" class="st0" d="M190.9,119.4h2v1.8h-2V119.4z M191.1,123.7h1.6v10.1h-1.6     C191.1,133.8,191.1,123.7,191.1,123.7z"></path>			<path id="Path_208" class="st0" d="M198.6,125v5.5c-0.1,0.6,0.1,1.1,0.5,1.6c0.4,0.3,0.8,0.5,1.3,0.4c0.4,0,0.7-0.1,1.1-0.2v1.4     c-0.4,0.1-0.9,0.2-1.4,0.2c-0.8,0.1-1.6-0.2-2.2-0.8c-0.6-0.6-0.9-1.5-0.8-2.4V125h-2v-1.3h2v-2.6l1.6-0.6v3.2h2.9v1.3L198.6,125     L198.6,125z"></path>			<path id="Path_209" class="st0" d="M203.9,119.4h2v1.8h-2V119.4z M204,123.7h1.6v10.1H204C204,133.8,204,123.7,204,123.7z"></path>			<path id="Path_210" class="st0" d="M211,133.3c-0.7-0.4-1.3-1.1-1.7-1.8c-0.8-1.8-0.8-3.8,0-5.5c0.4-0.8,0.9-1.4,1.7-1.8     c1.6-0.8,3.4-0.8,5,0c0.7,0.4,1.3,1.1,1.7,1.8c0.8,1.8,0.8,3.8,0,5.5c-0.4,0.8-0.9,1.4-1.7,1.8     C214.5,134.1,212.6,134.1,211,133.3 M215.8,131.6c0.6-0.8,0.9-1.9,0.8-2.9c0.1-1-0.2-2-0.8-2.8c-1.1-1.3-3.1-1.3-4.4-0.2     c-0.1,0.1-0.1,0.1-0.2,0.2c-0.6,0.8-0.9,1.8-0.8,2.8c-0.1,1,0.2,2.1,0.8,2.9c0.6,0.7,1.4,1,2.3,1     C214.4,132.6,215.3,132.3,215.8,131.6"></path>			<path id="Path_211" class="st0" d="M230,127.4v6.3h-1.6v-6.2c0.1-0.7-0.1-1.4-0.6-2.1c-0.5-0.5-1.1-0.7-1.8-0.7     c-0.8,0-1.6,0.3-2.2,0.9c-0.6,0.6-0.9,1.5-0.8,2.3v5.8h-1.6v-7.2c0-0.9-0.1-1.9-0.2-2.8h1.5l0.2,1.8c0.3-0.6,0.8-1.2,1.4-1.5     c0.6-0.4,1.4-0.5,2.1-0.5C228.8,123.5,230,124.8,230,127.4"></path>			<path id="Path_212" class="st0" d="M241.1,133.3c-0.7-0.4-1.3-1.1-1.7-1.8c-0.8-1.8-0.8-3.8,0-5.5c0.4-0.8,0.9-1.4,1.7-1.8     c1.6-0.8,3.4-0.8,5,0c0.7,0.4,1.3,1.1,1.7,1.8c0.8,1.8,0.8,3.8,0,5.5c-0.4,0.8-0.9,1.4-1.7,1.8     C244.6,134.1,242.7,134.1,241.1,133.3 M245.9,131.6c0.6-0.8,0.9-1.9,0.8-2.9c0.1-1-0.2-2-0.8-2.8c-1.1-1.3-3.1-1.3-4.4-0.2     c-0.1,0.1-0.1,0.1-0.2,0.2c-0.6,0.8-0.9,1.8-0.8,2.8c-0.1,1,0.2,2.1,0.8,2.9c0.6,0.7,1.4,1,2.3,1     C244.5,132.6,245.4,132.3,245.9,131.6"></path>			<path id="Path_213" class="st0" d="M254.1,120.8c-0.3,0.4-0.5,1-0.4,1.6v1.3h2.5v1.3h-2.5v8.8H252V125h-2v-1.3h2v-1.5     c-0.1-0.9,0.2-1.7,0.8-2.4c0.6-0.6,1.4-0.9,2.2-0.8c0.5,0,0.9,0.1,1.4,0.2v1.4c-0.3-0.1-0.7-0.2-1-0.2     C254.9,120.3,254.4,120.5,254.1,120.8"></path>		</g>	</g></g></svg>