<svg xmlns="http://www.w3.org/2000/svg" xmlns:xlink="http://www.w3.org/1999/xlink" id="Layer_2_00000140731857895080230310000009024928972510332845_" x="0px" y="0px" viewBox="0 0 374.5 170.2" style="enable-background:new 0 0 374.5 170.2;" xml:space="preserve"><style type="text/css">	.st0{fill:#0F2C52;}	.st1{fill:#F2672A;}	.st2{fill:#C5A901;}</style><g id="Group_713">	<path id="Path_501" class="st0" d="M97.9,78.1c-1.8,0-3.2-1.4-3.3-3.2V11.4c0.1-2.4-1.7-4.5-4.2-4.7c0,0-0.1,0-0.1,0H73.9   c-1.8-0.2-3.1-1.7-3.1-3.4c0-1.7,1.4-3.2,3.1-3.3h47.5c1.8,0,3.2,1.4,3.2,3.2c0,0,0,0.1,0,0.1c0.1,1.8-1.3,3.3-3.1,3.4   c0,0-0.1,0-0.1,0H101v68.1C100.9,76.6,99.6,77.9,97.9,78.1"></path>	<path id="Path_502" class="st0" d="M4,170.2c-1.8,0-3.2-1.4-3.2-3.2V95.4c0.1-1.8,1.5-3.2,3.2-3.2h40.7c1.8,0.1,3.2,1.5,3.2,3.2   c0,1.8-1.4,3.3-3.2,3.4H12.2c-2.2,0-4.9,1.4-4.9,5.3v19.2h33.5c1.9,0,3.3,1.6,3.3,3.4c0,1.8-1.5,3.3-3.3,3.3H7.3V167   C7.3,168.8,5.8,170.2,4,170.2"></path>	<path id="Path_503" class="st0" d="M123.1,164.9L104.4,136c-0.8-1.5-1.3-3.2-1.2-5c0-2.1,0.6-4.2,1.7-5.9L123.2,97   c0.9-1.4,0.5-3.3-0.8-4.4c-1.4-1.1-3.5-0.8-4.6,0.6c-0.1,0.1-0.2,0.3-0.3,0.5L97.2,125L77,93.7c-0.9-1.6-2.9-2.2-4.5-1.3   c-0.1,0.1-0.2,0.1-0.3,0.2c-1.4,1-1.8,3-0.9,4.5l22,33.9l-22,33.9c-1,1.5-0.6,3.6,0.8,4.7c1.6,0.9,3.6,0.4,4.6-1.1L97.2,137   l20.5,31.5c1,1.5,3,1.9,4.6,1.1C124,168.4,123.8,166.2,123.1,164.9"></path>	<path id="Path_504" class="st0" d="M64,78.1c-1.3,0-2.4-0.8-2.9-2l-24-56.8c-0.6-1.1-1.8-1.9-3-2c-1.6,0.2-3,1.2-3.5,2.7L7.1,76.2   c0,0-1.1,2.6-4.3,1.6c-1.9-0.6-2.2-2.9-1.8-4.1L31.2,2.1c0.5-1.3,1.7-2.1,3-2c1.4,0.1,2.6,0.9,3.1,2.2l29.9,71.4   c0.3,0.8,0.3,1.7,0,2.5c-0.3,0.7-0.9,1.3-1.6,1.6C65,78,64.5,78.1,64,78.1"></path>	<path id="Path_505" class="st1" d="M3.4,53.5c-2-0.1-3.5-1.8-3.4-3.8c0.1-1.9,1.6-3.4,3.4-3.4h45l3,7.2L3.4,53.5L3.4,53.5z"></path>	<path id="Path_506" class="st2" d="M182.6,107.4c0,1.4-0.3,1.6-1.4,1.7l-8.6,0.4l0-0.9c-0.1-1.9,0.2-2.3,2-2.8l0-0.4l-2.9,0.2   l0.5,9.6l2.9,0l0-0.4c-1.9-0.3-2.2-0.7-2.3-2.6l0-0.9l8.5-0.4c1.2-0.1,1.6,0,1.8,1.5l0.3,0l-0.2-4.9L182.6,107.4L182.6,107.4z"></path>	<path id="Path_507" class="st2" d="M181.9,92.1l-7.5-0.7c-1.2-0.1-1.4-0.3-1.4-1.6l-0.3,0l-0.5,4.7l0.3,0c0.2-1.2,0.4-1.5,1.7-1.3   l3.3,0.3l-0.5,5.1l-3.3-0.3c-1.2-0.1-1.4-0.3-1.4-1.6l-0.3,0l-0.5,4.7l0.3,0c0.2-1.2,0.4-1.5,1.7-1.3l7.3,0.7   c1.3,0.1,1.6,0.2,1.6,1.7l0.3,0l0.5-4.7l-0.3,0c-0.2,1.3-0.6,1.4-1.7,1.3l-3.5-0.3l0.5-5.1l3.3,0.3c1.3,0.1,1.6,0.2,1.6,1.7l0.3,0   l0.5-4.7l-0.3,0C183.4,92.1,183.1,92.2,181.9,92.1"></path>	<path id="Path_508" class="st2" d="M183.9,78.4c1.5,1.1,1.8,2.1,1.2,4.1c-0.6,2.4-0.6,2.4-1.3,2.3l-4.1-1l0.7-2.5   c0.4-1.4,0.6-1.6,2-1.4l0.1-0.4l-3.8-1l-0.1,0.4c1.1,0.5,1.5,0.7,1.1,2.2l-0.6,2.5l-3.6-0.9c-0.6-0.1-0.5-0.3-0.4-0.7l0.6-2.2   c0.5-1.8,0.8-2.2,2.4-2.1l0.1-0.4l-2.4-0.5l-2.2,8.7l0.3,0.1c0.3-1,0.5-1.4,1.8-1.1l7.3,1.8c1.3,0.3,1.3,0.7,1.1,1.8l0.3,0.1   l2.2-8.9l-2.6-1.4L183.9,78.4z"></path>	<path id="Path_509" class="st2" d="M189.9,57.7c-3.4-1.7-6.2-0.1-8.1,3.5l-2.1,4.1l0.3,0.1c0.7-1.1,0.9-1.2,2-0.7l6.7,3.4   c1.1,0.5,1.2,0.8,0.7,2l0.3,0.1L192,66C194.3,61.4,191.9,58.7,189.9,57.7 M191.2,66.3c-0.4,0.7-0.6,0.9-1.1,0.6l-7.7-3.9   c-0.3-0.2-0.6-0.3-0.2-1c1-1.9,1.8-2.5,2.8-3c1.4-0.5,2.9-0.4,4.1,0.3C193.5,61.6,191.7,65.3,191.2,66.3"></path>	<path id="Path_510" class="st2" d="M198.8,47l-3.6-2.6c-1.4-1-1.5-1.4-0.8-2.6l-0.3-0.2l-2.3,3.2l0.3,0.2c0.8-0.9,1.2-1.1,2.7,0   l3.7,2.7c0.7,0.4,1.3,1,1.6,1.7c0.4,1,0.2,2.2-0.5,3c-1.7,2.4-3.6,1-4.5,0.4l-4.4-3.2c-1-0.7-1-1-0.3-2.1l-0.3-0.2l-2.8,3.9   l0.3,0.2c0.8-1,1.1-1.1,2.1-0.3l4.3,3.1c0.8,0.6,3.5,2.5,6-0.9C202.5,49.6,199.9,47.8,198.8,47"></path>	<path id="Path_511" class="st2" d="M209.9,38l-5.8-0.2v-4.5c0-1.7,0.2-2,0.9-2.8l-0.2-0.2l-3.1,3.1l0.2,0.2   c0.6-0.6,0.9-0.8,1.2-0.5c0.4,0.4,0.4,1.1,0.1,6.2l-2.5-2.4c-0.9-0.9-0.9-1.2,0-2.2l-0.2-0.2l-3.4,3.4l0.2,0.2   c0.9-0.8,1.2-0.9,2.2,0l5.2,5.2c1,1,1,1.3,0.1,2.3l0.2,0.2l3.4-3.4l-0.2-0.2c-1,0.9-1.3,0.8-2.2,0l-2.2-2.2l0.1-0.6l2.5,0   c0.8,0,3.2,0.1,3.6,0.4c0.3,0.3,0.1,0.5-0.5,1.1l0.2,0.2l3.6-3.7l-0.2-0.2C212.5,38.1,211.6,38.1,209.9,38"></path>	<path id="Path_512" class="st2" d="M220.9,28.3c0.4,1.8,0.1,2.7-1.6,4c-2,1.5-2,1.5-2.4,0.9l-2.5-3.4l2.1-1.5   c1.1-0.8,1.5-0.8,2.5,0.2l0.3-0.2l-2.4-3.1l-0.3,0.2c0.6,1.1,0.7,1.5-0.5,2.4l-2.1,1.6l-2.3-3c-0.4-0.5-0.2-0.6,0.1-0.8l1.8-1.4   c1.5-1.1,2-1.2,3.1-0.1l0.3-0.2l-1.5-1.9l-7.2,5.4l0.2,0.3c0.9-0.6,1.3-0.7,2.1,0.3l4.5,6c0.8,1,0.6,1.4-0.3,2.1l0.2,0.3l7.3-5.5   l-1.1-2.8L220.9,28.3L220.9,28.3z"></path>	<path id="Path_513" class="st2" d="M236,23.5c2.8-1.2,4-4.4,2.9-7.2c-0.1-0.1-0.1-0.3-0.2-0.4c-1.1-2.9-4.4-4.3-7.2-3.1   c-2.9,1.1-4.3,4.3-3.1,7.2c0.1,0.2,0.1,0.3,0.2,0.5c1.1,2.8,4.2,4.3,7,3.2C235.7,23.6,235.9,23.6,236,23.5 M230.3,19.7   c-1.6-3.5-0.4-5.6,1.1-6.3s3.9-0.2,5.4,3.3c1.5,3.4,0.6,5.5-1.1,6.3S231.8,23.1,230.3,19.7"></path>	<path id="Path_514" class="st2" d="M242.4,10.7l2,7.1c0.4,1.3,0.3,1.6-0.9,2l0.1,0.3l4.6-1.3l-0.1-0.3c-1.2,0.3-1.6,0.2-1.9-1   l-1-3.6l2.4-0.6c1.2-0.3,1.7-0.3,2.2,1l0.4-0.1l-1.1-3.8l-0.4,0.1c0.2,1.3,0,1.7-1.3,2.1l-2.4,0.7l-1.1-3.6   c-0.1-0.5-0.1-0.6,0.4-0.7l2.2-0.6c1.8-0.5,2.3-0.4,3,1l0.4-0.1l-0.7-2.3l-8.6,2.5l0.1,0.3C241.7,9.4,242.1,9.4,242.4,10.7"></path>	<path id="Path_515" class="st2" d="M261.6,6.5l0.6,7.5c0.1,1.3-0.3,1.5-1.4,1.6l0,0.3l9.1-0.7l0.5-2.9l-0.5,0   c-0.6,1.8-1.4,2.3-3.5,2.5c-2.5,0.2-2.5,0.2-2.6-0.5l-0.3-4.2l2.6-0.2c1.4-0.1,1.7,0.1,2,1.5l0.4,0l-0.3-3.9l-0.4,0   c-0.1,1.2-0.2,1.6-1.7,1.8l-2.6,0.2l-0.3-3.8c0-0.6,0.2-0.6,0.5-0.6l2.3-0.2c1.9-0.2,2.3,0.1,2.7,1.6l0.4,0L269,4.1l-9,0.7l0,0.3   C261.1,5.2,261.5,5.2,261.6,6.5"></path>	<path id="Path_516" class="st2" d="M285,10.3c0.2-3.8-2.3-5.8-6.4-6.1l-4.6-0.3l0,0.3c1.3,0.2,1.5,0.4,1.4,1.6l-0.5,7.5   c-0.1,1.2-0.3,1.4-1.6,1.4l0,0.3l4.8,0.3C283.3,15.8,284.9,12.6,285,10.3 M276.6,14l0.6-8.6c0-0.3,0-0.7,0.8-0.6   c2.1,0.1,3,0.7,3.8,1.4c1,1.1,1.5,2.5,1.3,3.9c-0.3,4.9-4.5,4.6-5.6,4.6C276.8,14.7,276.6,14.6,276.6,14"></path>	<path id="Path_517" class="st2" d="M292.6,17.1c-1.2-0.3-1.6-0.5-1.4-1.8l1.4-7.4c0.2-1.3,0.7-1.4,1.9-1.2l0.1-0.3l-5-0.9l-0.1,0.3   c1.4,0.3,1.6,0.6,1.3,1.8l-1.4,7.4c-0.2,1.2-0.5,1.4-1.9,1.2l-0.1,0.3l5,0.9C292.5,17.4,292.6,17.1,292.6,17.1z"></path>	<path id="Path_518" class="st2" d="M298.9,18.7c-1.2-0.4-1.4-0.9-0.9-2.5l2-6.3h0l4.3,11.1l0.3,0.1l2.7-8.5   c0.6-1.9,1.1-1.8,2.2-1.6l0.1-0.3l-3.8-1.2l-0.1,0.3c1.1,0.4,1.5,0.7,0.9,2.6l-1.7,5.4h0L301.2,8l-2.8-0.9l-0.1,0.3   c0.6,0.2,0.9,0.4,1.3,1.4l-2.3,7.1c-0.6,1.7-1,1.9-2.2,1.6l-0.1,0.3l3.8,1.2L298.9,18.7L298.9,18.7z"></path>	<path id="Path_519" class="st2" d="M317.9,14.5l-4.2-2.1l-0.1,0.3c1.2,0.7,1.3,1,0.8,2.1l-3.4,6.7c-0.5,1.1-0.9,1.2-2.1,0.6   l-0.1,0.3l5.1,2.5c3.4,1.7,4.7-0.2,5-0.8c0.8-1.6,0-2.9-1.2-3.9l0,0c1.2,0.5,2.5,0,3.1-1.2C321.8,16.7,319.2,15.2,317.9,14.5    M317,23.2c-1,2-2.9,1.2-3.9,0.8c-0.9-0.4-1.1-0.6-0.8-1.2l1.9-3.8c0.9,0.4,1.6,0.9,2.3,1.5C317.3,21.1,317.5,22.3,317,23.2    M319,18.4c-0.9,1.8-2.7,0.9-3.1,0.7l-1.5-0.7l1.8-3.5c0.1-0.2,0.2-0.4,0.5-0.3c0.1,0.1,0.4,0.2,0.7,0.3   C318.4,15.5,319.9,16.6,319,18.4"></path>	<path id="Path_520" class="st2" d="M336.2,26.3l0.2-0.3l-3.2-2.3L333,24c0.9,0.7,1.1,1.2,0,2.7l-2.6,3.7c-0.4,0.7-1,1.3-1.6,1.7   c-1,0.4-2.2,0.2-3-0.5c-2.4-1.7-1-3.6-0.4-4.5l3.1-4.4c0.7-1,1-1,2.1-0.4l0.2-0.3l-3.9-2.8l-0.2,0.3c1,0.8,1.1,1.1,0.4,2.1   l-3.1,4.3c-0.6,0.8-2.5,3.5,0.9,6c3.6,2.5,5.4-0.1,6.2-1.2l2.6-3.6C334.6,25.7,335,25.7,336.2,26.3"></path>	<path id="Path_521" class="st2" d="M339.9,37.2c0.7,0.5,2.6,1.7,4.2,0.1c1.8-1.9,0-4.1-1-5.1l-3.4-3.2l-0.2,0.2   c0.8,0.9,0.9,1.2,0,2.1l-5.1,5.3c-0.9,0.9-1.2,1.1-2.2,0.2l-0.2,0.2l3.4,3.3l0.2-0.2c-0.9-1-0.8-1.3,0-2.2l2.3-2.4l0.7,0.6   l-0.7,6.6l2,1.9l0.2-0.2c-0.4-0.4-0.6-1-0.5-1.6L339.9,37.2L339.9,37.2z M338.2,35l2.9-3c0.3-0.4,0.5-0.3,1.2,0.3   c0.5,0.5,2.1,2.1,0.5,3.7C341.1,37.7,339.2,35.9,338.2,35"></path>	<path id="Path_522" class="st2" d="M353,52.2l0.2-0.2l-2.6-3.4l-0.2,0.2c0.6,1,0.8,1.2-0.3,2.1l-2.2,1.7c-0.5,0.4-1.5-0.3-2.2-1.2   c-1.6-2.1-1.1-4.7,1.3-6.5c3.4-2.6,5.8-1.3,6.8,0c1.1,1.4,1,3.3-0.1,4.7l0.2,0.3l2.8-2.3l-0.2-0.3c-0.3,0.1-0.7,0-0.9-0.3   c-0.4-1-0.8-1.9-1.4-2.8c-1.8-2.5-5.4-3.1-7.9-1.3c0,0-0.1,0-0.1,0.1c-1.3,0.8-2.2,2.1-2.5,3.7c-0.2,1.8,0.3,3.5,1.4,4.9   c1.1,1.5,3.3,2.7,3.5,2.5l2.7-2.1C352.2,51.3,352.5,51.7,353,52.2"></path>	<path id="Path_523" class="st2" d="M356.2,65.9l6.6-3.5c1.1-0.6,1.4-0.5,2,0.6l0.3-0.2l-2.2-4.2l-0.3,0.2c0.5,1.2,0.5,1.4-0.6,2   l-2.9,1.5l-2.4-4.5l2.9-1.5c1.1-0.6,1.4-0.5,2,0.6l0.3-0.2l-2.2-4.2l-0.3,0.2c0.5,1.2,0.5,1.4-0.6,2l-6.5,3.5   c-1.1,0.6-1.5,0.7-2.2-0.5l-0.3,0.2l2.2,4.2l0.3-0.2c-0.5-1.2-0.4-1.5,0.6-2l3.1-1.7l2.4,4.5l-2.9,1.6c-1.1,0.6-1.5,0.7-2.2-0.5   l-0.3,0.2l2.2,4.1l0.3-0.2C355.1,66.7,355.3,66.4,356.2,65.9"></path>	<path id="Path_524" class="st2" d="M363.4,85.6c-1.3-0.7-2.3-1.8-2.7-3.2c-0.6-2.1,0.3-4.4,3.8-5.3c2.4-0.7,3.6-0.2,4.4,0.2   c1.8,1.1,2.3,3.4,1.3,5.1c-0.4,0.6-1,1.2-1.6,1.5l0.1,0.4l3.6-1.2l-0.1-0.3c-0.4,0-0.7-0.2-0.7-0.6c0-1,0-2-0.2-3   c-0.7-3-3.8-4.8-6.8-4.1c-0.1,0-0.2,0.1-0.4,0.1c-4.1,1.1-4.9,4.4-4.1,7c0.4,1.7,1.6,3.2,3.3,3.9L363.4,85.6L363.4,85.6z"></path>	<path id="Path_525" class="st2" d="M367.4,98.8l4.4-0.5c1.8-0.2,2,0.1,2.3,1.3l0.3,0l-0.5-3.9l-0.3,0c0.1,1.2-0.2,1.6-2,1.8   l-4.5,0.5c-0.8,0.2-1.6,0.1-2.3-0.1c-1-0.5-1.6-1.5-1.6-2.6c-0.3-2.9,2-3.2,3.1-3.3l5.4-0.6c1.2-0.1,1.4,0,1.7,1.4l0.3,0l-0.5-4.8   l-0.3,0c0.1,1.3-0.1,1.6-1.3,1.7l-5.2,0.6c-1,0.1-4.3,0.5-3.8,4.7C362.9,99.3,366,99,367.4,98.8"></path>	<path id="Path_526" class="st2" d="M374.2,103.8c-0.1,1.2-0.4,1.4-1.6,1.4l-7.3-0.2c-1.2,0-1.6,0-1.7-1.5h-0.3l-0.1,4.7h0.3   c0.1-1.3,0.3-1.6,1.6-1.5l3.1,0.1c0,0.4-0.1,0.7-0.1,1.1c0,1.8,0.2,2.9,0.9,3.6c0.5,0.7,1.4,1.1,2.3,1.1c2.1,0.1,3.1-2,3.2-4.3   l0.1-4.5L374.2,103.8L374.2,103.8z M371.2,110.8c-2.6-0.1-2.5-2.3-2.5-3c0-0.3,0-0.7,0.1-1l4.4,0.1c0.6,0,0.6,0.2,0.6,0.7   C373.8,108.4,373.7,110.9,371.2,110.8"></path>	<path id="Path_527" class="st2" d="M248,59.8c-1.4,0.9-3.2,1.1-4.2,2.3c1.6,3.5,4.6,6.3,4.2,10.5c2.8,2,0.3,6.6,3.7,7.9   c12.9,3.7,28.9,3.1,42.1,0.5c5.4-0.6,1-6,4.6-8.1c-0.7-4.1,2.8-6.5,4-9.8c1.2-2-2.8-2.6-3.8-3l-0.5,4.2c-1.2,0-2-1.7-3-1.4   l-1.4,3.7c1.2-0.1,2.4,0.1,3.5,0.7c0.1,0.4-0.3,0.5-0.5,0.7c-2.2,1.5-5,1.6-7.5,0.5c-0.8-0.8-2.6-1.4-2.1-3c0.4-0.6,1-1.6,1.9-1.3   c1.1,0,1.3,1.3,1.8,1.8c0.9-0.4,1.6-1.3,1.6-2.3c-0.2-1.8-2.2-2.2-3.8-2.3l0.7-3.3c-0.6-0.7-0.4-2.3-1.8-2c-2,0.9-1.7,3.2-2,5   l-3.3-0.2c-1.4,0.5-1.4,2.3-1,3.5c0.8,0.5,1.4-0.8,2.3-0.7c0.8,0.2,1.3,1,1.2,1.8c-1.5,2.5-5,1.9-7.4,1.4c-1.5-0.5-2.5-2.1-2.3-3.7   c1.2-1.5,3.1-0.1,4.4-0.5l-0.2-5.5c-1.3,0.1-2.6,1-3.8,0.7c0.1-1.5,1.3-3,1-4.2c-2.3-0.8-4.5,0.3-7,0l1.4,3.9   c-1.1,0.9-2.7-0.6-3.9-0.4v5.8l2.7-0.5c1,0,1.9,0.7,1.6,1.8c-1.4,2.7-4.4,3.4-7.5,3c-1.3-0.2-3.1-1.7-2-3.2c1.1-1.5,2,0.9,3.2,0   c0.5-1.1,0.3-2.4-0.7-3.1c-1.1-1-2.5,0-3.7,0l-0.3-3.2c-0.2-1.2-1.3-2-2.5-1.8c-1.4,1.5-0.9,4-0.7,5.5h-1.4   c-1.1,0.4-2.2,1.4-1.9,2.8c0.4,0.7,1.1,1.5,1.9,1.6v-0.7c0.7-0.5,1-1.5,1.8-1.2c1,0.4,1.6,1.3,1.6,2.3c-1.4,2.6-4.4,2.5-7,2.7   c-1.1-0.6-2.8-0.4-3-2l3.5-0.7c-0.5-1.3-1.1-2.5-1.6-3.8l-2.8,1.6C248.1,62.8,248,61.3,248,59.8 M294.3,71.3c1-0.4,3-2.2,3.5-0.2   c-0.3,1.1-0.3,3.3-1.6,2.7C295.4,73,294.1,72.4,294.3,71.3 M292.8,79.9c-0.8,0.8-1.9,1.1-3,1c-1-4.2-6.5-2.5-10-3.3   c-7.4-0.4-15.2-0.4-22.1,1c-1,0.4-0.4,1.4-0.9,2c-1.3,0.6-2.8,0.1-3.5-1.2c0.5-2.4,3.4-1.8,5.1-2.8c11-1.6,23.6-1.2,33.9,1.7   C293.1,78.5,292.7,79.3,292.8,79.9 M283.7,68c1.9-0.1,3.6,0.1,4.6,1.7c0.1,1.1-0.6,2-1.7,2.1c-0.1,0-0.2,0-0.4,0   c-1.3-0.2-2.9-0.4-3.5-1.8C282.8,69,282.9,68.3,283.7,68 M272.6,67.1c1.5-0.3,2.3,0.9,3.5,1.3c-0.2,1.4-1.7,1.4-2.5,2.3   c-1.5,0.1-2.1-1.2-3.3-1.8C270.5,67.9,271.9,68,272.6,67.1 M261,67.8c1.3-0.1,2.4-0.1,3.3,1c0.5,1.6-1.5,2.3-2.6,2.7   c-1.2,0.1-2.3,0.1-3-0.9C258.4,69,259.7,68.2,261,67.8 M255,74.7c11.4-3,26.2-3.6,37.3,0.5l0.7,0.7v0.7   c-11.6-2.1-25.6-2.9-37.6-0.2c-0.7,0.1-1.4,0.9-2,0.2C253.2,75.7,254.2,74.8,255,74.7 M249.2,70.1c1.2-0.1,2.3,0.3,3.2,1.2   c-0.3,1.1-1.1,2-2,2.5c-1.1,0.2-1.2-1.2-1.4-2C248.9,71.7,249.2,70.1,249.2,70.1z"></path>	<path id="Path_528" class="st2" d="M300,93.7c-4.3-1.8-9.3-3.3-14.2-2.1c4,1.3,8.2,2,11.4,4.6c-6.6,7.6-10.6,16.1-14.9,24.7   c-4.1-2.2-6.2-6.6-9.1-9.8c-2.2,3.6-5,6.9-8.1,9.8h-0.7c-4.5-8.5-8.2-17.3-14.9-24.8c3.4-2.4,7.6-3.2,11.4-4.4   c-4.2-0.7-10.2,0.2-14.6,1.9c-4.2-3.6-10.5-4.6-15.9-3.1c4.7,0.3,9.4,1.7,12.1,5.6c-3.2,2.4-5.9,5.4-8.1,8.8   c-3.1,5.4-5,13.2-1.8,19c3,5.3,8.7,9.2,15.1,8.8c5,0.5,9-2.6,13.3-3.2c1.9,4.9,4.2,9.5,7,13.9c3.8,2.6-0.8,5.4-2,7.6   c-6.8,8.6-17.2,14.2-27.7,10.7c1.6,1.4,3.5,2.4,5.5,3.2c12.2,3.1,21.8-5.6,29.8-13.4c5.7,6.5,12.5,12.1,20.4,13.9   c5.3,1,11-0.3,14.2-3.7l-5.4,0.9c-11,0.6-20.6-7.5-25.5-16.9c3.4-5.2,6.4-10.8,8.8-16.5c5.2,2.2,10.9,4.6,17,3.3   c5.2-0.9,9.4-5,11.6-9.8c3.7-10.6-2.6-20.3-10.5-27.2c3.3-3.2,7.7-5,12.3-5.1C310.8,88.8,304.7,90.1,300,93.7 M241.4,124.6   c-4.1-3.3-5.5-8.7-4.1-13.9c1.2-4.8,4.1-8.6,8.1-11.8c6.5,7.5,9.9,16.8,13.4,25.7C254.1,127.8,246.3,127.8,241.4,124.6    M273.5,139.2c-3.4-4-4.6-9.2-7-13.7c1.1-2.5,3.8-4.1,5.5-6.5l1.2-1.8l7,7.8C278.8,130.1,276.1,134.6,273.5,139.2 M307.2,105.1   c2.5,4.4,4.1,11,1.4,15.9c-2.7,4.7-7.6,6-12.8,6.1c-2.7-0.3-5.4-1.1-7.8-2.3c3.3-9.1,6.8-18.1,13.2-25.8   C303.8,100,305.6,102.9,307.2,105.1"></path></g></svg>