<svg xmlns="http://www.w3.org/2000/svg" xmlns:xlink="http://www.w3.org/1999/xlink" viewBox="0 0 192.31 192.31"><defs><style>      .cls-1 {        fill: #00793d;      }      .cls-2 {        fill: #fff;      }      .cls-3 {        fill: #cd1225;      }      .cls-4 {        fill: url(#linear-gradient);        mix-blend-mode: screen;        opacity: .72;      }      .cls-5 {        isolation: isolate;      }    </style><linearGradient id="linear-gradient" x1="95.7" y1="4.97" x2="95.7" y2="74.1" gradientUnits="userSpaceOnUse"><stop offset="0" stop-color="#fff"></stop><stop offset="1" stop-color="#000"></stop></linearGradient></defs><g class="cls-5"><g id="Layer_2" data-name="Layer 2"><g><g><g><path class="cls-3" d="m96.16,0C55.43,0,20.65,25.33,6.63,61.08h179.05C171.66,25.33,136.88,0,96.16,0Z"></path><path d="m96.16,192.31c41.44,0,76.75-26.21,90.27-62.97H5.89c13.52,36.75,48.83,62.97,90.27,62.97Z"></path><path class="cls-2" d="m5.89,129.35h180.54c3.8-10.34,5.88-21.52,5.88-33.19,0-12.38-2.37-24.2-6.63-35.08H6.63C2.37,71.95,0,83.77,0,96.15c0,11.68,2.08,22.86,5.89,33.19Z"></path></g><g><path class="cls-1" d="m68.87,69.18s1.31,5.59,2.46,6.49c-1.84,0-3.16,1.02-4.31,1.91-1.16.9-16.93,19.58-16.93,19.58h20.48v-6.49l7.85-4.79,7.7,4.92v19.21H26.69s-1.23,7.32-6.93,7.32-5.7-1.92-7.85-3.6c6.47,2.28,8.93.48,9.54-2.4.62-2.88-.15-4.69-2.77-6.73,0,0,3.23-1.43,5.47-4.26,2.23,2.35,2.23,5.22,2.23,5.22h6.31s-.16-1.43-1.69-3.72c2.93-1.2,5.39-4.92,6.62-5.88v9.48h43.11v-13.21l-2-1.56-2.77,2.17v9h-35.87l28.79-32.66Z"></path><polygon class="cls-1" points="28.69 116.14 32.77 119.68 37.31 116.5 32.62 112.83 28.69 116.14"></polygon><path class="cls-1" d="m95.51,88.88s-.23-1.98,1.85-3.6l-7.39-5.77v30.63h13.39s-.46-4.09,1.7-5.77l-3.16.89h-6.7l.31-16.38Z"></path><path class="cls-1" d="m154.17,77.35l1.77,1.38v26.35h-4.54l-.62-25.69-7,5.46,1.46,1.14v18.98h-4.31v-18.49l-7.38,5.64s2.3.72,2.3,1.81v3.84s-10.47-.6-10.47,5.05v7.2h36.18v-38.31l-7.39,5.64Zm-18.79,27.98h-4.77s-.77-3.96,4.77-3.96v3.96Z"></path><path class="cls-1" d="m144.16,76.04s5.85,2.64,5.85-2.28c3.31,2.58-.92,5.64-5.39,3.72-2.77,4.09-7.7.24-7.7.24,0,0,5.24,2.04,7.24-1.68Z"></path><path class="cls-1" d="m142.78,74.23s-4.31-3.36-2.62-4.69c0,0,2.14.11,2.62,4.69Z"></path><path class="cls-1" d="m165.41,79.51l-.31,30.38h13.7s0-3,1.39-6c-1.54,1.2-2.77,1.2-2.77,1.2h-6.62v-18.49l2.23-1.74-7.62-5.34Z"></path></g></g><path class="cls-4" d="m156.69,39.54c0,19.09-27.3,34.56-60.99,34.56s-61-15.47-61-34.56S62.01,4.97,95.7,4.97s60.99,15.47,60.99,34.57Z"></path></g></g></g></svg>