<svg xmlns="http://www.w3.org/2000/svg" xmlns:xlink="http://www.w3.org/1999/xlink" viewBox="0 0 192.64 192.31"><defs><style>      .cls-1 {        fill: none;      }      .cls-2 {        fill: #fff;      }      .cls-3 {        fill: #009d4a;      }      .cls-4 {        fill: #cd1225;      }      .cls-5 {        fill: url(#linear-gradient);        mix-blend-mode: screen;        opacity: .72;      }      .cls-6 {        isolation: isolate;      }    </style><linearGradient id="linear-gradient" x1="96.84" y1="3.36" x2="96.84" y2="72.5" gradientUnits="userSpaceOnUse"><stop offset="0" stop-color="#fff"></stop><stop offset="1" stop-color="#000"></stop></linearGradient></defs><g class="cls-6"><g id="Layer_2" data-name="Layer 2"><g><g><g><path class="cls-1" d="m96.49,0c-1.71,0-3.39.05-5.08.14h10.16c-1.68-.08-3.37-.14-5.08-.14Z"></path><path class="cls-3" d="m5.78,64.24h181.41C174.56,28.35,141.26,2.2,101.56.14h-10.16C51.71,2.2,18.41,28.35,5.78,64.24Z"></path><path d="m96.49,192.31c40.92,0,75.85-25.58,89.73-61.6H6.75c13.89,36.02,48.81,61.6,89.73,61.6Z"></path><path class="cls-2" d="m.34,96.16c0,12.19,2.28,23.82,6.42,34.55h179.46c4.14-10.73,6.43-22.37,6.43-34.55,0-11.2-1.93-21.94-5.46-31.92H5.78C2.26,74.22.34,84.96.34,96.16Z"></path></g><path class="cls-4" d="m0,96.16c0,43.4,28.75,80.05,68.24,92.02V4.13C28.75,16.1,0,52.77,0,96.16Z"></path></g><path class="cls-5" d="m157.83,37.92c0,19.11-27.31,34.58-61,34.58s-60.99-15.47-60.99-34.58S63.15,3.36,96.84,3.36s61,15.48,61,34.56Z"></path></g></g></g></svg>