<svg xmlns="http://www.w3.org/2000/svg" viewBox="0 0 1000 330"><g fill="#0f2c52"><path d="m391.8 314.8c-7.3 0-12.7-6.5-12.7-12.3v-243.2c0-12.2-9.4-17.9-16.3-17.9h-62.8c-6 0-11.9-6.5-11.9-13.1 0-6.5 5.8-12.7 11.9-12.7h182c7 0 12.3 5.5 12.3 12.7 0 6.4-4.3 13.1-12.3 13.1h-78.3v261.2c0 5.5-5.3 12.2-11.9 12.2"></path><path d="m557.5 314.8c-6.8 0-12.3-5.5-12.3-12.3v-274.3c0-6.6 5.8-12.3 12.3-12.3h156.2c6.6 0 12.3 5.8 12.3 12.3 0 7-5.8 13.1-12.3 13.1h-124.7c-8.6 0-18.9 5.3-18.9 20.2v73.8h128.3c7.9 0 12.7 6.8 12.7 13.1 0 6-5.2 12.7-12.7 12.7h-128.2v141.4c0 6.7-5.8 12.3-12.7 12.3"></path><path d="m982 294.5-71.7-110.5c-2.5-3.9-4.6-10.7-4.6-19.2 0-11.4 4.8-20.2 6.5-22.7l70-107.8c2.2-2.8 3.5-12-3-16.8-5.4-3.9-13.6-3.9-18.7 4.2l-77.7 119.8-77.8-119.8c-2.5-4.3-9.2-9.8-18.2-4.5-5.2 3-7.1 11.8-3.5 17.3l84.5 130-84.4 130.1c-3 4.8-3.3 13.3 3.1 17.9 4.3 3 13.1 2.7 17.6-4.1l78.6-120.9 78.6 120.9c3.7 5.7 12.4 7.6 17.6 4.1 6.5-4.5 5.9-13 3.1-18"></path><path d="m261.9 315c-5.4 0-9.5-3.9-11-7.5l-91.9-218c-3-4.9-7.2-7.6-11.7-7.6-5.3 0-10.3 3.9-13.5 10.3l-90.2 215.5s-4.1 9.8-16.4 6.1c-7.4-2.2-8.6-11.1-6.9-15.7l115.8-274.5c.7-1.5 3-7.7 11.4-7.9 4.2-.1 9.5 3 11.7 8.6l114.5 273.7c.7 1.6 1.8 5.1 0 9.5-1.1 2.7-3.5 5-6.2 6.2s-5 1.3-5.6 1.3"></path></g><path d="m29.8 220.4c-7.6 0-13.8-6.2-13.8-13.8s6.2-13.8 13.8-13.8h172.7l11.7 27.6z" fill="#f2672a"></path></svg>