<svg xmlns="http://www.w3.org/2000/svg" xmlns:xlink="http://www.w3.org/1999/xlink" id="Layer_1" data-name="Layer 1" viewBox="0 0 111.74 30.24"><defs><style> .cls-1 { fill: #00aeef; } .cls-1, .cls-2 { stroke-width: 0px; } .cls-2 { fill: url(#radial-gradient); } </style><radialGradient id="radial-gradient" cx="-1069.21" cy="574.16" fx="-1069.21" fy="574.16" r=".47" gradientTransform="translate(69712.69 37440.27) scale(65.2 -65.2)" gradientUnits="userSpaceOnUse"><stop offset="0" stop-color="#20c4f4"></stop><stop offset=".3" stop-color="#09b4f0"></stop><stop offset=".5" stop-color="#00aeef"></stop><stop offset=".8" stop-color="#0092c8"></stop><stop offset="1" stop-color="#006e98"></stop></radialGradient></defs><path class="cls-1" d="M36.32,21.22h-4.37c.56-.51.72-2.36.92-5.7l.05-.77.21-4.37c0-.87-.1-1.44-.36-1.64h4.88c1.18,0,3.49.05,3.49,2.47,0,1.64-1.5,2.62-2.88,2.98,1.95.15,3.4,1.13,3.4,3.13.05,2.16-2,3.9-5.34,3.9M36.18,15.16h-.87l-.15,1.85-.1,2.31c0,.1.36.36,1.18.36,1.75,0,2.88-.87,2.88-2.31.05-1.59-1.34-2.2-2.93-2.2M36.53,10.24c-.26,0-.56,0-.87.05-.15.87-.21,1.69-.26,2.67l-.05.72h.31c1.59,0,3.03-.57,3.03-2,.05-.82-.67-1.44-2.16-1.44M51.94,21.33c-1.08,0-1.18-.05-2-2.98l-.31-1.08c-.51.26-1.44.36-2.88.36h-1.5l-.26.56c-.26.56-.87,1.75-.87,2.47,0,.19.01.38.05.56h-2.98c.82-.82,1.95-2.83,3.44-6l.87-1.85,1.64-3.85c0-.26-.05-.46-.15-.72h2.72l1.34,4.93.51,1.95c.92,3.34,1.54,4.93,2.26,5.55l-1.9.1M48.02,11.68l-2.06,4.37h3.29l-1.23-4.37M63.74,21.75c-.93,0-1.13-.15-1.44-.56l-3.54-4.83c-.26-.4-.51-.67-.92-.67h-.05l-.05.98-.15,3.08c0,.82.1,1.34.36,1.54h-3.4c.51-.4.67-1.85.98-5.7l.05-.77.21-4.37c0-.87-.1-1.44-.36-1.64h4.57c1.54,0,3.54.26,3.54,2.67,0,2-1.34,3.08-2.98,3.6.22.23.42.47.62.72l2.52,3.34c1.59,2.11,1.69,2.2,2.26,2.47-.73.1-1.46.15-2.2.15M59.22,10.29c-.31,0-.67,0-.98.05-.1.51-.15,1.44-.26,2.93l-.05.87c.15.05.4.05.56.05,1.54,0,2.62-.98,2.62-2.36-.05-.98-.72-1.54-1.9-1.54M70.38,21.47c-3.24,0-5.08-2.67-5.08-5.6,0-4.1,2.26-7.35,6.52-7.35,1.34,0,1.95.26,3.08.26l-.31,3.18c-.62-1.13-1.64-1.85-2.98-1.85-2.67,0-3.75,2.88-3.75,5.34,0,2.67,1.54,4.16,3.49,4.16,1.08,0,2.06-.26,3.65-1.39-.67,1.95-2.16,3.24-4.62,3.24M92.36,21.32c-1.08,0-1.13-.05-2-2.98l-.31-1.08c-.51.26-1.44.36-2.88.36h-1.54l-.26.56c-.4.82-.87,1.8-.87,2.47,0,.15.05.36.05.56h-8.83c.51-.56.67-2.41.93-5.7l.05-.77.21-4.37c0-.82-.1-1.39-.31-1.64h3.44c-.51.36-.67,2.36-.87,5.7l-.05.77-.26,3.7c0,.56.21.72.82.72,2.11,0,2.57-.05,3.54-.67.62-1.08,1.23-2.41,1.9-3.8l.87-1.85,1.64-3.85c0-.26-.05-.46-.15-.72h2.71l1.34,4.93.51,1.95c.93,3.34,1.5,4.93,2.31,5.55-.66.09-1.33.14-2,.15M88.45,11.66l-2,4.37h3.24l-1.23-4.37M100.16,14.48l-.87,1.64c-.21.92-.26,2.16-.26,3.49,0,.56.1,1.34.36,1.59h-3.4c.62-.56.82-4.01.82-5.14-.46-1.54-1.08-3.08-2-4.93-.62-1.13-1.28-2.2-1.75-2.41l2.2-.1c.82,0,1.08.1,1.59,1.23l1.75,4.21,2.2-3.54c.15-.31.36-.72.36-1.08,0-.26-.05-.62-.15-.72h3.34c-.72.15-3.6,4.73-4.21,5.75M111.44,11.65c-.51-.92-1.64-1.64-2.88-1.64-1.08,0-2,.4-2,1.54,0,.98,1.18,1.59,2.41,2.41,1.34.82,2.72,1.85,2.72,3.65,0,2.31-2.26,3.8-4.93,3.8-1.08,0-2.2-.21-3.49-.67l.21-3.08c.62,1.23,1.75,2.2,3.44,2.2,1.28,0,2.31-.62,2.31-1.75,0-.92-.77-1.54-1.75-2.11-2.06-1.23-3.34-2.2-3.34-4.01,0-2.67,2.2-3.54,4.57-3.54,1.34,0,2.2.26,3.03.26l-.31,2.94Z"></path><path class="cls-2" d="M27.01,6.48c-.27-.64-.73-1.37-1.55-1.92-.36-.27-.82-.55-1.28-.73-.36-.1-.73-.18-1.19-.18h-.1c-.55,0-1.55.1-2.1.91-.27.27-.36.82-.27,1.28.1.36.36.73.73.82.08.06.17.1.27.09,0,.1-.1.27-.1.27-.27.27-.73.73-2.1.73h-.1c-.73-.1-1.28-.27-2.1-1.1-.46-.55-.73-1.55-.73-3.1,0-.82-.1-1.46-.27-2-.1-.36-.46-.73-.73-.91s-.46-.27-.91-.46l-1.55-.18c-.55,0-.91.1-1.1.36h-.55c-.27,0-.64.1-.91.1-.55.1-.91.36-1.28.64-.1.1-.46.46-.55.82,0,.27.1.55.1.64l.1.1c.18-.18.55-.27,1-.27.64,0,1.55.27,1.74.73.46.73.27,1.28.27,1.92-.27,1.74-.91,2.56-2.28,2.74-.27.1-.55.1-.73.1-1,0-1.73-.27-2.1-.91v-.18s.1,0,.18-.1c.36-.18.64-.46.73-.82.1-.46,0-.91-.27-1.28-.55-.55-1.28-.91-2.1-.91-.55,0-.91.1-1.28.18-1.1.27-2.1,1.19-2.83,2.65-.55,1.1-.91,2.37-1,3.83S-.03,12.98.07,14.08c.1,1.83.46,2.92.91,4.1s1,2.28,1.64,3.29c.18.27.27.55.46.73l.1-.1c.1-.1.18-.18.27-.37.36-.27,1-1.19,1.19-1.46s.46-.73.64-1.19l.1-.18.18.1c.18.18.27.46.27.73s-.1.55-.27,1.1c-.18.64-.55,1.37-.91,2.1.1.1.1.27,0,.27-.27.46-.27.64-.27.82h.1c.1,0,.46-.1.73-.37.27-.18,1-.82,1.92-2.1.73-.91,1.19-1.92,1.73-3.01l.1-.18.18.1c.1.1.18.1.27.18.1.18.1.46.1.73-.1.73-.55,1.74-.82,2.47-.55,1.28-1.55,2.65-2.28,3.65-.04.13-.14.23-.27.27.1.1.18.18.36.27l.27.27c.96.8,2,1.51,3.1,2.1.91.55,2.74,1.46,4.02,1.83,1.28-.27,3.1-1.28,4.02-1.83,1.1-.59,2.14-1.3,3.1-2.1l.27-.27c.18-.1.27-.27.36-.27.1-.18.1-.27.1-.37l-.1-.1c-.73-.91-1.74-2.37-2.28-3.65-.27-.73-.73-1.74-.82-2.47-.1-.27,0-.55.1-.73l.18-.18c.1-.1.27-.1.27-.1l.1.18c.55,1.1,1.1,2.1,1.74,3.01.91,1.28,1.64,1.92,1.92,2.1.27.27.55.37.73.37h.1c.1-.1,0-.27-.27-.73-.1-.1-.1-.18-.1-.27-.36-.73-.73-1.46-.91-2.1-.18-.55-.27-.91-.27-1.1,0-.27.1-.55.27-.73l.18-.1.1.18c.18.46.55,1,.73,1.28s.91,1.1,1.1,1.37c.18.18.27.27.27.37l.1.1c.1-.1.18-.27.36-.64l.1-.1c.55-.91,1.1-2.1,1.55-3.29.46-1.1.73-2.28.91-4.1.1-1.1.18-2.28,0-3.74.1-1.37-.27-2.74-.73-3.74h-.08Z"></path></svg>