<svg xmlns="http://www.w3.org/2000/svg" id="Layer_1" data-name="Layer 1" viewBox="0 0 465.85 135.28"><defs><style> .cls-1 { fill: #eb1b23; } .cls-1, .cls-2, .cls-3 { fill-rule: evenodd; stroke-width: 0px; } .cls-2 { fill: #fefefe; } .cls-3 { fill: #000; } </style></defs><g id="Layer_1-2" data-name="Layer_1"><g id="_663428104" data-name=" 663428104"><path class="cls-1" d="M107.58,106.19c.2.91,1.81,2.07,2.69,3.6-.85-.54-1.67-1.33-2.49-2.04-3.69-3.06-30.98-26.08-32.97-27.3-8.79-5.47-13.46-.23-19.08,4.28-2.61,2.07-29.54,24.8-30.19,25,.28-.26.6-.74.99-1.19,3.43-3.83,8.28-9.84,11.71-13.92l8.48-10.03c1.39-1.76,2.86-3.29,4.25-5.02,2.15-2.66,6.49-6.72,6.43-12.02-.06-5.56-4.31-9.04-6.52-11.93-1.33-1.76-2.83-3.32-4.25-5.05l-12.73-15.05c-1.45-1.67-2.78-3.46-4.22-5.05-.74-.82-1.45-1.76-2.13-2.52-.48-.54-1.73-2.18-2.18-2.41,1.16.23,18.06,14.83,20.24,16.58l10.12,8.45c2.75,2.18,6.66,6.49,12.02,6.6,4.82.09,8.82-3.46,12.22-6.43l10.09-8.45c3.46-2.75,6.66-5.64,10.12-8.45l10.09-8.36c-.6,1.13-2.92,3.54-3.86,4.73-1.28,1.67-2.69,3.17-4.05,4.82-2.72,3.2-5.39,6.41-8.11,9.64-1.42,1.67-2.69,3.09-4.05,4.79-1.39,1.7-2.69,3.09-4.08,4.79-2.78,3.46-5.95,6.35-7.2,10.52-2.13,7.03,4.08,12.36,8.19,17.46l8.16,9.58c.68.82,1.25,1.56,2.01,2.41l9.58,11.4c.37.37.31.31.71.57ZM135.5,25.23c-.11-1.81-1.45-3.54-2.38-4.71-2.81-3.46-7.68-5.39-12.27-3.88-.99.31-1.73.71-2.69.94,2.86-5.39,1.7-10.32-2.47-14.46-4.76-4.73-10.18-3.2-15-.79-4.05,2.04-10.06,4.59-14.46,5.7-7.34,1.84-10.37,2.1-18.28,2.1-13.01,0-21.15-2.01-32.71-7.8-5.73-2.86-9.81-3.6-15.02.77-3.71,3.12-4.99,8.25-3.23,12.84.26.65.62,1.11.79,1.84-2.15-1.13-4.96-2.1-8.25-1.39-2.49.51-4.93,2.04-6.43,3.66C.26,23.13-.81,27.33.66,31.44c2.15,5.95,4.56,7.99,7.37,17.86,2.86,10.12,2.89,25.57.09,36.37-.79,3.03-2.81,8.19-4.11,11.03C2.16,100.66,0,103.61.04,108.03c.03,6.29,6.6,12.19,13.92,10.89,1.73-.31,2.61-.94,4.03-1.42-3.06,4.31-2.04,11.08,2.13,14.6,7.88,6.66,12.98,1.36,21.94-2.21,2.32-.94,4.96-1.96,7.48-2.58,7.46-1.87,10.26-2.15,18.23-2.15,9.98,0,16.53.88,25.68,4.56l7.11,3.17c3.49,1.73,7.54,3.51,11.91,1.47,6.43-3.03,9.1-10.23,5.7-16.67,2.75.65,7.26,3.49,12.93-.96,3.09-2.44,5.64-6.97,4.73-10.6-.28-1.08.06-.45-.54-.91.43-1.11-.99-3.63-1.47-4.56-4.17-8.33-6.29-13.92-7.68-23.56-.51-3.63-.31-8.36-.31-12.39,0-11.23,3-20.1,7.8-29.68.74-1.45,1.42-2.81,1.84-4.39.26-.88.88-4.93.06-5.41Z"></path><path class="cls-3" d="M312.07,64.52l7.85.79c19.45,2.69,30.64,12.5,30.64,32.46,0,4.17-.79,8.76-1.98,11.71-6.6,16.27-22.68,13.63-36.51,13.66-2.78,0-5.44-.17-7.34-1.13-2.32-1.16-2.15-3.03-2.15-6.32v-8.45c0-2.89.2-5.24.2-8.28,0-2.81.03-5.64,0-8.45,0-1.64.23-2.41.23-4.03-.06-9.67.4-19.53.4-29.23l.2-12.5c0-1.39.2-2.38.2-4.03,0-5.75.23-10.91.2-16.72,0-1.62.23-2.38.2-4.03v-4.22c.03-3.23,1.45-3.83,4.65-3.83,6.58,0,14.77-.51,20.55,1.81,8.11,3.23,11.93,9.04,13.38,17.86,1.02,6.35.65,11.96-2.3,17.6-1.36,2.64-3.49,5.05-5.84,6.86-4.85,3.69-10.71,5.81-16.81,6.75-4.79.74-5.73-.06-5.75,1.7ZM271.96,8.31c0,.77.85.65,1.59.79,5.3,1.16,6.46,5.95,6.46,11.28v28.83c0,17.86-.31,35.83-.2,53.8,0,1.45-.23,2.01-.2,3.4.03,7.17,1.36,16.67-5.98,19.22-1.11.4-1.76.48-2.89.74v1.42h71.15c4.71,0,9.78-1.16,13.27-2.47,4.79-1.76,6.38-3.15,9.95-5.98,2.27-1.79,5.22-6.6,6.32-9.38,3.32-8.16,3.43-18.14-.45-26.16-4.56-9.52-12.08-14.54-21.43-18.28-1.11-.43-4.93-1.76-6.24-1.79v-.43c.68-.14,1.33-.57,2.13-.88,4-1.64,9.86-5.98,12.93-9.04.65-.62.85-.96,1.42-1.59l2.69-3.57c1.45-2.44,2.13-3.71,2.92-6.55,2.3-8.05.2-18.62-5.22-24.46-3.77-4.08-8.65-6.66-14.12-8.02-4-.96-8.39-1.67-13.24-1.67h-60.86v.79Z"></path><path class="cls-3" d="M202.2,123.34c-4.54,0-13.27.31-15.62-3.12-1.84-2.72-.62-13.55-1.19-17.35-.51-3.29.09-58.99.09-66.56,0-3.17.14-17.69.54-20.41.6-4.11,1.59-3.77,6.52-3.77,21.54,0,36.26,4.82,45.89,24.04,3.51,7.06,5.05,13.97,6.35,21.66,1.02,6.07,1.16,11.4,1.16,17.57,0,12.1-3.91,25.34-10.97,34.75-3.17,4.25-7.34,8.19-12.93,10.03-5.84,1.93-12.19,3.15-19.84,3.15ZM154.64,8.9c3.34.28,6.58,2.66,7.57,6.12.45,1.5.71,7.46.68,9.61,0,1.36.23,1.84.23,3.2-.03,4.65.2,8.76.2,13.52,0,2.38.2,4.14.2,6.63l-.51,63.35c-.26,1.67-.17,4-.31,5.73-.11,1.64-.23,4-.99,5.07-.77,1.11-2.04,2.01-3.32,2.72-.94.51-3.34,1.39-4.54,1.5v1.42h64.69c4.31,0,8.76-.99,12.08-2.04,1.64-.54,3.57-1.19,5.13-1.93,1.73-.85,3.23-1.5,4.82-2.44,2.3-1.42,4.17-2.52,6.24-4.22,6.8-5.61,12.02-11.62,15.96-19.53,2.86-5.75,5.1-12.7,6.04-19.16.26-1.79.62-4.28.74-6.29.06-1.13-.09-2.47.03-3.6.2-1.56-.23-8.67-.4-9.92-1.5-11.96-4.82-20.98-12.22-30.3-5.1-6.46-12.84-12.08-20.27-15.42-3.37-1.5-6.58-2.69-10.6-3.69-3.6-.91-8.22-1.73-12.59-1.73h-58.85v1.39Z"></path><path class="cls-3" d="M377.98,40.54c0,6.29,2.3,12.27,5.64,16.72,3.17,4.22,7.4,7.85,12.16,10.2,5.95,2.98,10.12,4.28,16.44,6.15,6.75,1.98,17.57,3.88,22.59,7.43,1.22.85,2.98,2.44,3.83,3.63,3.4,4.76,3.83,8.08,3.83,14.09,0,3.63-1.39,8.28-2.61,10.69-1.56,3.09-3.26,5.56-5.87,7.63-2.15,1.7-1.73,1.33-3.97,2.69-5.02,3.03-12.36,3.77-18.6,3.77-10.2,0-17.01-2.86-23.75-7.88-4.65-3.43-5.64-5.9-7.09-12.05-.88-.03-.62-.14-1.42-.2,0,3.97.14,8.14.03,12.08l-.23,5.84c0,1.87-.4,5.44.62,5.44,2.32,0,.65-2.81,4.82-2.81l7.14,1.73c4.59,1.13,10.09,2.07,14.94,2.78,9.86,1.42,23.22.91,32.17-1.87,18.43-5.7,27.18-16.98,27.18-36.09,0-18-11.59-28.4-27.69-32.97-7.46-2.1-16.33-3.34-23.84-6.38-5.24-2.1-10.29-4.9-12.25-10.54-3.12-8.96.26-18.96,7.74-24.26,12.87-9.07,40.9-5.75,46.66,11.23.6,1.79.09,1.87,1.93,1.87,0-3.91-.2-7.37-.2-11.08,0-1.79.09-3.86,0-5.64-.06-.96-.23-1.36-.2-2.61,0-.65.23-2.41-.4-2.41-1.19,0-1.3.85-2.3,1.33-2.83,1.47-6.66.17-9.18-.34-2.98-.6-9.21-1.67-12.3-1.81-3.6-.14-5.58-.6-9.89-.6-1.36,0-2.18-.11-3.23-.2l-6.63.4c-3.12.14-8.87,1.3-11.88,2.24-7.4,2.35-12.67,5.47-17.12,10.91-4.42,5.39-7.09,13.49-7.09,20.89Z"></path><path class="cls-2" d="M107.58,106.19c-.4-.26-.34-.2-.71-.57l-9.58-11.4c-.77-.85-1.33-1.59-2.01-2.41l-8.16-9.58c-4.11-5.1-10.32-10.43-8.19-17.46,1.25-4.17,4.42-7.06,7.2-10.52,1.39-1.7,2.69-3.09,4.08-4.79,1.36-1.7,2.64-3.12,4.05-4.79,2.72-3.23,5.39-6.43,8.11-9.64,1.36-1.64,2.78-3.15,4.05-4.82.94-1.19,3.26-3.6,3.86-4.73l-10.09,8.36c-3.46,2.81-6.66,5.7-10.12,8.45l-10.09,8.45c-3.4,2.98-7.4,6.52-12.22,6.43-5.36-.11-9.27-4.42-12.02-6.6l-10.12-8.45c-2.18-1.76-19.08-16.36-20.24-16.58.45.23,1.7,1.87,2.18,2.41.68.77,1.39,1.7,2.13,2.52,1.45,1.59,2.78,3.37,4.22,5.05l12.73,15.05c1.42,1.73,2.92,3.29,4.25,5.05,2.21,2.89,6.46,6.38,6.52,11.93.06,5.3-4.28,9.35-6.43,12.02-1.39,1.73-2.86,3.26-4.25,5.02l-8.48,10.03c-3.43,4.08-8.28,10.09-11.71,13.92-.4.45-.71.94-.99,1.19.65-.2,27.58-22.93,30.19-25,5.61-4.51,10.29-9.75,19.08-4.28,1.98,1.22,29.28,24.24,32.97,27.3.82.71,1.64,1.5,2.49,2.04-.88-1.53-2.49-2.69-2.69-3.6Z"></path></g></g></svg>