<svg xmlns="http://www.w3.org/2000/svg" id="Icon" viewBox="0 0 556.82 131.71"><defs><style> .cls-1 { fill: #f90; } .cls-1, .cls-2, .cls-3 { stroke-width: 0px; } .cls-2 { fill: #0e1b42; } .cls-3 { fill: #fff; } </style></defs><g><rect class="cls-2" x="98.29" y=".03" width="458.54" height="131.66"></rect><g><path class="cls-3" d="M126.93,40.89h29.44v7.86h-19.44v12.29h17.79v7.86h-17.79v14h19.58v7.86h-29.58v-49.88Z"></path><path class="cls-3" d="M161.45,53.96h8.93v5.15h.14c3-4.5,7.36-6,10.93-6,5.14,0,8.79,1.93,10.86,6.5,2.21-4.43,7-6.5,11.5-6.5,9.08,0,11.65,6.22,11.65,14.43v23.22h-9.58v-21.94c0-3.43,0-8.29-5.5-8.29-6.36,0-7.15,7.58-7.15,12.36v17.87h-9.58v-21.94c0-3.43,0-8.29-5.5-8.29-6.36,0-7.15,7.58-7.15,12.36v17.87h-9.58v-36.8Z"></path><path class="cls-3" d="M221.04,38.1h9.58v9.15h-9.58v-9.15ZM221.04,53.96h9.58v36.8h-9.58v-36.8Z"></path><path class="cls-3" d="M235.91,53.96h8.5v8.36h.14c.43-3.43,4.36-9.22,10.08-9.22.93,0,1.93,0,2.93.29v9.65c-.86-.5-2.57-.79-4.29-.79-7.79,0-7.79,9.72-7.79,15.01v13.51h-9.58v-36.8Z"></path><path class="cls-3" d="M261.17,55.89c3.72-1.71,8.72-2.79,12.79-2.79,11.22,0,15.86,4.64,15.86,15.51v4.72c0,3.71.07,6.5.14,9.22.07,2.79.21,5.36.43,8.22h-8.43c-.36-1.93-.36-4.36-.43-5.5h-.14c-2.21,4.07-7,6.36-11.36,6.36-6.5,0-12.86-3.93-12.86-10.93,0-5.5,2.64-8.72,6.29-10.5,3.64-1.79,8.36-2.14,12.36-2.14h5.29c0-5.93-2.64-7.93-8.29-7.93-4.07,0-8.15,1.57-11.36,4l-.29-8.22ZM272.39,84.62c2.93,0,5.22-1.29,6.72-3.29,1.57-2.07,2-4.72,2-7.58h-4.14c-4.29,0-10.65.71-10.65,6.36,0,3.14,2.64,4.5,6.07,4.5Z"></path><path class="cls-3" d="M297.4,60.97h-7.07v-7h7.07v-7.36l9.57-3.07v10.43h8.5v7h-8.5v17.15c0,3.14.86,6.07,4.5,6.07,1.71,0,3.36-.36,4.36-1l.29,7.57c-2,.57-4.21.86-7.07.86-7.5,0-11.65-4.64-11.65-11.93v-18.72Z"></path><path class="cls-3" d="M347.99,88.69c-3.5,1.93-7.5,2.93-12.65,2.93-12.15,0-19.22-7-19.22-19.08,0-10.65,5.64-19.44,17.08-19.44,13.65,0,17.51,9.36,17.51,22.22h-25.44c.43,5.93,4.57,9.29,10.5,9.29,4.64,0,8.65-1.71,12.22-3.71v7.79ZM341.56,68.76c-.29-4.64-2.43-8.65-7.79-8.65s-8.08,3.72-8.5,8.65h16.29Z"></path><path class="cls-3" d="M376.51,61.68c-2.93-1-5.07-1.57-8.57-1.57-2.57,0-5.65.93-5.65,4.07,0,5.86,16.65,2.14,16.65,15.43,0,8.58-7.65,12.01-15.44,12.01-3.64,0-7.36-.64-10.86-1.57l.57-7.86c3,1.5,6.14,2.43,9.43,2.43,2.43,0,6.29-.93,6.29-4.5,0-7.22-16.65-2.29-16.65-15.58,0-7.93,6.93-11.43,14.44-11.43,4.5,0,7.43.71,10.43,1.36l-.64,7.22Z"></path><path class="cls-3" d="M398.41,40.89h12.29l19.01,37.3h.14v-37.3h9.57v49.88h-12.22l-19.08-37.3h-.14v37.3h-9.58v-49.88Z"></path><path class="cls-3" d="M447.25,40.89h17.44c6.43,0,16.08,1.86,16.08,12.79,0,5.93-4,10.08-9.93,11.15v.14c6.79.64,11.43,5.22,11.43,11.36,0,12.58-11.29,14.43-17.58,14.43h-17.44v-49.88ZM457.25,61.04h4.07c4.22,0,9.43-.93,9.43-6.07,0-5.79-5.07-6.22-9.65-6.22h-3.86v12.29ZM457.25,82.9h4.71c4.64,0,10.29-1.14,10.29-6.93,0-6.5-5.29-7.5-10.29-7.5h-4.71v14.43Z"></path><path class="cls-3" d="M487.73,40.89h13.65c15.29,0,28.8,5.14,28.8,24.94s-13.5,24.94-28.8,24.94h-13.65v-49.88ZM497.74,82.9h5.57c8.36,0,16.44-6.22,16.44-17.08s-8.08-17.08-16.44-17.08h-5.57v34.16Z"></path></g></g><rect class="cls-2" y=".03" width="89.41" height="131.66"></rect><path class="cls-3" d="M36.83,80.15C38.01,47.58,55.58,18.74,81.98,0h-17.53C43.07,18.58,28.69,44.67,28.1,73.66c-.47,22.99,3.96,40.44,16.15,58.05h4.45c-9.52-16.21-12.54-33.21-11.87-51.56Z"></path><path class="cls-1" d="M39.73,131.69c-10.56-11.19-23.32-32.3-24.82-55.1C13.09,48.7,22.3,21.52,40.91.02h14.41c-22.77,22.58-34.3,52.49-31.66,82.2,1.69,18.99,9.16,33.03,20.61,49.47h-4.53Z"></path><g><path class="cls-3" d="M44.59,104.61c9.61-9.94,18.56-24.31,21.38-38.63,3.95-20.09-1.25-36.68-1.6-37.82-.25-.81-.37-1.36-.25-1.43.29-.15,2.32,3.47,3.69,6.34,2.65,5.54,5.53,14.5,5.37,24.78-.19,12.78-4.74,25.49-13.01,35.28-2.87,3.4-6.15,6.42-9.86,8.93-2.42,1.64-6.56,3.9-6.7,3.67-.08-.13.38-.51.97-1.12Z"></path><path class="cls-1" d="M44.27,104.91c6.45-7.43,12.24-17.95,13.66-28.19,1.99-14.36-2.41-25.86-2.71-26.65-.21-.56-.32-.95-.24-1,.2-.12,1.8,2.35,2.9,4.32,2.12,3.81,4.55,10.01,4.86,17.28.39,9.03-2.33,18.21-7.82,25.47-1.91,2.52-4.12,4.79-6.66,6.72-1.66,1.26-4.5,3.03-4.63,2.87-.08-.1.25-.37.64-.82Z"></path></g></svg>