<svg xmlns="http://www.w3.org/2000/svg" id="Layer_1" data-name="Layer 1" viewBox="0 0 752.27 439.98"><defs><style> .cls-1 { fill: #00458a; } .cls-1, .cls-2 { stroke-width: 0px; } .cls-2 { fill: #ee3023; } </style></defs><path class="cls-2" d="M752.27,0l-211.79,115.91h84.81c-43.8,93.72-34.71,203.53,23.82,288.77-25.27-151.21,36.6-297.6,103.16-404.68"></path><polygon class="cls-1" points="0 396.98 24.56 396.98 24.56 402.84 7.1 402.84 7.1 414.5 22.71 414.5 22.71 420.03 7.1 420.03 7.1 439.44 0 439.44 0 396.98"></polygon><path class="cls-1" d="M29.98,406.11h6.9v33.33h-6.9v-33.33ZM29.09,396.17c0-2.31,1.85-4.28,4.38-4.28s4.36,1.97,4.36,4.28-1.92,4.31-4.36,4.31-4.38-1.99-4.38-4.31"></path><path class="cls-1" d="M44,406.11h6.82v3.49c2.04-2.39,4.78-4.03,8.4-4.03.96,0,2.04.22,2.78.42v6.2c-.81-.2-1.97-.47-3.47-.47-3.77,0-5.86,1.28-7.64,2.78v24.94h-6.9v-33.33Z"></path><path class="cls-1" d="M64.39,438.14v-5.44c2.19.96,6.08,1.97,9.21,1.97,4.38,0,6.5-1.43,6.5-4.5,0-2.78-2.12-3.54-6.23-4.97-4.9-1.43-9.41-4.01-9.41-10.01,0-6.62,4.85-9.62,11.95-9.62,3.47,0,6.75.76,8.4,1.45v5.51c-1.77-.76-4.85-1.65-8.13-1.65-3.82,0-5.67,1.38-5.67,3.84s1.7,3.39,6.01,4.75c4.63,1.52,9.83,3.69,9.83,10.28s-4.93,10.23-12.22,10.23c-3.97,0-7.86-.74-10.25-1.85"></path><path class="cls-1" d="M92.77,430.44v-19.26h-4.56v-5.07h4.63l1.23-8.86h5.59v8.86h7.64v5.07h-7.64v18.25c0,3.47,1.23,4.97,4.31,4.97,1.7,0,3.2-.39,4.21-.81v5.44c-1.23.42-3.2.96-5.79.96-6.36,0-9.63-2.58-9.63-9.54"></path><path class="cls-1" d="M150.71,423.77l-4.09-12.28c-.96-2.85-2.12-6.32-2.59-8.39h-.14c-.54,2.07-1.7,5.53-2.66,8.39l-4.29,12.28h13.76ZM140.14,396.98h8.18l15.3,42.46h-7.78l-3.28-9.89h-17.54l-3.42,9.89h-7.22l15.77-42.46Z"></path><path class="cls-1" d="M188.74,422.81c0-6.62-2.04-11.59-8.47-11.59-2.32,0-4.56.81-5.94,1.99v20.56c1.43.49,3.42.76,5.27.76,6.4,0,9.14-5.04,9.14-11.73M167.43,437.75v-44.65h6.9v15.62c1.23-1.38,4.09-3.15,8.06-3.15,9.71,0,13.65,7.58,13.65,16.92s-5.79,17.49-16.58,17.49c-4.51,0-8.94-1.01-12.02-2.24"></path><path class="cls-1" d="M200.74,428.2v-22.09h6.82v21.01c0,4.62,1.45,7.36,6.43,7.36,2.66,0,5.12-1.23,6.75-2.31v-26.05h6.9v33.33h-6.82v-2.66c-1.62,1.3-4.85,3.2-9.21,3.2-8.13,0-10.86-5.04-10.86-11.78"></path><path class="cls-1" d="M262.64,433.59c11.11,0,13.84-7.16,13.84-15.33s-2.61-15.55-13.45-15.55h-5.79v30.87h5.39ZM250.13,396.98h13.72c14.61,0,20.15,10.23,20.15,21.28,0,10.41-5.32,21.18-20.35,21.18h-13.52v-42.46Z"></path><path class="cls-1" d="M290.13,393.1h6.75v15.69c1.72-1.3,4.85-3.22,9.21-3.22,8.13,0,10.94,5.07,10.94,11.81v22.07h-6.9v-20.98c0-4.62-1.38-7.35-6.36-7.35-2.73,0-5.17,1.2-6.75,2.31v26.03h-6.9v-46.34Z"></path><path class="cls-1" d="M339.49,432.55v-7.75c-.49,0-1.72-.07-2.59-.07-5.67,0-8.74,1.57-8.74,5.31,0,3.05,2.04,4.77,5.44,4.77,2.54,0,4.66-1.03,5.89-2.26M340.38,436.25c-1.5,1.92-4.78,3.74-8.74,3.74-6.26,0-10.42-3.54-10.42-9.4,0-6.89,5.79-10.23,15-10.23,1.08,0,2.39.07,3.28.14v-2.66c0-4.77-1.92-6.74-6.82-6.74-3.5,0-6.43,1.01-8.4,1.89v-5.58c2.32-.94,5.74-1.84,9.63-1.84,7.83,0,12.49,3.35,12.49,11.12v15.13c0,2.09.94,2.78,2.44,2.78.34,0,.84-.05,1.23-.13v4.77c-.81.34-1.9.74-3.89.74-2.93,0-4.9-1.43-5.79-3.74"></path><path class="cls-1" d="M375.04,422.81c0-6.62-2.04-11.59-8.47-11.59-2.32,0-4.56.81-5.94,1.99v20.56c1.43.49,3.4.76,5.25.76,6.43,0,9.16-5.04,9.16-11.73M353.73,437.75v-44.65h6.9v15.62c1.23-1.38,4.09-3.15,8.06-3.15,9.71,0,13.65,7.58,13.65,16.92s-5.79,17.49-16.58,17.49c-4.51,0-8.94-1.01-12.02-2.24"></path><path class="cls-1" d="M387.36,406.11h6.9v33.33h-6.9v-33.33ZM386.47,396.17c0-2.31,1.85-4.28,4.38-4.28s4.36,1.97,4.36,4.28-1.92,4.31-4.36,4.31-4.38-1.99-4.38-4.31"></path><path class="cls-1" d="M432.76,433.78c5.03,0,7.71-2.39,7.71-6.81s-2.46-7.08-7.59-7.08h-7.02v13.9h6.9ZM432.53,414.79c4.93,0,7.17-2.26,7.17-6.3,0-3.47-2.19-5.85-7.09-5.85h-6.75v12.15h6.68ZM418.76,396.98h14.61c8.79,0,13.42,4.31,13.42,10.77,0,5.04-3.28,8.39-6.9,9.32v.14c4.66.96,8.28,4.28,8.28,9.94,0,7.43-5.47,12.28-14.41,12.28h-15v-42.45Z"></path><path class="cls-1" d="M470.44,432.55v-7.75c-.49,0-1.72-.07-2.61-.07-5.67,0-8.74,1.57-8.74,5.31,0,3.05,2.07,4.77,5.47,4.77,2.54,0,4.66-1.03,5.89-2.26M471.31,436.25c-1.5,1.92-4.78,3.74-8.72,3.74-6.28,0-10.44-3.54-10.44-9.4,0-6.89,5.79-10.23,15-10.23,1.11,0,2.39.07,3.3.14v-2.66c0-4.77-1.92-6.74-6.85-6.74-3.47,0-6.41,1.01-8.38,1.89v-5.58c2.32-.94,5.72-1.84,9.61-1.84,7.86,0,12.49,3.35,12.49,11.12v15.13c0,2.09.96,2.78,2.46,2.78.34,0,.81-.05,1.23-.13v4.77c-.84.34-1.92.74-3.89.74-2.93,0-4.93-1.43-5.81-3.74"></path><path class="cls-1" d="M484.81,406.11h6.77v2.68c1.7-1.3,4.83-3.22,9.21-3.22,8.13,0,10.91,5.04,10.91,11.81v22.07h-6.9v-20.98c0-4.62-1.36-7.35-6.36-7.35-2.71,0-5.17,1.2-6.75,2.31v26.03h-6.9v-33.33Z"></path><path class="cls-1" d="M534.79,435.09l-9.48-12.47v16.83h-6.87v-46.32h6.87v27.58l11.82-14.59h7.56l-12.49,15.01,8.74,11.17c1.08,1.43,1.97,2.07,3.47,2.07.14,0,.27,0,.81-.07v5.17c-.67.22-1.43.27-2.04.27-3.28,0-5.64-.94-8.4-4.62"></path><polygon class="cls-1" points="0 115.91 146.05 115.91 146.05 159.06 52.4 159.06 52.4 214.43 135.73 214.43 135.73 254.14 52.4 254.14 52.4 353.81 0 353.81 0 115.91"></polygon><path class="cls-1" d="M212.46,115.91h58.48l87.2,237.9h-56.98l-15.3-47.35h-92.92l-16.06,47.35h-53.92l89.49-237.9ZM272.1,264.47l-19.88-61.1c-4.58-14.12-9.16-27.9-11.85-38.94h-.76c-3.05,10.68-7.66,25.19-12.24,38.94l-20.64,61.1h65.38Z"></path><path class="cls-1" d="M375.31,115.91h90.6c51.63,0,79.54,24.45,79.54,60.71,0,29.4-17.96,47.35-37.47,52.69v.76c25.62,5.73,44.73,23.69,44.73,54.61,0,43.54-32.89,69.12-84.52,69.12h-92.89V115.91ZM459.04,212.91c23.7,0,33.65-10.7,33.65-29.03,0-16.41-10.32-27.11-33.25-27.11h-31.73v56.14h31.33ZM460.17,312.95c23.33,0,35.96-10.7,35.96-31.71s-11.85-32.45-35.57-32.45h-32.86v64.16h32.47Z"></path><path class="cls-1" d="M27.89,17.17h-4.9c-.54,0-.84.27-.84.81v42.11c0,2.17-.76,3.99-2.29,5.51-1.5,1.53-3.35,2.29-5.49,2.29s-3.97-.76-5.49-2.29c-1.55-1.52-2.32-3.35-2.32-5.51v-15.52c0-.57-.27-.84-.79-.84H.84c-.57,0-.84.27-.84.84v15.52c0,3.96,1.4,7.33,4.21,10.14,2.78,2.8,6.18,4.21,10.15,4.21s7.34-1.4,10.17-4.21c2.78-2.8,4.19-6.17,4.19-10.14V17.98c0-.54-.27-.81-.84-.81"></path><path class="cls-1" d="M56.81,57.07h-7.46c-2.04,0-3.82-.74-5.27-2.21-1.48-1.45-2.19-3.2-2.19-5.24v-4.62c0-2.07.71-3.81,2.19-5.26,1.45-1.45,3.23-2.19,5.27-2.19s3.79.74,5.27,2.19c1.45,1.45,2.19,3.2,2.19,5.26v12.08ZM49.34,30.99c-3.87,0-7.17,1.38-9.9,4.11-2.76,2.73-4.11,6.03-4.11,9.89v4.62c0,3.86,1.36,7.16,4.11,9.89,2.73,2.73,6.04,4.08,9.9,4.08h7.46c-.09,1.75-.79,3.2-2.07,4.43-1.28,1.2-2.78,1.82-4.51,1.82h-7.39c-.54,0-.81.29-.81.86v4.87c0,.57.27.86.81.86h7.39c3.57,0,6.65-1.3,9.21-3.91,2.61-2.58,3.92-5.66,3.92-9.22v-18.3c0-3.86-1.35-7.16-4.09-9.89-2.73-2.73-6.03-4.11-9.93-4.11"></path><path class="cls-1" d="M100.68,17.17h-4.9c-.54,0-.81.27-.81.81v34.19c0,1.75-.39,3-1.16,3.76-.76.74-2.02,1.11-3.77,1.13h-19.34c-.52,0-.76.27-.76.84v4.9c0,.54.27.79.81.79h19.29c3.57,0,6.38-1.01,8.42-3.05,2.04-2.02,3.08-4.82,3.08-8.41V17.98c0-.54-.29-.81-.86-.81"></path><path class="cls-1" d="M80.16,22.09c-.54,0-.81.27-.81.81v30.28c0,.54.27.81.81.81h4.93c.57,0,.84-.27.84-.81v-30.28c0-.54-.27-.81-.84-.81h-4.93Z"></path><path class="cls-1" d="M76.64,18.38h12.02c.47,0,.66-.22.66-.66v-1.97c0-.42-.2-.64-.66-.64h-6.9v-3.67c0-.59.2-1.08.62-1.48.4-.39.91-.59,1.48-.59.94,0,1.55.42,1.9,1.25l.4.89c.07.18.2.3.32.37.09.05.2.07.29.07.09,0,.18-.02.27-.07l1.77-.79c.3-.13.44-.32.44-.54,0-.11-.02-.2-.07-.29l-.39-.89c-.91-2.21-2.56-3.32-4.93-3.32-1.48,0-2.76.54-3.82,1.6-1.04,1.03-1.55,2.29-1.55,3.79v3.67h-1.85c-.44,0-.64.22-.64.64v1.97c0,.44.2.66.64.66"></path><path class="cls-1" d="M113.86,17.17h-4.9c-.57,0-.84.27-.84.84v44.8c0,.54.27.79.84.79h4.9c.54,0,.81-.25.81-.79V18.01c0-.57-.27-.84-.81-.84"></path><path class="cls-1" d="M163.66,77.56h-4.51c-.57,0-.84.27-.84.81v4.77c0,.57.27.84.84.84h4.51c.54,0,.81-.27.81-.84v-4.77c0-.54-.27-.81-.81-.81"></path><path class="cls-1" d="M153.79,77.56h-4.48c-.54,0-.81.27-.81.81v4.77c0,.57.27.84.81.84h4.48c.57,0,.84-.27.84-.84v-4.77c0-.54-.27-.81-.84-.81"></path><path class="cls-1" d="M247.66,69.37h-4.53c-.54,0-.81.27-.81.81v4.77c0,.57.27.84.81.84h4.53c.54,0,.81-.27.81-.84v-4.77c0-.54-.27-.81-.81-.81"></path><path class="cls-1" d="M291.22,52.1c0,1.8-.39,3.05-1.16,3.79-.74.76-2,1.16-3.77,1.18h-18.03v-10.55c2-2.26,4.68-4.35,8.03-6.2,3.35-1.85,5.99-2.78,7.86-2.78,2.76,0,4.73,1.13,5.91,3.37.76,1.45,1.16,3.2,1.16,5.29v5.9ZM284.14,30.97c-4.36,0-9.68,2.41-15.89,7.21v-20.17c0-.57-.29-.84-.84-.84h-4.95c-.54,0-.81.27-.81.84v39.06h-9.88c-1.45,0-2.41-.22-2.88-.64-.13-.22-.2-.49-.2-.84v-22.56c0-.54-.3-.81-.84-.81h-4.93c-.54,0-.79.27-.79.81v21.75c0,.86-.18,1.45-.52,1.8-.35.32-.91.49-1.68.49h-50.47v-14.83c0-3.1-1.11-5.76-3.3-7.97-2.19-2.19-4.85-3.3-7.98-3.3s-5.74,1.11-7.93,3.3c-2.19,2.21-3.3,4.87-3.3,7.97v22.63h-18.18c-2.12,0-3.97-.76-5.54-2.29-1.53-1.52-2.27-3.37-2.27-5.51,0-1.52.39-2.95,1.18-4.23.81-1.33,1.87-2.31,3.23-3l2.19-1.13c.34-.14.52-.37.52-.62,0-.14-.05-.29-.14-.44l-2.24-4.4c-.11-.2-.25-.34-.47-.42-.09-.02-.18-.05-.27-.05-.13,0-.25.02-.37.13l-2.19,1.11c-2.41,1.23-4.36,3.03-5.81,5.39-1.45,2.39-2.19,4.94-2.19,7.68,0,3.96,1.43,7.36,4.21,10.16,2.81,2.78,6.13,4.18,9.98,4.18h21.65c.91,0,1.67-.32,2.32-.96.64-.66.96-1.43.96-2.31v-25.9c0-1.3.47-2.41,1.38-3.35.94-.91,2.02-1.38,3.3-1.38s2.41.47,3.35,1.38c.91.94,1.38,2.04,1.38,3.35v18.1c0,.91.32,1.67.96,2.31.64.62,1.41.94,2.32.94h53.72c2.46,0,4.46-.69,6.03-2.12,1.7,1.43,4.04,2.12,7.02,2.12h33.3c3.6,0,6.4-1.01,8.42-3.05,2.04-2.02,3.05-4.82,3.05-8.44v-5.9c0-4.55-1.26-8.22-3.77-11.02-2.49-2.8-5.79-4.21-9.85-4.21"></path><path class="cls-1" d="M279.51,25.41h4.51c.57,0,.84-.27.84-.79v-4.77c0-.57-.27-.86-.84-.86h-4.51c-.54,0-.81.29-.81.86v4.77c0,.52.27.79.81.79"></path><path class="cls-1" d="M325.8,57.07h-7.44c-2.04,0-3.82-.74-5.27-2.21-1.45-1.45-2.19-3.2-2.19-5.24v-4.62c0-2.07.74-3.81,2.19-5.26,1.45-1.45,3.23-2.19,5.27-2.19s3.82.74,5.25,2.19c1.45,1.45,2.19,3.2,2.19,5.26v12.08ZM377.65,32.22h-4.93c-.54,0-.81.27-.81.81v21.75c0,.86-.18,1.45-.52,1.8-.32.32-.94.49-1.8.49h-37.22v-12.08c0-3.86-1.36-7.16-4.11-9.89-2.73-2.73-6.03-4.11-9.9-4.11s-7.17,1.38-9.9,4.11c-2.73,2.73-4.11,6.03-4.11,9.89v4.63c0,3.86,1.38,7.16,4.11,9.89,2.73,2.73,6.01,4.08,9.9,4.08h7.44c-.11,1.72-.79,3.2-2.04,4.43-1.3,1.23-2.81,1.82-4.51,1.82h-7.41c-.54,0-.81.29-.81.86v4.87c0,.57.27.86.81.86h7.41c3.5,0,6.53-1.28,9.11-3.79,2.59-2.53,3.92-5.53,4.02-9.05h37.22c2.68,0,4.83-.76,6.45-2.36,1.6-1.65,2.41-3.79,2.41-6.45v-21.75c0-.54-.27-.81-.81-.81"></path><path class="cls-1" d="M373.34,69.37h-4.51c-.54,0-.84.27-.84.81v4.77c0,.57.29.84.84.84h4.51c.54,0,.81-.27.81-.84v-4.77c0-.54-.27-.81-.81-.81"></path><path class="cls-1" d="M394.3,9.96h-6.85v-3.64c0-.57.2-1.06.59-1.45.4-.42.89-.62,1.48-.62.89,0,1.53.42,1.85,1.25l.42.91c.11.27.3.42.52.42.12,0,.2-.02.32-.05l1.82-.76c.14-.05.27-.2.32-.39.05-.07.07-.14.07-.22,0-.11-.02-.18-.07-.25l-.34-.91c-.94-2.16-2.56-3.25-4.9-3.25-1.48,0-2.76.54-3.79,1.57-1.04,1.03-1.55,2.29-1.55,3.74v3.64h-1.85c-.44,0-.67.22-.67.66v1.94c0,.44.22.66.67.66h11.97c.42,0,.64-.22.64-.66v-1.94c0-.44-.22-.66-.64-.66"></path><path class="cls-1" d="M390.76,17.17h-4.88c-.57,0-.84.27-.84.81v44.82c0,.54.27.79.84.79h4.88c.54,0,.81-.25.81-.79V17.98c0-.54-.27-.81-.81-.81"></path><path class="cls-1" d="M429.38,40.91h12.02c.42,0,.62-.22.62-.66v-1.99c0-.42-.2-.64-.62-.64h-6.9v-3.64c0-.59.2-1.08.62-1.5.39-.39.89-.59,1.45-.59.96,0,1.58.42,1.9,1.26l.39.94c.13.25.32.39.57.39.13,0,.22-.02.35-.07l1.8-.74c.13-.07.22-.2.32-.37.02-.07.05-.14.05-.25s-.02-.18-.05-.27l-.37-.89c-.94-2.19-2.59-3.3-4.95-3.3-1.48,0-2.73.54-3.77,1.57-1.06,1.06-1.58,2.34-1.58,3.81v3.64h-1.85c-.44,0-.67.22-.67.64v1.99c0,.44.22.66.67.66"></path><path class="cls-1" d="M515.57,25.41h4.53c.54,0,.81-.27.81-.79v-4.77c0-.57-.27-.84-.81-.84h-4.53c-.54,0-.81.27-.81.84v4.77c0,.52.27.79.81.79"></path><path class="cls-1" d="M544.42,32.22h-4.93c-.54,0-.81.27-.81.81v21.75c0,.86-.14,1.45-.49,1.8-.35.32-.94.49-1.8.49h-12.32c-1.41,0-2.29-.22-2.71-.66-.18-.18-.27-.44-.27-.86v-22.53c0-.57-.27-.84-.81-.84h-4.9c-.54,0-.81.27-.81.84v21.7c0,.91-.18,1.5-.49,1.82-.34.32-.91.52-1.67.54h-54.12c-1.43,0-2.34-.22-2.73-.66-.14-.13-.22-.42-.22-.86V17.98c0-.54-.27-.81-.81-.81h-4.95c-.54,0-.84.27-.84.81v36.73c0,.94-.14,1.55-.47,1.84-.35.32-.91.52-1.72.52h-20.77c-2.14-.02-3.97-.79-5.49-2.29-1.53-1.55-2.29-3.39-2.29-5.53,0-1.5.39-2.9,1.21-4.23.79-1.3,1.87-2.29,3.23-2.95l2.17-1.16c.32-.14.49-.37.49-.62,0-.14-.05-.29-.13-.47l-2.22-4.38c-.12-.22-.27-.37-.49-.42-.07-.05-.14-.05-.27-.05-.11,0-.22.02-.35.09l-2.24,1.11c-2.41,1.25-4.34,3.05-5.79,5.41-1.45,2.36-2.17,4.92-2.17,7.65,0,3.99,1.4,7.38,4.21,10.18,2.81,2.78,6.18,4.16,10.12,4.16h20.69c2.49,0,4.53-.71,6.13-2.14,1.7,1.43,4.04,2.14,7.04,2.14h52.64c2.49,0,4.53-.71,6.13-2.14,1.7,1.43,4.04,2.14,7.02,2.14h10.96c2.69,0,4.83-.76,6.45-2.36,1.6-1.65,2.39-3.79,2.39-6.45v-21.75c0-.54-.27-.81-.81-.81"></path><path class="cls-1" d="M540.13,69.37h-4.51c-.57,0-.84.27-.84.81v4.77c0,.57.27.84.84.84h4.51c.54,0,.81-.27.81-.84v-4.77c0-.54-.27-.81-.81-.81"></path></svg>