<svg xmlns="http://www.w3.org/2000/svg" id="Layer_1" data-name="Layer 1" viewBox="0 0 2500 487"><defs><style> .cls-1 { fill: #fff; stroke-width: 0px; } </style></defs><path class="cls-1" d="M2223.9,14.2c2.81,39.29-28.06,95.4-50.51,109.43l-14.03-11.22c22.45-22.45,16.83-89.79,0-109.43V.18c14.03,0,39.28,2.81,50.51,8.41,8.42,2.81,11.23,5.61,14.03,5.61M2500.01,357.76c0,72.95-56.12,129.06-151.52,129.06-39.28,0-86.98-5.61-109.43-16.83,0,0-2.81-2.81-2.81-16.84,0-30.87,2.81-81.37,2.81-89.79h14.03c2.81,11.22,2.81,25.25,11.22,39.28,14.03,42.09,50.51,58.92,89.79,58.92,50.51,0,81.37-25.25,81.37-72.95,0-33.67-25.25-56.11-67.34-86.98l-28.06-22.45c-56.12-42.09-95.4-84.17-95.4-143.09,0-67.34,53.31-117.84,140.29-117.84,33.67,0,72.95,8.41,86.98,11.22,8.41,0,8.41,2.81,8.41,5.61,0,8.41-2.81,42.09-2.81,86.98h-14.03c-14.03-47.7-25.25-78.56-84.17-78.56-50.51,0-78.56,30.87-78.56,61.73,0,28.06,25.25,58.93,70.15,92.59l28.06,22.45c72.96,47.7,101.02,81.37,101.02,137.49M1481.49,270.77c-8.42,22.45-11.23,39.28-11.23,58.93v106.62c0,16.83,8.42,30.87,25.25,30.87,5.61,0,28.06,2.81,33.67,2.81v14.03h-196.41v-14.03c5.61,0,30.87,0,39.28-2.81,5.61,0,19.64-2.81,19.64-30.87,0-25.25,2.81-44.9,2.81-56.12v-50.51c0-30.87-8.42-44.89-14.03-61.73-2.81-11.22-84.17-151.52-101.01-182.38-14.03-22.45-28.06-33.68-39.28-42.09-8.42-2.81-25.25-5.61-33.67-5.61v-14.03h123.46s2.81,8.41,19.64,44.89c5.61,16.84,86.98,168.35,98.2,182.38,0,0,81.37-157.12,120.65-227.28h86.98v14.03c-28.06,0-42.09,11.22-61.73,33.67s-101.01,173.97-112.23,199.22M704.27,380.2s-14.03,67.34-16.83,84.18c-2.81,14.03-5.61,14.03-5.61,14.03h-311.45v-14.03c11.23,0,28.06,0,33.67-2.81,11.23-2.81,16.83-11.22,16.83-28.05,2.81-22.45,2.81-70.15,2.81-123.46V77.17c0-22.45-2.81-28.05-25.25-33.67h-28.06v-14.03h126.26v283.39c0,81.37,0,115.03,11.22,126.26,11.23,5.61,33.67,14.03,81.37,14.03,42.09,0,56.12-2.81,70.15-16.83,11.23-11.23,16.83-25.25,25.25-53.31h19.64v-2.8h0ZM336.7,380.2s-14.03,67.34-16.83,84.18c-2.81,14.03-8.42,14.03-8.42,14.03H0v-14.03c8.41,0,28.06,0,33.67-2.81,11.22-2.81,16.83-11.22,16.83-28.05,2.81-22.45,2.81-70.15,2.81-123.46V77.17c0-22.45-2.81-28.05-25.25-33.67H0v-14.03h126.26v283.39c0,81.37,0,115.03,11.23,126.26,11.22,5.61,33.67,14.03,81.37,14.03,42.09,0,56.12-2.81,70.15-16.83,11.22-11.23,16.83-25.25,25.25-53.31h22.45v-2.8ZM1203.7,239.91c0,137.48-86.98,246.91-238.5,246.91-165.54,0-227.28-126.26-227.28-235.69S808.08,15.45,973.63,15.45c145.9,0,230.08,92.59,230.08,224.47M1119.53,265.16c0-134.68-70.15-221.66-165.54-221.66-70.15,0-137.48,53.31-137.48,190.8,0,115.03,58.93,224.46,165.54,224.46,86.98,0,137.48-67.33,137.48-193.6M2143.67,242.72c0,81.37-30.87,140.29-61.73,173.96-28.06,28.06-81.37,61.73-190.8,61.73h-227.28v-14.03c39.28,0,56.12,0,58.93-30.87,2.81-25.25,2.81-89.79,2.81-123.46V77.17c0-22.45-8.41-28.05-25.25-33.67h-30.87v-14.03h185.19c72.95,0,171.16,0,235.69,67.34,25.25,25.25,53.31,75.76,53.31,145.91M2067.91,262.36c0-145.9-95.4-210.44-224.47-210.44-11.22,0-30.87,2.81-33.67,2.81-5.61,2.81-5.61,8.41-5.61,14.03v286.2c0,61.73,2.81,72.95,11.22,84.17,11.23,11.22,28.06,16.83,72.95,16.83,120.66,2.81,179.58-64.53,179.58-193.6"></path></svg>