<svg xmlns="http://www.w3.org/2000/svg" id="Layer_1" data-name="Layer 1" viewBox="0 0 2733.61 535.35"><defs><style> .cls-1 { fill: #000; stroke-width: 0px; } </style></defs><path class="cls-1" d="M1758.45,186.3c-15.37.15-30.62,2.58-45.28,7.18v-113.69h-87.96v336.89c34.66,11.85,71.08,17.72,107.71,17.36,97.54,0,151.39-43.08,151.39-132.84-.2-73.2-51.26-114.89-125.86-114.89ZM1738.5,377.18c-8.62.11-17.21-.97-25.53-3.19v-127.85c8.89-3.22,18.27-4.91,27.72-4.99,35.11,0,55.45,23.93,55.45,66.22s-20.94,69.81-57.45,69.81h-.2Z"></path><path class="cls-1" d="M2024.93,182.31c-38.69.13-77.08,6.87-113.49,19.95l21.34,48.87c26.24-8.93,53.67-13.91,81.38-14.76,29.92,0,45.88,8.98,45.88,27.92v9.37c-86.77,3.99-164.55,18.75-164.55,82.18,0,51.06,44.68,79.79,135.43,79.79,38.03.78,75.89-5.1,111.9-17.36v-146c-.2-63.43-39.69-89.96-117.88-89.96ZM2060.03,379.77c-10.46,2.44-21.17,3.64-31.91,3.59-31.31,0-51.06-10.57-51.06-30.12,0-28.33,35.71-32.91,83.18-34.71l-.2,61.23Z"></path><path class="cls-1" d="M2296.2,182.31c-40.71.15-81.12,6.89-119.68,19.95v227.39h87.96v-183.5c9.81-3.77,20.21-5.79,30.71-5.98,31.52,0,42.88,13.17,42.88,33.11v155.38h87.96v-163.76c-.4-52.06-39.89-82.58-129.85-82.58Z"></path><polygon class="cls-1" points="2726.23 189.29 2627.1 189.29 2547.52 291.81 2546.52 291.81 2546.52 79.98 2459.75 79.98 2459.75 428.64 2546.52 428.64 2546.52 309.17 2547.52 309.17 2635.48 428.64 2733.61 428.64 2636.68 300.79 2726.23 189.29"></polygon><polygon class="cls-1" points="1456.47 359.43 1398.22 189.29 1302.48 189.29 1410.79 428.64 1367.51 524.18 1459.86 524.18 1610.05 189.29 1514.31 189.29 1456.47 359.43"></polygon><polygon class="cls-1" points="899.97 107.11 832.35 305.77 764.73 107.11 662.41 107.11 615.94 428.64 699.71 428.64 726.24 207.64 804.63 428.64 860.08 428.64 938.46 207.64 964.99 428.64 1048.77 428.64 1002.29 107.11 899.97 107.11"></polygon><path class="cls-1" d="M1189.39,182.31c-38.62.86-76.89,7.58-113.5,19.95l21.14,47.87c26.31-8.95,53.8-13.93,81.58-14.76,29.92,0,45.88,8.98,45.88,27.92v9.37c-86.77,3.99-164.56,18.75-164.56,82.18,0,51.06,44.68,79.79,135.44,79.79,38.02.77,75.89-5.1,111.9-17.35v-145.01c-.2-63.43-39.49-89.96-117.88-89.96ZM1224.49,378.98c-10.46,2.44-21.17,3.64-31.91,3.59-31.31,0-51.06-10.57-51.06-30.12,0-28.32,35.7-32.91,83.17-34.7l-.2,61.23Z"></path><path class="cls-1" d="M267.68,0C119.84,0,0,119.84,0,267.68s119.84,267.68,267.68,267.68,267.68-119.84,267.68-267.68S415.51,0,267.68,0ZM267.68,514.01c-136.05,0-246.33-110.29-246.33-246.33S131.63,21.34,267.68,21.34s246.33,110.29,246.33,246.33c.11,135.94-110,246.22-245.93,246.33h-.4Z"></path><path class="cls-1" d="M160.96,255.51c-13.76-26.53-42.09,11.37-45.28,34.51,9.17-17.15,26.13-39.49,45.28-34.51Z"></path><path class="cls-1" d="M119.68,255.71c7.09-10.86,17.52-19.12,29.72-23.54-9.77-6.58-24.13,1.59-29.72,23.54Z"></path><path class="cls-1" d="M167.75,291.01c9.77-8.38,8.78-19.95-6.38-24.73-11.37-2.79-35.7,17.55-38.3,39.89,9.57-12.17,37.7-35.11,44.68-15.16Z"></path><path class="cls-1" d="M344.67,266.48c-29.52-39.89,16.36-67.42-42.29-114.69,31.12,48.67-18.15,95.94-12.77,125.66,5.39,29.72,33.51,43.08,31.91,72.21,37.5-50.67-19.95-79.79-2.99-102.32,6.64,8.81,15.73,15.47,26.13,19.15Z"></path><path class="cls-1" d="M226.79,116.09c-2.59,12.96-34.51,15.56-41.69,34.71,17.35-15.16,39.89-9.18,55.65-24.34,4.99-5.58-6.98-10.37-13.96-10.37Z"></path><path class="cls-1" d="M183.9,204.25c3.27-7.11,8.11-13.38,14.16-18.35,5.58,3.99,15.56,1.4,28.92-13.36,0,0,1.4,0,1.2,0-10.57,36.5-37.7,42.49-46.28,39.89,5.39,7.78,39.89,12.77,43.88-2.59,9.77-34.71,43.28-49.67,14.36-49.07,7.78-9.18,34.11-17.75,39.89-24.34,5.78-6.58-.8-16.75-27.73-20.54,29.12,14.16-17.75,17.15-19.95,41.69-15.36,6.18-27.53-3.99-35.1,2.99-7.58,6.98-15.96,2.19-13.36-5.58-5.29,3.17-7,10.04-3.83,15.33,1.26,2.09,3.16,3.71,5.42,4.62,1.79,0,3.19,2.39,1.99,3.79-8.98,8.97-13.36,16.75-3.59,25.53ZM208.04,166.75h13.76c-7.58,3.99-11.17,13.56-14.96,13.36-3.79-.2-4.19-2.99-4.59-6.98,2.59,6.38,9.77,3.79,5.78-6.38Z"></path><path class="cls-1" d="M323.92,144.81c1.25-19.08-6.06-37.72-19.95-50.86-5.39-2.99-13.16,17.55-10.57,25.13,11.61,6.71,21.94,15.42,30.52,25.73Z"></path><path class="cls-1" d="M150.79,173.53c8.78-28.92,18.15-37.5,56.05-53.85,19.06-10.32,39.68-17.46,61.04-21.14-.77,3.96-2.11,7.79-3.99,11.37,7.59.39,14.24-5.05,15.36-12.57,4.79-21.14,12.17-49.07,26.33-37.5,24.33,24.17,37.67,57.27,36.9,91.55-3.62,1.59-7.75,1.59-11.37,0,12.96,25.73,55.85,37.5,46.08,3.19,18.15,12.97,48.07,29.92,52.06,70.41,10.62-32.35,1.34-67.92-23.74-90.96,11.83,1.18,23.23,5.07,33.31,11.37-19.58-22.6-44.65-39.78-72.8-49.87-13.95-17.97-30.57-33.71-49.27-46.67-15.36-12.57-27.33-11.57-33.51-1.99-6.29,12.05-10.8,24.95-13.36,38.3l-10.57,1.4c-5.77-9.23-14.82-15.92-25.33-18.75-3.59,0-3.19,15.16-5.39,27.92-85.17,33.31-82.58,47.67-90.75,68.81-29.52,16.42-52.85,42.07-66.42,73,22.22-26.12,49.15-47.84,79.39-64.03Z"></path><path class="cls-1" d="M299.19,169.54c-9.76-7.1-22.64-8.25-33.51-2.99-15.56,13.96-7.58,39.89-12.97,56.85-8.86-6.55-21.35-4.67-27.89,4.19-.15.2-.29.4-.43.6-7.38,8.58-9.77,21.74-31.12,16.56-21.34-5.19-7.38-41.89-45.48-22.54,31.71-2.79,11.77,17.15,23.54,34.11,5.72,9.82,17.82,13.91,28.32,9.57,16.63-3.42,33.49,4.76,41.09,19.94,4.59-13.91-2.97-28.91-16.89-33.5-.22-.07-.44-.14-.66-.21,24.53-34.71,46.47,33.31,38.5,68.81,18.97-27.35,18.97-63.6,0-90.95,7.58-44.68,23.34-60.84,37.5-60.44Z"></path><path class="cls-1" d="M438.81,233.97c-39.89,39.89,22.74,135.83-69.01,199.46,13.89-30.3,19.13-63.85,15.16-96.94,5.48,3.07,9.98,7.64,12.96,13.17,8.87-32.06,6.84-66.16-5.78-96.94,7.35,1.58,14.2,4.93,19.95,9.78,2.19-55.85-38.5-59.84-46.28-75.2,0,16.36,19.95,30.12,22.54,51.26-9.17-4.92-19.54-7.14-29.92-6.39,20.62,24.02,30.43,55.48,27.13,86.97-7.95-7.39-18.12-11.95-28.92-12.96,14.37,27.68,15.11,60.46,1.99,88.76-.37-9-3.12-17.74-7.98-25.33-5.36,20.83-21.91,36.92-42.88,41.69,14.77-14.04,15.37-37.39,1.33-52.17-3.68-3.87-8.15-6.9-13.1-8.87-23.74-8.18-53.85,7.98-66.02,64.42-17.15,4.99-68.42-5.98-37.9-39.89,18.75,6.18,66.42-25.73,63.23-47.87-5.39-25.9-29.54-43.5-55.85-40.69-27.73,0-46.47,26.33-69.21,37.5-19.95-2.79-25.33-5.59-35.11-30.92-1.2-15.56,15.36-26.33,14.96-42.29-13.36,2.79-16.75-17.55-43.08,3.59-1.99-3.79,1.4-12.76,1.4-12.76-6.32,5.5-10.49,13.06-11.77,21.34,5.5,10.87,13.93,19.99,24.33,26.33,15.56,41.49,31.52,46.08,47.87,47.47,7.42,10.03,18.17,17.1,30.32,19.95-2.53-11.6-3-23.54-1.4-35.3,33.71-33.71,58.64-13.16,61.83-4.19-29.92,6.19-8.78,70.01-58.24,41.69-1.45,11.25,1.02,22.66,6.98,32.31,4.99,43.88,59.84,33.11,77.19,39.89-1.8-42.48,21.74-73.6,41.89-71.01,20.15,2.59,25.53,35.7-8.98,67.02,22.62,2.67,45.45-2.77,64.43-15.36-3.27,24.71-13.43,48.01-29.32,67.22,115.88-24.92,189.63-139.06,164.7-254.94-4.49-20.88-12.07-40.97-22.49-59.61,19.95,67.62,13.96,132.64-5.98,171.34,2.39-24.33-18.95-60.04-10.97-101.53ZM88.76,283.23c-7.6-5.3-14.04-12.09-18.95-19.94,3.84-4.6,8.88-8.06,14.56-9.97,5.39-1.4,8.78,1.6,8.18,3.19-.6,1.59-5.59,1.79-6.98,5.78-1.4,3.99,4.79,8.18,6.18,10.97,1.97,3.44.78,7.83-2.67,9.8-.11.06-.21.12-.32.17ZM137.03,331.5c2.68-4.55,7.06-7.85,12.17-9.17-.36,8.67.58,17.34,2.79,25.73,0,0-14.76-8.98-14.96-16.56h0ZM212.63,341.88c3.79,0,6.98,3.39,10.57,0,3.59-3.39,0-12.56-2.79-15.96,3.19,0,16.56,0,15.76,5.58-1.6,12.37-9.38,16.36-28.32,25.53,3.39-1.99,2.79-8.58,4.79-15.16ZM174.53,383.76c-4.05-4.01-6.34-9.46-6.38-15.16,4.66,2.74,9.7,4.75,14.96,5.98-2.04,3.73-4.99,6.88-8.58,9.17Z"></path></svg>