<svg xmlns="http://www.w3.org/2000/svg" xmlns:xlink="http://www.w3.org/1999/xlink" id="layer" viewBox="0 0 365.2 142.89"><defs><style> .cls-1 { fill: #a91f23; } .cls-1, .cls-2, .cls-3, .cls-4 { stroke-width: 0px; } .cls-2 { fill: url(#radial-gradient); } .cls-3 { fill: #000; } .cls-4 { fill: #ec2024; } </style><radialGradient id="radial-gradient" cx="1460.8" cy="27525.64" fx="1460.8" fy="27525.64" r="952.48" gradientTransform="translate(-91.09 -3230.8) scale(.12)" gradientUnits="userSpaceOnUse"><stop offset=".49" stop-color="#de1f26"></stop><stop offset=".74" stop-color="#e84b4f"></stop><stop offset="1" stop-color="#f27778"></stop></radialGradient></defs><path class="cls-3" d="M176.7,45.6c6.4-6.4,12.8-8.7,20.8-8.7,15.1,0,23.8,8.7,23.8,26.2v40.5h-18.2v-37.4c0-9.5-3.1-14.4-9.5-14.4-5.6,0-8.7,2.3-14.4,7.9v43.8h-18.2v-53.3c-.8,0-5.6-.8-5.6-.8v-10.3l20-.8c.5.1,1.3,4.7,1.3,7.3M335.1,51.8c-4.9,0-9.5,2.3-15.1,8.7v27.9c2.3.8,6.4,2.3,10.3,2.3,12.8,0,15.1-10.3,15.1-20,.8-12.5-2.3-18.9-10.3-18.9M320.8,13.6v30.3c5.6-4.9,11-7.2,18.2-7.2,15.9,0,26.2,12.1,26.2,31.8,0,23.1-12.8,36.7-35.1,36.7-7.9,0-18.2-1.5-27.2-4.1V25.5c-.8,0-6.4-.8-6.4-.8v-10.3l24.3-.8ZM235.6,40.7c7.2-2.3,15.9-4.1,23.8-4.1,18.2,0,27.9,7.9,27.9,23.1v32.6c1.5,0,6.4.8,6.4.8v10.3l-20,.8s-.8-3.1-.8-4.9c-5.6,4.9-12.1,7.2-19.2,7.2-14.4,0-23.1-7.9-23.1-20.8,0-14.4,11-21.5,32.6-21.5h6.4v-2.3c0-7.2-1.5-10.3-12.1-10.3-5.6,0-12.8,1.5-18.2,4.1h-1.5l-3.1-13.6.9-1.4M248.2,84.6c0,4.9,3.1,7.9,8.7,7.9,4.9,0,7.9-1.5,12.8-5.6v-10.3h-6.4c-13.3-.7-15.1,3.9-15.1,8"></path><g><path class="cls-1" d="M86.7,1.8l-23.9,28.7L29.5,14.6c-.8,0-1.5-.8-2.3,0-.8,0-.8.8,0,2.3l7.7,36.7L1.6,69.5c-.8,0-1.5.8-1.5,1.5s.8,1.5,1.5,1.5l33.3,16.7-7.9,36.7v2.3h2.3l33.3-15.9,23.1,29.5c.8.8,1.5,1.5,2.3.8.8,0,.8-.8,1.5-1.5l8.7-35.9h37.7c.8,0,1.5,0,2.3-.8,0-.8,0-1.5-.8-2.3l-23-29.6,24.1-29.5c.8-.8.8-1.5.8-2.3s-.8-.8-2.3-.8h-9.5c-.8,0-1.5,0-1.5.8l-35.4,37.4h-.8v-.8c.8-.8,20-24.6,30.3-36.7v-.8q0-.8-.8-.8h-12.1c-.8,0-2.3.8-2.3,1.5-5.6,6.4-34.4,36.7-35.1,36.7h-.5v-.8l29.5-35.9c.8-.8.8-1.5.8-2.3,0,0-7.9-35.9-7.9-36.7s-.8-1.5-1.5-1.5c-2.8,1-3.5,1-3.5,1.8Z"></path><path class="cls-4" d="M23.8,74.8c-8.7,0-16.7-1.5-23.8-4.9,0,0,.8,0,.8-.8l33.3-15.9-7.9-36.7v-2.3h2.3l33.3,15.9L85.6,1.4c.8-.8,1.5-.8,1.5-.8,0,3.1.8,5.6.8,8.7,1.1,36.3-28.4,65.5-64.1,65.5ZM114.6,43c.8-.8,1.5-2.3,2.3-3.1h-11c-.8,0-1.5.8-2.3.8,0,1.5,0,4.1,1.5,4.9,1.6,2.3,6.2.8,9.5-2.6ZM125.6,39.2c-.8,0-1.5,0-1.5.8l-.8.8c0,1.5.8,2.3,1.5,3.1,2.3,2.3,7.2.8,9.5-2.3.8-.8.8-1.5,1.5-2.3h-10.2c0,.7,0-.1,0-.1Z"></path><path class="cls-2" d="M132.1,42.3h-6.4c-1.5,0-2.3.8-3.1,1.5-12.1,12.8-31.8,33.3-32.6,33.3-2.3,2.3-4.1.8-1.5-1.5.8-.8,16.7-20,26.2-31.8,0-.8.8-1.5,0-1.5h-9.5c-.8,0-1.5,0-2.3.8-12.1,12.8-32.6,34.4-33.3,34.4-2.3,2.3-4.1.8-1.5-1.5.8-.8,18.2-22.3,27.2-34.4.8-.8.8-1.5.8-3.1l-7.7-32.1c0-.8-.8-1.5-1.5,0l-21.8,26.1c-.8.8-2.3,1.5-3.1.8l-30.3-15.1c-.8,0-1.5,0-1.5.8l7.2,33.3c0,.8,0,2.3-1.5,3.1l-30.5,14.9c-.8,0-.8,1.5,0,1.5l30.3,15.1c.8,0,1.5,1.5,1.5,3.1l-7.9,32.8c0,.8,0,1.5,1.5.8l31-14.4c.8,0,2.3,0,3.1.8l20.8,26.2c.8.8,1.5.8,1.5,0l7.9-32.6c0-.8,1.5-1.5,2.3-1.5h33.3c.8,0,1.5-.8.8-1.5l-20.8-27.2c-.8-.8-.8-2.3,0-3.1l21.5-26.2c1.4-1.1.6-1.8-.1-1.8Z"></path></g></svg>