<svg xmlns="http://www.w3.org/2000/svg" id="Layer_1" data-name="Layer 1" viewBox="0 0 163.7 64.24"><defs><style> .cls-1 { fill: #0086cb; } .cls-1, .cls-2, .cls-3 { stroke-width: 0px; } .cls-2 { fill: #4a4e51; } .cls-3 { fill: #58b947; } </style></defs><path class="cls-3" d="M37.62,53.53c2.68,1.75,3.43,5.34,1.68,8.02h0c-1.75,2.68-5.34,3.43-8.02,1.68l-19.92-12.92s-6.62-4.35-7.14-4.66c-.52-.31-2.48-1.75-3.45-3.86,0,0-1.75-3.01.18-7.88.05-.14.64-1.63,1.79-3.13l34.88,22.74Z"></path><path class="cls-1" d="M8.09,9.12c-1.03.66-2.56,1.67-2.91,1.93-.53.41-3.42,2.7-3.49,7.94,0,.31-.14,4.98,4.15,8.04.5.36,9.46,6.18,9.46,6.18l18.24,11.86,4.16,2.7s3.03-3.69,2.65-8.23c-.04-.43.03-3.01-3.49-6.13-.33-.3-3.63-2.42-3.63-2.42l-8.94-5.78-7.06-4.62-2.75-1.79s8.91-5.81,10.38-6.77,2.8-1.65,3.45-2.59c.15-.23,1.63-1.94,1.13-4.72-.05-.27-.24-1.46-1.31-2.67,0,0-1.2-1.73-3.95-2.02,0,0-1.23-.22-2.9.51l-2.47,1.55-4.66,3.06-6.04,3.97Z"></path><path class="cls-3" d="M23.01,18.81s5.11,3.34,5.61,3.65,1.61,1.06,2.13,1.36,1.65.81,3.33.71c.27-.02,2.48-.25,3.98-2.22.11-.15,1.19-1.44,1.19-3.5,0-.18.09-1.9-1.3-3.65-.12-.15-1.25-1.63-3.57-2.04-.38-.07-2.25-.31-4.18.99-.3.2-4.1,2.67-4.1,2.67l-3.1,2.03Z"></path><path class="cls-1" d="M16.25,58.49s-5.11-3.34-5.61-3.65-1.61-1.06-2.13-1.36-1.65-.81-3.33-.71c-.27.02-2.48.25-3.98,2.22-.11.15-1.19,1.44-1.19,3.5,0,.18-.09,1.9,1.3,3.65.12.15,1.25,1.63,3.57,2.04.38.07,2.25.31,4.18-.99.3-.2,4.1-2.67,4.1-2.67l3.1-2.03Z"></path><path class="cls-2" d="M56.64,25.87v2.28s.77.58,1.77.89c.4.12,1.4.47,2.99.38.14,0,1.78-.09,2.91-1.02.08-.06,1.14-.8,1.33-2.43,0-.08.21-1.18-.53-2.19-.06-.08-.53-.74-1.75-1.27-.15-.07-1.67-.67-1.67-.67,0,0-.97-.4-1.34-.54s-1.24-.45-1.4-1.27c-.02-.08-.24-.92.53-1.54.05-.04.58-.55,1.96-.49.24,0,1.97.11,3.6,1.62v-2.19s-1.69-1.45-4.76-1.11c0,0-2.63.23-3.3,2.48,0,0-.48,1.52.23,2.7.06.09.49.84,1.61,1.37.28.13,2.24.94,2.24.94,0,0,1.15.44,1.41.56s1.41.68.99,2.05c-.04.14-.38,1.21-2.34,1.28-.18,0-2.41.13-4.47-1.84Z"></path><path class="cls-2" d="M88.8,16.51v12.68h-2.13v-2.14c-1.05,1.56-2.7,2.08-2.86,2.13-2.31.67-4.34-.24-4.46-.29-2.49-1.07-3.22-3.39-3.33-3.73-.95-2.76.28-5.28.37-5.47,1.23-2.51,3.62-3.14,3.9-3.2,2.24-.55,3.7.09,4.1.27,1.58.71,2.3,1.94,2.3,1.94v-2.19h2.13ZM78.76,25.79c1.14,1.55,2.87,1.6,3.06,1.62,2.39.26,3.73-1.38,3.73-1.38,1.99-2.36.75-5.15.68-5.28-1.05-2.18-2.95-2.38-3.19-2.43-2.05-.38-3.39.72-3.55.85-1.93,1.56-1.66,4.08-1.66,4.08.11,1.53.85,2.42.93,2.53Z"></path><path class="cls-2" d="M133.93,16.51v12.68h-2.13v-2.14c-1.05,1.56-2.7,2.08-2.86,2.13-2.31.67-4.34-.24-4.46-.29-2.49-1.07-3.22-3.39-3.33-3.73-.95-2.76.28-5.28.37-5.47,1.23-2.51,3.62-3.14,3.9-3.2,2.24-.55,3.7.09,4.1.27,1.58.71,2.3,1.94,2.3,1.94v-2.19h2.13ZM123.89,25.79c1.14,1.55,2.87,1.6,3.06,1.62,2.39.26,3.73-1.38,3.73-1.38,1.99-2.36.75-5.15.68-5.28-1.05-2.18-2.95-2.38-3.19-2.43-2.05-.38-3.39.72-3.55.85-1.93,1.56-1.66,4.08-1.66,4.08.11,1.53.85,2.42.93,2.53Z"></path><path class="cls-2" d="M96.23,35.08v12.68h-2.13v-2.14c-1.05,1.56-2.7,2.08-2.86,2.13-2.31.67-4.34-.24-4.46-.29-2.49-1.07-3.22-3.39-3.33-3.73-.95-2.76.28-5.28.37-5.47,1.23-2.51,3.62-3.14,3.9-3.2,2.24-.55,3.7.09,4.1.27,1.58.71,2.3,1.94,2.3,1.94v-2.19h2.13ZM86.19,44.35c1.14,1.55,2.87,1.6,3.06,1.62,2.39.26,3.73-1.38,3.73-1.38,1.99-2.36.75-5.15.68-5.28-1.05-2.18-2.95-2.38-3.19-2.43-2.05-.38-3.39.72-3.55.85-1.93,1.56-1.66,4.08-1.66,4.08.11,1.53.85,2.42.93,2.53Z"></path><path class="cls-2" d="M118.49,12.43v16.73h-2.13v-2.1c-1.05,1.56-2.7,2.08-2.86,2.13-2.31.67-4.34-.24-4.46-.29-2.49-1.07-3.22-3.39-3.33-3.73-.95-2.76.28-5.28.37-5.47,1.23-2.51,3.62-3.14,3.9-3.2,2.24-.55,3.7.09,4.1.27,1.58.71,2.3,1.94,2.3,1.94v-5l2.13-1.27ZM108.45,25.79c1.14,1.55,2.87,1.6,3.06,1.62,2.39.26,3.73-1.38,3.73-1.38,1.99-2.36.75-5.15.68-5.28-1.05-2.18-2.95-2.38-3.19-2.43-2.05-.38-3.39.72-3.55.85-1.93,1.56-1.66,4.08-1.66,4.08.11,1.53.85,2.42.93,2.53Z"></path><path class="cls-2" d="M157.12,12.43v16.77h-2.13v-2.14c-1.05,1.56-2.7,2.08-2.86,2.13-2.31.67-4.34-.24-4.46-.29-2.49-1.07-3.22-3.39-3.33-3.73-.95-2.76.28-5.28.37-5.47,1.23-2.51,3.62-3.14,3.9-3.2,2.24-.55,3.7.09,4.1.27,1.58.71,2.3,1.94,2.3,1.94v-5l2.13-1.27ZM147.08,25.79c1.14,1.55,2.87,1.6,3.06,1.62,2.39.26,3.73-1.38,3.73-1.38,1.99-2.36.75-5.15.68-5.28-1.05-2.18-2.95-2.38-3.19-2.43-2.05-.38-3.39.72-3.55.85-1.93,1.56-1.66,4.08-1.66,4.08.11,1.53.85,2.42.93,2.53Z"></path><path class="cls-2" d="M163.7,32.37v15.39h-2.13v-2.1c-1.05,1.56-2.7,2.08-2.86,2.13-2.31.67-4.34-.24-4.46-.29-2.49-1.07-3.22-3.39-3.33-3.73-.95-2.76.28-5.28.37-5.47,1.23-2.51,3.62-3.14,3.9-3.2,2.24-.55,3.7.09,4.1.27,1.58.71,2.3,1.94,2.3,1.94v-6.26l2.13,1.32ZM153.66,44.39c1.14,1.55,2.87,1.6,3.06,1.62,2.39.26,3.73-1.38,3.73-1.38,1.99-2.36.75-5.15.68-5.28-1.05-2.18-2.95-2.38-3.19-2.43-2.05-.38-3.39.72-3.55.85-1.93,1.56-1.66,4.08-1.66,4.08.11,1.53.85,2.42.93,2.53Z"></path><g><path class="cls-2" d="M70.46,17.8s1.43.96,1.57,1.05.45.31.6.39.46.23.94.21c.08,0,.7-.06,1.14-.6.03-.04.34-.4.35-.98,0-.05.03-.53-.35-1.03-.03-.04-.35-.46-1-.59-.11-.02-.64-.1-1.19.26-.08.05-1.17.73-1.17.73l-.89.55Z"></path><path class="cls-2" d="M69.62,12.43l-2.1,1.29s0,9.85,0,10.19-.08,1.64.24,2.86c.04.16.49,1.8,1.97,2.31.2.07,1.04.43,2.56.35.23-.01,1.68-.12,2.73-.91v-2.04s-1.48,1.18-3.54.89c-.28-.04-1.85-.29-1.88-2.38,0-.17,0-12.56,0-12.56Z"></path></g><g><path class="cls-2" d="M115.31,36.3s-1.46.92-1.6,1-.46.29-.61.37-.47.22-.95.19c-.08,0-.7-.08-1.12-.64-.03-.04-.33-.41-.32-.99,0-.05-.02-.53.38-1.02.03-.04.36-.45,1.02-.56.11-.02.64-.08,1.18.29.08.06,1.15.76,1.15.76l.87.58Z"></path><path class="cls-2" d="M109.84,32.32l-2.1-1.29s0,11.14,0,11.48-.08,1.64.24,2.86c.04.16.49,1.8,1.97,2.31.2.07,1.04.43,2.56.35.23-.01,1.68-.12,2.73-.91v-2.04s-1.48,1.18-3.54.89c-.28-.04-1.85-.29-1.88-2.38,0-.17,0-11.27,0-11.27Z"></path></g><path class="cls-2" d="M126.8,37.72c-1.66-2.73-4.14-2.85-4.98-2.89-3.5-.18-5.23,2.39-5.38,2.62-2.05,3.3-.66,6.58-.62,6.69,1.33,3.28,4.75,3.71,4.75,3.71,3.84.67,6.13-1.23,6.13-1.23v-2.01c-3.32,2.25-6.27,1.15-6.42,1.1-2.5-.89-2.75-3.48-2.75-3.48h10.03c.31-2.53-.68-4.38-.77-4.52ZM117.56,40.53c.76-4.08,4.02-3.79,4.35-3.75,3.38.34,3.52,3.75,3.52,3.75h-7.87Z"></path><path class="cls-2" d="M148.3,37.72c-1.66-2.73-4.14-2.85-4.98-2.89-3.5-.18-5.23,2.39-5.38,2.62-2.05,3.3-.66,6.58-.62,6.69,1.33,3.28,4.75,3.71,4.75,3.71,3.84.67,6.13-1.23,6.13-1.23v-2.01c-3.32,2.25-6.27,1.15-6.42,1.1-2.5-.89-2.75-3.48-2.75-3.48h10.03c.31-2.53-.68-4.38-.77-4.52ZM139.06,40.53c.76-4.08,4.02-3.79,4.35-3.75,3.38.34,3.52,3.75,3.52,3.75h-7.87Z"></path><path class="cls-2" d="M92.03,29.2h2.11s-.02-4.81-.02-5.36c0,0-.03-.99.02-1.47.04-.42.12-1.6,1.07-2.76,0,0,.46-.56.95-.82.46-.25,1.2-.55,2.14-.48,0,0,2.67-.07,2.95,2.89,0,0,.06.63.06.95v7.06h2.12v-7.37c0-.65,0-2.42-1.16-3.87-.12-.15-1.18-1.64-3.68-1.69-.32,0-2.91-.05-4.46,2.4v-2.16h-2.09l-.02,12.7Z"></path><path class="cls-2" d="M69.76,47.75h2.11s-.02-4.81-.02-5.36c0,0-.03-.99.02-1.47.04-.42.12-1.6,1.07-2.76,0,0,.46-.56.95-.82.46-.25,1.2-.55,2.14-.48,0,0,2.67-.07,2.95,2.89,0,0,.06.63.06.95v7.06h2.12v-7.37c0-.65,0-2.42-1.16-3.87-.12-.15-1.18-1.64-3.68-1.69-.32,0-2.91-.05-4.46,2.4v-4.86s-2.09-1.31-2.09-1.31l-.02,16.71Z"></path><path class="cls-2" d="M63.86,36.85c2.25.18,3.47,1.64,3.47,1.64v-2.36c-1.33-.95-2.41-1.13-2.67-1.18-1.82-.32-3.25.09-3.25.09-2.71.69-3.84,2.77-3.92,2.9-.99,1.71-.87,3.63-.86,3.73.08,2.56,1.43,4.04,1.51,4.13,1.94,2.27,4.73,2.17,4.93,2.17,2.66.1,4.4-1.19,4.4-1.19v-2.17c-1.18,1.07-2.64,1.25-2.8,1.28-1.95.34-3.17-.26-3.17-.26-2.85-1.17-2.71-4.13-2.71-4.28.04-2.74,1.87-3.85,2.59-4.15,0,0,.82-.39,1.82-.39,0,0,.55.01.67.02Z"></path><path class="cls-2" d="M101.56,37.76c1.63-3.11,4.63-2.93,4.63-2.93v2.43s-2.46-.53-3.86,1.61c-.18.27-.73,1.09-.77,2.67,0,.15-.02,6.22-.02,6.22h-2.07v-12.7h2.08v2.69Z"></path><path class="cls-2" d="M132.06,37.76c1.63-3.11,4.63-2.93,4.63-2.93v2.43s-2.46-.53-3.86,1.61c-.18.27-.73,1.09-.77,2.67,0,.15-.02,6.22-.02,6.22h-2.07v-12.7h2.08v2.69Z"></path><path class="cls-2" d="M139.27,19.17c1.63-3.11,4.63-2.93,4.63-2.93v2.43s-2.46-.53-3.86,1.61c-.18.27-.73,1.09-.77,2.67,0,.15-.02,6.22-.02,6.22h-2.07v-12.7h2.08v2.69Z"></path></svg>