<svg xmlns="http://www.w3.org/2000/svg" id="Layer_1" data-name="Layer 1" viewBox="0 0 2473.09 1398.74"><defs><style> .cls-1 { opacity: .65; } .cls-1, .cls-2, .cls-3, .cls-4, .cls-5, .cls-6, .cls-7, .cls-8, .cls-9, .cls-10, .cls-11, .cls-12, .cls-13, .cls-14, .cls-15, .cls-16, .cls-17, .cls-18, .cls-19, .cls-20, .cls-21, .cls-22, .cls-23, .cls-24 { fill-rule: evenodd; } .cls-1, .cls-5 { fill: #ecf5ff; } .cls-2 { fill: #e8e8e8; } .cls-3 { fill: #a2bcd9; } .cls-4, .cls-25 { fill: #fff; } .cls-6 { fill: #c9dbf5; } .cls-26, .cls-19 { fill: #b4d2dc; } .cls-7 { fill: #da9c70; } .cls-27, .cls-8 { fill: #aaa; } .cls-9 { fill: #f2672a; } .cls-10 { fill: #000446; } .cls-11 { fill: #e7eff9; } .cls-12 { fill: #71bdf8; } .cls-13 { fill: #285768; } .cls-14, .cls-28 { fill: #eeae79; } .cls-29, .cls-20 { fill: #c9c9c9; } .cls-15 { fill: #7ba9e3; } .cls-16 { fill: #2e88e8; } .cls-17 { fill: #edf8fd; } .cls-18 { fill: #45819c; } .cls-21 { fill: #f48120; } .cls-30 { fill: #e7611d; } .cls-22, .cls-31 { fill: #999; } .cls-23 { fill: #dae2ed; } .cls-24 { fill: #0f2c52; } .cls-32 { fill: none; stroke: #7ba9e3; stroke-miterlimit: 22.93; stroke-width: .22px; } </style></defs><path class="cls-1" d="M1213.45,49.15c-120.49,40.61-235.04,127.56-325.26,208.63-187.88,168.82-215.92,204.31-447.7,346.04-135.09,82.6-241.59,152.46-294.07,245.9-147.4,262.46,28.17,545.94,396.08,545.94h1495.58s175.93,3.6,304.3-136.68C2777.51,783.51,2055.83-234.77,1213.45,49.15"></path><g><path class="cls-2" d="M881.11,572.86l-10.69.15c-4.47.06-8.48-2.85-9.71-7.14-2.41-8.3-5.82-16.14-10.09-23.43-2.25-3.87-1.63-8.77,1.5-11.97l7.44-7.68c3.87-3.97,3.8-10.33-.17-14.2l-14.68-14.28c-3.97-3.87-10.34-3.77-14.2.2l-7.46,7.66c-3.13,3.21-8.01,3.97-11.92,1.82-7.4-4.08-15.34-7.27-23.7-9.44-4.33-1.12-7.33-5.04-7.38-9.52l-.16-10.69c-.07-5.55-4.63-9.97-10.17-9.9l-20.48.28c-5.54.07-9.97,4.63-9.9,10.17l.15,10.69c.06,4.47-2.84,8.48-7.13,9.72-8.29,2.4-16.14,5.81-23.42,10.08-3.87,2.28-8.77,1.63-11.98-1.49l-7.66-7.46c-3.97-3.87-10.33-3.78-14.19.2l-14.29,14.67c-3.87,3.97-3.77,10.33.2,14.2l7.66,7.46c3.21,3.12,3.98,8.01,1.81,11.92-4.06,7.4-7.25,15.35-9.44,23.7-1.11,4.33-5.04,7.33-9.51,7.4l-10.69.14c-5.54.07-9.97,4.63-9.9,10.17l.28,20.47c.08,5.55,4.63,9.98,10.18,9.9l10.68-.15c4.47-.05,8.47,2.84,9.72,7.14,2.39,8.28,5.81,16.13,10.07,23.41,2.28,3.87,1.63,8.77-1.48,11.98l-7.47,7.66c-3.87,3.97-3.77,10.33.2,14.2l14.66,14.28c3.98,3.87,10.34,3.77,14.21-.2l7.44-7.67c3.14-3.21,8.01-3.98,11.94-1.81,7.4,4.07,15.34,7.27,23.69,9.43,4.33,1.12,7.35,5.05,7.41,9.52l.15,10.68c.07,5.54,4.62,9.98,10.17,9.9l20.48-.27c5.53-.08,9.97-4.64,9.91-10.19l-.16-10.68c-.06-4.47,2.84-8.46,7.15-9.72,8.28-2.4,16.12-5.81,23.41-10.07,3.86-2.27,8.76-1.63,11.97,1.49l7.66,7.46c3.98,3.87,10.34,3.79,14.21-.19l14.27-14.68c3.87-3.97,3.79-10.33-.19-14.2l-7.67-7.46c-3.21-3.12-3.97-8-1.82-11.92,4.09-7.4,7.28-15.34,9.44-23.69,1.13-4.33,5.03-7.33,9.51-7.39l10.7-.15c5.54-.07,9.98-4.63,9.9-10.17l-.28-20.47c-.07-5.54-4.63-9.97-10.17-9.89M719.28,568.86c14.3-23.18,44.69-30.38,67.88-16.08,23.18,14.3,30.39,44.69,16.08,67.88-14.3,23.18-44.69,30.38-67.88,16.08-23.19-14.3-30.39-44.69-16.08-67.88Z"></path><path class="cls-2" d="M664.94,698.61l-8.08.11c-3.38.04-6.41-2.15-7.34-5.4-1.82-6.27-4.4-12.2-7.63-17.71-1.7-2.92-1.23-6.63,1.13-9.05l5.63-5.8c2.93-3,2.87-7.81-.13-10.73l-11.1-10.79c-3.01-2.93-7.82-2.85-10.74.15l-5.64,5.79c-2.36,2.43-6.05,3.01-9.01,1.38-5.59-3.08-11.6-5.49-17.92-7.14-3.27-.85-5.54-3.81-5.58-7.2l-.12-8.08c-.05-4.19-3.5-7.54-7.69-7.49l-15.48.21c-4.19.05-7.54,3.5-7.49,7.69l.11,8.08c.04,3.38-2.15,6.41-5.39,7.35-6.27,1.82-12.2,4.39-17.71,7.62-2.92,1.72-6.63,1.23-9.06-1.13l-5.79-5.64c-3-2.92-7.81-2.86-10.73.15l-10.8,11.09c-2.93,3.01-2.85,7.81.15,10.74l5.79,5.64c2.43,2.36,3.01,6.06,1.37,9.01-3.07,5.6-5.48,11.6-7.14,17.92-.84,3.27-3.81,5.54-7.19,5.59l-8.08.11c-4.19.05-7.54,3.5-7.49,7.69l.21,15.48c.06,4.19,3.5,7.54,7.69,7.49l8.07-.11c3.38-.04,6.4,2.14,7.35,5.4,1.8,6.26,4.39,12.19,7.61,17.7,1.72,2.92,1.24,6.63-1.12,9.06l-5.65,5.79c-2.93,3-2.85,7.81.15,10.73l11.08,10.79c3.01,2.93,7.82,2.85,10.74-.15l5.63-5.79c2.37-2.43,6.06-3.01,9.02-1.37,5.6,3.07,11.6,5.49,17.91,7.13,3.27.85,5.56,3.82,5.6,7.2l.11,8.08c.05,4.19,3.5,7.55,7.69,7.49l15.48-.2c4.18-.06,7.54-3.51,7.49-7.7l-.12-8.08c-.05-3.38,2.15-6.4,5.4-7.35,6.26-1.81,12.19-4.39,17.7-7.61,2.92-1.71,6.62-1.24,9.05,1.13l5.79,5.64c3.01,2.93,7.82,2.86,10.74-.14l10.79-11.1c2.93-3,2.87-7.81-.15-10.74l-5.79-5.64c-2.42-2.36-3-6.05-1.38-9.01,3.09-5.59,5.5-11.6,7.14-17.91.86-3.27,3.81-5.54,7.19-5.59l8.09-.12c4.19-.05,7.55-3.5,7.49-7.69l-.21-15.48c-.05-4.19-3.49-7.54-7.69-7.48M542.6,695.59c10.81-17.53,33.79-22.97,51.32-12.16,17.53,10.81,22.97,33.79,12.16,51.32-10.81,17.53-33.79,22.97-51.32,12.16-17.53-10.82-22.97-33.79-12.16-51.32Z"></path></g><path class="cls-20" d="M1570.71,1145.87c-6.31,137.05-23.03,171.7-138.84,249.8h513.38c-115.81-78.1-132.52-112.75-138.84-249.8l-117.85-11.14-117.85,11.14Z"></path><path class="cls-20" d="M1002.87,62.19h1380.26c49.48,0,89.96,45.07,89.96,100.14v886.13h0v12.75c0,55.08-40.48,100.14-89.96,100.14H1002.87c-49.48,0-89.96-45.06-89.96-100.14V162.33c0-55.08,40.48-100.14,89.96-100.14"></path><path class="cls-11" d="M957.34,114.42h1469.56c.6,0,1.1.55,1.1,1.22v879.76H956.24V115.64c0-.67.49-1.22,1.1-1.22"></path><path class="cls-19" d="M1793.77,220.44h634.23v652.6h-634.23c-1.56,0-2.83-1.28-2.83-2.83V223.27c0-1.56,1.28-2.83,2.83-2.83"></path><rect class="cls-26" x="1790.94" y="747.67" width="637.06" height="125.37"></rect><rect class="cls-31" x="1850.42" y="779.7" width="577.58" height="1.27"></rect><rect class="cls-31" x="1850.42" y="832.44" width="577.58" height="1.27"></rect><path class="cls-28" d="M1852.95,836.88c.1-.23,33.8-81.09,57.73-66.83,10.01,5.96,17.03,13.17,22.92,19.21,7.13,7.32,12.5,12.83,19.12,11.78,6.71-1.07,14.72-2.09,22.64-1.45,8.06.65,16,3.01,22.4,8.71,4.51,4.03,7.28,7.95,9.92,11.69,4.51,6.4,8.63,12.24,20.83,16.8,11.64,4.35,23.23-19.09,32.94-38.72,5.25-10.63,9.98-20.18,14.17-24.06.24-.22.48-.44.73-.65,5.95-5.2,12.39-7.21,18.64-6.83,6.21.38,12.17,3.12,17.23,7.42.26.22.53.45.79.69,5.65,5.09,17.87,13.13,31.14,19.01,9.59,4.25,19.69,7.36,28.17,7.36,14.79,0,23.83,13.85,31.08,24.96,3.33,5.1,6.26,9.6,9.05,11.64l.43.32c8.89,6.52,22.29,16.34,31.64,12.29,3.9-1.69,10.72-9.21,18.66-17.98,11.93-13.17,26.35-29.08,38.44-33.25,9.89-3.41,22.96-12.05,34.48-19.67,11.29-7.47,21.14-13.98,25.82-13.98,6.43,0,24.3,16.51,38.9,30,6.89,6.37,13.04,12.05,16.76,14.9,2.89,2.21,6.49,5.33,10.41,8.77v3.57l-.24-.21c-4.57-4.01-8.81-7.72-12.05-10.21-3.83-2.93-10.02-8.65-16.95-15.06-14.22-13.14-31.62-29.22-36.84-29.22-3.74,0-13.24,6.28-24.12,13.47-11.67,7.71-24.9,16.46-35.16,20-11.37,3.92-25.52,19.55-37.24,32.48-8.15,9-15.15,16.72-19.63,18.67-11.01,4.78-25.27-5.68-34.72-12.61l-.43-.32c-3.17-2.32-6.23-7.01-9.7-12.33-6.88-10.55-15.46-23.69-28.6-23.69-8.96,0-19.5-3.23-29.45-7.64-13.56-6.01-26.08-14.27-31.9-19.5-.24-.21-.48-.43-.74-.64-4.58-3.9-9.93-6.38-15.43-6.71-5.46-.33-11.13,1.46-16.44,6.1-.22.19-.44.39-.67.6-3.84,3.55-8.46,12.9-13.61,23.31-10.22,20.67-22.43,45.36-36.67,40.04-13.05-4.87-17.39-11.04-22.16-17.79-2.55-3.62-5.24-7.43-9.51-11.24-5.85-5.22-13.17-7.37-20.63-7.98-7.59-.61-15.35.38-21.88,1.42-8.22,1.31-14.05-4.67-21.79-12.61-5.77-5.93-12.66-13-22.35-18.77-20.89-12.44-53.36,65.39-53.45,65.61l-2.68-.88Z"></path><path class="cls-16" d="M2342.03,421.56h3.59v22.86h14.78v148.13h-14.78v22.86h-3.59v-22.86h-14.78v-148.13h14.78v-22.86ZM2393.45,443.53v31.28h-3.59v-31.28h-14.78v-75.79h33.16v75.79h-14.78ZM2065.99,422.68h3.59v22.86h14.78v148.13h-14.78v22.86h-3.59v-22.86h-14.78v-148.13h14.78v-22.86ZM2113.83,344.77h3.59v29.45h14.78v44.51h-14.78v55.45h-3.59v-55.45h-14.78v-44.51h14.78v-29.45ZM1877.41,469.55h3.59v65.64h14.78v148.13h-14.78v10.63h-3.59v-10.63h-14.78v-148.13h14.78v-65.64Z"></path><path class="cls-9" d="M2169.21,427.17h3.59v12.35h14.78v80.06h-14.78v12.35h-3.59v-12.35h-14.78v-80.06h14.78v-12.35ZM2226.68,503.36h3.59v12.2h14.78v79.02h-14.78v12.19h-3.59v-12.19h-14.78v-79.02h14.78v-12.2ZM2282.1,515.82h3.59v69.76h14.78v87.03h-14.78v12.35h-3.59v-12.35h-14.78v-87.03h14.78v-69.76ZM1952.5,521.28h3.59v12.35h14.78v80.06h-14.78v12.35h-3.59v-12.35h-14.78v-80.06h14.78v-12.35ZM2009.98,580.63h3.59v23.72h14.78v44.51h-14.78v23.72h-3.59v-23.72h-14.78v-44.51h14.78v-23.72Z"></path><polygon class="cls-4" points="2283.21 696.54 2297.07 724.27 2269.34 724.27 2283.21 696.54"></polygon><polygon class="cls-4" points="2013.45 687.1 2027.31 714.83 1999.58 714.83 2013.45 687.1"></polygon><rect class="cls-31" x="1566.64" y="1161.36" width="243.69" height="43.43"></rect><rect class="cls-32" x="1566.64" y="1161.36" width="243.69" height="43.43"></rect><path class="cls-4" d="M1270.62,506.47c41.7,98.76,56.92,319.62,63.12,483.44h192.87c-4.69-157.25-21.66-354.86-55.35-462.19-7.77-24.75-13.98-24.51-23.99-32.6-53.3-9.51-97.51-15.21-172.48-.1l-4.17,11.45Z"></path><path class="cls-24" d="M1588.32,995.39c.05-223.79-25.36-472.57-123.48-495.8-5.99-1.68-11.83-3.16-17.57-4.47,32.16,70.78-.44,304.99-33.8,500.27h174.85Z"></path><path class="cls-24" d="M1439.17,995.4c-33.04-200.17-131.08-429.62-161.15-500.83-51.89,7.08-82.47,19.72-111.39,48.24-49.08,46.06-47.83,119.09-14.75,208.21l31.67-36.93c15.66,73.28,19.91,177.24,23.07,281.31h232.56Z"></path><path class="cls-14" d="M1462.27,407.71c-12.15,24.19-25.23,41.85-44.22,50.95l-.13,37.52c11.95,23.71,11.24,46.03-21.44,51.73-89.69,4.42-78.71-57.99-77.92-60.91l8.68-52.21c-2.98-.17-27.96-13.22-34.41-15.2-6.44-1.99-15.91-14.4-16.54-27.53-.63-13.11,19.63-8.87,19.63-8.87-24.55-33.6-52.35-61.04-16.3-91.29,36.04-30.26,118.85-47.91,118.85-47.91l49.84-17.28c-21.66,58.71,45.32,118.51,13.95,180.98"></path><path class="cls-6" d="M1390.43,548.12c-11.75,12.02-29.77,28.76-41.52,40.78-24.81-26.14-38.19-65.72-49.9-98.23,9.5-6.55,12.93-9.51,21.69-16.5,11.38,22.64,30.17,56.61,69.73,73.95"></path><path class="cls-6" d="M1390.43,548.12c11.6,11.84,30.99,21.71,42.58,33.56,5.56-22.37,1.84-63.3-2.91-89.52-4.73-4.44-6.59-4.22-12.14-7.95,2.48,24.34-15.4,50.26-27.53,63.91"></path><path class="cls-7" d="M1347.41,440.97c11.85,24.22,34.66,59.48,70.51,55.21l.13-37.53c-15.96,2.56-31.57,1.3-70.64-17.69"></path><path class="cls-18" d="M1839.94,367.47h165.79c3.25,0,5.92,2.66,5.92,5.92s-2.66,5.92-5.92,5.92h-165.79c-3.25,0-5.92-2.66-5.92-5.92,0-3.25,2.66-5.92,5.92-5.92"></path><path class="cls-18" d="M1839.94,393.36h82.49c3.25,0,5.92,2.66,5.92,5.92s-2.66,5.92-5.92,5.92h-82.49c-3.25,0-5.92-2.66-5.92-5.92s2.66-5.92,5.92-5.92"></path><path class="cls-24" d="M1255.47,303.87c-8.41-27.38.54-56.19,27.54-77.28,55.95-43.71,104-19.55,124.76-14.46,14.35,3.52,24.03,3.14,38.14,6.09,35.27,7.37,40.22,78.79,14.79,102.89-2.53,2.39-8.39-29.26-11.22-27.11-2.98,2.61-6.27,4.99-9.91,7.09-41.44,21.23-77.59-1.13-101.72,27.28-11.95,14.08-10.75,34.37,2.64,65.7,3.94,9.23,9.21,16.04-6.39,8.81-7.16-3.31-30.51-10.77-34.53-7.52-8.96,7.24-4.44,22.46,2.71,27.37,3.19,2.19,9.23,5.45,9.23,5.45-65.86-12.49-81.26-104.8-56.04-124.33"></path><path class="cls-24" d="M1243.88,633.11c-15.43-34.26-9.99-154.45-97.32-65.7-29.06,41.34-100.77,250.23-86.47,347.68,6.53,44.51,44.79,53.38,84.88,62.47,27.48,6.23,62.55,12.94,94.98,17.98h126.01c29.62-23-17.92-49.12-17.92-49.12,0,0-160.42-61.63-179.59-71.47-9.07-5.34,86.69-216.87,75.44-241.84"></path><path class="cls-24" d="M1504.33,639.16c43.23,84.01,38.82,166.61,139.13,203.68,83.71,6.78,179.18-252.32,170.98-271.22-7.57-17.45-42.3-34.04-55.89-21.99-14.78,13.11-105.37,164.17-107.42,164.05-14.29-.89-88.85-190.35-175.73-210.6-10.41-5.94-1.51,95.5,28.93,136.09"></path><path class="cls-14" d="M1772.57,532.02c-3.03-11-9.61-50.57-5.1-60.47,6.96-15.25,16.33,26.31,17.03,29.67,12.35-22.91,21.14-37.97,35.82-63.44,5.62-9.74,16.31-2.34,14.48,4.02.09,4.35-17.95,32.63-16.69,37.42,2.64,10.06,14.27,21.09,14.36,34.75.25,40.2-14.82,32.51-23.82,63.8-9.32-2.07-29.58-5.37-43.97-26.69l7.89-19.05Z"></path><path class="cls-14" d="M1331.24,995.58c41.57-.21,88.03.34,100.33-.19-12.17-36.27-53.11-45.25-87.29-43.27-8.21,5.61-15.94,33.59-13.04,43.46"></path><path class="cls-24" d="M677.32,670.6s6.8,21.14,7.94,53.28c.92,26.06,1.36,36.34-11.49,40.96-4.83,1.74-14.46,2.43-24.22,3.82-17.19,2.46-24.18-17.59-24.56-21.45s5.86-45.43,5.86-46.94c0-1.51,46.48-29.66,46.48-29.66"></path><polygon class="cls-22" points="614.59 1352.32 595.7 1352.3 541.04 1386.55 541.04 1394.53 613.32 1394.53 615.86 1394.53 688.14 1394.53 688.14 1386.55 633.48 1352.3 614.59 1352.32"></polygon><rect class="cls-31" x="601.37" y="1146.84" width="26.45" height="205.48"></rect><path class="cls-20" d="M601.37,1226.8h26.45c6.04,0,10.99-4.95,10.99-10.99v-68.97h-48.43v68.97c0,6.05,4.94,10.99,10.99,10.99"></path><path class="cls-20" d="M655.93,1110.2h170.11c10.19,0,18.53,8.34,18.53,18.53h0c0,10.19-8.34,18.53-18.53,18.53h-170.11c-10.19,0-18.53-8.34-18.53-18.53h0c0-10.19,8.34-18.53,18.53-18.53"></path><path class="cls-20" d="M598.67,833.44h-173.26l43.57,278.71,173.26.15h0c.67,0,1.35-.05,2.03-.15h0c7.14,0,11.9-7.52,10.79-14.32l-41.56-253.97c-1.11-6.81-7.7-10.42-14.84-10.42h0Z"></path><path class="cls-22" d="M438.22,843.85l44.02,267.63h192.24c10.19,0,18.53,8.05,18.53,17.89s-8.34,17.89-18.53,17.89h-193.68c-18.49,0-21.69-16.72-23.36-26.84l-44.85-272.65c-1.12-6.8,3.65-14.33,10.79-14.33h0c7.14,0,13.72,3.62,14.84,10.42"></path><path class="cls-23" d="M849.81,1150.44l-19.94,2.11,24.78,233.69c.58,5.48,5.54,9.49,11.03,8.91s9.49-5.54,8.91-11.03l-24.78-233.69Z"></path><path class="cls-3" d="M829.97,1153.52l24.68,232.73c.52,4.94,4.61,8.69,9.42,8.95,3.05-2,4.92-5.6,4.51-9.46l-24.78-233.7-13.82,1.47Z"></path><path class="cls-28" d="M768.98,1033.64l98.83,47.3.2,266.99c.71.81,1.4,1.62,2.09,2.4.53.62,1.07,1.22,1.6,1.81,1.28,1.43,2.54,2.79,3.79,4.04.57.57,1.13,1.13,1.71,1.66,9.26,8.71,20.43,10.1,29.61,11.58,7.11,1.15,12.55,1.56,18.03,10.5.17.28.31.56.42.85,1.27,3.25-1.02,7-4.69,7.2l-82.85,3.98c-4.08.23-7.57-2.63-8.31-6.48-.1-.55-.16-1.11-.14-1.68l2.65-36.52s0-.05.01-.15c-7.6-70.27-27.81-148.04-21.29-231.35,0,0-107.98-101.61-107.96-105.39.02-3.76,66.29,23.24,66.29,23.24"></path><path class="cls-28" d="M768.49,1056.23c-3.6,31.1,18.09,49.55,14.49,80.64-.05,77.86-13.48,135.68-31.93,214.3-.61,2.6,4.04,27.33,3.51,29.91-8.19,8.76-32.44,21.39-34.94-19.02,10.44-67.88-16.8-145.98,10.09-228.56l-16.98-82.33,55.76,5.06Z"></path><path class="cls-24" d="M710.75,976.43c8.33,51.56,188.14-10.58,168.18,184.56-30.31,13.95-117.8,17.1-166.45,5.46-11.88-54.85-222.58,13.63-140.47-189.79,15.53-36.3,133-23.46,138.74-.23"></path><path class="cls-14" d="M681.62,834.55c9.35,20.53,14.44,63.5,56.79,92.19,46.06,31.22,137.42,31.65,134.2,15.27-2.11-10.74-58.37-8.21-120.77-60.23-13.33-11.11-26.35-83.26-64.24-102.74-4.47-2.88-19.04,35.84-5.97,55.51"></path><path class="cls-9" d="M532.43,794.3c-15.83,64.61,46.82,67.32,32.46,197.76,47.51,6.6,112.69,7.4,153.54-2.66-6.53-47.99,3.76-91.45,5.66-117.66,2.85-39.42-6.23-68.59-28.19-91.95-20.98-22.32-136.71-25.39-163.47,14.51"></path><path class="cls-9" d="M569.13,943.03c.53,13.68-2.29,31.26-4.25,49.02,17.53,2.43,28.5,3.85,47.99,4.71-3.96-8.72-34.22-47.36-43.74-53.73"></path><path class="cls-14" d="M656.43,748.52l.18,15.95,2.31,1.99c9.02,9.8-.96,29.72-11.3,29.03-26.18,1.11-46.11-20.49-38.17-32.08l3.44-3.78.91-22.56c-1.35-.09-11.14-5.74-14.06-6.66-2.92-.92-7.17-6.58-7.42-12.54-.25-5.95,8.94-3.96,8.94-3.96-11.03-15.32-23.56-27.86-7.11-41.47,16.45-13.61,54.07-21.36,54.07-21.36l22.67-7.68c-2.93,7.78-2.05,24.5,3.64,40.79,8.08,23.16,1.29,54.66-18.1,64.33"></path><path class="cls-7" d="M624.44,740.28s12.64,22.02,23.13,24.08,5.13.55,9.05.11l-.19-15.95c-7.25,1.11-14.33.49-31.99-8.25"></path><path class="cls-15" d="M854.63,929.74h-162.9v3.83c0,2.11,1.73,3.83,3.83,3.83h155.23c2.11,0,3.83-1.72,3.83-3.83v-3.83h0Z"></path><path class="cls-15" d="M920.65,828.3h-128.28c-5.06,0-8.25,4.28-9.2,9.31l-17.62,94.13h145.39l17.62-95.42c.8-4.33-3.56-8.01-7.92-8.01"></path><path class="cls-12" d="M925.05,828.3h-128.28c-5.06,0-8.25,4.28-9.2,9.31l-16.39,87.03h-.22l-1.05,6.39c-.57,3.46,2.88,6.39,6.39,6.39h132.89c3.51,0,5.87-2.91,6.39-6.39l.79-5.24,16.61-89.46c.81-4.33-3.56-8.02-7.92-8.02"></path><path class="cls-17" d="M857.46,877.28c-3.06-.73-6.24,1.59-7.09,5.19-.86,3.6.92,7.11,3.98,7.84s6.23-1.59,7.09-5.19c.86-3.6-.92-7.11-3.98-7.84"></path><path class="cls-14" d="M537.47,789.58c-45.88,20.49,3.93,106.83,12.1,141.88,8,32.69,168.5,7.15,196.6,5.94-2.03-6.06-21.54-15.04-34.93-18.54-9.07-2.37-24.34,4.92-36.14,2.58-55.98-11.08-86.59-6.63-86.82-8.71-1.73-42.07-15.5-89.34-38.53-117.18-2.11-2.55-8.86-7.51-12.28-5.98"></path><path class="cls-24" d="M627.31,684.59s34.48,1.16,47.33-9.98c8.36-7.15,11.63-21.93,6.8-34.51-6.15-16.02-29.4-25.64-68-14.18-52.49,15.59-67.89,78.61-66.26,126.05.89,25.89,42.35,31.72,60.7,19.54,25.48-18.68-19.44-81.1,19.43-86.93"></path><path class="cls-24" d="M904.07,1366.95s28.34,8.49,27.75,17.47c-1.19,18.12-101.24,8.96-101.82,8.35-3.84-4.07-4.46-21.9-.22-28.3,3.15-4.76,43.71,16.16,74.29,2.49"></path><path class="cls-24" d="M763.67,1390.72c-.63,11.54-42.31,8.23-48.58,4.76-9.32-5.15,2.03-38.51,5.55-34.48,0,0,10.87,17.11,23.72,13.65,12.85-3.46,8.34-7.27,10.54-2.94,4.11,8.11,9.35,8.36,8.77,19"></path><rect class="cls-29" x="950.31" y="969.65" width="26.24" height="424.99"></rect><path class="cls-18" d="M310.86,826.26c12.89,40.99,31.64,80.77,73.73,105.13,36.99,9.5,112.77,14.34,110.55,5.24-2.05-8.41-.06-10.06-12.96-14.43-7.64,4.73-89.88-55.9-90.79-56.11-6.33-1.5-30.81-86.51-68.18-102.29-4.21-3.47-22.86,41.93-12.35,62.47"></path><path class="cls-21" d="M330.85,876.6c2.12,3.78,10.23,17.82,24.34,30.48-8.14-16.87-25.24-90.3-25.24-90.3l.9,59.82Z"></path><path class="cls-20" d="M252.69,1110.48h168.81c10.11,0,18.39,8.27,18.39,18.39s-8.27,18.39-18.39,18.39h-168.81c-10.11,0-18.39-8.27-18.39-18.39,0-10.11,8.27-18.39,18.39-18.39"></path><path class="cls-20" d="M195.87,842.96H23.93l43.24,270.25,171.94.15h0c.67,0,1.34-.05,2.02-.15h0c7.08,0,11.81-7.29,10.71-13.89l-41.24-246.26c-1.1-6.6-7.65-10.1-14.72-10.1h0Z"></path><path class="cls-22" d="M36.64,853.06l43.69,259.5h190.77c10.11,0,18.39,7.81,18.39,17.34s-8.27,17.34-18.39,17.34H78.89c-18.34,0-21.53-16.21-23.18-26.03L11.21,856.85c-1.11-6.6,3.62-13.89,10.71-13.89h0c7.08,0,13.61,3.51,14.72,10.1"></path><polygon class="cls-14" points="504.38 1359.49 504.17 1323.7 473.28 1324.59 473.93 1361.23 504.38 1359.49"></polygon><path class="cls-24" d="M233.46,1012.34l68.76-13.04s159.47,17.43,188.98,69.46c29.51,52.03,17.88,261.9,17.88,261.9l-42.87.56c2.78-17.28-44.44-217.82-44.59-217.85l-179.73-63.97-8.44-37.06Z"></path><path class="cls-10" d="M233.46,1012.34l24.16,10.84c19.87.37,105.91,13.81,120.33,16.91,48.88,10.53,42.87,35.36,43.67,73.28l-35.51-4.82-144.22-59.15-8.44-37.06Z"></path><polygon class="cls-14" points="345.1 1354.83 348.04 1323.7 316.81 1324.45 317.11 1360.09 345.1 1354.83"></polygon><path class="cls-24" d="M346.63,1349.56c8.83,15.86,23.21,31.03,11.98,44.5h-57.18c-.09-.26-.19-.54-.28-.84-.55-1.85-3.22-2.62-1.44-9.37,3.31-12.54,13.05-31.82,16.4-32.81,6.64-1.97,16.06,3.58,30.51-1.48"></path><path class="cls-24" d="M323.93,1348.01h13.24c1.82,0,3.31,1.49,3.31,3.31v17.03c0,1.82-1.49,3.31-3.31,3.31h-13.24c-1.82,0-3.31-1.49-3.31-3.31v-17.03c0-1.82,1.49-3.31,3.31-3.31"></path><path class="cls-24" d="M154.77,1004.8s-19.98,80.65,16.31,98.04c36.3,17.38,149.56,19.22,149.56,19.22-22.84,85.72-6.17,139.99-7.03,213.01l37.83.19s38.13-136.34,49.33-213.64c5.65-39,6.83-70.01-42.56-80.65-16.61-3.58-124.75-28.63-124.75-28.63l-78.69-7.54Z"></path><path class="cls-18" d="M173.72,766.46c-27.08,62.13,4.53,114.2-22.34,242.53,46.56,14.84,184.15,15.3,190.08-5.96,2.87-81.16-1.43-149.8-4.72-230.92-41.18-28.54-101.4-37.88-148.57-16.01-2.5,1.16-6.48,2.87-8.85,4.76-2.42,1.93-3.22,4.04-5.6,5.59"></path><path class="cls-13" d="M292.37,916.93l-100.4-33.59-.67-40.84-11.14-14.94s-22.71,34.74-22.8,37.09c-.09,2.35,10.03,37.66,9.12,37.7s59.93,20.27,64.93,21.45c5,1.18,60.96-6.87,60.96-6.87"></path><path class="cls-18" d="M183.62,758.26c-39.26,19.28-62.31,127.77-53.32,158.82,1.55,22.32,92.75,19.43,157.69,27.98,8.91-6.56,16.19-15.2,7.86-27.32-39.89-14.67-110.13-27.75-110.01-29.88,5.54-42.54,13.95-100.94,10.91-129.21-.36-3.35-9.71-2.07-13.13-.4"></path><path class="cls-24" d="M508.32,1347.31s41.18,18,54.91,25.15c10.66,5.56,16.7,17.25,7.94,23.21h-106.67c-.09-.27-.19-.57-.28-.89-1.58-5.61-5.73-45.68,5.36-44.78,6.89.55,23.31,5.75,38.72-2.69"></path><path class="cls-14" d="M314.28,715.85c-6.72,10.72-13.58,18.37-22.81,21.77l-1.71,17.46c4.52,11.56,3.21,21.92-12.25,23.14-41.94-1.88-34.09-30.44-33.59-31.77l6.33-23.92c-1.38-.21-12.43-7.38-15.35-8.58-2.91-1.21-6.77-7.4-6.49-13.54.28-6.13,9.53-3.27,9.53-3.27-9.95-16.71-21.69-30.71-3.58-43.21,18.1-12.5,57.42-17.09,57.42-17.09l23.95-5.85c-12.65,26.38,15.9,57.15-1.44,84.85"></path><path class="cls-5" d="M274.69,778.05c-5.99,5.08-15.12,12.08-21.11,17.16-10.4-13.25-19.43-28.6-21.18-46.18,1.95-3.66,10.96-9.19,13.76-11.02,4.3,11.04,10.88,30.23,28.53,40.04"></path><path class="cls-5" d="M274.69,778.05c4.88,6.02,13.47,11.47,18.35,17.49,3.57-10.17,6.21-30.27,5.15-42.69-2.57-1.91-4.08-4.68-7.44-7.78-2.45,8.63-9.8,27.16-16.05,32.98"></path><path class="cls-7" d="M259.36,726.29c3.77,14.41,11.97,27.42,27.96,28.74l3.42-9.95.73-7.45c-7.54.49-14.75-.78-32.1-11.33"></path><path class="cls-14" d="M474.4,938.99c15.97-.08,33.82.13,38.55-.07-4.68-13.94-20.41-17.39-33.54-16.63-3.15,2.15-6.12,12.91-5.01,16.7"></path><rect class="cls-27" x="355.78" y="934.12" width="154.61" height="4.89"></rect><polygon class="cls-22" points="206.75 1351.94 225.48 1351.91 279.65 1386.03 279.65 1393.98 208.01 1393.98 205.49 1393.98 133.85 1393.98 133.85 1386.03 188.02 1351.91 206.75 1351.94"></polygon><rect class="cls-31" x="193.64" y="1147.26" width="26.22" height="204.68"></rect><rect class="cls-29" x="182.75" y="1147.26" width="48" height="79.65"></rect><path class="cls-24" d="M311.22,667.82c-20.08,7.87-40.91-5.95-53.35,6.03-6.16,5.94-6.55,15.34-1.83,30.41.83,2.64-5.81,2.11-5.91,2.05-3.15-1.86-5.81-2.83-7.82-1.51-4.47,2.92-3.09,10.15-.02,12.74,1.37,1.16,4,2.94,4,2.94-25.2-7.45-33.58-31.71-31.34-50.33.76-6.31,2.03-11.87,3.73-16.75-.35-1.77-.46-3.64-.27-5.54.81-8.1,6.67-14.42,13.94-15.86,2.16-8.33,9.81-14.08,18.25-13.24,2.54.26,4.89,1.08,6.95,2.35l.87-.14c3.62-4.99,9.76-7.97,16.39-7.31,4.65.47,8.7,2.65,11.59,5.84,5.32-5.9,12.81-9.24,20.73-8.44,14.1,1.42,24.24,15.42,22.64,31.27-1,9.92-6.35,18.21-13.68,22.69-1.49,1.07-3.12,2.01-4.89,2.81"></path><path class="cls-15" d="M471.15,929.74h-162.9v3.83c0,2.11,1.72,3.83,3.83,3.83h155.23c2.11,0,3.83-1.72,3.83-3.83v-3.83h0Z"></path><path class="cls-15" d="M537.18,828.3h-128.28c-5.06,0-8.25,4.28-9.2,9.31l-17.62,94.13h145.39l17.62-95.42c.8-4.33-3.56-8.01-7.92-8.01"></path><path class="cls-12" d="M541.58,828.3h-128.28c-5.06,0-8.25,4.28-9.2,9.31l-16.39,87.03h-.22l-1.05,6.39c-.57,3.46,2.88,6.39,6.39,6.39h132.89c3.51,0,5.87-2.91,6.39-6.39l.79-5.24,16.61-89.46c.8-4.33-3.56-8.02-7.92-8.02"></path><path class="cls-17" d="M473.99,877.28c-3.06-.73-6.24,1.59-7.09,5.19-.86,3.6.92,7.11,3.98,7.84s6.24-1.59,7.09-5.19c.86-3.6-.92-7.11-3.98-7.84"></path><path class="cls-20" d="M1065.33,937.4H57v35.08h1008.33c9.65,0,17.54-7.89,17.54-17.54h0c0-9.65-7.89-17.54-17.54-17.54"></path><path class="cls-8" d="M264.7,937.4H17.41c-9.57,0-17.41,7.88-17.41,17.52s7.83,17.52,17.41,17.52h110.32v421.54h27.32v-421.54h109.66c9.57,0,17.41-7.88,17.41-17.52,0-9.63-7.83-17.52-17.41-17.52"></path><path class="cls-14" d="M340,939.56c-1.98-6.85-5.7-16.74-15.24-19.77-6.77-2.15-20.05.5-46.99,2.03-3.31,8.56-3.37,13.03-2.47,17.04l64.71.7Z"></path><g><path class="cls-25" d="M1904.75,318.94c-1.37,0-2.4-1.23-2.4-2.32v-45.87c0-2.31-1.77-3.38-3.07-3.38h-11.85c-1.13,0-2.25-1.23-2.25-2.48s1.09-2.4,2.25-2.4h34.33c1.32,0,2.32,1.03,2.32,2.4,0,1.2-.81,2.48-2.32,2.48h-14.77v49.25c0,1.05-1,2.32-2.25,2.32"></path><path class="cls-25" d="M1936,318.94c-1.28,0-2.32-1.04-2.32-2.32v-51.73c0-1.24,1.08-2.32,2.32-2.32h29.46c1.24,0,2.32,1.08,2.32,2.32,0,1.32-1.09,2.48-2.32,2.48h-23.51c-1.62,0-3.55,1.01-3.55,3.8,0,.23,0,13.91,0,13.91h24.2c1.48,0,2.4,1.28,2.4,2.48s-.98,2.4-2.4,2.4h-24.2v26.67c0,1.26-1.1,2.32-2.4,2.32"></path><path class="cls-25" d="M2016.06,315.12l-13.53-20.85c-.47-.73-.87-2.02-.87-3.61,0-2.16.91-3.81,1.23-4.29l13.2-20.32c.42-.54.67-2.27-.57-3.16-1.02-.74-2.57-.73-3.52.78l-14.65,22.59-14.66-22.59c-.46-.8-1.73-1.84-3.43-.85-.98.57-1.34,2.22-.65,3.26l15.93,24.51-15.91,24.53c-.56.9-.63,2.52.58,3.37.8.57,2.47.51,3.32-.77l14.82-22.8,14.81,22.8c.69,1.07,2.33,1.44,3.32.77,1.23-.83,1.1-2.44.59-3.37"></path><path class="cls-25" d="M1880.26,318.98c-1.01,0-1.79-.74-2.08-1.41l-17.34-41.1c-.57-.92-1.35-1.43-2.2-1.43-.99,0-1.95.73-2.55,1.95l-16.99,40.61s-.77,1.86-3.1,1.15c-1.4-.42-1.63-2.09-1.3-2.95l21.82-51.76c.13-.28.56-1.45,2.15-1.48.8-.02,1.8.57,2.21,1.62l21.6,51.6c.14.3.34.97,0,1.79-.21.5-.66.95-1.17,1.18-.51.23-.94.24-1.06.24"></path><path class="cls-30" d="M1836.48,301.14c-1.43,0-2.6-1.17-2.6-2.6s1.16-2.6,2.6-2.6h32.57l2.2,5.2h-34.77Z"></path></g></svg>